<svg viewBox="0 0 640 400" width="640px" height="400px" xmlns="http://www.w3.org/2000/svg"><rect x="0" y="0" width="100%" height="100%" fill="white"/><line style="stroke-opacity:0" class="ttip-line-x" x1="0" x2="0" y1="10" y2="370" stroke-width="1px" stroke="black" /><line style="stroke-opacity:0" class="ttip-line-y" x1="60" x2="630" y1="0" y2="0" stroke-width="1px" stroke="black" /><g class="xaxisgroup" fill="none" font-size="10" font-family="sans-serif" text-anchor="middle" color="#000000" transform="translate(0, 370)"><g class="xaxislabel"><text style="text-anchor:middle;font-size:10px;font-family:'Arial', sans-serif;fill:#000000" x="0" y="0" transform="translate(320, 25)" /></g><path class="domain" stroke="currentColor" d="M60.5,6V0.5H630.5V6" /><g class="tick" opacity="1" transform="translate(60.5,0)"><line stroke="currentColor" y2="6" /><text style="font-size:10px;font-family:'Arial', sans-serif;fill:#000000" fill="currentColor" y="9" dy="0.71em" transform="rotate(0)" text-anchor="middle">0</text></g><g class="tick" opacity="1" transform="translate(113.10729118597139,0)"><line stroke="currentColor" y2="6" /><text style="font-size:10px;font-family:'Arial', sans-serif;fill:#000000" fill="currentColor" y="9" dy="0.71em" transform="rotate(0)" text-anchor="middle">20</text></g><g class="tick" opacity="1" transform="translate(165.71458237194278,0)"><line stroke="currentColor" y2="6" /><text style="font-size:10px;font-family:'Arial', sans-serif;fill:#000000" fill="currentColor" y="9" dy="0.71em" transform="rotate(0)" text-anchor="middle">40</text></g><g class="tick" opacity="1" transform="translate(218.32187355791416,0)"><line stroke="currentColor" y2="6" /><text style="font-size:10px;font-family:'Arial', sans-serif;fill:#000000" fill="currentColor" y="9" dy="0.71em" transform="rotate(0)" text-anchor="middle">60</text></g><g class="tick" opacity="1" transform="translate(270.92916474388556,0)"><line stroke="currentColor" y2="6" /><text style="font-size:10px;font-family:'Arial', sans-serif;fill:#000000" fill="currentColor" y="9" dy="0.71em" transform="rotate(0)" text-anchor="middle">80</text></g><g class="tick" opacity="1" transform="translate(323.5364559298569,0)"><line stroke="currentColor" y2="6" /><text style="font-size:10px;font-family:'Arial', sans-serif;fill:#000000" fill="currentColor" y="9" dy="0.71em" transform="rotate(0)" text-anchor="middle">100</text></g><g class="tick" opacity="1" transform="translate(376.1437471158283,0)"><line stroke="currentColor" y2="6" /><text style="font-size:10px;font-family:'Arial', sans-serif;fill:#000000" fill="currentColor" y="9" dy="0.71em" transform="rotate(0)" text-anchor="middle">120</text></g><g class="tick" opacity="1" transform="translate(428.7510383017997,0)"><line stroke="currentColor" y2="6" /><text style="font-size:10px;font-family:'Arial', sans-serif;fill:#000000" fill="currentColor" y="9" dy="0.71em" transform="rotate(0)" text-anchor="middle">140</text></g><g class="tick" opacity="1" transform="translate(481.35832948777113,0)"><line stroke="currentColor" y2="6" /><text style="font-size:10px;font-family:'Arial', sans-serif;fill:#000000" fill="currentColor" y="9" dy="0.71em" transform="rotate(0)" text-anchor="middle">160</text></g><g class="tick" opacity="1" transform="translate(533.9656206737425,0)"><line stroke="currentColor" y2="6" /><text style="font-size:10px;font-family:'Arial', sans-serif;fill:#000000" fill="currentColor" y="9" dy="0.71em" transform="rotate(0)" text-anchor="middle">180</text></g><g class="tick" opacity="1" transform="translate(586.5729118597138,0)"><line stroke="currentColor" y2="6" /><text style="font-size:10px;font-family:'Arial', sans-serif;fill:#000000" fill="currentColor" y="9" dy="0.71em" transform="rotate(0)" text-anchor="middle">200</text></g></g><g class="yaxisgroup" fill="none" font-size="10" font-family="sans-serif" text-anchor="end" color="#000000" transform="translate(60, 0)"><g class="yaxislabel"><text style="text-anchor:middle;font-size:10px;font-family:'Arial', sans-serif;fill:#000000" x="-45" y="200" transform="rotate(-90, -45, 200)" /></g><path class="domain" stroke="currentColor" d="M-6,370.5H0.5V10.5H-6" /><g class="tick" opacity="1" transform="translate(0,370.5)"><line stroke="currentColor" x2="-6" /><text style="text-anchor:right;font-size:10px;font-family:'Arial', sans-serif;fill:#000000" fill="currentColor" x="-9" dy="0.32em" transform="rotate(0)">0.00%</text></g><g class="tick" opacity="1" transform="translate(0,340.76086956521743)"><line stroke="currentColor" x2="-6" /><text style="text-anchor:right;font-size:10px;font-family:'Arial', sans-serif;fill:#000000" fill="currentColor" x="-9" dy="0.32em" transform="rotate(0)">2.00%</text></g><g class="tick" opacity="1" transform="translate(0,311.0217391304348)"><line stroke="currentColor" x2="-6" /><text style="text-anchor:right;font-size:10px;font-family:'Arial', sans-serif;fill:#000000" fill="currentColor" x="-9" dy="0.32em" transform="rotate(0)">4.00%</text></g><g class="tick" opacity="1" transform="translate(0,281.28260869565213)"><line stroke="currentColor" x2="-6" /><text style="text-anchor:right;font-size:10px;font-family:'Arial', sans-serif;fill:#000000" fill="currentColor" x="-9" dy="0.32em" transform="rotate(0)">6.00%</text></g><g class="tick" opacity="1" transform="translate(0,251.54347826086953)"><line stroke="currentColor" x2="-6" /><text style="text-anchor:right;font-size:10px;font-family:'Arial', sans-serif;fill:#000000" fill="currentColor" x="-9" dy="0.32em" transform="rotate(0)">8.00%</text></g><g class="tick" opacity="1" transform="translate(0,221.80434782608694)"><line stroke="currentColor" x2="-6" /><text style="text-anchor:right;font-size:10px;font-family:'Arial', sans-serif;fill:#000000" fill="currentColor" x="-9" dy="0.32em" transform="rotate(0)">10.00%</text></g><g class="tick" opacity="1" transform="translate(0,192.06521739130434)"><line stroke="currentColor" x2="-6" /><text style="text-anchor:right;font-size:10px;font-family:'Arial', sans-serif;fill:#000000" fill="currentColor" x="-9" dy="0.32em" transform="rotate(0)">12.00%</text></g><g class="tick" opacity="1" transform="translate(0,162.32608695652175)"><line stroke="currentColor" x2="-6" /><text style="text-anchor:right;font-size:10px;font-family:'Arial', sans-serif;fill:#000000" fill="currentColor" x="-9" dy="0.32em" transform="rotate(0)">14.00%</text></g><g class="tick" opacity="1" transform="translate(0,132.5869565217391)"><line stroke="currentColor" x2="-6" /><text style="text-anchor:right;font-size:10px;font-family:'Arial', sans-serif;fill:#000000" fill="currentColor" x="-9" dy="0.32em" transform="rotate(0)">16.00%</text></g><g class="tick" opacity="1" transform="translate(0,102.84782608695652)"><line stroke="currentColor" x2="-6" /><text style="text-anchor:right;font-size:10px;font-family:'Arial', sans-serif;fill:#000000" fill="currentColor" x="-9" dy="0.32em" transform="rotate(0)">18.00%</text></g><g class="tick" opacity="1" transform="translate(0,73.1086956521739)"><line stroke="currentColor" x2="-6" /><text style="text-anchor:right;font-size:10px;font-family:'Arial', sans-serif;fill:#000000" fill="currentColor" x="-9" dy="0.32em" transform="rotate(0)">20.00%</text></g><g class="tick" opacity="1" transform="translate(0,43.369565217391276)"><line stroke="currentColor" x2="-6" /><text style="text-anchor:right;font-size:10px;font-family:'Arial', sans-serif;fill:#000000" fill="currentColor" x="-9" dy="0.32em" transform="rotate(0)">22.00%</text></g><g class="tick" opacity="1" transform="translate(0,13.630434782608678)"><line stroke="currentColor" x2="-6" /><text style="text-anchor:right;font-size:10px;font-family:'Arial', sans-serif;fill:#000000" fill="currentColor" x="-9" dy="0.32em" transform="rotate(0)">24.00%</text></g></g><g class="linesgroup"><path style="stroke-opacity:1" d="M62.63,79.26L67.812,79.26L72.994,79.26L78.176,79.26L83.358,79.26L88.539,79.26L93.721,79.26L98.903,79.26L104.085,79.26L109.267,79.26L114.449,79.26L119.63,79.26L124.812,79.26L129.994,79.26L135.176,79.26L140.358,79.26L145.539,79.26L150.721,79.26L155.903,79.26L161.085,79.26L166.267,79.26L171.449,79.26L176.63,79.26L181.812,79.26L186.994,79.26L192.176,79.26L197.358,79.26L202.539,79.26L207.721,79.26L212.903,79.26L218.085,79.26L223.267,79.26L228.449,79.26L233.63,79.26L238.812,79.26L243.994,79.26L249.176,79.26L254.358,79.26L259.539,79.26L264.721,79.26L269.903,79.26L275.085,79.26L280.267,79.26L285.449,79.26L290.63,79.26L295.812,79.26L300.994,79.26L306.176,79.26L311.358,79.26L316.539,79.26L321.721,79.26L326.903,79.26L332.085,79.26L336.188,79.26L337.267,79.26L342.449,79.26L347.63,79.26L352.812,79.26L357.994,79.26L363.176,79.26L368.358,79.26L373.539,79.26L378.274,79.26L378.721,79.26L380.904,79.26L383.903,79.26L389.085,79.26L394.267,79.26L399.449,79.26L404.63,79.26L409.812,79.26L414.994,79.26L420.176,79.26L420.36,79.26L425.358,79.26L430.539,79.26L435.721,79.26L440.903,79.26L446.085,79.26L451.267,79.26L456.449,79.26L461.63,79.26L466.812,79.26L471.994,79.26L477.176,79.26L482.358,79.26L483.489,79.26L487.539,79.26L492.721,79.26L497.903,79.26L503.085,79.26L507.162,79.26L508.267,79.26L513.449,79.26L518.63,79.26L523.812,79.26L528.205,79.26L528.994,79.26L534.176,79.26L539.358,79.26L543.987,79.26L544.539,79.26L549.721,79.26L554.903,79.26L559.769,79.26L560.085,79.26L565.267,79.26L570.449,79.26L575.63,79.26L578.182,79.26L580.812,79.26L585.994,79.26L591.176,79.26L596.358,79.26L601.539,79.26L606.721,79.26L611.903,79.26L617.085,79.26L622.267,79.26" fill="none" stroke="#000000" stroke-width="1.5" stroke-dasharray="10 0" /><path style="stroke-opacity:1" d="M88.539,369.819L93.721,368.956L98.903,365.298L104.085,360.358L109.267,354.879L114.449,349.243L119.63,343.649L124.812,338.202L129.994,332.954L135.176,327.928L140.358,323.131L145.539,318.56L150.721,314.207L155.903,310.063L161.085,306.116L166.267,302.355L171.449,298.767L176.63,295.341L181.812,292.068L186.994,288.937L192.176,285.939L197.358,283.065L202.539,280.308L207.721,277.66L212.903,275.115L218.085,272.666L223.267,270.308L228.449,268.035L233.63,265.842L238.812,263.726L243.994,261.68L249.176,259.703L254.358,257.79L259.539,255.938L264.721,254.143L269.903,252.403L275.085,250.715L280.267,249.077L285.449,247.485L290.63,245.939L295.812,244.436L300.994,242.973L306.176,241.55L311.358,240.164L316.539,238.814L321.721,237.498L326.903,236.215L332.085,234.963L336.188,233.994L337.267,233.742L342.449,232.55L347.63,231.385L352.812,230.248L357.994,229.136L363.176,228.049L368.358,226.986L373.539,225.946L378.274,225.015L378.721,224.928L380.904,224.506L383.903,223.932L389.085,222.956L394.267,222.001L399.449,221.065L404.63,220.147L409.812,219.247L414.994,218.365L420.176,217.5L420.36,217.469L425.358,216.651L430.539,215.818L435.721,215L440.903,214.198L446.085,213.409L451.267,212.635L456.449,211.874L461.63,211.127L466.812,210.392L471.994,209.67L477.176,208.96L482.358,208.261L483.489,208.11L487.539,207.574L492.721,206.898L497.903,206.233L503.085,205.579L507.162,205.071L508.267,204.935L513.449,204.301L518.63,203.676L523.812,203.061L528.205,202.547L528.994,202.456L534.176,201.859L539.358,201.271L543.987,200.753L544.539,200.692L549.721,200.121L554.903,199.558L559.769,199.037L560.085,199.004L565.267,198.457L570.449,197.917L575.63,197.386L578.182,197.126L580.812,196.861L585.994,196.343L591.176,195.833L596.358,195.329L601.539,194.832L606.721,194.341L611.903,193.857L617.085,193.378L622.267,192.906" fill="none" stroke="#6495ED" stroke-width="2" stroke-dasharray="10 10" /><path style="stroke-opacity:1" fill="none" stroke="#6495ED" stroke-width="2" stroke-dasharray="10 10" /><path style="stroke-opacity:1" d="M72.994,369.564L78.176,359.225L83.358,345.327L88.539,332.013L93.721,320.045L98.903,309.436L104.085,300.033L109.267,291.661L114.449,284.162L119.63,277.403L124.812,271.275L129.994,265.689L135.176,260.571L140.358,255.859L145.539,251.504L150.721,247.462L155.903,243.698L161.085,240.182L166.267,236.888L171.449,233.792L176.63,230.877L181.812,228.124L186.994,225.52L192.176,223.051L197.358,220.706L202.539,218.475L207.721,216.349L212.903,214.32L218.085,212.381L223.267,210.525L228.449,208.746L233.63,207.04L238.812,205.401L243.994,203.825L249.176,202.307L254.358,200.846L259.539,199.436L264.721,198.076L269.903,196.762L275.085,195.491L280.267,194.262L285.449,193.072L290.63,191.918L295.812,190.801L300.994,189.716L306.176,188.663L311.358,187.64L316.539,186.647L321.721,185.68L326.903,184.74L332.085,183.825L336.188,183.117L337.267,182.933L342.449,182.065L347.63,181.219L352.812,180.393L357.994,179.588L363.176,178.802L368.358,178.034L373.539,177.285L378.274,176.615L378.721,176.553L380.904,176.249L383.903,175.837L389.085,175.137L394.267,174.452L399.449,173.782L404.63,173.126L409.812,172.484L414.994,171.856L420.176,171.24L420.36,171.218L425.358,170.636L430.539,170.045L435.721,169.465L440.903,168.896L446.085,168.338L451.267,167.79L456.449,167.253L461.63,166.725L466.812,166.207L471.994,165.699L477.176,165.199L482.358,164.708L483.489,164.602L487.539,164.226L492.721,163.751L497.903,163.285L503.085,162.826L507.162,162.471L508.267,162.376L513.449,161.932L518.63,161.495L523.812,161.066L528.205,160.707L528.994,160.643L534.176,160.227L539.358,159.818L543.987,159.457L544.539,159.414L549.721,159.017L554.903,158.625L559.769,158.263L560.085,158.24L565.267,157.86L570.449,157.486L575.63,157.117L578.182,156.937L580.812,156.753L585.994,156.394L591.176,156.041L596.358,155.692L601.539,155.348L606.721,155.009L611.903,154.674L617.085,154.344L622.267,154.018" fill="none" stroke="#6495ED" stroke-width="2" stroke-dasharray="2 5" /><path style="stroke-opacity:1" fill="none" stroke="#6495ED" stroke-width="2" stroke-dasharray="2 5" /><text x="622.2667281956619" y="79.25961939158216" fill="#000000" font-size="10px" font-family="'Arial', sans-serif" text-anchor="start" dx="10px" dy="0px" /><text x="622.2667281956619" y="192.90639287134948" fill="#000000" font-size="10px" font-family="'Arial', sans-serif" text-anchor="start" dx="10px" dy="0px" /><text x="622.2667281956619" y="-54.53762673226658" fill="#000000" font-size="10px" font-family="'Arial', sans-serif" text-anchor="start" dx="10px" dy="0px" /><text x="622.2667281956619" y="154.0184518480742" fill="#000000" font-size="10px" font-family="'Arial', sans-serif" text-anchor="start" dx="10px" dy="0px" /><text x="622.2667281956619" y="-3.6231414912706583" fill="#000000" font-size="10px" font-family="'Arial', sans-serif" text-anchor="start" dx="10px" dy="0px" /></g><g class="dotsgroup"><g style="fill-opacity:1;stroke-opacity:1" class="dotsgroup-child"><path style="fill:#A6A6A6;stroke:#A6A6A6;stroke-width:1" d="M2.5,0A2.5,2.5,0,1,1,-2.5,0A2.5,2.5,0,1,1,2.5,0" transform="translate(507.16197508075675, 133.83631713554988)" /></g><g style="fill-opacity:1;stroke-opacity:1" class="dotsgroup-child"><path style="fill:#A6A6A6;stroke:#A6A6A6;stroke-width:1" d="M2.5,0A2.5,2.5,0,1,1,-2.5,0A2.5,2.5,0,1,1,2.5,0" transform="translate(380.9044762344255, 89.67213114754095)" /></g><g style="fill-opacity:1;stroke-opacity:1" class="dotsgroup-child"><path style="fill:#A6A6A6;stroke:#A6A6A6;stroke-width:1" d="M2.5,0A2.5,2.5,0,1,1,-2.5,0A2.5,2.5,0,1,1,2.5,0" transform="translate(528.2048915551453, 77.62090864680016)" /></g><g style="fill-opacity:1;stroke-opacity:1" class="dotsgroup-child"><path style="fill:#A6A6A6;stroke:#A6A6A6;stroke-width:1" d="M2.5,0A2.5,2.5,0,1,1,-2.5,0A2.5,2.5,0,1,1,2.5,0" transform="translate(543.9870789109368, 159.8865784499055)" /></g><g style="fill-opacity:1;stroke-opacity:1" class="dotsgroup-child"><path style="fill:#A6A6A6;stroke:#A6A6A6;stroke-width:1" d="M2.5,0A2.5,2.5,0,1,1,-2.5,0A2.5,2.5,0,1,1,2.5,0" transform="translate(483.4886940470697, 19.041317850391565)" /></g><g style="fill-opacity:1;stroke-opacity:1" class="dotsgroup-child"><path style="fill:#A6A6A6;stroke:#A6A6A6;stroke-width:1" d="M2.5,0A2.5,2.5,0,1,1,-2.5,0A2.5,2.5,0,1,1,2.5,0" transform="translate(336.1882787263498, 58.4472049689441)" /></g><g style="fill-opacity:1;stroke-opacity:1" class="dotsgroup-child"><path style="fill:#A6A6A6;stroke:#A6A6A6;stroke-width:1" d="M2.5,0A2.5,2.5,0,1,1,-2.5,0A2.5,2.5,0,1,1,2.5,0" transform="translate(559.7692662667282, 10)" /></g><g style="fill-opacity:1;stroke-opacity:1" class="dotsgroup-child"><path style="fill:#A6A6A6;stroke:#A6A6A6;stroke-width:1" d="M2.5,0A2.5,2.5,0,1,1,-2.5,0A2.5,2.5,0,1,1,2.5,0" transform="translate(378.2741116751269, 38.199784405317985)" /></g><g style="fill-opacity:1;stroke-opacity:1" class="dotsgroup-child"><path style="fill:#A6A6A6;stroke:#A6A6A6;stroke-width:1" d="M2.5,0A2.5,2.5,0,1,1,-2.5,0A2.5,2.5,0,1,1,2.5,0" transform="translate(420.35994462390397, 76.9501745477626)" /></g><g style="fill-opacity:1;stroke-opacity:1" class="dotsgroup-child"><path style="fill:#A6A6A6;stroke:#A6A6A6;stroke-width:1" d="M2.5,0A2.5,2.5,0,1,1,-2.5,0A2.5,2.5,0,1,1,2.5,0" transform="translate(578.1818181818182, 105.81990730523063)" /></g></g></svg>