<svg viewBox="0 0 640 400" width="640px" height="400px" xmlns="http://www.w3.org/2000/svg"><rect x="0" y="0" width="100%" height="100%" fill="white"/><line style="stroke-opacity:0" stroke="black" stroke-width="1px" y2="340" y1="10" x2="0" x1="0" class="ttip-line-x" /><line style="stroke-opacity:0" stroke="black" stroke-width="1px" y2="0" y1="0" x2="630" x1="60" class="ttip-line-y" /><g transform="translate(0, 340)" color="#000000" text-anchor="middle" font-family="sans-serif" font-size="10" fill="none" class="xaxisgroup"><path d="M60.5,6V0.5H630.5V6" stroke="currentColor" class="domain" /><g transform="translate(60.5,0)" opacity="1" class="tick"><line y2="6" stroke="currentColor" /><text transform="rotate(-35)" dx="-.8em" style="text-anchor:end;font-size:10px;font-family:'Arial', sans-serif;fill:#000000" dy="-.15em" y="9" fill="currentColor"> 01/01/2024</text></g><g transform="translate(110.06521739130434,0)" opacity="1" class="tick"><line y2="6" stroke="currentColor" /><text transform="rotate(-35)" dx="-.8em" style="text-anchor:end;font-size:10px;font-family:'Arial', sans-serif;fill:#000000" dy="-.15em" y="9" fill="currentColor"> 01/03/2024</text></g><g transform="translate(159.6304347826087,0)" opacity="1" class="tick"><line y2="6" stroke="currentColor" /><text transform="rotate(-35)" dx="-.8em" style="text-anchor:end;font-size:10px;font-family:'Arial', sans-serif;fill:#000000" dy="-.15em" y="9" fill="currentColor"> 01/05/2024</text></g><g transform="translate(209.19565217391306,0)" opacity="1" class="tick"><line y2="6" stroke="currentColor" /><text transform="rotate(-35)" dx="-.8em" style="text-anchor:end;font-size:10px;font-family:'Arial', sans-serif;fill:#000000" dy="-.15em" y="9" fill="currentColor"> 01/07/2024</text></g><g transform="translate(258.7608695652174,0)" opacity="1" class="tick"><line y2="6" stroke="currentColor" /><text transform="rotate(-35)" dx="-.8em" style="text-anchor:end;font-size:10px;font-family:'Arial', sans-serif;fill:#000000" dy="-.15em" y="9" fill="currentColor"> 01/09/2024</text></g><g transform="translate(308.32608695652175,0)" opacity="1" class="tick"><line y2="6" stroke="currentColor" /><text transform="rotate(-35)" dx="-.8em" style="text-anchor:end;font-size:10px;font-family:'Arial', sans-serif;fill:#000000" dy="-.15em" y="9" fill="currentColor"> 01/11/2024</text></g><g transform="translate(357.8913043478261,0)" opacity="1" class="tick"><line y2="6" stroke="currentColor" /><text transform="rotate(-35)" dx="-.8em" style="text-anchor:end;font-size:10px;font-family:'Arial', sans-serif;fill:#000000" dy="-.15em" y="9" fill="currentColor"> 01/01/2025</text></g><g transform="translate(407.45652173913044,0)" opacity="1" class="tick"><line y2="6" stroke="currentColor" /><text transform="rotate(-35)" dx="-.8em" style="text-anchor:end;font-size:10px;font-family:'Arial', sans-serif;fill:#000000" dy="-.15em" y="9" fill="currentColor"> 01/03/2025</text></g><g transform="translate(457.02173913043475,0)" opacity="1" class="tick"><line y2="6" stroke="currentColor" /><text transform="rotate(-35)" dx="-.8em" style="text-anchor:end;font-size:10px;font-family:'Arial', sans-serif;fill:#000000" dy="-.15em" y="9" fill="currentColor"> 01/05/2025</text></g><g transform="translate(506.5869565217391,0)" opacity="1" class="tick"><line y2="6" stroke="currentColor" /><text transform="rotate(-35)" dx="-.8em" style="text-anchor:end;font-size:10px;font-family:'Arial', sans-serif;fill:#000000" dy="-.15em" y="9" fill="currentColor"> 01/07/2025</text></g><g transform="translate(556.1521739130435,0)" opacity="1" class="tick"><line y2="6" stroke="currentColor" /><text transform="rotate(-35)" dx="-.8em" style="text-anchor:end;font-size:10px;font-family:'Arial', sans-serif;fill:#000000" dy="-.15em" y="9" fill="currentColor"> 01/09/2025</text></g><g transform="translate(605.7173913043478,0)" opacity="1" class="tick"><line y2="6" stroke="currentColor" /><text transform="rotate(-35)" dx="-.8em" style="text-anchor:end;font-size:10px;font-family:'Arial', sans-serif;fill:#000000" dy="-.15em" y="9" fill="currentColor"> 01/11/2025</text></g></g><text style="text-anchor:middle;font-size:10px;font-family:'Arial', sans-serif;fill:#000000" y="380" x="320" class="xaxislabel" /><g transform="translate(60, 0)" color="#000000" text-anchor="end" font-family="sans-serif" font-size="10" fill="none" class="yaxisgroup"><path d="M-6,340.5H0.5V10.5H-6" stroke="currentColor" class="domain" /><g transform="translate(0,311.39937308929734)" opacity="1" class="tick"><line x2="-6" stroke="currentColor" /><text transform="rotate(0)" style="text-anchor:right;font-size:10px;font-family:'Arial', sans-serif;fill:#000000" dy="0.32em" x="-9" fill="currentColor">-3.00</text></g><g transform="translate(0,271.19705389810474)" opacity="1" class="tick"><line x2="-6" stroke="currentColor" /><text transform="rotate(0)" style="text-anchor:right;font-size:10px;font-family:'Arial', sans-serif;fill:#000000" dy="0.32em" x="-9" fill="currentColor">-2.00</text></g><g transform="translate(0,230.9947347069122)" opacity="1" class="tick"><line x2="-6" stroke="currentColor" /><text transform="rotate(0)" style="text-anchor:right;font-size:10px;font-family:'Arial', sans-serif;fill:#000000" dy="0.32em" x="-9" fill="currentColor">-1.00</text></g><g transform="translate(0,190.7924155157196)" opacity="1" class="tick"><line x2="-6" stroke="currentColor" /><text transform="rotate(0)" style="text-anchor:right;font-size:10px;font-family:'Arial', sans-serif;fill:#000000" dy="0.32em" x="-9" fill="currentColor">0.00</text></g><g transform="translate(0,150.590096324527)" opacity="1" class="tick"><line x2="-6" stroke="currentColor" /><text transform="rotate(0)" style="text-anchor:right;font-size:10px;font-family:'Arial', sans-serif;fill:#000000" dy="0.32em" x="-9" fill="currentColor">1.00</text></g><g transform="translate(0,110.38777713333438)" opacity="1" class="tick"><line x2="-6" stroke="currentColor" /><text transform="rotate(0)" style="text-anchor:right;font-size:10px;font-family:'Arial', sans-serif;fill:#000000" dy="0.32em" x="-9" fill="currentColor">2.00</text></g><g transform="translate(0,70.1854579421418)" opacity="1" class="tick"><line x2="-6" stroke="currentColor" /><text transform="rotate(0)" style="text-anchor:right;font-size:10px;font-family:'Arial', sans-serif;fill:#000000" dy="0.32em" x="-9" fill="currentColor">3.00</text></g><g transform="translate(0,29.983138750949223)" opacity="1" class="tick"><line x2="-6" stroke="currentColor" /><text transform="rotate(0)" style="text-anchor:right;font-size:10px;font-family:'Arial', sans-serif;fill:#000000" dy="0.32em" x="-9" fill="currentColor">4.00</text></g></g><text style="text-anchor:middle;font-size:10px;font-family:'Arial', sans-serif;fill:#000000" transform="rotate(-90, 30, 200)" y="200" x="30" class="yaxislabel" /><g class="linesgroup"><g style="stroke-opacity:1" class="linegroup"><line stroke-dashoffset="0" stroke-dasharray="10 0" stroke-width="1" stroke="#A6A6A6" fill="none" y2="158.33799328847175" x2="84.78260869565217" y1="187.58695345964446" x1="60" /><line stroke-dashoffset="24.782608695652172" stroke-dasharray="10 0" stroke-width="1" stroke="#A6A6A6" fill="none" y2="129.27620760755445" x2="109.56521739130434" y1="158.33799328847175" x1="84.78260869565217" /><line stroke-dashoffset="49.565217391304344" stroke-dasharray="10 0" stroke-width="1" stroke="#A6A6A6" fill="none" y2="277.3264142417737" x2="134.34782608695653" y1="129.27620760755445" x1="109.56521739130434" /><line stroke-dashoffset="74.34782608695653" stroke-dasharray="10 0" stroke-width="1" stroke="#A6A6A6" fill="none" y2="198.91134241715076" x2="159.1304347826087" y1="277.3264142417737" x1="134.34782608695653" /><line stroke-dashoffset="99.13043478260869" stroke-dasharray="10 0" stroke-width="1" stroke="#A6A6A6" fill="none" y2="185.12278475428903" x2="183.91304347826087" y1="198.91134241715076" x1="159.1304347826087" /><line stroke-dashoffset="123.91304347826087" stroke-dasharray="10 0" stroke-width="1" stroke="#A6A6A6" fill="none" y2="181.2348867364083" x2="208.69565217391306" y1="185.12278475428903" x1="183.91304347826087" /><line stroke-dashoffset="148.69565217391306" stroke-dasharray="10 0" stroke-width="1" stroke="#A6A6A6" fill="none" y2="276.2377796161827" x2="233.47826086956525" y1="181.2348867364083" x1="208.69565217391306" /><line stroke-dashoffset="173.47826086956525" stroke-dasharray="10 0" stroke-width="1" stroke="#A6A6A6" fill="none" y2="272.9486823498692" x2="258.2608695652174" y1="276.2377796161827" x1="233.47826086956525" /><line stroke-dashoffset="198.26086956521738" stroke-dasharray="10 0" stroke-width="1" stroke="#A6A6A6" fill="none" y2="272.9719383944623" x2="283.04347826086956" y1="272.9486823498692" x1="258.2608695652174" /><line stroke-dashoffset="223.04347826086956" stroke-dasharray="10 0" stroke-width="1" stroke="#A6A6A6" fill="none" y2="192.39470832808883" x2="307.82608695652175" y1="272.9719383944623" x1="283.04347826086956" /><line stroke-dashoffset="247.82608695652175" stroke-dasharray="10 0" stroke-width="1" stroke="#A6A6A6" fill="none" y2="220.75108491986856" x2="332.6086956521739" y1="192.39470832808883" x1="307.82608695652175" /><line stroke-dashoffset="272.6086956521739" stroke-dasharray="10 0" stroke-width="1" stroke="#A6A6A6" fill="none" y2="190.6642985831282" x2="357.3913043478261" y1="220.75108491986856" x1="332.6086956521739" /><line stroke-dashoffset="297.3913043478261" stroke-dasharray="10 0" stroke-width="1" stroke="#A6A6A6" fill="none" y2="159.94760087123177" x2="382.17391304347825" y1="190.6642985831282" x1="357.3913043478261" /><line stroke-dashoffset="322.17391304347825" stroke-dasharray="10 0" stroke-width="1" stroke="#A6A6A6" fill="none" y2="159.02924254480433" x2="406.95652173913044" y1="159.94760087123177" x1="382.17391304347825" /><line stroke-dashoffset="346.95652173913044" stroke-dasharray="10 0" stroke-width="1" stroke="#A6A6A6" fill="none" y2="168.97772807178012" x2="431.7391304347826" y1="159.02924254480433" x1="406.95652173913044" /><line stroke-dashoffset="371.7391304347826" stroke-dasharray="10 0" stroke-width="1" stroke="#A6A6A6" fill="none" y2="201.14110518973644" x2="456.52173913043475" y1="168.97772807178012" x1="431.7391304347826" /><line stroke-dashoffset="396.52173913043475" stroke-dasharray="10 0" stroke-width="1" stroke="#A6A6A6" fill="none" y2="212.05298489213175" x2="481.30434782608694" y1="201.14110518973644" x1="456.52173913043475" /><line stroke-dashoffset="421.30434782608694" stroke-dasharray="10 0" stroke-width="1" stroke="#A6A6A6" fill="none" y2="162.2905266139446" x2="506.0869565217391" y1="212.05298489213175" x1="481.30434782608694" /><line stroke-dashoffset="446.0869565217391" stroke-dasharray="10 0" stroke-width="1" stroke="#A6A6A6" fill="none" y2="174.80640439079346" x2="530.8695652173913" y1="162.2905266139446" x1="506.0869565217391" /><line stroke-dashoffset="470.86956521739125" stroke-dasharray="10 0" stroke-width="1" stroke="#A6A6A6" fill="none" y2="225.74168592635542" x2="555.6521739130435" y1="174.80640439079346" x1="530.8695652173913" /><line stroke-dashoffset="495.6521739130435" stroke-dasharray="10 0" stroke-width="1" stroke="#A6A6A6" fill="none" y2="251.60043778672627" x2="580.4347826086956" y1="225.74168592635542" x1="555.6521739130435" /><line stroke-dashoffset="520.4347826086956" stroke-dasharray="10 0" stroke-width="1" stroke="#A6A6A6" fill="none" y2="168.27357354129185" x2="605.2173913043478" y1="251.60043778672627" x1="580.4347826086956" /><line stroke-dashoffset="545.2173913043478" stroke-dasharray="10 0" stroke-width="1" stroke="#A6A6A6" fill="none" y2="71.93839950036181" x2="630" y1="168.27357354129185" x1="605.2173913043478" /></g><g style="stroke-opacity:1" class="linegroup"><line stroke-dashoffset="0" stroke-dasharray="10 0" stroke-width="1.5" stroke="#000000" fill="none" y2="195.81519850108543" x2="84.78260869565217" y1="195.81519850108543" x1="60" /><line stroke-dashoffset="24.782608695652172" stroke-dasharray="10 0" stroke-width="1.5" stroke="#000000" fill="none" y2="195.81519850108543" x2="109.56521739130434" y1="195.81519850108543" x1="84.78260869565217" /><line stroke-dashoffset="49.565217391304344" stroke-dasharray="10 0" stroke-width="1.5" stroke="#000000" fill="none" y2="195.81519850108543" x2="134.34782608695653" y1="195.81519850108543" x1="109.56521739130434" /><line stroke-dashoffset="74.34782608695653" stroke-dasharray="10 0" stroke-width="1.5" stroke="#000000" fill="none" y2="195.81519850108543" x2="159.1304347826087" y1="195.81519850108543" x1="134.34782608695653" /><line stroke-dashoffset="99.13043478260869" stroke-dasharray="10 0" stroke-width="1.5" stroke="#000000" fill="none" y2="195.81519850108543" x2="183.91304347826087" y1="195.81519850108543" x1="159.1304347826087" /><line stroke-dashoffset="123.91304347826087" stroke-dasharray="10 0" stroke-width="1.5" stroke="#000000" fill="none" y2="195.81519850108543" x2="208.69565217391306" y1="195.81519850108543" x1="183.91304347826087" /><line stroke-dashoffset="148.69565217391306" stroke-dasharray="10 0" stroke-width="1.5" stroke="#000000" fill="none" y2="195.81519850108543" x2="233.47826086956525" y1="195.81519850108543" x1="208.69565217391306" /><line stroke-dashoffset="173.47826086956525" stroke-dasharray="10 0" stroke-width="1.5" stroke="#000000" fill="none" y2="195.81519850108543" x2="258.2608695652174" y1="195.81519850108543" x1="233.47826086956525" /><line stroke-dashoffset="198.26086956521738" stroke-dasharray="10 0" stroke-width="1.5" stroke="#000000" fill="none" y2="195.81519850108543" x2="283.04347826086956" y1="195.81519850108543" x1="258.2608695652174" /><line stroke-dashoffset="223.04347826086956" stroke-dasharray="10 0" stroke-width="1.5" stroke="#000000" fill="none" y2="195.81519850108543" x2="307.82608695652175" y1="195.81519850108543" x1="283.04347826086956" /><line stroke-dashoffset="247.82608695652175" stroke-dasharray="10 0" stroke-width="1.5" stroke="#000000" fill="none" y2="195.81519850108543" x2="332.6086956521739" y1="195.81519850108543" x1="307.82608695652175" /><line stroke-dashoffset="272.6086956521739" stroke-dasharray="10 0" stroke-width="1.5" stroke="#000000" fill="none" y2="195.81519850108543" x2="357.3913043478261" y1="195.81519850108543" x1="332.6086956521739" /><line stroke-dashoffset="297.3913043478261" stroke-dasharray="10 0" stroke-width="1.5" stroke="#000000" fill="none" y2="195.81519850108543" x2="382.17391304347825" y1="195.81519850108543" x1="357.3913043478261" /><line stroke-dashoffset="322.17391304347825" stroke-dasharray="10 0" stroke-width="1.5" stroke="#000000" fill="none" y2="195.81519850108543" x2="406.95652173913044" y1="195.81519850108543" x1="382.17391304347825" /><line stroke-dashoffset="346.95652173913044" stroke-dasharray="10 0" stroke-width="1.5" stroke="#000000" fill="none" y2="195.81519850108543" x2="431.7391304347826" y1="195.81519850108543" x1="406.95652173913044" /><line stroke-dashoffset="371.7391304347826" stroke-dasharray="10 0" stroke-width="1.5" stroke="#000000" fill="none" y2="195.81519850108543" x2="456.52173913043475" y1="195.81519850108543" x1="431.7391304347826" /><line stroke-dashoffset="396.52173913043475" stroke-dasharray="10 0" stroke-width="1.5" stroke="#000000" fill="none" y2="195.81519850108543" x2="481.30434782608694" y1="195.81519850108543" x1="456.52173913043475" /><line stroke-dashoffset="421.30434782608694" stroke-dasharray="10 0" stroke-width="1.5" stroke="#000000" fill="none" y2="195.81519850108543" x2="506.0869565217391" y1="195.81519850108543" x1="481.30434782608694" /><line stroke-dashoffset="446.0869565217391" stroke-dasharray="10 0" stroke-width="1.5" stroke="#000000" fill="none" y2="195.81519850108543" x2="530.8695652173913" y1="195.81519850108543" x1="506.0869565217391" /><line stroke-dashoffset="470.86956521739125" stroke-dasharray="10 0" stroke-width="1.5" stroke="#000000" fill="none" y2="195.81519850108543" x2="555.6521739130435" y1="195.81519850108543" x1="530.8695652173913" /><line stroke-dashoffset="495.6521739130435" stroke-dasharray="10 0" stroke-width="1.5" stroke="#000000" fill="none" y2="195.81519850108543" x2="580.4347826086956" y1="195.81519850108543" x1="555.6521739130435" /><line stroke-dashoffset="520.4347826086956" stroke-dasharray="10 0" stroke-width="1.5" stroke="#000000" fill="none" y2="195.81519850108543" x2="605.2173913043478" y1="195.81519850108543" x1="580.4347826086956" /><line stroke-dashoffset="545.2173913043478" stroke-dasharray="10 0" stroke-width="1.5" stroke="#000000" fill="none" y2="195.81519850108543" x2="630" y1="195.81519850108543" x1="605.2173913043478" /></g><g style="stroke-opacity:1" class="linegroup"><line stroke-dashoffset="0" stroke-dasharray="10 10" stroke-width="2" stroke="#6495ED" fill="none" y2="291.9383995003618" x2="84.78260869565217" y1="291.9383995003618" x1="60" /><line stroke-dashoffset="24.782608695652172" stroke-dasharray="10 10" stroke-width="2" stroke="#6495ED" fill="none" y2="291.9383995003618" x2="109.56521739130434" y1="291.9383995003618" x1="84.78260869565217" /><line stroke-dashoffset="49.565217391304344" stroke-dasharray="10 10" stroke-width="2" stroke="#6495ED" fill="none" y2="291.9383995003618" x2="134.34782608695653" y1="291.9383995003618" x1="109.56521739130434" /><line stroke-dashoffset="74.34782608695653" stroke-dasharray="10 10" stroke-width="2" stroke="#6495ED" fill="none" y2="291.9383995003618" x2="159.1304347826087" y1="291.9383995003618" x1="134.34782608695653" /><line stroke-dashoffset="99.13043478260869" stroke-dasharray="10 10" stroke-width="2" stroke="#6495ED" fill="none" y2="291.9383995003618" x2="183.91304347826087" y1="291.9383995003618" x1="159.1304347826087" /><line stroke-dashoffset="123.91304347826087" stroke-dasharray="10 10" stroke-width="2" stroke="#6495ED" fill="none" y2="291.9383995003618" x2="208.69565217391306" y1="291.9383995003618" x1="183.91304347826087" /><line stroke-dashoffset="148.69565217391306" stroke-dasharray="10 10" stroke-width="2" stroke="#6495ED" fill="none" y2="291.9383995003618" x2="233.47826086956525" y1="291.9383995003618" x1="208.69565217391306" /><line stroke-dashoffset="173.47826086956525" stroke-dasharray="10 10" stroke-width="2" stroke="#6495ED" fill="none" y2="291.9383995003618" x2="258.2608695652174" y1="291.9383995003618" x1="233.47826086956525" /><line stroke-dashoffset="198.26086956521738" stroke-dasharray="10 10" stroke-width="2" stroke="#6495ED" fill="none" y2="291.9383995003618" x2="283.04347826086956" y1="291.9383995003618" x1="258.2608695652174" /><line stroke-dashoffset="223.04347826086956" stroke-dasharray="10 10" stroke-width="2" stroke="#6495ED" fill="none" y2="291.9383995003618" x2="307.82608695652175" y1="291.9383995003618" x1="283.04347826086956" /><line stroke-dashoffset="247.82608695652175" stroke-dasharray="10 10" stroke-width="2" stroke="#6495ED" fill="none" y2="291.9383995003618" x2="332.6086956521739" y1="291.9383995003618" x1="307.82608695652175" /><line stroke-dashoffset="272.6086956521739" stroke-dasharray="10 10" stroke-width="2" stroke="#6495ED" fill="none" y2="291.9383995003618" x2="357.3913043478261" y1="291.9383995003618" x1="332.6086956521739" /><line stroke-dashoffset="297.3913043478261" stroke-dasharray="10 10" stroke-width="2" stroke="#6495ED" fill="none" y2="291.9383995003618" x2="382.17391304347825" y1="291.9383995003618" x1="357.3913043478261" /><line stroke-dashoffset="322.17391304347825" stroke-dasharray="10 10" stroke-width="2" stroke="#6495ED" fill="none" y2="291.9383995003618" x2="406.95652173913044" y1="291.9383995003618" x1="382.17391304347825" /><line stroke-dashoffset="346.95652173913044" stroke-dasharray="10 10" stroke-width="2" stroke="#6495ED" fill="none" y2="291.9383995003618" x2="431.7391304347826" y1="291.9383995003618" x1="406.95652173913044" /><line stroke-dashoffset="371.7391304347826" stroke-dasharray="10 10" stroke-width="2" stroke="#6495ED" fill="none" y2="291.9383995003618" x2="456.52173913043475" y1="291.9383995003618" x1="431.7391304347826" /><line stroke-dashoffset="396.52173913043475" stroke-dasharray="10 10" stroke-width="2" stroke="#6495ED" fill="none" y2="291.9383995003618" x2="481.30434782608694" y1="291.9383995003618" x1="456.52173913043475" /><line stroke-dashoffset="421.30434782608694" stroke-dasharray="10 10" stroke-width="2" stroke="#6495ED" fill="none" y2="291.9383995003618" x2="506.0869565217391" y1="291.9383995003618" x1="481.30434782608694" /><line stroke-dashoffset="446.0869565217391" stroke-dasharray="10 10" stroke-width="2" stroke="#6495ED" fill="none" y2="291.9383995003618" x2="530.8695652173913" y1="291.9383995003618" x1="506.0869565217391" /><line stroke-dashoffset="470.86956521739125" stroke-dasharray="10 10" stroke-width="2" stroke="#6495ED" fill="none" y2="291.9383995003618" x2="555.6521739130435" y1="291.9383995003618" x1="530.8695652173913" /><line stroke-dashoffset="495.6521739130435" stroke-dasharray="10 10" stroke-width="2" stroke="#6495ED" fill="none" y2="291.9383995003618" x2="580.4347826086956" y1="291.9383995003618" x1="555.6521739130435" /><line stroke-dashoffset="520.4347826086956" stroke-dasharray="10 10" stroke-width="2" stroke="#6495ED" fill="none" y2="291.9383995003618" x2="605.2173913043478" y1="291.9383995003618" x1="580.4347826086956" /><line stroke-dashoffset="545.2173913043478" stroke-dasharray="10 10" stroke-width="2" stroke="#6495ED" fill="none" y2="291.9383995003618" x2="630" y1="291.9383995003618" x1="605.2173913043478" /></g><g style="stroke-opacity:1" class="linegroup"><line stroke-dashoffset="0" stroke-dasharray="10 10" stroke-width="2" stroke="#6495ED" fill="none" y2="99.69199750180904" x2="84.78260869565217" y1="99.69199750180904" x1="60" /><line stroke-dashoffset="24.782608695652172" stroke-dasharray="10 10" stroke-width="2" stroke="#6495ED" fill="none" y2="99.69199750180904" x2="109.56521739130434" y1="99.69199750180904" x1="84.78260869565217" /><line stroke-dashoffset="49.565217391304344" stroke-dasharray="10 10" stroke-width="2" stroke="#6495ED" fill="none" y2="99.69199750180904" x2="134.34782608695653" y1="99.69199750180904" x1="109.56521739130434" /><line stroke-dashoffset="74.34782608695653" stroke-dasharray="10 10" stroke-width="2" stroke="#6495ED" fill="none" y2="99.69199750180904" x2="159.1304347826087" y1="99.69199750180904" x1="134.34782608695653" /><line stroke-dashoffset="99.13043478260869" stroke-dasharray="10 10" stroke-width="2" stroke="#6495ED" fill="none" y2="99.69199750180904" x2="183.91304347826087" y1="99.69199750180904" x1="159.1304347826087" /><line stroke-dashoffset="123.91304347826087" stroke-dasharray="10 10" stroke-width="2" stroke="#6495ED" fill="none" y2="99.69199750180904" x2="208.69565217391306" y1="99.69199750180904" x1="183.91304347826087" /><line stroke-dashoffset="148.69565217391306" stroke-dasharray="10 10" stroke-width="2" stroke="#6495ED" fill="none" y2="99.69199750180904" x2="233.47826086956525" y1="99.69199750180904" x1="208.69565217391306" /><line stroke-dashoffset="173.47826086956525" stroke-dasharray="10 10" stroke-width="2" stroke="#6495ED" fill="none" y2="99.69199750180904" x2="258.2608695652174" y1="99.69199750180904" x1="233.47826086956525" /><line stroke-dashoffset="198.26086956521738" stroke-dasharray="10 10" stroke-width="2" stroke="#6495ED" fill="none" y2="99.69199750180904" x2="283.04347826086956" y1="99.69199750180904" x1="258.2608695652174" /><line stroke-dashoffset="223.04347826086956" stroke-dasharray="10 10" stroke-width="2" stroke="#6495ED" fill="none" y2="99.69199750180904" x2="307.82608695652175" y1="99.69199750180904" x1="283.04347826086956" /><line stroke-dashoffset="247.82608695652175" stroke-dasharray="10 10" stroke-width="2" stroke="#6495ED" fill="none" y2="99.69199750180904" x2="332.6086956521739" y1="99.69199750180904" x1="307.82608695652175" /><line stroke-dashoffset="272.6086956521739" stroke-dasharray="10 10" stroke-width="2" stroke="#6495ED" fill="none" y2="99.69199750180904" x2="357.3913043478261" y1="99.69199750180904" x1="332.6086956521739" /><line stroke-dashoffset="297.3913043478261" stroke-dasharray="10 10" stroke-width="2" stroke="#6495ED" fill="none" y2="99.69199750180904" x2="382.17391304347825" y1="99.69199750180904" x1="357.3913043478261" /><line stroke-dashoffset="322.17391304347825" stroke-dasharray="10 10" stroke-width="2" stroke="#6495ED" fill="none" y2="99.69199750180904" x2="406.95652173913044" y1="99.69199750180904" x1="382.17391304347825" /><line stroke-dashoffset="346.95652173913044" stroke-dasharray="10 10" stroke-width="2" stroke="#6495ED" fill="none" y2="99.69199750180904" x2="431.7391304347826" y1="99.69199750180904" x1="406.95652173913044" /><line stroke-dashoffset="371.7391304347826" stroke-dasharray="10 10" stroke-width="2" stroke="#6495ED" fill="none" y2="99.69199750180904" x2="456.52173913043475" y1="99.69199750180904" x1="431.7391304347826" /><line stroke-dashoffset="396.52173913043475" stroke-dasharray="10 10" stroke-width="2" stroke="#6495ED" fill="none" y2="99.69199750180904" x2="481.30434782608694" y1="99.69199750180904" x1="456.52173913043475" /><line stroke-dashoffset="421.30434782608694" stroke-dasharray="10 10" stroke-width="2" stroke="#6495ED" fill="none" y2="99.69199750180904" x2="506.0869565217391" y1="99.69199750180904" x1="481.30434782608694" /><line stroke-dashoffset="446.0869565217391" stroke-dasharray="10 10" stroke-width="2" stroke="#6495ED" fill="none" y2="99.69199750180904" x2="530.8695652173913" y1="99.69199750180904" x1="506.0869565217391" /><line stroke-dashoffset="470.86956521739125" stroke-dasharray="10 10" stroke-width="2" stroke="#6495ED" fill="none" y2="99.69199750180904" x2="555.6521739130435" y1="99.69199750180904" x1="530.8695652173913" /><line stroke-dashoffset="495.6521739130435" stroke-dasharray="10 10" stroke-width="2" stroke="#6495ED" fill="none" y2="99.69199750180904" x2="580.4347826086956" y1="99.69199750180904" x1="555.6521739130435" /><line stroke-dashoffset="520.4347826086956" stroke-dasharray="10 10" stroke-width="2" stroke="#6495ED" fill="none" y2="99.69199750180904" x2="605.2173913043478" y1="99.69199750180904" x1="580.4347826086956" /><line stroke-dashoffset="545.2173913043478" stroke-dasharray="10 10" stroke-width="2" stroke="#6495ED" fill="none" y2="99.69199750180904" x2="630" y1="99.69199750180904" x1="605.2173913043478" /></g><g style="stroke-opacity:1" class="linegroup"><line stroke-dashoffset="0" stroke-dasharray="2 5" stroke-width="2" stroke="#6495ED" fill="none" y2="259.897332500603" x2="84.78260869565217" y1="259.897332500603" x1="60" /><line stroke-dashoffset="24.782608695652172" stroke-dasharray="2 5" stroke-width="2" stroke="#6495ED" fill="none" y2="259.897332500603" x2="109.56521739130434" y1="259.897332500603" x1="84.78260869565217" /><line stroke-dashoffset="49.565217391304344" stroke-dasharray="2 5" stroke-width="2" stroke="#6495ED" fill="none" y2="259.897332500603" x2="134.34782608695653" y1="259.897332500603" x1="109.56521739130434" /><line stroke-dashoffset="74.34782608695653" stroke-dasharray="2 5" stroke-width="2" stroke="#6495ED" fill="none" y2="259.897332500603" x2="159.1304347826087" y1="259.897332500603" x1="134.34782608695653" /><line stroke-dashoffset="99.13043478260869" stroke-dasharray="2 5" stroke-width="2" stroke="#6495ED" fill="none" y2="259.897332500603" x2="183.91304347826087" y1="259.897332500603" x1="159.1304347826087" /><line stroke-dashoffset="123.91304347826087" stroke-dasharray="2 5" stroke-width="2" stroke="#6495ED" fill="none" y2="259.897332500603" x2="208.69565217391306" y1="259.897332500603" x1="183.91304347826087" /><line stroke-dashoffset="148.69565217391306" stroke-dasharray="2 5" stroke-width="2" stroke="#6495ED" fill="none" y2="259.897332500603" x2="233.47826086956525" y1="259.897332500603" x1="208.69565217391306" /><line stroke-dashoffset="173.47826086956525" stroke-dasharray="2 5" stroke-width="2" stroke="#6495ED" fill="none" y2="259.897332500603" x2="258.2608695652174" y1="259.897332500603" x1="233.47826086956525" /><line stroke-dashoffset="198.26086956521738" stroke-dasharray="2 5" stroke-width="2" stroke="#6495ED" fill="none" y2="259.897332500603" x2="283.04347826086956" y1="259.897332500603" x1="258.2608695652174" /><line stroke-dashoffset="223.04347826086956" stroke-dasharray="2 5" stroke-width="2" stroke="#6495ED" fill="none" y2="259.897332500603" x2="307.82608695652175" y1="259.897332500603" x1="283.04347826086956" /><line stroke-dashoffset="247.82608695652175" stroke-dasharray="2 5" stroke-width="2" stroke="#6495ED" fill="none" y2="259.897332500603" x2="332.6086956521739" y1="259.897332500603" x1="307.82608695652175" /><line stroke-dashoffset="272.6086956521739" stroke-dasharray="2 5" stroke-width="2" stroke="#6495ED" fill="none" y2="259.897332500603" x2="357.3913043478261" y1="259.897332500603" x1="332.6086956521739" /><line stroke-dashoffset="297.3913043478261" stroke-dasharray="2 5" stroke-width="2" stroke="#6495ED" fill="none" y2="259.897332500603" x2="382.17391304347825" y1="259.897332500603" x1="357.3913043478261" /><line stroke-dashoffset="322.17391304347825" stroke-dasharray="2 5" stroke-width="2" stroke="#6495ED" fill="none" y2="259.897332500603" x2="406.95652173913044" y1="259.897332500603" x1="382.17391304347825" /><line stroke-dashoffset="346.95652173913044" stroke-dasharray="2 5" stroke-width="2" stroke="#6495ED" fill="none" y2="259.897332500603" x2="431.7391304347826" y1="259.897332500603" x1="406.95652173913044" /><line stroke-dashoffset="371.7391304347826" stroke-dasharray="2 5" stroke-width="2" stroke="#6495ED" fill="none" y2="259.897332500603" x2="456.52173913043475" y1="259.897332500603" x1="431.7391304347826" /><line stroke-dashoffset="396.52173913043475" stroke-dasharray="2 5" stroke-width="2" stroke="#6495ED" fill="none" y2="259.897332500603" x2="481.30434782608694" y1="259.897332500603" x1="456.52173913043475" /><line stroke-dashoffset="421.30434782608694" stroke-dasharray="2 5" stroke-width="2" stroke="#6495ED" fill="none" y2="259.897332500603" x2="506.0869565217391" y1="259.897332500603" x1="481.30434782608694" /><line stroke-dashoffset="446.0869565217391" stroke-dasharray="2 5" stroke-width="2" stroke="#6495ED" fill="none" y2="259.897332500603" x2="530.8695652173913" y1="259.897332500603" x1="506.0869565217391" /><line stroke-dashoffset="470.86956521739125" stroke-dasharray="2 5" stroke-width="2" stroke="#6495ED" fill="none" y2="259.897332500603" x2="555.6521739130435" y1="259.897332500603" x1="530.8695652173913" /><line stroke-dashoffset="495.6521739130435" stroke-dasharray="2 5" stroke-width="2" stroke="#6495ED" fill="none" y2="259.897332500603" x2="580.4347826086956" y1="259.897332500603" x1="555.6521739130435" /><line stroke-dashoffset="520.4347826086956" stroke-dasharray="2 5" stroke-width="2" stroke="#6495ED" fill="none" y2="259.897332500603" x2="605.2173913043478" y1="259.897332500603" x1="580.4347826086956" /><line stroke-dashoffset="545.2173913043478" stroke-dasharray="2 5" stroke-width="2" stroke="#6495ED" fill="none" y2="259.897332500603" x2="630" y1="259.897332500603" x1="605.2173913043478" /></g><g style="stroke-opacity:1" class="linegroup"><line stroke-dashoffset="0" stroke-dasharray="2 5" stroke-width="2" stroke="#6495ED" fill="none" y2="131.73306450156787" x2="84.78260869565217" y1="131.73306450156787" x1="60" /><line stroke-dashoffset="24.782608695652172" stroke-dasharray="2 5" stroke-width="2" stroke="#6495ED" fill="none" y2="131.73306450156787" x2="109.56521739130434" y1="131.73306450156787" x1="84.78260869565217" /><line stroke-dashoffset="49.565217391304344" stroke-dasharray="2 5" stroke-width="2" stroke="#6495ED" fill="none" y2="131.73306450156787" x2="134.34782608695653" y1="131.73306450156787" x1="109.56521739130434" /><line stroke-dashoffset="74.34782608695653" stroke-dasharray="2 5" stroke-width="2" stroke="#6495ED" fill="none" y2="131.73306450156787" x2="159.1304347826087" y1="131.73306450156787" x1="134.34782608695653" /><line stroke-dashoffset="99.13043478260869" stroke-dasharray="2 5" stroke-width="2" stroke="#6495ED" fill="none" y2="131.73306450156787" x2="183.91304347826087" y1="131.73306450156787" x1="159.1304347826087" /><line stroke-dashoffset="123.91304347826087" stroke-dasharray="2 5" stroke-width="2" stroke="#6495ED" fill="none" y2="131.73306450156787" x2="208.69565217391306" y1="131.73306450156787" x1="183.91304347826087" /><line stroke-dashoffset="148.69565217391306" stroke-dasharray="2 5" stroke-width="2" stroke="#6495ED" fill="none" y2="131.73306450156787" x2="233.47826086956525" y1="131.73306450156787" x1="208.69565217391306" /><line stroke-dashoffset="173.47826086956525" stroke-dasharray="2 5" stroke-width="2" stroke="#6495ED" fill="none" y2="131.73306450156787" x2="258.2608695652174" y1="131.73306450156787" x1="233.47826086956525" /><line stroke-dashoffset="198.26086956521738" stroke-dasharray="2 5" stroke-width="2" stroke="#6495ED" fill="none" y2="131.73306450156787" x2="283.04347826086956" y1="131.73306450156787" x1="258.2608695652174" /><line stroke-dashoffset="223.04347826086956" stroke-dasharray="2 5" stroke-width="2" stroke="#6495ED" fill="none" y2="131.73306450156787" x2="307.82608695652175" y1="131.73306450156787" x1="283.04347826086956" /><line stroke-dashoffset="247.82608695652175" stroke-dasharray="2 5" stroke-width="2" stroke="#6495ED" fill="none" y2="131.73306450156787" x2="332.6086956521739" y1="131.73306450156787" x1="307.82608695652175" /><line stroke-dashoffset="272.6086956521739" stroke-dasharray="2 5" stroke-width="2" stroke="#6495ED" fill="none" y2="131.73306450156787" x2="357.3913043478261" y1="131.73306450156787" x1="332.6086956521739" /><line stroke-dashoffset="297.3913043478261" stroke-dasharray="2 5" stroke-width="2" stroke="#6495ED" fill="none" y2="131.73306450156787" x2="382.17391304347825" y1="131.73306450156787" x1="357.3913043478261" /><line stroke-dashoffset="322.17391304347825" stroke-dasharray="2 5" stroke-width="2" stroke="#6495ED" fill="none" y2="131.73306450156787" x2="406.95652173913044" y1="131.73306450156787" x1="382.17391304347825" /><line stroke-dashoffset="346.95652173913044" stroke-dasharray="2 5" stroke-width="2" stroke="#6495ED" fill="none" y2="131.73306450156787" x2="431.7391304347826" y1="131.73306450156787" x1="406.95652173913044" /><line stroke-dashoffset="371.7391304347826" stroke-dasharray="2 5" stroke-width="2" stroke="#6495ED" fill="none" y2="131.73306450156787" x2="456.52173913043475" y1="131.73306450156787" x1="431.7391304347826" /><line stroke-dashoffset="396.52173913043475" stroke-dasharray="2 5" stroke-width="2" stroke="#6495ED" fill="none" y2="131.73306450156787" x2="481.30434782608694" y1="131.73306450156787" x1="456.52173913043475" /><line stroke-dashoffset="421.30434782608694" stroke-dasharray="2 5" stroke-width="2" stroke="#6495ED" fill="none" y2="131.73306450156787" x2="506.0869565217391" y1="131.73306450156787" x1="481.30434782608694" /><line stroke-dashoffset="446.0869565217391" stroke-dasharray="2 5" stroke-width="2" stroke="#6495ED" fill="none" y2="131.73306450156787" x2="530.8695652173913" y1="131.73306450156787" x1="506.0869565217391" /><line stroke-dashoffset="470.86956521739125" stroke-dasharray="2 5" stroke-width="2" stroke="#6495ED" fill="none" y2="131.73306450156787" x2="555.6521739130435" y1="131.73306450156787" x1="530.8695652173913" /><line stroke-dashoffset="495.6521739130435" stroke-dasharray="2 5" stroke-width="2" stroke="#6495ED" fill="none" y2="131.73306450156787" x2="580.4347826086956" y1="131.73306450156787" x1="555.6521739130435" /><line stroke-dashoffset="520.4347826086956" stroke-dasharray="2 5" stroke-width="2" stroke="#6495ED" fill="none" y2="131.73306450156787" x2="605.2173913043478" y1="131.73306450156787" x1="580.4347826086956" /><line stroke-dashoffset="545.2173913043478" stroke-dasharray="2 5" stroke-width="2" stroke="#6495ED" fill="none" y2="131.73306450156787" x2="630" y1="131.73306450156787" x1="605.2173913043478" /></g><text dy="0px" dx="10px" text-anchor="start" font-family="'Arial', sans-serif" font-size="10px" fill="#000000" y="71.93839950036181" x="630" /><text dy="0px" dx="10px" text-anchor="start" font-family="'Arial', sans-serif" font-size="10px" fill="#000000" y="195.81519850108543" x="630" /><text dy="0px" dx="10px" text-anchor="start" font-family="'Arial', sans-serif" font-size="10px" fill="#000000" y="291.9383995003618" x="630" /><text dy="0px" dx="10px" text-anchor="start" font-family="'Arial', sans-serif" font-size="10px" fill="#000000" y="99.69199750180904" x="630" /><text dy="0px" dx="10px" text-anchor="start" font-family="'Arial', sans-serif" font-size="10px" fill="#000000" y="259.897332500603" x="630" /><text dy="0px" dx="10px" text-anchor="start" font-family="'Arial', sans-serif" font-size="10px" fill="#000000" y="131.73306450156787" x="630" /></g><g class="dotsgroup"><path style="fill:#A6A6A6;stroke:#A6A6A6;stroke-width:1;fill-opacity:1;stroke-opacity:1" transform="translate(60, 187.58695345964446)" d="M2.5,0A2.5,2.5,0,1,1,-2.5,0A2.5,2.5,0,1,1,2.5,0" /><path style="fill:#A6A6A6;stroke:#A6A6A6;stroke-width:1;fill-opacity:1;stroke-opacity:1" transform="translate(84.78260869565217, 158.33799328847175)" d="M2.5,0A2.5,2.5,0,1,1,-2.5,0A2.5,2.5,0,1,1,2.5,0" /><path style="fill:#A6A6A6;stroke:#A6A6A6;stroke-width:1;fill-opacity:1;stroke-opacity:1" transform="translate(109.56521739130434, 129.27620760755445)" d="M2.5,0A2.5,2.5,0,1,1,-2.5,0A2.5,2.5,0,1,1,2.5,0" /><path style="fill:#A6A6A6;stroke:#A6A6A6;stroke-width:1;fill-opacity:1;stroke-opacity:1" transform="translate(134.34782608695653, 277.3264142417737)" d="M2.5,0A2.5,2.5,0,1,1,-2.5,0A2.5,2.5,0,1,1,2.5,0" /><path style="fill:#A6A6A6;stroke:#A6A6A6;stroke-width:1;fill-opacity:1;stroke-opacity:1" transform="translate(159.1304347826087, 198.91134241715076)" d="M2.5,0A2.5,2.5,0,1,1,-2.5,0A2.5,2.5,0,1,1,2.5,0" /><path style="fill:#A6A6A6;stroke:#A6A6A6;stroke-width:1;fill-opacity:1;stroke-opacity:1" transform="translate(183.91304347826087, 185.12278475428903)" d="M2.5,0A2.5,2.5,0,1,1,-2.5,0A2.5,2.5,0,1,1,2.5,0" /><path style="fill:#A6A6A6;stroke:#A6A6A6;stroke-width:1;fill-opacity:1;stroke-opacity:1" transform="translate(208.69565217391306, 181.2348867364083)" d="M2.5,0A2.5,2.5,0,1,1,-2.5,0A2.5,2.5,0,1,1,2.5,0" /><path style="fill:#A6A6A6;stroke:#A6A6A6;stroke-width:1;fill-opacity:1;stroke-opacity:1" transform="translate(233.47826086956525, 276.2377796161827)" d="M2.5,0A2.5,2.5,0,1,1,-2.5,0A2.5,2.5,0,1,1,2.5,0" /><path style="fill:#A6A6A6;stroke:#A6A6A6;stroke-width:1;fill-opacity:1;stroke-opacity:1" transform="translate(258.2608695652174, 272.9486823498692)" d="M2.5,0A2.5,2.5,0,1,1,-2.5,0A2.5,2.5,0,1,1,2.5,0" /><path style="fill:#A6A6A6;stroke:#A6A6A6;stroke-width:1;fill-opacity:1;stroke-opacity:1" transform="translate(283.04347826086956, 272.9719383944623)" d="M2.5,0A2.5,2.5,0,1,1,-2.5,0A2.5,2.5,0,1,1,2.5,0" /><path style="fill:#A6A6A6;stroke:#A6A6A6;stroke-width:1;fill-opacity:1;stroke-opacity:1" transform="translate(307.82608695652175, 192.39470832808883)" d="M2.5,0A2.5,2.5,0,1,1,-2.5,0A2.5,2.5,0,1,1,2.5,0" /><path style="fill:#A6A6A6;stroke:#A6A6A6;stroke-width:1;fill-opacity:1;stroke-opacity:1" transform="translate(332.6086956521739, 220.75108491986856)" d="M2.5,0A2.5,2.5,0,1,1,-2.5,0A2.5,2.5,0,1,1,2.5,0" /><path style="fill:#A6A6A6;stroke:#A6A6A6;stroke-width:1;fill-opacity:1;stroke-opacity:1" transform="translate(357.3913043478261, 190.6642985831282)" d="M2.5,0A2.5,2.5,0,1,1,-2.5,0A2.5,2.5,0,1,1,2.5,0" /><path style="fill:#A6A6A6;stroke:#A6A6A6;stroke-width:1;fill-opacity:1;stroke-opacity:1" transform="translate(382.17391304347825, 159.94760087123177)" d="M2.5,0A2.5,2.5,0,1,1,-2.5,0A2.5,2.5,0,1,1,2.5,0" /><path style="fill:#A6A6A6;stroke:#A6A6A6;stroke-width:1;fill-opacity:1;stroke-opacity:1" transform="translate(406.95652173913044, 159.02924254480433)" d="M2.5,0A2.5,2.5,0,1,1,-2.5,0A2.5,2.5,0,1,1,2.5,0" /><path style="fill:#A6A6A6;stroke:#A6A6A6;stroke-width:1;fill-opacity:1;stroke-opacity:1" transform="translate(431.7391304347826, 168.97772807178012)" d="M2.5,0A2.5,2.5,0,1,1,-2.5,0A2.5,2.5,0,1,1,2.5,0" /><path style="fill:#A6A6A6;stroke:#A6A6A6;stroke-width:1;fill-opacity:1;stroke-opacity:1" transform="translate(456.52173913043475, 201.14110518973644)" d="M2.5,0A2.5,2.5,0,1,1,-2.5,0A2.5,2.5,0,1,1,2.5,0" /><path style="fill:#A6A6A6;stroke:#A6A6A6;stroke-width:1;fill-opacity:1;stroke-opacity:1" transform="translate(481.30434782608694, 212.05298489213175)" d="M2.5,0A2.5,2.5,0,1,1,-2.5,0A2.5,2.5,0,1,1,2.5,0" /><path style="fill:#A6A6A6;stroke:#A6A6A6;stroke-width:1;fill-opacity:1;stroke-opacity:1" transform="translate(506.0869565217391, 162.2905266139446)" d="M2.5,0A2.5,2.5,0,1,1,-2.5,0A2.5,2.5,0,1,1,2.5,0" /><path style="fill:#A6A6A6;stroke:#A6A6A6;stroke-width:1;fill-opacity:1;stroke-opacity:1" transform="translate(530.8695652173913, 174.80640439079346)" d="M2.5,0A2.5,2.5,0,1,1,-2.5,0A2.5,2.5,0,1,1,2.5,0" /><path style="fill:#A6A6A6;stroke:#A6A6A6;stroke-width:1;fill-opacity:1;stroke-opacity:1" transform="translate(555.6521739130435, 225.74168592635542)" d="M2.5,0A2.5,2.5,0,1,1,-2.5,0A2.5,2.5,0,1,1,2.5,0" /><path style="fill:#A6A6A6;stroke:#A6A6A6;stroke-width:1;fill-opacity:1;stroke-opacity:1" transform="translate(580.4347826086956, 251.60043778672627)" d="M2.5,0A2.5,2.5,0,1,1,-2.5,0A2.5,2.5,0,1,1,2.5,0" /><path style="fill:#A6A6A6;stroke:#A6A6A6;stroke-width:1;fill-opacity:1;stroke-opacity:1" transform="translate(605.2173913043478, 168.27357354129185)" d="M2.5,0A2.5,2.5,0,1,1,-2.5,0A2.5,2.5,0,1,1,2.5,0" /><path style="fill:#A6A6A6;stroke:#A6A6A6;stroke-width:1;fill-opacity:1;stroke-opacity:1" transform="translate(630, 71.93839950036181)" d="M2.5,0A2.5,2.5,0,1,1,-2.5,0A2.5,2.5,0,1,1,2.5,0" /></g></svg>