<svg viewBox="0 0 640 480" width="640px" height="480px" xmlns="http://www.w3.org/2000/svg"><rect x="0" y="0" width="100%" height="100%" fill="white"/><line style="stroke-opacity:0" stroke="black" stroke-width="1px" y2="445" y1="10" x2="0" x1="0" class="ttip-line-x" /><line style="stroke-opacity:0" stroke="black" stroke-width="1px" y2="0" y1="0" x2="630" x1="60" class="ttip-line-y" /><g transform="translate(0, 445)" color="#000000" text-anchor="middle" font-family="sans-serif" font-size="10" fill="none" class="xaxisgroup"><path d="M60.5,6V0.5H630.5V6" stroke="currentColor" class="domain" /><g transform="translate(60.5,0)" opacity="1" class="tick"><line y2="6" stroke="currentColor" /><text transform="rotate(-35)" dx="-.8em" style="text-anchor:end;font-size:10px;font-family:'Arial', sans-serif;fill:#000000" dy="-.15em" y="9" fill="currentColor"> 01/01/2024</text></g><g transform="translate(110.06521739130434,0)" opacity="1" class="tick"><line y2="6" stroke="currentColor" /><text transform="rotate(-35)" dx="-.8em" style="text-anchor:end;font-size:10px;font-family:'Arial', sans-serif;fill:#000000" dy="-.15em" y="9" fill="currentColor"> 01/03/2024</text></g><g transform="translate(159.6304347826087,0)" opacity="1" class="tick"><line y2="6" stroke="currentColor" /><text transform="rotate(-35)" dx="-.8em" style="text-anchor:end;font-size:10px;font-family:'Arial', sans-serif;fill:#000000" dy="-.15em" y="9" fill="currentColor"> 01/05/2024</text></g><g transform="translate(209.19565217391306,0)" opacity="1" class="tick"><line y2="6" stroke="currentColor" /><text transform="rotate(-35)" dx="-.8em" style="text-anchor:end;font-size:10px;font-family:'Arial', sans-serif;fill:#000000" dy="-.15em" y="9" fill="currentColor"> 01/07/2024</text></g><g transform="translate(258.7608695652174,0)" opacity="1" class="tick"><line y2="6" stroke="currentColor" /><text transform="rotate(-35)" dx="-.8em" style="text-anchor:end;font-size:10px;font-family:'Arial', sans-serif;fill:#000000" dy="-.15em" y="9" fill="currentColor"> 01/09/2024</text></g><g transform="translate(308.32608695652175,0)" opacity="1" class="tick"><line y2="6" stroke="currentColor" /><text transform="rotate(-35)" dx="-.8em" style="text-anchor:end;font-size:10px;font-family:'Arial', sans-serif;fill:#000000" dy="-.15em" y="9" fill="currentColor"> 01/11/2024</text></g><g transform="translate(357.8913043478261,0)" opacity="1" class="tick"><line y2="6" stroke="currentColor" /><text transform="rotate(-35)" dx="-.8em" style="text-anchor:end;font-size:10px;font-family:'Arial', sans-serif;fill:#000000" dy="-.15em" y="9" fill="currentColor"> 01/01/2025</text></g><g transform="translate(407.45652173913044,0)" opacity="1" class="tick"><line y2="6" stroke="currentColor" /><text transform="rotate(-35)" dx="-.8em" style="text-anchor:end;font-size:10px;font-family:'Arial', sans-serif;fill:#000000" dy="-.15em" y="9" fill="currentColor"> 01/03/2025</text></g><g transform="translate(457.02173913043475,0)" opacity="1" class="tick"><line y2="6" stroke="currentColor" /><text transform="rotate(-35)" dx="-.8em" style="text-anchor:end;font-size:10px;font-family:'Arial', sans-serif;fill:#000000" dy="-.15em" y="9" fill="currentColor"> 01/05/2025</text></g><g transform="translate(506.5869565217391,0)" opacity="1" class="tick"><line y2="6" stroke="currentColor" /><text transform="rotate(-35)" dx="-.8em" style="text-anchor:end;font-size:10px;font-family:'Arial', sans-serif;fill:#000000" dy="-.15em" y="9" fill="currentColor"> 01/07/2025</text></g><g transform="translate(556.1521739130435,0)" opacity="1" class="tick"><line y2="6" stroke="currentColor" /><text transform="rotate(-35)" dx="-.8em" style="text-anchor:end;font-size:10px;font-family:'Arial', sans-serif;fill:#000000" dy="-.15em" y="9" fill="currentColor"> 01/09/2025</text></g><g transform="translate(605.7173913043478,0)" opacity="1" class="tick"><line y2="6" stroke="currentColor" /><text transform="rotate(-35)" dx="-.8em" style="text-anchor:end;font-size:10px;font-family:'Arial', sans-serif;fill:#000000" dy="-.15em" y="9" fill="currentColor"> 01/11/2025</text></g></g><text style="text-anchor:middle;font-size:10px;font-family:'Arial', sans-serif;fill:#000000" y="468.3333333333333" x="320" class="xaxislabel" /><g transform="translate(60, 0)" color="#000000" text-anchor="end" font-family="sans-serif" font-size="10" fill="none" class="yaxisgroup"><path d="M-6,445.5H0.5V10.5H-6" stroke="currentColor" class="domain" /><g transform="translate(0,400.05307350868617)" opacity="1" class="tick"><line x2="-6" stroke="currentColor" /><text transform="rotate(-35)" style="text-anchor:right;font-size:10px;font-family:'Arial', sans-serif;fill:#000000" dy="0.32em" x="-9" fill="currentColor">0.24</text></g><g transform="translate(0,347.74198209875453)" opacity="1" class="tick"><line x2="-6" stroke="currentColor" /><text transform="rotate(-35)" style="text-anchor:right;font-size:10px;font-family:'Arial', sans-serif;fill:#000000" dy="0.32em" x="-9" fill="currentColor">0.26</text></g><g transform="translate(0,295.43089068882284)" opacity="1" class="tick"><line x2="-6" stroke="currentColor" /><text transform="rotate(-35)" style="text-anchor:right;font-size:10px;font-family:'Arial', sans-serif;fill:#000000" dy="0.32em" x="-9" fill="currentColor">0.28</text></g><g transform="translate(0,243.11979927889124)" opacity="1" class="tick"><line x2="-6" stroke="currentColor" /><text transform="rotate(-35)" style="text-anchor:right;font-size:10px;font-family:'Arial', sans-serif;fill:#000000" dy="0.32em" x="-9" fill="currentColor">0.30</text></g><g transform="translate(0,190.80870786895954)" opacity="1" class="tick"><line x2="-6" stroke="currentColor" /><text transform="rotate(-35)" style="text-anchor:right;font-size:10px;font-family:'Arial', sans-serif;fill:#000000" dy="0.32em" x="-9" fill="currentColor">0.32</text></g><g transform="translate(0,138.49761645902785)" opacity="1" class="tick"><line x2="-6" stroke="currentColor" /><text transform="rotate(-35)" style="text-anchor:right;font-size:10px;font-family:'Arial', sans-serif;fill:#000000" dy="0.32em" x="-9" fill="currentColor">0.34</text></g><g transform="translate(0,86.18652504909632)" opacity="1" class="tick"><line x2="-6" stroke="currentColor" /><text transform="rotate(-35)" style="text-anchor:right;font-size:10px;font-family:'Arial', sans-serif;fill:#000000" dy="0.32em" x="-9" fill="currentColor">0.36</text></g><g transform="translate(0,33.875433639164584)" opacity="1" class="tick"><line x2="-6" stroke="currentColor" /><text transform="rotate(-35)" style="text-anchor:right;font-size:10px;font-family:'Arial', sans-serif;fill:#000000" dy="0.32em" x="-9" fill="currentColor">0.38</text></g></g><text style="text-anchor:middle;font-size:10px;font-family:'Arial', sans-serif;fill:#000000" transform="rotate(-90, 30, 240)" y="240" x="30" class="yaxislabel" /><g class="linesgroup"><path style="stroke-opacity:1" stroke-dasharray="10 0" stroke-width="1" stroke="#A6A6A6" fill="none" d="M60,297.81L84.783,287.428L109.565,328.568L134.348,260.945L159.13,265.2L183.913,342.118L208.696,142.47L233.478,205.541L258.261,85.687L283.043,213.969L307.826,259.474L332.609,192.41L357.391,204.704L382.174,214.117L406.957,351.356L431.739,242.62L456.522,219.958L481.304,195.251L506.087,189.814L530.87,196.175L555.652,233.109L580.435,199.341L605.217,295.26L630,266.103" /><path style="stroke-opacity:1" stroke-dasharray="10 0" stroke-width="1.5" stroke="#000000" fill="none" d="M60,237.06L84.783,237.06L109.565,237.06L134.348,237.06L159.13,237.06L183.913,237.06L208.696,237.06L233.478,237.06L258.261,237.06L283.043,237.06L307.826,237.06L332.609,237.06L357.391,237.06L382.174,237.06L406.957,237.06L431.739,237.06L456.522,237.06L481.304,237.06L506.087,237.06L530.87,237.06L555.652,237.06L580.435,237.06L605.217,237.06L630,237.06" /><path style="stroke-opacity:1" stroke-dasharray="10 10" stroke-width="2" stroke="#6495ED" fill="none" d="M60,375.687L84.783,375.687L109.565,375.687L134.348,375.687L159.13,375.687L183.913,375.687L208.696,375.687L233.478,375.687L258.261,375.687L283.043,375.687L307.826,375.687L332.609,375.687L357.391,375.687L382.174,375.687L406.957,375.687L431.739,375.687L456.522,375.687L481.304,375.687L506.087,375.687L530.87,375.687L555.652,375.687L580.435,375.687L605.217,375.687L630,375.687" /><path style="stroke-opacity:1" stroke-dasharray="10 10" stroke-width="2" stroke="#6495ED" fill="none" d="M60,98.433L84.783,98.433L109.565,98.433L134.348,98.433L159.13,98.433L183.913,98.433L208.696,98.433L233.478,98.433L258.261,98.433L283.043,98.433L307.826,98.433L332.609,98.433L357.391,98.433L382.174,98.433L406.957,98.433L431.739,98.433L456.522,98.433L481.304,98.433L506.087,98.433L530.87,98.433L555.652,98.433L580.435,98.433L605.217,98.433L630,98.433" /><path style="stroke-opacity:1" stroke-dasharray="2 5" stroke-width="2" stroke="#6495ED" fill="none" d="M60,329.478L84.783,329.478L109.565,329.478L134.348,329.478L159.13,329.478L183.913,329.478L208.696,329.478L233.478,329.478L258.261,329.478L283.043,329.478L307.826,329.478L332.609,329.478L357.391,329.478L382.174,329.478L406.957,329.478L431.739,329.478L456.522,329.478L481.304,329.478L506.087,329.478L530.87,329.478L555.652,329.478L580.435,329.478L605.217,329.478L630,329.478" /><path style="stroke-opacity:1" stroke-dasharray="2 5" stroke-width="2" stroke="#6495ED" fill="none" d="M60,144.642L84.783,144.642L109.565,144.642L134.348,144.642L159.13,144.642L183.913,144.642L208.696,144.642L233.478,144.642L258.261,144.642L283.043,144.642L307.826,144.642L332.609,144.642L357.391,144.642L382.174,144.642L406.957,144.642L431.739,144.642L456.522,144.642L481.304,144.642L506.087,144.642L530.87,144.642L555.652,144.642L580.435,144.642L605.217,144.642L630,144.642" /><text dy="0px" dx="10px" text-anchor="start" font-family="'Arial', sans-serif" font-size="10px" fill="#000000" y="266.1031065681795" x="630" /><text dy="0px" dx="10px" text-anchor="start" font-family="'Arial', sans-serif" font-size="10px" fill="#000000" y="237.0595751472889" x="630" /><text dy="0px" dx="10px" text-anchor="start" font-family="'Arial', sans-serif" font-size="10px" fill="#000000" y="375.68652504909625" x="630" /><text dy="0px" dx="10px" text-anchor="start" font-family="'Arial', sans-serif" font-size="10px" fill="#000000" y="98.43262524548155" x="630" /><text dy="0px" dx="10px" text-anchor="start" font-family="'Arial', sans-serif" font-size="10px" fill="#000000" y="329.4775417484938" x="630" /><text dy="0px" dx="10px" text-anchor="start" font-family="'Arial', sans-serif" font-size="10px" fill="#000000" y="144.64160854608397" x="630" /></g><g class="dotsgroup"><path style="fill:#E46C0A;stroke:#E46C0A;stroke-width:1;fill-opacity:1;stroke-opacity:1" transform="translate(60, 297.8104003077181)" d="M4,0A4,4,0,1,1,-4,0A4,4,0,1,1,4,0" /><path style="fill:#E46C0A;stroke:#E46C0A;stroke-width:1;fill-opacity:1;stroke-opacity:1" transform="translate(84.78260869565217, 287.42810466986845)" d="M4,0A4,4,0,1,1,-4,0A4,4,0,1,1,4,0" /><path style="fill:#E46C0A;stroke:#E46C0A;stroke-width:1;fill-opacity:1;stroke-opacity:1" transform="translate(109.56521739130434, 328.5682828011194)" d="M4,0A4,4,0,1,1,-4,0A4,4,0,1,1,4,0" /><path style="fill:#E46C0A;stroke:#E46C0A;stroke-width:1;fill-opacity:1;stroke-opacity:1" transform="translate(134.34782608695653, 260.9453408556189)" d="M4,0A4,4,0,1,1,-4,0A4,4,0,1,1,4,0" /><path style="fill:#E46C0A;stroke:#E46C0A;stroke-width:1;fill-opacity:1;stroke-opacity:1" transform="translate(159.1304347826087, 265.2001265061998)" d="M4,0A4,4,0,1,1,-4,0A4,4,0,1,1,4,0" /><path style="fill:#E46C0A;stroke:#E46C0A;stroke-width:1;fill-opacity:1;stroke-opacity:1" transform="translate(183.91304347826087, 342.11811665313473)" d="M4,0A4,4,0,1,1,-4,0A4,4,0,1,1,4,0" /><path style="fill:#00B0F0;stroke:#00B0F0;stroke-width:1;fill-opacity:1;stroke-opacity:1" transform="translate(208.69565217391306, 142.47031200708903)" d="M4,0A4,4,0,1,1,-4,0A4,4,0,1,1,4,0" /><path style="fill:#00B0F0;stroke:#00B0F0;stroke-width:1;fill-opacity:1;stroke-opacity:1" transform="translate(233.47826086956525, 205.54105632549144)" d="M4,0A4,4,0,1,1,-4,0A4,4,0,1,1,4,0" /><path style="fill:#00B0F0;stroke:#00B0F0;stroke-width:1;fill-opacity:1;stroke-opacity:1" transform="translate(258.2608695652174, 85.68652504909632)" d="M4,0A4,4,0,1,1,-4,0A4,4,0,1,1,4,0" /><path style="fill:#00B0F0;stroke:#00B0F0;stroke-width:1;fill-opacity:1;stroke-opacity:1" transform="translate(283.04347826086956, 213.96884815331032)" d="M4,0A4,4,0,1,1,-4,0A4,4,0,1,1,4,0" /><path style="fill:#A6A6A6;stroke:#A6A6A6;stroke-width:1;fill-opacity:1;stroke-opacity:1" transform="translate(307.82608695652175, 259.47420820571887)" d="M4,0A4,4,0,1,1,-4,0A4,4,0,1,1,4,0" /><path style="fill:#A6A6A6;stroke:#A6A6A6;stroke-width:1;fill-opacity:1;stroke-opacity:1" transform="translate(332.6086956521739, 192.4104927916801)" d="M4,0A4,4,0,1,1,-4,0A4,4,0,1,1,4,0" /><path style="fill:#A6A6A6;stroke:#A6A6A6;stroke-width:1;fill-opacity:1;stroke-opacity:1" transform="translate(357.3913043478261, 204.70389764269996)" d="M4,0A4,4,0,1,1,-4,0A4,4,0,1,1,4,0" /><path style="fill:#A6A6A6;stroke:#A6A6A6;stroke-width:1;fill-opacity:1;stroke-opacity:1" transform="translate(382.17391304347825, 214.11696101065922)" d="M4,0A4,4,0,1,1,-4,0A4,4,0,1,1,4,0" /><path style="fill:#A6A6A6;stroke:#A6A6A6;stroke-width:1;fill-opacity:1;stroke-opacity:1" transform="translate(406.95652173913044, 351.3563376029064)" d="M4,0A4,4,0,1,1,-4,0A4,4,0,1,1,4,0" /><path style="fill:#A6A6A6;stroke:#A6A6A6;stroke-width:1;fill-opacity:1;stroke-opacity:1" transform="translate(431.7391304347826, 242.61979927889124)" d="M4,0A4,4,0,1,1,-4,0A4,4,0,1,1,4,0" /><path style="fill:#00B0F0;stroke:#00B0F0;stroke-width:1;fill-opacity:1;stroke-opacity:1" transform="translate(456.52173913043475, 219.9579546247692)" d="M4,0A4,4,0,1,1,-4,0A4,4,0,1,1,4,0" /><path style="fill:#00B0F0;stroke:#00B0F0;stroke-width:1;fill-opacity:1;stroke-opacity:1" transform="translate(481.30434782608694, 195.25148815966173)" d="M4,0A4,4,0,1,1,-4,0A4,4,0,1,1,4,0" /><path style="fill:#00B0F0;stroke:#00B0F0;stroke-width:1;fill-opacity:1;stroke-opacity:1" transform="translate(506.0869565217391, 189.81365022154696)" d="M4,0A4,4,0,1,1,-4,0A4,4,0,1,1,4,0" /><path style="fill:#00B0F0;stroke:#00B0F0;stroke-width:1;fill-opacity:1;stroke-opacity:1" transform="translate(530.8695652173913, 196.1753723261482)" d="M4,0A4,4,0,1,1,-4,0A4,4,0,1,1,4,0" /><path style="fill:#00B0F0;stroke:#00B0F0;stroke-width:1;fill-opacity:1;stroke-opacity:1" transform="translate(555.6521739130435, 233.10869174981266)" d="M4,0A4,4,0,1,1,-4,0A4,4,0,1,1,4,0" /><path style="fill:#00B0F0;stroke:#00B0F0;stroke-width:1;fill-opacity:1;stroke-opacity:1" transform="translate(580.4347826086956, 199.3408387598831)" d="M4,0A4,4,0,1,1,-4,0A4,4,0,1,1,4,0" /><path style="fill:#A6A6A6;stroke:#A6A6A6;stroke-width:1;fill-opacity:1;stroke-opacity:1" transform="translate(605.2173913043478, 295.2598912637281)" d="M4,0A4,4,0,1,1,-4,0A4,4,0,1,1,4,0" /><path style="fill:#A6A6A6;stroke:#A6A6A6;stroke-width:1;fill-opacity:1;stroke-opacity:1" transform="translate(630, 266.1031065681795)" d="M4,0A4,4,0,1,1,-4,0A4,4,0,1,1,4,0" /></g><g transform="scale(0.10158730158730159) translate(5922, 0)" class="icongroup"><defs><filter userSpaceOnUse="userSpaceOnUse" filterUnits="userSpaceOnUse" height="120%" width="120%" y="-10%" x="-10%" id="fx0"><feComponentTransfer color-interpolation-filters="sRGB"><feFuncR tableValues="0 0" type="discrete" /><feFuncG tableValues="0 0" type="discrete" /><feFuncB tableValues="0 0" type="discrete" /><feFuncA intercept="0" slope="0.4" type="linear" /></feComponentTransfer><feGaussianBlur stdDeviation="1.77778 1.77778" /></filter><clipPath id="clip1"><rect height="378" width="378" y="0" x="0" /></clipPath><clipPath id="clip2"><path clip-rule="evenodd" fill-rule="evenodd" d="M189 38C105.605 38 38 105.605 38 189 38 272.395 105.605 340 189 340 272.395 340 340 272.395 340 189 340 105.605 272.395 38 189 38ZM5.63264e-06 5.63264e-06 378 5.63264e-06 378 378 5.63264e-06 378Z" /></clipPath><clipPath id="clip3"><rect height="346" width="346" y="-2" x="-2" /></clipPath></defs><g clip-path="url(#clip1)" class="commonCause"><rect fill="#FFFFFF" height="378" width="378" y="0" x="0" /><g clip-path="url(#clip2)"><g transform="translate(16 25)" filter="url(#fx0)" clip-path="url(#clip3)"><g clip-path="url(#clip4)"><path fill-rule="evenodd" fill="#FFFFFF" stroke-miterlimit="8" stroke-width="21" stroke="#A6A6A6" d="M17.47 172.83C17.47 86.9332 87.1031 17.3 173 17.3 258.897 17.3 328.53 86.9332 328.53 172.83 328.53 258.727 258.897 328.36 173 328.36 87.1031 328.36 17.47 258.727 17.47 172.83Z" /></g></g></g><path fill-rule="evenodd" fill="#FFFFFF" stroke-miterlimit="8" stroke-width="20" stroke="#A6A6A6" d="M38 189C38 105.605 105.605 38 189 38 272.395 38 340 105.605 340 189 340 272.395 272.395 340 189 340 105.605 340 38 272.395 38 189Z" /><path fill-rule="evenodd" fill="#A6A6A6" stroke-miterlimit="8" stroke-width="2.66667" stroke="#A6A6A6" d="M106.903 196.084 144.607 228.433 138.766 235.241 101.062 202.892Z" /><path fill-rule="evenodd" fill="#A6A6A6" stroke-miterlimit="8" stroke-width="2.66667" stroke="#A6A6A6" d="M146.159 218.909 179.921 159.846 187.708 164.298 153.946 223.361Z" /><path fill-rule="evenodd" fill="#A6A6A6" stroke-miterlimit="8" stroke-width="2.66667" stroke="#A6A6A6" d="M198.708 154.94 239.365 214.134 231.971 219.212 191.314 160.019Z" /><path fill-rule="evenodd" fill="#A6A6A6" stroke-miterlimit="8" stroke-width="2.66667" stroke="#A6A6A6" d="M238.825 216.117 285.383 198.784 288.512 207.19 241.954 224.523Z" /><path fill-rule="evenodd" fill="#A6A6A6" stroke-miterlimit="8" stroke-width="2.66667" stroke="#A6A6A6" d="M76.5001 195C76.5001 183.678 85.6782 174.5 97.0001 174.5 108.322 174.5 117.5 183.678 117.5 195 117.5 206.322 108.322 215.5 97.0001 215.5 85.6782 215.5 76.5001 206.322 76.5001 195Z" /><path fill-rule="evenodd" fill="#A6A6A6" stroke-miterlimit="8" stroke-width="2.66667" stroke="#A6A6A6" d="M123.5 233C123.5 221.678 132.678 212.5 144 212.5 155.322 212.5 164.5 221.678 164.5 233 164.5 244.322 155.322 253.5 144 253.5 132.678 253.5 123.5 244.322 123.5 233Z" /><path fill-rule="evenodd" fill="#A6A6A6" stroke-miterlimit="8" stroke-width="2.66667" stroke="#A6A6A6" d="M170.5 153.5C170.5 141.902 179.902 132.5 191.5 132.5 203.098 132.5 212.5 141.902 212.5 153.5 212.5 165.098 203.098 174.5 191.5 174.5 179.902 174.5 170.5 165.098 170.5 153.5Z" /><path fill-rule="evenodd" fill="#A6A6A6" stroke-miterlimit="8" stroke-width="2.66667" stroke="#A6A6A6" d="M217.5 221.5C217.5 209.902 226.902 200.5 238.5 200.5 250.098 200.5 259.5 209.902 259.5 221.5 259.5 233.098 250.098 242.5 238.5 242.5 226.902 242.5 217.5 233.098 217.5 221.5Z" /><path fill-rule="evenodd" fill="#A6A6A6" stroke-miterlimit="8" stroke-width="2.66667" stroke="#A6A6A6" d="M265.5 206.5C265.5 194.902 274.678 185.5 286 185.5 297.322 185.5 306.5 194.902 306.5 206.5 306.5 218.098 297.322 227.5 286 227.5 274.678 227.5 265.5 218.098 265.5 206.5Z" /></g></g></svg>