<svg viewBox="0 0 640 480" width="640px" height="480px" xmlns="http://www.w3.org/2000/svg"><rect x="0" y="0" width="100%" height="100%" fill="white"/><line style="stroke-opacity:0" stroke="black" stroke-width="1px" y2="470" y1="10" x2="0" x1="0" class="ttip-line-x" /><line style="stroke-opacity:0" stroke="black" stroke-width="1px" y2="0" y1="0" x2="630" x1="60" class="ttip-line-y" /><g transform="translate(0, 470)" color="#000000" text-anchor="middle" font-family="sans-serif" font-size="10" fill="none" class="xaxisgroup"><g class="xaxislabel"><text style="text-anchor:middle;font-size:10px;font-family:'Arial', sans-serif;fill:#000000" transform="translate(320, 5)" y="0" x="0" /></g><path d="M60.5,6V0.5H630.5V6" stroke="currentColor" class="domain" /><g transform="translate(60.5,0)" opacity="1" class="tick"><line y2="6" stroke="currentColor" /><text style="font-size:10px;font-family:'Arial', sans-serif;fill:#000000" text-anchor="middle" transform="rotate(0)" dy="0.71em" y="9" fill="currentColor">0</text></g><g transform="translate(133.8449141092453,0)" opacity="1" class="tick"><line y2="6" stroke="currentColor" /><text style="font-size:10px;font-family:'Arial', sans-serif;fill:#000000" text-anchor="middle" transform="rotate(0)" dy="0.71em" y="9" fill="currentColor">200</text></g><g transform="translate(207.18982821849062,0)" opacity="1" class="tick"><line y2="6" stroke="currentColor" /><text style="font-size:10px;font-family:'Arial', sans-serif;fill:#000000" text-anchor="middle" transform="rotate(0)" dy="0.71em" y="9" fill="currentColor">400</text></g><g transform="translate(280.53474232773596,0)" opacity="1" class="tick"><line y2="6" stroke="currentColor" /><text style="font-size:10px;font-family:'Arial', sans-serif;fill:#000000" text-anchor="middle" transform="rotate(0)" dy="0.71em" y="9" fill="currentColor">600</text></g><g transform="translate(353.8796564369813,0)" opacity="1" class="tick"><line y2="6" stroke="currentColor" /><text style="font-size:10px;font-family:'Arial', sans-serif;fill:#000000" text-anchor="middle" transform="rotate(0)" dy="0.71em" y="9" fill="currentColor">800</text></g><g transform="translate(427.2245705462265,0)" opacity="1" class="tick"><line y2="6" stroke="currentColor" /><text style="font-size:10px;font-family:'Arial', sans-serif;fill:#000000" text-anchor="middle" transform="rotate(0)" dy="0.71em" y="9" fill="currentColor">1,000</text></g><g transform="translate(500.5694846554719,0)" opacity="1" class="tick"><line y2="6" stroke="currentColor" /><text style="font-size:10px;font-family:'Arial', sans-serif;fill:#000000" text-anchor="middle" transform="rotate(0)" dy="0.71em" y="9" fill="currentColor">1,200</text></g><g transform="translate(573.9143987647171,0)" opacity="1" class="tick"><line y2="6" stroke="currentColor" /><text style="font-size:10px;font-family:'Arial', sans-serif;fill:#000000" text-anchor="middle" transform="rotate(0)" dy="0.71em" y="9" fill="currentColor">1,400</text></g></g><g transform="translate(60, 0)" color="#000000" text-anchor="end" font-family="sans-serif" font-size="10" fill="none" class="yaxisgroup"><g class="yaxislabel"><text style="text-anchor:middle;font-size:10px;font-family:'Arial', sans-serif;fill:#000000" transform="rotate(-90, -45, 240)" y="240" x="-45" /></g><path d="M-6,470.5H0.5V10.5H-6" stroke="currentColor" class="domain" /><g transform="translate(0,470.5)" opacity="1" class="tick"><line x2="-6" stroke="currentColor" /><text transform="rotate(0)" style="text-anchor:right;font-size:10px;font-family:'Arial', sans-serif;fill:#000000" dy="0.32em" x="-9" fill="currentColor">0.00%</text></g><g transform="translate(0,424.5)" opacity="1" class="tick"><line x2="-6" stroke="currentColor" /><text transform="rotate(0)" style="text-anchor:right;font-size:10px;font-family:'Arial', sans-serif;fill:#000000" dy="0.32em" x="-9" fill="currentColor">10.00%</text></g><g transform="translate(0,378.5)" opacity="1" class="tick"><line x2="-6" stroke="currentColor" /><text transform="rotate(0)" style="text-anchor:right;font-size:10px;font-family:'Arial', sans-serif;fill:#000000" dy="0.32em" x="-9" fill="currentColor">20.00%</text></g><g transform="translate(0,332.5)" opacity="1" class="tick"><line x2="-6" stroke="currentColor" /><text transform="rotate(0)" style="text-anchor:right;font-size:10px;font-family:'Arial', sans-serif;fill:#000000" dy="0.32em" x="-9" fill="currentColor">30.00%</text></g><g transform="translate(0,286.5)" opacity="1" class="tick"><line x2="-6" stroke="currentColor" /><text transform="rotate(0)" style="text-anchor:right;font-size:10px;font-family:'Arial', sans-serif;fill:#000000" dy="0.32em" x="-9" fill="currentColor">40.00%</text></g><g transform="translate(0,240.5)" opacity="1" class="tick"><line x2="-6" stroke="currentColor" /><text transform="rotate(0)" style="text-anchor:right;font-size:10px;font-family:'Arial', sans-serif;fill:#000000" dy="0.32em" x="-9" fill="currentColor">50.00%</text></g><g transform="translate(0,194.5)" opacity="1" class="tick"><line x2="-6" stroke="currentColor" /><text transform="rotate(0)" style="text-anchor:right;font-size:10px;font-family:'Arial', sans-serif;fill:#000000" dy="0.32em" x="-9" fill="currentColor">60.00%</text></g><g transform="translate(0,148.50000000000003)" opacity="1" class="tick"><line x2="-6" stroke="currentColor" /><text transform="rotate(0)" style="text-anchor:right;font-size:10px;font-family:'Arial', sans-serif;fill:#000000" dy="0.32em" x="-9" fill="currentColor">70.00%</text></g><g transform="translate(0,102.49999999999999)" opacity="1" class="tick"><line x2="-6" stroke="currentColor" /><text transform="rotate(0)" style="text-anchor:right;font-size:10px;font-family:'Arial', sans-serif;fill:#000000" dy="0.32em" x="-9" fill="currentColor">80.00%</text></g><g transform="translate(0,56.49999999999999)" opacity="1" class="tick"><line x2="-6" stroke="currentColor" /><text transform="rotate(0)" style="text-anchor:right;font-size:10px;font-family:'Arial', sans-serif;fill:#000000" dy="0.32em" x="-9" fill="currentColor">90.00%</text></g><g transform="translate(0,10.5)" opacity="1" class="tick"><line x2="-6" stroke="currentColor" /><text transform="rotate(0)" style="text-anchor:right;font-size:10px;font-family:'Arial', sans-serif;fill:#000000" dy="0.32em" x="-9" fill="currentColor">100.00%</text></g></g><g class="linesgroup"><path style="stroke-opacity:1" stroke-dasharray="10 0" stroke-width="1.5" stroke="#000000" fill="none" d="M60.367,330.8L65.549,330.8L70.73,330.8L75.912,330.8L81.094,330.8L86.276,330.8L91.458,330.8L96.639,330.8L101.821,330.8L107.003,330.8L112.185,330.8L117.367,330.8L122.549,330.8L127.73,330.8L132.912,330.8L138.094,330.8L143.276,330.8L148.458,330.8L153.639,330.8L158.821,330.8L164.003,330.8L169.185,330.8L174.367,330.8L179.549,330.8L184.73,330.8L189.912,330.8L195.094,330.8L200.276,330.8L205.458,330.8L210.639,330.8L215.821,330.8L221.003,330.8L226.185,330.8L231.367,330.8L236.549,330.8L241.73,330.8L246.912,330.8L252.094,330.8L257.276,330.8L262.458,330.8L267.639,330.8L272.821,330.8L278.003,330.8L283.185,330.8L288.367,330.8L293.549,330.8L298.73,330.8L303.912,330.8L309.094,330.8L314.276,330.8L319.458,330.8L324.639,330.8L329.821,330.8L335.003,330.8L340.185,330.8L345.367,330.8L350.549,330.8L355.73,330.8L360.912,330.8L366.094,330.8L371.276,330.8L376.458,330.8L381.639,330.8L386.821,330.8L392.003,330.8L397.185,330.8L402.367,330.8L407.549,330.8L412.73,330.8L417.912,330.8L421.59,330.8L423.094,330.8L428.276,330.8L433.458,330.8L438.639,330.8L441.027,330.8L443.821,330.8L449.003,330.8L454.185,330.8L459.367,330.8L461.197,330.8L464.549,330.8L466.698,330.8L469.73,330.8L474.912,330.8L479.166,330.8L480.094,330.8L485.276,330.8L490.458,330.8L495.639,330.8L500.821,330.8L506.003,330.8L511.185,330.8L516.367,330.8L521.549,330.8L521.706,330.8L526.73,330.8L531.912,330.8L537.094,330.8L542.276,330.8L547.458,330.8L552.639,330.8L557.821,330.8L558.012,330.8L561.679,330.8L563.003,330.8L566.813,330.8L568.185,330.8L573.367,330.8L578.182,330.8L578.549,330.8L583.73,330.8L588.912,330.8L594.094,330.8L599.276,330.8L604.458,330.8L609.639,330.8L614.821,330.8L620.003,330.8" /><path style="stroke-opacity:1" stroke-dasharray="10 10" stroke-width="2" stroke="#6495ED" fill="none" d="M65.549,454.393L70.73,430.644L75.912,416.53L81.094,407.107L86.276,400.261L91.458,394.999L96.639,390.791L101.821,387.325L107.003,384.406L112.185,381.903L117.367,379.725L122.549,377.807L127.73,376.101L132.912,374.571L138.094,373.188L143.276,371.929L148.458,370.778L153.639,369.72L158.821,368.742L164.003,367.835L169.185,366.991L174.367,366.203L179.549,365.465L184.73,364.772L189.912,364.119L195.094,363.502L200.276,362.919L205.458,362.367L210.639,361.842L215.821,361.343L221.003,360.867L226.185,360.414L231.367,359.98L236.549,359.565L241.73,359.167L246.912,358.786L252.094,358.419L257.276,358.067L262.458,357.728L267.639,357.402L272.821,357.087L278.003,356.783L283.185,356.49L288.367,356.206L293.549,355.932L298.73,355.667L303.912,355.409L309.094,355.16L314.276,354.918L319.458,354.683L324.639,354.455L329.821,354.234L335.003,354.019L340.185,353.809L345.367,353.605L350.549,353.407L355.73,353.213L360.912,353.025L366.094,352.841L371.276,352.662L376.458,352.487L381.639,352.316L386.821,352.15L392.003,351.987L397.185,351.827L402.367,351.672L407.549,351.52L412.73,351.371L417.912,351.225L421.59,351.123L423.094,351.082L428.276,350.943L433.458,350.806L438.639,350.672L441.027,350.611L443.821,350.541L449.003,350.412L454.185,350.286L459.367,350.162L461.197,350.118L464.549,350.04L466.698,349.99L469.73,349.921L474.912,349.804L479.166,349.709L480.094,349.689L485.276,349.576L490.458,349.465L495.639,349.357L500.821,349.25L506.003,349.144L511.185,349.041L516.367,348.94L521.549,348.84L521.706,348.837L526.73,348.741L531.912,348.645L537.094,348.55L542.276,348.456L547.458,348.364L552.639,348.273L557.821,348.184L558.012,348.181L561.679,348.118L563.003,348.096L566.813,348.032L568.185,348.009L573.367,347.924L578.182,347.846L578.549,347.84L583.73,347.757L588.912,347.676L594.094,347.595L599.276,347.516L604.458,347.438L609.639,347.361L614.821,347.285L620.003,347.21" /><path style="stroke-opacity:1" stroke-dasharray="10 10" stroke-width="2" stroke="#6495ED" fill="none" d="M60.367,138.471L65.549,152.849L70.73,202.119L75.912,225.45L81.094,239.626L86.276,249.371L91.458,256.586L96.639,262.199L101.821,266.724L107.003,270.471L112.185,273.638L117.367,276.36L122.549,278.733L127.73,280.824L132.912,282.685L138.094,284.356L143.276,285.866L148.458,287.239L153.639,288.495L158.821,289.65L164.003,290.716L169.185,291.704L174.367,292.623L179.549,293.481L184.73,294.285L189.912,295.039L195.094,295.749L200.276,296.418L205.458,297.051L210.639,297.651L215.821,298.22L221.003,298.761L226.185,299.276L231.367,299.768L236.549,300.237L241.73,300.686L246.912,301.115L252.094,301.528L257.276,301.923L262.458,302.303L267.639,302.669L272.821,303.021L278.003,303.36L283.185,303.687L288.367,304.003L293.549,304.308L298.73,304.603L303.912,304.888L309.094,305.165L314.276,305.433L319.458,305.692L324.639,305.944L329.821,306.189L335.003,306.426L340.185,306.657L345.367,306.881L350.549,307.1L355.73,307.312L360.912,307.519L366.094,307.721L371.276,307.917L376.458,308.109L381.639,308.296L386.821,308.478L392.003,308.656L397.185,308.83L402.367,309L407.549,309.166L412.73,309.328L417.912,309.487L421.59,309.598L423.094,309.642L428.276,309.794L433.458,309.943L438.639,310.089L441.027,310.155L443.821,310.231L449.003,310.371L454.185,310.508L459.367,310.643L461.197,310.689L464.549,310.774L466.698,310.828L469.73,310.903L474.912,311.03L479.166,311.132L480.094,311.154L485.276,311.276L490.458,311.396L495.639,311.514L500.821,311.629L506.003,311.743L511.185,311.854L516.367,311.964L521.549,312.072L521.706,312.075L526.73,312.178L531.912,312.282L537.094,312.384L542.276,312.485L547.458,312.584L552.639,312.682L557.821,312.778L558.012,312.781L561.679,312.848L563.003,312.872L566.813,312.941L568.185,312.965L573.367,313.057L578.182,313.141L578.549,313.147L583.73,313.236L588.912,313.323L594.094,313.41L599.276,313.495L604.458,313.578L609.639,313.661L614.821,313.742L620.003,313.823" /><path style="stroke-opacity:1" stroke-dasharray="2 5" stroke-width="2" stroke="#6495ED" fill="none" d="M65.549,421.545L70.73,399.808L75.912,388.763L81.094,381.789L86.276,376.871L91.458,373.16L96.639,370.231L101.821,367.842L107.003,365.844L112.185,364.141L117.367,362.667L122.549,361.374L127.73,360.228L132.912,359.203L138.094,358.279L143.276,357.441L148.458,356.675L153.639,355.972L158.821,355.324L164.003,354.724L169.185,354.167L174.367,353.647L179.549,353.16L184.73,352.703L189.912,352.274L195.094,351.869L200.276,351.486L205.458,351.123L210.639,350.779L215.821,350.452L221.003,350.141L226.185,349.844L231.367,349.561L236.549,349.289L241.73,349.03L246.912,348.781L252.094,348.542L257.276,348.312L262.458,348.091L267.639,347.878L272.821,347.673L278.003,347.476L283.185,347.285L288.367,347.1L293.549,346.922L298.73,346.749L303.912,346.582L309.094,346.42L314.276,346.263L319.458,346.111L324.639,345.963L329.821,345.819L335.003,345.679L340.185,345.543L345.367,345.411L350.549,345.283L355.73,345.157L360.912,345.035L366.094,344.916L371.276,344.8L376.458,344.687L381.639,344.576L386.821,344.468L392.003,344.363L397.185,344.26L402.367,344.159L407.549,344.061L412.73,343.964L417.912,343.87L421.59,343.805L423.094,343.778L428.276,343.688L433.458,343.599L438.639,343.513L441.027,343.473L443.821,343.428L449.003,343.345L454.185,343.263L459.367,343.183L461.197,343.155L464.549,343.105L466.698,343.073L469.73,343.028L474.912,342.952L479.166,342.891L480.094,342.878L485.276,342.805L490.458,342.734L495.639,342.664L500.821,342.595L506.003,342.527L511.185,342.46L516.367,342.395L521.549,342.33L521.706,342.328L526.73,342.267L531.912,342.205L537.094,342.143L542.276,342.083L547.458,342.024L552.639,341.965L557.821,341.908L558.012,341.905L561.679,341.865L563.003,341.851L566.813,341.81L568.185,341.795L573.367,341.74L578.182,341.69L578.549,341.686L583.73,341.633L588.912,341.58L594.094,341.528L599.276,341.477L604.458,341.427L609.639,341.377L614.821,341.328L620.003,341.28" /><path style="stroke-opacity:1" stroke-dasharray="2 5" stroke-width="2" stroke="#6495ED" fill="none" d="M60.367,10.032L65.549,217.484L70.73,250.001L75.912,264.857L81.094,273.78L86.276,279.883L91.458,284.388L96.639,287.889L101.821,290.708L107.003,293.041L112.185,295.013L117.367,296.708L122.549,298.185L127.73,299.486L132.912,300.645L138.094,301.685L143.276,302.625L148.458,303.481L153.639,304.263L158.821,304.983L164.003,305.647L169.185,306.263L174.367,306.836L179.549,307.371L184.73,307.872L189.912,308.342L195.094,308.785L200.276,309.203L205.458,309.598L210.639,309.972L215.821,310.327L221.003,310.665L226.185,310.987L231.367,311.293L236.549,311.586L241.73,311.867L246.912,312.135L252.094,312.393L257.276,312.64L262.458,312.877L267.639,313.106L272.821,313.326L278.003,313.538L283.185,313.742L288.367,313.94L293.549,314.131L298.73,314.315L303.912,314.494L309.094,314.666L314.276,314.834L319.458,314.996L324.639,315.154L329.821,315.307L335.003,315.456L340.185,315.6L345.367,315.741L350.549,315.877L355.73,316.01L360.912,316.14L366.094,316.266L371.276,316.389L376.458,316.509L381.639,316.626L386.821,316.74L392.003,316.852L397.185,316.961L402.367,317.067L407.549,317.171L412.73,317.273L417.912,317.372L421.59,317.442L423.094,317.47L428.276,317.565L433.458,317.658L438.639,317.749L441.027,317.791L443.821,317.839L449.003,317.926L454.185,318.012L459.367,318.096L461.197,318.126L464.549,318.179L466.698,318.213L469.73,318.26L474.912,318.339L479.166,318.404L480.094,318.417L485.276,318.494L490.458,318.569L495.639,318.643L500.821,318.715L506.003,318.786L511.185,318.856L516.367,318.925L521.549,318.993L521.706,318.995L526.73,319.059L531.912,319.124L537.094,319.189L542.276,319.252L547.458,319.314L552.639,319.375L557.821,319.435L558.012,319.438L561.679,319.48L563.003,319.495L566.813,319.538L568.185,319.553L573.367,319.611L578.182,319.663L578.549,319.667L583.73,319.723L588.912,319.778L594.094,319.832L599.276,319.885L604.458,319.938L609.639,319.99L614.821,320.041L620.003,320.091" /><text dy="0px" dx="10px" text-anchor="start" font-family="'Arial', sans-serif" font-size="10px" fill="#000000" y="330.79993416179735" x="620.0030882069111" /><text dy="0px" dx="10px" text-anchor="start" font-family="'Arial', sans-serif" font-size="10px" fill="#000000" y="347.20976876973776" x="620.0030882069111" /><text dy="0px" dx="10px" text-anchor="start" font-family="'Arial', sans-serif" font-size="10px" fill="#000000" y="313.82256665851935" x="620.0030882069111" /><text dy="0px" dx="10px" text-anchor="start" font-family="'Arial', sans-serif" font-size="10px" fill="#000000" y="341.2801798669376" x="620.0030882069111" /><text dy="0px" dx="10px" text-anchor="start" font-family="'Arial', sans-serif" font-size="10px" fill="#000000" y="320.0913178229852" x="620.0030882069111" /></g><g class="dotsgroup"><g style="fill-opacity:1;stroke-opacity:1" class="dotsgroup-child"><path style="fill:#A6A6A6;stroke:#A6A6A6;stroke-width:1" transform="translate(578.1818181818181, 332.2929936305733)" d="M4,0A4,4,0,1,1,-4,0A4,4,0,1,1,4,0" /></g><g style="fill-opacity:1;stroke-opacity:1" class="dotsgroup-child"><path style="fill:#A6A6A6;stroke:#A6A6A6;stroke-width:1" transform="translate(421.5904265585794, 326.77484787018255)" d="M4,0A4,4,0,1,1,-4,0A4,4,0,1,1,4,0" /></g><g style="fill-opacity:1;stroke-opacity:1" class="dotsgroup-child"><path style="fill:#A6A6A6;stroke:#A6A6A6;stroke-width:1" transform="translate(479.16618413433696, 331.15485564304464)" d="M4,0A4,4,0,1,1,-4,0A4,4,0,1,1,4,0" /></g><g style="fill-opacity:1;stroke-opacity:1" class="dotsgroup-child"><path style="fill:#A6A6A6;stroke:#A6A6A6;stroke-width:1" transform="translate(521.7062343176992, 330.7942811755362)" d="M4,0A4,4,0,1,1,-4,0A4,4,0,1,1,4,0" /></g><g style="fill-opacity:1;stroke-opacity:1" class="dotsgroup-child"><path style="fill:#A6A6A6;stroke:#A6A6A6;stroke-width:1" transform="translate(566.813356494885, 335.8610709117221)" d="M4,0A4,4,0,1,1,-4,0A4,4,0,1,1,4,0" /></g><g style="fill-opacity:1;stroke-opacity:1" class="dotsgroup-child"><path style="fill:#A6A6A6;stroke:#A6A6A6;stroke-width:1" transform="translate(558.0119668017758, 331.45802650957285)" d="M4,0A4,4,0,1,1,-4,0A4,4,0,1,1,4,0" /></g><g style="fill-opacity:1;stroke-opacity:1" class="dotsgroup-child"><path style="fill:#A6A6A6;stroke:#A6A6A6;stroke-width:1" transform="translate(466.6975487357652, 322.33543733092876)" d="M4,0A4,4,0,1,1,-4,0A4,4,0,1,1,4,0" /></g><g style="fill-opacity:1;stroke-opacity:1" class="dotsgroup-child"><path style="fill:#A6A6A6;stroke:#A6A6A6;stroke-width:1" transform="translate(461.1966801775718, 335.0274223034735)" d="M4,0A4,4,0,1,1,-4,0A4,4,0,1,1,4,0" /></g><g style="fill-opacity:1;stroke-opacity:1" class="dotsgroup-child"><path style="fill:#A6A6A6;stroke:#A6A6A6;stroke-width:1" transform="translate(441.0268287975294, 329.6535129932628)" d="M4,0A4,4,0,1,1,-4,0A4,4,0,1,1,4,0" /></g><g style="fill-opacity:1;stroke-opacity:1" class="dotsgroup-child"><path style="fill:#A6A6A6;stroke:#A6A6A6;stroke-width:1" transform="translate(561.6792125072379, 330.45321637426906)" d="M4,0A4,4,0,1,1,-4,0A4,4,0,1,1,4,0" /></g></g></svg>