<svg viewBox="0 0 640 480" width="640px" height="480px" xmlns="http://www.w3.org/2000/svg"><rect x="0" y="0" width="100%" height="100%" fill="white"/><line style="stroke-opacity:0" stroke="black" stroke-width="1px" y2="450" y1="10" x2="0" x1="0" class="ttip-line-x" /><line style="stroke-opacity:0" stroke="black" stroke-width="1px" y2="0" y1="0" x2="630" x1="60" class="ttip-line-y" /><g transform="translate(0, 450)" color="#000000" text-anchor="middle" font-family="sans-serif" font-size="10" fill="none" class="xaxisgroup"><g class="xaxislabel"><text style="text-anchor:middle;font-size:10px;font-family:'Arial', sans-serif;fill:#000000" transform="translate(320, 25)" y="0" x="0" /></g><path d="M60.5,6V0.5H630.5V6" stroke="currentColor" class="domain" /><g transform="translate(60.5,0)" opacity="1" class="tick"><line y2="6" stroke="currentColor" /><text style="font-size:10px;font-family:'Arial', sans-serif;fill:#000000" text-anchor="middle" transform="rotate(0)" dy="0.71em" y="9" fill="currentColor">0</text></g><g transform="translate(133.8449141092453,0)" opacity="1" class="tick"><line y2="6" stroke="currentColor" /><text style="font-size:10px;font-family:'Arial', sans-serif;fill:#000000" text-anchor="middle" transform="rotate(0)" dy="0.71em" y="9" fill="currentColor">200</text></g><g transform="translate(207.18982821849062,0)" opacity="1" class="tick"><line y2="6" stroke="currentColor" /><text style="font-size:10px;font-family:'Arial', sans-serif;fill:#000000" text-anchor="middle" transform="rotate(0)" dy="0.71em" y="9" fill="currentColor">400</text></g><g transform="translate(280.53474232773596,0)" opacity="1" class="tick"><line y2="6" stroke="currentColor" /><text style="font-size:10px;font-family:'Arial', sans-serif;fill:#000000" text-anchor="middle" transform="rotate(0)" dy="0.71em" y="9" fill="currentColor">600</text></g><g transform="translate(353.8796564369813,0)" opacity="1" class="tick"><line y2="6" stroke="currentColor" /><text style="font-size:10px;font-family:'Arial', sans-serif;fill:#000000" text-anchor="middle" transform="rotate(0)" dy="0.71em" y="9" fill="currentColor">800</text></g><g transform="translate(427.2245705462265,0)" opacity="1" class="tick"><line y2="6" stroke="currentColor" /><text style="font-size:10px;font-family:'Arial', sans-serif;fill:#000000" text-anchor="middle" transform="rotate(0)" dy="0.71em" y="9" fill="currentColor">1,000</text></g><g transform="translate(500.5694846554719,0)" opacity="1" class="tick"><line y2="6" stroke="currentColor" /><text style="font-size:10px;font-family:'Arial', sans-serif;fill:#000000" text-anchor="middle" transform="rotate(0)" dy="0.71em" y="9" fill="currentColor">1,200</text></g><g transform="translate(573.9143987647171,0)" opacity="1" class="tick"><line y2="6" stroke="currentColor" /><text style="font-size:10px;font-family:'Arial', sans-serif;fill:#000000" text-anchor="middle" transform="rotate(0)" dy="0.71em" y="9" fill="currentColor">1,400</text></g></g><g transform="translate(60, 0)" color="#000000" text-anchor="end" font-family="sans-serif" font-size="10" fill="none" class="yaxisgroup"><g class="yaxislabel"><text style="text-anchor:middle;font-size:10px;font-family:'Arial', sans-serif;fill:#000000" transform="rotate(-90, -45, 240)" y="240" x="-45" /></g><path d="M-6,450.5H0.5V10.5H-6" stroke="currentColor" class="domain" /><g transform="translate(0,450.5)" opacity="1" class="tick"><line x2="-6" stroke="currentColor" /><text transform="rotate(0)" style="text-anchor:right;font-size:10px;font-family:'Arial', sans-serif;fill:#000000" dy="0.32em" x="-9" fill="currentColor">0.00%</text></g><g transform="translate(0,406.5)" opacity="1" class="tick"><line x2="-6" stroke="currentColor" /><text transform="rotate(0)" style="text-anchor:right;font-size:10px;font-family:'Arial', sans-serif;fill:#000000" dy="0.32em" x="-9" fill="currentColor">10.00%</text></g><g transform="translate(0,362.5)" opacity="1" class="tick"><line x2="-6" stroke="currentColor" /><text transform="rotate(0)" style="text-anchor:right;font-size:10px;font-family:'Arial', sans-serif;fill:#000000" dy="0.32em" x="-9" fill="currentColor">20.00%</text></g><g transform="translate(0,318.5)" opacity="1" class="tick"><line x2="-6" stroke="currentColor" /><text transform="rotate(0)" style="text-anchor:right;font-size:10px;font-family:'Arial', sans-serif;fill:#000000" dy="0.32em" x="-9" fill="currentColor">30.00%</text></g><g transform="translate(0,274.5)" opacity="1" class="tick"><line x2="-6" stroke="currentColor" /><text transform="rotate(0)" style="text-anchor:right;font-size:10px;font-family:'Arial', sans-serif;fill:#000000" dy="0.32em" x="-9" fill="currentColor">40.00%</text></g><g transform="translate(0,230.5)" opacity="1" class="tick"><line x2="-6" stroke="currentColor" /><text transform="rotate(0)" style="text-anchor:right;font-size:10px;font-family:'Arial', sans-serif;fill:#000000" dy="0.32em" x="-9" fill="currentColor">50.00%</text></g><g transform="translate(0,186.5)" opacity="1" class="tick"><line x2="-6" stroke="currentColor" /><text transform="rotate(0)" style="text-anchor:right;font-size:10px;font-family:'Arial', sans-serif;fill:#000000" dy="0.32em" x="-9" fill="currentColor">60.00%</text></g><g transform="translate(0,142.50000000000003)" opacity="1" class="tick"><line x2="-6" stroke="currentColor" /><text transform="rotate(0)" style="text-anchor:right;font-size:10px;font-family:'Arial', sans-serif;fill:#000000" dy="0.32em" x="-9" fill="currentColor">70.00%</text></g><g transform="translate(0,98.49999999999999)" opacity="1" class="tick"><line x2="-6" stroke="currentColor" /><text transform="rotate(0)" style="text-anchor:right;font-size:10px;font-family:'Arial', sans-serif;fill:#000000" dy="0.32em" x="-9" fill="currentColor">80.00%</text></g><g transform="translate(0,54.49999999999999)" opacity="1" class="tick"><line x2="-6" stroke="currentColor" /><text transform="rotate(0)" style="text-anchor:right;font-size:10px;font-family:'Arial', sans-serif;fill:#000000" dy="0.32em" x="-9" fill="currentColor">90.00%</text></g><g transform="translate(0,10.5)" opacity="1" class="tick"><line x2="-6" stroke="currentColor" /><text transform="rotate(0)" style="text-anchor:right;font-size:10px;font-family:'Arial', sans-serif;fill:#000000" dy="0.32em" x="-9" fill="currentColor">100.00%</text></g></g><g class="linesgroup"><path style="stroke-opacity:1" stroke-dasharray="10 0" stroke-width="1.5" stroke="#000000" fill="none" d="M60.367,316.852L65.549,316.852L70.73,316.852L75.912,316.852L81.094,316.852L86.276,316.852L91.458,316.852L96.639,316.852L101.821,316.852L107.003,316.852L112.185,316.852L117.367,316.852L122.549,316.852L127.73,316.852L132.912,316.852L138.094,316.852L143.276,316.852L148.458,316.852L153.639,316.852L158.821,316.852L164.003,316.852L169.185,316.852L174.367,316.852L179.549,316.852L184.73,316.852L189.912,316.852L195.094,316.852L200.276,316.852L205.458,316.852L210.639,316.852L215.821,316.852L221.003,316.852L226.185,316.852L231.367,316.852L236.549,316.852L241.73,316.852L246.912,316.852L252.094,316.852L257.276,316.852L262.458,316.852L267.639,316.852L272.821,316.852L278.003,316.852L283.185,316.852L288.367,316.852L293.549,316.852L298.73,316.852L303.912,316.852L309.094,316.852L314.276,316.852L319.458,316.852L324.639,316.852L329.821,316.852L335.003,316.852L340.185,316.852L345.367,316.852L350.549,316.852L355.73,316.852L360.912,316.852L366.094,316.852L371.276,316.852L376.458,316.852L381.639,316.852L386.821,316.852L392.003,316.852L397.185,316.852L402.367,316.852L407.549,316.852L412.73,316.852L417.912,316.852L421.59,316.852L423.094,316.852L428.276,316.852L433.458,316.852L438.639,316.852L441.027,316.852L443.821,316.852L449.003,316.852L454.185,316.852L459.367,316.852L461.197,316.852L464.549,316.852L466.698,316.852L469.73,316.852L474.912,316.852L479.166,316.852L480.094,316.852L485.276,316.852L490.458,316.852L495.639,316.852L500.821,316.852L506.003,316.852L511.185,316.852L516.367,316.852L521.549,316.852L521.706,316.852L526.73,316.852L531.912,316.852L537.094,316.852L542.276,316.852L547.458,316.852L552.639,316.852L557.821,316.852L558.012,316.852L561.679,316.852L563.003,316.852L566.813,316.852L568.185,316.852L573.367,316.852L578.182,316.852L578.549,316.852L583.73,316.852L588.912,316.852L594.094,316.852L599.276,316.852L604.458,316.852L609.639,316.852L614.821,316.852L620.003,316.852" /><path style="stroke-opacity:1" stroke-dasharray="10 10" stroke-width="2" stroke="#6495ED" fill="none" d="M65.549,435.072L70.73,412.355L75.912,398.855L81.094,389.841L86.276,383.293L91.458,378.26L96.639,374.235L101.821,370.92L107.003,368.127L112.185,365.733L117.367,363.65L122.549,361.815L127.73,360.184L132.912,358.72L138.094,357.397L143.276,356.193L148.458,355.092L153.639,354.08L158.821,353.144L164.003,352.277L169.185,351.47L174.367,350.716L179.549,350.01L184.73,349.347L189.912,348.722L195.094,348.133L200.276,347.575L205.458,347.046L210.639,346.545L215.821,346.067L221.003,345.612L226.185,345.178L231.367,344.763L236.549,344.366L241.73,343.986L246.912,343.621L252.094,343.271L257.276,342.934L262.458,342.61L267.639,342.298L272.821,341.996L278.003,341.706L283.185,341.425L288.367,341.154L293.549,340.892L298.73,340.638L303.912,340.392L309.094,340.153L314.276,339.922L319.458,339.697L324.639,339.479L329.821,339.267L335.003,339.061L340.185,338.861L345.367,338.666L350.549,338.476L355.73,338.291L360.912,338.111L366.094,337.935L371.276,337.764L376.458,337.596L381.639,337.433L386.821,337.274L392.003,337.118L397.185,336.965L402.367,336.817L407.549,336.671L412.73,336.529L417.912,336.389L421.59,336.292L423.094,336.253L428.276,336.119L433.458,335.988L438.639,335.86L441.027,335.802L443.821,335.734L449.003,335.611L454.185,335.49L459.367,335.372L461.197,335.331L464.549,335.256L466.698,335.208L469.73,335.142L474.912,335.03L479.166,334.939L480.094,334.92L485.276,334.812L490.458,334.706L495.639,334.602L500.821,334.5L506.003,334.399L511.185,334.3L516.367,334.203L521.549,334.108L521.706,334.105L526.73,334.014L531.912,333.921L537.094,333.83L542.276,333.741L547.458,333.652L552.639,333.566L557.821,333.48L558.012,333.477L561.679,333.418L563.003,333.396L566.813,333.335L568.185,333.313L573.367,333.232L578.182,333.157L578.549,333.151L583.73,333.072L588.912,332.994L594.094,332.917L599.276,332.841L604.458,332.767L609.639,332.693L614.821,332.62L620.003,332.548" /><path style="stroke-opacity:1" stroke-dasharray="10 10" stroke-width="2" stroke="#6495ED" fill="none" d="M60.367,132.885L65.549,146.638L70.73,193.766L75.912,216.083L81.094,229.642L86.276,238.964L91.458,245.865L96.639,251.234L101.821,255.562L107.003,259.146L112.185,262.175L117.367,264.779L122.549,267.049L127.73,269.049L132.912,270.83L138.094,272.427L143.276,273.871L148.458,275.185L153.639,276.386L158.821,277.491L164.003,278.511L169.185,279.456L174.367,280.335L179.549,281.156L184.73,281.925L189.912,282.646L195.094,283.325L200.276,283.965L205.458,284.571L210.639,285.144L215.821,285.689L221.003,286.206L226.185,286.699L231.367,287.169L236.549,287.618L241.73,288.047L246.912,288.458L252.094,288.852L257.276,289.231L262.458,289.594L267.639,289.944L272.821,290.281L278.003,290.605L283.185,290.918L288.367,291.22L293.549,291.512L298.73,291.794L303.912,292.067L309.094,292.332L314.276,292.588L319.458,292.836L324.639,293.077L329.821,293.311L335.003,293.538L340.185,293.759L345.367,293.974L350.549,294.182L355.73,294.386L360.912,294.584L366.094,294.776L371.276,294.964L376.458,295.148L381.639,295.326L386.821,295.501L392.003,295.671L397.185,295.838L402.367,296L407.549,296.159L412.73,296.314L417.912,296.466L421.59,296.572L423.094,296.614L428.276,296.76L433.458,296.902L438.639,297.041L441.027,297.105L443.821,297.178L449.003,297.312L454.185,297.443L459.367,297.571L461.197,297.616L464.549,297.697L466.698,297.749L469.73,297.821L474.912,297.942L479.166,298.04L480.094,298.061L485.276,298.177L490.458,298.292L495.639,298.405L500.821,298.515L506.003,298.624L511.185,298.73L516.367,298.835L521.549,298.938L521.706,298.941L526.73,299.039L531.912,299.139L537.094,299.237L542.276,299.333L547.458,299.428L552.639,299.521L557.821,299.613L558.012,299.617L561.679,299.681L563.003,299.704L566.813,299.769L568.185,299.793L573.367,299.88L578.182,299.961L578.549,299.967L583.73,300.052L588.912,300.135L594.094,300.218L599.276,300.299L604.458,300.379L609.639,300.458L614.821,300.536L620.003,300.613" /><path style="stroke-opacity:1" stroke-dasharray="2 5" stroke-width="2" stroke="#6495ED" fill="none" d="M65.549,403.652L70.73,382.86L75.912,372.295L81.094,365.625L86.276,360.92L91.458,357.371L96.639,354.569L101.821,352.284L107.003,350.373L112.185,348.744L117.367,347.334L122.549,346.097L127.73,345.001L132.912,344.02L138.094,343.137L143.276,342.334L148.458,341.602L153.639,340.93L158.821,340.31L164.003,339.736L169.185,339.203L174.367,338.705L179.549,338.24L184.73,337.803L189.912,337.392L195.094,337.005L200.276,336.639L205.458,336.292L210.639,335.963L215.821,335.65L221.003,335.352L226.185,335.068L231.367,334.797L236.549,334.538L241.73,334.289L246.912,334.051L252.094,333.823L257.276,333.603L262.458,333.392L267.639,333.188L272.821,332.992L278.003,332.803L283.185,332.62L288.367,332.444L293.549,332.273L298.73,332.108L303.912,331.948L309.094,331.793L314.276,331.643L319.458,331.497L324.639,331.356L329.821,331.218L335.003,331.084L340.185,330.955L345.367,330.828L350.549,330.705L355.73,330.585L360.912,330.468L366.094,330.354L371.276,330.243L376.458,330.135L381.639,330.029L386.821,329.926L392.003,329.825L397.185,329.727L402.367,329.631L407.549,329.536L412.73,329.444L417.912,329.354L421.59,329.291L423.094,329.266L428.276,329.18L433.458,329.095L438.639,329.012L441.027,328.975L443.821,328.931L449.003,328.851L454.185,328.773L459.367,328.697L461.197,328.67L464.549,328.622L466.698,328.591L469.73,328.548L474.912,328.476L479.166,328.418L480.094,328.405L485.276,328.335L490.458,328.267L495.639,328.2L500.821,328.134L506.003,328.069L511.185,328.005L516.367,327.943L521.549,327.881L521.706,327.879L526.73,327.82L531.912,327.761L537.094,327.702L542.276,327.644L547.458,327.588L552.639,327.532L557.821,327.477L558.012,327.475L561.679,327.436L563.003,327.423L566.813,327.383L568.185,327.369L573.367,327.317L578.182,327.269L578.549,327.265L583.73,327.214L588.912,327.164L594.094,327.114L599.276,327.065L604.458,327.017L609.639,326.97L614.821,326.923L620.003,326.877" /><path style="stroke-opacity:1" stroke-dasharray="2 5" stroke-width="2" stroke="#6495ED" fill="none" d="M60.367,10.031L65.549,208.463L70.73,239.566L75.912,253.776L81.094,262.311L86.276,268.149L91.458,272.458L96.639,275.807L101.821,278.503L107.003,280.735L112.185,282.621L117.367,284.242L122.549,285.655L127.73,286.9L132.912,288.008L138.094,289.003L143.276,289.903L148.458,290.721L153.639,291.469L158.821,292.157L164.003,292.793L169.185,293.382L174.367,293.93L179.549,294.442L184.73,294.921L189.912,295.371L195.094,295.794L200.276,296.194L205.458,296.572L210.639,296.93L215.821,297.269L221.003,297.593L226.185,297.9L231.367,298.194L236.549,298.474L241.73,298.742L246.912,298.999L252.094,299.245L257.276,299.482L262.458,299.709L267.639,299.927L272.821,300.138L278.003,300.34L283.185,300.536L288.367,300.725L293.549,300.907L298.73,301.084L303.912,301.255L309.094,301.42L314.276,301.58L319.458,301.736L324.639,301.886L329.821,302.033L335.003,302.175L340.185,302.313L345.367,302.448L350.549,302.578L355.73,302.706L360.912,302.829L366.094,302.95L371.276,303.068L376.458,303.183L381.639,303.295L386.821,303.404L392.003,303.51L397.185,303.615L402.367,303.716L407.549,303.816L412.73,303.913L417.912,304.008L421.59,304.075L423.094,304.101L428.276,304.192L433.458,304.282L438.639,304.369L441.027,304.409L443.821,304.455L449.003,304.538L454.185,304.62L459.367,304.701L461.197,304.729L464.549,304.78L466.698,304.812L469.73,304.857L474.912,304.933L479.166,304.995L480.094,305.008L485.276,305.081L490.458,305.153L495.639,305.224L500.821,305.293L506.003,305.361L511.185,305.428L516.367,305.494L521.549,305.558L521.706,305.56L526.73,305.622L531.912,305.684L537.094,305.746L542.276,305.806L547.458,305.866L552.639,305.924L557.821,305.982L558.012,305.984L561.679,306.024L563.003,306.038L566.813,306.08L568.185,306.094L573.367,306.149L578.182,306.2L578.549,306.203L583.73,306.257L588.912,306.309L594.094,306.361L599.276,306.412L604.458,306.462L609.639,306.512L614.821,306.561L620.003,306.609" /><text dy="0px" dx="10px" text-anchor="start" font-family="'Arial', sans-serif" font-size="10px" fill="#000000" y="316.8521109373714" x="620.0030882069111" /><text dy="0px" dx="10px" text-anchor="start" font-family="'Arial', sans-serif" font-size="10px" fill="#000000" y="332.5484744754013" x="620.0030882069111" /><text dy="0px" dx="10px" text-anchor="start" font-family="'Arial', sans-serif" font-size="10px" fill="#000000" y="300.61288984727935" x="620.0030882069111" /><text dy="0px" dx="10px" text-anchor="start" font-family="'Arial', sans-serif" font-size="10px" fill="#000000" y="326.8766937857664" x="620.0030882069111" /><text dy="0px" dx="10px" text-anchor="start" font-family="'Arial', sans-serif" font-size="10px" fill="#000000" y="306.6090866132902" x="620.0030882069111" /></g><g class="dotsgroup"><g style="fill-opacity:1;stroke-opacity:1" class="dotsgroup-child"><path style="fill:#A6A6A6;stroke:#A6A6A6;stroke-width:1" transform="translate(578.1818181818181, 318.2802547770701)" d="M4,0A4,4,0,1,1,-4,0A4,4,0,1,1,4,0" /></g><g style="fill-opacity:1;stroke-opacity:1" class="dotsgroup-child"><path style="fill:#A6A6A6;stroke:#A6A6A6;stroke-width:1" transform="translate(421.5904265585794, 313.0020283975659)" d="M4,0A4,4,0,1,1,-4,0A4,4,0,1,1,4,0" /></g><g style="fill-opacity:1;stroke-opacity:1" class="dotsgroup-child"><path style="fill:#A6A6A6;stroke:#A6A6A6;stroke-width:1" transform="translate(479.16618413433696, 317.1916010498688)" d="M4,0A4,4,0,1,1,-4,0A4,4,0,1,1,4,0" /></g><g style="fill-opacity:1;stroke-opacity:1" class="dotsgroup-child"><path style="fill:#A6A6A6;stroke:#A6A6A6;stroke-width:1" transform="translate(521.7062343176992, 316.84670373312156)" d="M4,0A4,4,0,1,1,-4,0A4,4,0,1,1,4,0" /></g><g style="fill-opacity:1;stroke-opacity:1" class="dotsgroup-child"><path style="fill:#A6A6A6;stroke:#A6A6A6;stroke-width:1" transform="translate(566.813356494885, 321.69319826338636)" d="M4,0A4,4,0,1,1,-4,0A4,4,0,1,1,4,0" /></g><g style="fill-opacity:1;stroke-opacity:1" class="dotsgroup-child"><path style="fill:#A6A6A6;stroke:#A6A6A6;stroke-width:1" transform="translate(558.0119668017758, 317.4815905743741)" d="M4,0A4,4,0,1,1,-4,0A4,4,0,1,1,4,0" /></g><g style="fill-opacity:1;stroke-opacity:1" class="dotsgroup-child"><path style="fill:#A6A6A6;stroke:#A6A6A6;stroke-width:1" transform="translate(466.6975487357652, 308.75563570784493)" d="M4,0A4,4,0,1,1,-4,0A4,4,0,1,1,4,0" /></g><g style="fill-opacity:1;stroke-opacity:1" class="dotsgroup-child"><path style="fill:#A6A6A6;stroke:#A6A6A6;stroke-width:1" transform="translate(461.1966801775718, 320.89579524680073)" d="M4,0A4,4,0,1,1,-4,0A4,4,0,1,1,4,0" /></g><g style="fill-opacity:1;stroke-opacity:1" class="dotsgroup-child"><path style="fill:#A6A6A6;stroke:#A6A6A6;stroke-width:1" transform="translate(441.0268287975294, 315.75553416746874)" d="M4,0A4,4,0,1,1,-4,0A4,4,0,1,1,4,0" /></g><g style="fill-opacity:1;stroke-opacity:1" class="dotsgroup-child"><path style="fill:#A6A6A6;stroke:#A6A6A6;stroke-width:1" transform="translate(561.6792125072379, 316.52046783625735)" d="M4,0A4,4,0,1,1,-4,0A4,4,0,1,1,4,0" /></g></g></svg>