<svg viewBox="0 0 640 480" width="640px" height="480px" xmlns="http://www.w3.org/2000/svg"><rect x="0" y="0" width="100%" height="100%" fill="white"/><line style="stroke-opacity:0" stroke="black" stroke-width="1px" y2="420" y1="10" x2="0" x1="0" class="ttip-line-x" /><line style="stroke-opacity:0" stroke="black" stroke-width="1px" y2="0" y1="0" x2="630" x1="60" class="ttip-line-y" /><g transform="translate(0, 420)" color="#000000" text-anchor="middle" font-family="sans-serif" font-size="10" fill="none" class="xaxisgroup"><g class="xaxislabel"><text style="text-anchor:middle;font-size:10px;font-family:'Arial', sans-serif;fill:#000000" transform="translate(320, 55)" y="0" x="0" /></g><path d="M60.5,6V0.5H630.5V6" stroke="currentColor" class="domain" /><g transform="translate(60.5,0)" opacity="1" class="tick"><line y2="6" stroke="currentColor" /><text style="font-size:10px;font-family:'Arial', sans-serif;fill:#000000" text-anchor="middle" transform="rotate(0)" dy="0.71em" y="9" fill="currentColor">0</text></g><g transform="translate(133.8449141092453,0)" opacity="1" class="tick"><line y2="6" stroke="currentColor" /><text style="font-size:10px;font-family:'Arial', sans-serif;fill:#000000" text-anchor="middle" transform="rotate(0)" dy="0.71em" y="9" fill="currentColor">200</text></g><g transform="translate(207.18982821849062,0)" opacity="1" class="tick"><line y2="6" stroke="currentColor" /><text style="font-size:10px;font-family:'Arial', sans-serif;fill:#000000" text-anchor="middle" transform="rotate(0)" dy="0.71em" y="9" fill="currentColor">400</text></g><g transform="translate(280.53474232773596,0)" opacity="1" class="tick"><line y2="6" stroke="currentColor" /><text style="font-size:10px;font-family:'Arial', sans-serif;fill:#000000" text-anchor="middle" transform="rotate(0)" dy="0.71em" y="9" fill="currentColor">600</text></g><g transform="translate(353.8796564369813,0)" opacity="1" class="tick"><line y2="6" stroke="currentColor" /><text style="font-size:10px;font-family:'Arial', sans-serif;fill:#000000" text-anchor="middle" transform="rotate(0)" dy="0.71em" y="9" fill="currentColor">800</text></g><g transform="translate(427.2245705462265,0)" opacity="1" class="tick"><line y2="6" stroke="currentColor" /><text style="font-size:10px;font-family:'Arial', sans-serif;fill:#000000" text-anchor="middle" transform="rotate(0)" dy="0.71em" y="9" fill="currentColor">1,000</text></g><g transform="translate(500.5694846554719,0)" opacity="1" class="tick"><line y2="6" stroke="currentColor" /><text style="font-size:10px;font-family:'Arial', sans-serif;fill:#000000" text-anchor="middle" transform="rotate(0)" dy="0.71em" y="9" fill="currentColor">1,200</text></g><g transform="translate(573.9143987647171,0)" opacity="1" class="tick"><line y2="6" stroke="currentColor" /><text style="font-size:10px;font-family:'Arial', sans-serif;fill:#000000" text-anchor="middle" transform="rotate(0)" dy="0.71em" y="9" fill="currentColor">1,400</text></g></g><g transform="translate(60, 0)" color="#000000" text-anchor="end" font-family="sans-serif" font-size="10" fill="none" class="yaxisgroup"><g class="yaxislabel"><text style="text-anchor:middle;font-size:10px;font-family:'Arial', sans-serif;fill:#000000" transform="rotate(-90, -45, 240)" y="240" x="-45" /></g><path d="M-6,420.5H0.5V10.5H-6" stroke="currentColor" class="domain" /><g transform="translate(0,420.5)" opacity="1" class="tick"><line x2="-6" stroke="currentColor" /><text transform="rotate(0)" style="text-anchor:right;font-size:10px;font-family:'Arial', sans-serif;fill:#000000" dy="0.32em" x="-9" fill="currentColor">0.00%</text></g><g transform="translate(0,379.5)" opacity="1" class="tick"><line x2="-6" stroke="currentColor" /><text transform="rotate(0)" style="text-anchor:right;font-size:10px;font-family:'Arial', sans-serif;fill:#000000" dy="0.32em" x="-9" fill="currentColor">10.00%</text></g><g transform="translate(0,338.5)" opacity="1" class="tick"><line x2="-6" stroke="currentColor" /><text transform="rotate(0)" style="text-anchor:right;font-size:10px;font-family:'Arial', sans-serif;fill:#000000" dy="0.32em" x="-9" fill="currentColor">20.00%</text></g><g transform="translate(0,297.5)" opacity="1" class="tick"><line x2="-6" stroke="currentColor" /><text transform="rotate(0)" style="text-anchor:right;font-size:10px;font-family:'Arial', sans-serif;fill:#000000" dy="0.32em" x="-9" fill="currentColor">30.00%</text></g><g transform="translate(0,256.5)" opacity="1" class="tick"><line x2="-6" stroke="currentColor" /><text transform="rotate(0)" style="text-anchor:right;font-size:10px;font-family:'Arial', sans-serif;fill:#000000" dy="0.32em" x="-9" fill="currentColor">40.00%</text></g><g transform="translate(0,215.5)" opacity="1" class="tick"><line x2="-6" stroke="currentColor" /><text transform="rotate(0)" style="text-anchor:right;font-size:10px;font-family:'Arial', sans-serif;fill:#000000" dy="0.32em" x="-9" fill="currentColor">50.00%</text></g><g transform="translate(0,174.5)" opacity="1" class="tick"><line x2="-6" stroke="currentColor" /><text transform="rotate(0)" style="text-anchor:right;font-size:10px;font-family:'Arial', sans-serif;fill:#000000" dy="0.32em" x="-9" fill="currentColor">60.00%</text></g><g transform="translate(0,133.5)" opacity="1" class="tick"><line x2="-6" stroke="currentColor" /><text transform="rotate(0)" style="text-anchor:right;font-size:10px;font-family:'Arial', sans-serif;fill:#000000" dy="0.32em" x="-9" fill="currentColor">70.00%</text></g><g transform="translate(0,92.49999999999999)" opacity="1" class="tick"><line x2="-6" stroke="currentColor" /><text transform="rotate(0)" style="text-anchor:right;font-size:10px;font-family:'Arial', sans-serif;fill:#000000" dy="0.32em" x="-9" fill="currentColor">80.00%</text></g><g transform="translate(0,51.49999999999999)" opacity="1" class="tick"><line x2="-6" stroke="currentColor" /><text transform="rotate(0)" style="text-anchor:right;font-size:10px;font-family:'Arial', sans-serif;fill:#000000" dy="0.32em" x="-9" fill="currentColor">90.00%</text></g><g transform="translate(0,10.5)" opacity="1" class="tick"><line x2="-6" stroke="currentColor" /><text transform="rotate(0)" style="text-anchor:right;font-size:10px;font-family:'Arial', sans-serif;fill:#000000" dy="0.32em" x="-9" fill="currentColor">100.00%</text></g></g><g class="linesgroup"><path style="stroke-opacity:1" stroke-dasharray="10 0" stroke-width="1.5" stroke="#000000" fill="none" d="M60.367,295.93L65.549,295.93L70.73,295.93L75.912,295.93L81.094,295.93L86.276,295.93L91.458,295.93L96.639,295.93L101.821,295.93L107.003,295.93L112.185,295.93L117.367,295.93L122.549,295.93L127.73,295.93L132.912,295.93L138.094,295.93L143.276,295.93L148.458,295.93L153.639,295.93L158.821,295.93L164.003,295.93L169.185,295.93L174.367,295.93L179.549,295.93L184.73,295.93L189.912,295.93L195.094,295.93L200.276,295.93L205.458,295.93L210.639,295.93L215.821,295.93L221.003,295.93L226.185,295.93L231.367,295.93L236.549,295.93L241.73,295.93L246.912,295.93L252.094,295.93L257.276,295.93L262.458,295.93L267.639,295.93L272.821,295.93L278.003,295.93L283.185,295.93L288.367,295.93L293.549,295.93L298.73,295.93L303.912,295.93L309.094,295.93L314.276,295.93L319.458,295.93L324.639,295.93L329.821,295.93L335.003,295.93L340.185,295.93L345.367,295.93L350.549,295.93L355.73,295.93L360.912,295.93L366.094,295.93L371.276,295.93L376.458,295.93L381.639,295.93L386.821,295.93L392.003,295.93L397.185,295.93L402.367,295.93L407.549,295.93L412.73,295.93L417.912,295.93L421.59,295.93L423.094,295.93L428.276,295.93L433.458,295.93L438.639,295.93L441.027,295.93L443.821,295.93L449.003,295.93L454.185,295.93L459.367,295.93L461.197,295.93L464.549,295.93L466.698,295.93L469.73,295.93L474.912,295.93L479.166,295.93L480.094,295.93L485.276,295.93L490.458,295.93L495.639,295.93L500.821,295.93L506.003,295.93L511.185,295.93L516.367,295.93L521.549,295.93L521.706,295.93L526.73,295.93L531.912,295.93L537.094,295.93L542.276,295.93L547.458,295.93L552.639,295.93L557.821,295.93L558.012,295.93L561.679,295.93L563.003,295.93L566.813,295.93L568.185,295.93L573.367,295.93L578.182,295.93L578.549,295.93L583.73,295.93L588.912,295.93L594.094,295.93L599.276,295.93L604.458,295.93L609.639,295.93L614.821,295.93L620.003,295.93" /><path style="stroke-opacity:1" stroke-dasharray="10 10" stroke-width="2" stroke="#6495ED" fill="none" d="M65.549,406.09L70.73,384.922L75.912,372.342L81.094,363.943L86.276,357.841L91.458,353.151L96.639,349.401L101.821,346.312L107.003,343.71L112.185,341.478L117.367,339.537L122.549,337.828L127.73,336.307L132.912,334.943L138.094,333.711L143.276,332.589L148.458,331.563L153.639,330.62L158.821,329.748L164.003,328.94L169.185,328.188L174.367,327.486L179.549,326.828L184.73,326.209L189.912,325.627L195.094,325.078L200.276,324.559L205.458,324.066L210.639,323.598L215.821,323.153L221.003,322.73L226.185,322.325L231.367,321.939L236.549,321.569L241.73,321.214L246.912,320.874L252.094,320.548L257.276,320.234L262.458,319.932L267.639,319.641L272.821,319.36L278.003,319.09L283.185,318.828L288.367,318.575L293.549,318.331L298.73,318.094L303.912,317.865L309.094,317.643L314.276,317.427L319.458,317.218L324.639,317.015L329.821,316.817L335.003,316.625L340.185,316.439L345.367,316.257L350.549,316.08L355.73,315.908L360.912,315.74L366.094,315.576L371.276,315.416L376.458,315.26L381.639,315.108L386.821,314.959L392.003,314.814L397.185,314.672L402.367,314.534L407.549,314.398L412.73,314.265L417.912,314.135L421.59,314.045L423.094,314.008L428.276,313.884L433.458,313.762L438.639,313.642L441.027,313.588L443.821,313.525L449.003,313.41L454.185,313.298L459.367,313.188L461.197,313.149L464.549,313.079L466.698,313.035L469.73,312.973L474.912,312.869L479.166,312.785L480.094,312.766L485.276,312.666L490.458,312.567L495.639,312.47L500.821,312.375L506.003,312.281L511.185,312.189L516.367,312.098L521.549,312.009L521.706,312.007L526.73,311.922L531.912,311.836L537.094,311.751L542.276,311.667L547.458,311.585L552.639,311.504L557.821,311.425L558.012,311.422L561.679,311.366L563.003,311.346L566.813,311.29L568.185,311.269L573.367,311.193L578.182,311.124L578.549,311.118L583.73,311.045L588.912,310.972L594.094,310.9L599.276,310.829L604.458,310.76L609.639,310.691L614.821,310.623L620.003,310.557" /><path style="stroke-opacity:1" stroke-dasharray="10 10" stroke-width="2" stroke="#6495ED" fill="none" d="M60.367,124.507L65.549,137.322L70.73,181.236L75.912,202.032L81.094,214.667L86.276,223.352L91.458,229.783L96.639,234.786L101.821,238.819L107.003,242.159L112.185,244.982L117.367,247.408L122.549,249.523L127.73,251.387L132.912,253.046L138.094,254.534L143.276,255.88L148.458,257.104L153.639,258.224L158.821,259.253L164.003,260.203L169.185,261.084L174.367,261.903L179.549,262.668L184.73,263.384L189.912,264.057L195.094,264.689L200.276,265.286L205.458,265.85L210.639,266.385L215.821,266.892L221.003,267.374L226.185,267.833L231.367,268.271L236.549,268.689L241.73,269.089L246.912,269.472L252.094,269.84L257.276,270.192L262.458,270.531L267.639,270.857L272.821,271.171L278.003,271.473L283.185,271.764L288.367,272.046L293.549,272.318L298.73,272.581L303.912,272.835L309.094,273.082L314.276,273.32L319.458,273.552L324.639,273.776L329.821,273.994L335.003,274.206L340.185,274.412L345.367,274.612L350.549,274.806L355.73,274.996L360.912,275.18L366.094,275.36L371.276,275.535L376.458,275.706L381.639,275.872L386.821,276.035L392.003,276.194L397.185,276.349L402.367,276.5L407.549,276.648L412.73,276.793L417.912,276.934L421.59,277.033L423.094,277.073L428.276,277.208L433.458,277.341L438.639,277.47L441.027,277.529L443.821,277.598L449.003,277.722L454.185,277.844L459.367,277.964L461.197,278.006L464.549,278.081L466.698,278.129L469.73,278.196L474.912,278.309L479.166,278.401L480.094,278.42L485.276,278.529L490.458,278.636L495.639,278.741L500.821,278.844L506.003,278.945L511.185,279.044L516.367,279.142L521.549,279.238L521.706,279.241L526.73,279.332L531.912,279.425L537.094,279.516L542.276,279.606L547.458,279.694L552.639,279.781L557.821,279.867L558.012,279.87L561.679,279.93L563.003,279.951L566.813,280.012L568.185,280.034L573.367,280.116L578.182,280.19L578.549,280.196L583.73,280.275L588.912,280.353L594.094,280.43L599.276,280.506L604.458,280.581L609.639,280.654L614.821,280.727L620.003,280.798" /><path style="stroke-opacity:1" stroke-dasharray="2 5" stroke-width="2" stroke="#6495ED" fill="none" d="M65.549,376.812L70.73,357.438L75.912,347.593L81.094,341.377L86.276,336.994L91.458,333.686L96.639,331.076L101.821,328.946L107.003,327.165L112.185,325.648L117.367,324.334L122.549,323.181L127.73,322.16L132.912,321.246L138.094,320.423L143.276,319.675L148.458,318.993L153.639,318.367L158.821,317.789L164.003,317.254L169.185,316.757L174.367,316.294L179.549,315.86L184.73,315.453L189.912,315.07L195.094,314.709L200.276,314.368L205.458,314.045L210.639,313.738L215.821,313.447L221.003,313.169L226.185,312.905L231.367,312.652L236.549,312.41L241.73,312.179L246.912,311.957L252.094,311.744L257.276,311.539L262.458,311.342L267.639,311.153L272.821,310.97L278.003,310.794L283.185,310.623L288.367,310.459L293.549,310.3L298.73,310.146L303.912,309.997L309.094,309.853L314.276,309.713L319.458,309.577L324.639,309.445L329.821,309.317L335.003,309.192L340.185,309.071L345.367,308.953L350.549,308.839L355.73,308.727L360.912,308.618L366.094,308.512L371.276,308.409L376.458,308.308L381.639,308.209L386.821,308.113L392.003,308.019L397.185,307.927L402.367,307.838L407.549,307.75L412.73,307.664L417.912,307.58L421.59,307.521L423.094,307.498L428.276,307.417L433.458,307.339L438.639,307.261L441.027,307.226L443.821,307.186L449.003,307.112L454.185,307.039L459.367,306.968L461.197,306.943L464.549,306.898L466.698,306.869L469.73,306.829L474.912,306.762L479.166,306.707L480.094,306.696L485.276,306.631L490.458,306.567L495.639,306.504L500.821,306.443L506.003,306.383L511.185,306.323L516.367,306.265L521.549,306.207L521.706,306.206L526.73,306.151L531.912,306.095L537.094,306.041L542.276,305.987L547.458,305.934L552.639,305.882L557.821,305.831L558.012,305.829L561.679,305.793L563.003,305.78L566.813,305.743L568.185,305.73L573.367,305.681L578.182,305.637L578.549,305.633L583.73,305.586L588.912,305.539L594.094,305.493L599.276,305.447L604.458,305.402L609.639,305.358L614.821,305.314L620.003,305.271" /><path style="stroke-opacity:1" stroke-dasharray="2 5" stroke-width="2" stroke="#6495ED" fill="none" d="M60.367,10.028L65.549,194.932L70.73,223.914L75.912,237.155L81.094,245.108L86.276,250.548L91.458,254.564L96.639,257.683L101.821,260.196L107.003,262.276L112.185,264.033L117.367,265.544L122.549,266.86L127.73,268.021L132.912,269.053L138.094,269.98L143.276,270.818L148.458,271.581L153.639,272.278L158.821,272.919L164.003,273.511L169.185,274.06L174.367,274.571L179.549,275.048L184.73,275.495L189.912,275.914L195.094,276.308L200.276,276.681L205.458,277.033L210.639,277.366L215.821,277.683L221.003,277.984L226.185,278.271L231.367,278.544L236.549,278.805L241.73,279.055L246.912,279.294L252.094,279.524L257.276,279.744L262.458,279.956L267.639,280.159L272.821,280.356L278.003,280.544L283.185,280.727L288.367,280.903L293.549,281.073L298.73,281.237L303.912,281.396L309.094,281.551L314.276,281.7L319.458,281.845L324.639,281.985L329.821,282.122L335.003,282.254L340.185,282.383L345.367,282.508L350.549,282.63L355.73,282.748L360.912,282.864L366.094,282.976L371.276,283.086L376.458,283.193L381.639,283.297L386.821,283.399L392.003,283.498L397.185,283.595L402.367,283.69L407.549,283.783L412.73,283.874L417.912,283.962L421.59,284.024L423.094,284.049L428.276,284.134L433.458,284.217L438.639,284.298L441.027,284.335L443.821,284.378L449.003,284.456L454.185,284.533L459.367,284.608L461.197,284.634L464.549,284.681L466.698,284.711L469.73,284.753L474.912,284.824L479.166,284.881L480.094,284.894L485.276,284.962L490.458,285.029L495.639,285.095L500.821,285.159L506.003,285.223L511.185,285.285L516.367,285.346L521.549,285.406L521.706,285.408L526.73,285.466L531.912,285.524L537.094,285.581L542.276,285.637L547.458,285.693L552.639,285.747L557.821,285.801L558.012,285.803L561.679,285.841L563.003,285.854L566.813,285.892L568.185,285.906L573.367,285.957L578.182,286.004L578.549,286.008L583.73,286.057L588.912,286.106L594.094,286.155L599.276,286.202L604.458,286.249L609.639,286.295L614.821,286.341L620.003,286.386" /><text dy="0px" dx="10px" text-anchor="start" font-family="'Arial', sans-serif" font-size="10px" fill="#000000" y="295.9303761007324" x="620.0030882069111" /><text dy="0px" dx="10px" text-anchor="start" font-family="'Arial', sans-serif" font-size="10px" fill="#000000" y="310.5565330338967" x="620.0030882069111" /><text dy="0px" dx="10px" text-anchor="start" font-family="'Arial', sans-serif" font-size="10px" fill="#000000" y="280.7983746304194" x="620.0030882069111" /><text dy="0px" dx="10px" text-anchor="start" font-family="'Arial', sans-serif" font-size="10px" fill="#000000" y="305.2714646640096" x="620.0030882069111" /><text dy="0px" dx="10px" text-anchor="start" font-family="'Arial', sans-serif" font-size="10px" fill="#000000" y="286.3857397987477" x="620.0030882069111" /></g><g class="dotsgroup"><g style="fill-opacity:1;stroke-opacity:1" class="dotsgroup-child"><path style="fill:#A6A6A6;stroke:#A6A6A6;stroke-width:1" transform="translate(578.1818181818181, 297.26114649681534)" d="M4,0A4,4,0,1,1,-4,0A4,4,0,1,1,4,0" /></g><g style="fill-opacity:1;stroke-opacity:1" class="dotsgroup-child"><path style="fill:#A6A6A6;stroke:#A6A6A6;stroke-width:1" transform="translate(421.5904265585794, 292.342799188641)" d="M4,0A4,4,0,1,1,-4,0A4,4,0,1,1,4,0" /></g><g style="fill-opacity:1;stroke-opacity:1" class="dotsgroup-child"><path style="fill:#A6A6A6;stroke:#A6A6A6;stroke-width:1" transform="translate(479.16618413433696, 296.246719160105)" d="M4,0A4,4,0,1,1,-4,0A4,4,0,1,1,4,0" /></g><g style="fill-opacity:1;stroke-opacity:1" class="dotsgroup-child"><path style="fill:#A6A6A6;stroke:#A6A6A6;stroke-width:1" transform="translate(521.7062343176992, 295.9253375694996)" d="M4,0A4,4,0,1,1,-4,0A4,4,0,1,1,4,0" /></g><g style="fill-opacity:1;stroke-opacity:1" class="dotsgroup-child"><path style="fill:#A6A6A6;stroke:#A6A6A6;stroke-width:1" transform="translate(566.813356494885, 300.44138929088274)" d="M4,0A4,4,0,1,1,-4,0A4,4,0,1,1,4,0" /></g><g style="fill-opacity:1;stroke-opacity:1" class="dotsgroup-child"><path style="fill:#A6A6A6;stroke:#A6A6A6;stroke-width:1" transform="translate(558.0119668017758, 296.5169366715759)" d="M4,0A4,4,0,1,1,-4,0A4,4,0,1,1,4,0" /></g><g style="fill-opacity:1;stroke-opacity:1" class="dotsgroup-child"><path style="fill:#A6A6A6;stroke:#A6A6A6;stroke-width:1" transform="translate(466.6975487357652, 288.3859332732191)" d="M4,0A4,4,0,1,1,-4,0A4,4,0,1,1,4,0" /></g><g style="fill-opacity:1;stroke-opacity:1" class="dotsgroup-child"><path style="fill:#A6A6A6;stroke:#A6A6A6;stroke-width:1" transform="translate(461.1966801775718, 299.6983546617916)" d="M4,0A4,4,0,1,1,-4,0A4,4,0,1,1,4,0" /></g><g style="fill-opacity:1;stroke-opacity:1" class="dotsgroup-child"><path style="fill:#A6A6A6;stroke:#A6A6A6;stroke-width:1" transform="translate(441.0268287975294, 294.9085659287777)" d="M4,0A4,4,0,1,1,-4,0A4,4,0,1,1,4,0" /></g><g style="fill-opacity:1;stroke-opacity:1" class="dotsgroup-child"><path style="fill:#A6A6A6;stroke:#A6A6A6;stroke-width:1" transform="translate(561.6792125072379, 295.6213450292398)" d="M4,0A4,4,0,1,1,-4,0A4,4,0,1,1,4,0" /></g></g></svg>