<svg viewBox="0 0 640 480" width="640px" height="480px" xmlns="http://www.w3.org/2000/svg"><rect x="0" y="0" width="100%" height="100%" fill="white"/><line style="stroke-opacity:0" stroke="black" stroke-width="1px" y2="420" y1="10" x2="0" x1="0" class="ttip-line-x" /><line style="stroke-opacity:0" stroke="black" stroke-width="1px" y2="0" y1="0" x2="630" x1="60" class="ttip-line-y" /><g transform="translate(0, 420)" color="#000000" text-anchor="middle" font-family="sans-serif" font-size="10" fill="none" class="xaxisgroup"><path d="M60.5,6V0.5H630.5V6" stroke="currentColor" class="domain" /><g transform="translate(60.5,0)" opacity="1" class="tick"><line y2="6" stroke="currentColor" /><text transform="rotate(-35)" dx="-.8em" style="text-anchor:end;font-size:10px;font-family:'Arial', sans-serif;fill:#000000" dy="-.15em" y="9" fill="currentColor"> 01/01/2024</text></g><g transform="translate(110.06521739130434,0)" opacity="1" class="tick"><line y2="6" stroke="currentColor" /><text transform="rotate(-35)" dx="-.8em" style="text-anchor:end;font-size:10px;font-family:'Arial', sans-serif;fill:#000000" dy="-.15em" y="9" fill="currentColor"> 01/03/2024</text></g><g transform="translate(159.6304347826087,0)" opacity="1" class="tick"><line y2="6" stroke="currentColor" /><text transform="rotate(-35)" dx="-.8em" style="text-anchor:end;font-size:10px;font-family:'Arial', sans-serif;fill:#000000" dy="-.15em" y="9" fill="currentColor"> 01/05/2024</text></g><g transform="translate(209.19565217391306,0)" opacity="1" class="tick"><line y2="6" stroke="currentColor" /><text transform="rotate(-35)" dx="-.8em" style="text-anchor:end;font-size:10px;font-family:'Arial', sans-serif;fill:#000000" dy="-.15em" y="9" fill="currentColor"> 01/07/2024</text></g><g transform="translate(258.7608695652174,0)" opacity="1" class="tick"><line y2="6" stroke="currentColor" /><text transform="rotate(-35)" dx="-.8em" style="text-anchor:end;font-size:10px;font-family:'Arial', sans-serif;fill:#000000" dy="-.15em" y="9" fill="currentColor"> 01/09/2024</text></g><g transform="translate(308.32608695652175,0)" opacity="1" class="tick"><line y2="6" stroke="currentColor" /><text transform="rotate(-35)" dx="-.8em" style="text-anchor:end;font-size:10px;font-family:'Arial', sans-serif;fill:#000000" dy="-.15em" y="9" fill="currentColor"> 01/11/2024</text></g><g transform="translate(357.8913043478261,0)" opacity="1" class="tick"><line y2="6" stroke="currentColor" /><text transform="rotate(-35)" dx="-.8em" style="text-anchor:end;font-size:10px;font-family:'Arial', sans-serif;fill:#000000" dy="-.15em" y="9" fill="currentColor"> 01/01/2025</text></g><g transform="translate(407.45652173913044,0)" opacity="1" class="tick"><line y2="6" stroke="currentColor" /><text transform="rotate(-35)" dx="-.8em" style="text-anchor:end;font-size:10px;font-family:'Arial', sans-serif;fill:#000000" dy="-.15em" y="9" fill="currentColor"> 01/03/2025</text></g><g transform="translate(457.02173913043475,0)" opacity="1" class="tick"><line y2="6" stroke="currentColor" /><text transform="rotate(-35)" dx="-.8em" style="text-anchor:end;font-size:10px;font-family:'Arial', sans-serif;fill:#000000" dy="-.15em" y="9" fill="currentColor"> 01/05/2025</text></g><g transform="translate(506.5869565217391,0)" opacity="1" class="tick"><line y2="6" stroke="currentColor" /><text transform="rotate(-35)" dx="-.8em" style="text-anchor:end;font-size:10px;font-family:'Arial', sans-serif;fill:#000000" dy="-.15em" y="9" fill="currentColor"> 01/07/2025</text></g><g transform="translate(556.1521739130435,0)" opacity="1" class="tick"><line y2="6" stroke="currentColor" /><text transform="rotate(-35)" dx="-.8em" style="text-anchor:end;font-size:10px;font-family:'Arial', sans-serif;fill:#000000" dy="-.15em" y="9" fill="currentColor"> 01/09/2025</text></g><g transform="translate(605.7173913043478,0)" opacity="1" class="tick"><line y2="6" stroke="currentColor" /><text transform="rotate(-35)" dx="-.8em" style="text-anchor:end;font-size:10px;font-family:'Arial', sans-serif;fill:#000000" dy="-.15em" y="9" fill="currentColor"> 01/11/2025</text></g></g><text style="text-anchor:middle;font-size:10px;font-family:'Arial', sans-serif;fill:#000000" y="460" x="320" class="xaxislabel" /><g transform="translate(60, 0)" color="#000000" text-anchor="end" font-family="sans-serif" font-size="10" fill="none" class="yaxisgroup"><path d="M-6,420.5H0.5V10.5H-6" stroke="currentColor" class="domain" /><g transform="translate(0,377.6649658357732)" opacity="1" class="tick"><line x2="-6" stroke="currentColor" /><text transform="rotate(-35)" style="text-anchor:right;font-size:10px;font-family:'Arial', sans-serif;fill:#000000" dy="0.32em" x="-9" fill="currentColor">0.24</text></g><g transform="translate(0,328.36025898963067)" opacity="1" class="tick"><line x2="-6" stroke="currentColor" /><text transform="rotate(-35)" style="text-anchor:right;font-size:10px;font-family:'Arial', sans-serif;fill:#000000" dy="0.32em" x="-9" fill="currentColor">0.26</text></g><g transform="translate(0,279.05555214348817)" opacity="1" class="tick"><line x2="-6" stroke="currentColor" /><text transform="rotate(-35)" style="text-anchor:right;font-size:10px;font-family:'Arial', sans-serif;fill:#000000" dy="0.32em" x="-9" fill="currentColor">0.28</text></g><g transform="translate(0,229.75084529734576)" opacity="1" class="tick"><line x2="-6" stroke="currentColor" /><text transform="rotate(-35)" style="text-anchor:right;font-size:10px;font-family:'Arial', sans-serif;fill:#000000" dy="0.32em" x="-9" fill="currentColor">0.30</text></g><g transform="translate(0,180.44613845120327)" opacity="1" class="tick"><line x2="-6" stroke="currentColor" /><text transform="rotate(-35)" style="text-anchor:right;font-size:10px;font-family:'Arial', sans-serif;fill:#000000" dy="0.32em" x="-9" fill="currentColor">0.32</text></g><g transform="translate(0,131.14143160506075)" opacity="1" class="tick"><line x2="-6" stroke="currentColor" /><text transform="rotate(-35)" style="text-anchor:right;font-size:10px;font-family:'Arial', sans-serif;fill:#000000" dy="0.32em" x="-9" fill="currentColor">0.34</text></g><g transform="translate(0,81.83672475891836)" opacity="1" class="tick"><line x2="-6" stroke="currentColor" /><text transform="rotate(-35)" style="text-anchor:right;font-size:10px;font-family:'Arial', sans-serif;fill:#000000" dy="0.32em" x="-9" fill="currentColor">0.36</text></g><g transform="translate(0,32.532017912775814)" opacity="1" class="tick"><line x2="-6" stroke="currentColor" /><text transform="rotate(-35)" style="text-anchor:right;font-size:10px;font-family:'Arial', sans-serif;fill:#000000" dy="0.32em" x="-9" fill="currentColor">0.38</text></g></g><text style="text-anchor:middle;font-size:10px;font-family:'Arial', sans-serif;fill:#000000" transform="rotate(-90, 30, 240)" y="240" x="30" class="yaxislabel" /><g class="linesgroup"><path style="stroke-opacity:1" stroke-dasharray="10 0" stroke-width="1" stroke="#A6A6A6" fill="none" d="M60,281.27L84.783,271.484L109.565,310.26L134.348,246.523L159.13,250.533L183.913,323.031L208.696,134.857L233.478,194.303L258.261,81.337L283.043,202.247L307.826,245.137L332.609,181.927L357.391,193.514L382.174,202.386L406.957,331.738L431.739,229.251L456.522,207.891L481.304,184.605L506.087,179.48L530.87,185.476L555.652,220.286L580.435,188.459L605.217,278.866L630,251.385" /><path style="stroke-opacity:1" stroke-dasharray="10 0" stroke-width="1.5" stroke="#000000" fill="none" d="M60,224.01L84.783,224.01L109.565,224.01L134.348,224.01L159.13,224.01L183.913,224.01L208.696,224.01L233.478,224.01L258.261,224.01L283.043,224.01L307.826,224.01L332.609,224.01L357.391,224.01L382.174,224.01L406.957,224.01L431.739,224.01L456.522,224.01L481.304,224.01L506.087,224.01L530.87,224.01L555.652,224.01L580.435,224.01L605.217,224.01L630,224.01" /><path style="stroke-opacity:1" stroke-dasharray="10 10" stroke-width="2" stroke="#6495ED" fill="none" d="M60,354.67L84.783,354.67L109.565,354.67L134.348,354.67L159.13,354.67L183.913,354.67L208.696,354.67L233.478,354.67L258.261,354.67L283.043,354.67L307.826,354.67L332.609,354.67L357.391,354.67L382.174,354.67L406.957,354.67L431.739,354.67L456.522,354.67L481.304,354.67L506.087,354.67L530.87,354.67L555.652,354.67L580.435,354.67L605.217,354.67L630,354.67" /><path style="stroke-opacity:1" stroke-dasharray="10 10" stroke-width="2" stroke="#6495ED" fill="none" d="M60,93.35L84.783,93.35L109.565,93.35L134.348,93.35L159.13,93.35L183.913,93.35L208.696,93.35L233.478,93.35L258.261,93.35L283.043,93.35L307.826,93.35L332.609,93.35L357.391,93.35L382.174,93.35L406.957,93.35L431.739,93.35L456.522,93.35L481.304,93.35L506.087,93.35L530.87,93.35L555.652,93.35L580.435,93.35L605.217,93.35L630,93.35" /><path style="stroke-opacity:1" stroke-dasharray="2 5" stroke-width="2" stroke="#6495ED" fill="none" d="M60,311.117L84.783,311.117L109.565,311.117L134.348,311.117L159.13,311.117L183.913,311.117L208.696,311.117L233.478,311.117L258.261,311.117L283.043,311.117L307.826,311.117L332.609,311.117L357.391,311.117L382.174,311.117L406.957,311.117L431.739,311.117L456.522,311.117L481.304,311.117L506.087,311.117L530.87,311.117L555.652,311.117L580.435,311.117L605.217,311.117L630,311.117" /><path style="stroke-opacity:1" stroke-dasharray="2 5" stroke-width="2" stroke="#6495ED" fill="none" d="M60,136.904L84.783,136.904L109.565,136.904L134.348,136.904L159.13,136.904L183.913,136.904L208.696,136.904L233.478,136.904L258.261,136.904L283.043,136.904L307.826,136.904L332.609,136.904L357.391,136.904L382.174,136.904L406.957,136.904L431.739,136.904L456.522,136.904L481.304,136.904L506.087,136.904L530.87,136.904L555.652,136.904L580.435,136.904L605.217,136.904L630,136.904" /><text dy="0px" dx="10px" text-anchor="start" font-family="'Arial', sans-serif" font-size="10px" fill="#000000" y="251.38453722518068" x="630" /><text dy="0px" dx="10px" text-anchor="start" font-family="'Arial', sans-serif" font-size="10px" fill="#000000" y="224.01017427675507" x="630" /><text dy="0px" dx="10px" text-anchor="start" font-family="'Arial', sans-serif" font-size="10px" fill="#000000" y="354.6700580922516" x="630" /><text dy="0px" dx="10px" text-anchor="start" font-family="'Arial', sans-serif" font-size="10px" fill="#000000" y="93.35029046125847" x="630" /><text dy="0px" dx="10px" text-anchor="start" font-family="'Arial', sans-serif" font-size="10px" fill="#000000" y="311.11676348708613" x="630" /><text dy="0px" dx="10px" text-anchor="start" font-family="'Arial', sans-serif" font-size="10px" fill="#000000" y="136.90358506642397" x="630" /></g><g class="dotsgroup"><path style="fill:#E46C0A;stroke:#E46C0A;stroke-width:1;fill-opacity:1;stroke-opacity:1" transform="translate(60, 281.26957270382627)" d="M4,0A4,4,0,1,1,-4,0A4,4,0,1,1,4,0" /><path style="fill:#E46C0A;stroke:#E46C0A;stroke-width:1;fill-opacity:1;stroke-opacity:1" transform="translate(84.78260869565217, 271.4839607233243)" d="M4,0A4,4,0,1,1,-4,0A4,4,0,1,1,4,0" /><path style="fill:#E46C0A;stroke:#E46C0A;stroke-width:1;fill-opacity:1;stroke-opacity:1" transform="translate(109.56521739130434, 310.25976080105505)" d="M4,0A4,4,0,1,1,-4,0A4,4,0,1,1,4,0" /><path style="fill:#E46C0A;stroke:#E46C0A;stroke-width:1;fill-opacity:1;stroke-opacity:1" transform="translate(134.34782608695653, 246.52319482943392)" d="M4,0A4,4,0,1,1,-4,0A4,4,0,1,1,4,0" /><path style="fill:#E46C0A;stroke:#E46C0A;stroke-width:1;fill-opacity:1;stroke-opacity:1" transform="translate(159.1304347826087, 250.5334525690619)" d="M4,0A4,4,0,1,1,-4,0A4,4,0,1,1,4,0" /><path style="fill:#E46C0A;stroke:#E46C0A;stroke-width:1;fill-opacity:1;stroke-opacity:1" transform="translate(183.91304347826087, 323.03086856962125)" d="M4,0A4,4,0,1,1,-4,0A4,4,0,1,1,4,0" /><path style="fill:#00B0F0;stroke:#00B0F0;stroke-width:1;fill-opacity:1;stroke-opacity:1" transform="translate(208.69565217391306, 134.85707568484256)" d="M4,0A4,4,0,1,1,-4,0A4,4,0,1,1,4,0" /><path style="fill:#00B0F0;stroke:#00B0F0;stroke-width:1;fill-opacity:1;stroke-opacity:1" transform="translate(233.47826086956525, 194.3030645826471)" d="M4,0A4,4,0,1,1,-4,0A4,4,0,1,1,4,0" /><path style="fill:#00B0F0;stroke:#00B0F0;stroke-width:1;fill-opacity:1;stroke-opacity:1" transform="translate(258.2608695652174, 81.33672475891836)" d="M4,0A4,4,0,1,1,-4,0A4,4,0,1,1,4,0" /><path style="fill:#00B0F0;stroke:#00B0F0;stroke-width:1;fill-opacity:1;stroke-opacity:1" transform="translate(283.04347826086956, 202.2465005582925)" d="M4,0A4,4,0,1,1,-4,0A4,4,0,1,1,4,0" /><path style="fill:#A6A6A6;stroke:#A6A6A6;stroke-width:1;fill-opacity:1;stroke-opacity:1" transform="translate(307.82608695652175, 245.13661003297642)" d="M4,0A4,4,0,1,1,-4,0A4,4,0,1,1,4,0" /><path style="fill:#A6A6A6;stroke:#A6A6A6;stroke-width:1;fill-opacity:1;stroke-opacity:1" transform="translate(332.6086956521739, 181.92713113698585)" d="M4,0A4,4,0,1,1,-4,0A4,4,0,1,1,4,0" /><path style="fill:#A6A6A6;stroke:#A6A6A6;stroke-width:1;fill-opacity:1;stroke-opacity:1" transform="translate(357.3913043478261, 193.51401846783216)" d="M4,0A4,4,0,1,1,-4,0A4,4,0,1,1,4,0" /><path style="fill:#A6A6A6;stroke:#A6A6A6;stroke-width:1;fill-opacity:1;stroke-opacity:1" transform="translate(382.17391304347825, 202.38610118246044)" d="M4,0A4,4,0,1,1,-4,0A4,4,0,1,1,4,0" /><path style="fill:#A6A6A6;stroke:#A6A6A6;stroke-width:1;fill-opacity:1;stroke-opacity:1" transform="translate(406.95652173913044, 331.7381572809003)" d="M4,0A4,4,0,1,1,-4,0A4,4,0,1,1,4,0" /><path style="fill:#A6A6A6;stroke:#A6A6A6;stroke-width:1;fill-opacity:1;stroke-opacity:1" transform="translate(431.7391304347826, 229.25084529734576)" d="M4,0A4,4,0,1,1,-4,0A4,4,0,1,1,4,0" /><path style="fill:#00B0F0;stroke:#00B0F0;stroke-width:1;fill-opacity:1;stroke-opacity:1" transform="translate(456.52173913043475, 207.89140550840315)" d="M4,0A4,4,0,1,1,-4,0A4,4,0,1,1,4,0" /><path style="fill:#00B0F0;stroke:#00B0F0;stroke-width:1;fill-opacity:1;stroke-opacity:1" transform="translate(481.30434782608694, 184.60485090910646)" d="M4,0A4,4,0,1,1,-4,0A4,4,0,1,1,4,0" /><path style="fill:#00B0F0;stroke:#00B0F0;stroke-width:1;fill-opacity:1;stroke-opacity:1" transform="translate(506.0869565217391, 179.47953239272243)" d="M4,0A4,4,0,1,1,-4,0A4,4,0,1,1,4,0" /><path style="fill:#00B0F0;stroke:#00B0F0;stroke-width:1;fill-opacity:1;stroke-opacity:1" transform="translate(530.8695652173913, 185.47563828441554)" d="M4,0A4,4,0,1,1,-4,0A4,4,0,1,1,4,0" /><path style="fill:#00B0F0;stroke:#00B0F0;stroke-width:1;fill-opacity:1;stroke-opacity:1" transform="translate(555.6521739130435, 220.2863531435016)" d="M4,0A4,4,0,1,1,-4,0A4,4,0,1,1,4,0" /><path style="fill:#00B0F0;stroke:#00B0F0;stroke-width:1;fill-opacity:1;stroke-opacity:1" transform="translate(580.4347826086956, 188.4591813598898)" d="M4,0A4,4,0,1,1,-4,0A4,4,0,1,1,4,0" /><path style="fill:#A6A6A6;stroke:#A6A6A6;stroke-width:1;fill-opacity:1;stroke-opacity:1" transform="translate(605.2173913043478, 278.86564463937594)" d="M4,0A4,4,0,1,1,-4,0A4,4,0,1,1,4,0" /><path style="fill:#A6A6A6;stroke:#A6A6A6;stroke-width:1;fill-opacity:1;stroke-opacity:1" transform="translate(630, 251.38453722518068)" d="M4,0A4,4,0,1,1,-4,0A4,4,0,1,1,4,0" /></g><g transform="scale(0.10158730158730159) translate(5922, 0)" class="icongroup"><defs><filter userSpaceOnUse="userSpaceOnUse" filterUnits="userSpaceOnUse" height="120%" width="120%" y="-10%" x="-10%" id="fx0"><feComponentTransfer color-interpolation-filters="sRGB"><feFuncR tableValues="0 0" type="discrete" /><feFuncG tableValues="0 0" type="discrete" /><feFuncB tableValues="0 0" type="discrete" /><feFuncA intercept="0" slope="0.4" type="linear" /></feComponentTransfer><feGaussianBlur stdDeviation="1.77778 1.77778" /></filter><clipPath id="clip1"><rect height="378" width="378" y="0" x="0" /></clipPath><clipPath id="clip2"><path clip-rule="evenodd" fill-rule="evenodd" d="M189 38C105.605 38 38 105.605 38 189 38 272.395 105.605 340 189 340 272.395 340 340 272.395 340 189 340 105.605 272.395 38 189 38ZM5.63264e-06 5.63264e-06 378 5.63264e-06 378 378 5.63264e-06 378Z" /></clipPath><clipPath id="clip3"><rect height="346" width="346" y="-2" x="-2" /></clipPath></defs><g clip-path="url(#clip1)" class="commonCause"><rect fill="#FFFFFF" height="378" width="378" y="0" x="0" /><g clip-path="url(#clip2)"><g transform="translate(16 25)" filter="url(#fx0)" clip-path="url(#clip3)"><g clip-path="url(#clip4)"><path fill-rule="evenodd" fill="#FFFFFF" stroke-miterlimit="8" stroke-width="21" stroke="#A6A6A6" d="M17.47 172.83C17.47 86.9332 87.1031 17.3 173 17.3 258.897 17.3 328.53 86.9332 328.53 172.83 328.53 258.727 258.897 328.36 173 328.36 87.1031 328.36 17.47 258.727 17.47 172.83Z" /></g></g></g><path fill-rule="evenodd" fill="#FFFFFF" stroke-miterlimit="8" stroke-width="20" stroke="#A6A6A6" d="M38 189C38 105.605 105.605 38 189 38 272.395 38 340 105.605 340 189 340 272.395 272.395 340 189 340 105.605 340 38 272.395 38 189Z" /><path fill-rule="evenodd" fill="#A6A6A6" stroke-miterlimit="8" stroke-width="2.66667" stroke="#A6A6A6" d="M106.903 196.084 144.607 228.433 138.766 235.241 101.062 202.892Z" /><path fill-rule="evenodd" fill="#A6A6A6" stroke-miterlimit="8" stroke-width="2.66667" stroke="#A6A6A6" d="M146.159 218.909 179.921 159.846 187.708 164.298 153.946 223.361Z" /><path fill-rule="evenodd" fill="#A6A6A6" stroke-miterlimit="8" stroke-width="2.66667" stroke="#A6A6A6" d="M198.708 154.94 239.365 214.134 231.971 219.212 191.314 160.019Z" /><path fill-rule="evenodd" fill="#A6A6A6" stroke-miterlimit="8" stroke-width="2.66667" stroke="#A6A6A6" d="M238.825 216.117 285.383 198.784 288.512 207.19 241.954 224.523Z" /><path fill-rule="evenodd" fill="#A6A6A6" stroke-miterlimit="8" stroke-width="2.66667" stroke="#A6A6A6" d="M76.5001 195C76.5001 183.678 85.6782 174.5 97.0001 174.5 108.322 174.5 117.5 183.678 117.5 195 117.5 206.322 108.322 215.5 97.0001 215.5 85.6782 215.5 76.5001 206.322 76.5001 195Z" /><path fill-rule="evenodd" fill="#A6A6A6" stroke-miterlimit="8" stroke-width="2.66667" stroke="#A6A6A6" d="M123.5 233C123.5 221.678 132.678 212.5 144 212.5 155.322 212.5 164.5 221.678 164.5 233 164.5 244.322 155.322 253.5 144 253.5 132.678 253.5 123.5 244.322 123.5 233Z" /><path fill-rule="evenodd" fill="#A6A6A6" stroke-miterlimit="8" stroke-width="2.66667" stroke="#A6A6A6" d="M170.5 153.5C170.5 141.902 179.902 132.5 191.5 132.5 203.098 132.5 212.5 141.902 212.5 153.5 212.5 165.098 203.098 174.5 191.5 174.5 179.902 174.5 170.5 165.098 170.5 153.5Z" /><path fill-rule="evenodd" fill="#A6A6A6" stroke-miterlimit="8" stroke-width="2.66667" stroke="#A6A6A6" d="M217.5 221.5C217.5 209.902 226.902 200.5 238.5 200.5 250.098 200.5 259.5 209.902 259.5 221.5 259.5 233.098 250.098 242.5 238.5 242.5 226.902 242.5 217.5 233.098 217.5 221.5Z" /><path fill-rule="evenodd" fill="#A6A6A6" stroke-miterlimit="8" stroke-width="2.66667" stroke="#A6A6A6" d="M265.5 206.5C265.5 194.902 274.678 185.5 286 185.5 297.322 185.5 306.5 194.902 306.5 206.5 306.5 218.098 297.322 227.5 286 227.5 274.678 227.5 265.5 218.098 265.5 206.5Z" /></g></g></svg>