<svg viewBox="0 0 640 480" width="640px" height="480px" xmlns="http://www.w3.org/2000/svg"><rect x="0" y="0" width="100%" height="100%" fill="white"/><line style="stroke-opacity:0" stroke="black" stroke-width="1px" y2="445" y1="10" x2="0" x1="0" class="ttip-line-x" /><line style="stroke-opacity:0" stroke="black" stroke-width="1px" y2="0" y1="0" x2="630" x1="60" class="ttip-line-y" /><g transform="translate(0, 445)" color="#000000" text-anchor="middle" font-family="sans-serif" font-size="10" fill="none" class="xaxisgroup"><g class="xaxislabel"><text style="text-anchor:middle;font-size:10px;font-family:'Arial', sans-serif;fill:#000000" transform="translate(320, 30)" y="0" x="0" /></g><path d="M60.5,6V0.5H630.5V6" stroke="currentColor" class="domain" /><g transform="translate(60.5,0)" opacity="1" class="tick"><line y2="6" stroke="currentColor" /><text style="font-size:10px;font-family:'Arial', sans-serif;fill:#000000" text-anchor="middle" transform="rotate(0)" dy="0.71em" y="9" fill="currentColor">0</text></g><g transform="translate(133.8449141092453,0)" opacity="1" class="tick"><line y2="6" stroke="currentColor" /><text style="font-size:10px;font-family:'Arial', sans-serif;fill:#000000" text-anchor="middle" transform="rotate(0)" dy="0.71em" y="9" fill="currentColor">200</text></g><g transform="translate(207.18982821849062,0)" opacity="1" class="tick"><line y2="6" stroke="currentColor" /><text style="font-size:10px;font-family:'Arial', sans-serif;fill:#000000" text-anchor="middle" transform="rotate(0)" dy="0.71em" y="9" fill="currentColor">400</text></g><g transform="translate(280.53474232773596,0)" opacity="1" class="tick"><line y2="6" stroke="currentColor" /><text style="font-size:10px;font-family:'Arial', sans-serif;fill:#000000" text-anchor="middle" transform="rotate(0)" dy="0.71em" y="9" fill="currentColor">600</text></g><g transform="translate(353.8796564369813,0)" opacity="1" class="tick"><line y2="6" stroke="currentColor" /><text style="font-size:10px;font-family:'Arial', sans-serif;fill:#000000" text-anchor="middle" transform="rotate(0)" dy="0.71em" y="9" fill="currentColor">800</text></g><g transform="translate(427.2245705462265,0)" opacity="1" class="tick"><line y2="6" stroke="currentColor" /><text style="font-size:10px;font-family:'Arial', sans-serif;fill:#000000" text-anchor="middle" transform="rotate(0)" dy="0.71em" y="9" fill="currentColor">1,000</text></g><g transform="translate(500.5694846554719,0)" opacity="1" class="tick"><line y2="6" stroke="currentColor" /><text style="font-size:10px;font-family:'Arial', sans-serif;fill:#000000" text-anchor="middle" transform="rotate(0)" dy="0.71em" y="9" fill="currentColor">1,200</text></g><g transform="translate(573.9143987647171,0)" opacity="1" class="tick"><line y2="6" stroke="currentColor" /><text style="font-size:10px;font-family:'Arial', sans-serif;fill:#000000" text-anchor="middle" transform="rotate(0)" dy="0.71em" y="9" fill="currentColor">1,400</text></g></g><g transform="translate(60, 0)" color="#000000" text-anchor="end" font-family="sans-serif" font-size="10" fill="none" class="yaxisgroup"><g class="yaxislabel"><text style="text-anchor:middle;font-size:10px;font-family:'Arial', sans-serif;fill:#000000" transform="rotate(-90, -45, 240)" y="240" x="-45" /></g><path d="M-6,445.5H0.5V10.5H-6" stroke="currentColor" class="domain" /><g transform="translate(0,445.5)" opacity="1" class="tick"><line x2="-6" stroke="currentColor" /><text transform="rotate(0)" style="text-anchor:right;font-size:10px;font-family:'Arial', sans-serif;fill:#000000" dy="0.32em" x="-9" fill="currentColor">0.00%</text></g><g transform="translate(0,402)" opacity="1" class="tick"><line x2="-6" stroke="currentColor" /><text transform="rotate(0)" style="text-anchor:right;font-size:10px;font-family:'Arial', sans-serif;fill:#000000" dy="0.32em" x="-9" fill="currentColor">10.00%</text></g><g transform="translate(0,358.5)" opacity="1" class="tick"><line x2="-6" stroke="currentColor" /><text transform="rotate(0)" style="text-anchor:right;font-size:10px;font-family:'Arial', sans-serif;fill:#000000" dy="0.32em" x="-9" fill="currentColor">20.00%</text></g><g transform="translate(0,315)" opacity="1" class="tick"><line x2="-6" stroke="currentColor" /><text transform="rotate(0)" style="text-anchor:right;font-size:10px;font-family:'Arial', sans-serif;fill:#000000" dy="0.32em" x="-9" fill="currentColor">30.00%</text></g><g transform="translate(0,271.5)" opacity="1" class="tick"><line x2="-6" stroke="currentColor" /><text transform="rotate(0)" style="text-anchor:right;font-size:10px;font-family:'Arial', sans-serif;fill:#000000" dy="0.32em" x="-9" fill="currentColor">40.00%</text></g><g transform="translate(0,228)" opacity="1" class="tick"><line x2="-6" stroke="currentColor" /><text transform="rotate(0)" style="text-anchor:right;font-size:10px;font-family:'Arial', sans-serif;fill:#000000" dy="0.32em" x="-9" fill="currentColor">50.00%</text></g><g transform="translate(0,184.5)" opacity="1" class="tick"><line x2="-6" stroke="currentColor" /><text transform="rotate(0)" style="text-anchor:right;font-size:10px;font-family:'Arial', sans-serif;fill:#000000" dy="0.32em" x="-9" fill="currentColor">60.00%</text></g><g transform="translate(0,141.00000000000003)" opacity="1" class="tick"><line x2="-6" stroke="currentColor" /><text transform="rotate(0)" style="text-anchor:right;font-size:10px;font-family:'Arial', sans-serif;fill:#000000" dy="0.32em" x="-9" fill="currentColor">70.00%</text></g><g transform="translate(0,97.49999999999999)" opacity="1" class="tick"><line x2="-6" stroke="currentColor" /><text transform="rotate(0)" style="text-anchor:right;font-size:10px;font-family:'Arial', sans-serif;fill:#000000" dy="0.32em" x="-9" fill="currentColor">80.00%</text></g><g transform="translate(0,53.99999999999999)" opacity="1" class="tick"><line x2="-6" stroke="currentColor" /><text transform="rotate(0)" style="text-anchor:right;font-size:10px;font-family:'Arial', sans-serif;fill:#000000" dy="0.32em" x="-9" fill="currentColor">90.00%</text></g><g transform="translate(0,10.5)" opacity="1" class="tick"><line x2="-6" stroke="currentColor" /><text transform="rotate(0)" style="text-anchor:right;font-size:10px;font-family:'Arial', sans-serif;fill:#000000" dy="0.32em" x="-9" fill="currentColor">100.00%</text></g></g><g class="linesgroup"><path style="stroke-opacity:1" stroke-dasharray="10 0" stroke-width="1.5" stroke="#000000" fill="none" d="M60.367,313.365L65.549,313.365L70.73,313.365L75.912,313.365L81.094,313.365L86.276,313.365L91.458,313.365L96.639,313.365L101.821,313.365L107.003,313.365L112.185,313.365L117.367,313.365L122.549,313.365L127.73,313.365L132.912,313.365L138.094,313.365L143.276,313.365L148.458,313.365L153.639,313.365L158.821,313.365L164.003,313.365L169.185,313.365L174.367,313.365L179.549,313.365L184.73,313.365L189.912,313.365L195.094,313.365L200.276,313.365L205.458,313.365L210.639,313.365L215.821,313.365L221.003,313.365L226.185,313.365L231.367,313.365L236.549,313.365L241.73,313.365L246.912,313.365L252.094,313.365L257.276,313.365L262.458,313.365L267.639,313.365L272.821,313.365L278.003,313.365L283.185,313.365L288.367,313.365L293.549,313.365L298.73,313.365L303.912,313.365L309.094,313.365L314.276,313.365L319.458,313.365L324.639,313.365L329.821,313.365L335.003,313.365L340.185,313.365L345.367,313.365L350.549,313.365L355.73,313.365L360.912,313.365L366.094,313.365L371.276,313.365L376.458,313.365L381.639,313.365L386.821,313.365L392.003,313.365L397.185,313.365L402.367,313.365L407.549,313.365L412.73,313.365L417.912,313.365L421.59,313.365L423.094,313.365L428.276,313.365L433.458,313.365L438.639,313.365L441.027,313.365L443.821,313.365L449.003,313.365L454.185,313.365L459.367,313.365L461.197,313.365L464.549,313.365L466.698,313.365L469.73,313.365L474.912,313.365L479.166,313.365L480.094,313.365L485.276,313.365L490.458,313.365L495.639,313.365L500.821,313.365L506.003,313.365L511.185,313.365L516.367,313.365L521.549,313.365L521.706,313.365L526.73,313.365L531.912,313.365L537.094,313.365L542.276,313.365L547.458,313.365L552.639,313.365L557.821,313.365L558.012,313.365L561.679,313.365L563.003,313.365L566.813,313.365L568.185,313.365L573.367,313.365L578.182,313.365L578.549,313.365L583.73,313.365L588.912,313.365L594.094,313.365L599.276,313.365L604.458,313.365L609.639,313.365L614.821,313.365L620.003,313.365" /><path style="stroke-opacity:1" stroke-dasharray="10 10" stroke-width="2" stroke="#6495ED" fill="none" d="M65.549,430.241L70.73,407.783L75.912,394.436L81.094,385.525L86.276,379.051L91.458,374.075L96.639,370.096L101.821,366.818L107.003,364.058L112.185,361.69L117.367,359.631L122.549,357.817L127.73,356.204L132.912,354.757L138.094,353.449L143.276,352.259L148.458,351.171L153.639,350.17L158.821,349.245L164.003,348.388L169.185,347.59L174.367,346.844L179.549,346.146L184.73,345.491L189.912,344.873L195.094,344.29L200.276,343.739L205.458,343.216L210.639,342.72L215.821,342.248L221.003,341.798L226.185,341.369L231.367,340.959L236.549,340.567L241.73,340.191L246.912,339.83L252.094,339.484L257.276,339.151L262.458,338.83L267.639,338.521L272.821,338.224L278.003,337.936L283.185,337.659L288.367,337.391L293.549,337.131L298.73,336.88L303.912,336.637L309.094,336.401L314.276,336.173L319.458,335.951L324.639,335.735L329.821,335.526L335.003,335.322L340.185,335.124L345.367,334.931L350.549,334.743L355.73,334.56L360.912,334.382L366.094,334.208L371.276,334.039L376.458,333.874L381.639,333.712L386.821,333.554L392.003,333.4L397.185,333.25L402.367,333.103L407.549,332.959L412.73,332.818L417.912,332.68L421.59,332.584L423.094,332.545L428.276,332.413L433.458,332.284L438.639,332.157L441.027,332.1L443.821,332.033L449.003,331.911L454.185,331.792L459.367,331.675L461.197,331.634L464.549,331.56L466.698,331.513L469.73,331.447L474.912,331.336L479.166,331.247L480.094,331.228L485.276,331.121L490.458,331.016L495.639,330.913L500.821,330.812L506.003,330.713L511.185,330.615L516.367,330.519L521.549,330.424L521.706,330.422L526.73,330.332L531.912,330.24L537.094,330.15L542.276,330.062L547.458,329.975L552.639,329.889L557.821,329.804L558.012,329.801L561.679,329.742L563.003,329.721L566.813,329.661L568.185,329.639L573.367,329.559L578.182,329.485L578.549,329.479L583.73,329.401L588.912,329.324L594.094,329.248L599.276,329.173L604.458,329.099L609.639,329.026L614.821,328.954L620.003,328.883" /><path style="stroke-opacity:1" stroke-dasharray="10 10" stroke-width="2" stroke="#6495ED" fill="none" d="M60.367,131.489L65.549,145.085L70.73,191.677L75.912,213.741L81.094,227.146L86.276,236.362L91.458,243.185L96.639,248.493L101.821,252.772L107.003,256.315L112.185,259.31L117.367,261.884L122.549,264.128L127.73,266.105L132.912,267.866L138.094,269.445L143.276,270.873L148.458,272.171L153.639,273.359L158.821,274.451L164.003,275.459L169.185,276.394L174.367,277.263L179.549,278.075L184.73,278.835L189.912,279.548L195.094,280.219L200.276,280.852L205.458,281.451L210.639,282.018L215.821,282.556L221.003,283.068L226.185,283.555L231.367,284.019L236.549,284.463L241.73,284.888L246.912,285.294L252.094,285.684L257.276,286.058L262.458,286.417L267.639,286.763L272.821,287.096L278.003,287.416L283.185,287.726L288.367,288.024L293.549,288.313L298.73,288.592L303.912,288.862L309.094,289.123L314.276,289.376L319.458,289.622L324.639,289.86L329.821,290.092L335.003,290.316L340.185,290.534L345.367,290.747L350.549,290.953L355.73,291.154L360.912,291.35L366.094,291.54L371.276,291.726L376.458,291.907L381.639,292.084L386.821,292.257L392.003,292.425L397.185,292.589L402.367,292.75L407.549,292.907L412.73,293.061L417.912,293.211L421.59,293.315L423.094,293.357L428.276,293.501L433.458,293.642L438.639,293.78L441.027,293.842L443.821,293.915L449.003,294.047L454.185,294.176L459.367,294.303L461.197,294.348L464.549,294.428L466.698,294.479L469.73,294.55L474.912,294.67L479.166,294.766L480.094,294.787L485.276,294.903L490.458,295.016L495.639,295.127L500.821,295.236L506.003,295.344L511.185,295.449L516.367,295.553L521.549,295.655L521.706,295.658L526.73,295.755L531.912,295.853L537.094,295.95L542.276,296.045L547.458,296.139L552.639,296.231L557.821,296.322L558.012,296.326L561.679,296.389L563.003,296.412L566.813,296.476L568.185,296.5L573.367,296.586L578.182,296.666L578.549,296.672L583.73,296.756L588.912,296.838L594.094,296.92L599.276,297L604.458,297.08L609.639,297.158L614.821,297.235L620.003,297.31" /><path style="stroke-opacity:1" stroke-dasharray="2 5" stroke-width="2" stroke="#6495ED" fill="none" d="M65.549,399.179L70.73,378.623L75.912,368.178L81.094,361.583L86.276,356.932L91.458,353.423L96.639,350.653L101.821,348.394L107.003,346.505L112.185,344.895L117.367,343.5L122.549,342.278L127.73,341.194L132.912,340.225L138.094,339.351L143.276,338.558L148.458,337.834L153.639,337.169L158.821,336.557L164.003,335.989L169.185,335.462L174.367,334.97L179.549,334.51L184.73,334.078L189.912,333.672L195.094,333.289L200.276,332.927L205.458,332.584L210.639,332.259L215.821,331.95L221.003,331.655L226.185,331.374L231.367,331.106L236.549,330.85L241.73,330.604L246.912,330.369L252.094,330.143L257.276,329.926L262.458,329.717L267.639,329.515L272.821,329.322L278.003,329.135L283.185,328.954L288.367,328.78L293.549,328.611L298.73,328.448L303.912,328.29L309.094,328.136L314.276,327.988L319.458,327.844L324.639,327.704L329.821,327.568L335.003,327.436L340.185,327.307L345.367,327.182L350.549,327.061L355.73,326.942L360.912,326.827L366.094,326.714L371.276,326.604L376.458,326.497L381.639,326.393L386.821,326.291L392.003,326.191L397.185,326.094L402.367,325.998L407.549,325.905L412.73,325.814L417.912,325.725L421.59,325.663L423.094,325.638L428.276,325.553L433.458,325.469L438.639,325.387L441.027,325.35L443.821,325.307L449.003,325.228L454.185,325.151L459.367,325.075L461.197,325.049L464.549,325.001L466.698,324.971L469.73,324.928L474.912,324.857L479.166,324.799L480.094,324.787L485.276,324.718L490.458,324.65L495.639,324.584L500.821,324.519L506.003,324.455L511.185,324.392L516.367,324.33L521.549,324.269L521.706,324.267L526.73,324.209L531.912,324.15L537.094,324.092L542.276,324.035L547.458,323.979L552.639,323.923L557.821,323.869L558.012,323.867L561.679,323.829L563.003,323.816L566.813,323.777L568.185,323.763L573.367,323.711L578.182,323.663L578.549,323.66L583.73,323.609L588.912,323.559L594.094,323.511L599.276,323.462L604.458,323.415L609.639,323.368L614.821,323.321L620.003,323.276" /><path style="stroke-opacity:1" stroke-dasharray="2 5" stroke-width="2" stroke="#6495ED" fill="none" d="M60.367,10.03L65.549,206.208L70.73,236.957L75.912,251.006L81.094,259.444L86.276,265.215L91.458,269.476L96.639,272.786L101.821,275.452L107.003,277.658L112.185,279.523L117.367,281.126L122.549,282.522L127.73,283.753L132.912,284.849L138.094,285.833L143.276,286.722L148.458,287.531L153.639,288.271L158.821,288.951L164.003,289.579L169.185,290.162L174.367,290.704L179.549,291.21L184.73,291.683L189.912,292.128L195.094,292.547L200.276,292.942L205.458,293.315L210.639,293.669L215.821,294.005L221.003,294.324L226.185,294.629L231.367,294.919L236.549,295.196L241.73,295.461L246.912,295.715L252.094,295.958L257.276,296.192L262.458,296.417L267.639,296.633L272.821,296.841L278.003,297.041L283.185,297.235L288.367,297.421L293.549,297.602L298.73,297.776L303.912,297.945L309.094,298.109L314.276,298.267L319.458,298.421L324.639,298.57L329.821,298.714L335.003,298.855L340.185,298.991L345.367,299.124L350.549,299.254L355.73,299.379L360.912,299.502L366.094,299.621L371.276,299.738L376.458,299.851L381.639,299.962L386.821,300.07L392.003,300.175L397.185,300.278L402.367,300.379L407.549,300.477L412.73,300.573L417.912,300.667L421.59,300.733L423.094,300.759L428.276,300.849L433.458,300.938L438.639,301.024L441.027,301.063L443.821,301.108L449.003,301.191L454.185,301.272L459.367,301.352L461.197,301.38L464.549,301.43L466.698,301.462L469.73,301.507L474.912,301.582L479.166,301.642L480.094,301.656L485.276,301.728L490.458,301.799L495.639,301.869L500.821,301.937L506.003,302.005L511.185,302.071L516.367,302.136L521.549,302.2L521.706,302.201L526.73,302.262L531.912,302.324L537.094,302.385L542.276,302.445L547.458,302.503L552.639,302.561L557.821,302.618L558.012,302.62L561.679,302.66L563.003,302.674L566.813,302.715L568.185,302.73L573.367,302.784L578.182,302.834L578.549,302.837L583.73,302.89L588.912,302.942L594.094,302.993L599.276,303.044L604.458,303.094L609.639,303.143L614.821,303.191L620.003,303.239" /><text dy="0px" dx="10px" text-anchor="start" font-family="'Arial', sans-serif" font-size="10px" fill="#000000" y="313.3651551312649" x="620.0030882069111" /><text dy="0px" dx="10px" text-anchor="start" font-family="'Arial', sans-serif" font-size="10px" fill="#000000" y="328.8831509018172" x="620.0030882069111" /><text dy="0px" dx="10px" text-anchor="start" font-family="'Arial', sans-serif" font-size="10px" fill="#000000" y="297.3104706444694" x="620.0030882069111" /><text dy="0px" dx="10px" text-anchor="start" font-family="'Arial', sans-serif" font-size="10px" fill="#000000" y="323.2758222654736" x="620.0030882069111" /><text dy="0px" dx="10px" text-anchor="start" font-family="'Arial', sans-serif" font-size="10px" fill="#000000" y="303.23852881086646" x="620.0030882069111" /></g><g class="dotsgroup"><g style="fill-opacity:1;stroke-opacity:1" class="dotsgroup-child"><path style="fill:#A6A6A6;stroke:#A6A6A6;stroke-width:1" transform="translate(578.1818181818181, 314.77707006369434)" d="M4,0A4,4,0,1,1,-4,0A4,4,0,1,1,4,0" /></g><g style="fill-opacity:1;stroke-opacity:1" class="dotsgroup-child"><path style="fill:#A6A6A6;stroke:#A6A6A6;stroke-width:1" transform="translate(421.5904265585794, 309.55882352941177)" d="M4,0A4,4,0,1,1,-4,0A4,4,0,1,1,4,0" /></g><g style="fill-opacity:1;stroke-opacity:1" class="dotsgroup-child"><path style="fill:#A6A6A6;stroke:#A6A6A6;stroke-width:1" transform="translate(479.16618413433696, 313.7007874015748)" d="M4,0A4,4,0,1,1,-4,0A4,4,0,1,1,4,0" /></g><g style="fill-opacity:1;stroke-opacity:1" class="dotsgroup-child"><path style="fill:#A6A6A6;stroke:#A6A6A6;stroke-width:1" transform="translate(521.7062343176992, 313.3598093725179)" d="M4,0A4,4,0,1,1,-4,0A4,4,0,1,1,4,0" /></g><g style="fill-opacity:1;stroke-opacity:1" class="dotsgroup-child"><path style="fill:#A6A6A6;stroke:#A6A6A6;stroke-width:1" transform="translate(566.813356494885, 318.1512301013024)" d="M4,0A4,4,0,1,1,-4,0A4,4,0,1,1,4,0" /></g><g style="fill-opacity:1;stroke-opacity:1" class="dotsgroup-child"><path style="fill:#A6A6A6;stroke:#A6A6A6;stroke-width:1" transform="translate(558.0119668017758, 313.98748159057436)" d="M4,0A4,4,0,1,1,-4,0A4,4,0,1,1,4,0" /></g><g style="fill-opacity:1;stroke-opacity:1" class="dotsgroup-child"><path style="fill:#A6A6A6;stroke:#A6A6A6;stroke-width:1" transform="translate(466.6975487357652, 305.36068530207393)" d="M4,0A4,4,0,1,1,-4,0A4,4,0,1,1,4,0" /></g><g style="fill-opacity:1;stroke-opacity:1" class="dotsgroup-child"><path style="fill:#A6A6A6;stroke:#A6A6A6;stroke-width:1" transform="translate(461.1966801775718, 317.3628884826325)" d="M4,0A4,4,0,1,1,-4,0A4,4,0,1,1,4,0" /></g><g style="fill-opacity:1;stroke-opacity:1" class="dotsgroup-child"><path style="fill:#A6A6A6;stroke:#A6A6A6;stroke-width:1" transform="translate(441.0268287975294, 312.2810394610202)" d="M4,0A4,4,0,1,1,-4,0A4,4,0,1,1,4,0" /></g><g style="fill-opacity:1;stroke-opacity:1" class="dotsgroup-child"><path style="fill:#A6A6A6;stroke:#A6A6A6;stroke-width:1" transform="translate(561.6792125072379, 313.0372807017544)" d="M4,0A4,4,0,1,1,-4,0A4,4,0,1,1,4,0" /></g></g></svg>