<svg viewBox="0 0 640 400" width="640px" height="400px" xmlns="http://www.w3.org/2000/svg"><rect x="0" y="0" width="100%" height="100%" fill="white"/><line style="stroke-opacity:0" stroke="black" stroke-width="1px" y2="390" y1="10" x2="0" x1="0" class="ttip-line-x" /><line style="stroke-opacity:0" stroke="black" stroke-width="1px" y2="0" y1="0" x2="630" x1="60" class="ttip-line-y" /><g transform="translate(0, 390)" color="#000000" text-anchor="middle" font-family="sans-serif" font-size="10" fill="none" class="xaxisgroup"><g class="xaxislabel"><text style="text-anchor:middle;font-size:10px;font-family:'Arial', sans-serif;fill:#000000" transform="translate(320, 5)" y="0" x="0" /></g><path d="M60.5,6V0.5H630.5V6" stroke="currentColor" class="domain" /><g transform="translate(60.5,0)" opacity="1" class="tick"><line y2="6" stroke="currentColor" /><text style="font-size:10px;font-family:'Arial', sans-serif;fill:#000000" text-anchor="middle" transform="rotate(0)" dy="0.71em" y="9" fill="currentColor">0</text></g><g transform="translate(113.10729118597139,0)" opacity="1" class="tick"><line y2="6" stroke="currentColor" /><text style="font-size:10px;font-family:'Arial', sans-serif;fill:#000000" text-anchor="middle" transform="rotate(0)" dy="0.71em" y="9" fill="currentColor">20</text></g><g transform="translate(165.71458237194278,0)" opacity="1" class="tick"><line y2="6" stroke="currentColor" /><text style="font-size:10px;font-family:'Arial', sans-serif;fill:#000000" text-anchor="middle" transform="rotate(0)" dy="0.71em" y="9" fill="currentColor">40</text></g><g transform="translate(218.32187355791416,0)" opacity="1" class="tick"><line y2="6" stroke="currentColor" /><text style="font-size:10px;font-family:'Arial', sans-serif;fill:#000000" text-anchor="middle" transform="rotate(0)" dy="0.71em" y="9" fill="currentColor">60</text></g><g transform="translate(270.92916474388556,0)" opacity="1" class="tick"><line y2="6" stroke="currentColor" /><text style="font-size:10px;font-family:'Arial', sans-serif;fill:#000000" text-anchor="middle" transform="rotate(0)" dy="0.71em" y="9" fill="currentColor">80</text></g><g transform="translate(323.5364559298569,0)" opacity="1" class="tick"><line y2="6" stroke="currentColor" /><text style="font-size:10px;font-family:'Arial', sans-serif;fill:#000000" text-anchor="middle" transform="rotate(0)" dy="0.71em" y="9" fill="currentColor">100</text></g><g transform="translate(376.1437471158283,0)" opacity="1" class="tick"><line y2="6" stroke="currentColor" /><text style="font-size:10px;font-family:'Arial', sans-serif;fill:#000000" text-anchor="middle" transform="rotate(0)" dy="0.71em" y="9" fill="currentColor">120</text></g><g transform="translate(428.7510383017997,0)" opacity="1" class="tick"><line y2="6" stroke="currentColor" /><text style="font-size:10px;font-family:'Arial', sans-serif;fill:#000000" text-anchor="middle" transform="rotate(0)" dy="0.71em" y="9" fill="currentColor">140</text></g><g transform="translate(481.35832948777113,0)" opacity="1" class="tick"><line y2="6" stroke="currentColor" /><text style="font-size:10px;font-family:'Arial', sans-serif;fill:#000000" text-anchor="middle" transform="rotate(0)" dy="0.71em" y="9" fill="currentColor">160</text></g><g transform="translate(533.9656206737425,0)" opacity="1" class="tick"><line y2="6" stroke="currentColor" /><text style="font-size:10px;font-family:'Arial', sans-serif;fill:#000000" text-anchor="middle" transform="rotate(0)" dy="0.71em" y="9" fill="currentColor">180</text></g><g transform="translate(586.5729118597138,0)" opacity="1" class="tick"><line y2="6" stroke="currentColor" /><text style="font-size:10px;font-family:'Arial', sans-serif;fill:#000000" text-anchor="middle" transform="rotate(0)" dy="0.71em" y="9" fill="currentColor">200</text></g></g><g transform="translate(60, 0)" color="#000000" text-anchor="end" font-family="sans-serif" font-size="10" fill="none" class="yaxisgroup"><g class="yaxislabel"><text style="text-anchor:middle;font-size:10px;font-family:'Arial', sans-serif;fill:#000000" transform="rotate(-90, -45, 200)" y="200" x="-45" /></g><path d="M-6,390.5H0.5V10.5H-6" stroke="currentColor" class="domain" /><g transform="translate(0,390.5)" opacity="1" class="tick"><line x2="-6" stroke="currentColor" /><text transform="rotate(0)" style="text-anchor:right;font-size:10px;font-family:'Arial', sans-serif;fill:#000000" dy="0.32em" x="-9" fill="currentColor">0.00%</text></g><g transform="translate(0,359.10869565217394)" opacity="1" class="tick"><line x2="-6" stroke="currentColor" /><text transform="rotate(0)" style="text-anchor:right;font-size:10px;font-family:'Arial', sans-serif;fill:#000000" dy="0.32em" x="-9" fill="currentColor">2.00%</text></g><g transform="translate(0,327.7173913043478)" opacity="1" class="tick"><line x2="-6" stroke="currentColor" /><text transform="rotate(0)" style="text-anchor:right;font-size:10px;font-family:'Arial', sans-serif;fill:#000000" dy="0.32em" x="-9" fill="currentColor">4.00%</text></g><g transform="translate(0,296.3260869565217)" opacity="1" class="tick"><line x2="-6" stroke="currentColor" /><text transform="rotate(0)" style="text-anchor:right;font-size:10px;font-family:'Arial', sans-serif;fill:#000000" dy="0.32em" x="-9" fill="currentColor">6.00%</text></g><g transform="translate(0,264.9347826086956)" opacity="1" class="tick"><line x2="-6" stroke="currentColor" /><text transform="rotate(0)" style="text-anchor:right;font-size:10px;font-family:'Arial', sans-serif;fill:#000000" dy="0.32em" x="-9" fill="currentColor">8.00%</text></g><g transform="translate(0,233.54347826086953)" opacity="1" class="tick"><line x2="-6" stroke="currentColor" /><text transform="rotate(0)" style="text-anchor:right;font-size:10px;font-family:'Arial', sans-serif;fill:#000000" dy="0.32em" x="-9" fill="currentColor">10.00%</text></g><g transform="translate(0,202.15217391304347)" opacity="1" class="tick"><line x2="-6" stroke="currentColor" /><text transform="rotate(0)" style="text-anchor:right;font-size:10px;font-family:'Arial', sans-serif;fill:#000000" dy="0.32em" x="-9" fill="currentColor">12.00%</text></g><g transform="translate(0,170.7608695652174)" opacity="1" class="tick"><line x2="-6" stroke="currentColor" /><text transform="rotate(0)" style="text-anchor:right;font-size:10px;font-family:'Arial', sans-serif;fill:#000000" dy="0.32em" x="-9" fill="currentColor">14.00%</text></g><g transform="translate(0,139.36956521739128)" opacity="1" class="tick"><line x2="-6" stroke="currentColor" /><text transform="rotate(0)" style="text-anchor:right;font-size:10px;font-family:'Arial', sans-serif;fill:#000000" dy="0.32em" x="-9" fill="currentColor">16.00%</text></g><g transform="translate(0,107.9782608695652)" opacity="1" class="tick"><line x2="-6" stroke="currentColor" /><text transform="rotate(0)" style="text-anchor:right;font-size:10px;font-family:'Arial', sans-serif;fill:#000000" dy="0.32em" x="-9" fill="currentColor">18.00%</text></g><g transform="translate(0,76.58695652173913)" opacity="1" class="tick"><line x2="-6" stroke="currentColor" /><text transform="rotate(0)" style="text-anchor:right;font-size:10px;font-family:'Arial', sans-serif;fill:#000000" dy="0.32em" x="-9" fill="currentColor">20.00%</text></g><g transform="translate(0,45.19565217391301)" opacity="1" class="tick"><line x2="-6" stroke="currentColor" /><text transform="rotate(0)" style="text-anchor:right;font-size:10px;font-family:'Arial', sans-serif;fill:#000000" dy="0.32em" x="-9" fill="currentColor">22.00%</text></g><g transform="translate(0,13.80434782608694)" opacity="1" class="tick"><line x2="-6" stroke="currentColor" /><text transform="rotate(0)" style="text-anchor:right;font-size:10px;font-family:'Arial', sans-serif;fill:#000000" dy="0.32em" x="-9" fill="currentColor">24.00%</text></g></g><g class="linesgroup"><path style="stroke-opacity:1" stroke-dasharray="10 0" stroke-width="1.5" stroke="#000000" fill="none" d="M62.63,83.107L67.812,83.107L72.994,83.107L78.176,83.107L83.358,83.107L88.539,83.107L93.721,83.107L98.903,83.107L104.085,83.107L109.267,83.107L114.449,83.107L119.63,83.107L124.812,83.107L129.994,83.107L135.176,83.107L140.358,83.107L145.539,83.107L150.721,83.107L155.903,83.107L161.085,83.107L166.267,83.107L171.449,83.107L176.63,83.107L181.812,83.107L186.994,83.107L192.176,83.107L197.358,83.107L202.539,83.107L207.721,83.107L212.903,83.107L218.085,83.107L223.267,83.107L228.449,83.107L233.63,83.107L238.812,83.107L243.994,83.107L249.176,83.107L254.358,83.107L259.539,83.107L264.721,83.107L269.903,83.107L275.085,83.107L280.267,83.107L285.449,83.107L290.63,83.107L295.812,83.107L300.994,83.107L306.176,83.107L311.358,83.107L316.539,83.107L321.721,83.107L326.903,83.107L332.085,83.107L336.188,83.107L337.267,83.107L342.449,83.107L347.63,83.107L352.812,83.107L357.994,83.107L363.176,83.107L368.358,83.107L373.539,83.107L378.274,83.107L378.721,83.107L380.904,83.107L383.903,83.107L389.085,83.107L394.267,83.107L399.449,83.107L404.63,83.107L409.812,83.107L414.994,83.107L420.176,83.107L420.36,83.107L425.358,83.107L430.539,83.107L435.721,83.107L440.903,83.107L446.085,83.107L451.267,83.107L456.449,83.107L461.63,83.107L466.812,83.107L471.994,83.107L477.176,83.107L482.358,83.107L483.489,83.107L487.539,83.107L492.721,83.107L497.903,83.107L503.085,83.107L507.162,83.107L508.267,83.107L513.449,83.107L518.63,83.107L523.812,83.107L528.205,83.107L528.994,83.107L534.176,83.107L539.358,83.107L543.987,83.107L544.539,83.107L549.721,83.107L554.903,83.107L559.769,83.107L560.085,83.107L565.267,83.107L570.449,83.107L575.63,83.107L578.182,83.107L580.812,83.107L585.994,83.107L591.176,83.107L596.358,83.107L601.539,83.107L606.721,83.107L611.903,83.107L617.085,83.107L622.267,83.107" /><path style="stroke-opacity:1" stroke-dasharray="10 10" stroke-width="2" stroke="#6495ED" fill="none" d="M88.539,389.808L93.721,388.898L98.903,385.037L104.085,379.822L109.267,374.039L114.449,368.09L119.63,362.185L124.812,356.436L129.994,350.896L135.176,345.591L140.358,340.527L145.539,335.702L150.721,331.108L155.903,326.734L161.085,322.567L166.267,318.597L171.449,314.809L176.63,311.194L181.812,307.738L186.994,304.433L192.176,301.269L197.358,298.235L202.539,295.325L207.721,292.53L212.903,289.844L218.085,287.259L223.267,284.769L228.449,282.37L233.63,280.056L238.812,277.821L243.994,275.663L249.176,273.575L254.358,271.556L259.539,269.601L264.721,267.706L269.903,265.87L275.085,264.088L280.267,262.359L285.449,260.679L290.63,259.047L295.812,257.46L300.994,255.916L306.176,254.414L311.358,252.951L316.539,251.526L321.721,250.137L326.903,248.782L332.085,247.461L336.188,246.438L337.267,246.172L342.449,244.914L347.63,243.685L352.812,242.484L357.994,241.31L363.176,240.163L368.358,239.041L373.539,237.943L378.274,236.961L378.721,236.869L380.904,236.423L383.903,235.817L389.085,234.787L394.267,233.779L399.449,232.79L404.63,231.822L409.812,230.872L414.994,229.941L420.176,229.028L420.36,228.996L425.358,228.132L430.539,227.252L435.721,226.389L440.903,225.542L446.085,224.71L451.267,223.892L456.449,223.089L461.63,222.3L466.812,221.525L471.994,220.762L477.176,220.013L482.358,219.276L483.489,219.116L487.539,218.551L492.721,217.837L497.903,217.135L503.085,216.445L507.162,215.909L508.267,215.765L513.449,215.095L518.63,214.436L523.812,213.787L528.205,213.245L528.994,213.148L534.176,212.518L539.358,211.897L543.987,211.351L544.539,211.286L549.721,210.683L554.903,210.089L559.769,209.539L560.085,209.504L565.267,208.927L570.449,208.357L575.63,207.796L578.182,207.522L580.812,207.242L585.994,206.696L591.176,206.157L596.358,205.625L601.539,205.1L606.721,204.582L611.903,204.071L617.085,203.566L622.267,203.068" /><path style="stroke-opacity:1" stroke-dasharray="10 10" stroke-width="2" stroke="#6495ED" fill="none" /><path style="stroke-opacity:1" stroke-dasharray="2 5" stroke-width="2" stroke="#6495ED" fill="none" d="M72.994,389.54L78.176,378.626L83.358,363.956L88.539,349.903L93.721,337.269L98.903,326.072L104.085,316.146L109.267,307.309L114.449,299.393L119.63,292.259L124.812,285.791L129.994,279.894L135.176,274.491L140.358,269.518L145.539,264.921L150.721,260.655L155.903,256.682L161.085,252.97L166.267,249.493L171.449,246.225L176.63,243.148L181.812,240.242L186.994,237.493L192.176,234.887L197.358,232.412L202.539,230.057L207.721,227.813L212.903,225.672L218.085,223.624L223.267,221.665L228.449,219.788L233.63,217.986L238.812,216.256L243.994,214.593L249.176,212.991L254.358,211.448L259.539,209.961L264.721,208.524L269.903,207.137L275.085,205.796L280.267,204.499L285.449,203.242L290.63,202.025L295.812,200.845L300.994,199.7L306.176,198.589L311.358,197.509L316.539,196.46L321.721,195.44L326.903,194.448L332.085,193.482L336.188,192.735L337.267,192.541L342.449,191.624L347.63,190.731L352.812,189.859L357.994,189.009L363.176,188.18L368.358,187.37L373.539,186.579L378.274,185.871L378.721,185.805L380.904,185.485L383.903,185.05L389.085,184.311L394.267,183.588L399.449,182.881L404.63,182.189L409.812,181.511L414.994,180.848L420.176,180.198L420.36,180.175L425.358,179.56L430.539,178.936L435.721,178.324L440.903,177.723L446.085,177.134L451.267,176.556L456.449,175.989L461.63,175.432L466.812,174.886L471.994,174.349L477.176,173.821L482.358,173.303L483.489,173.191L487.539,172.794L492.721,172.293L497.903,171.801L503.085,171.317L507.162,170.942L508.267,170.841L513.449,170.373L518.63,169.912L523.812,169.459L528.205,169.08L528.994,169.012L534.176,168.573L539.358,168.141L543.987,167.76L544.539,167.715L549.721,167.296L554.903,166.882L559.769,166.5L560.085,166.475L565.267,166.074L570.449,165.679L575.63,165.29L578.182,165.1L580.812,164.906L585.994,164.527L591.176,164.154L596.358,163.786L601.539,163.423L606.721,163.065L611.903,162.712L617.085,162.363L622.267,162.019" /><path style="stroke-opacity:1" stroke-dasharray="2 5" stroke-width="2" stroke="#6495ED" fill="none" /><text dy="0px" dx="10px" text-anchor="start" font-family="'Arial', sans-serif" font-size="10px" fill="#000000" y="83.10737602444783" x="622.2667281956619" /><text dy="0px" dx="10px" text-anchor="start" font-family="'Arial', sans-serif" font-size="10px" fill="#000000" y="203.06785914198" x="622.2667281956619" /><text dy="0px" dx="10px" text-anchor="start" font-family="'Arial', sans-serif" font-size="10px" fill="#000000" y="-58.12305043961472" x="622.2667281956619" /><text dy="0px" dx="10px" text-anchor="start" font-family="'Arial', sans-serif" font-size="10px" fill="#000000" y="162.019476950745" x="622.2667281956619" /><text dy="0px" dx="10px" text-anchor="start" font-family="'Arial', sans-serif" font-size="10px" fill="#000000" y="-4.379982685230139" x="622.2667281956619" /></g><g class="dotsgroup"><g style="fill-opacity:1;stroke-opacity:1" class="dotsgroup-child"><path style="fill:#A6A6A6;stroke:#A6A6A6;stroke-width:1" transform="translate(507.16197508075675, 140.71611253196932)" d="M2.5,0A2.5,2.5,0,1,1,-2.5,0A2.5,2.5,0,1,1,2.5,0" /></g><g style="fill-opacity:1;stroke-opacity:1" class="dotsgroup-child"><path style="fill:#A6A6A6;stroke:#A6A6A6;stroke-width:1" transform="translate(380.9044762344255, 94.09836065573768)" d="M2.5,0A2.5,2.5,0,1,1,-2.5,0A2.5,2.5,0,1,1,2.5,0" /></g><g style="fill-opacity:1;stroke-opacity:1" class="dotsgroup-child"><path style="fill:#A6A6A6;stroke:#A6A6A6;stroke-width:1" transform="translate(528.2048915551453, 81.3776257938446)" d="M2.5,0A2.5,2.5,0,1,1,-2.5,0A2.5,2.5,0,1,1,2.5,0" /></g><g style="fill-opacity:1;stroke-opacity:1" class="dotsgroup-child"><path style="fill:#A6A6A6;stroke:#A6A6A6;stroke-width:1" transform="translate(543.9870789109368, 168.21361058601136)" d="M2.5,0A2.5,2.5,0,1,1,-2.5,0A2.5,2.5,0,1,1,2.5,0" /></g><g style="fill-opacity:1;stroke-opacity:1" class="dotsgroup-child"><path style="fill:#A6A6A6;stroke:#A6A6A6;stroke-width:1" transform="translate(483.4886940470697, 19.543613286524426)" d="M2.5,0A2.5,2.5,0,1,1,-2.5,0A2.5,2.5,0,1,1,2.5,0" /></g><g style="fill-opacity:1;stroke-opacity:1" class="dotsgroup-child"><path style="fill:#A6A6A6;stroke:#A6A6A6;stroke-width:1" transform="translate(336.1882787263498, 61.13871635610766)" d="M2.5,0A2.5,2.5,0,1,1,-2.5,0A2.5,2.5,0,1,1,2.5,0" /></g><g style="fill-opacity:1;stroke-opacity:1" class="dotsgroup-child"><path style="fill:#A6A6A6;stroke:#A6A6A6;stroke-width:1" transform="translate(559.7692662667282, 10)" d="M2.5,0A2.5,2.5,0,1,1,-2.5,0A2.5,2.5,0,1,1,2.5,0" /></g><g style="fill-opacity:1;stroke-opacity:1" class="dotsgroup-child"><path style="fill:#A6A6A6;stroke:#A6A6A6;stroke-width:1" transform="translate(378.2741116751269, 39.76643909450232)" d="M2.5,0A2.5,2.5,0,1,1,-2.5,0A2.5,2.5,0,1,1,2.5,0" /></g><g style="fill-opacity:1;stroke-opacity:1" class="dotsgroup-child"><path style="fill:#A6A6A6;stroke:#A6A6A6;stroke-width:1" transform="translate(420.35994462390397, 80.66962868930496)" d="M2.5,0A2.5,2.5,0,1,1,-2.5,0A2.5,2.5,0,1,1,2.5,0" /></g><g style="fill-opacity:1;stroke-opacity:1" class="dotsgroup-child"><path style="fill:#A6A6A6;stroke:#A6A6A6;stroke-width:1" transform="translate(578.1818181818182, 111.14323548885454)" d="M2.5,0A2.5,2.5,0,1,1,-2.5,0A2.5,2.5,0,1,1,2.5,0" /></g></g></svg>