<svg viewBox="0 0 640 400" width="640px" height="400px" xmlns="http://www.w3.org/2000/svg"><rect x="0" y="0" width="100%" height="100%" fill="white"/><line style="stroke-opacity:0" class="ttip-line-x" x1="0" x2="0" y1="10" y2="400" stroke-width="1px" stroke="black" /><line style="stroke-opacity:0" class="ttip-line-y" x1="100" x2="590" y1="0" y2="0" stroke-width="1px" stroke="black" /><g class="xaxisgroup" fill="none" font-size="10" font-family="sans-serif" text-anchor="middle" color="#000000" transform="translate(0, 400)"><g class="xaxislabel"><text style="text-anchor:middle;font-size:10px;font-family:'Arial', sans-serif;fill:#000000" x="0" y="0" transform="translate(320, -5)" /></g><path class="domain" stroke="currentColor" d="M100.5,6V0.5H590.5V6" /><g class="tick" opacity="1" transform="translate(100.5,0)"><line stroke="currentColor" y2="6" /><text style="font-size:10px;font-family:'Arial', sans-serif;fill:#000000" fill="currentColor" y="9" dy="0.71em" transform="rotate(0)" text-anchor="middle">0</text></g><g class="tick" opacity="1" transform="translate(146.90151515151516,0)"><line stroke="currentColor" y2="6" /><text style="font-size:10px;font-family:'Arial', sans-serif;fill:#000000" fill="currentColor" y="9" dy="0.71em" transform="rotate(0)" text-anchor="middle">10</text></g><g class="tick" opacity="1" transform="translate(193.3030303030303,0)"><line stroke="currentColor" y2="6" /><text style="font-size:10px;font-family:'Arial', sans-serif;fill:#000000" fill="currentColor" y="9" dy="0.71em" transform="rotate(0)" text-anchor="middle">20</text></g><g class="tick" opacity="1" transform="translate(239.70454545454544,0)"><line stroke="currentColor" y2="6" /><text style="font-size:10px;font-family:'Arial', sans-serif;fill:#000000" fill="currentColor" y="9" dy="0.71em" transform="rotate(0)" text-anchor="middle">30</text></g><g class="tick" opacity="1" transform="translate(286.1060606060606,0)"><line stroke="currentColor" y2="6" /><text style="font-size:10px;font-family:'Arial', sans-serif;fill:#000000" fill="currentColor" y="9" dy="0.71em" transform="rotate(0)" text-anchor="middle">40</text></g><g class="tick" opacity="1" transform="translate(332.50757575757575,0)"><line stroke="currentColor" y2="6" /><text style="font-size:10px;font-family:'Arial', sans-serif;fill:#000000" fill="currentColor" y="9" dy="0.71em" transform="rotate(0)" text-anchor="middle">50</text></g><g class="tick" opacity="1" transform="translate(378.9090909090909,0)"><line stroke="currentColor" y2="6" /><text style="font-size:10px;font-family:'Arial', sans-serif;fill:#000000" fill="currentColor" y="9" dy="0.71em" transform="rotate(0)" text-anchor="middle">60</text></g><g class="tick" opacity="1" transform="translate(425.310606060606,0)"><line stroke="currentColor" y2="6" /><text style="font-size:10px;font-family:'Arial', sans-serif;fill:#000000" fill="currentColor" y="9" dy="0.71em" transform="rotate(0)" text-anchor="middle">70</text></g><g class="tick" opacity="1" transform="translate(471.7121212121212,0)"><line stroke="currentColor" y2="6" /><text style="font-size:10px;font-family:'Arial', sans-serif;fill:#000000" fill="currentColor" y="9" dy="0.71em" transform="rotate(0)" text-anchor="middle">80</text></g><g class="tick" opacity="1" transform="translate(518.1136363636364,0)"><line stroke="currentColor" y2="6" /><text style="font-size:10px;font-family:'Arial', sans-serif;fill:#000000" fill="currentColor" y="9" dy="0.71em" transform="rotate(0)" text-anchor="middle">90</text></g><g class="tick" opacity="1" transform="translate(564.5151515151514,0)"><line stroke="currentColor" y2="6" /><text style="font-size:10px;font-family:'Arial', sans-serif;fill:#000000" fill="currentColor" y="9" dy="0.71em" transform="rotate(0)" text-anchor="middle">100</text></g></g><g class="yaxisgroup" fill="none" font-size="10" font-family="sans-serif" text-anchor="end" color="#000000" transform="translate(100, 0)"><g class="yaxislabel"><text style="text-anchor:middle;font-size:10px;font-family:'Arial', sans-serif;fill:#000000" x="-85" y="200" transform="rotate(-90, -85, 200)" /></g><path class="domain" stroke="currentColor" d="M-6,400.5H0.5V10.5H-6" /><g class="tick" opacity="1" transform="translate(0,400.5)"><line stroke="currentColor" x2="-6" /><text style="text-anchor:right;font-size:10px;font-family:'Arial', sans-serif;fill:#000000" fill="currentColor" x="-9" dy="0.32em" transform="rotate(0)">0.00%</text></g><g class="tick" opacity="1" transform="translate(0,355.43333333333334)"><line stroke="currentColor" x2="-6" /><text style="text-anchor:right;font-size:10px;font-family:'Arial', sans-serif;fill:#000000" fill="currentColor" x="-9" dy="0.32em" transform="rotate(0)">10.00%</text></g><g class="tick" opacity="1" transform="translate(0,310.36666666666673)"><line stroke="currentColor" x2="-6" /><text style="text-anchor:right;font-size:10px;font-family:'Arial', sans-serif;fill:#000000" fill="currentColor" x="-9" dy="0.32em" transform="rotate(0)">20.00%</text></g><g class="tick" opacity="1" transform="translate(0,265.29999999999995)"><line stroke="currentColor" x2="-6" /><text style="text-anchor:right;font-size:10px;font-family:'Arial', sans-serif;fill:#000000" fill="currentColor" x="-9" dy="0.32em" transform="rotate(0)">30.00%</text></g><g class="tick" opacity="1" transform="translate(0,220.23333333333335)"><line stroke="currentColor" x2="-6" /><text style="text-anchor:right;font-size:10px;font-family:'Arial', sans-serif;fill:#000000" fill="currentColor" x="-9" dy="0.32em" transform="rotate(0)">40.00%</text></g><g class="tick" opacity="1" transform="translate(0,175.16666666666669)"><line stroke="currentColor" x2="-6" /><text style="text-anchor:right;font-size:10px;font-family:'Arial', sans-serif;fill:#000000" fill="currentColor" x="-9" dy="0.32em" transform="rotate(0)">50.00%</text></g><g class="tick" opacity="1" transform="translate(0,130.10000000000002)"><line stroke="currentColor" x2="-6" /><text style="text-anchor:right;font-size:10px;font-family:'Arial', sans-serif;fill:#000000" fill="currentColor" x="-9" dy="0.32em" transform="rotate(0)">60.00%</text></g><g class="tick" opacity="1" transform="translate(0,85.03333333333337)"><line stroke="currentColor" x2="-6" /><text style="text-anchor:right;font-size:10px;font-family:'Arial', sans-serif;fill:#000000" fill="currentColor" x="-9" dy="0.32em" transform="rotate(0)">70.00%</text></g><g class="tick" opacity="1" transform="translate(0,39.96666666666668)"><line stroke="currentColor" x2="-6" /><text style="text-anchor:right;font-size:10px;font-family:'Arial', sans-serif;fill:#000000" fill="currentColor" x="-9" dy="0.32em" transform="rotate(0)">80.00%</text></g></g><g class="linesgroup"><path style="stroke-opacity:1" d="M104.64,235.094L109.095,235.094L113.549,235.094L118.004,235.094L122.458,235.094L126.913,235.094L131.367,235.094L135.822,235.094L140.277,235.094L144.731,235.094L149.186,235.094L153.64,235.094L158.095,235.094L162.549,235.094L167.004,235.094L171.458,235.094L175.913,235.094L180.367,235.094L184.822,235.094L189.277,235.094L193.731,235.094L198.186,235.094L202.64,235.094L207.095,235.094L211.549,235.094L216.004,235.094L220.458,235.094L224.913,235.094L229.367,235.094L233.822,235.094L238.277,235.094L242.731,235.094L247.186,235.094L251.64,235.094L256.095,235.094L260.549,235.094L265.004,235.094L269.458,235.094L273.913,235.094L278.367,235.094L282.822,235.094L287.277,235.094L291.731,235.094L296.186,235.094L300.64,235.094L305.095,235.094L309.549,235.094L314.004,235.094L318.458,235.094L322.913,235.094L327.367,235.094L331.822,235.094L336.277,235.094L340.731,235.094L341.288,235.094L345.186,235.094L349.64,235.094L354.095,235.094L358.549,235.094L363.004,235.094L367.458,235.094L371.913,235.094L376.367,235.094L380.822,235.094L385.277,235.094L389.731,235.094L394.186,235.094L398.64,235.094L403.095,235.094L407.549,235.094L412.004,235.094L416.458,235.094L420.17,235.094L420.913,235.094L425.367,235.094L429.822,235.094L434.277,235.094L438.731,235.094L443.186,235.094L443.371,235.094L447.64,235.094L448.011,235.094L452.095,235.094L452.652,235.094L456.549,235.094L461.004,235.094L465.458,235.094L469.913,235.094L474.367,235.094L478.822,235.094L483.277,235.094L487.731,235.094L492.186,235.094L494.413,235.094L496.64,235.094L499.053,235.094L501.095,235.094L505.549,235.094L510.004,235.094L514.458,235.094L517.614,235.094L518.913,235.094L523.367,235.094L527.822,235.094L532.277,235.094L536.731,235.094L540.814,235.094L541.186,235.094L545.455,235.094L545.64,235.094L550.095,235.094L554.549,235.094L559.004,235.094L563.458,235.094L567.913,235.094L572.367,235.094L576.822,235.094L581.277,235.094" fill="none" stroke="#000000" stroke-width="1.5" stroke-dasharray="10 0" /><path style="stroke-opacity:1" d="M126.913,399.971L131.367,398.619L135.822,396.067L140.277,392.972L144.731,389.667L149.186,386.327L153.64,383.044L158.095,379.866L162.549,376.814L167.004,373.899L171.458,371.122L175.913,368.48L180.367,365.967L184.822,363.577L189.277,361.303L193.731,359.136L198.186,357.072L202.64,355.102L207.095,353.221L211.549,351.422L216.004,349.702L220.458,348.053L224.913,346.472L229.367,344.955L233.822,343.497L238.277,342.095L242.731,340.746L247.186,339.446L251.64,338.193L256.095,336.983L260.549,335.815L265.004,334.687L269.458,333.595L273.913,332.539L278.367,331.516L282.822,330.525L287.277,329.563L291.731,328.631L296.186,327.725L300.64,326.846L305.095,325.991L309.549,325.16L314.004,324.351L318.458,323.564L322.913,322.798L327.367,322.051L331.822,321.323L336.277,320.613L340.731,319.921L341.288,319.836L345.186,319.246L349.64,318.586L354.095,317.942L358.549,317.313L363.004,316.698L367.458,316.096L371.913,315.508L376.367,314.933L380.822,314.37L385.277,313.819L389.731,313.279L394.186,312.75L398.64,312.232L403.095,311.725L407.549,311.227L412.004,310.739L416.458,310.261L420.17,309.869L420.913,309.791L425.367,309.331L429.822,308.878L434.277,308.434L438.731,307.999L443.186,307.57L443.371,307.553L447.64,307.15L448.011,307.115L452.095,306.736L452.652,306.685L456.549,306.33L461.004,305.931L465.458,305.538L469.913,305.152L474.367,304.773L478.822,304.399L483.277,304.032L487.731,303.67L492.186,303.314L494.413,303.138L496.64,302.964L499.053,302.776L501.095,302.619L505.549,302.279L510.004,301.944L514.458,301.615L517.614,301.384L518.913,301.29L523.367,300.97L527.822,300.655L532.277,300.344L536.731,300.038L540.814,299.761L541.186,299.736L545.455,299.45L545.64,299.438L550.095,299.144L554.549,298.855L559.004,298.569L563.458,298.287L567.913,298.009L572.367,297.735L576.822,297.464L581.277,297.196" fill="none" stroke="#6495ED" stroke-width="2" stroke-dasharray="10 10" /><path style="stroke-opacity:1" d="M140.277,16.611L144.731,25.442L149.186,33.388L153.64,40.569L158.095,47.089L162.549,53.034L167.004,58.481L171.458,63.492L175.913,68.119L180.367,72.407L184.822,76.395L189.277,80.114L193.731,83.593L198.186,86.856L202.64,89.924L207.095,92.816L211.549,95.546L216.004,98.13L220.458,100.58L224.913,102.907L229.367,105.12L233.822,107.229L238.277,109.241L242.731,111.163L247.186,113.003L251.64,114.764L256.095,116.454L260.549,118.076L265.004,119.634L269.458,121.134L273.913,122.578L278.367,123.969L282.822,125.312L287.277,126.608L291.731,127.86L296.186,129.07L300.64,130.242L305.095,131.376L309.549,132.475L314.004,133.54L318.458,134.574L322.913,135.577L327.367,136.551L331.822,137.498L336.277,138.419L340.731,139.314L341.288,139.425L345.186,140.186L349.64,141.035L354.095,141.861L358.549,142.667L363.004,143.452L367.458,144.219L371.913,144.966L376.367,145.696L380.822,146.409L385.277,147.105L389.731,147.785L394.186,148.45L398.64,149.101L403.095,149.737L407.549,150.359L412.004,150.969L416.458,151.565L420.17,152.053L420.913,152.149L425.367,152.722L429.822,153.282L434.277,153.832L438.731,154.371L443.186,154.9L443.371,154.922L447.64,155.418L448.011,155.461L452.095,155.927L452.652,155.99L456.549,156.426L461.004,156.916L465.458,157.397L469.913,157.87L474.367,158.334L478.822,158.79L483.277,159.238L487.731,159.678L492.186,160.111L494.413,160.325L496.64,160.537L499.053,160.765L501.095,160.956L505.549,161.367L510.004,161.772L514.458,162.171L517.614,162.449L518.913,162.563L523.367,162.949L527.822,163.329L532.277,163.703L536.731,164.072L540.814,164.405L541.186,164.435L545.455,164.777L545.64,164.792L550.095,165.144L554.549,165.491L559.004,165.833L563.458,166.17L567.913,166.502L572.367,166.83L576.822,167.153L581.277,167.471" fill="none" stroke="#6495ED" stroke-width="2" stroke-dasharray="10 10" /><path style="stroke-opacity:1" d="M109.095,398.859L113.549,397.391L118.004,389.649L122.458,381.467L126.913,373.964L131.367,367.3L135.822,361.415L140.277,356.203L144.731,351.562L149.186,347.402L153.64,343.65L158.095,340.248L162.549,337.144L167.004,334.3L171.458,331.681L175.913,329.259L180.367,327.012L184.822,324.919L189.277,322.964L193.731,321.133L198.186,319.412L202.64,317.791L207.095,316.261L211.549,314.814L216.004,313.442L220.458,312.14L224.913,310.901L229.367,309.72L233.822,308.594L238.277,307.517L242.731,306.487L247.186,305.501L251.64,304.554L256.095,303.645L260.549,302.772L265.004,301.931L269.458,301.121L273.913,300.34L278.367,299.587L282.822,298.859L287.277,298.156L291.731,297.476L296.186,296.817L300.64,296.179L305.095,295.561L309.549,294.961L314.004,294.379L318.458,293.814L322.913,293.265L327.367,292.731L331.822,292.212L336.277,291.707L340.731,291.215L341.288,291.154L345.186,290.736L349.64,290.268L354.095,289.813L358.549,289.369L363.004,288.936L367.458,288.512L371.913,288.099L376.367,287.696L380.822,287.301L385.277,286.916L389.731,286.539L394.186,286.17L398.64,285.809L403.095,285.455L407.549,285.109L412.004,284.77L416.458,284.438L420.17,284.167L420.913,284.113L425.367,283.794L429.822,283.481L434.277,283.174L438.731,282.873L443.186,282.578L443.371,282.566L447.64,282.288L448.011,282.264L452.095,282.003L452.652,281.968L456.549,281.724L461.004,281.449L465.458,281.18L469.913,280.915L474.367,280.654L478.822,280.398L483.277,280.147L487.731,279.899L492.186,279.656L494.413,279.536L496.64,279.417L499.053,279.288L501.095,279.181L505.549,278.949L510.004,278.721L514.458,278.496L517.614,278.339L518.913,278.275L523.367,278.057L527.822,277.843L532.277,277.632L536.731,277.423L540.814,277.235L541.186,277.218L545.455,277.025L545.64,277.016L550.095,276.817L554.549,276.621L559.004,276.427L563.458,276.236L567.913,276.048L572.367,275.862L576.822,275.679L581.277,275.498" fill="none" stroke="#6495ED" stroke-width="2" stroke-dasharray="2 5" /><path style="stroke-opacity:1" d="M118.004,25.489L122.458,43.85L126.913,58.363L131.367,70.145L135.822,79.931L140.277,88.214L144.731,95.336L149.186,101.541L153.64,107.008L158.095,111.87L162.549,116.229L167.004,120.167L171.458,123.745L175.913,127.016L180.367,130.02L184.822,132.792L189.277,135.359L193.731,137.746L198.186,139.972L202.64,142.055L207.095,144.009L211.549,145.847L216.004,147.58L220.458,149.217L224.913,150.767L229.367,152.238L233.822,153.635L238.277,154.965L242.731,156.233L247.186,157.444L251.64,158.601L256.095,159.708L260.549,160.77L265.004,161.789L269.458,162.767L273.913,163.708L278.367,164.613L282.822,165.486L287.277,166.327L291.731,167.139L296.186,167.923L300.64,168.681L305.095,169.414L309.549,170.124L314.004,170.811L318.458,171.477L322.913,172.124L327.367,172.751L331.822,173.36L336.277,173.952L340.731,174.527L341.288,174.598L345.186,175.087L349.64,175.631L354.095,176.161L358.549,176.678L363.004,177.181L367.458,177.671L371.913,178.15L376.367,178.617L380.822,179.072L385.277,179.517L389.731,179.952L394.186,180.376L398.64,180.791L403.095,181.197L407.549,181.594L412.004,181.983L416.458,182.363L420.17,182.674L420.913,182.735L425.367,183.1L429.822,183.457L434.277,183.807L438.731,184.15L443.186,184.486L443.371,184.5L447.64,184.816L448.011,184.843L452.095,185.139L452.652,185.179L456.549,185.457L461.004,185.768L465.458,186.074L469.913,186.374L474.367,186.669L478.822,186.958L483.277,187.243L487.731,187.522L492.186,187.797L494.413,187.932L496.64,188.067L499.053,188.211L501.095,188.332L505.549,188.593L510.004,188.85L514.458,189.103L517.614,189.279L518.913,189.352L523.367,189.596L527.822,189.837L532.277,190.074L536.731,190.307L540.814,190.518L541.186,190.537L545.455,190.754L545.64,190.764L550.095,190.987L554.549,191.206L559.004,191.423L563.458,191.636L567.913,191.846L572.367,192.054L576.822,192.258L581.277,192.459" fill="none" stroke="#6495ED" stroke-width="2" stroke-dasharray="2 5" /><text x="581.2765151515141" y="235.0944026733501" fill="#000000" font-size="10px" font-family="'Arial', sans-serif" text-anchor="start" dx="10px" dy="0px" /><text x="581.2765151515141" y="297.19646531054053" fill="#000000" font-size="10px" font-family="'Arial', sans-serif" text-anchor="start" dx="10px" dy="0px" /><text x="581.2765151515141" y="167.4712939170246" fill="#000000" font-size="10px" font-family="'Arial', sans-serif" text-anchor="start" dx="10px" dy="0px" /><text x="581.2765151515141" y="275.4983094219877" fill="#000000" font-size="10px" font-family="'Arial', sans-serif" text-anchor="start" dx="10px" dy="0px" /><text x="581.2765151515141" y="192.45934383268303" fill="#000000" font-size="10px" font-family="'Arial', sans-serif" text-anchor="start" dx="10px" dy="0px" /></g><g class="dotsgroup"><g style="fill-opacity:1;stroke-opacity:1" class="dotsgroup-child"><path style="fill:#A6A6A6;stroke:#A6A6A6;stroke-width:1" d="M2.5,0A2.5,2.5,0,1,1,-2.5,0A2.5,2.5,0,1,1,2.5,0" transform="translate(540.8143939393939, 181.78245614035092)" /></g><g style="fill-opacity:1;stroke-opacity:1" class="dotsgroup-child"><path style="fill:#A6A6A6;stroke:#A6A6A6;stroke-width:1" d="M2.5,0A2.5,2.5,0,1,1,-2.5,0A2.5,2.5,0,1,1,2.5,0" transform="translate(420.1704545454545, 334.68599033816423)" /></g><g style="fill-opacity:1;stroke-opacity:1" class="dotsgroup-child"><path style="fill:#A6A6A6;stroke:#A6A6A6;stroke-width:1" d="M2.5,0A2.5,2.5,0,1,1,-2.5,0A2.5,2.5,0,1,1,2.5,0" transform="translate(448.0113636363636, 195.6977777777778)" /></g><g style="fill-opacity:1;stroke-opacity:1" class="dotsgroup-child"><path style="fill:#A6A6A6;stroke:#A6A6A6;stroke-width:1" d="M2.5,0A2.5,2.5,0,1,1,-2.5,0A2.5,2.5,0,1,1,2.5,0" transform="translate(545.4545454545455, 310.80555555555554)" /></g><g style="fill-opacity:1;stroke-opacity:1" class="dotsgroup-child"><path style="fill:#A6A6A6;stroke:#A6A6A6;stroke-width:1" d="M2.5,0A2.5,2.5,0,1,1,-2.5,0A2.5,2.5,0,1,1,2.5,0" transform="translate(341.28787878787875, 10)" /></g><g style="fill-opacity:1;stroke-opacity:1" class="dotsgroup-child"><path style="fill:#A6A6A6;stroke:#A6A6A6;stroke-width:1" d="M2.5,0A2.5,2.5,0,1,1,-2.5,0A2.5,2.5,0,1,1,2.5,0" transform="translate(517.6136363636364, 264.79999999999995)" /></g><g style="fill-opacity:1;stroke-opacity:1" class="dotsgroup-child"><path style="fill:#A6A6A6;stroke:#A6A6A6;stroke-width:1" d="M2.5,0A2.5,2.5,0,1,1,-2.5,0A2.5,2.5,0,1,1,2.5,0" transform="translate(443.37121212121207, 199.02702702702703)" /></g><g style="fill-opacity:1;stroke-opacity:1" class="dotsgroup-child"><path style="fill:#A6A6A6;stroke:#A6A6A6;stroke-width:1" d="M2.5,0A2.5,2.5,0,1,1,-2.5,0A2.5,2.5,0,1,1,2.5,0" transform="translate(452.6515151515151, 305.1228070175439)" /></g><g style="fill-opacity:1;stroke-opacity:1" class="dotsgroup-child"><path style="fill:#A6A6A6;stroke:#A6A6A6;stroke-width:1" d="M2.5,0A2.5,2.5,0,1,1,-2.5,0A2.5,2.5,0,1,1,2.5,0" transform="translate(494.4128787878787, 145.5058823529412)" /></g><g style="fill-opacity:1;stroke-opacity:1" class="dotsgroup-child"><path style="fill:#A6A6A6;stroke:#A6A6A6;stroke-width:1" d="M2.5,0A2.5,2.5,0,1,1,-2.5,0A2.5,2.5,0,1,1,2.5,0" transform="translate(499.05303030303025, 326.6356589147287)" /></g></g></svg>