<svg viewBox="0 0 640 400" width="640px" height="400px" xmlns="http://www.w3.org/2000/svg"><rect x="0" y="0" width="100%" height="100%" fill="white"/><line style="stroke-opacity:0" class="ttip-line-x" x1="0" x2="0" y1="10" y2="340" stroke-width="1px" stroke="black" /><line style="stroke-opacity:0" class="ttip-line-y" x1="60" x2="630" y1="0" y2="0" stroke-width="1px" stroke="black" /><g class="xaxisgroup" fill="none" font-size="10" font-family="sans-serif" text-anchor="middle" color="#000000" transform="translate(0, 340)"><path class="domain" stroke="currentColor" d="M60.5,6V0.5H630.5V6" /><g class="tick" opacity="1" transform="translate(60.5,0)"><line stroke="currentColor" y2="6" /><text style="text-anchor:end;font-size:10px;font-family:'Arial', sans-serif;fill:#000000" fill="currentColor" y="9" dy="-.15em" dx="-.8em" transform="rotate(-35)"> 01/01/2023</text></g><g class="tick" opacity="1" transform="translate(112.31818181818181,0)"><line stroke="currentColor" y2="6" /><text style="text-anchor:end;font-size:10px;font-family:'Arial', sans-serif;fill:#000000" fill="currentColor" y="9" dy="-.15em" dx="-.8em" transform="rotate(-35)"> 01/02/2023</text></g><g class="tick" opacity="1" transform="translate(164.13636363636363,0)"><line stroke="currentColor" y2="6" /><text style="text-anchor:end;font-size:10px;font-family:'Arial', sans-serif;fill:#000000" fill="currentColor" y="9" dy="-.15em" dx="-.8em" transform="rotate(-35)"> 01/03/2023</text></g><g class="tick" opacity="1" transform="translate(215.95454545454544,0)"><line stroke="currentColor" y2="6" /><text style="text-anchor:end;font-size:10px;font-family:'Arial', sans-serif;fill:#000000" fill="currentColor" y="9" dy="-.15em" dx="-.8em" transform="rotate(-35)"> 01/04/2023</text></g><g class="tick" opacity="1" transform="translate(267.77272727272725,0)"><line stroke="currentColor" y2="6" /><text style="text-anchor:end;font-size:10px;font-family:'Arial', sans-serif;fill:#000000" fill="currentColor" y="9" dy="-.15em" dx="-.8em" transform="rotate(-35)"> 01/05/2023</text></g><g class="tick" opacity="1" transform="translate(319.5909090909091,0)"><line stroke="currentColor" y2="6" /><text style="text-anchor:end;font-size:10px;font-family:'Arial', sans-serif;fill:#000000" fill="currentColor" y="9" dy="-.15em" dx="-.8em" transform="rotate(-35)"> 01/06/2023</text></g><g class="tick" opacity="1" transform="translate(371.4090909090909,0)"><line stroke="currentColor" y2="6" /><text style="text-anchor:end;font-size:10px;font-family:'Arial', sans-serif;fill:#000000" fill="currentColor" y="9" dy="-.15em" dx="-.8em" transform="rotate(-35)"> 01/07/2023</text></g><g class="tick" opacity="1" transform="translate(423.2272727272727,0)"><line stroke="currentColor" y2="6" /><text style="text-anchor:end;font-size:10px;font-family:'Arial', sans-serif;fill:#000000" fill="currentColor" y="9" dy="-.15em" dx="-.8em" transform="rotate(-35)"> 01/08/2023</text></g><g class="tick" opacity="1" transform="translate(475.04545454545456,0)"><line stroke="currentColor" y2="6" /><text style="text-anchor:end;font-size:10px;font-family:'Arial', sans-serif;fill:#000000" fill="currentColor" y="9" dy="-.15em" dx="-.8em" transform="rotate(-35)"> 01/09/2023</text></g><g class="tick" opacity="1" transform="translate(526.8636363636364,0)"><line stroke="currentColor" y2="6" /><text style="text-anchor:end;font-size:10px;font-family:'Arial', sans-serif;fill:#000000" fill="currentColor" y="9" dy="-.15em" dx="-.8em" transform="rotate(-35)"> 01/10/2023</text></g><g class="tick" opacity="1" transform="translate(578.6818181818182,0)"><line stroke="currentColor" y2="6" /><text style="text-anchor:end;font-size:10px;font-family:'Arial', sans-serif;fill:#000000" fill="currentColor" y="9" dy="-.15em" dx="-.8em" transform="rotate(-35)"> 01/11/2023</text></g><g class="tick" opacity="1" transform="translate(630.5,0)"><line stroke="currentColor" y2="6" /><text style="text-anchor:end;font-size:10px;font-family:'Arial', sans-serif;fill:#000000" fill="currentColor" y="9" dy="-.15em" dx="-.8em" transform="rotate(-35)"> 01/12/2023</text></g></g><text style="text-anchor:middle;font-size:10px;font-family:'Arial', sans-serif;fill:#000000" class="xaxislabel" x="320" y="380" /><g class="yaxisgroup" fill="none" font-size="10" font-family="sans-serif" text-anchor="end" color="#000000" transform="translate(60, 0)"><path class="domain" stroke="currentColor" d="M-6,340.5H0.5V10.5H-6" /><g class="tick" opacity="1" transform="translate(0,314.48900169204734)"><line stroke="currentColor" x2="-6" /><text style="text-anchor:right;font-size:10px;font-family:'Arial', sans-serif;fill:#000000" fill="currentColor" x="-9" dy="0.32em" transform="rotate(0)">8.00</text></g><g class="tick" opacity="1" transform="translate(0,288.2453468697123)"><line stroke="currentColor" x2="-6" /><text style="text-anchor:right;font-size:10px;font-family:'Arial', sans-serif;fill:#000000" fill="currentColor" x="-9" dy="0.32em" transform="rotate(0)">10.00</text></g><g class="tick" opacity="1" transform="translate(0,262.0016920473773)"><line stroke="currentColor" x2="-6" /><text style="text-anchor:right;font-size:10px;font-family:'Arial', sans-serif;fill:#000000" fill="currentColor" x="-9" dy="0.32em" transform="rotate(0)">12.00</text></g><g class="tick" opacity="1" transform="translate(0,235.75803722504227)"><line stroke="currentColor" x2="-6" /><text style="text-anchor:right;font-size:10px;font-family:'Arial', sans-serif;fill:#000000" fill="currentColor" x="-9" dy="0.32em" transform="rotate(0)">14.00</text></g><g class="tick" opacity="1" transform="translate(0,209.51438240270724)"><line stroke="currentColor" x2="-6" /><text style="text-anchor:right;font-size:10px;font-family:'Arial', sans-serif;fill:#000000" fill="currentColor" x="-9" dy="0.32em" transform="rotate(0)">16.00</text></g><g class="tick" opacity="1" transform="translate(0,183.2707275803722)"><line stroke="currentColor" x2="-6" /><text style="text-anchor:right;font-size:10px;font-family:'Arial', sans-serif;fill:#000000" fill="currentColor" x="-9" dy="0.32em" transform="rotate(0)">18.00</text></g><g class="tick" opacity="1" transform="translate(0,157.0270727580372)"><line stroke="currentColor" x2="-6" /><text style="text-anchor:right;font-size:10px;font-family:'Arial', sans-serif;fill:#000000" fill="currentColor" x="-9" dy="0.32em" transform="rotate(0)">20.00</text></g><g class="tick" opacity="1" transform="translate(0,130.78341793570215)"><line stroke="currentColor" x2="-6" /><text style="text-anchor:right;font-size:10px;font-family:'Arial', sans-serif;fill:#000000" fill="currentColor" x="-9" dy="0.32em" transform="rotate(0)">22.00</text></g><g class="tick" opacity="1" transform="translate(0,104.53976311336714)"><line stroke="currentColor" x2="-6" /><text style="text-anchor:right;font-size:10px;font-family:'Arial', sans-serif;fill:#000000" fill="currentColor" x="-9" dy="0.32em" transform="rotate(0)">24.00</text></g><g class="tick" opacity="1" transform="translate(0,78.29610829103211)"><line stroke="currentColor" x2="-6" /><text style="text-anchor:right;font-size:10px;font-family:'Arial', sans-serif;fill:#000000" fill="currentColor" x="-9" dy="0.32em" transform="rotate(0)">26.00</text></g><g class="tick" opacity="1" transform="translate(0,52.0524534686971)"><line stroke="currentColor" x2="-6" /><text style="text-anchor:right;font-size:10px;font-family:'Arial', sans-serif;fill:#000000" fill="currentColor" x="-9" dy="0.32em" transform="rotate(0)">28.00</text></g><g class="tick" opacity="1" transform="translate(0,25.808798646362057)"><line stroke="currentColor" x2="-6" /><text style="text-anchor:right;font-size:10px;font-family:'Arial', sans-serif;fill:#000000" fill="currentColor" x="-9" dy="0.32em" transform="rotate(0)">30.00</text></g></g><text style="text-anchor:middle;font-size:10px;font-family:'Arial', sans-serif;fill:#000000" class="yaxislabel" x="30" y="200" transform="rotate(-90, 30, 200)" /><g class="linesgroup"><g style="stroke-opacity:1" class="linegroup"><line x1="60" y1="287.7453468697123" x2="111.81818181818181" y2="261.5016920473773" fill="none" stroke="gray" stroke-width="3" stroke-dasharray="10 0" stroke-dashoffset="0" /><line x1="111.81818181818181" y1="261.5016920473773" x2="163.63636363636363" y2="274.6235194585448" fill="none" stroke="gray" stroke-width="3" stroke-dasharray="10 0" stroke-dashoffset="51.81818181818181" /><line x1="163.63636363636363" y1="274.6235194585448" x2="215.45454545454544" y2="222.13620981387476" fill="none" stroke="gray" stroke-width="3" stroke-dasharray="10 0" stroke-dashoffset="103.63636363636363" /><line x1="215.45454545454544" y1="222.13620981387476" x2="267.27272727272725" y2="261.5016920473773" fill="none" stroke="orange" stroke-width="3" stroke-dasharray="10 0" stroke-dashoffset="155.45454545454544" /><line x1="267.27272727272725" y1="261.5016920473773" x2="319.0909090909091" y2="274.6235194585448" fill="none" stroke="orange" stroke-width="3" stroke-dasharray="10 0" stroke-dashoffset="207.27272727272725" /><line x1="319.0909090909091" y1="274.6235194585448" x2="370.9090909090909" y2="90.91793570219963" fill="none" stroke="orange" stroke-width="3" stroke-dasharray="10 0" stroke-dashoffset="259.0909090909091" /><line x1="370.9090909090909" y1="90.91793570219963" x2="422.7272727272727" y2="261.5016920473773" fill="none" stroke="orange" stroke-width="3" stroke-dasharray="10 0" stroke-dashoffset="310.9090909090909" /><line x1="422.7272727272727" y1="261.5016920473773" x2="474.54545454545456" y2="274.6235194585448" fill="none" stroke="gray" stroke-width="3" stroke-dasharray="10 0" stroke-dashoffset="362.7272727272727" /><line x1="474.54545454545456" y1="274.6235194585448" x2="526.3636363636364" y2="287.7453468697123" fill="none" stroke="gray" stroke-width="3" stroke-dasharray="10 0" stroke-dashoffset="414.54545454545456" /><line x1="526.3636363636364" y1="287.7453468697123" x2="578.1818181818182" y2="274.6235194585448" fill="none" stroke="gray" stroke-width="3" stroke-dasharray="10 0" stroke-dashoffset="466.3636363636364" /><line x1="578.1818181818182" y1="274.6235194585448" x2="630" y2="261.5016920473773" fill="none" stroke="gray" stroke-width="3" stroke-dasharray="10 0" stroke-dashoffset="518.1818181818182" /></g><g style="stroke-opacity:1" class="linegroup"><line x1="60" y1="252.75380710659897" x2="111.81818181818181" y2="252.75380710659897" fill="none" stroke="#000000" stroke-width="1.5" stroke-dasharray="10 0" stroke-dashoffset="0" /><line x1="111.81818181818181" y1="252.75380710659897" x2="163.63636363636363" y2="252.75380710659897" fill="none" stroke="#000000" stroke-width="1.5" stroke-dasharray="10 0" stroke-dashoffset="51.81818181818181" /><line x1="163.63636363636363" y1="252.75380710659897" x2="215.45454545454544" y2="252.75380710659897" fill="none" stroke="#000000" stroke-width="1.5" stroke-dasharray="10 0" stroke-dashoffset="103.63636363636363" /><line x1="215.45454545454544" y1="252.75380710659897" x2="267.27272727272725" y2="252.75380710659897" fill="none" stroke="#000000" stroke-width="1.5" stroke-dasharray="10 0" stroke-dashoffset="155.45454545454544" /><line x1="267.27272727272725" y1="252.75380710659897" x2="319.0909090909091" y2="252.75380710659897" fill="none" stroke="#000000" stroke-width="1.5" stroke-dasharray="10 0" stroke-dashoffset="207.27272727272725" /><line x1="319.0909090909091" y1="252.75380710659897" x2="370.9090909090909" y2="252.75380710659897" fill="none" stroke="#000000" stroke-width="1.5" stroke-dasharray="10 0" stroke-dashoffset="259.0909090909091" /><line x1="370.9090909090909" y1="252.75380710659897" x2="422.7272727272727" y2="252.75380710659897" fill="none" stroke="#000000" stroke-width="1.5" stroke-dasharray="10 0" stroke-dashoffset="310.9090909090909" /><line x1="422.7272727272727" y1="252.75380710659897" x2="474.54545454545456" y2="252.75380710659897" fill="none" stroke="#000000" stroke-width="1.5" stroke-dasharray="10 0" stroke-dashoffset="362.7272727272727" /><line x1="474.54545454545456" y1="252.75380710659897" x2="526.3636363636364" y2="252.75380710659897" fill="none" stroke="#000000" stroke-width="1.5" stroke-dasharray="10 0" stroke-dashoffset="414.54545454545456" /><line x1="526.3636363636364" y1="252.75380710659897" x2="578.1818181818182" y2="252.75380710659897" fill="none" stroke="#000000" stroke-width="1.5" stroke-dasharray="10 0" stroke-dashoffset="466.3636363636364" /><line x1="578.1818181818182" y1="252.75380710659897" x2="630" y2="252.75380710659897" fill="none" stroke="#000000" stroke-width="1.5" stroke-dasharray="10 0" stroke-dashoffset="518.1818181818182" /></g><g style="stroke-opacity:1" class="linegroup"><line x1="60" y1="310.91793570219966" x2="111.81818181818181" y2="310.91793570219966" fill="none" stroke="#6495ED" stroke-width="2" stroke-dasharray="10 10" stroke-dashoffset="0" /><line x1="111.81818181818181" y1="310.91793570219966" x2="163.63636363636363" y2="310.91793570219966" fill="none" stroke="#6495ED" stroke-width="2" stroke-dasharray="10 10" stroke-dashoffset="51.81818181818181" /><line x1="163.63636363636363" y1="310.91793570219966" x2="215.45454545454544" y2="310.91793570219966" fill="none" stroke="#6495ED" stroke-width="2" stroke-dasharray="10 10" stroke-dashoffset="103.63636363636363" /><line x1="215.45454545454544" y1="310.91793570219966" x2="267.27272727272725" y2="310.91793570219966" fill="none" stroke="#6495ED" stroke-width="2" stroke-dasharray="10 10" stroke-dashoffset="155.45454545454544" /><line x1="267.27272727272725" y1="310.91793570219966" x2="319.0909090909091" y2="310.91793570219966" fill="none" stroke="#6495ED" stroke-width="2" stroke-dasharray="10 10" stroke-dashoffset="207.27272727272725" /><line x1="319.0909090909091" y1="310.91793570219966" x2="370.9090909090909" y2="310.91793570219966" fill="none" stroke="#6495ED" stroke-width="2" stroke-dasharray="10 10" stroke-dashoffset="259.0909090909091" /><line x1="370.9090909090909" y1="310.91793570219966" x2="422.7272727272727" y2="310.91793570219966" fill="none" stroke="#6495ED" stroke-width="2" stroke-dasharray="10 10" stroke-dashoffset="310.9090909090909" /><line x1="422.7272727272727" y1="310.91793570219966" x2="474.54545454545456" y2="310.91793570219966" fill="none" stroke="#6495ED" stroke-width="2" stroke-dasharray="10 10" stroke-dashoffset="362.7272727272727" /><line x1="474.54545454545456" y1="310.91793570219966" x2="526.3636363636364" y2="310.91793570219966" fill="none" stroke="#6495ED" stroke-width="2" stroke-dasharray="10 10" stroke-dashoffset="414.54545454545456" /><line x1="526.3636363636364" y1="310.91793570219966" x2="578.1818181818182" y2="310.91793570219966" fill="none" stroke="#6495ED" stroke-width="2" stroke-dasharray="10 10" stroke-dashoffset="466.3636363636364" /><line x1="578.1818181818182" y1="310.91793570219966" x2="630" y2="310.91793570219966" fill="none" stroke="#6495ED" stroke-width="2" stroke-dasharray="10 10" stroke-dashoffset="518.1818181818182" /></g><g style="stroke-opacity:1" class="linegroup"><line x1="60" y1="194.58967851099825" x2="111.81818181818181" y2="194.58967851099825" fill="none" stroke="#6495ED" stroke-width="2" stroke-dasharray="10 10" stroke-dashoffset="0" /><line x1="111.81818181818181" y1="194.58967851099825" x2="163.63636363636363" y2="194.58967851099825" fill="none" stroke="#6495ED" stroke-width="2" stroke-dasharray="10 10" stroke-dashoffset="51.81818181818181" /><line x1="163.63636363636363" y1="194.58967851099825" x2="215.45454545454544" y2="194.58967851099825" fill="none" stroke="#6495ED" stroke-width="2" stroke-dasharray="10 10" stroke-dashoffset="103.63636363636363" /><line x1="215.45454545454544" y1="194.58967851099825" x2="267.27272727272725" y2="194.58967851099825" fill="none" stroke="#6495ED" stroke-width="2" stroke-dasharray="10 10" stroke-dashoffset="155.45454545454544" /><line x1="267.27272727272725" y1="194.58967851099825" x2="319.0909090909091" y2="194.58967851099825" fill="none" stroke="#6495ED" stroke-width="2" stroke-dasharray="10 10" stroke-dashoffset="207.27272727272725" /><line x1="319.0909090909091" y1="194.58967851099825" x2="370.9090909090909" y2="194.58967851099825" fill="none" stroke="#6495ED" stroke-width="2" stroke-dasharray="10 10" stroke-dashoffset="259.0909090909091" /><line x1="370.9090909090909" y1="194.58967851099825" x2="422.7272727272727" y2="194.58967851099825" fill="none" stroke="#6495ED" stroke-width="2" stroke-dasharray="10 10" stroke-dashoffset="310.9090909090909" /><line x1="422.7272727272727" y1="194.58967851099825" x2="474.54545454545456" y2="194.58967851099825" fill="none" stroke="#6495ED" stroke-width="2" stroke-dasharray="10 10" stroke-dashoffset="362.7272727272727" /><line x1="474.54545454545456" y1="194.58967851099825" x2="526.3636363636364" y2="194.58967851099825" fill="none" stroke="#6495ED" stroke-width="2" stroke-dasharray="10 10" stroke-dashoffset="414.54545454545456" /><line x1="526.3636363636364" y1="194.58967851099825" x2="578.1818181818182" y2="194.58967851099825" fill="none" stroke="#6495ED" stroke-width="2" stroke-dasharray="10 10" stroke-dashoffset="466.3636363636364" /><line x1="578.1818181818182" y1="194.58967851099825" x2="630" y2="194.58967851099825" fill="none" stroke="#6495ED" stroke-width="2" stroke-dasharray="10 10" stroke-dashoffset="518.1818181818182" /></g><g style="stroke-opacity:1" class="linegroup"><line x1="60" y1="291.5298928369994" x2="111.81818181818181" y2="291.5298928369994" fill="none" stroke="#6495ED" stroke-width="2" stroke-dasharray="2 5" stroke-dashoffset="0" /><line x1="111.81818181818181" y1="291.5298928369994" x2="163.63636363636363" y2="291.5298928369994" fill="none" stroke="#6495ED" stroke-width="2" stroke-dasharray="2 5" stroke-dashoffset="51.81818181818181" /><line x1="163.63636363636363" y1="291.5298928369994" x2="215.45454545454544" y2="291.5298928369994" fill="none" stroke="#6495ED" stroke-width="2" stroke-dasharray="2 5" stroke-dashoffset="103.63636363636363" /><line x1="215.45454545454544" y1="291.5298928369994" x2="267.27272727272725" y2="291.5298928369994" fill="none" stroke="#6495ED" stroke-width="2" stroke-dasharray="2 5" stroke-dashoffset="155.45454545454544" /><line x1="267.27272727272725" y1="291.5298928369994" x2="319.0909090909091" y2="291.5298928369994" fill="none" stroke="#6495ED" stroke-width="2" stroke-dasharray="2 5" stroke-dashoffset="207.27272727272725" /><line x1="319.0909090909091" y1="291.5298928369994" x2="370.9090909090909" y2="291.5298928369994" fill="none" stroke="#6495ED" stroke-width="2" stroke-dasharray="2 5" stroke-dashoffset="259.0909090909091" /><line x1="370.9090909090909" y1="291.5298928369994" x2="422.7272727272727" y2="291.5298928369994" fill="none" stroke="#6495ED" stroke-width="2" stroke-dasharray="2 5" stroke-dashoffset="310.9090909090909" /><line x1="422.7272727272727" y1="291.5298928369994" x2="474.54545454545456" y2="291.5298928369994" fill="none" stroke="#6495ED" stroke-width="2" stroke-dasharray="2 5" stroke-dashoffset="362.7272727272727" /><line x1="474.54545454545456" y1="291.5298928369994" x2="526.3636363636364" y2="291.5298928369994" fill="none" stroke="#6495ED" stroke-width="2" stroke-dasharray="2 5" stroke-dashoffset="414.54545454545456" /><line x1="526.3636363636364" y1="291.5298928369994" x2="578.1818181818182" y2="291.5298928369994" fill="none" stroke="#6495ED" stroke-width="2" stroke-dasharray="2 5" stroke-dashoffset="466.3636363636364" /><line x1="578.1818181818182" y1="291.5298928369994" x2="630" y2="291.5298928369994" fill="none" stroke="#6495ED" stroke-width="2" stroke-dasharray="2 5" stroke-dashoffset="518.1818181818182" /></g><g style="stroke-opacity:1" class="linegroup"><line x1="60" y1="213.97772137619847" x2="111.81818181818181" y2="213.97772137619847" fill="none" stroke="#6495ED" stroke-width="2" stroke-dasharray="2 5" stroke-dashoffset="0" /><line x1="111.81818181818181" y1="213.97772137619847" x2="163.63636363636363" y2="213.97772137619847" fill="none" stroke="#6495ED" stroke-width="2" stroke-dasharray="2 5" stroke-dashoffset="51.81818181818181" /><line x1="163.63636363636363" y1="213.97772137619847" x2="215.45454545454544" y2="213.97772137619847" fill="none" stroke="#6495ED" stroke-width="2" stroke-dasharray="2 5" stroke-dashoffset="103.63636363636363" /><line x1="215.45454545454544" y1="213.97772137619847" x2="267.27272727272725" y2="213.97772137619847" fill="none" stroke="#6495ED" stroke-width="2" stroke-dasharray="2 5" stroke-dashoffset="155.45454545454544" /><line x1="267.27272727272725" y1="213.97772137619847" x2="319.0909090909091" y2="213.97772137619847" fill="none" stroke="#6495ED" stroke-width="2" stroke-dasharray="2 5" stroke-dashoffset="207.27272727272725" /><line x1="319.0909090909091" y1="213.97772137619847" x2="370.9090909090909" y2="213.97772137619847" fill="none" stroke="#6495ED" stroke-width="2" stroke-dasharray="2 5" stroke-dashoffset="259.0909090909091" /><line x1="370.9090909090909" y1="213.97772137619847" x2="422.7272727272727" y2="213.97772137619847" fill="none" stroke="#6495ED" stroke-width="2" stroke-dasharray="2 5" stroke-dashoffset="310.9090909090909" /><line x1="422.7272727272727" y1="213.97772137619847" x2="474.54545454545456" y2="213.97772137619847" fill="none" stroke="#6495ED" stroke-width="2" stroke-dasharray="2 5" stroke-dashoffset="362.7272727272727" /><line x1="474.54545454545456" y1="213.97772137619847" x2="526.3636363636364" y2="213.97772137619847" fill="none" stroke="#6495ED" stroke-width="2" stroke-dasharray="2 5" stroke-dashoffset="414.54545454545456" /><line x1="526.3636363636364" y1="213.97772137619847" x2="578.1818181818182" y2="213.97772137619847" fill="none" stroke="#6495ED" stroke-width="2" stroke-dasharray="2 5" stroke-dashoffset="466.3636363636364" /><line x1="578.1818181818182" y1="213.97772137619847" x2="630" y2="213.97772137619847" fill="none" stroke="#6495ED" stroke-width="2" stroke-dasharray="2 5" stroke-dashoffset="518.1818181818182" /></g><text x="630" y="261.5016920473773" fill="#000000" font-size="10px" font-family="'Arial', sans-serif" text-anchor="start" dx="10px" dy="0px" /><text x="630" y="252.75380710659897" fill="#000000" font-size="10px" font-family="'Arial', sans-serif" text-anchor="start" dx="10px" dy="0px" /><text x="630" y="310.91793570219966" fill="#000000" font-size="10px" font-family="'Arial', sans-serif" text-anchor="start" dx="10px" dy="0px" /><text x="630" y="194.58967851099825" fill="#000000" font-size="10px" font-family="'Arial', sans-serif" text-anchor="start" dx="10px" dy="0px" /><text x="630" y="291.5298928369994" fill="#000000" font-size="10px" font-family="'Arial', sans-serif" text-anchor="start" dx="10px" dy="0px" /><text x="630" y="213.97772137619847" fill="#000000" font-size="10px" font-family="'Arial', sans-serif" text-anchor="start" dx="10px" dy="0px" /></g><g class="dotsgroup"><path style="fill:#A6A6A6;stroke:#A6A6A6;stroke-width:1;fill-opacity:1;stroke-opacity:1" d="M2.5,0A2.5,2.5,0,1,1,-2.5,0A2.5,2.5,0,1,1,2.5,0" transform="translate(60, 287.7453468697123)" /><path style="fill:#A6A6A6;stroke:#A6A6A6;stroke-width:1;fill-opacity:1;stroke-opacity:1" d="M2.5,0A2.5,2.5,0,1,1,-2.5,0A2.5,2.5,0,1,1,2.5,0" transform="translate(111.81818181818181, 261.5016920473773)" /><path style="fill:#A6A6A6;stroke:#A6A6A6;stroke-width:1;fill-opacity:1;stroke-opacity:1" d="M2.5,0A2.5,2.5,0,1,1,-2.5,0A2.5,2.5,0,1,1,2.5,0" transform="translate(163.63636363636363, 274.6235194585448)" /><path style="fill:#A6A6A6;stroke:#A6A6A6;stroke-width:1;fill-opacity:1;stroke-opacity:1" d="M2.5,0A2.5,2.5,0,1,1,-2.5,0A2.5,2.5,0,1,1,2.5,0" transform="translate(215.45454545454544, 222.13620981387476)" /><path style="fill:#A6A6A6;stroke:#A6A6A6;stroke-width:1;fill-opacity:1;stroke-opacity:1" d="M2.5,0A2.5,2.5,0,1,1,-2.5,0A2.5,2.5,0,1,1,2.5,0" transform="translate(267.27272727272725, 261.5016920473773)" /><path style="fill:#A6A6A6;stroke:#A6A6A6;stroke-width:1;fill-opacity:1;stroke-opacity:1" d="M2.5,0A2.5,2.5,0,1,1,-2.5,0A2.5,2.5,0,1,1,2.5,0" transform="translate(319.0909090909091, 274.6235194585448)" /><path style="fill:#A6A6A6;stroke:#A6A6A6;stroke-width:1;fill-opacity:1;stroke-opacity:1" d="M2.5,0A2.5,2.5,0,1,1,-2.5,0A2.5,2.5,0,1,1,2.5,0" transform="translate(370.9090909090909, 90.91793570219963)" /><path style="fill:#A6A6A6;stroke:#A6A6A6;stroke-width:1;fill-opacity:1;stroke-opacity:1" d="M2.5,0A2.5,2.5,0,1,1,-2.5,0A2.5,2.5,0,1,1,2.5,0" transform="translate(422.7272727272727, 261.5016920473773)" /><path style="fill:#A6A6A6;stroke:#A6A6A6;stroke-width:1;fill-opacity:1;stroke-opacity:1" d="M2.5,0A2.5,2.5,0,1,1,-2.5,0A2.5,2.5,0,1,1,2.5,0" transform="translate(474.54545454545456, 274.6235194585448)" /><path style="fill:#A6A6A6;stroke:#A6A6A6;stroke-width:1;fill-opacity:1;stroke-opacity:1" d="M2.5,0A2.5,2.5,0,1,1,-2.5,0A2.5,2.5,0,1,1,2.5,0" transform="translate(526.3636363636364, 287.7453468697123)" /><path style="fill:#A6A6A6;stroke:#A6A6A6;stroke-width:1;fill-opacity:1;stroke-opacity:1" d="M2.5,0A2.5,2.5,0,1,1,-2.5,0A2.5,2.5,0,1,1,2.5,0" transform="translate(578.1818181818182, 274.6235194585448)" /><path style="fill:#A6A6A6;stroke:#A6A6A6;stroke-width:1;fill-opacity:1;stroke-opacity:1" d="M2.5,0A2.5,2.5,0,1,1,-2.5,0A2.5,2.5,0,1,1,2.5,0" transform="translate(630, 261.5016920473773)" /></g></svg>