<svg viewBox="0 0 640 400" width="640px" height="400px" xmlns="http://www.w3.org/2000/svg"><rect x="0" y="0" width="100%" height="100%" fill="white"/><line style="stroke-opacity:0" class="ttip-line-x" x1="0" x2="0" y1="10" y2="370" stroke-width="1px" stroke="black" /><line style="stroke-opacity:0" class="ttip-line-y" x1="60" x2="630" y1="0" y2="0" stroke-width="1px" stroke="black" /><g class="xaxisgroup" fill="none" font-size="10" font-family="sans-serif" text-anchor="middle" color="#000000" transform="translate(0, 370)"><g class="xaxislabel"><text style="text-anchor:middle;font-size:10px;font-family:'Arial', sans-serif;fill:#000000" x="0" y="0" transform="translate(320, 25)" /></g><path class="domain" stroke="currentColor" d="M60.5,6V0.5H630.5V6" /><g class="tick" opacity="1" transform="translate(60.5,0)"><line stroke="currentColor" y2="6" /><text style="font-size:10px;font-family:'Arial', sans-serif;fill:#000000" fill="currentColor" y="9" dy="0.71em" transform="rotate(0)" text-anchor="middle">0</text></g><g class="tick" opacity="1" transform="translate(114.47727272727272,0)"><line stroke="currentColor" y2="6" /><text style="font-size:10px;font-family:'Arial', sans-serif;fill:#000000" fill="currentColor" y="9" dy="0.71em" transform="rotate(0)" text-anchor="middle">10</text></g><g class="tick" opacity="1" transform="translate(168.45454545454544,0)"><line stroke="currentColor" y2="6" /><text style="font-size:10px;font-family:'Arial', sans-serif;fill:#000000" fill="currentColor" y="9" dy="0.71em" transform="rotate(0)" text-anchor="middle">20</text></g><g class="tick" opacity="1" transform="translate(222.4318181818182,0)"><line stroke="currentColor" y2="6" /><text style="font-size:10px;font-family:'Arial', sans-serif;fill:#000000" fill="currentColor" y="9" dy="0.71em" transform="rotate(0)" text-anchor="middle">30</text></g><g class="tick" opacity="1" transform="translate(276.4090909090909,0)"><line stroke="currentColor" y2="6" /><text style="font-size:10px;font-family:'Arial', sans-serif;fill:#000000" fill="currentColor" y="9" dy="0.71em" transform="rotate(0)" text-anchor="middle">40</text></g><g class="tick" opacity="1" transform="translate(330.3863636363636,0)"><line stroke="currentColor" y2="6" /><text style="font-size:10px;font-family:'Arial', sans-serif;fill:#000000" fill="currentColor" y="9" dy="0.71em" transform="rotate(0)" text-anchor="middle">50</text></g><g class="tick" opacity="1" transform="translate(384.3636363636364,0)"><line stroke="currentColor" y2="6" /><text style="font-size:10px;font-family:'Arial', sans-serif;fill:#000000" fill="currentColor" y="9" dy="0.71em" transform="rotate(0)" text-anchor="middle">60</text></g><g class="tick" opacity="1" transform="translate(438.34090909090907,0)"><line stroke="currentColor" y2="6" /><text style="font-size:10px;font-family:'Arial', sans-serif;fill:#000000" fill="currentColor" y="9" dy="0.71em" transform="rotate(0)" text-anchor="middle">70</text></g><g class="tick" opacity="1" transform="translate(492.3181818181818,0)"><line stroke="currentColor" y2="6" /><text style="font-size:10px;font-family:'Arial', sans-serif;fill:#000000" fill="currentColor" y="9" dy="0.71em" transform="rotate(0)" text-anchor="middle">80</text></g><g class="tick" opacity="1" transform="translate(546.2954545454545,0)"><line stroke="currentColor" y2="6" /><text style="font-size:10px;font-family:'Arial', sans-serif;fill:#000000" fill="currentColor" y="9" dy="0.71em" transform="rotate(0)" text-anchor="middle">90</text></g><g class="tick" opacity="1" transform="translate(600.2727272727271,0)"><line stroke="currentColor" y2="6" /><text style="font-size:10px;font-family:'Arial', sans-serif;fill:#000000" fill="currentColor" y="9" dy="0.71em" transform="rotate(0)" text-anchor="middle">100</text></g></g><g class="yaxisgroup" fill="none" font-size="10" font-family="sans-serif" text-anchor="end" color="#000000" transform="translate(60, 0)"><g class="yaxislabel"><text style="text-anchor:middle;font-size:10px;font-family:'Arial', sans-serif;fill:#000000" x="-45" y="200" transform="rotate(-90, -45, 200)" /></g><path class="domain" stroke="currentColor" d="M-6,370.5H0.5V10.5H-6" /><g class="tick" opacity="1" transform="translate(0,370.5)"><line stroke="currentColor" x2="-6" /><text style="text-anchor:right;font-size:10px;font-family:'Arial', sans-serif;fill:#000000" fill="currentColor" x="-9" dy="0.32em" transform="rotate(0)">0.00%</text></g><g class="tick" opacity="1" transform="translate(0,328.90000000000003)"><line stroke="currentColor" x2="-6" /><text style="text-anchor:right;font-size:10px;font-family:'Arial', sans-serif;fill:#000000" fill="currentColor" x="-9" dy="0.32em" transform="rotate(0)">10.00%</text></g><g class="tick" opacity="1" transform="translate(0,287.30000000000007)"><line stroke="currentColor" x2="-6" /><text style="text-anchor:right;font-size:10px;font-family:'Arial', sans-serif;fill:#000000" fill="currentColor" x="-9" dy="0.32em" transform="rotate(0)">20.00%</text></g><g class="tick" opacity="1" transform="translate(0,245.7)"><line stroke="currentColor" x2="-6" /><text style="text-anchor:right;font-size:10px;font-family:'Arial', sans-serif;fill:#000000" fill="currentColor" x="-9" dy="0.32em" transform="rotate(0)">30.00%</text></g><g class="tick" opacity="1" transform="translate(0,204.10000000000002)"><line stroke="currentColor" x2="-6" /><text style="text-anchor:right;font-size:10px;font-family:'Arial', sans-serif;fill:#000000" fill="currentColor" x="-9" dy="0.32em" transform="rotate(0)">40.00%</text></g><g class="tick" opacity="1" transform="translate(0,162.5)"><line stroke="currentColor" x2="-6" /><text style="text-anchor:right;font-size:10px;font-family:'Arial', sans-serif;fill:#000000" fill="currentColor" x="-9" dy="0.32em" transform="rotate(0)">50.00%</text></g><g class="tick" opacity="1" transform="translate(0,120.90000000000003)"><line stroke="currentColor" x2="-6" /><text style="text-anchor:right;font-size:10px;font-family:'Arial', sans-serif;fill:#000000" fill="currentColor" x="-9" dy="0.32em" transform="rotate(0)">60.00%</text></g><g class="tick" opacity="1" transform="translate(0,79.30000000000004)"><line stroke="currentColor" x2="-6" /><text style="text-anchor:right;font-size:10px;font-family:'Arial', sans-serif;fill:#000000" fill="currentColor" x="-9" dy="0.32em" transform="rotate(0)">70.00%</text></g><g class="tick" opacity="1" transform="translate(0,37.70000000000002)"><line stroke="currentColor" x2="-6" /><text style="text-anchor:right;font-size:10px;font-family:'Arial', sans-serif;fill:#000000" fill="currentColor" x="-9" dy="0.32em" transform="rotate(0)">80.00%</text></g></g><g class="linesgroup"><path style="stroke-opacity:1" d="M65.398,217.779L70.58,217.779L75.761,217.779L80.943,217.779L86.125,217.779L91.307,217.779L96.489,217.779L101.67,217.779L106.852,217.779L112.034,217.779L117.216,217.779L122.398,217.779L127.58,217.779L132.761,217.779L137.943,217.779L143.125,217.779L148.307,217.779L153.489,217.779L158.67,217.779L163.852,217.779L169.034,217.779L174.216,217.779L179.398,217.779L184.58,217.779L189.761,217.779L194.943,217.779L200.125,217.779L205.307,217.779L210.489,217.779L215.67,217.779L220.852,217.779L226.034,217.779L231.216,217.779L236.398,217.779L241.58,217.779L246.761,217.779L251.943,217.779L257.125,217.779L262.307,217.779L267.489,217.779L272.67,217.779L277.852,217.779L283.034,217.779L288.216,217.779L293.398,217.779L298.58,217.779L303.761,217.779L308.943,217.779L314.125,217.779L319.307,217.779L324.489,217.779L329.67,217.779L334.852,217.779L340.034,217.779L340.682,217.779L345.216,217.779L350.398,217.779L355.58,217.779L360.761,217.779L365.943,217.779L371.125,217.779L376.307,217.779L381.489,217.779L386.67,217.779L391.852,217.779L397.034,217.779L402.216,217.779L407.398,217.779L412.58,217.779L417.761,217.779L422.943,217.779L428.125,217.779L432.443,217.779L433.307,217.779L438.489,217.779L443.67,217.779L448.852,217.779L454.034,217.779L459.216,217.779L459.432,217.779L464.398,217.779L464.83,217.779L469.58,217.779L470.227,217.779L474.761,217.779L479.943,217.779L485.125,217.779L490.307,217.779L495.489,217.779L500.67,217.779L505.852,217.779L511.034,217.779L516.216,217.779L518.807,217.779L521.398,217.779L524.205,217.779L526.58,217.779L531.761,217.779L536.943,217.779L542.125,217.779L545.795,217.779L547.307,217.779L552.489,217.779L557.67,217.779L562.852,217.779L568.034,217.779L572.784,217.779L573.216,217.779L578.182,217.779L578.398,217.779L583.58,217.779L588.761,217.779L593.943,217.779L599.125,217.779L604.307,217.779L609.489,217.779L614.67,217.779L619.852,217.779" fill="none" stroke="#000000" stroke-width="1.5" stroke-dasharray="10 0" /><path style="stroke-opacity:1" d="M91.307,369.973L96.489,368.726L101.67,366.37L106.852,363.513L112.034,360.462L117.216,357.379L122.398,354.349L127.58,351.414L132.761,348.598L137.943,345.907L143.125,343.344L148.307,340.905L153.489,338.585L158.67,336.379L163.852,334.279L169.034,332.28L174.216,330.374L179.398,328.556L184.58,326.819L189.761,325.159L194.943,323.571L200.125,322.049L205.307,320.59L210.489,319.189L215.67,317.843L220.852,316.549L226.034,315.304L231.216,314.104L236.398,312.947L241.58,311.831L246.761,310.753L251.943,309.711L257.125,308.703L262.307,307.728L267.489,306.784L272.67,305.869L277.852,304.981L283.034,304.121L288.216,303.285L293.398,302.473L298.58,301.684L303.761,300.917L308.943,300.17L314.125,299.444L319.307,298.736L324.489,298.047L329.67,297.375L334.852,296.72L340.034,296.081L340.682,296.002L345.216,295.457L350.398,294.849L355.58,294.254L360.761,293.673L365.943,293.105L371.125,292.55L376.307,292.008L381.489,291.477L386.67,290.957L391.852,290.448L397.034,289.95L402.216,289.462L407.398,288.984L412.58,288.515L417.761,288.056L422.943,287.606L428.125,287.164L432.443,286.802L433.307,286.73L438.489,286.305L443.67,285.888L448.852,285.478L454.034,285.076L459.216,284.68L459.432,284.664L464.398,284.292L464.83,284.26L469.58,283.911L470.227,283.863L474.761,283.536L479.943,283.167L485.125,282.805L490.307,282.448L495.489,282.098L500.67,281.753L505.852,281.414L511.034,281.08L516.216,280.751L518.807,280.589L521.398,280.428L524.205,280.255L526.58,280.11L531.761,279.796L536.943,279.487L542.125,279.183L545.795,278.97L547.307,278.883L552.489,278.588L557.67,278.297L562.852,278.01L568.034,277.727L572.784,277.471L573.216,277.448L578.182,277.185L578.398,277.173L583.58,276.902L588.761,276.635L593.943,276.371L599.125,276.111L604.307,275.854L609.489,275.601L614.67,275.351L619.852,275.104" fill="none" stroke="#6495ED" stroke-width="2" stroke-dasharray="10 10" /><path style="stroke-opacity:1" d="M106.852,16.103L112.034,24.254L117.216,31.589L122.398,38.218L127.58,44.236L132.761,49.724L137.943,54.752L143.125,59.377L148.307,63.648L153.489,67.606L158.67,71.287L163.852,74.72L169.034,77.932L174.216,80.944L179.398,83.776L184.58,86.445L189.761,88.966L194.943,91.351L200.125,93.613L205.307,95.76L210.489,97.803L215.67,99.75L220.852,101.607L226.034,103.382L231.216,105.079L236.398,106.705L241.58,108.265L246.761,109.762L251.943,111.201L257.125,112.585L262.307,113.918L267.489,115.202L272.67,116.441L277.852,117.638L283.034,118.793L288.216,119.911L293.398,120.992L298.58,122.039L303.761,123.054L308.943,124.037L314.125,124.991L319.307,125.917L324.489,126.817L329.67,127.691L334.852,128.54L340.034,129.367L340.682,129.469L345.216,130.172L350.398,130.955L355.58,131.718L360.761,132.462L365.943,133.187L371.125,133.894L376.307,134.584L381.489,135.258L386.67,135.916L391.852,136.558L397.034,137.186L402.216,137.8L407.398,138.401L412.58,138.988L417.761,139.562L422.943,140.125L428.125,140.675L432.443,141.126L433.307,141.215L438.489,141.743L443.67,142.261L448.852,142.768L454.034,143.266L459.216,143.754L459.432,143.774L464.398,144.232L464.83,144.272L469.58,144.702L470.227,144.76L474.761,145.163L479.943,145.615L485.125,146.059L490.307,146.495L495.489,146.924L500.67,147.345L505.852,147.758L511.034,148.165L516.216,148.564L518.807,148.762L521.398,148.957L524.205,149.167L526.58,149.344L531.761,149.724L536.943,150.098L542.125,150.465L545.795,150.722L547.307,150.827L552.489,151.184L557.67,151.535L562.852,151.88L568.034,152.22L572.784,152.527L573.216,152.555L578.182,152.871L578.398,152.885L583.58,153.21L588.761,153.53L593.943,153.846L599.125,154.157L604.307,154.464L609.489,154.766L614.67,155.064L619.852,155.358" fill="none" stroke="#6495ED" stroke-width="2" stroke-dasharray="10 10" /><path style="stroke-opacity:1" d="M70.58,368.947L75.761,367.592L80.943,360.445L86.125,352.893L91.307,345.967L96.489,339.816L101.67,334.383L106.852,329.572L112.034,325.288L117.216,321.448L122.398,317.985L127.58,314.844L132.761,311.979L137.943,309.354L143.125,306.936L148.307,304.701L153.489,302.627L158.67,300.695L163.852,298.89L169.034,297.199L174.216,295.611L179.398,294.115L184.58,292.702L189.761,291.367L194.943,290.1L200.125,288.898L205.307,287.754L210.489,286.665L215.67,285.625L220.852,284.631L226.034,283.681L231.216,282.77L236.398,281.896L241.58,281.057L246.761,280.251L251.943,279.475L257.125,278.727L262.307,278.006L267.489,277.311L272.67,276.639L277.852,275.99L283.034,275.362L288.216,274.754L293.398,274.165L298.58,273.595L303.761,273.041L308.943,272.504L314.125,271.982L319.307,271.475L324.489,270.983L329.67,270.503L334.852,270.037L340.034,269.583L340.682,269.527L345.216,269.14L350.398,268.709L355.58,268.289L360.761,267.879L365.943,267.479L371.125,267.088L376.307,266.707L381.489,266.334L386.67,265.97L391.852,265.614L397.034,265.266L402.216,264.926L407.398,264.593L412.58,264.266L417.761,263.947L422.943,263.634L428.125,263.328L432.443,263.077L433.307,263.027L438.489,262.733L443.67,262.444L448.852,262.161L454.034,261.883L459.216,261.61L459.432,261.599L464.398,261.343L464.83,261.321L469.58,261.08L470.227,261.047L474.761,260.822L479.943,260.569L485.125,260.32L490.307,260.075L495.489,259.835L500.67,259.599L505.852,259.366L511.034,259.138L516.216,258.913L518.807,258.802L521.398,258.692L524.205,258.574L526.58,258.475L531.761,258.261L536.943,258.05L542.125,257.843L545.795,257.698L547.307,257.639L552.489,257.438L557.67,257.24L562.852,257.045L568.034,256.852L572.784,256.679L573.216,256.663L578.182,256.484L578.398,256.477L583.58,256.293L588.761,256.111L593.943,255.933L599.125,255.756L604.307,255.583L609.489,255.411L614.67,255.242L619.852,255.075" fill="none" stroke="#6495ED" stroke-width="2" stroke-dasharray="2 5" /><path style="stroke-opacity:1" d="M80.943,24.297L86.125,41.246L91.307,54.643L96.489,65.519L101.67,74.552L106.852,82.198L112.034,88.772L117.216,94.5L122.398,99.546L127.58,104.033L132.761,108.058L137.943,111.692L143.125,114.996L148.307,118.015L153.489,120.788L158.67,123.346L163.852,125.716L169.034,127.919L174.216,129.974L179.398,131.897L184.58,133.701L189.761,135.397L194.943,136.997L200.125,138.508L205.307,139.939L210.489,141.296L215.67,142.586L220.852,143.814L226.034,144.984L231.216,146.102L236.398,147.17L241.58,148.192L246.761,149.172L251.943,150.113L257.125,151.016L262.307,151.884L267.489,152.72L272.67,153.525L277.852,154.302L283.034,155.051L288.216,155.775L293.398,156.475L298.58,157.151L303.761,157.806L308.943,158.441L314.125,159.056L319.307,159.653L324.489,160.232L329.67,160.794L334.852,161.34L340.034,161.871L340.682,161.937L345.216,162.388L350.398,162.89L355.58,163.38L360.761,163.856L365.943,164.321L371.125,164.774L376.307,165.215L381.489,165.646L386.67,166.067L391.852,166.477L397.034,166.878L402.216,167.27L407.398,167.654L412.58,168.028L417.761,168.395L422.943,168.753L428.125,169.104L432.443,169.391L433.307,169.448L438.489,169.784L443.67,170.114L448.852,170.437L454.034,170.754L459.216,171.064L459.432,171.077L464.398,171.368L464.83,171.393L469.58,171.667L470.227,171.704L474.761,171.96L479.943,172.247L485.125,172.53L490.307,172.807L495.489,173.079L500.67,173.346L505.852,173.609L511.034,173.867L516.216,174.12L518.807,174.245L521.398,174.369L524.205,174.503L526.58,174.614L531.761,174.855L536.943,175.093L542.125,175.326L545.795,175.489L547.307,175.555L552.489,175.781L557.67,176.003L562.852,176.222L568.034,176.438L572.784,176.632L573.216,176.65L578.182,176.85L578.398,176.859L583.58,177.065L588.761,177.267L593.943,177.467L599.125,177.664L604.307,177.858L609.489,178.049L614.67,178.238L619.852,178.424" fill="none" stroke="#6495ED" stroke-width="2" stroke-dasharray="2 5" /><text x="619.8522727272715" y="217.7794486215539" fill="#000000" font-size="10px" font-family="'Arial', sans-serif" text-anchor="start" dx="10px" dy="0px" /><text x="619.8522727272715" y="275.10442951742203" fill="#000000" font-size="10px" font-family="'Arial', sans-serif" text-anchor="start" dx="10px" dy="0px" /><text x="619.8522727272715" y="155.35811746186886" fill="#000000" font-size="10px" font-family="'Arial', sans-serif" text-anchor="start" dx="10px" dy="0px" /><text x="619.8522727272715" y="255.07536254337327" fill="#000000" font-size="10px" font-family="'Arial', sans-serif" text-anchor="start" dx="10px" dy="0px" /><text x="619.8522727272715" y="178.42400969170743" fill="#000000" font-size="10px" font-family="'Arial', sans-serif" text-anchor="start" dx="10px" dy="0px" /></g><g class="dotsgroup"><g style="fill-opacity:1;stroke-opacity:1" class="dotsgroup-child"><path style="fill:#A6A6A6;stroke:#A6A6A6;stroke-width:1" d="M2.5,0A2.5,2.5,0,1,1,-2.5,0A2.5,2.5,0,1,1,2.5,0" transform="translate(572.7840909090909, 168.5684210526316)" /></g><g style="fill-opacity:1;stroke-opacity:1" class="dotsgroup-child"><path style="fill:#A6A6A6;stroke:#A6A6A6;stroke-width:1" d="M2.5,0A2.5,2.5,0,1,1,-2.5,0A2.5,2.5,0,1,1,2.5,0" transform="translate(432.44318181818176, 309.71014492753625)" /></g><g style="fill-opacity:1;stroke-opacity:1" class="dotsgroup-child"><path style="fill:#A6A6A6;stroke:#A6A6A6;stroke-width:1" d="M2.5,0A2.5,2.5,0,1,1,-2.5,0A2.5,2.5,0,1,1,2.5,0" transform="translate(464.82954545454544, 181.41333333333336)" /></g><g style="fill-opacity:1;stroke-opacity:1" class="dotsgroup-child"><path style="fill:#A6A6A6;stroke:#A6A6A6;stroke-width:1" d="M2.5,0A2.5,2.5,0,1,1,-2.5,0A2.5,2.5,0,1,1,2.5,0" transform="translate(578.1818181818182, 287.6666666666667)" /></g><g style="fill-opacity:1;stroke-opacity:1" class="dotsgroup-child"><path style="fill:#A6A6A6;stroke:#A6A6A6;stroke-width:1" d="M2.5,0A2.5,2.5,0,1,1,-2.5,0A2.5,2.5,0,1,1,2.5,0" transform="translate(340.68181818181813, 10)" /></g><g style="fill-opacity:1;stroke-opacity:1" class="dotsgroup-child"><path style="fill:#A6A6A6;stroke:#A6A6A6;stroke-width:1" d="M2.5,0A2.5,2.5,0,1,1,-2.5,0A2.5,2.5,0,1,1,2.5,0" transform="translate(545.7954545454545, 245.2)" /></g><g style="fill-opacity:1;stroke-opacity:1" class="dotsgroup-child"><path style="fill:#A6A6A6;stroke:#A6A6A6;stroke-width:1" d="M2.5,0A2.5,2.5,0,1,1,-2.5,0A2.5,2.5,0,1,1,2.5,0" transform="translate(459.43181818181813, 184.48648648648648)" /></g><g style="fill-opacity:1;stroke-opacity:1" class="dotsgroup-child"><path style="fill:#A6A6A6;stroke:#A6A6A6;stroke-width:1" d="M2.5,0A2.5,2.5,0,1,1,-2.5,0A2.5,2.5,0,1,1,2.5,0" transform="translate(470.2272727272727, 282.42105263157896)" /></g><g style="fill-opacity:1;stroke-opacity:1" class="dotsgroup-child"><path style="fill:#A6A6A6;stroke:#A6A6A6;stroke-width:1" d="M2.5,0A2.5,2.5,0,1,1,-2.5,0A2.5,2.5,0,1,1,2.5,0" transform="translate(518.8068181818181, 135.0823529411765)" /></g><g style="fill-opacity:1;stroke-opacity:1" class="dotsgroup-child"><path style="fill:#A6A6A6;stroke:#A6A6A6;stroke-width:1" d="M2.5,0A2.5,2.5,0,1,1,-2.5,0A2.5,2.5,0,1,1,2.5,0" transform="translate(524.2045454545454, 302.27906976744185)" /></g></g><g class="text-labels"><g class="text-group-inner"><text style="text-anchor:middle;font-size:12px;font-family:Arial;fill:blue" x="572.7840909090909" y="20">A</text><line style="stroke:#000000;stroke-width:1;stroke-dasharray:10 0" x1="572.7840909090909" y1="25" x2="572.7840909090909" y2="157.5684210526316" /><path style="fill:#000000;stroke:#000000" d="M0,-2.632L2.28,1.316L-2.28,1.316Z" transform="translate(572.7840909090909, 157.5684210526316) rotate(-180)" /></g><g class="text-group-inner"><text style="text-anchor:middle;font-size:12px;font-family:Arial;fill:blue" x="432.44318181818176" y="20">B</text><line style="stroke:#000000;stroke-width:1;stroke-dasharray:10 0" x1="432.44318181818176" y1="25" x2="432.44318181818176" y2="298.71014492753625" /><path style="fill:#000000;stroke:#000000" d="M0,-2.632L2.28,1.316L-2.28,1.316Z" transform="translate(432.44318181818176, 298.71014492753625) rotate(-180)" /></g><g class="text-group-inner"><text style="text-anchor:middle;font-size:12px;font-family:Arial;fill:blue" x="464.82954545454544" y="20">C</text><line style="stroke:#000000;stroke-width:1;stroke-dasharray:10 0" x1="464.82954545454544" y1="25" x2="464.82954545454544" y2="170.41333333333336" /><path style="fill:#000000;stroke:#000000" d="M0,-2.632L2.28,1.316L-2.28,1.316Z" transform="translate(464.82954545454544, 170.41333333333336) rotate(-180)" /></g><g class="text-group-inner"><text style="text-anchor:middle;font-size:12px;font-family:Arial;fill:blue" x="578.1818181818182" y="20">D</text><line style="stroke:#000000;stroke-width:1;stroke-dasharray:10 0" x1="578.1818181818182" y1="25" x2="578.1818181818182" y2="276.6666666666667" /><path style="fill:#000000;stroke:#000000" d="M0,-2.632L2.28,1.316L-2.28,1.316Z" transform="translate(578.1818181818182, 276.6666666666667) rotate(-180)" /></g><g class="text-group-inner"><text style="text-anchor:middle;font-size:12px;font-family:Arial;fill:blue" x="340.68181818181813" y="20">E</text><line style="stroke:#000000;stroke-width:1;stroke-dasharray:10 0" x1="340.68181818181813" y1="25" x2="340.68181818181813" y2="-1" /><path style="fill:#000000;stroke:#000000" d="M0,-2.632L2.28,1.316L-2.28,1.316Z" transform="translate(340.68181818181813, -1) rotate(-180)" /></g><g class="text-group-inner"><text style="text-anchor:middle;font-size:12px;font-family:Arial;fill:blue" x="545.7954545454545" y="20">F</text><line style="stroke:#000000;stroke-width:1;stroke-dasharray:10 0" x1="545.7954545454545" y1="25" x2="545.7954545454545" y2="234.2" /><path style="fill:#000000;stroke:#000000" d="M0,-2.632L2.28,1.316L-2.28,1.316Z" transform="translate(545.7954545454545, 234.2) rotate(-180)" /></g><g class="text-group-inner"><text style="text-anchor:middle;font-size:12px;font-family:Arial;fill:blue" x="459.43181818181813" y="20">G</text><line style="stroke:#000000;stroke-width:1;stroke-dasharray:10 0" x1="459.43181818181813" y1="25" x2="459.43181818181813" y2="173.48648648648648" /><path style="fill:#000000;stroke:#000000" d="M0,-2.632L2.28,1.316L-2.28,1.316Z" transform="translate(459.43181818181813, 173.48648648648648) rotate(-180)" /></g><g class="text-group-inner"><text style="text-anchor:middle;font-size:12px;font-family:Arial;fill:blue" x="470.2272727272727" y="20">H</text><line style="stroke:#000000;stroke-width:1;stroke-dasharray:10 0" x1="470.2272727272727" y1="25" x2="470.2272727272727" y2="271.42105263157896" /><path style="fill:#000000;stroke:#000000" d="M0,-2.632L2.28,1.316L-2.28,1.316Z" transform="translate(470.2272727272727, 271.42105263157896) rotate(-180)" /></g><g class="text-group-inner"><text style="text-anchor:middle;font-size:12px;font-family:Arial;fill:blue" x="518.8068181818181" y="20">I</text><line style="stroke:#000000;stroke-width:1;stroke-dasharray:10 0" x1="518.8068181818181" y1="25" x2="518.8068181818181" y2="124.08235294117651" /><path style="fill:#000000;stroke:#000000" d="M0,-2.632L2.28,1.316L-2.28,1.316Z" transform="translate(518.8068181818181, 124.08235294117651) rotate(-180)" /></g><g class="text-group-inner"><text style="text-anchor:middle;font-size:12px;font-family:Arial;fill:blue" x="524.2045454545454" y="20">J</text><line style="stroke:#000000;stroke-width:1;stroke-dasharray:10 0" x1="524.2045454545454" y1="25" x2="524.2045454545454" y2="291.27906976744185" /><path style="fill:#000000;stroke:#000000" d="M0,-2.632L2.28,1.316L-2.28,1.316Z" transform="translate(524.2045454545454, 291.27906976744185) rotate(-180)" /></g></g></svg>