<svg viewBox="0 0 640 400" width="640px" height="400px" xmlns="http://www.w3.org/2000/svg"><rect x="0" y="0" width="100%" height="100%" fill="white"/><line style="stroke-opacity:0" class="ttip-line-x" x1="0" x2="0" y1="10" y2="340" stroke-width="1px" stroke="black" /><line style="stroke-opacity:0" class="ttip-line-y" x1="60" x2="630" y1="0" y2="0" stroke-width="1px" stroke="black" /><g class="xaxisgroup" fill="none" font-size="10" font-family="sans-serif" text-anchor="middle" color="#000000" transform="translate(0, 340)"><g class="xaxislabel"><text style="text-anchor:middle;font-size:10px;font-family:'Arial', sans-serif;fill:#000000" x="0" y="0" transform="translate(320, 55)">Population Size (Denominator)</text></g><path class="domain" stroke="currentColor" d="M60.5,6V0.5H630.5V6" /><g class="tick" opacity="1" transform="translate(60.5,0)"><line stroke="currentColor" y2="6" /><text style="font-size:10px;font-family:'Arial', sans-serif;fill:#000000" fill="currentColor" y="9" dy="0.71em" transform="rotate(0)" text-anchor="middle">0</text></g><g class="tick" opacity="1" transform="translate(114.47727272727272,0)"><line stroke="currentColor" y2="6" /><text style="font-size:10px;font-family:'Arial', sans-serif;fill:#000000" fill="currentColor" y="9" dy="0.71em" transform="rotate(0)" text-anchor="middle">10</text></g><g class="tick" opacity="1" transform="translate(168.45454545454544,0)"><line stroke="currentColor" y2="6" /><text style="font-size:10px;font-family:'Arial', sans-serif;fill:#000000" fill="currentColor" y="9" dy="0.71em" transform="rotate(0)" text-anchor="middle">20</text></g><g class="tick" opacity="1" transform="translate(222.4318181818182,0)"><line stroke="currentColor" y2="6" /><text style="font-size:10px;font-family:'Arial', sans-serif;fill:#000000" fill="currentColor" y="9" dy="0.71em" transform="rotate(0)" text-anchor="middle">30</text></g><g class="tick" opacity="1" transform="translate(276.4090909090909,0)"><line stroke="currentColor" y2="6" /><text style="font-size:10px;font-family:'Arial', sans-serif;fill:#000000" fill="currentColor" y="9" dy="0.71em" transform="rotate(0)" text-anchor="middle">40</text></g><g class="tick" opacity="1" transform="translate(330.3863636363636,0)"><line stroke="currentColor" y2="6" /><text style="font-size:10px;font-family:'Arial', sans-serif;fill:#000000" fill="currentColor" y="9" dy="0.71em" transform="rotate(0)" text-anchor="middle">50</text></g><g class="tick" opacity="1" transform="translate(384.3636363636364,0)"><line stroke="currentColor" y2="6" /><text style="font-size:10px;font-family:'Arial', sans-serif;fill:#000000" fill="currentColor" y="9" dy="0.71em" transform="rotate(0)" text-anchor="middle">60</text></g><g class="tick" opacity="1" transform="translate(438.34090909090907,0)"><line stroke="currentColor" y2="6" /><text style="font-size:10px;font-family:'Arial', sans-serif;fill:#000000" fill="currentColor" y="9" dy="0.71em" transform="rotate(0)" text-anchor="middle">70</text></g><g class="tick" opacity="1" transform="translate(492.3181818181818,0)"><line stroke="currentColor" y2="6" /><text style="font-size:10px;font-family:'Arial', sans-serif;fill:#000000" fill="currentColor" y="9" dy="0.71em" transform="rotate(0)" text-anchor="middle">80</text></g><g class="tick" opacity="1" transform="translate(546.2954545454545,0)"><line stroke="currentColor" y2="6" /><text style="font-size:10px;font-family:'Arial', sans-serif;fill:#000000" fill="currentColor" y="9" dy="0.71em" transform="rotate(0)" text-anchor="middle">90</text></g><g class="tick" opacity="1" transform="translate(600.2727272727271,0)"><line stroke="currentColor" y2="6" /><text style="font-size:10px;font-family:'Arial', sans-serif;fill:#000000" fill="currentColor" y="9" dy="0.71em" transform="rotate(0)" text-anchor="middle">100</text></g></g><g class="yaxisgroup" fill="none" font-size="10" font-family="sans-serif" text-anchor="end" color="#000000" transform="translate(60, 0)"><g class="yaxislabel"><text style="text-anchor:middle;font-size:10px;font-family:'Arial', sans-serif;fill:#000000" x="-45" y="200" transform="rotate(-90, -45, 200)" /></g><path class="domain" stroke="currentColor" d="M-6,340.5H0.5V10.5H-6" /><g class="tick" opacity="1" transform="translate(0,340.5)"><line stroke="currentColor" x2="-6" /><text style="text-anchor:right;font-size:10px;font-family:'Arial', sans-serif;fill:#000000" fill="currentColor" x="-9" dy="0.32em" transform="rotate(0)">0.00%</text></g><g class="tick" opacity="1" transform="translate(0,302.3666666666667)"><line stroke="currentColor" x2="-6" /><text style="text-anchor:right;font-size:10px;font-family:'Arial', sans-serif;fill:#000000" fill="currentColor" x="-9" dy="0.32em" transform="rotate(0)">10.00%</text></g><g class="tick" opacity="1" transform="translate(0,264.23333333333335)"><line stroke="currentColor" x2="-6" /><text style="text-anchor:right;font-size:10px;font-family:'Arial', sans-serif;fill:#000000" fill="currentColor" x="-9" dy="0.32em" transform="rotate(0)">20.00%</text></g><g class="tick" opacity="1" transform="translate(0,226.1)"><line stroke="currentColor" x2="-6" /><text style="text-anchor:right;font-size:10px;font-family:'Arial', sans-serif;fill:#000000" fill="currentColor" x="-9" dy="0.32em" transform="rotate(0)">30.00%</text></g><g class="tick" opacity="1" transform="translate(0,187.9666666666667)"><line stroke="currentColor" x2="-6" /><text style="text-anchor:right;font-size:10px;font-family:'Arial', sans-serif;fill:#000000" fill="currentColor" x="-9" dy="0.32em" transform="rotate(0)">40.00%</text></g><g class="tick" opacity="1" transform="translate(0,149.83333333333334)"><line stroke="currentColor" x2="-6" /><text style="text-anchor:right;font-size:10px;font-family:'Arial', sans-serif;fill:#000000" fill="currentColor" x="-9" dy="0.32em" transform="rotate(0)">50.00%</text></g><g class="tick" opacity="1" transform="translate(0,111.70000000000003)"><line stroke="currentColor" x2="-6" /><text style="text-anchor:right;font-size:10px;font-family:'Arial', sans-serif;fill:#000000" fill="currentColor" x="-9" dy="0.32em" transform="rotate(0)">60.00%</text></g><g class="tick" opacity="1" transform="translate(0,73.5666666666667)"><line stroke="currentColor" x2="-6" /><text style="text-anchor:right;font-size:10px;font-family:'Arial', sans-serif;fill:#000000" fill="currentColor" x="-9" dy="0.32em" transform="rotate(0)">70.00%</text></g><g class="tick" opacity="1" transform="translate(0,35.43333333333335)"><line stroke="currentColor" x2="-6" /><text style="text-anchor:right;font-size:10px;font-family:'Arial', sans-serif;fill:#000000" fill="currentColor" x="-9" dy="0.32em" transform="rotate(0)">80.00%</text></g></g><g class="linesgroup"><path style="stroke-opacity:1" d="M65.398,200.464L70.58,200.464L75.761,200.464L80.943,200.464L86.125,200.464L91.307,200.464L96.489,200.464L101.67,200.464L106.852,200.464L112.034,200.464L117.216,200.464L122.398,200.464L127.58,200.464L132.761,200.464L137.943,200.464L143.125,200.464L148.307,200.464L153.489,200.464L158.67,200.464L163.852,200.464L169.034,200.464L174.216,200.464L179.398,200.464L184.58,200.464L189.761,200.464L194.943,200.464L200.125,200.464L205.307,200.464L210.489,200.464L215.67,200.464L220.852,200.464L226.034,200.464L231.216,200.464L236.398,200.464L241.58,200.464L246.761,200.464L251.943,200.464L257.125,200.464L262.307,200.464L267.489,200.464L272.67,200.464L277.852,200.464L283.034,200.464L288.216,200.464L293.398,200.464L298.58,200.464L303.761,200.464L308.943,200.464L314.125,200.464L319.307,200.464L324.489,200.464L329.67,200.464L334.852,200.464L340.034,200.464L340.682,200.464L345.216,200.464L350.398,200.464L355.58,200.464L360.761,200.464L365.943,200.464L371.125,200.464L376.307,200.464L381.489,200.464L386.67,200.464L391.852,200.464L397.034,200.464L402.216,200.464L407.398,200.464L412.58,200.464L417.761,200.464L422.943,200.464L428.125,200.464L432.443,200.464L433.307,200.464L438.489,200.464L443.67,200.464L448.852,200.464L454.034,200.464L459.216,200.464L459.432,200.464L464.398,200.464L464.83,200.464L469.58,200.464L470.227,200.464L474.761,200.464L479.943,200.464L485.125,200.464L490.307,200.464L495.489,200.464L500.67,200.464L505.852,200.464L511.034,200.464L516.216,200.464L518.807,200.464L521.398,200.464L524.205,200.464L526.58,200.464L531.761,200.464L536.943,200.464L542.125,200.464L545.795,200.464L547.307,200.464L552.489,200.464L557.67,200.464L562.852,200.464L568.034,200.464L572.784,200.464L573.216,200.464L578.182,200.464L578.398,200.464L583.58,200.464L588.761,200.464L593.943,200.464L599.125,200.464L604.307,200.464L609.489,200.464L614.67,200.464L619.852,200.464" fill="none" stroke="#000000" stroke-width="1.5" stroke-dasharray="10 0" /><path style="stroke-opacity:1" d="M91.307,339.975L96.489,338.832L101.67,336.672L106.852,334.053L112.034,331.257L117.216,328.431L122.398,325.653L127.58,322.963L132.761,320.381L137.943,317.915L143.125,315.565L148.307,313.329L153.489,311.203L158.67,309.181L163.852,307.256L169.034,305.423L174.216,303.676L179.398,302.009L184.58,300.418L189.761,298.896L194.943,297.44L200.125,296.045L205.307,294.707L210.489,293.423L215.67,292.19L220.852,291.004L226.034,289.862L231.216,288.762L236.398,287.701L241.58,286.678L246.761,285.69L251.943,284.735L257.125,283.811L262.307,282.918L267.489,282.052L272.67,281.213L277.852,280.4L283.034,279.61L288.216,278.844L293.398,278.1L298.58,277.377L303.761,276.674L308.943,275.989L314.125,275.323L319.307,274.675L324.489,274.043L329.67,273.427L334.852,272.827L340.034,272.241L340.682,272.169L345.216,271.669L350.398,271.111L355.58,270.566L360.761,270.034L365.943,269.513L371.125,269.005L376.307,268.507L381.489,268.02L386.67,267.544L391.852,267.077L397.034,266.621L402.216,266.173L407.398,265.735L412.58,265.306L417.761,264.885L422.943,264.472L428.125,264.067L432.443,263.735L433.307,263.67L438.489,263.28L443.67,262.897L448.852,262.521L454.034,262.153L459.216,261.79L459.432,261.775L464.398,261.434L464.83,261.405L469.58,261.085L470.227,261.041L474.761,260.741L479.943,260.403L485.125,260.071L490.307,259.744L495.489,259.423L500.67,259.107L505.852,258.796L511.034,258.49L516.216,258.189L518.807,258.04L521.398,257.892L524.205,257.734L526.58,257.6L531.761,257.313L536.943,257.03L542.125,256.751L545.795,256.556L547.307,256.476L552.489,256.205L557.67,255.939L562.852,255.676L568.034,255.417L572.784,255.182L573.216,255.161L578.182,254.919L578.398,254.909L583.58,254.661L588.761,254.415L593.943,254.174L599.125,253.935L604.307,253.7L609.489,253.468L614.67,253.239L619.852,253.012" fill="none" stroke="#6495ED" stroke-width="2" stroke-dasharray="10 10" /><path style="stroke-opacity:1" d="M106.852,15.594L112.034,23.066L117.216,29.79L122.398,35.866L127.58,41.383L132.761,46.414L137.943,51.023L143.125,55.262L148.307,59.177L153.489,62.806L158.67,66.18L163.852,69.327L169.034,72.271L174.216,75.032L179.398,77.628L184.58,80.075L189.761,82.385L194.943,84.572L200.125,86.645L205.307,88.614L210.489,90.486L215.67,92.271L220.852,93.973L226.034,95.6L231.216,97.156L236.398,98.647L241.58,100.076L246.761,101.449L251.943,102.767L257.125,104.036L262.307,105.258L267.489,106.436L272.67,107.571L277.852,108.668L283.034,109.727L288.216,110.752L293.398,111.743L298.58,112.703L303.761,113.632L308.943,114.534L314.125,115.408L319.307,116.257L324.489,117.082L329.67,117.883L334.852,118.662L340.034,119.42L340.682,119.513L345.216,120.157L350.398,120.875L355.58,121.575L360.761,122.257L365.943,122.921L371.125,123.57L376.307,124.202L381.489,124.82L386.67,125.423L391.852,126.012L397.034,126.587L402.216,127.15L407.398,127.7L412.58,128.239L417.761,128.765L422.943,129.281L428.125,129.786L432.443,130.198L433.307,130.28L438.489,130.764L443.67,131.239L448.852,131.704L454.034,132.16L459.216,132.607L459.432,132.626L464.398,133.046L464.83,133.082L469.58,133.477L470.227,133.53L474.761,133.899L479.943,134.314L485.125,134.721L490.307,135.121L495.489,135.513L500.67,135.899L505.852,136.278L511.034,136.651L516.216,137.017L518.807,137.198L521.398,137.377L524.205,137.57L526.58,137.732L531.761,138.08L536.943,138.423L542.125,138.76L545.795,138.996L547.307,139.092L552.489,139.418L557.67,139.74L562.852,140.057L568.034,140.368L572.784,140.65L573.216,140.675L578.182,140.965L578.398,140.978L583.58,141.276L588.761,141.569L593.943,141.859L599.125,142.144L604.307,142.425L609.489,142.702L614.67,142.975L619.852,143.245" fill="none" stroke="#6495ED" stroke-width="2" stroke-dasharray="10 10" /><path style="stroke-opacity:1" d="M70.58,339.035L75.761,337.792L80.943,331.241L86.125,324.318L91.307,317.969L96.489,312.331L101.67,307.351L106.852,302.941L112.034,299.014L117.216,295.494L122.398,292.32L127.58,289.44L132.761,286.814L137.943,284.408L143.125,282.192L148.307,280.143L153.489,278.241L158.67,276.47L163.852,274.816L169.034,273.266L174.216,271.81L179.398,270.438L184.58,269.144L189.761,267.919L194.943,266.759L200.125,265.657L205.307,264.608L210.489,263.609L215.67,262.656L220.852,261.745L226.034,260.874L231.216,260.039L236.398,259.238L241.58,258.469L246.761,257.73L251.943,257.018L257.125,256.333L262.307,255.672L267.489,255.035L272.67,254.419L277.852,253.824L283.034,253.249L288.216,252.691L293.398,252.152L298.58,251.629L303.761,251.121L308.943,250.629L314.125,250.15L319.307,249.686L324.489,249.234L329.67,248.795L334.852,248.367L340.034,247.951L340.682,247.9L345.216,247.545L350.398,247.15L355.58,246.765L360.761,246.389L365.943,246.022L371.125,245.664L376.307,245.315L381.489,244.973L386.67,244.64L391.852,244.313L397.034,243.994L402.216,243.682L407.398,243.376L412.58,243.077L417.761,242.785L422.943,242.498L428.125,242.217L432.443,241.987L433.307,241.942L438.489,241.672L443.67,241.407L448.852,241.147L454.034,240.893L459.216,240.643L459.432,240.632L464.398,240.397L464.83,240.377L469.58,240.157L470.227,240.127L474.761,239.92L479.943,239.688L485.125,239.46L490.307,239.236L495.489,239.015L500.67,238.799L505.852,238.586L511.034,238.376L516.216,238.17L518.807,238.069L521.398,237.968L524.205,237.859L526.58,237.769L531.761,237.572L536.943,237.379L542.125,237.189L545.795,237.056L547.307,237.002L552.489,236.818L557.67,236.636L562.852,236.458L568.034,236.281L572.784,236.122L573.216,236.108L578.182,235.944L578.398,235.937L583.58,235.768L588.761,235.602L593.943,235.438L599.125,235.277L604.307,235.117L609.489,234.96L614.67,234.805L619.852,234.652" fill="none" stroke="#6495ED" stroke-width="2" stroke-dasharray="2 5" /><path style="stroke-opacity:1" d="M80.943,23.106L86.125,38.643L91.307,50.923L96.489,60.892L101.67,69.172L106.852,76.181L112.034,82.208L117.216,87.458L122.398,92.084L127.58,96.197L132.761,99.886L137.943,103.218L143.125,106.246L148.307,109.013L153.489,111.555L158.67,113.901L163.852,116.073L169.034,118.092L174.216,119.976L179.398,121.739L184.58,123.392L189.761,124.947L194.943,126.414L200.125,127.799L205.307,129.111L210.489,130.355L215.67,131.537L220.852,132.663L226.034,133.736L231.216,134.76L236.398,135.739L241.58,136.676L246.761,137.575L251.943,138.437L257.125,139.264L262.307,140.061L267.489,140.827L272.67,141.565L277.852,142.277L283.034,142.964L288.216,143.627L293.398,144.268L298.58,144.889L303.761,145.489L308.943,146.071L314.125,146.635L319.307,147.182L324.489,147.712L329.67,148.228L334.852,148.729L340.034,149.215L340.682,149.275L345.216,149.689L350.398,150.15L355.58,150.598L360.761,151.035L365.943,151.461L371.125,151.876L376.307,152.281L381.489,152.676L386.67,153.061L391.852,153.438L397.034,153.805L402.216,154.165L407.398,154.516L412.58,154.859L417.761,155.195L422.943,155.524L428.125,155.846L432.443,156.108L433.307,156.161L438.489,156.469L443.67,156.771L448.852,157.067L454.034,157.357L459.216,157.642L459.432,157.654L464.398,157.921L464.83,157.944L469.58,158.195L470.227,158.229L474.761,158.463L479.943,158.727L485.125,158.985L490.307,159.239L495.489,159.489L500.67,159.734L505.852,159.974L511.034,160.211L516.216,160.443L518.807,160.558L521.398,160.672L524.205,160.794L526.58,160.897L531.761,161.118L536.943,161.335L542.125,161.549L545.795,161.698L547.307,161.759L552.489,161.966L557.67,162.17L562.852,162.37L568.034,162.568L572.784,162.746L573.216,162.762L578.182,162.946L578.398,162.954L583.58,163.143L588.761,163.328L593.943,163.512L599.125,163.692L604.307,163.87L609.489,164.045L614.67,164.218L619.852,164.389" fill="none" stroke="#6495ED" stroke-width="2" stroke-dasharray="2 5" /><text x="619.8522727272715" y="200.46449456975776" fill="#000000" font-size="10px" font-family="'Arial', sans-serif" text-anchor="start" dx="10px" dy="0px" /><text x="619.8522727272715" y="253.0123937243035" fill="#000000" font-size="10px" font-family="'Arial', sans-serif" text-anchor="start" dx="10px" dy="0px" /><text x="619.8522727272715" y="143.24494100671313" fill="#000000" font-size="10px" font-family="'Arial', sans-serif" text-anchor="start" dx="10px" dy="0px" /><text x="619.8522727272715" y="234.65241566475882" fill="#000000" font-size="10px" font-family="'Arial', sans-serif" text-anchor="start" dx="10px" dy="0px" /><text x="619.8522727272715" y="164.38867555073182" fill="#000000" font-size="10px" font-family="'Arial', sans-serif" text-anchor="start" dx="10px" dy="0px" /></g><g class="dotsgroup"><g style="fill-opacity:1;stroke-opacity:1" class="dotsgroup-child"><path style="fill:#A6A6A6;stroke:#A6A6A6;stroke-width:1" d="M2.5,0A2.5,2.5,0,1,1,-2.5,0A2.5,2.5,0,1,1,2.5,0" transform="translate(572.7840909090909, 155.3543859649123)" /></g><g style="fill-opacity:1;stroke-opacity:1" class="dotsgroup-child"><path style="fill:#A6A6A6;stroke:#A6A6A6;stroke-width:1" d="M2.5,0A2.5,2.5,0,1,1,-2.5,0A2.5,2.5,0,1,1,2.5,0" transform="translate(432.44318181818176, 284.7342995169082)" /></g><g style="fill-opacity:1;stroke-opacity:1" class="dotsgroup-child"><path style="fill:#A6A6A6;stroke:#A6A6A6;stroke-width:1" d="M2.5,0A2.5,2.5,0,1,1,-2.5,0A2.5,2.5,0,1,1,2.5,0" transform="translate(464.82954545454544, 167.12888888888892)" /></g><g style="fill-opacity:1;stroke-opacity:1" class="dotsgroup-child"><path style="fill:#A6A6A6;stroke:#A6A6A6;stroke-width:1" d="M2.5,0A2.5,2.5,0,1,1,-2.5,0A2.5,2.5,0,1,1,2.5,0" transform="translate(578.1818181818182, 264.52777777777777)" /></g><g style="fill-opacity:1;stroke-opacity:1" class="dotsgroup-child"><path style="fill:#A6A6A6;stroke:#A6A6A6;stroke-width:1" d="M2.5,0A2.5,2.5,0,1,1,-2.5,0A2.5,2.5,0,1,1,2.5,0" transform="translate(340.68181818181813, 10)" /></g><g style="fill-opacity:1;stroke-opacity:1" class="dotsgroup-child"><path style="fill:#A6A6A6;stroke:#A6A6A6;stroke-width:1" d="M2.5,0A2.5,2.5,0,1,1,-2.5,0A2.5,2.5,0,1,1,2.5,0" transform="translate(545.7954545454545, 225.6)" /></g><g style="fill-opacity:1;stroke-opacity:1" class="dotsgroup-child"><path style="fill:#A6A6A6;stroke:#A6A6A6;stroke-width:1" d="M2.5,0A2.5,2.5,0,1,1,-2.5,0A2.5,2.5,0,1,1,2.5,0" transform="translate(459.43181818181813, 169.94594594594594)" /></g><g style="fill-opacity:1;stroke-opacity:1" class="dotsgroup-child"><path style="fill:#A6A6A6;stroke:#A6A6A6;stroke-width:1" d="M2.5,0A2.5,2.5,0,1,1,-2.5,0A2.5,2.5,0,1,1,2.5,0" transform="translate(470.2272727272727, 259.7192982456141)" /></g><g style="fill-opacity:1;stroke-opacity:1" class="dotsgroup-child"><path style="fill:#A6A6A6;stroke:#A6A6A6;stroke-width:1" d="M2.5,0A2.5,2.5,0,1,1,-2.5,0A2.5,2.5,0,1,1,2.5,0" transform="translate(518.8068181818181, 124.65882352941179)" /></g><g style="fill-opacity:1;stroke-opacity:1" class="dotsgroup-child"><path style="fill:#A6A6A6;stroke:#A6A6A6;stroke-width:1" d="M2.5,0A2.5,2.5,0,1,1,-2.5,0A2.5,2.5,0,1,1,2.5,0" transform="translate(524.2045454545454, 277.92248062015506)" /></g></g></svg>