<svg viewBox="0 0 640 400" width="640px" height="400px" xmlns="http://www.w3.org/2000/svg"><rect x="0" y="0" width="100%" height="100%" fill="white"/><line style="stroke-opacity:0" class="ttip-line-x" x1="0" x2="0" y1="10" y2="330" stroke-width="1px" stroke="black" /><line style="stroke-opacity:0" class="ttip-line-y" x1="60" x2="630" y1="0" y2="0" stroke-width="1px" stroke="black" /><g class="xaxisgroup" fill="none" font-size="10" font-family="sans-serif" text-anchor="middle" color="#000000" transform="translate(0, 330)"><path class="domain" stroke="currentColor" d="M60.5,6V0.5H630.5V6" /><g class="tick" opacity="1" transform="translate(60.5,0)"><line stroke="currentColor" y2="6" /><text style="text-anchor:end;font-size:10px;font-family:'Arial', sans-serif;fill:#000000" fill="currentColor" y="9" dy="-.15em" dx="-.8em" transform="rotate(-45)"> 01/01/2023</text></g><g class="tick" opacity="1" transform="translate(112.31818181818181,0)"><line stroke="currentColor" y2="6" /><text style="text-anchor:end;font-size:10px;font-family:'Arial', sans-serif;fill:#000000" fill="currentColor" y="9" dy="-.15em" dx="-.8em" transform="rotate(-45)"> 01/02/2023</text></g><g class="tick" opacity="1" transform="translate(164.13636363636363,0)"><line stroke="currentColor" y2="6" /><text style="text-anchor:end;font-size:10px;font-family:'Arial', sans-serif;fill:#000000" fill="currentColor" y="9" dy="-.15em" dx="-.8em" transform="rotate(-45)"> 01/03/2023</text></g><g class="tick" opacity="1" transform="translate(215.95454545454544,0)"><line stroke="currentColor" y2="6" /><text style="text-anchor:end;font-size:10px;font-family:'Arial', sans-serif;fill:#000000" fill="currentColor" y="9" dy="-.15em" dx="-.8em" transform="rotate(-45)"> 01/04/2023</text></g><g class="tick" opacity="1" transform="translate(267.77272727272725,0)"><line stroke="currentColor" y2="6" /><text style="text-anchor:end;font-size:10px;font-family:'Arial', sans-serif;fill:#000000" fill="currentColor" y="9" dy="-.15em" dx="-.8em" transform="rotate(-45)"> 01/05/2023</text></g><g class="tick" opacity="1" transform="translate(319.5909090909091,0)"><line stroke="currentColor" y2="6" /><text style="text-anchor:end;font-size:10px;font-family:'Arial', sans-serif;fill:#000000" fill="currentColor" y="9" dy="-.15em" dx="-.8em" transform="rotate(-45)"> 01/06/2023</text></g><g class="tick" opacity="1" transform="translate(371.4090909090909,0)"><line stroke="currentColor" y2="6" /><text style="text-anchor:end;font-size:10px;font-family:'Arial', sans-serif;fill:#000000" fill="currentColor" y="9" dy="-.15em" dx="-.8em" transform="rotate(-45)"> 01/07/2023</text></g><g class="tick" opacity="1" transform="translate(423.2272727272727,0)"><line stroke="currentColor" y2="6" /><text style="text-anchor:end;font-size:10px;font-family:'Arial', sans-serif;fill:#000000" fill="currentColor" y="9" dy="-.15em" dx="-.8em" transform="rotate(-45)"> 01/08/2023</text></g><g class="tick" opacity="1" transform="translate(475.04545454545456,0)"><line stroke="currentColor" y2="6" /><text style="text-anchor:end;font-size:10px;font-family:'Arial', sans-serif;fill:#000000" fill="currentColor" y="9" dy="-.15em" dx="-.8em" transform="rotate(-45)"> 01/09/2023</text></g><g class="tick" opacity="1" transform="translate(526.8636363636364,0)"><line stroke="currentColor" y2="6" /><text style="text-anchor:end;font-size:10px;font-family:'Arial', sans-serif;fill:#000000" fill="currentColor" y="9" dy="-.15em" dx="-.8em" transform="rotate(-45)"> 01/10/2023</text></g><g class="tick" opacity="1" transform="translate(578.6818181818182,0)"><line stroke="currentColor" y2="6" /><text style="text-anchor:end;font-size:10px;font-family:'Arial', sans-serif;fill:#000000" fill="currentColor" y="9" dy="-.15em" dx="-.8em" transform="rotate(-45)"> 01/11/2023</text></g><g class="tick" opacity="1" transform="translate(630.5,0)"><line stroke="currentColor" y2="6" /><text style="text-anchor:end;font-size:10px;font-family:'Arial', sans-serif;fill:#000000" fill="currentColor" y="9" dy="-.15em" dx="-.8em" transform="rotate(-45)"> 01/12/2023</text></g></g><text style="text-anchor:middle;font-size:10px;font-family:'Arial', sans-serif;fill:#000000" class="xaxislabel" x="320" y="376.6666666666667">Month of Observation</text><g class="yaxisgroup" fill="none" font-size="10" font-family="sans-serif" text-anchor="end" color="#000000" transform="translate(60, 0)"><path class="domain" stroke="currentColor" d="M-6,330.5H0.5V10.5H-6" /><g class="tick" opacity="1" transform="translate(0,305.2772137619853)"><line stroke="currentColor" x2="-6" /><text style="text-anchor:right;font-size:10px;font-family:'Arial', sans-serif;fill:#000000" fill="currentColor" x="-9" dy="0.32em" transform="rotate(0)">8.00</text></g><g class="tick" opacity="1" transform="translate(0,279.8288212069938)"><line stroke="currentColor" x2="-6" /><text style="text-anchor:right;font-size:10px;font-family:'Arial', sans-serif;fill:#000000" fill="currentColor" x="-9" dy="0.32em" transform="rotate(0)">10.00</text></g><g class="tick" opacity="1" transform="translate(0,254.38042865200222)"><line stroke="currentColor" x2="-6" /><text style="text-anchor:right;font-size:10px;font-family:'Arial', sans-serif;fill:#000000" fill="currentColor" x="-9" dy="0.32em" transform="rotate(0)">12.00</text></g><g class="tick" opacity="1" transform="translate(0,228.93203609701067)"><line stroke="currentColor" x2="-6" /><text style="text-anchor:right;font-size:10px;font-family:'Arial', sans-serif;fill:#000000" fill="currentColor" x="-9" dy="0.32em" transform="rotate(0)">14.00</text></g><g class="tick" opacity="1" transform="translate(0,203.48364354201914)"><line stroke="currentColor" x2="-6" /><text style="text-anchor:right;font-size:10px;font-family:'Arial', sans-serif;fill:#000000" fill="currentColor" x="-9" dy="0.32em" transform="rotate(0)">16.00</text></g><g class="tick" opacity="1" transform="translate(0,178.0352509870276)"><line stroke="currentColor" x2="-6" /><text style="text-anchor:right;font-size:10px;font-family:'Arial', sans-serif;fill:#000000" fill="currentColor" x="-9" dy="0.32em" transform="rotate(0)">18.00</text></g><g class="tick" opacity="1" transform="translate(0,152.58685843203608)"><line stroke="currentColor" x2="-6" /><text style="text-anchor:right;font-size:10px;font-family:'Arial', sans-serif;fill:#000000" fill="currentColor" x="-9" dy="0.32em" transform="rotate(0)">20.00</text></g><g class="tick" opacity="1" transform="translate(0,127.13846587704452)"><line stroke="currentColor" x2="-6" /><text style="text-anchor:right;font-size:10px;font-family:'Arial', sans-serif;fill:#000000" fill="currentColor" x="-9" dy="0.32em" transform="rotate(0)">22.00</text></g><g class="tick" opacity="1" transform="translate(0,101.690073322053)"><line stroke="currentColor" x2="-6" /><text style="text-anchor:right;font-size:10px;font-family:'Arial', sans-serif;fill:#000000" fill="currentColor" x="-9" dy="0.32em" transform="rotate(0)">24.00</text></g><g class="tick" opacity="1" transform="translate(0,76.24168076706144)"><line stroke="currentColor" x2="-6" /><text style="text-anchor:right;font-size:10px;font-family:'Arial', sans-serif;fill:#000000" fill="currentColor" x="-9" dy="0.32em" transform="rotate(0)">26.00</text></g><g class="tick" opacity="1" transform="translate(0,50.79328821206992)"><line stroke="currentColor" x2="-6" /><text style="text-anchor:right;font-size:10px;font-family:'Arial', sans-serif;fill:#000000" fill="currentColor" x="-9" dy="0.32em" transform="rotate(0)">28.00</text></g><g class="tick" opacity="1" transform="translate(0,25.34489565707836)"><line stroke="currentColor" x2="-6" /><text style="text-anchor:right;font-size:10px;font-family:'Arial', sans-serif;fill:#000000" fill="currentColor" x="-9" dy="0.32em" transform="rotate(0)">30.00</text></g></g><text style="text-anchor:middle;font-size:10px;font-family:'Arial', sans-serif;fill:#000000" class="yaxislabel" x="30" y="200" transform="rotate(-90, 30, 200)" /><g class="linesgroup"><g style="stroke-opacity:1" class="linegroup"><line x1="60" y1="279.3288212069938" x2="111.81818181818181" y2="253.88042865200222" fill="none" stroke="#A6A6A6" stroke-width="1" stroke-dasharray="10 0" stroke-dashoffset="0" /><line x1="111.81818181818181" y1="253.88042865200222" x2="163.63636363636363" y2="266.60462492949796" fill="none" stroke="#A6A6A6" stroke-width="1" stroke-dasharray="10 0" stroke-dashoffset="51.81818181818181" /><line x1="163.63636363636363" y1="266.60462492949796" x2="215.45454545454544" y2="215.70783981951493" fill="none" stroke="#A6A6A6" stroke-width="1" stroke-dasharray="10 0" stroke-dashoffset="103.63636363636363" /><line x1="215.45454545454544" y1="215.70783981951493" x2="267.27272727272725" y2="253.88042865200222" fill="none" stroke="#A6A6A6" stroke-width="1" stroke-dasharray="10 0" stroke-dashoffset="155.45454545454544" /><line x1="267.27272727272725" y1="253.88042865200222" x2="319.0909090909091" y2="266.60462492949796" fill="none" stroke="#A6A6A6" stroke-width="1" stroke-dasharray="10 0" stroke-dashoffset="207.27272727272725" /><line x1="319.0909090909091" y1="266.60462492949796" x2="370.9090909090909" y2="88.46587704455722" fill="none" stroke="#A6A6A6" stroke-width="1" stroke-dasharray="10 0" stroke-dashoffset="259.0909090909091" /><line x1="370.9090909090909" y1="88.46587704455722" x2="422.7272727272727" y2="253.88042865200222" fill="none" stroke="#A6A6A6" stroke-width="1" stroke-dasharray="10 0" stroke-dashoffset="310.9090909090909" /><line x1="422.7272727272727" y1="253.88042865200222" x2="474.54545454545456" y2="266.60462492949796" fill="none" stroke="#A6A6A6" stroke-width="1" stroke-dasharray="10 0" stroke-dashoffset="362.7272727272727" /><line x1="474.54545454545456" y1="266.60462492949796" x2="526.3636363636364" y2="279.3288212069938" fill="none" stroke="#A6A6A6" stroke-width="1" stroke-dasharray="10 0" stroke-dashoffset="414.54545454545456" /><line x1="526.3636363636364" y1="279.3288212069938" x2="578.1818181818182" y2="266.60462492949796" fill="none" stroke="#A6A6A6" stroke-width="1" stroke-dasharray="10 0" stroke-dashoffset="466.3636363636364" /><line x1="578.1818181818182" y1="266.60462492949796" x2="630" y2="253.88042865200222" fill="none" stroke="#A6A6A6" stroke-width="1" stroke-dasharray="10 0" stroke-dashoffset="518.1818181818182" /></g><g style="stroke-opacity:1" class="linegroup"><line x1="60" y1="245.39763113367172" x2="111.81818181818181" y2="245.39763113367172" fill="none" stroke="#000000" stroke-width="1.5" stroke-dasharray="10 0" stroke-dashoffset="0" /><line x1="111.81818181818181" y1="245.39763113367172" x2="163.63636363636363" y2="245.39763113367172" fill="none" stroke="#000000" stroke-width="1.5" stroke-dasharray="10 0" stroke-dashoffset="51.81818181818181" /><line x1="163.63636363636363" y1="245.39763113367172" x2="215.45454545454544" y2="245.39763113367172" fill="none" stroke="#000000" stroke-width="1.5" stroke-dasharray="10 0" stroke-dashoffset="103.63636363636363" /><line x1="215.45454545454544" y1="245.39763113367172" x2="267.27272727272725" y2="245.39763113367172" fill="none" stroke="#000000" stroke-width="1.5" stroke-dasharray="10 0" stroke-dashoffset="155.45454545454544" /><line x1="267.27272727272725" y1="245.39763113367172" x2="319.0909090909091" y2="245.39763113367172" fill="none" stroke="#000000" stroke-width="1.5" stroke-dasharray="10 0" stroke-dashoffset="207.27272727272725" /><line x1="319.0909090909091" y1="245.39763113367172" x2="370.9090909090909" y2="245.39763113367172" fill="none" stroke="#000000" stroke-width="1.5" stroke-dasharray="10 0" stroke-dashoffset="259.0909090909091" /><line x1="370.9090909090909" y1="245.39763113367172" x2="422.7272727272727" y2="245.39763113367172" fill="none" stroke="#000000" stroke-width="1.5" stroke-dasharray="10 0" stroke-dashoffset="310.9090909090909" /><line x1="422.7272727272727" y1="245.39763113367172" x2="474.54545454545456" y2="245.39763113367172" fill="none" stroke="#000000" stroke-width="1.5" stroke-dasharray="10 0" stroke-dashoffset="362.7272727272727" /><line x1="474.54545454545456" y1="245.39763113367172" x2="526.3636363636364" y2="245.39763113367172" fill="none" stroke="#000000" stroke-width="1.5" stroke-dasharray="10 0" stroke-dashoffset="414.54545454545456" /><line x1="526.3636363636364" y1="245.39763113367172" x2="578.1818181818182" y2="245.39763113367172" fill="none" stroke="#000000" stroke-width="1.5" stroke-dasharray="10 0" stroke-dashoffset="466.3636363636364" /><line x1="578.1818181818182" y1="245.39763113367172" x2="630" y2="245.39763113367172" fill="none" stroke="#000000" stroke-width="1.5" stroke-dasharray="10 0" stroke-dashoffset="518.1818181818182" /></g><g style="stroke-opacity:1" class="linegroup"><line x1="60" y1="301.7992103778906" x2="111.81818181818181" y2="301.7992103778906" fill="none" stroke="#6495ED" stroke-width="2" stroke-dasharray="10 10" stroke-dashoffset="0" /><line x1="111.81818181818181" y1="301.7992103778906" x2="163.63636363636363" y2="301.7992103778906" fill="none" stroke="#6495ED" stroke-width="2" stroke-dasharray="10 10" stroke-dashoffset="51.81818181818181" /><line x1="163.63636363636363" y1="301.7992103778906" x2="215.45454545454544" y2="301.7992103778906" fill="none" stroke="#6495ED" stroke-width="2" stroke-dasharray="10 10" stroke-dashoffset="103.63636363636363" /><line x1="215.45454545454544" y1="301.7992103778906" x2="267.27272727272725" y2="301.7992103778906" fill="none" stroke="#6495ED" stroke-width="2" stroke-dasharray="10 10" stroke-dashoffset="155.45454545454544" /><line x1="267.27272727272725" y1="301.7992103778906" x2="319.0909090909091" y2="301.7992103778906" fill="none" stroke="#6495ED" stroke-width="2" stroke-dasharray="10 10" stroke-dashoffset="207.27272727272725" /><line x1="319.0909090909091" y1="301.7992103778906" x2="370.9090909090909" y2="301.7992103778906" fill="none" stroke="#6495ED" stroke-width="2" stroke-dasharray="10 10" stroke-dashoffset="259.0909090909091" /><line x1="370.9090909090909" y1="301.7992103778906" x2="422.7272727272727" y2="301.7992103778906" fill="none" stroke="#6495ED" stroke-width="2" stroke-dasharray="10 10" stroke-dashoffset="310.9090909090909" /><line x1="422.7272727272727" y1="301.7992103778906" x2="474.54545454545456" y2="301.7992103778906" fill="none" stroke="#6495ED" stroke-width="2" stroke-dasharray="10 10" stroke-dashoffset="362.7272727272727" /><line x1="474.54545454545456" y1="301.7992103778906" x2="526.3636363636364" y2="301.7992103778906" fill="none" stroke="#6495ED" stroke-width="2" stroke-dasharray="10 10" stroke-dashoffset="414.54545454545456" /><line x1="526.3636363636364" y1="301.7992103778906" x2="578.1818181818182" y2="301.7992103778906" fill="none" stroke="#6495ED" stroke-width="2" stroke-dasharray="10 10" stroke-dashoffset="466.3636363636364" /><line x1="578.1818181818182" y1="301.7992103778906" x2="630" y2="301.7992103778906" fill="none" stroke="#6495ED" stroke-width="2" stroke-dasharray="10 10" stroke-dashoffset="518.1818181818182" /></g><g style="stroke-opacity:1" class="linegroup"><line x1="60" y1="188.99605188945287" x2="111.81818181818181" y2="188.99605188945287" fill="none" stroke="#6495ED" stroke-width="2" stroke-dasharray="10 10" stroke-dashoffset="0" /><line x1="111.81818181818181" y1="188.99605188945287" x2="163.63636363636363" y2="188.99605188945287" fill="none" stroke="#6495ED" stroke-width="2" stroke-dasharray="10 10" stroke-dashoffset="51.81818181818181" /><line x1="163.63636363636363" y1="188.99605188945287" x2="215.45454545454544" y2="188.99605188945287" fill="none" stroke="#6495ED" stroke-width="2" stroke-dasharray="10 10" stroke-dashoffset="103.63636363636363" /><line x1="215.45454545454544" y1="188.99605188945287" x2="267.27272727272725" y2="188.99605188945287" fill="none" stroke="#6495ED" stroke-width="2" stroke-dasharray="10 10" stroke-dashoffset="155.45454545454544" /><line x1="267.27272727272725" y1="188.99605188945287" x2="319.0909090909091" y2="188.99605188945287" fill="none" stroke="#6495ED" stroke-width="2" stroke-dasharray="10 10" stroke-dashoffset="207.27272727272725" /><line x1="319.0909090909091" y1="188.99605188945287" x2="370.9090909090909" y2="188.99605188945287" fill="none" stroke="#6495ED" stroke-width="2" stroke-dasharray="10 10" stroke-dashoffset="259.0909090909091" /><line x1="370.9090909090909" y1="188.99605188945287" x2="422.7272727272727" y2="188.99605188945287" fill="none" stroke="#6495ED" stroke-width="2" stroke-dasharray="10 10" stroke-dashoffset="310.9090909090909" /><line x1="422.7272727272727" y1="188.99605188945287" x2="474.54545454545456" y2="188.99605188945287" fill="none" stroke="#6495ED" stroke-width="2" stroke-dasharray="10 10" stroke-dashoffset="362.7272727272727" /><line x1="474.54545454545456" y1="188.99605188945287" x2="526.3636363636364" y2="188.99605188945287" fill="none" stroke="#6495ED" stroke-width="2" stroke-dasharray="10 10" stroke-dashoffset="414.54545454545456" /><line x1="526.3636363636364" y1="188.99605188945287" x2="578.1818181818182" y2="188.99605188945287" fill="none" stroke="#6495ED" stroke-width="2" stroke-dasharray="10 10" stroke-dashoffset="466.3636363636364" /><line x1="578.1818181818182" y1="188.99605188945287" x2="630" y2="188.99605188945287" fill="none" stroke="#6495ED" stroke-width="2" stroke-dasharray="10 10" stroke-dashoffset="518.1818181818182" /></g><g style="stroke-opacity:1" class="linegroup"><line x1="60" y1="282.99868396315094" x2="111.81818181818181" y2="282.99868396315094" fill="none" stroke="#6495ED" stroke-width="2" stroke-dasharray="2 5" stroke-dashoffset="0" /><line x1="111.81818181818181" y1="282.99868396315094" x2="163.63636363636363" y2="282.99868396315094" fill="none" stroke="#6495ED" stroke-width="2" stroke-dasharray="2 5" stroke-dashoffset="51.81818181818181" /><line x1="163.63636363636363" y1="282.99868396315094" x2="215.45454545454544" y2="282.99868396315094" fill="none" stroke="#6495ED" stroke-width="2" stroke-dasharray="2 5" stroke-dashoffset="103.63636363636363" /><line x1="215.45454545454544" y1="282.99868396315094" x2="267.27272727272725" y2="282.99868396315094" fill="none" stroke="#6495ED" stroke-width="2" stroke-dasharray="2 5" stroke-dashoffset="155.45454545454544" /><line x1="267.27272727272725" y1="282.99868396315094" x2="319.0909090909091" y2="282.99868396315094" fill="none" stroke="#6495ED" stroke-width="2" stroke-dasharray="2 5" stroke-dashoffset="207.27272727272725" /><line x1="319.0909090909091" y1="282.99868396315094" x2="370.9090909090909" y2="282.99868396315094" fill="none" stroke="#6495ED" stroke-width="2" stroke-dasharray="2 5" stroke-dashoffset="259.0909090909091" /><line x1="370.9090909090909" y1="282.99868396315094" x2="422.7272727272727" y2="282.99868396315094" fill="none" stroke="#6495ED" stroke-width="2" stroke-dasharray="2 5" stroke-dashoffset="310.9090909090909" /><line x1="422.7272727272727" y1="282.99868396315094" x2="474.54545454545456" y2="282.99868396315094" fill="none" stroke="#6495ED" stroke-width="2" stroke-dasharray="2 5" stroke-dashoffset="362.7272727272727" /><line x1="474.54545454545456" y1="282.99868396315094" x2="526.3636363636364" y2="282.99868396315094" fill="none" stroke="#6495ED" stroke-width="2" stroke-dasharray="2 5" stroke-dashoffset="414.54545454545456" /><line x1="526.3636363636364" y1="282.99868396315094" x2="578.1818181818182" y2="282.99868396315094" fill="none" stroke="#6495ED" stroke-width="2" stroke-dasharray="2 5" stroke-dashoffset="466.3636363636364" /><line x1="578.1818181818182" y1="282.99868396315094" x2="630" y2="282.99868396315094" fill="none" stroke="#6495ED" stroke-width="2" stroke-dasharray="2 5" stroke-dashoffset="518.1818181818182" /></g><g style="stroke-opacity:1" class="linegroup"><line x1="60" y1="207.79657830419245" x2="111.81818181818181" y2="207.79657830419245" fill="none" stroke="#6495ED" stroke-width="2" stroke-dasharray="2 5" stroke-dashoffset="0" /><line x1="111.81818181818181" y1="207.79657830419245" x2="163.63636363636363" y2="207.79657830419245" fill="none" stroke="#6495ED" stroke-width="2" stroke-dasharray="2 5" stroke-dashoffset="51.81818181818181" /><line x1="163.63636363636363" y1="207.79657830419245" x2="215.45454545454544" y2="207.79657830419245" fill="none" stroke="#6495ED" stroke-width="2" stroke-dasharray="2 5" stroke-dashoffset="103.63636363636363" /><line x1="215.45454545454544" y1="207.79657830419245" x2="267.27272727272725" y2="207.79657830419245" fill="none" stroke="#6495ED" stroke-width="2" stroke-dasharray="2 5" stroke-dashoffset="155.45454545454544" /><line x1="267.27272727272725" y1="207.79657830419245" x2="319.0909090909091" y2="207.79657830419245" fill="none" stroke="#6495ED" stroke-width="2" stroke-dasharray="2 5" stroke-dashoffset="207.27272727272725" /><line x1="319.0909090909091" y1="207.79657830419245" x2="370.9090909090909" y2="207.79657830419245" fill="none" stroke="#6495ED" stroke-width="2" stroke-dasharray="2 5" stroke-dashoffset="259.0909090909091" /><line x1="370.9090909090909" y1="207.79657830419245" x2="422.7272727272727" y2="207.79657830419245" fill="none" stroke="#6495ED" stroke-width="2" stroke-dasharray="2 5" stroke-dashoffset="310.9090909090909" /><line x1="422.7272727272727" y1="207.79657830419245" x2="474.54545454545456" y2="207.79657830419245" fill="none" stroke="#6495ED" stroke-width="2" stroke-dasharray="2 5" stroke-dashoffset="362.7272727272727" /><line x1="474.54545454545456" y1="207.79657830419245" x2="526.3636363636364" y2="207.79657830419245" fill="none" stroke="#6495ED" stroke-width="2" stroke-dasharray="2 5" stroke-dashoffset="414.54545454545456" /><line x1="526.3636363636364" y1="207.79657830419245" x2="578.1818181818182" y2="207.79657830419245" fill="none" stroke="#6495ED" stroke-width="2" stroke-dasharray="2 5" stroke-dashoffset="466.3636363636364" /><line x1="578.1818181818182" y1="207.79657830419245" x2="630" y2="207.79657830419245" fill="none" stroke="#6495ED" stroke-width="2" stroke-dasharray="2 5" stroke-dashoffset="518.1818181818182" /></g><text x="630" y="253.88042865200222" fill="#000000" font-size="10px" font-family="'Arial', sans-serif" text-anchor="start" dx="10px" dy="0px" /><text x="630" y="245.39763113367172" fill="#000000" font-size="10px" font-family="'Arial', sans-serif" text-anchor="start" dx="10px" dy="0px" /><text x="630" y="301.7992103778906" fill="#000000" font-size="10px" font-family="'Arial', sans-serif" text-anchor="start" dx="10px" dy="0px" /><text x="630" y="188.99605188945287" fill="#000000" font-size="10px" font-family="'Arial', sans-serif" text-anchor="start" dx="10px" dy="0px" /><text x="630" y="282.99868396315094" fill="#000000" font-size="10px" font-family="'Arial', sans-serif" text-anchor="start" dx="10px" dy="0px" /><text x="630" y="207.79657830419245" fill="#000000" font-size="10px" font-family="'Arial', sans-serif" text-anchor="start" dx="10px" dy="0px" /></g><g class="dotsgroup"><path style="fill:#A6A6A6;stroke:#A6A6A6;stroke-width:1;fill-opacity:1;stroke-opacity:1" d="M2.5,0A2.5,2.5,0,1,1,-2.5,0A2.5,2.5,0,1,1,2.5,0" transform="translate(60, 279.3288212069938)" /><path style="fill:#A6A6A6;stroke:#A6A6A6;stroke-width:1;fill-opacity:1;stroke-opacity:1" d="M2.5,0A2.5,2.5,0,1,1,-2.5,0A2.5,2.5,0,1,1,2.5,0" transform="translate(111.81818181818181, 253.88042865200222)" /><path style="fill:#A6A6A6;stroke:#A6A6A6;stroke-width:1;fill-opacity:1;stroke-opacity:1" d="M2.5,0A2.5,2.5,0,1,1,-2.5,0A2.5,2.5,0,1,1,2.5,0" transform="translate(163.63636363636363, 266.60462492949796)" /><path style="fill:#A6A6A6;stroke:#A6A6A6;stroke-width:1;fill-opacity:1;stroke-opacity:1" d="M2.5,0A2.5,2.5,0,1,1,-2.5,0A2.5,2.5,0,1,1,2.5,0" transform="translate(215.45454545454544, 215.70783981951493)" /><path style="fill:#A6A6A6;stroke:#A6A6A6;stroke-width:1;fill-opacity:1;stroke-opacity:1" d="M2.5,0A2.5,2.5,0,1,1,-2.5,0A2.5,2.5,0,1,1,2.5,0" transform="translate(267.27272727272725, 253.88042865200222)" /><path style="fill:#A6A6A6;stroke:#A6A6A6;stroke-width:1;fill-opacity:1;stroke-opacity:1" d="M2.5,0A2.5,2.5,0,1,1,-2.5,0A2.5,2.5,0,1,1,2.5,0" transform="translate(319.0909090909091, 266.60462492949796)" /><path style="fill:#A6A6A6;stroke:#A6A6A6;stroke-width:1;fill-opacity:1;stroke-opacity:1" d="M2.5,0A2.5,2.5,0,1,1,-2.5,0A2.5,2.5,0,1,1,2.5,0" transform="translate(370.9090909090909, 88.46587704455722)" /><path style="fill:#A6A6A6;stroke:#A6A6A6;stroke-width:1;fill-opacity:1;stroke-opacity:1" d="M2.5,0A2.5,2.5,0,1,1,-2.5,0A2.5,2.5,0,1,1,2.5,0" transform="translate(422.7272727272727, 253.88042865200222)" /><path style="fill:#A6A6A6;stroke:#A6A6A6;stroke-width:1;fill-opacity:1;stroke-opacity:1" d="M2.5,0A2.5,2.5,0,1,1,-2.5,0A2.5,2.5,0,1,1,2.5,0" transform="translate(474.54545454545456, 266.60462492949796)" /><path style="fill:#A6A6A6;stroke:#A6A6A6;stroke-width:1;fill-opacity:1;stroke-opacity:1" d="M2.5,0A2.5,2.5,0,1,1,-2.5,0A2.5,2.5,0,1,1,2.5,0" transform="translate(526.3636363636364, 279.3288212069938)" /><path style="fill:#A6A6A6;stroke:#A6A6A6;stroke-width:1;fill-opacity:1;stroke-opacity:1" d="M2.5,0A2.5,2.5,0,1,1,-2.5,0A2.5,2.5,0,1,1,2.5,0" transform="translate(578.1818181818182, 266.60462492949796)" /><path style="fill:#A6A6A6;stroke:#A6A6A6;stroke-width:1;fill-opacity:1;stroke-opacity:1" d="M2.5,0A2.5,2.5,0,1,1,-2.5,0A2.5,2.5,0,1,1,2.5,0" transform="translate(630, 253.88042865200222)" /></g></svg>