<svg viewBox="0 0 640 400" width="640px" height="400px" xmlns="http://www.w3.org/2000/svg"><rect x="0" y="0" width="100%" height="100%" fill="white"/><line style="stroke-opacity:0" class="ttip-line-x" x1="0" x2="0" y1="10" y2="340" stroke-width="1px" stroke="black" /><line style="stroke-opacity:0" class="ttip-line-y" x1="60" x2="630" y1="0" y2="0" stroke-width="1px" stroke="black" /><g class="xaxisgroup" fill="none" font-size="10" font-family="sans-serif" text-anchor="middle" color="#000000" transform="translate(0, 340)"><path class="domain" stroke="currentColor" d="M60.5,6V0.5H630.5V6" /><g class="tick" opacity="1" transform="translate(60.5,0)"><line stroke="currentColor" y2="6" /><text style="text-anchor:end;font-size:10px;font-family:'Arial', sans-serif;fill:#000000" fill="currentColor" y="9" dy="-.15em" dx="-.8em" transform="rotate(-35)">0</text></g><g class="tick" opacity="1" transform="translate(120.5,0)"><line stroke="currentColor" y2="6" /><text style="text-anchor:end;font-size:10px;font-family:'Arial', sans-serif;fill:#000000" fill="currentColor" y="9" dy="-.15em" dx="-.8em" transform="rotate(-35)">2</text></g><g class="tick" opacity="1" transform="translate(180.5,0)"><line stroke="currentColor" y2="6" /><text style="text-anchor:end;font-size:10px;font-family:'Arial', sans-serif;fill:#000000" fill="currentColor" y="9" dy="-.15em" dx="-.8em" transform="rotate(-35)">4</text></g><g class="tick" opacity="1" transform="translate(240.5,0)"><line stroke="currentColor" y2="6" /><text style="text-anchor:end;font-size:10px;font-family:'Arial', sans-serif;fill:#000000" fill="currentColor" y="9" dy="-.15em" dx="-.8em" transform="rotate(-35)">6</text></g><g class="tick" opacity="1" transform="translate(300.5,0)"><line stroke="currentColor" y2="6" /><text style="text-anchor:end;font-size:10px;font-family:'Arial', sans-serif;fill:#000000" fill="currentColor" y="9" dy="-.15em" dx="-.8em" transform="rotate(-35)">8</text></g><g class="tick" opacity="1" transform="translate(360.5,0)"><line stroke="currentColor" y2="6" /><text style="text-anchor:end;font-size:10px;font-family:'Arial', sans-serif;fill:#000000" fill="currentColor" y="9" dy="-.15em" dx="-.8em" transform="rotate(-35)">10</text></g><g class="tick" opacity="1" transform="translate(420.5,0)"><line stroke="currentColor" y2="6" /><text style="text-anchor:end;font-size:10px;font-family:'Arial', sans-serif;fill:#000000" fill="currentColor" y="9" dy="-.15em" dx="-.8em" transform="rotate(-35)">12</text></g><g class="tick" opacity="1" transform="translate(480.49999999999994,0)"><line stroke="currentColor" y2="6" /><text style="text-anchor:end;font-size:10px;font-family:'Arial', sans-serif;fill:#000000" fill="currentColor" y="9" dy="-.15em" dx="-.8em" transform="rotate(-35)">14</text></g><g class="tick" opacity="1" transform="translate(540.5,0)"><line stroke="currentColor" y2="6" /><text style="text-anchor:end;font-size:10px;font-family:'Arial', sans-serif;fill:#000000" fill="currentColor" y="9" dy="-.15em" dx="-.8em" transform="rotate(-35)">16</text></g><g class="tick" opacity="1" transform="translate(600.4999999999999,0)"><line stroke="currentColor" y2="6" /><text style="text-anchor:end;font-size:10px;font-family:'Arial', sans-serif;fill:#000000" fill="currentColor" y="9" dy="-.15em" dx="-.8em" transform="rotate(-35)">18</text></g></g><text style="text-anchor:middle;font-size:10px;font-family:'Arial', sans-serif;fill:#000000" class="xaxislabel" x="320" y="380" /><g class="yaxisgroup" fill="none" font-size="10" font-family="sans-serif" text-anchor="end" color="#000000" transform="translate(60, 0)"><path class="domain" stroke="currentColor" d="M-6,340.5H0.5V10.5H-6" /><g class="tick" opacity="1" transform="translate(0,314.0380925404355)"><line stroke="currentColor" x2="-6" /><text style="text-anchor:right;font-size:10px;font-family:'Arial', sans-serif;fill:#000000" fill="currentColor" x="-9" dy="0.32em" transform="rotate(0)">0.00</text></g><g class="tick" opacity="1" transform="translate(0,277.5389098375878)"><line stroke="currentColor" x2="-6" /><text style="text-anchor:right;font-size:10px;font-family:'Arial', sans-serif;fill:#000000" fill="currentColor" x="-9" dy="0.32em" transform="rotate(0)">10.00</text></g><g class="tick" opacity="1" transform="translate(0,241.03972713474025)"><line stroke="currentColor" x2="-6" /><text style="text-anchor:right;font-size:10px;font-family:'Arial', sans-serif;fill:#000000" fill="currentColor" x="-9" dy="0.32em" transform="rotate(0)">20.00</text></g><g class="tick" opacity="1" transform="translate(0,204.54054443189264)"><line stroke="currentColor" x2="-6" /><text style="text-anchor:right;font-size:10px;font-family:'Arial', sans-serif;fill:#000000" fill="currentColor" x="-9" dy="0.32em" transform="rotate(0)">30.00</text></g><g class="tick" opacity="1" transform="translate(0,168.041361729045)"><line stroke="currentColor" x2="-6" /><text style="text-anchor:right;font-size:10px;font-family:'Arial', sans-serif;fill:#000000" fill="currentColor" x="-9" dy="0.32em" transform="rotate(0)">40.00</text></g><g class="tick" opacity="1" transform="translate(0,131.5421790261974)"><line stroke="currentColor" x2="-6" /><text style="text-anchor:right;font-size:10px;font-family:'Arial', sans-serif;fill:#000000" fill="currentColor" x="-9" dy="0.32em" transform="rotate(0)">50.00</text></g><g class="tick" opacity="1" transform="translate(0,95.0429963233498)"><line stroke="currentColor" x2="-6" /><text style="text-anchor:right;font-size:10px;font-family:'Arial', sans-serif;fill:#000000" fill="currentColor" x="-9" dy="0.32em" transform="rotate(0)">60.00</text></g><g class="tick" opacity="1" transform="translate(0,58.54381362050216)"><line stroke="currentColor" x2="-6" /><text style="text-anchor:right;font-size:10px;font-family:'Arial', sans-serif;fill:#000000" fill="currentColor" x="-9" dy="0.32em" transform="rotate(0)">70.00</text></g><g class="tick" opacity="1" transform="translate(0,22.04463091765455)"><line stroke="currentColor" x2="-6" /><text style="text-anchor:right;font-size:10px;font-family:'Arial', sans-serif;fill:#000000" fill="currentColor" x="-9" dy="0.32em" transform="rotate(0)">80.00</text></g></g><text style="text-anchor:middle;font-size:10px;font-family:'Arial', sans-serif;fill:#000000" class="yaxislabel" x="30" y="200" transform="rotate(-90, 30, 200)" /><g class="linesgroup"><g style="stroke-opacity:1" class="linegroup"><line x1="60" y1="269.7390732970183" x2="90" y2="251.48948194559452" fill="none" stroke="#A6A6A6" stroke-width="1" stroke-dasharray="10 0" stroke-dashoffset="0" /><line x1="90" y1="251.48948194559452" x2="120" y2="266.0891550267336" fill="none" stroke="#A6A6A6" stroke-width="1" stroke-dasharray="10 0" stroke-dashoffset="30" /><line x1="120" y1="266.0891550267336" x2="150" y2="273.3889915673031" fill="none" stroke="#A6A6A6" stroke-width="1" stroke-dasharray="10 0" stroke-dashoffset="60" /><line x1="150" y1="273.3889915673031" x2="180" y2="273.3889915673031" fill="none" stroke="#A6A6A6" stroke-width="1" stroke-dasharray="10 0" stroke-dashoffset="90" /><line x1="180" y1="273.3889915673031" x2="210" y2="244.189645405025" fill="none" stroke="#A6A6A6" stroke-width="1" stroke-dasharray="10 0" stroke-dashoffset="120" /><line x1="210" y1="244.189645405025" x2="240" y2="277.0389098375878" fill="none" stroke="#A6A6A6" stroke-width="1" stroke-dasharray="10 0" stroke-dashoffset="150" /><line x1="240" y1="277.0389098375878" x2="270" y2="269.7390732970183" fill="none" stroke="#A6A6A6" stroke-width="1" stroke-dasharray="10 0" stroke-dashoffset="180" /><line x1="270" y1="269.7390732970183" x2="300" y2="280.6888281078726" fill="none" stroke="#A6A6A6" stroke-width="1" stroke-dasharray="10 0" stroke-dashoffset="210" /><line x1="300" y1="280.6888281078726" x2="329.99999999999994" y2="255.13940021587928" fill="none" stroke="#A6A6A6" stroke-width="1" stroke-dasharray="10 0" stroke-dashoffset="240" /><line x1="329.99999999999994" y1="255.13940021587928" x2="360" y2="251.48948194559452" fill="none" stroke="#A6A6A6" stroke-width="1" stroke-dasharray="10 0" stroke-dashoffset="269.99999999999994" /><line x1="360" y1="251.48948194559452" x2="390" y2="236.88980886445546" fill="none" stroke="#A6A6A6" stroke-width="1" stroke-dasharray="10 0" stroke-dashoffset="300" /><line x1="390" y1="236.88980886445546" x2="420" y2="280.6888281078726" fill="none" stroke="#A6A6A6" stroke-width="1" stroke-dasharray="10 0" stroke-dashoffset="330" /><line x1="420" y1="280.6888281078726" x2="450" y2="247.8395636753098" fill="none" stroke="#A6A6A6" stroke-width="1" stroke-dasharray="10 0" stroke-dashoffset="360" /><line x1="450" y1="247.8395636753098" x2="479.99999999999994" y2="247.8395636753098" fill="none" stroke="#A6A6A6" stroke-width="1" stroke-dasharray="10 0" stroke-dashoffset="390" /><line x1="479.99999999999994" y1="247.8395636753098" x2="510" y2="236.88980886445546" fill="none" stroke="#A6A6A6" stroke-width="1" stroke-dasharray="10 0" stroke-dashoffset="419.99999999999994" /><line x1="510" y1="236.88980886445546" x2="540" y2="247.8395636753098" fill="none" stroke="#A6A6A6" stroke-width="1" stroke-dasharray="10 0" stroke-dashoffset="450" /><line x1="540" y1="247.8395636753098" x2="570" y2="258.78931848616406" fill="none" stroke="#A6A6A6" stroke-width="1" stroke-dasharray="10 0" stroke-dashoffset="480" /><line x1="570" y1="258.78931848616406" x2="599.9999999999999" y2="266.0891550267336" fill="none" stroke="#A6A6A6" stroke-width="1" stroke-dasharray="10 0" stroke-dashoffset="510" /><line x1="599.9999999999999" y1="266.0891550267336" x2="630" y2="262.4392367564488" fill="none" stroke="#A6A6A6" stroke-width="1" stroke-dasharray="10 0" stroke-dashoffset="539.9999999999999" /></g><g style="stroke-opacity:1" class="linegroup"><line x1="60" y1="260.6142776213064" x2="90" y2="260.6142776213064" fill="none" stroke="#000000" stroke-width="1.5" stroke-dasharray="10 0" stroke-dashoffset="0" /><line x1="90" y1="260.6142776213064" x2="120" y2="260.6142776213064" fill="none" stroke="#000000" stroke-width="1.5" stroke-dasharray="10 0" stroke-dashoffset="30" /><line x1="120" y1="260.6142776213064" x2="150" y2="260.6142776213064" fill="none" stroke="#000000" stroke-width="1.5" stroke-dasharray="10 0" stroke-dashoffset="60" /><line x1="150" y1="260.6142776213064" x2="180" y2="260.6142776213064" fill="none" stroke="#000000" stroke-width="1.5" stroke-dasharray="10 0" stroke-dashoffset="90" /><line x1="180" y1="260.6142776213064" x2="210" y2="260.6142776213064" fill="none" stroke="#000000" stroke-width="1.5" stroke-dasharray="10 0" stroke-dashoffset="120" /><line x1="210" y1="260.6142776213064" x2="240" y2="260.6142776213064" fill="none" stroke="#000000" stroke-width="1.5" stroke-dasharray="10 0" stroke-dashoffset="150" /><line x1="240" y1="260.6142776213064" x2="270" y2="260.6142776213064" fill="none" stroke="#000000" stroke-width="1.5" stroke-dasharray="10 0" stroke-dashoffset="180" /><line x1="270" y1="260.6142776213064" x2="300" y2="260.6142776213064" fill="none" stroke="#000000" stroke-width="1.5" stroke-dasharray="10 0" stroke-dashoffset="210" /><line x1="300" y1="260.6142776213064" x2="329.99999999999994" y2="260.6142776213064" fill="none" stroke="#000000" stroke-width="1.5" stroke-dasharray="10 0" stroke-dashoffset="240" /><line x1="329.99999999999994" y1="260.6142776213064" x2="360" y2="260.6142776213064" fill="none" stroke="#000000" stroke-width="1.5" stroke-dasharray="10 0" stroke-dashoffset="269.99999999999994" /><line x1="360" y1="260.6142776213064" x2="390" y2="260.6142776213064" fill="none" stroke="#000000" stroke-width="1.5" stroke-dasharray="10 0" stroke-dashoffset="300" /><line x1="390" y1="260.6142776213064" x2="420" y2="260.6142776213064" fill="none" stroke="#000000" stroke-width="1.5" stroke-dasharray="10 0" stroke-dashoffset="330" /><line x1="420" y1="260.6142776213064" x2="450" y2="260.6142776213064" fill="none" stroke="#000000" stroke-width="1.5" stroke-dasharray="10 0" stroke-dashoffset="360" /><line x1="450" y1="260.6142776213064" x2="479.99999999999994" y2="260.6142776213064" fill="none" stroke="#000000" stroke-width="1.5" stroke-dasharray="10 0" stroke-dashoffset="390" /><line x1="479.99999999999994" y1="260.6142776213064" x2="510" y2="260.6142776213064" fill="none" stroke="#000000" stroke-width="1.5" stroke-dasharray="10 0" stroke-dashoffset="419.99999999999994" /><line x1="510" y1="260.6142776213064" x2="540" y2="260.6142776213064" fill="none" stroke="#000000" stroke-width="1.5" stroke-dasharray="10 0" stroke-dashoffset="450" /><line x1="540" y1="260.6142776213064" x2="570" y2="260.6142776213064" fill="none" stroke="#000000" stroke-width="1.5" stroke-dasharray="10 0" stroke-dashoffset="480" /><line x1="570" y1="260.6142776213064" x2="599.9999999999999" y2="260.6142776213064" fill="none" stroke="#000000" stroke-width="1.5" stroke-dasharray="10 0" stroke-dashoffset="510" /><line x1="599.9999999999999" y1="260.6142776213064" x2="630" y2="260.6142776213064" fill="none" stroke="#000000" stroke-width="1.5" stroke-dasharray="10 0" stroke-dashoffset="539.9999999999999" /></g><g style="stroke-opacity:1" class="linegroup"><line x1="60" y1="313.5380925404355" x2="90" y2="313.5380925404355" fill="none" stroke="#6495ED" stroke-width="2" stroke-dasharray="10 10" stroke-dashoffset="0" /><line x1="90" y1="313.5380925404355" x2="120" y2="313.5380925404355" fill="none" stroke="#6495ED" stroke-width="2" stroke-dasharray="10 10" stroke-dashoffset="30" /><line x1="120" y1="313.5380925404355" x2="150" y2="313.5380925404355" fill="none" stroke="#6495ED" stroke-width="2" stroke-dasharray="10 10" stroke-dashoffset="60" /><line x1="150" y1="313.5380925404355" x2="180" y2="313.5380925404355" fill="none" stroke="#6495ED" stroke-width="2" stroke-dasharray="10 10" stroke-dashoffset="90" /><line x1="180" y1="313.5380925404355" x2="210" y2="313.5380925404355" fill="none" stroke="#6495ED" stroke-width="2" stroke-dasharray="10 10" stroke-dashoffset="120" /><line x1="210" y1="313.5380925404355" x2="240" y2="313.5380925404355" fill="none" stroke="#6495ED" stroke-width="2" stroke-dasharray="10 10" stroke-dashoffset="150" /><line x1="240" y1="313.5380925404355" x2="270" y2="313.5380925404355" fill="none" stroke="#6495ED" stroke-width="2" stroke-dasharray="10 10" stroke-dashoffset="180" /><line x1="270" y1="313.5380925404355" x2="300" y2="313.5380925404355" fill="none" stroke="#6495ED" stroke-width="2" stroke-dasharray="10 10" stroke-dashoffset="210" /><line x1="300" y1="313.5380925404355" x2="329.99999999999994" y2="313.5380925404355" fill="none" stroke="#6495ED" stroke-width="2" stroke-dasharray="10 10" stroke-dashoffset="240" /><line x1="329.99999999999994" y1="313.5380925404355" x2="360" y2="313.5380925404355" fill="none" stroke="#6495ED" stroke-width="2" stroke-dasharray="10 10" stroke-dashoffset="269.99999999999994" /><line x1="360" y1="313.5380925404355" x2="390" y2="313.5380925404355" fill="none" stroke="#6495ED" stroke-width="2" stroke-dasharray="10 10" stroke-dashoffset="300" /><line x1="390" y1="313.5380925404355" x2="420" y2="313.5380925404355" fill="none" stroke="#6495ED" stroke-width="2" stroke-dasharray="10 10" stroke-dashoffset="330" /><line x1="420" y1="313.5380925404355" x2="450" y2="313.5380925404355" fill="none" stroke="#6495ED" stroke-width="2" stroke-dasharray="10 10" stroke-dashoffset="360" /><line x1="450" y1="313.5380925404355" x2="479.99999999999994" y2="313.5380925404355" fill="none" stroke="#6495ED" stroke-width="2" stroke-dasharray="10 10" stroke-dashoffset="390" /><line x1="479.99999999999994" y1="313.5380925404355" x2="510" y2="313.5380925404355" fill="none" stroke="#6495ED" stroke-width="2" stroke-dasharray="10 10" stroke-dashoffset="419.99999999999994" /><line x1="510" y1="313.5380925404355" x2="540" y2="313.5380925404355" fill="none" stroke="#6495ED" stroke-width="2" stroke-dasharray="10 10" stroke-dashoffset="450" /><line x1="540" y1="313.5380925404355" x2="570" y2="313.5380925404355" fill="none" stroke="#6495ED" stroke-width="2" stroke-dasharray="10 10" stroke-dashoffset="480" /><line x1="570" y1="313.5380925404355" x2="599.9999999999999" y2="313.5380925404355" fill="none" stroke="#6495ED" stroke-width="2" stroke-dasharray="10 10" stroke-dashoffset="510" /><line x1="599.9999999999999" y1="313.5380925404355" x2="630" y2="313.5380925404355" fill="none" stroke="#6495ED" stroke-width="2" stroke-dasharray="10 10" stroke-dashoffset="539.9999999999999" /></g><g style="stroke-opacity:1" class="linegroup"><line x1="60" y1="93.53809254043546" x2="90" y2="93.53809254043546" fill="none" stroke="#6495ED" stroke-width="2" stroke-dasharray="10 10" stroke-dashoffset="0" /><line x1="90" y1="93.53809254043546" x2="120" y2="93.53809254043546" fill="none" stroke="#6495ED" stroke-width="2" stroke-dasharray="10 10" stroke-dashoffset="30" /><line x1="120" y1="93.53809254043546" x2="150" y2="93.53809254043546" fill="none" stroke="#6495ED" stroke-width="2" stroke-dasharray="10 10" stroke-dashoffset="60" /><line x1="150" y1="93.53809254043546" x2="180" y2="93.53809254043546" fill="none" stroke="#6495ED" stroke-width="2" stroke-dasharray="10 10" stroke-dashoffset="90" /><line x1="180" y1="93.53809254043546" x2="210" y2="93.53809254043546" fill="none" stroke="#6495ED" stroke-width="2" stroke-dasharray="10 10" stroke-dashoffset="120" /><line x1="210" y1="93.53809254043546" x2="240" y2="93.53809254043546" fill="none" stroke="#6495ED" stroke-width="2" stroke-dasharray="10 10" stroke-dashoffset="150" /><line x1="240" y1="93.53809254043546" x2="270" y2="93.53809254043546" fill="none" stroke="#6495ED" stroke-width="2" stroke-dasharray="10 10" stroke-dashoffset="180" /><line x1="270" y1="93.53809254043546" x2="300" y2="93.53809254043546" fill="none" stroke="#6495ED" stroke-width="2" stroke-dasharray="10 10" stroke-dashoffset="210" /><line x1="300" y1="93.53809254043546" x2="329.99999999999994" y2="93.53809254043546" fill="none" stroke="#6495ED" stroke-width="2" stroke-dasharray="10 10" stroke-dashoffset="240" /><line x1="329.99999999999994" y1="93.53809254043546" x2="360" y2="93.53809254043546" fill="none" stroke="#6495ED" stroke-width="2" stroke-dasharray="10 10" stroke-dashoffset="269.99999999999994" /><line x1="360" y1="93.53809254043546" x2="390" y2="93.53809254043546" fill="none" stroke="#6495ED" stroke-width="2" stroke-dasharray="10 10" stroke-dashoffset="300" /><line x1="390" y1="93.53809254043546" x2="420" y2="93.53809254043546" fill="none" stroke="#6495ED" stroke-width="2" stroke-dasharray="10 10" stroke-dashoffset="330" /><line x1="420" y1="93.53809254043546" x2="450" y2="93.53809254043546" fill="none" stroke="#6495ED" stroke-width="2" stroke-dasharray="10 10" stroke-dashoffset="360" /><line x1="450" y1="93.53809254043546" x2="479.99999999999994" y2="93.53809254043546" fill="none" stroke="#6495ED" stroke-width="2" stroke-dasharray="10 10" stroke-dashoffset="390" /><line x1="479.99999999999994" y1="93.53809254043546" x2="510" y2="93.53809254043546" fill="none" stroke="#6495ED" stroke-width="2" stroke-dasharray="10 10" stroke-dashoffset="419.99999999999994" /><line x1="510" y1="93.53809254043546" x2="540" y2="93.53809254043546" fill="none" stroke="#6495ED" stroke-width="2" stroke-dasharray="10 10" stroke-dashoffset="450" /><line x1="540" y1="93.53809254043546" x2="570" y2="93.53809254043546" fill="none" stroke="#6495ED" stroke-width="2" stroke-dasharray="10 10" stroke-dashoffset="480" /><line x1="570" y1="93.53809254043546" x2="599.9999999999999" y2="93.53809254043546" fill="none" stroke="#6495ED" stroke-width="2" stroke-dasharray="10 10" stroke-dashoffset="510" /><line x1="599.9999999999999" y1="93.53809254043546" x2="630" y2="93.53809254043546" fill="none" stroke="#6495ED" stroke-width="2" stroke-dasharray="10 10" stroke-dashoffset="539.9999999999999" /></g><g style="stroke-opacity:1" class="linegroup"><line x1="60" y1="313.5380925404355" x2="90" y2="313.5380925404355" fill="none" stroke="#6495ED" stroke-width="2" stroke-dasharray="2 5" stroke-dashoffset="0" /><line x1="90" y1="313.5380925404355" x2="120" y2="313.5380925404355" fill="none" stroke="#6495ED" stroke-width="2" stroke-dasharray="2 5" stroke-dashoffset="30" /><line x1="120" y1="313.5380925404355" x2="150" y2="313.5380925404355" fill="none" stroke="#6495ED" stroke-width="2" stroke-dasharray="2 5" stroke-dashoffset="60" /><line x1="150" y1="313.5380925404355" x2="180" y2="313.5380925404355" fill="none" stroke="#6495ED" stroke-width="2" stroke-dasharray="2 5" stroke-dashoffset="90" /><line x1="180" y1="313.5380925404355" x2="210" y2="313.5380925404355" fill="none" stroke="#6495ED" stroke-width="2" stroke-dasharray="2 5" stroke-dashoffset="120" /><line x1="210" y1="313.5380925404355" x2="240" y2="313.5380925404355" fill="none" stroke="#6495ED" stroke-width="2" stroke-dasharray="2 5" stroke-dashoffset="150" /><line x1="240" y1="313.5380925404355" x2="270" y2="313.5380925404355" fill="none" stroke="#6495ED" stroke-width="2" stroke-dasharray="2 5" stroke-dashoffset="180" /><line x1="270" y1="313.5380925404355" x2="300" y2="313.5380925404355" fill="none" stroke="#6495ED" stroke-width="2" stroke-dasharray="2 5" stroke-dashoffset="210" /><line x1="300" y1="313.5380925404355" x2="329.99999999999994" y2="313.5380925404355" fill="none" stroke="#6495ED" stroke-width="2" stroke-dasharray="2 5" stroke-dashoffset="240" /><line x1="329.99999999999994" y1="313.5380925404355" x2="360" y2="313.5380925404355" fill="none" stroke="#6495ED" stroke-width="2" stroke-dasharray="2 5" stroke-dashoffset="269.99999999999994" /><line x1="360" y1="313.5380925404355" x2="390" y2="313.5380925404355" fill="none" stroke="#6495ED" stroke-width="2" stroke-dasharray="2 5" stroke-dashoffset="300" /><line x1="390" y1="313.5380925404355" x2="420" y2="313.5380925404355" fill="none" stroke="#6495ED" stroke-width="2" stroke-dasharray="2 5" stroke-dashoffset="330" /><line x1="420" y1="313.5380925404355" x2="450" y2="313.5380925404355" fill="none" stroke="#6495ED" stroke-width="2" stroke-dasharray="2 5" stroke-dashoffset="360" /><line x1="450" y1="313.5380925404355" x2="479.99999999999994" y2="313.5380925404355" fill="none" stroke="#6495ED" stroke-width="2" stroke-dasharray="2 5" stroke-dashoffset="390" /><line x1="479.99999999999994" y1="313.5380925404355" x2="510" y2="313.5380925404355" fill="none" stroke="#6495ED" stroke-width="2" stroke-dasharray="2 5" stroke-dashoffset="419.99999999999994" /><line x1="510" y1="313.5380925404355" x2="540" y2="313.5380925404355" fill="none" stroke="#6495ED" stroke-width="2" stroke-dasharray="2 5" stroke-dashoffset="450" /><line x1="540" y1="313.5380925404355" x2="570" y2="313.5380925404355" fill="none" stroke="#6495ED" stroke-width="2" stroke-dasharray="2 5" stroke-dashoffset="480" /><line x1="570" y1="313.5380925404355" x2="599.9999999999999" y2="313.5380925404355" fill="none" stroke="#6495ED" stroke-width="2" stroke-dasharray="2 5" stroke-dashoffset="510" /><line x1="599.9999999999999" y1="313.5380925404355" x2="630" y2="313.5380925404355" fill="none" stroke="#6495ED" stroke-width="2" stroke-dasharray="2 5" stroke-dashoffset="539.9999999999999" /></g><g style="stroke-opacity:1" class="linegroup"><line x1="60" y1="148.98682634937347" x2="90" y2="148.98682634937347" fill="none" stroke="#6495ED" stroke-width="2" stroke-dasharray="2 5" stroke-dashoffset="0" /><line x1="90" y1="148.98682634937347" x2="120" y2="148.98682634937347" fill="none" stroke="#6495ED" stroke-width="2" stroke-dasharray="2 5" stroke-dashoffset="30" /><line x1="120" y1="148.98682634937347" x2="150" y2="148.98682634937347" fill="none" stroke="#6495ED" stroke-width="2" stroke-dasharray="2 5" stroke-dashoffset="60" /><line x1="150" y1="148.98682634937347" x2="180" y2="148.98682634937347" fill="none" stroke="#6495ED" stroke-width="2" stroke-dasharray="2 5" stroke-dashoffset="90" /><line x1="180" y1="148.98682634937347" x2="210" y2="148.98682634937347" fill="none" stroke="#6495ED" stroke-width="2" stroke-dasharray="2 5" stroke-dashoffset="120" /><line x1="210" y1="148.98682634937347" x2="240" y2="148.98682634937347" fill="none" stroke="#6495ED" stroke-width="2" stroke-dasharray="2 5" stroke-dashoffset="150" /><line x1="240" y1="148.98682634937347" x2="270" y2="148.98682634937347" fill="none" stroke="#6495ED" stroke-width="2" stroke-dasharray="2 5" stroke-dashoffset="180" /><line x1="270" y1="148.98682634937347" x2="300" y2="148.98682634937347" fill="none" stroke="#6495ED" stroke-width="2" stroke-dasharray="2 5" stroke-dashoffset="210" /><line x1="300" y1="148.98682634937347" x2="329.99999999999994" y2="148.98682634937347" fill="none" stroke="#6495ED" stroke-width="2" stroke-dasharray="2 5" stroke-dashoffset="240" /><line x1="329.99999999999994" y1="148.98682634937347" x2="360" y2="148.98682634937347" fill="none" stroke="#6495ED" stroke-width="2" stroke-dasharray="2 5" stroke-dashoffset="269.99999999999994" /><line x1="360" y1="148.98682634937347" x2="390" y2="148.98682634937347" fill="none" stroke="#6495ED" stroke-width="2" stroke-dasharray="2 5" stroke-dashoffset="300" /><line x1="390" y1="148.98682634937347" x2="420" y2="148.98682634937347" fill="none" stroke="#6495ED" stroke-width="2" stroke-dasharray="2 5" stroke-dashoffset="330" /><line x1="420" y1="148.98682634937347" x2="450" y2="148.98682634937347" fill="none" stroke="#6495ED" stroke-width="2" stroke-dasharray="2 5" stroke-dashoffset="360" /><line x1="450" y1="148.98682634937347" x2="479.99999999999994" y2="148.98682634937347" fill="none" stroke="#6495ED" stroke-width="2" stroke-dasharray="2 5" stroke-dashoffset="390" /><line x1="479.99999999999994" y1="148.98682634937347" x2="510" y2="148.98682634937347" fill="none" stroke="#6495ED" stroke-width="2" stroke-dasharray="2 5" stroke-dashoffset="419.99999999999994" /><line x1="510" y1="148.98682634937347" x2="540" y2="148.98682634937347" fill="none" stroke="#6495ED" stroke-width="2" stroke-dasharray="2 5" stroke-dashoffset="450" /><line x1="540" y1="148.98682634937347" x2="570" y2="148.98682634937347" fill="none" stroke="#6495ED" stroke-width="2" stroke-dasharray="2 5" stroke-dashoffset="480" /><line x1="570" y1="148.98682634937347" x2="599.9999999999999" y2="148.98682634937347" fill="none" stroke="#6495ED" stroke-width="2" stroke-dasharray="2 5" stroke-dashoffset="510" /><line x1="599.9999999999999" y1="148.98682634937347" x2="630" y2="148.98682634937347" fill="none" stroke="#6495ED" stroke-width="2" stroke-dasharray="2 5" stroke-dashoffset="539.9999999999999" /></g><text x="630" y="262.4392367564488" fill="#000000" font-size="10px" font-family="'Arial', sans-serif" text-anchor="start" dx="10px" dy="0px" /><text x="630" y="260.6142776213064" fill="#000000" font-size="10px" font-family="'Arial', sans-serif" text-anchor="start" dx="10px" dy="0px" /><text x="630" y="313.5380925404355" fill="#000000" font-size="10px" font-family="'Arial', sans-serif" text-anchor="start" dx="10px" dy="0px" /><text x="630" y="93.53809254043546" fill="#000000" font-size="10px" font-family="'Arial', sans-serif" text-anchor="start" dx="10px" dy="0px" /><text x="630" y="313.5380925404355" fill="#000000" font-size="10px" font-family="'Arial', sans-serif" text-anchor="start" dx="10px" dy="0px" /><text x="630" y="148.98682634937347" fill="#000000" font-size="10px" font-family="'Arial', sans-serif" text-anchor="start" dx="10px" dy="0px" /></g><g class="dotsgroup"><path style="fill:#A6A6A6;stroke:#A6A6A6;stroke-width:1;fill-opacity:1;stroke-opacity:1" d="M2.5,0A2.5,2.5,0,1,1,-2.5,0A2.5,2.5,0,1,1,2.5,0" transform="translate(60, 269.7390732970183)" /><path style="fill:#A6A6A6;stroke:#A6A6A6;stroke-width:1;fill-opacity:1;stroke-opacity:1" d="M2.5,0A2.5,2.5,0,1,1,-2.5,0A2.5,2.5,0,1,1,2.5,0" transform="translate(90, 251.48948194559452)" /><path style="fill:#A6A6A6;stroke:#A6A6A6;stroke-width:1;fill-opacity:1;stroke-opacity:1" d="M2.5,0A2.5,2.5,0,1,1,-2.5,0A2.5,2.5,0,1,1,2.5,0" transform="translate(120, 266.0891550267336)" /><path style="fill:#A6A6A6;stroke:#A6A6A6;stroke-width:1;fill-opacity:1;stroke-opacity:1" d="M2.5,0A2.5,2.5,0,1,1,-2.5,0A2.5,2.5,0,1,1,2.5,0" transform="translate(150, 273.3889915673031)" /><path style="fill:#A6A6A6;stroke:#A6A6A6;stroke-width:1;fill-opacity:1;stroke-opacity:1" d="M2.5,0A2.5,2.5,0,1,1,-2.5,0A2.5,2.5,0,1,1,2.5,0" transform="translate(180, 273.3889915673031)" /><path style="fill:#A6A6A6;stroke:#A6A6A6;stroke-width:1;fill-opacity:1;stroke-opacity:1" d="M2.5,0A2.5,2.5,0,1,1,-2.5,0A2.5,2.5,0,1,1,2.5,0" transform="translate(210, 244.189645405025)" /><path style="fill:#A6A6A6;stroke:#A6A6A6;stroke-width:1;fill-opacity:1;stroke-opacity:1" d="M2.5,0A2.5,2.5,0,1,1,-2.5,0A2.5,2.5,0,1,1,2.5,0" transform="translate(240, 277.0389098375878)" /><path style="fill:#A6A6A6;stroke:#A6A6A6;stroke-width:1;fill-opacity:1;stroke-opacity:1" d="M2.5,0A2.5,2.5,0,1,1,-2.5,0A2.5,2.5,0,1,1,2.5,0" transform="translate(270, 269.7390732970183)" /><path style="fill:#A6A6A6;stroke:#A6A6A6;stroke-width:1;fill-opacity:1;stroke-opacity:1" d="M2.5,0A2.5,2.5,0,1,1,-2.5,0A2.5,2.5,0,1,1,2.5,0" transform="translate(300, 280.6888281078726)" /><path style="fill:#A6A6A6;stroke:#A6A6A6;stroke-width:1;fill-opacity:1;stroke-opacity:1" d="M2.5,0A2.5,2.5,0,1,1,-2.5,0A2.5,2.5,0,1,1,2.5,0" transform="translate(329.99999999999994, 255.13940021587928)" /><path style="fill:#A6A6A6;stroke:#A6A6A6;stroke-width:1;fill-opacity:1;stroke-opacity:1" d="M2.5,0A2.5,2.5,0,1,1,-2.5,0A2.5,2.5,0,1,1,2.5,0" transform="translate(360, 251.48948194559452)" /><path style="fill:#A6A6A6;stroke:#A6A6A6;stroke-width:1;fill-opacity:1;stroke-opacity:1" d="M2.5,0A2.5,2.5,0,1,1,-2.5,0A2.5,2.5,0,1,1,2.5,0" transform="translate(390, 236.88980886445546)" /><path style="fill:#A6A6A6;stroke:#A6A6A6;stroke-width:1;fill-opacity:1;stroke-opacity:1" d="M2.5,0A2.5,2.5,0,1,1,-2.5,0A2.5,2.5,0,1,1,2.5,0" transform="translate(420, 280.6888281078726)" /><path style="fill:#A6A6A6;stroke:#A6A6A6;stroke-width:1;fill-opacity:1;stroke-opacity:1" d="M2.5,0A2.5,2.5,0,1,1,-2.5,0A2.5,2.5,0,1,1,2.5,0" transform="translate(450, 247.8395636753098)" /><path style="fill:#A6A6A6;stroke:#A6A6A6;stroke-width:1;fill-opacity:1;stroke-opacity:1" d="M2.5,0A2.5,2.5,0,1,1,-2.5,0A2.5,2.5,0,1,1,2.5,0" transform="translate(479.99999999999994, 247.8395636753098)" /><path style="fill:#A6A6A6;stroke:#A6A6A6;stroke-width:1;fill-opacity:1;stroke-opacity:1" d="M2.5,0A2.5,2.5,0,1,1,-2.5,0A2.5,2.5,0,1,1,2.5,0" transform="translate(510, 236.88980886445546)" /><path style="fill:#A6A6A6;stroke:#A6A6A6;stroke-width:1;fill-opacity:1;stroke-opacity:1" d="M2.5,0A2.5,2.5,0,1,1,-2.5,0A2.5,2.5,0,1,1,2.5,0" transform="translate(540, 247.8395636753098)" /><path style="fill:#A6A6A6;stroke:#A6A6A6;stroke-width:1;fill-opacity:1;stroke-opacity:1" d="M2.5,0A2.5,2.5,0,1,1,-2.5,0A2.5,2.5,0,1,1,2.5,0" transform="translate(570, 258.78931848616406)" /><path style="fill:#A6A6A6;stroke:#A6A6A6;stroke-width:1;fill-opacity:1;stroke-opacity:1" d="M2.5,0A2.5,2.5,0,1,1,-2.5,0A2.5,2.5,0,1,1,2.5,0" transform="translate(599.9999999999999, 266.0891550267336)" /><path style="fill:#A6A6A6;stroke:#A6A6A6;stroke-width:1;fill-opacity:1;stroke-opacity:1" d="M2.5,0A2.5,2.5,0,1,1,-2.5,0A2.5,2.5,0,1,1,2.5,0" transform="translate(630, 262.4392367564488)" /></g></svg>