<svg viewBox="0 0 640 400" width="640px" height="400px" xmlns="http://www.w3.org/2000/svg"><rect x="0" y="0" width="100%" height="100%" fill="white"/><line style="stroke-opacity:0" class="ttip-line-x" x1="0" x2="0" y1="10" y2="340" stroke-width="1px" stroke="black" /><line style="stroke-opacity:0" class="ttip-line-y" x1="60" x2="630" y1="0" y2="0" stroke-width="1px" stroke="black" /><g class="xaxisgroup" fill="none" font-size="10" font-family="sans-serif" text-anchor="middle" color="#000000" transform="translate(0, 340)"><path class="domain" stroke="currentColor" d="M60.5,6V0.5H630.5V6" /><g class="tick" opacity="1" transform="translate(60.5,0)"><line stroke="currentColor" y2="6" /><text style="text-anchor:end;font-size:10px;font-family:'Arial', sans-serif;fill:#000000" fill="currentColor" y="9" dy="-.15em" dx="-.8em" transform="rotate(-35)"> 01/01/2024</text></g><g class="tick" opacity="1" transform="translate(110.06521739130434,0)"><line stroke="currentColor" y2="6" /><text style="text-anchor:end;font-size:10px;font-family:'Arial', sans-serif;fill:#000000" fill="currentColor" y="9" dy="-.15em" dx="-.8em" transform="rotate(-35)"> 01/03/2024</text></g><g class="tick" opacity="1" transform="translate(159.6304347826087,0)"><line stroke="currentColor" y2="6" /><text style="text-anchor:end;font-size:10px;font-family:'Arial', sans-serif;fill:#000000" fill="currentColor" y="9" dy="-.15em" dx="-.8em" transform="rotate(-35)"> 01/05/2024</text></g><g class="tick" opacity="1" transform="translate(209.19565217391306,0)"><line stroke="currentColor" y2="6" /><text style="text-anchor:end;font-size:10px;font-family:'Arial', sans-serif;fill:#000000" fill="currentColor" y="9" dy="-.15em" dx="-.8em" transform="rotate(-35)"> 01/07/2024</text></g><g class="tick" opacity="1" transform="translate(258.7608695652174,0)"><line stroke="currentColor" y2="6" /><text style="text-anchor:end;font-size:10px;font-family:'Arial', sans-serif;fill:#000000" fill="currentColor" y="9" dy="-.15em" dx="-.8em" transform="rotate(-35)"> 01/09/2024</text></g><g class="tick" opacity="1" transform="translate(308.32608695652175,0)"><line stroke="currentColor" y2="6" /><text style="text-anchor:end;font-size:10px;font-family:'Arial', sans-serif;fill:#000000" fill="currentColor" y="9" dy="-.15em" dx="-.8em" transform="rotate(-35)"> 01/11/2024</text></g><g class="tick" opacity="1" transform="translate(357.8913043478261,0)"><line stroke="currentColor" y2="6" /><text style="text-anchor:end;font-size:10px;font-family:'Arial', sans-serif;fill:#000000" fill="currentColor" y="9" dy="-.15em" dx="-.8em" transform="rotate(-35)"> 01/01/2025</text></g><g class="tick" opacity="1" transform="translate(407.45652173913044,0)"><line stroke="currentColor" y2="6" /><text style="text-anchor:end;font-size:10px;font-family:'Arial', sans-serif;fill:#000000" fill="currentColor" y="9" dy="-.15em" dx="-.8em" transform="rotate(-35)"> 01/03/2025</text></g><g class="tick" opacity="1" transform="translate(457.02173913043475,0)"><line stroke="currentColor" y2="6" /><text style="text-anchor:end;font-size:10px;font-family:'Arial', sans-serif;fill:#000000" fill="currentColor" y="9" dy="-.15em" dx="-.8em" transform="rotate(-35)"> 01/05/2025</text></g><g class="tick" opacity="1" transform="translate(506.5869565217391,0)"><line stroke="currentColor" y2="6" /><text style="text-anchor:end;font-size:10px;font-family:'Arial', sans-serif;fill:#000000" fill="currentColor" y="9" dy="-.15em" dx="-.8em" transform="rotate(-35)"> 01/07/2025</text></g><g class="tick" opacity="1" transform="translate(556.1521739130435,0)"><line stroke="currentColor" y2="6" /><text style="text-anchor:end;font-size:10px;font-family:'Arial', sans-serif;fill:#000000" fill="currentColor" y="9" dy="-.15em" dx="-.8em" transform="rotate(-35)"> 01/09/2025</text></g><g class="tick" opacity="1" transform="translate(605.7173913043478,0)"><line stroke="currentColor" y2="6" /><text style="text-anchor:end;font-size:10px;font-family:'Arial', sans-serif;fill:#000000" fill="currentColor" y="9" dy="-.15em" dx="-.8em" transform="rotate(-35)"> 01/11/2025</text></g></g><text style="text-anchor:middle;font-size:10px;font-family:'Arial', sans-serif;fill:#000000" class="xaxislabel" x="320" y="380" /><g class="yaxisgroup" fill="none" font-size="10" font-family="sans-serif" text-anchor="end" color="#000000" transform="translate(60, 0)"><path class="domain" stroke="currentColor" d="M-6,340.5H0.5V10.5H-6" /><g class="tick" opacity="1" transform="translate(0,331.76287265779047)"><line stroke="currentColor" x2="-6" /><text style="text-anchor:right;font-size:10px;font-family:'Arial', sans-serif;fill:#000000" fill="currentColor" x="-9" dy="0.32em" transform="rotate(0)">36.00</text></g><g class="tick" opacity="1" transform="translate(0,307.162342648136)"><line stroke="currentColor" x2="-6" /><text style="text-anchor:right;font-size:10px;font-family:'Arial', sans-serif;fill:#000000" fill="currentColor" x="-9" dy="0.32em" transform="rotate(0)">38.00</text></g><g class="tick" opacity="1" transform="translate(0,282.5618126384815)"><line stroke="currentColor" x2="-6" /><text style="text-anchor:right;font-size:10px;font-family:'Arial', sans-serif;fill:#000000" fill="currentColor" x="-9" dy="0.32em" transform="rotate(0)">40.00</text></g><g class="tick" opacity="1" transform="translate(0,257.961282628827)"><line stroke="currentColor" x2="-6" /><text style="text-anchor:right;font-size:10px;font-family:'Arial', sans-serif;fill:#000000" fill="currentColor" x="-9" dy="0.32em" transform="rotate(0)">42.00</text></g><g class="tick" opacity="1" transform="translate(0,233.36075261917253)"><line stroke="currentColor" x2="-6" /><text style="text-anchor:right;font-size:10px;font-family:'Arial', sans-serif;fill:#000000" fill="currentColor" x="-9" dy="0.32em" transform="rotate(0)">44.00</text></g><g class="tick" opacity="1" transform="translate(0,208.76022260951805)"><line stroke="currentColor" x2="-6" /><text style="text-anchor:right;font-size:10px;font-family:'Arial', sans-serif;fill:#000000" fill="currentColor" x="-9" dy="0.32em" transform="rotate(0)">46.00</text></g><g class="tick" opacity="1" transform="translate(0,184.15969259986355)"><line stroke="currentColor" x2="-6" /><text style="text-anchor:right;font-size:10px;font-family:'Arial', sans-serif;fill:#000000" fill="currentColor" x="-9" dy="0.32em" transform="rotate(0)">48.00</text></g><g class="tick" opacity="1" transform="translate(0,159.5591625902091)"><line stroke="currentColor" x2="-6" /><text style="text-anchor:right;font-size:10px;font-family:'Arial', sans-serif;fill:#000000" fill="currentColor" x="-9" dy="0.32em" transform="rotate(0)">50.00</text></g><g class="tick" opacity="1" transform="translate(0,134.9586325805546)"><line stroke="currentColor" x2="-6" /><text style="text-anchor:right;font-size:10px;font-family:'Arial', sans-serif;fill:#000000" fill="currentColor" x="-9" dy="0.32em" transform="rotate(0)">52.00</text></g><g class="tick" opacity="1" transform="translate(0,110.35810257090012)"><line stroke="currentColor" x2="-6" /><text style="text-anchor:right;font-size:10px;font-family:'Arial', sans-serif;fill:#000000" fill="currentColor" x="-9" dy="0.32em" transform="rotate(0)">54.00</text></g><g class="tick" opacity="1" transform="translate(0,85.75757256124561)"><line stroke="currentColor" x2="-6" /><text style="text-anchor:right;font-size:10px;font-family:'Arial', sans-serif;fill:#000000" fill="currentColor" x="-9" dy="0.32em" transform="rotate(0)">56.00</text></g><g class="tick" opacity="1" transform="translate(0,61.15704255159113)"><line stroke="currentColor" x2="-6" /><text style="text-anchor:right;font-size:10px;font-family:'Arial', sans-serif;fill:#000000" fill="currentColor" x="-9" dy="0.32em" transform="rotate(0)">58.00</text></g><g class="tick" opacity="1" transform="translate(0,36.55651254193663)"><line stroke="currentColor" x2="-6" /><text style="text-anchor:right;font-size:10px;font-family:'Arial', sans-serif;fill:#000000" fill="currentColor" x="-9" dy="0.32em" transform="rotate(0)">60.00</text></g><g class="tick" opacity="1" transform="translate(0,11.95598253228216)"><line stroke="currentColor" x2="-6" /><text style="text-anchor:right;font-size:10px;font-family:'Arial', sans-serif;fill:#000000" fill="currentColor" x="-9" dy="0.32em" transform="rotate(0)">62.00</text></g></g><text style="text-anchor:middle;font-size:10px;font-family:'Arial', sans-serif;fill:#000000" class="yaxislabel" x="30" y="200" transform="rotate(-90, 30, 200)" /><g class="linesgroup"><g style="stroke-opacity:1" class="linegroup"><line x1="60" y1="169.78616254110355" x2="84.78260869565217" y2="106.4278973858948" fill="none" stroke="#A6A6A6" stroke-width="1" stroke-dasharray="10 0" stroke-dashoffset="0" /><line x1="84.78260869565217" y1="106.4278973858948" x2="109.56521739130434" y2="141.4613233848748" fill="none" stroke="#A6A6A6" stroke-width="1" stroke-dasharray="10 0" stroke-dashoffset="24.782608695652172" /><line x1="109.56521739130434" y1="141.4613233848748" x2="134.34782608695653" y2="157.57852290188129" fill="none" stroke="#A6A6A6" stroke-width="1" stroke-dasharray="10 0" stroke-dashoffset="49.565217391304344" /><line x1="134.34782608695653" y1="157.57852290188129" x2="159.1304347826087" y2="162.66220461469075" fill="none" stroke="#A6A6A6" stroke-width="1" stroke-dasharray="10 0" stroke-dashoffset="74.34782608695653" /><line x1="159.1304347826087" y1="162.66220461469075" x2="183.91304347826087" y2="113.2501533805233" fill="none" stroke="#A6A6A6" stroke-width="1" stroke-dasharray="10 0" stroke-dashoffset="99.13043478260869" /><line x1="183.91304347826087" y1="113.2501533805233" x2="208.69565217391306" y2="105.09484710164546" fill="none" stroke="#A6A6A6" stroke-width="1" stroke-dasharray="10 0" stroke-dashoffset="123.91304347826087" /><line x1="208.69565217391306" y1="105.09484710164546" x2="233.47826086956525" y2="276.17029378863157" fill="none" stroke="#A6A6A6" stroke-width="1" stroke-dasharray="10 0" stroke-dashoffset="148.69565217391306" /><line x1="233.47826086956525" y1="276.17029378863157" x2="258.2608695652174" y2="155.4001853829394" fill="none" stroke="#A6A6A6" stroke-width="1" stroke-dasharray="10 0" stroke-dashoffset="173.47826086956525" /><line x1="258.2608695652174" y1="155.4001853829394" x2="283.04347826086956" y2="182.59800191523888" fill="none" stroke="#A6A6A6" stroke-width="1" stroke-dasharray="10 0" stroke-dashoffset="198.26086956521738" /><line x1="283.04347826086956" y1="182.59800191523888" x2="307.82608695652175" y2="100.31310193394417" fill="none" stroke="#A6A6A6" stroke-width="1" stroke-dasharray="10 0" stroke-dashoffset="223.04347826086956" /><line x1="307.82608695652175" y1="100.31310193394417" x2="332.6086956521739" y2="87.68488622987823" fill="none" stroke="#A6A6A6" stroke-width="1" stroke-dasharray="10 0" stroke-dashoffset="247.82608695652175" /><line x1="332.6086956521739" y1="87.68488622987823" x2="357.3913043478261" y2="117.55891750705999" fill="none" stroke="#A6A6A6" stroke-width="1" stroke-dasharray="10 0" stroke-dashoffset="272.6086956521739" /><line x1="357.3913043478261" y1="117.55891750705999" x2="382.17391304347825" y2="139.9602595868202" fill="none" stroke="#A6A6A6" stroke-width="1" stroke-dasharray="10 0" stroke-dashoffset="297.3913043478261" /><line x1="382.17391304347825" y1="139.9602595868202" x2="406.95652173913044" y2="139.33746068524923" fill="none" stroke="#A6A6A6" stroke-width="1" stroke-dasharray="10 0" stroke-dashoffset="322.17391304347825" /><line x1="406.95652173913044" y1="139.33746068524923" x2="431.7391304347826" y2="161.3599617278626" fill="none" stroke="#A6A6A6" stroke-width="1" stroke-dasharray="10 0" stroke-dashoffset="346.95652173913044" /><line x1="431.7391304347826" y1="161.3599617278626" x2="456.52173913043475" y2="154.9470827880837" fill="none" stroke="#A6A6A6" stroke-width="1" stroke-dasharray="10 0" stroke-dashoffset="371.7391304347826" /><line x1="456.52173913043475" y1="154.9470827880837" x2="481.30434782608694" y2="136.85394626531902" fill="none" stroke="#A6A6A6" stroke-width="1" stroke-dasharray="10 0" stroke-dashoffset="396.52173913043475" /><line x1="481.30434782608694" y1="136.85394626531902" x2="506.0869565217391" y2="121.42347778033684" fill="none" stroke="#A6A6A6" stroke-width="1" stroke-dasharray="10 0" stroke-dashoffset="421.30434782608694" /><line x1="506.0869565217391" y1="121.42347778033684" x2="530.8695652173913" y2="163.16098051796004" fill="none" stroke="#A6A6A6" stroke-width="1" stroke-dasharray="10 0" stroke-dashoffset="446.0869565217391" /><line x1="530.8695652173913" y1="163.16098051796004" x2="555.6521739130435" y2="104.78772311319271" fill="none" stroke="#A6A6A6" stroke-width="1" stroke-dasharray="10 0" stroke-dashoffset="470.86956521739125" /><line x1="555.6521739130435" y1="104.78772311319271" x2="580.4347826086956" y2="174.80183382548333" fill="none" stroke="#A6A6A6" stroke-width="1" stroke-dasharray="10 0" stroke-dashoffset="495.6521739130435" /><line x1="580.4347826086956" y1="174.80183382548333" x2="605.2173913043478" y2="208.42070135457632" fill="none" stroke="#A6A6A6" stroke-width="1" stroke-dasharray="10 0" stroke-dashoffset="520.4347826086956" /><line x1="605.2173913043478" y1="208.42070135457632" x2="630" y2="183.22122706828367" fill="none" stroke="#A6A6A6" stroke-width="1" stroke-dasharray="10 0" stroke-dashoffset="545.2173913043478" /></g><g style="stroke-opacity:1" class="linegroup"><line x1="60" y1="148.5108813658948" x2="84.78260869565217" y2="148.5108813658948" fill="none" stroke="#000000" stroke-width="1.5" stroke-dasharray="10 0" stroke-dashoffset="0" /><line x1="84.78260869565217" y1="148.5108813658948" x2="109.56521739130434" y2="148.5108813658948" fill="none" stroke="#000000" stroke-width="1.5" stroke-dasharray="10 0" stroke-dashoffset="24.782608695652172" /><line x1="109.56521739130434" y1="148.5108813658948" x2="134.34782608695653" y2="148.5108813658948" fill="none" stroke="#000000" stroke-width="1.5" stroke-dasharray="10 0" stroke-dashoffset="49.565217391304344" /><line x1="134.34782608695653" y1="148.5108813658948" x2="159.1304347826087" y2="148.5108813658948" fill="none" stroke="#000000" stroke-width="1.5" stroke-dasharray="10 0" stroke-dashoffset="74.34782608695653" /><line x1="159.1304347826087" y1="148.5108813658948" x2="183.91304347826087" y2="148.5108813658948" fill="none" stroke="#000000" stroke-width="1.5" stroke-dasharray="10 0" stroke-dashoffset="99.13043478260869" /><line x1="183.91304347826087" y1="148.5108813658948" x2="208.69565217391306" y2="148.5108813658948" fill="none" stroke="#000000" stroke-width="1.5" stroke-dasharray="10 0" stroke-dashoffset="123.91304347826087" /><line x1="208.69565217391306" y1="148.5108813658948" x2="233.47826086956525" y2="148.5108813658948" fill="none" stroke="#000000" stroke-width="1.5" stroke-dasharray="10 0" stroke-dashoffset="148.69565217391306" /><line x1="233.47826086956525" y1="148.5108813658948" x2="258.2608695652174" y2="148.5108813658948" fill="none" stroke="#000000" stroke-width="1.5" stroke-dasharray="10 0" stroke-dashoffset="173.47826086956525" /><line x1="258.2608695652174" y1="148.5108813658948" x2="283.04347826086956" y2="148.5108813658948" fill="none" stroke="#000000" stroke-width="1.5" stroke-dasharray="10 0" stroke-dashoffset="198.26086956521738" /><line x1="283.04347826086956" y1="148.5108813658948" x2="307.82608695652175" y2="148.5108813658948" fill="none" stroke="#000000" stroke-width="1.5" stroke-dasharray="10 0" stroke-dashoffset="223.04347826086956" /><line x1="307.82608695652175" y1="148.5108813658948" x2="332.6086956521739" y2="148.5108813658948" fill="none" stroke="#000000" stroke-width="1.5" stroke-dasharray="10 0" stroke-dashoffset="247.82608695652175" /><line x1="332.6086956521739" y1="148.5108813658948" x2="357.3913043478261" y2="148.5108813658948" fill="none" stroke="#000000" stroke-width="1.5" stroke-dasharray="10 0" stroke-dashoffset="272.6086956521739" /><line x1="357.3913043478261" y1="148.5108813658948" x2="382.17391304347825" y2="148.5108813658948" fill="none" stroke="#000000" stroke-width="1.5" stroke-dasharray="10 0" stroke-dashoffset="297.3913043478261" /><line x1="382.17391304347825" y1="148.5108813658948" x2="406.95652173913044" y2="148.5108813658948" fill="none" stroke="#000000" stroke-width="1.5" stroke-dasharray="10 0" stroke-dashoffset="322.17391304347825" /><line x1="406.95652173913044" y1="148.5108813658948" x2="431.7391304347826" y2="148.5108813658948" fill="none" stroke="#000000" stroke-width="1.5" stroke-dasharray="10 0" stroke-dashoffset="346.95652173913044" /><line x1="431.7391304347826" y1="148.5108813658948" x2="456.52173913043475" y2="148.5108813658948" fill="none" stroke="#000000" stroke-width="1.5" stroke-dasharray="10 0" stroke-dashoffset="371.7391304347826" /><line x1="456.52173913043475" y1="148.5108813658948" x2="481.30434782608694" y2="148.5108813658948" fill="none" stroke="#000000" stroke-width="1.5" stroke-dasharray="10 0" stroke-dashoffset="396.52173913043475" /><line x1="481.30434782608694" y1="148.5108813658948" x2="506.0869565217391" y2="148.5108813658948" fill="none" stroke="#000000" stroke-width="1.5" stroke-dasharray="10 0" stroke-dashoffset="421.30434782608694" /><line x1="506.0869565217391" y1="148.5108813658948" x2="530.8695652173913" y2="148.5108813658948" fill="none" stroke="#000000" stroke-width="1.5" stroke-dasharray="10 0" stroke-dashoffset="446.0869565217391" /><line x1="530.8695652173913" y1="148.5108813658948" x2="555.6521739130435" y2="148.5108813658948" fill="none" stroke="#000000" stroke-width="1.5" stroke-dasharray="10 0" stroke-dashoffset="470.86956521739125" /><line x1="555.6521739130435" y1="148.5108813658948" x2="580.4347826086956" y2="148.5108813658948" fill="none" stroke="#000000" stroke-width="1.5" stroke-dasharray="10 0" stroke-dashoffset="495.6521739130435" /><line x1="580.4347826086956" y1="148.5108813658948" x2="605.2173913043478" y2="148.5108813658948" fill="none" stroke="#000000" stroke-width="1.5" stroke-dasharray="10 0" stroke-dashoffset="520.4347826086956" /><line x1="605.2173913043478" y1="148.5108813658948" x2="630" y2="148.5108813658948" fill="none" stroke="#000000" stroke-width="1.5" stroke-dasharray="10 0" stroke-dashoffset="545.2173913043478" /></g><g style="stroke-opacity:1" class="linegroup"><line x1="60" y1="240.85146894315798" x2="84.78260869565217" y2="240.85146894315798" fill="none" stroke="#6495ED" stroke-width="2" stroke-dasharray="10 10" stroke-dashoffset="0" /><line x1="84.78260869565217" y1="240.85146894315798" x2="109.56521739130434" y2="240.85146894315798" fill="none" stroke="#6495ED" stroke-width="2" stroke-dasharray="10 10" stroke-dashoffset="24.782608695652172" /><line x1="109.56521739130434" y1="240.85146894315798" x2="134.34782608695653" y2="240.85146894315798" fill="none" stroke="#6495ED" stroke-width="2" stroke-dasharray="10 10" stroke-dashoffset="49.565217391304344" /><line x1="134.34782608695653" y1="240.85146894315798" x2="159.1304347826087" y2="240.85146894315798" fill="none" stroke="#6495ED" stroke-width="2" stroke-dasharray="10 10" stroke-dashoffset="74.34782608695653" /><line x1="159.1304347826087" y1="240.85146894315798" x2="183.91304347826087" y2="240.85146894315798" fill="none" stroke="#6495ED" stroke-width="2" stroke-dasharray="10 10" stroke-dashoffset="99.13043478260869" /><line x1="183.91304347826087" y1="240.85146894315798" x2="208.69565217391306" y2="240.85146894315798" fill="none" stroke="#6495ED" stroke-width="2" stroke-dasharray="10 10" stroke-dashoffset="123.91304347826087" /><line x1="208.69565217391306" y1="240.85146894315798" x2="233.47826086956525" y2="240.85146894315798" fill="none" stroke="#6495ED" stroke-width="2" stroke-dasharray="10 10" stroke-dashoffset="148.69565217391306" /><line x1="233.47826086956525" y1="240.85146894315798" x2="258.2608695652174" y2="240.85146894315798" fill="none" stroke="#6495ED" stroke-width="2" stroke-dasharray="10 10" stroke-dashoffset="173.47826086956525" /><line x1="258.2608695652174" y1="240.85146894315798" x2="283.04347826086956" y2="240.85146894315798" fill="none" stroke="#6495ED" stroke-width="2" stroke-dasharray="10 10" stroke-dashoffset="198.26086956521738" /><line x1="283.04347826086956" y1="240.85146894315798" x2="307.82608695652175" y2="240.85146894315798" fill="none" stroke="#6495ED" stroke-width="2" stroke-dasharray="10 10" stroke-dashoffset="223.04347826086956" /><line x1="307.82608695652175" y1="240.85146894315798" x2="332.6086956521739" y2="240.85146894315798" fill="none" stroke="#6495ED" stroke-width="2" stroke-dasharray="10 10" stroke-dashoffset="247.82608695652175" /><line x1="332.6086956521739" y1="240.85146894315798" x2="357.3913043478261" y2="240.85146894315798" fill="none" stroke="#6495ED" stroke-width="2" stroke-dasharray="10 10" stroke-dashoffset="272.6086956521739" /><line x1="357.3913043478261" y1="240.85146894315798" x2="382.17391304347825" y2="240.85146894315798" fill="none" stroke="#6495ED" stroke-width="2" stroke-dasharray="10 10" stroke-dashoffset="297.3913043478261" /><line x1="382.17391304347825" y1="240.85146894315798" x2="406.95652173913044" y2="240.85146894315798" fill="none" stroke="#6495ED" stroke-width="2" stroke-dasharray="10 10" stroke-dashoffset="322.17391304347825" /><line x1="406.95652173913044" y1="240.85146894315798" x2="431.7391304347826" y2="240.85146894315798" fill="none" stroke="#6495ED" stroke-width="2" stroke-dasharray="10 10" stroke-dashoffset="346.95652173913044" /><line x1="431.7391304347826" y1="240.85146894315798" x2="456.52173913043475" y2="240.85146894315798" fill="none" stroke="#6495ED" stroke-width="2" stroke-dasharray="10 10" stroke-dashoffset="371.7391304347826" /><line x1="456.52173913043475" y1="240.85146894315798" x2="481.30434782608694" y2="240.85146894315798" fill="none" stroke="#6495ED" stroke-width="2" stroke-dasharray="10 10" stroke-dashoffset="396.52173913043475" /><line x1="481.30434782608694" y1="240.85146894315798" x2="506.0869565217391" y2="240.85146894315798" fill="none" stroke="#6495ED" stroke-width="2" stroke-dasharray="10 10" stroke-dashoffset="421.30434782608694" /><line x1="506.0869565217391" y1="240.85146894315798" x2="530.8695652173913" y2="240.85146894315798" fill="none" stroke="#6495ED" stroke-width="2" stroke-dasharray="10 10" stroke-dashoffset="446.0869565217391" /><line x1="530.8695652173913" y1="240.85146894315798" x2="555.6521739130435" y2="240.85146894315798" fill="none" stroke="#6495ED" stroke-width="2" stroke-dasharray="10 10" stroke-dashoffset="470.86956521739125" /><line x1="555.6521739130435" y1="240.85146894315798" x2="580.4347826086956" y2="240.85146894315798" fill="none" stroke="#6495ED" stroke-width="2" stroke-dasharray="10 10" stroke-dashoffset="495.6521739130435" /><line x1="580.4347826086956" y1="240.85146894315798" x2="605.2173913043478" y2="240.85146894315798" fill="none" stroke="#6495ED" stroke-width="2" stroke-dasharray="10 10" stroke-dashoffset="520.4347826086956" /><line x1="605.2173913043478" y1="240.85146894315798" x2="630" y2="240.85146894315798" fill="none" stroke="#6495ED" stroke-width="2" stroke-dasharray="10 10" stroke-dashoffset="545.2173913043478" /></g><g style="stroke-opacity:1" class="linegroup"><line x1="60" y1="56.1702937886316" x2="84.78260869565217" y2="56.1702937886316" fill="none" stroke="#6495ED" stroke-width="2" stroke-dasharray="10 10" stroke-dashoffset="0" /><line x1="84.78260869565217" y1="56.1702937886316" x2="109.56521739130434" y2="56.1702937886316" fill="none" stroke="#6495ED" stroke-width="2" stroke-dasharray="10 10" stroke-dashoffset="24.782608695652172" /><line x1="109.56521739130434" y1="56.1702937886316" x2="134.34782608695653" y2="56.1702937886316" fill="none" stroke="#6495ED" stroke-width="2" stroke-dasharray="10 10" stroke-dashoffset="49.565217391304344" /><line x1="134.34782608695653" y1="56.1702937886316" x2="159.1304347826087" y2="56.1702937886316" fill="none" stroke="#6495ED" stroke-width="2" stroke-dasharray="10 10" stroke-dashoffset="74.34782608695653" /><line x1="159.1304347826087" y1="56.1702937886316" x2="183.91304347826087" y2="56.1702937886316" fill="none" stroke="#6495ED" stroke-width="2" stroke-dasharray="10 10" stroke-dashoffset="99.13043478260869" /><line x1="183.91304347826087" y1="56.1702937886316" x2="208.69565217391306" y2="56.1702937886316" fill="none" stroke="#6495ED" stroke-width="2" stroke-dasharray="10 10" stroke-dashoffset="123.91304347826087" /><line x1="208.69565217391306" y1="56.1702937886316" x2="233.47826086956525" y2="56.1702937886316" fill="none" stroke="#6495ED" stroke-width="2" stroke-dasharray="10 10" stroke-dashoffset="148.69565217391306" /><line x1="233.47826086956525" y1="56.1702937886316" x2="258.2608695652174" y2="56.1702937886316" fill="none" stroke="#6495ED" stroke-width="2" stroke-dasharray="10 10" stroke-dashoffset="173.47826086956525" /><line x1="258.2608695652174" y1="56.1702937886316" x2="283.04347826086956" y2="56.1702937886316" fill="none" stroke="#6495ED" stroke-width="2" stroke-dasharray="10 10" stroke-dashoffset="198.26086956521738" /><line x1="283.04347826086956" y1="56.1702937886316" x2="307.82608695652175" y2="56.1702937886316" fill="none" stroke="#6495ED" stroke-width="2" stroke-dasharray="10 10" stroke-dashoffset="223.04347826086956" /><line x1="307.82608695652175" y1="56.1702937886316" x2="332.6086956521739" y2="56.1702937886316" fill="none" stroke="#6495ED" stroke-width="2" stroke-dasharray="10 10" stroke-dashoffset="247.82608695652175" /><line x1="332.6086956521739" y1="56.1702937886316" x2="357.3913043478261" y2="56.1702937886316" fill="none" stroke="#6495ED" stroke-width="2" stroke-dasharray="10 10" stroke-dashoffset="272.6086956521739" /><line x1="357.3913043478261" y1="56.1702937886316" x2="382.17391304347825" y2="56.1702937886316" fill="none" stroke="#6495ED" stroke-width="2" stroke-dasharray="10 10" stroke-dashoffset="297.3913043478261" /><line x1="382.17391304347825" y1="56.1702937886316" x2="406.95652173913044" y2="56.1702937886316" fill="none" stroke="#6495ED" stroke-width="2" stroke-dasharray="10 10" stroke-dashoffset="322.17391304347825" /><line x1="406.95652173913044" y1="56.1702937886316" x2="431.7391304347826" y2="56.1702937886316" fill="none" stroke="#6495ED" stroke-width="2" stroke-dasharray="10 10" stroke-dashoffset="346.95652173913044" /><line x1="431.7391304347826" y1="56.1702937886316" x2="456.52173913043475" y2="56.1702937886316" fill="none" stroke="#6495ED" stroke-width="2" stroke-dasharray="10 10" stroke-dashoffset="371.7391304347826" /><line x1="456.52173913043475" y1="56.1702937886316" x2="481.30434782608694" y2="56.1702937886316" fill="none" stroke="#6495ED" stroke-width="2" stroke-dasharray="10 10" stroke-dashoffset="396.52173913043475" /><line x1="481.30434782608694" y1="56.1702937886316" x2="506.0869565217391" y2="56.1702937886316" fill="none" stroke="#6495ED" stroke-width="2" stroke-dasharray="10 10" stroke-dashoffset="421.30434782608694" /><line x1="506.0869565217391" y1="56.1702937886316" x2="530.8695652173913" y2="56.1702937886316" fill="none" stroke="#6495ED" stroke-width="2" stroke-dasharray="10 10" stroke-dashoffset="446.0869565217391" /><line x1="530.8695652173913" y1="56.1702937886316" x2="555.6521739130435" y2="56.1702937886316" fill="none" stroke="#6495ED" stroke-width="2" stroke-dasharray="10 10" stroke-dashoffset="470.86956521739125" /><line x1="555.6521739130435" y1="56.1702937886316" x2="580.4347826086956" y2="56.1702937886316" fill="none" stroke="#6495ED" stroke-width="2" stroke-dasharray="10 10" stroke-dashoffset="495.6521739130435" /><line x1="580.4347826086956" y1="56.1702937886316" x2="605.2173913043478" y2="56.1702937886316" fill="none" stroke="#6495ED" stroke-width="2" stroke-dasharray="10 10" stroke-dashoffset="520.4347826086956" /><line x1="605.2173913043478" y1="56.1702937886316" x2="630" y2="56.1702937886316" fill="none" stroke="#6495ED" stroke-width="2" stroke-dasharray="10 10" stroke-dashoffset="545.2173913043478" /></g><g style="stroke-opacity:1" class="linegroup"><line x1="60" y1="210.07127308407027" x2="84.78260869565217" y2="210.07127308407027" fill="none" stroke="#6495ED" stroke-width="2" stroke-dasharray="2 5" stroke-dashoffset="0" /><line x1="84.78260869565217" y1="210.07127308407027" x2="109.56521739130434" y2="210.07127308407027" fill="none" stroke="#6495ED" stroke-width="2" stroke-dasharray="2 5" stroke-dashoffset="24.782608695652172" /><line x1="109.56521739130434" y1="210.07127308407027" x2="134.34782608695653" y2="210.07127308407027" fill="none" stroke="#6495ED" stroke-width="2" stroke-dasharray="2 5" stroke-dashoffset="49.565217391304344" /><line x1="134.34782608695653" y1="210.07127308407027" x2="159.1304347826087" y2="210.07127308407027" fill="none" stroke="#6495ED" stroke-width="2" stroke-dasharray="2 5" stroke-dashoffset="74.34782608695653" /><line x1="159.1304347826087" y1="210.07127308407027" x2="183.91304347826087" y2="210.07127308407027" fill="none" stroke="#6495ED" stroke-width="2" stroke-dasharray="2 5" stroke-dashoffset="99.13043478260869" /><line x1="183.91304347826087" y1="210.07127308407027" x2="208.69565217391306" y2="210.07127308407027" fill="none" stroke="#6495ED" stroke-width="2" stroke-dasharray="2 5" stroke-dashoffset="123.91304347826087" /><line x1="208.69565217391306" y1="210.07127308407027" x2="233.47826086956525" y2="210.07127308407027" fill="none" stroke="#6495ED" stroke-width="2" stroke-dasharray="2 5" stroke-dashoffset="148.69565217391306" /><line x1="233.47826086956525" y1="210.07127308407027" x2="258.2608695652174" y2="210.07127308407027" fill="none" stroke="#6495ED" stroke-width="2" stroke-dasharray="2 5" stroke-dashoffset="173.47826086956525" /><line x1="258.2608695652174" y1="210.07127308407027" x2="283.04347826086956" y2="210.07127308407027" fill="none" stroke="#6495ED" stroke-width="2" stroke-dasharray="2 5" stroke-dashoffset="198.26086956521738" /><line x1="283.04347826086956" y1="210.07127308407027" x2="307.82608695652175" y2="210.07127308407027" fill="none" stroke="#6495ED" stroke-width="2" stroke-dasharray="2 5" stroke-dashoffset="223.04347826086956" /><line x1="307.82608695652175" y1="210.07127308407027" x2="332.6086956521739" y2="210.07127308407027" fill="none" stroke="#6495ED" stroke-width="2" stroke-dasharray="2 5" stroke-dashoffset="247.82608695652175" /><line x1="332.6086956521739" y1="210.07127308407027" x2="357.3913043478261" y2="210.07127308407027" fill="none" stroke="#6495ED" stroke-width="2" stroke-dasharray="2 5" stroke-dashoffset="272.6086956521739" /><line x1="357.3913043478261" y1="210.07127308407027" x2="382.17391304347825" y2="210.07127308407027" fill="none" stroke="#6495ED" stroke-width="2" stroke-dasharray="2 5" stroke-dashoffset="297.3913043478261" /><line x1="382.17391304347825" y1="210.07127308407027" x2="406.95652173913044" y2="210.07127308407027" fill="none" stroke="#6495ED" stroke-width="2" stroke-dasharray="2 5" stroke-dashoffset="322.17391304347825" /><line x1="406.95652173913044" y1="210.07127308407027" x2="431.7391304347826" y2="210.07127308407027" fill="none" stroke="#6495ED" stroke-width="2" stroke-dasharray="2 5" stroke-dashoffset="346.95652173913044" /><line x1="431.7391304347826" y1="210.07127308407027" x2="456.52173913043475" y2="210.07127308407027" fill="none" stroke="#6495ED" stroke-width="2" stroke-dasharray="2 5" stroke-dashoffset="371.7391304347826" /><line x1="456.52173913043475" y1="210.07127308407027" x2="481.30434782608694" y2="210.07127308407027" fill="none" stroke="#6495ED" stroke-width="2" stroke-dasharray="2 5" stroke-dashoffset="396.52173913043475" /><line x1="481.30434782608694" y1="210.07127308407027" x2="506.0869565217391" y2="210.07127308407027" fill="none" stroke="#6495ED" stroke-width="2" stroke-dasharray="2 5" stroke-dashoffset="421.30434782608694" /><line x1="506.0869565217391" y1="210.07127308407027" x2="530.8695652173913" y2="210.07127308407027" fill="none" stroke="#6495ED" stroke-width="2" stroke-dasharray="2 5" stroke-dashoffset="446.0869565217391" /><line x1="530.8695652173913" y1="210.07127308407027" x2="555.6521739130435" y2="210.07127308407027" fill="none" stroke="#6495ED" stroke-width="2" stroke-dasharray="2 5" stroke-dashoffset="470.86956521739125" /><line x1="555.6521739130435" y1="210.07127308407027" x2="580.4347826086956" y2="210.07127308407027" fill="none" stroke="#6495ED" stroke-width="2" stroke-dasharray="2 5" stroke-dashoffset="495.6521739130435" /><line x1="580.4347826086956" y1="210.07127308407027" x2="605.2173913043478" y2="210.07127308407027" fill="none" stroke="#6495ED" stroke-width="2" stroke-dasharray="2 5" stroke-dashoffset="520.4347826086956" /><line x1="605.2173913043478" y1="210.07127308407027" x2="630" y2="210.07127308407027" fill="none" stroke="#6495ED" stroke-width="2" stroke-dasharray="2 5" stroke-dashoffset="545.2173913043478" /></g><g style="stroke-opacity:1" class="linegroup"><line x1="60" y1="86.95048964771931" x2="84.78260869565217" y2="86.95048964771931" fill="none" stroke="#6495ED" stroke-width="2" stroke-dasharray="2 5" stroke-dashoffset="0" /><line x1="84.78260869565217" y1="86.95048964771931" x2="109.56521739130434" y2="86.95048964771931" fill="none" stroke="#6495ED" stroke-width="2" stroke-dasharray="2 5" stroke-dashoffset="24.782608695652172" /><line x1="109.56521739130434" y1="86.95048964771931" x2="134.34782608695653" y2="86.95048964771931" fill="none" stroke="#6495ED" stroke-width="2" stroke-dasharray="2 5" stroke-dashoffset="49.565217391304344" /><line x1="134.34782608695653" y1="86.95048964771931" x2="159.1304347826087" y2="86.95048964771931" fill="none" stroke="#6495ED" stroke-width="2" stroke-dasharray="2 5" stroke-dashoffset="74.34782608695653" /><line x1="159.1304347826087" y1="86.95048964771931" x2="183.91304347826087" y2="86.95048964771931" fill="none" stroke="#6495ED" stroke-width="2" stroke-dasharray="2 5" stroke-dashoffset="99.13043478260869" /><line x1="183.91304347826087" y1="86.95048964771931" x2="208.69565217391306" y2="86.95048964771931" fill="none" stroke="#6495ED" stroke-width="2" stroke-dasharray="2 5" stroke-dashoffset="123.91304347826087" /><line x1="208.69565217391306" y1="86.95048964771931" x2="233.47826086956525" y2="86.95048964771931" fill="none" stroke="#6495ED" stroke-width="2" stroke-dasharray="2 5" stroke-dashoffset="148.69565217391306" /><line x1="233.47826086956525" y1="86.95048964771931" x2="258.2608695652174" y2="86.95048964771931" fill="none" stroke="#6495ED" stroke-width="2" stroke-dasharray="2 5" stroke-dashoffset="173.47826086956525" /><line x1="258.2608695652174" y1="86.95048964771931" x2="283.04347826086956" y2="86.95048964771931" fill="none" stroke="#6495ED" stroke-width="2" stroke-dasharray="2 5" stroke-dashoffset="198.26086956521738" /><line x1="283.04347826086956" y1="86.95048964771931" x2="307.82608695652175" y2="86.95048964771931" fill="none" stroke="#6495ED" stroke-width="2" stroke-dasharray="2 5" stroke-dashoffset="223.04347826086956" /><line x1="307.82608695652175" y1="86.95048964771931" x2="332.6086956521739" y2="86.95048964771931" fill="none" stroke="#6495ED" stroke-width="2" stroke-dasharray="2 5" stroke-dashoffset="247.82608695652175" /><line x1="332.6086956521739" y1="86.95048964771931" x2="357.3913043478261" y2="86.95048964771931" fill="none" stroke="#6495ED" stroke-width="2" stroke-dasharray="2 5" stroke-dashoffset="272.6086956521739" /><line x1="357.3913043478261" y1="86.95048964771931" x2="382.17391304347825" y2="86.95048964771931" fill="none" stroke="#6495ED" stroke-width="2" stroke-dasharray="2 5" stroke-dashoffset="297.3913043478261" /><line x1="382.17391304347825" y1="86.95048964771931" x2="406.95652173913044" y2="86.95048964771931" fill="none" stroke="#6495ED" stroke-width="2" stroke-dasharray="2 5" stroke-dashoffset="322.17391304347825" /><line x1="406.95652173913044" y1="86.95048964771931" x2="431.7391304347826" y2="86.95048964771931" fill="none" stroke="#6495ED" stroke-width="2" stroke-dasharray="2 5" stroke-dashoffset="346.95652173913044" /><line x1="431.7391304347826" y1="86.95048964771931" x2="456.52173913043475" y2="86.95048964771931" fill="none" stroke="#6495ED" stroke-width="2" stroke-dasharray="2 5" stroke-dashoffset="371.7391304347826" /><line x1="456.52173913043475" y1="86.95048964771931" x2="481.30434782608694" y2="86.95048964771931" fill="none" stroke="#6495ED" stroke-width="2" stroke-dasharray="2 5" stroke-dashoffset="396.52173913043475" /><line x1="481.30434782608694" y1="86.95048964771931" x2="506.0869565217391" y2="86.95048964771931" fill="none" stroke="#6495ED" stroke-width="2" stroke-dasharray="2 5" stroke-dashoffset="421.30434782608694" /><line x1="506.0869565217391" y1="86.95048964771931" x2="530.8695652173913" y2="86.95048964771931" fill="none" stroke="#6495ED" stroke-width="2" stroke-dasharray="2 5" stroke-dashoffset="446.0869565217391" /><line x1="530.8695652173913" y1="86.95048964771931" x2="555.6521739130435" y2="86.95048964771931" fill="none" stroke="#6495ED" stroke-width="2" stroke-dasharray="2 5" stroke-dashoffset="470.86956521739125" /><line x1="555.6521739130435" y1="86.95048964771931" x2="580.4347826086956" y2="86.95048964771931" fill="none" stroke="#6495ED" stroke-width="2" stroke-dasharray="2 5" stroke-dashoffset="495.6521739130435" /><line x1="580.4347826086956" y1="86.95048964771931" x2="605.2173913043478" y2="86.95048964771931" fill="none" stroke="#6495ED" stroke-width="2" stroke-dasharray="2 5" stroke-dashoffset="520.4347826086956" /><line x1="605.2173913043478" y1="86.95048964771931" x2="630" y2="86.95048964771931" fill="none" stroke="#6495ED" stroke-width="2" stroke-dasharray="2 5" stroke-dashoffset="545.2173913043478" /></g><text x="630" y="183.22122706828367" fill="#000000" font-size="10px" font-family="'Arial', sans-serif" text-anchor="start" dx="10px" dy="0px" /><text x="630" y="148.5108813658948" fill="#000000" font-size="10px" font-family="'Arial', sans-serif" text-anchor="start" dx="10px" dy="0px" /><text x="630" y="240.85146894315798" fill="#000000" font-size="10px" font-family="'Arial', sans-serif" text-anchor="start" dx="10px" dy="0px" /><text x="630" y="56.1702937886316" fill="#000000" font-size="10px" font-family="'Arial', sans-serif" text-anchor="start" dx="10px" dy="0px" /><text x="630" y="210.07127308407027" fill="#000000" font-size="10px" font-family="'Arial', sans-serif" text-anchor="start" dx="10px" dy="0px" /><text x="630" y="86.95048964771931" fill="#000000" font-size="10px" font-family="'Arial', sans-serif" text-anchor="start" dx="10px" dy="0px" /></g><g class="dotsgroup"><path style="fill:#A6A6A6;stroke:#A6A6A6;stroke-width:1;fill-opacity:1;stroke-opacity:1" d="M2.5,0A2.5,2.5,0,1,1,-2.5,0A2.5,2.5,0,1,1,2.5,0" transform="translate(60, 169.78616254110355)" /><path style="fill:#A6A6A6;stroke:#A6A6A6;stroke-width:1;fill-opacity:1;stroke-opacity:1" d="M2.5,0A2.5,2.5,0,1,1,-2.5,0A2.5,2.5,0,1,1,2.5,0" transform="translate(84.78260869565217, 106.4278973858948)" /><path style="fill:#A6A6A6;stroke:#A6A6A6;stroke-width:1;fill-opacity:1;stroke-opacity:1" d="M2.5,0A2.5,2.5,0,1,1,-2.5,0A2.5,2.5,0,1,1,2.5,0" transform="translate(109.56521739130434, 141.4613233848748)" /><path style="fill:#A6A6A6;stroke:#A6A6A6;stroke-width:1;fill-opacity:1;stroke-opacity:1" d="M2.5,0A2.5,2.5,0,1,1,-2.5,0A2.5,2.5,0,1,1,2.5,0" transform="translate(134.34782608695653, 157.57852290188129)" /><path style="fill:#A6A6A6;stroke:#A6A6A6;stroke-width:1;fill-opacity:1;stroke-opacity:1" d="M2.5,0A2.5,2.5,0,1,1,-2.5,0A2.5,2.5,0,1,1,2.5,0" transform="translate(159.1304347826087, 162.66220461469075)" /><path style="fill:#A6A6A6;stroke:#A6A6A6;stroke-width:1;fill-opacity:1;stroke-opacity:1" d="M2.5,0A2.5,2.5,0,1,1,-2.5,0A2.5,2.5,0,1,1,2.5,0" transform="translate(183.91304347826087, 113.2501533805233)" /><path style="fill:#A6A6A6;stroke:#A6A6A6;stroke-width:1;fill-opacity:1;stroke-opacity:1" d="M2.5,0A2.5,2.5,0,1,1,-2.5,0A2.5,2.5,0,1,1,2.5,0" transform="translate(208.69565217391306, 105.09484710164546)" /><path style="fill:#A6A6A6;stroke:#A6A6A6;stroke-width:1;fill-opacity:1;stroke-opacity:1" d="M2.5,0A2.5,2.5,0,1,1,-2.5,0A2.5,2.5,0,1,1,2.5,0" transform="translate(233.47826086956525, 276.17029378863157)" /><path style="fill:#A6A6A6;stroke:#A6A6A6;stroke-width:1;fill-opacity:1;stroke-opacity:1" d="M2.5,0A2.5,2.5,0,1,1,-2.5,0A2.5,2.5,0,1,1,2.5,0" transform="translate(258.2608695652174, 155.4001853829394)" /><path style="fill:#A6A6A6;stroke:#A6A6A6;stroke-width:1;fill-opacity:1;stroke-opacity:1" d="M2.5,0A2.5,2.5,0,1,1,-2.5,0A2.5,2.5,0,1,1,2.5,0" transform="translate(283.04347826086956, 182.59800191523888)" /><path style="fill:#A6A6A6;stroke:#A6A6A6;stroke-width:1;fill-opacity:1;stroke-opacity:1" d="M2.5,0A2.5,2.5,0,1,1,-2.5,0A2.5,2.5,0,1,1,2.5,0" transform="translate(307.82608695652175, 100.31310193394417)" /><path style="fill:#A6A6A6;stroke:#A6A6A6;stroke-width:1;fill-opacity:1;stroke-opacity:1" d="M2.5,0A2.5,2.5,0,1,1,-2.5,0A2.5,2.5,0,1,1,2.5,0" transform="translate(332.6086956521739, 87.68488622987823)" /><path style="fill:#A6A6A6;stroke:#A6A6A6;stroke-width:1;fill-opacity:1;stroke-opacity:1" d="M2.5,0A2.5,2.5,0,1,1,-2.5,0A2.5,2.5,0,1,1,2.5,0" transform="translate(357.3913043478261, 117.55891750705999)" /><path style="fill:#A6A6A6;stroke:#A6A6A6;stroke-width:1;fill-opacity:1;stroke-opacity:1" d="M2.5,0A2.5,2.5,0,1,1,-2.5,0A2.5,2.5,0,1,1,2.5,0" transform="translate(382.17391304347825, 139.9602595868202)" /><path style="fill:#A6A6A6;stroke:#A6A6A6;stroke-width:1;fill-opacity:1;stroke-opacity:1" d="M2.5,0A2.5,2.5,0,1,1,-2.5,0A2.5,2.5,0,1,1,2.5,0" transform="translate(406.95652173913044, 139.33746068524923)" /><path style="fill:#A6A6A6;stroke:#A6A6A6;stroke-width:1;fill-opacity:1;stroke-opacity:1" d="M2.5,0A2.5,2.5,0,1,1,-2.5,0A2.5,2.5,0,1,1,2.5,0" transform="translate(431.7391304347826, 161.3599617278626)" /><path style="fill:#A6A6A6;stroke:#A6A6A6;stroke-width:1;fill-opacity:1;stroke-opacity:1" d="M2.5,0A2.5,2.5,0,1,1,-2.5,0A2.5,2.5,0,1,1,2.5,0" transform="translate(456.52173913043475, 154.9470827880837)" /><path style="fill:#A6A6A6;stroke:#A6A6A6;stroke-width:1;fill-opacity:1;stroke-opacity:1" d="M2.5,0A2.5,2.5,0,1,1,-2.5,0A2.5,2.5,0,1,1,2.5,0" transform="translate(481.30434782608694, 136.85394626531902)" /><path style="fill:#A6A6A6;stroke:#A6A6A6;stroke-width:1;fill-opacity:1;stroke-opacity:1" d="M2.5,0A2.5,2.5,0,1,1,-2.5,0A2.5,2.5,0,1,1,2.5,0" transform="translate(506.0869565217391, 121.42347778033684)" /><path style="fill:#A6A6A6;stroke:#A6A6A6;stroke-width:1;fill-opacity:1;stroke-opacity:1" d="M2.5,0A2.5,2.5,0,1,1,-2.5,0A2.5,2.5,0,1,1,2.5,0" transform="translate(530.8695652173913, 163.16098051796004)" /><path style="fill:#A6A6A6;stroke:#A6A6A6;stroke-width:1;fill-opacity:1;stroke-opacity:1" d="M2.5,0A2.5,2.5,0,1,1,-2.5,0A2.5,2.5,0,1,1,2.5,0" transform="translate(555.6521739130435, 104.78772311319271)" /><path style="fill:#A6A6A6;stroke:#A6A6A6;stroke-width:1;fill-opacity:1;stroke-opacity:1" d="M2.5,0A2.5,2.5,0,1,1,-2.5,0A2.5,2.5,0,1,1,2.5,0" transform="translate(580.4347826086956, 174.80183382548333)" /><path style="fill:#A6A6A6;stroke:#A6A6A6;stroke-width:1;fill-opacity:1;stroke-opacity:1" d="M2.5,0A2.5,2.5,0,1,1,-2.5,0A2.5,2.5,0,1,1,2.5,0" transform="translate(605.2173913043478, 208.42070135457632)" /><path style="fill:#A6A6A6;stroke:#A6A6A6;stroke-width:1;fill-opacity:1;stroke-opacity:1" d="M2.5,0A2.5,2.5,0,1,1,-2.5,0A2.5,2.5,0,1,1,2.5,0" transform="translate(630, 183.22122706828367)" /></g></svg>