<svg viewBox="0 0 640 400" width="640px" height="400px" xmlns="http://www.w3.org/2000/svg"><rect x="0" y="0" width="100%" height="100%" fill="white"/><line style="stroke-opacity:0" class="ttip-line-x" x1="0" x2="0" y1="10" y2="340" stroke-width="1px" stroke="black" /><line style="stroke-opacity:0" class="ttip-line-y" x1="60" x2="630" y1="0" y2="0" stroke-width="1px" stroke="black" /><g class="xaxisgroup" fill="none" font-size="10" font-family="sans-serif" text-anchor="middle" color="#000000" transform="translate(0, 340)"><path class="domain" stroke="currentColor" d="M60.5,6V0.5H630.5V6" /><g class="tick" opacity="1" transform="translate(86.4090909090909,0)"><line stroke="currentColor" y2="6" /><text style="text-anchor:end;font-size:10px;font-family:'Arial', sans-serif;fill:#000000" fill="currentColor" y="9" dy="-.15em" dx="-.8em" transform="rotate(-35)"> 01/03/2024</text></g><g class="tick" opacity="1" transform="translate(138.22727272727272,0)"><line stroke="currentColor" y2="6" /><text style="text-anchor:end;font-size:10px;font-family:'Arial', sans-serif;fill:#000000" fill="currentColor" y="9" dy="-.15em" dx="-.8em" transform="rotate(-35)"> 01/05/2024</text></g><g class="tick" opacity="1" transform="translate(190.04545454545456,0)"><line stroke="currentColor" y2="6" /><text style="text-anchor:end;font-size:10px;font-family:'Arial', sans-serif;fill:#000000" fill="currentColor" y="9" dy="-.15em" dx="-.8em" transform="rotate(-35)"> 01/07/2024</text></g><g class="tick" opacity="1" transform="translate(241.86363636363635,0)"><line stroke="currentColor" y2="6" /><text style="text-anchor:end;font-size:10px;font-family:'Arial', sans-serif;fill:#000000" fill="currentColor" y="9" dy="-.15em" dx="-.8em" transform="rotate(-35)"> 01/09/2024</text></g><g class="tick" opacity="1" transform="translate(293.6818181818182,0)"><line stroke="currentColor" y2="6" /><text style="text-anchor:end;font-size:10px;font-family:'Arial', sans-serif;fill:#000000" fill="currentColor" y="9" dy="-.15em" dx="-.8em" transform="rotate(-35)"> 01/11/2024</text></g><g class="tick" opacity="1" transform="translate(345.5,0)"><line stroke="currentColor" y2="6" /><text style="text-anchor:end;font-size:10px;font-family:'Arial', sans-serif;fill:#000000" fill="currentColor" y="9" dy="-.15em" dx="-.8em" transform="rotate(-35)"> 01/01/2025</text></g><g class="tick" opacity="1" transform="translate(397.31818181818187,0)"><line stroke="currentColor" y2="6" /><text style="text-anchor:end;font-size:10px;font-family:'Arial', sans-serif;fill:#000000" fill="currentColor" y="9" dy="-.15em" dx="-.8em" transform="rotate(-35)"> 01/03/2025</text></g><g class="tick" opacity="1" transform="translate(449.1363636363636,0)"><line stroke="currentColor" y2="6" /><text style="text-anchor:end;font-size:10px;font-family:'Arial', sans-serif;fill:#000000" fill="currentColor" y="9" dy="-.15em" dx="-.8em" transform="rotate(-35)"> 01/05/2025</text></g><g class="tick" opacity="1" transform="translate(500.95454545454544,0)"><line stroke="currentColor" y2="6" /><text style="text-anchor:end;font-size:10px;font-family:'Arial', sans-serif;fill:#000000" fill="currentColor" y="9" dy="-.15em" dx="-.8em" transform="rotate(-35)"> 01/07/2025</text></g><g class="tick" opacity="1" transform="translate(552.7727272727273,0)"><line stroke="currentColor" y2="6" /><text style="text-anchor:end;font-size:10px;font-family:'Arial', sans-serif;fill:#000000" fill="currentColor" y="9" dy="-.15em" dx="-.8em" transform="rotate(-35)"> 01/09/2025</text></g><g class="tick" opacity="1" transform="translate(604.5909090909091,0)"><line stroke="currentColor" y2="6" /><text style="text-anchor:end;font-size:10px;font-family:'Arial', sans-serif;fill:#000000" fill="currentColor" y="9" dy="-.15em" dx="-.8em" transform="rotate(-35)"> 01/11/2025</text></g></g><text style="text-anchor:middle;font-size:10px;font-family:'Arial', sans-serif;fill:#000000" class="xaxislabel" x="320" y="380" /><g class="yaxisgroup" fill="none" font-size="10" font-family="sans-serif" text-anchor="end" color="#000000" transform="translate(60, 0)"><path class="domain" stroke="currentColor" d="M-6,340.5H0.5V10.5H-6" /><g class="tick" opacity="1" transform="translate(0,306.82996632996634)"><line stroke="currentColor" x2="-6" /><text style="text-anchor:right;font-size:10px;font-family:'Arial', sans-serif;fill:#000000" fill="currentColor" x="-9" dy="0.32em" transform="rotate(0)">0.00</text></g><g class="tick" opacity="1" transform="translate(0,272.9002313894553)"><line stroke="currentColor" x2="-6" /><text style="text-anchor:right;font-size:10px;font-family:'Arial', sans-serif;fill:#000000" fill="currentColor" x="-9" dy="0.32em" transform="rotate(0)">1.00</text></g><g class="tick" opacity="1" transform="translate(0,238.97049644894432)"><line stroke="currentColor" x2="-6" /><text style="text-anchor:right;font-size:10px;font-family:'Arial', sans-serif;fill:#000000" fill="currentColor" x="-9" dy="0.32em" transform="rotate(0)">2.00</text></g><g class="tick" opacity="1" transform="translate(0,205.04076150843335)"><line stroke="currentColor" x2="-6" /><text style="text-anchor:right;font-size:10px;font-family:'Arial', sans-serif;fill:#000000" fill="currentColor" x="-9" dy="0.32em" transform="rotate(0)">3.00</text></g><g class="tick" opacity="1" transform="translate(0,171.1110265679223)"><line stroke="currentColor" x2="-6" /><text style="text-anchor:right;font-size:10px;font-family:'Arial', sans-serif;fill:#000000" fill="currentColor" x="-9" dy="0.32em" transform="rotate(0)">4.00</text></g><g class="tick" opacity="1" transform="translate(0,137.18129162741133)"><line stroke="currentColor" x2="-6" /><text style="text-anchor:right;font-size:10px;font-family:'Arial', sans-serif;fill:#000000" fill="currentColor" x="-9" dy="0.32em" transform="rotate(0)">5.00</text></g><g class="tick" opacity="1" transform="translate(0,103.25155668690027)"><line stroke="currentColor" x2="-6" /><text style="text-anchor:right;font-size:10px;font-family:'Arial', sans-serif;fill:#000000" fill="currentColor" x="-9" dy="0.32em" transform="rotate(0)">6.00</text></g><g class="tick" opacity="1" transform="translate(0,69.32182174638928)"><line stroke="currentColor" x2="-6" /><text style="text-anchor:right;font-size:10px;font-family:'Arial', sans-serif;fill:#000000" fill="currentColor" x="-9" dy="0.32em" transform="rotate(0)">7.00</text></g><g class="tick" opacity="1" transform="translate(0,35.39208680587828)"><line stroke="currentColor" x2="-6" /><text style="text-anchor:right;font-size:10px;font-family:'Arial', sans-serif;fill:#000000" fill="currentColor" x="-9" dy="0.32em" transform="rotate(0)">8.00</text></g></g><text style="text-anchor:middle;font-size:10px;font-family:'Arial', sans-serif;fill:#000000" class="yaxislabel" x="30" y="200" transform="rotate(-90, 30, 200)" /><g class="linesgroup"><g style="stroke-opacity:1" class="linegroup"><line x1="60" y1="285.65468620082925" x2="85.9090909090909" y2="292.73085883182756" fill="none" stroke="#A6A6A6" stroke-width="1" stroke-dasharray="10 0" stroke-dashoffset="0" /><line x1="85.9090909090909" y1="292.73085883182756" x2="111.81818181818181" y2="243.34718474237872" fill="none" stroke="#A6A6A6" stroke-width="1" stroke-dasharray="10 0" stroke-dashoffset="25.909090909090907" /><line x1="111.81818181818181" y1="243.34718474237872" x2="137.72727272727272" y2="179.11388575813416" fill="none" stroke="#A6A6A6" stroke-width="1" stroke-dasharray="10 0" stroke-dashoffset="51.81818181818181" /><line x1="137.72727272727272" y1="179.11388575813416" x2="163.63636363636363" y2="276.7897950833416" fill="none" stroke="#A6A6A6" stroke-width="1" stroke-dasharray="10 0" stroke-dashoffset="77.72727272727272" /><line x1="163.63636363636363" y1="276.7897950833416" x2="189.54545454545456" y2="304.63748895486737" fill="none" stroke="#A6A6A6" stroke-width="1" stroke-dasharray="10 0" stroke-dashoffset="103.63636363636363" /><line x1="189.54545454545456" y1="304.63748895486737" x2="215.45454545454544" y2="192.273020309428" fill="none" stroke="#A6A6A6" stroke-width="1" stroke-dasharray="10 0" stroke-dashoffset="129.54545454545456" /><line x1="215.45454545454544" y1="192.273020309428" x2="241.36363636363635" y2="188.801668217662" fill="none" stroke="#A6A6A6" stroke-width="1" stroke-dasharray="10 0" stroke-dashoffset="155.45454545454544" /><line x1="241.36363636363635" y1="188.801668217662" x2="267.27272727272725" y2="161.209942520511" fill="none" stroke="#A6A6A6" stroke-width="1" stroke-dasharray="10 0" stroke-dashoffset="181.36363636363635" /><line x1="267.27272727272725" y1="161.209942520511" x2="293.1818181818182" y2="230.9697342457229" fill="none" stroke="#A6A6A6" stroke-width="1" stroke-dasharray="10 0" stroke-dashoffset="207.27272727272725" /><line x1="293.1818181818182" y1="230.9697342457229" x2="319.0909090909091" y2="261.5626902423555" fill="none" stroke="#A6A6A6" stroke-width="1" stroke-dasharray="10 0" stroke-dashoffset="233.1818181818182" /><line x1="319.0909090909091" y1="261.5626902423555" x2="345" y2="245.22997471344735" fill="none" stroke="#A6A6A6" stroke-width="1" stroke-dasharray="10 0" stroke-dashoffset="259.0909090909091" /><line x1="345" y1="245.22997471344735" x2="370.9090909090909" y2="175.93466477156315" fill="none" stroke="#A6A6A6" stroke-width="1" stroke-dasharray="10 0" stroke-dashoffset="285" /><line x1="370.9090909090909" y1="175.93466477156315" x2="396.81818181818187" y2="242.11874505013353" fill="none" stroke="#A6A6A6" stroke-width="1" stroke-dasharray="10 0" stroke-dashoffset="310.9090909090909" /><line x1="396.81818181818187" y1="242.11874505013353" x2="422.7272727272727" y2="222.33540947593906" fill="none" stroke="#A6A6A6" stroke-width="1" stroke-dasharray="10 0" stroke-dashoffset="336.81818181818187" /><line x1="422.7272727272727" y1="222.33540947593906" x2="448.6363636363636" y2="238.06760438808948" fill="none" stroke="#A6A6A6" stroke-width="1" stroke-dasharray="10 0" stroke-dashoffset="362.7272727272727" /><line x1="448.6363636363636" y1="238.06760438808948" x2="474.54545454545456" y2="253.01739007081767" fill="none" stroke="#A6A6A6" stroke-width="1" stroke-dasharray="10 0" stroke-dashoffset="388.6363636363636" /><line x1="474.54545454545456" y1="253.01739007081767" x2="500.45454545454544" y2="297.4867320932152" fill="none" stroke="#A6A6A6" stroke-width="1" stroke-dasharray="10 0" stroke-dashoffset="414.54545454545456" /><line x1="500.45454545454544" y1="297.4867320932152" x2="526.3636363636364" y2="193.09842763281074" fill="none" stroke="#A6A6A6" stroke-width="1" stroke-dasharray="10 0" stroke-dashoffset="440.45454545454544" /><line x1="526.3636363636364" y1="193.09842763281074" x2="552.2727272727273" y2="196.77965692055028" fill="none" stroke="#A6A6A6" stroke-width="1" stroke-dasharray="10 0" stroke-dashoffset="466.3636363636364" /><line x1="552.2727272727273" y1="196.77965692055028" x2="578.1818181818182" y2="258.35401421204585" fill="none" stroke="#A6A6A6" stroke-width="1" stroke-dasharray="10 0" stroke-dashoffset="492.27272727272725" /><line x1="578.1818181818182" y1="258.35401421204585" x2="604.0909090909091" y2="263.19580621221604" fill="none" stroke="#A6A6A6" stroke-width="1" stroke-dasharray="10 0" stroke-dashoffset="518.1818181818182" /><line x1="604.0909090909091" y1="263.19580621221604" x2="630" y2="294.05829611979067" fill="none" stroke="#A6A6A6" stroke-width="1" stroke-dasharray="10 0" stroke-dashoffset="544.0909090909091" /></g><g style="stroke-opacity:1" class="linegroup"><line x1="60" y1="238.989898989899" x2="85.9090909090909" y2="238.989898989899" fill="none" stroke="#000000" stroke-width="1.5" stroke-dasharray="10 0" stroke-dashoffset="0" /><line x1="85.9090909090909" y1="238.989898989899" x2="111.81818181818181" y2="238.989898989899" fill="none" stroke="#000000" stroke-width="1.5" stroke-dasharray="10 0" stroke-dashoffset="25.909090909090907" /><line x1="111.81818181818181" y1="238.989898989899" x2="137.72727272727272" y2="238.989898989899" fill="none" stroke="#000000" stroke-width="1.5" stroke-dasharray="10 0" stroke-dashoffset="51.81818181818181" /><line x1="137.72727272727272" y1="238.989898989899" x2="163.63636363636363" y2="238.989898989899" fill="none" stroke="#000000" stroke-width="1.5" stroke-dasharray="10 0" stroke-dashoffset="77.72727272727272" /><line x1="163.63636363636363" y1="238.989898989899" x2="189.54545454545456" y2="238.989898989899" fill="none" stroke="#000000" stroke-width="1.5" stroke-dasharray="10 0" stroke-dashoffset="103.63636363636363" /><line x1="189.54545454545456" y1="238.989898989899" x2="215.45454545454544" y2="238.989898989899" fill="none" stroke="#000000" stroke-width="1.5" stroke-dasharray="10 0" stroke-dashoffset="129.54545454545456" /><line x1="215.45454545454544" y1="238.989898989899" x2="241.36363636363635" y2="238.989898989899" fill="none" stroke="#000000" stroke-width="1.5" stroke-dasharray="10 0" stroke-dashoffset="155.45454545454544" /><line x1="241.36363636363635" y1="238.989898989899" x2="267.27272727272725" y2="238.989898989899" fill="none" stroke="#000000" stroke-width="1.5" stroke-dasharray="10 0" stroke-dashoffset="181.36363636363635" /><line x1="267.27272727272725" y1="238.989898989899" x2="293.1818181818182" y2="238.989898989899" fill="none" stroke="#000000" stroke-width="1.5" stroke-dasharray="10 0" stroke-dashoffset="207.27272727272725" /><line x1="293.1818181818182" y1="238.989898989899" x2="319.0909090909091" y2="238.989898989899" fill="none" stroke="#000000" stroke-width="1.5" stroke-dasharray="10 0" stroke-dashoffset="233.1818181818182" /><line x1="319.0909090909091" y1="238.989898989899" x2="345" y2="238.989898989899" fill="none" stroke="#000000" stroke-width="1.5" stroke-dasharray="10 0" stroke-dashoffset="259.0909090909091" /><line x1="345" y1="238.989898989899" x2="370.9090909090909" y2="238.989898989899" fill="none" stroke="#000000" stroke-width="1.5" stroke-dasharray="10 0" stroke-dashoffset="285" /><line x1="370.9090909090909" y1="238.989898989899" x2="396.81818181818187" y2="238.989898989899" fill="none" stroke="#000000" stroke-width="1.5" stroke-dasharray="10 0" stroke-dashoffset="310.9090909090909" /><line x1="396.81818181818187" y1="238.989898989899" x2="422.7272727272727" y2="238.989898989899" fill="none" stroke="#000000" stroke-width="1.5" stroke-dasharray="10 0" stroke-dashoffset="336.81818181818187" /><line x1="422.7272727272727" y1="238.989898989899" x2="448.6363636363636" y2="238.989898989899" fill="none" stroke="#000000" stroke-width="1.5" stroke-dasharray="10 0" stroke-dashoffset="362.7272727272727" /><line x1="448.6363636363636" y1="238.989898989899" x2="474.54545454545456" y2="238.989898989899" fill="none" stroke="#000000" stroke-width="1.5" stroke-dasharray="10 0" stroke-dashoffset="388.6363636363636" /><line x1="474.54545454545456" y1="238.989898989899" x2="500.45454545454544" y2="238.989898989899" fill="none" stroke="#000000" stroke-width="1.5" stroke-dasharray="10 0" stroke-dashoffset="414.54545454545456" /><line x1="500.45454545454544" y1="238.989898989899" x2="526.3636363636364" y2="238.989898989899" fill="none" stroke="#000000" stroke-width="1.5" stroke-dasharray="10 0" stroke-dashoffset="440.45454545454544" /><line x1="526.3636363636364" y1="238.989898989899" x2="552.2727272727273" y2="238.989898989899" fill="none" stroke="#000000" stroke-width="1.5" stroke-dasharray="10 0" stroke-dashoffset="466.3636363636364" /><line x1="552.2727272727273" y1="238.989898989899" x2="578.1818181818182" y2="238.989898989899" fill="none" stroke="#000000" stroke-width="1.5" stroke-dasharray="10 0" stroke-dashoffset="492.27272727272725" /><line x1="578.1818181818182" y1="238.989898989899" x2="604.0909090909091" y2="238.989898989899" fill="none" stroke="#000000" stroke-width="1.5" stroke-dasharray="10 0" stroke-dashoffset="518.1818181818182" /><line x1="604.0909090909091" y1="238.989898989899" x2="630" y2="238.989898989899" fill="none" stroke="#000000" stroke-width="1.5" stroke-dasharray="10 0" stroke-dashoffset="544.0909090909091" /></g><g style="stroke-opacity:1" class="linegroup"><line x1="60" y1="306.32996632996634" x2="85.9090909090909" y2="306.32996632996634" fill="none" stroke="#6495ED" stroke-width="2" stroke-dasharray="10 10" stroke-dashoffset="0" /><line x1="85.9090909090909" y1="306.32996632996634" x2="111.81818181818181" y2="306.32996632996634" fill="none" stroke="#6495ED" stroke-width="2" stroke-dasharray="10 10" stroke-dashoffset="25.909090909090907" /><line x1="111.81818181818181" y1="306.32996632996634" x2="137.72727272727272" y2="306.32996632996634" fill="none" stroke="#6495ED" stroke-width="2" stroke-dasharray="10 10" stroke-dashoffset="51.81818181818181" /><line x1="137.72727272727272" y1="306.32996632996634" x2="163.63636363636363" y2="306.32996632996634" fill="none" stroke="#6495ED" stroke-width="2" stroke-dasharray="10 10" stroke-dashoffset="77.72727272727272" /><line x1="163.63636363636363" y1="306.32996632996634" x2="189.54545454545456" y2="306.32996632996634" fill="none" stroke="#6495ED" stroke-width="2" stroke-dasharray="10 10" stroke-dashoffset="103.63636363636363" /><line x1="189.54545454545456" y1="306.32996632996634" x2="215.45454545454544" y2="306.32996632996634" fill="none" stroke="#6495ED" stroke-width="2" stroke-dasharray="10 10" stroke-dashoffset="129.54545454545456" /><line x1="215.45454545454544" y1="306.32996632996634" x2="241.36363636363635" y2="306.32996632996634" fill="none" stroke="#6495ED" stroke-width="2" stroke-dasharray="10 10" stroke-dashoffset="155.45454545454544" /><line x1="241.36363636363635" y1="306.32996632996634" x2="267.27272727272725" y2="306.32996632996634" fill="none" stroke="#6495ED" stroke-width="2" stroke-dasharray="10 10" stroke-dashoffset="181.36363636363635" /><line x1="267.27272727272725" y1="306.32996632996634" x2="293.1818181818182" y2="306.32996632996634" fill="none" stroke="#6495ED" stroke-width="2" stroke-dasharray="10 10" stroke-dashoffset="207.27272727272725" /><line x1="293.1818181818182" y1="306.32996632996634" x2="319.0909090909091" y2="306.32996632996634" fill="none" stroke="#6495ED" stroke-width="2" stroke-dasharray="10 10" stroke-dashoffset="233.1818181818182" /><line x1="319.0909090909091" y1="306.32996632996634" x2="345" y2="306.32996632996634" fill="none" stroke="#6495ED" stroke-width="2" stroke-dasharray="10 10" stroke-dashoffset="259.0909090909091" /><line x1="345" y1="306.32996632996634" x2="370.9090909090909" y2="306.32996632996634" fill="none" stroke="#6495ED" stroke-width="2" stroke-dasharray="10 10" stroke-dashoffset="285" /><line x1="370.9090909090909" y1="306.32996632996634" x2="396.81818181818187" y2="306.32996632996634" fill="none" stroke="#6495ED" stroke-width="2" stroke-dasharray="10 10" stroke-dashoffset="310.9090909090909" /><line x1="396.81818181818187" y1="306.32996632996634" x2="422.7272727272727" y2="306.32996632996634" fill="none" stroke="#6495ED" stroke-width="2" stroke-dasharray="10 10" stroke-dashoffset="336.81818181818187" /><line x1="422.7272727272727" y1="306.32996632996634" x2="448.6363636363636" y2="306.32996632996634" fill="none" stroke="#6495ED" stroke-width="2" stroke-dasharray="10 10" stroke-dashoffset="362.7272727272727" /><line x1="448.6363636363636" y1="306.32996632996634" x2="474.54545454545456" y2="306.32996632996634" fill="none" stroke="#6495ED" stroke-width="2" stroke-dasharray="10 10" stroke-dashoffset="388.6363636363636" /><line x1="474.54545454545456" y1="306.32996632996634" x2="500.45454545454544" y2="306.32996632996634" fill="none" stroke="#6495ED" stroke-width="2" stroke-dasharray="10 10" stroke-dashoffset="414.54545454545456" /><line x1="500.45454545454544" y1="306.32996632996634" x2="526.3636363636364" y2="306.32996632996634" fill="none" stroke="#6495ED" stroke-width="2" stroke-dasharray="10 10" stroke-dashoffset="440.45454545454544" /><line x1="526.3636363636364" y1="306.32996632996634" x2="552.2727272727273" y2="306.32996632996634" fill="none" stroke="#6495ED" stroke-width="2" stroke-dasharray="10 10" stroke-dashoffset="466.3636363636364" /><line x1="552.2727272727273" y1="306.32996632996634" x2="578.1818181818182" y2="306.32996632996634" fill="none" stroke="#6495ED" stroke-width="2" stroke-dasharray="10 10" stroke-dashoffset="492.27272727272725" /><line x1="578.1818181818182" y1="306.32996632996634" x2="604.0909090909091" y2="306.32996632996634" fill="none" stroke="#6495ED" stroke-width="2" stroke-dasharray="10 10" stroke-dashoffset="518.1818181818182" /><line x1="604.0909090909091" y1="306.32996632996634" x2="630" y2="306.32996632996634" fill="none" stroke="#6495ED" stroke-width="2" stroke-dasharray="10 10" stroke-dashoffset="544.0909090909091" /></g><g style="stroke-opacity:1" class="linegroup"><line x1="60" y1="86.3299663299664" x2="85.9090909090909" y2="86.3299663299664" fill="none" stroke="#6495ED" stroke-width="2" stroke-dasharray="10 10" stroke-dashoffset="0" /><line x1="85.9090909090909" y1="86.3299663299664" x2="111.81818181818181" y2="86.3299663299664" fill="none" stroke="#6495ED" stroke-width="2" stroke-dasharray="10 10" stroke-dashoffset="25.909090909090907" /><line x1="111.81818181818181" y1="86.3299663299664" x2="137.72727272727272" y2="86.3299663299664" fill="none" stroke="#6495ED" stroke-width="2" stroke-dasharray="10 10" stroke-dashoffset="51.81818181818181" /><line x1="137.72727272727272" y1="86.3299663299664" x2="163.63636363636363" y2="86.3299663299664" fill="none" stroke="#6495ED" stroke-width="2" stroke-dasharray="10 10" stroke-dashoffset="77.72727272727272" /><line x1="163.63636363636363" y1="86.3299663299664" x2="189.54545454545456" y2="86.3299663299664" fill="none" stroke="#6495ED" stroke-width="2" stroke-dasharray="10 10" stroke-dashoffset="103.63636363636363" /><line x1="189.54545454545456" y1="86.3299663299664" x2="215.45454545454544" y2="86.3299663299664" fill="none" stroke="#6495ED" stroke-width="2" stroke-dasharray="10 10" stroke-dashoffset="129.54545454545456" /><line x1="215.45454545454544" y1="86.3299663299664" x2="241.36363636363635" y2="86.3299663299664" fill="none" stroke="#6495ED" stroke-width="2" stroke-dasharray="10 10" stroke-dashoffset="155.45454545454544" /><line x1="241.36363636363635" y1="86.3299663299664" x2="267.27272727272725" y2="86.3299663299664" fill="none" stroke="#6495ED" stroke-width="2" stroke-dasharray="10 10" stroke-dashoffset="181.36363636363635" /><line x1="267.27272727272725" y1="86.3299663299664" x2="293.1818181818182" y2="86.3299663299664" fill="none" stroke="#6495ED" stroke-width="2" stroke-dasharray="10 10" stroke-dashoffset="207.27272727272725" /><line x1="293.1818181818182" y1="86.3299663299664" x2="319.0909090909091" y2="86.3299663299664" fill="none" stroke="#6495ED" stroke-width="2" stroke-dasharray="10 10" stroke-dashoffset="233.1818181818182" /><line x1="319.0909090909091" y1="86.3299663299664" x2="345" y2="86.3299663299664" fill="none" stroke="#6495ED" stroke-width="2" stroke-dasharray="10 10" stroke-dashoffset="259.0909090909091" /><line x1="345" y1="86.3299663299664" x2="370.9090909090909" y2="86.3299663299664" fill="none" stroke="#6495ED" stroke-width="2" stroke-dasharray="10 10" stroke-dashoffset="285" /><line x1="370.9090909090909" y1="86.3299663299664" x2="396.81818181818187" y2="86.3299663299664" fill="none" stroke="#6495ED" stroke-width="2" stroke-dasharray="10 10" stroke-dashoffset="310.9090909090909" /><line x1="396.81818181818187" y1="86.3299663299664" x2="422.7272727272727" y2="86.3299663299664" fill="none" stroke="#6495ED" stroke-width="2" stroke-dasharray="10 10" stroke-dashoffset="336.81818181818187" /><line x1="422.7272727272727" y1="86.3299663299664" x2="448.6363636363636" y2="86.3299663299664" fill="none" stroke="#6495ED" stroke-width="2" stroke-dasharray="10 10" stroke-dashoffset="362.7272727272727" /><line x1="448.6363636363636" y1="86.3299663299664" x2="474.54545454545456" y2="86.3299663299664" fill="none" stroke="#6495ED" stroke-width="2" stroke-dasharray="10 10" stroke-dashoffset="388.6363636363636" /><line x1="474.54545454545456" y1="86.3299663299664" x2="500.45454545454544" y2="86.3299663299664" fill="none" stroke="#6495ED" stroke-width="2" stroke-dasharray="10 10" stroke-dashoffset="414.54545454545456" /><line x1="500.45454545454544" y1="86.3299663299664" x2="526.3636363636364" y2="86.3299663299664" fill="none" stroke="#6495ED" stroke-width="2" stroke-dasharray="10 10" stroke-dashoffset="440.45454545454544" /><line x1="526.3636363636364" y1="86.3299663299664" x2="552.2727272727273" y2="86.3299663299664" fill="none" stroke="#6495ED" stroke-width="2" stroke-dasharray="10 10" stroke-dashoffset="466.3636363636364" /><line x1="552.2727272727273" y1="86.3299663299664" x2="578.1818181818182" y2="86.3299663299664" fill="none" stroke="#6495ED" stroke-width="2" stroke-dasharray="10 10" stroke-dashoffset="492.27272727272725" /><line x1="578.1818181818182" y1="86.3299663299664" x2="604.0909090909091" y2="86.3299663299664" fill="none" stroke="#6495ED" stroke-width="2" stroke-dasharray="10 10" stroke-dashoffset="518.1818181818182" /><line x1="604.0909090909091" y1="86.3299663299664" x2="630" y2="86.3299663299664" fill="none" stroke="#6495ED" stroke-width="2" stroke-dasharray="10 10" stroke-dashoffset="544.0909090909091" /></g><g style="stroke-opacity:1" class="linegroup"><line x1="60" y1="306.32996632996634" x2="85.9090909090909" y2="306.32996632996634" fill="none" stroke="#6495ED" stroke-width="2" stroke-dasharray="2 5" stroke-dashoffset="0" /><line x1="85.9090909090909" y1="306.32996632996634" x2="111.81818181818181" y2="306.32996632996634" fill="none" stroke="#6495ED" stroke-width="2" stroke-dasharray="2 5" stroke-dashoffset="25.909090909090907" /><line x1="111.81818181818181" y1="306.32996632996634" x2="137.72727272727272" y2="306.32996632996634" fill="none" stroke="#6495ED" stroke-width="2" stroke-dasharray="2 5" stroke-dashoffset="51.81818181818181" /><line x1="137.72727272727272" y1="306.32996632996634" x2="163.63636363636363" y2="306.32996632996634" fill="none" stroke="#6495ED" stroke-width="2" stroke-dasharray="2 5" stroke-dashoffset="77.72727272727272" /><line x1="163.63636363636363" y1="306.32996632996634" x2="189.54545454545456" y2="306.32996632996634" fill="none" stroke="#6495ED" stroke-width="2" stroke-dasharray="2 5" stroke-dashoffset="103.63636363636363" /><line x1="189.54545454545456" y1="306.32996632996634" x2="215.45454545454544" y2="306.32996632996634" fill="none" stroke="#6495ED" stroke-width="2" stroke-dasharray="2 5" stroke-dashoffset="129.54545454545456" /><line x1="215.45454545454544" y1="306.32996632996634" x2="241.36363636363635" y2="306.32996632996634" fill="none" stroke="#6495ED" stroke-width="2" stroke-dasharray="2 5" stroke-dashoffset="155.45454545454544" /><line x1="241.36363636363635" y1="306.32996632996634" x2="267.27272727272725" y2="306.32996632996634" fill="none" stroke="#6495ED" stroke-width="2" stroke-dasharray="2 5" stroke-dashoffset="181.36363636363635" /><line x1="267.27272727272725" y1="306.32996632996634" x2="293.1818181818182" y2="306.32996632996634" fill="none" stroke="#6495ED" stroke-width="2" stroke-dasharray="2 5" stroke-dashoffset="207.27272727272725" /><line x1="293.1818181818182" y1="306.32996632996634" x2="319.0909090909091" y2="306.32996632996634" fill="none" stroke="#6495ED" stroke-width="2" stroke-dasharray="2 5" stroke-dashoffset="233.1818181818182" /><line x1="319.0909090909091" y1="306.32996632996634" x2="345" y2="306.32996632996634" fill="none" stroke="#6495ED" stroke-width="2" stroke-dasharray="2 5" stroke-dashoffset="259.0909090909091" /><line x1="345" y1="306.32996632996634" x2="370.9090909090909" y2="306.32996632996634" fill="none" stroke="#6495ED" stroke-width="2" stroke-dasharray="2 5" stroke-dashoffset="285" /><line x1="370.9090909090909" y1="306.32996632996634" x2="396.81818181818187" y2="306.32996632996634" fill="none" stroke="#6495ED" stroke-width="2" stroke-dasharray="2 5" stroke-dashoffset="310.9090909090909" /><line x1="396.81818181818187" y1="306.32996632996634" x2="422.7272727272727" y2="306.32996632996634" fill="none" stroke="#6495ED" stroke-width="2" stroke-dasharray="2 5" stroke-dashoffset="336.81818181818187" /><line x1="422.7272727272727" y1="306.32996632996634" x2="448.6363636363636" y2="306.32996632996634" fill="none" stroke="#6495ED" stroke-width="2" stroke-dasharray="2 5" stroke-dashoffset="362.7272727272727" /><line x1="448.6363636363636" y1="306.32996632996634" x2="474.54545454545456" y2="306.32996632996634" fill="none" stroke="#6495ED" stroke-width="2" stroke-dasharray="2 5" stroke-dashoffset="388.6363636363636" /><line x1="474.54545454545456" y1="306.32996632996634" x2="500.45454545454544" y2="306.32996632996634" fill="none" stroke="#6495ED" stroke-width="2" stroke-dasharray="2 5" stroke-dashoffset="414.54545454545456" /><line x1="500.45454545454544" y1="306.32996632996634" x2="526.3636363636364" y2="306.32996632996634" fill="none" stroke="#6495ED" stroke-width="2" stroke-dasharray="2 5" stroke-dashoffset="440.45454545454544" /><line x1="526.3636363636364" y1="306.32996632996634" x2="552.2727272727273" y2="306.32996632996634" fill="none" stroke="#6495ED" stroke-width="2" stroke-dasharray="2 5" stroke-dashoffset="466.3636363636364" /><line x1="552.2727272727273" y1="306.32996632996634" x2="578.1818181818182" y2="306.32996632996634" fill="none" stroke="#6495ED" stroke-width="2" stroke-dasharray="2 5" stroke-dashoffset="492.27272727272725" /><line x1="578.1818181818182" y1="306.32996632996634" x2="604.0909090909091" y2="306.32996632996634" fill="none" stroke="#6495ED" stroke-width="2" stroke-dasharray="2 5" stroke-dashoffset="518.1818181818182" /><line x1="604.0909090909091" y1="306.32996632996634" x2="630" y2="306.32996632996634" fill="none" stroke="#6495ED" stroke-width="2" stroke-dasharray="2 5" stroke-dashoffset="544.0909090909091" /></g><g style="stroke-opacity:1" class="linegroup"><line x1="60" y1="159.6632996632997" x2="85.9090909090909" y2="159.6632996632997" fill="none" stroke="#6495ED" stroke-width="2" stroke-dasharray="2 5" stroke-dashoffset="0" /><line x1="85.9090909090909" y1="159.6632996632997" x2="111.81818181818181" y2="159.6632996632997" fill="none" stroke="#6495ED" stroke-width="2" stroke-dasharray="2 5" stroke-dashoffset="25.909090909090907" /><line x1="111.81818181818181" y1="159.6632996632997" x2="137.72727272727272" y2="159.6632996632997" fill="none" stroke="#6495ED" stroke-width="2" stroke-dasharray="2 5" stroke-dashoffset="51.81818181818181" /><line x1="137.72727272727272" y1="159.6632996632997" x2="163.63636363636363" y2="159.6632996632997" fill="none" stroke="#6495ED" stroke-width="2" stroke-dasharray="2 5" stroke-dashoffset="77.72727272727272" /><line x1="163.63636363636363" y1="159.6632996632997" x2="189.54545454545456" y2="159.6632996632997" fill="none" stroke="#6495ED" stroke-width="2" stroke-dasharray="2 5" stroke-dashoffset="103.63636363636363" /><line x1="189.54545454545456" y1="159.6632996632997" x2="215.45454545454544" y2="159.6632996632997" fill="none" stroke="#6495ED" stroke-width="2" stroke-dasharray="2 5" stroke-dashoffset="129.54545454545456" /><line x1="215.45454545454544" y1="159.6632996632997" x2="241.36363636363635" y2="159.6632996632997" fill="none" stroke="#6495ED" stroke-width="2" stroke-dasharray="2 5" stroke-dashoffset="155.45454545454544" /><line x1="241.36363636363635" y1="159.6632996632997" x2="267.27272727272725" y2="159.6632996632997" fill="none" stroke="#6495ED" stroke-width="2" stroke-dasharray="2 5" stroke-dashoffset="181.36363636363635" /><line x1="267.27272727272725" y1="159.6632996632997" x2="293.1818181818182" y2="159.6632996632997" fill="none" stroke="#6495ED" stroke-width="2" stroke-dasharray="2 5" stroke-dashoffset="207.27272727272725" /><line x1="293.1818181818182" y1="159.6632996632997" x2="319.0909090909091" y2="159.6632996632997" fill="none" stroke="#6495ED" stroke-width="2" stroke-dasharray="2 5" stroke-dashoffset="233.1818181818182" /><line x1="319.0909090909091" y1="159.6632996632997" x2="345" y2="159.6632996632997" fill="none" stroke="#6495ED" stroke-width="2" stroke-dasharray="2 5" stroke-dashoffset="259.0909090909091" /><line x1="345" y1="159.6632996632997" x2="370.9090909090909" y2="159.6632996632997" fill="none" stroke="#6495ED" stroke-width="2" stroke-dasharray="2 5" stroke-dashoffset="285" /><line x1="370.9090909090909" y1="159.6632996632997" x2="396.81818181818187" y2="159.6632996632997" fill="none" stroke="#6495ED" stroke-width="2" stroke-dasharray="2 5" stroke-dashoffset="310.9090909090909" /><line x1="396.81818181818187" y1="159.6632996632997" x2="422.7272727272727" y2="159.6632996632997" fill="none" stroke="#6495ED" stroke-width="2" stroke-dasharray="2 5" stroke-dashoffset="336.81818181818187" /><line x1="422.7272727272727" y1="159.6632996632997" x2="448.6363636363636" y2="159.6632996632997" fill="none" stroke="#6495ED" stroke-width="2" stroke-dasharray="2 5" stroke-dashoffset="362.7272727272727" /><line x1="448.6363636363636" y1="159.6632996632997" x2="474.54545454545456" y2="159.6632996632997" fill="none" stroke="#6495ED" stroke-width="2" stroke-dasharray="2 5" stroke-dashoffset="388.6363636363636" /><line x1="474.54545454545456" y1="159.6632996632997" x2="500.45454545454544" y2="159.6632996632997" fill="none" stroke="#6495ED" stroke-width="2" stroke-dasharray="2 5" stroke-dashoffset="414.54545454545456" /><line x1="500.45454545454544" y1="159.6632996632997" x2="526.3636363636364" y2="159.6632996632997" fill="none" stroke="#6495ED" stroke-width="2" stroke-dasharray="2 5" stroke-dashoffset="440.45454545454544" /><line x1="526.3636363636364" y1="159.6632996632997" x2="552.2727272727273" y2="159.6632996632997" fill="none" stroke="#6495ED" stroke-width="2" stroke-dasharray="2 5" stroke-dashoffset="466.3636363636364" /><line x1="552.2727272727273" y1="159.6632996632997" x2="578.1818181818182" y2="159.6632996632997" fill="none" stroke="#6495ED" stroke-width="2" stroke-dasharray="2 5" stroke-dashoffset="492.27272727272725" /><line x1="578.1818181818182" y1="159.6632996632997" x2="604.0909090909091" y2="159.6632996632997" fill="none" stroke="#6495ED" stroke-width="2" stroke-dasharray="2 5" stroke-dashoffset="518.1818181818182" /><line x1="604.0909090909091" y1="159.6632996632997" x2="630" y2="159.6632996632997" fill="none" stroke="#6495ED" stroke-width="2" stroke-dasharray="2 5" stroke-dashoffset="544.0909090909091" /></g><text x="630" y="294.05829611979067" fill="#000000" font-size="10px" font-family="'Arial', sans-serif" text-anchor="start" dx="10px" dy="0px" /><text x="630" y="238.989898989899" fill="#000000" font-size="10px" font-family="'Arial', sans-serif" text-anchor="start" dx="10px" dy="0px" /><text x="630" y="306.32996632996634" fill="#000000" font-size="10px" font-family="'Arial', sans-serif" text-anchor="start" dx="10px" dy="0px" /><text x="630" y="86.3299663299664" fill="#000000" font-size="10px" font-family="'Arial', sans-serif" text-anchor="start" dx="10px" dy="0px" /><text x="630" y="306.32996632996634" fill="#000000" font-size="10px" font-family="'Arial', sans-serif" text-anchor="start" dx="10px" dy="0px" /><text x="630" y="159.6632996632997" fill="#000000" font-size="10px" font-family="'Arial', sans-serif" text-anchor="start" dx="10px" dy="0px" /></g><g class="dotsgroup"><path style="fill:#A6A6A6;stroke:#A6A6A6;stroke-width:1;fill-opacity:1;stroke-opacity:1" d="M2.5,0A2.5,2.5,0,1,1,-2.5,0A2.5,2.5,0,1,1,2.5,0" transform="translate(60, 285.65468620082925)" /><path style="fill:#A6A6A6;stroke:#A6A6A6;stroke-width:1;fill-opacity:1;stroke-opacity:1" d="M2.5,0A2.5,2.5,0,1,1,-2.5,0A2.5,2.5,0,1,1,2.5,0" transform="translate(85.9090909090909, 292.73085883182756)" /><path style="fill:#A6A6A6;stroke:#A6A6A6;stroke-width:1;fill-opacity:1;stroke-opacity:1" d="M2.5,0A2.5,2.5,0,1,1,-2.5,0A2.5,2.5,0,1,1,2.5,0" transform="translate(111.81818181818181, 243.34718474237872)" /><path style="fill:#A6A6A6;stroke:#A6A6A6;stroke-width:1;fill-opacity:1;stroke-opacity:1" d="M2.5,0A2.5,2.5,0,1,1,-2.5,0A2.5,2.5,0,1,1,2.5,0" transform="translate(137.72727272727272, 179.11388575813416)" /><path style="fill:#A6A6A6;stroke:#A6A6A6;stroke-width:1;fill-opacity:1;stroke-opacity:1" d="M2.5,0A2.5,2.5,0,1,1,-2.5,0A2.5,2.5,0,1,1,2.5,0" transform="translate(163.63636363636363, 276.7897950833416)" /><path style="fill:#A6A6A6;stroke:#A6A6A6;stroke-width:1;fill-opacity:1;stroke-opacity:1" d="M2.5,0A2.5,2.5,0,1,1,-2.5,0A2.5,2.5,0,1,1,2.5,0" transform="translate(189.54545454545456, 304.63748895486737)" /><path style="fill:#A6A6A6;stroke:#A6A6A6;stroke-width:1;fill-opacity:1;stroke-opacity:1" d="M2.5,0A2.5,2.5,0,1,1,-2.5,0A2.5,2.5,0,1,1,2.5,0" transform="translate(215.45454545454544, 192.273020309428)" /><path style="fill:#A6A6A6;stroke:#A6A6A6;stroke-width:1;fill-opacity:1;stroke-opacity:1" d="M2.5,0A2.5,2.5,0,1,1,-2.5,0A2.5,2.5,0,1,1,2.5,0" transform="translate(241.36363636363635, 188.801668217662)" /><path style="fill:#A6A6A6;stroke:#A6A6A6;stroke-width:1;fill-opacity:1;stroke-opacity:1" d="M2.5,0A2.5,2.5,0,1,1,-2.5,0A2.5,2.5,0,1,1,2.5,0" transform="translate(267.27272727272725, 161.209942520511)" /><path style="fill:#A6A6A6;stroke:#A6A6A6;stroke-width:1;fill-opacity:1;stroke-opacity:1" d="M2.5,0A2.5,2.5,0,1,1,-2.5,0A2.5,2.5,0,1,1,2.5,0" transform="translate(293.1818181818182, 230.9697342457229)" /><path style="fill:#A6A6A6;stroke:#A6A6A6;stroke-width:1;fill-opacity:1;stroke-opacity:1" d="M2.5,0A2.5,2.5,0,1,1,-2.5,0A2.5,2.5,0,1,1,2.5,0" transform="translate(319.0909090909091, 261.5626902423555)" /><path style="fill:#A6A6A6;stroke:#A6A6A6;stroke-width:1;fill-opacity:1;stroke-opacity:1" d="M2.5,0A2.5,2.5,0,1,1,-2.5,0A2.5,2.5,0,1,1,2.5,0" transform="translate(345, 245.22997471344735)" /><path style="fill:#A6A6A6;stroke:#A6A6A6;stroke-width:1;fill-opacity:1;stroke-opacity:1" d="M2.5,0A2.5,2.5,0,1,1,-2.5,0A2.5,2.5,0,1,1,2.5,0" transform="translate(370.9090909090909, 175.93466477156315)" /><path style="fill:#A6A6A6;stroke:#A6A6A6;stroke-width:1;fill-opacity:1;stroke-opacity:1" d="M2.5,0A2.5,2.5,0,1,1,-2.5,0A2.5,2.5,0,1,1,2.5,0" transform="translate(396.81818181818187, 242.11874505013353)" /><path style="fill:#A6A6A6;stroke:#A6A6A6;stroke-width:1;fill-opacity:1;stroke-opacity:1" d="M2.5,0A2.5,2.5,0,1,1,-2.5,0A2.5,2.5,0,1,1,2.5,0" transform="translate(422.7272727272727, 222.33540947593906)" /><path style="fill:#A6A6A6;stroke:#A6A6A6;stroke-width:1;fill-opacity:1;stroke-opacity:1" d="M2.5,0A2.5,2.5,0,1,1,-2.5,0A2.5,2.5,0,1,1,2.5,0" transform="translate(448.6363636363636, 238.06760438808948)" /><path style="fill:#A6A6A6;stroke:#A6A6A6;stroke-width:1;fill-opacity:1;stroke-opacity:1" d="M2.5,0A2.5,2.5,0,1,1,-2.5,0A2.5,2.5,0,1,1,2.5,0" transform="translate(474.54545454545456, 253.01739007081767)" /><path style="fill:#A6A6A6;stroke:#A6A6A6;stroke-width:1;fill-opacity:1;stroke-opacity:1" d="M2.5,0A2.5,2.5,0,1,1,-2.5,0A2.5,2.5,0,1,1,2.5,0" transform="translate(500.45454545454544, 297.4867320932152)" /><path style="fill:#A6A6A6;stroke:#A6A6A6;stroke-width:1;fill-opacity:1;stroke-opacity:1" d="M2.5,0A2.5,2.5,0,1,1,-2.5,0A2.5,2.5,0,1,1,2.5,0" transform="translate(526.3636363636364, 193.09842763281074)" /><path style="fill:#A6A6A6;stroke:#A6A6A6;stroke-width:1;fill-opacity:1;stroke-opacity:1" d="M2.5,0A2.5,2.5,0,1,1,-2.5,0A2.5,2.5,0,1,1,2.5,0" transform="translate(552.2727272727273, 196.77965692055028)" /><path style="fill:#A6A6A6;stroke:#A6A6A6;stroke-width:1;fill-opacity:1;stroke-opacity:1" d="M2.5,0A2.5,2.5,0,1,1,-2.5,0A2.5,2.5,0,1,1,2.5,0" transform="translate(578.1818181818182, 258.35401421204585)" /><path style="fill:#A6A6A6;stroke:#A6A6A6;stroke-width:1;fill-opacity:1;stroke-opacity:1" d="M2.5,0A2.5,2.5,0,1,1,-2.5,0A2.5,2.5,0,1,1,2.5,0" transform="translate(604.0909090909091, 263.19580621221604)" /><path style="fill:#A6A6A6;stroke:#A6A6A6;stroke-width:1;fill-opacity:1;stroke-opacity:1" d="M2.5,0A2.5,2.5,0,1,1,-2.5,0A2.5,2.5,0,1,1,2.5,0" transform="translate(630, 294.05829611979067)" /></g></svg>