<svg viewBox="0 0 640 400" width="640px" height="400px" xmlns="http://www.w3.org/2000/svg"><rect x="0" y="0" width="100%" height="100%" fill="white"/><line style="stroke-opacity:0" class="ttip-line-x" x1="0" x2="0" y1="10" y2="370" stroke-width="1px" stroke="black" /><line style="stroke-opacity:0" class="ttip-line-y" x1="60" x2="630" y1="0" y2="0" stroke-width="1px" stroke="black" /><g class="xaxisgroup" fill="none" font-size="10" font-family="sans-serif" text-anchor="middle" color="#000000" transform="translate(0, 370)"><g class="xaxislabel"><text style="text-anchor:middle;font-size:10px;font-family:'Arial', sans-serif;fill:#000000" x="0" y="0" transform="translate(320, 25)" /></g><path class="domain" stroke="currentColor" d="M60.5,6V0.5H630.5V6" /><g class="tick" opacity="1" transform="translate(60.5,0)"><line stroke="currentColor" y2="6" /><text style="font-size:10px;font-family:'Arial', sans-serif;fill:#000000" fill="currentColor" y="9" dy="0.71em" transform="rotate(0)" text-anchor="middle">0</text></g><g class="tick" opacity="1" transform="translate(148.92693143034438,0)"><line stroke="currentColor" y2="6" /><text style="font-size:10px;font-family:'Arial', sans-serif;fill:#000000" fill="currentColor" y="9" dy="0.71em" transform="rotate(0)" text-anchor="middle">50</text></g><g class="tick" opacity="1" transform="translate(237.35386286068876,0)"><line stroke="currentColor" y2="6" /><text style="font-size:10px;font-family:'Arial', sans-serif;fill:#000000" fill="currentColor" y="9" dy="0.71em" transform="rotate(0)" text-anchor="middle">100</text></g><g class="tick" opacity="1" transform="translate(325.7807942910332,0)"><line stroke="currentColor" y2="6" /><text style="font-size:10px;font-family:'Arial', sans-serif;fill:#000000" fill="currentColor" y="9" dy="0.71em" transform="rotate(0)" text-anchor="middle">150</text></g><g class="tick" opacity="1" transform="translate(414.2077257213775,0)"><line stroke="currentColor" y2="6" /><text style="font-size:10px;font-family:'Arial', sans-serif;fill:#000000" fill="currentColor" y="9" dy="0.71em" transform="rotate(0)" text-anchor="middle">200</text></g><g class="tick" opacity="1" transform="translate(502.63465715172197,0)"><line stroke="currentColor" y2="6" /><text style="font-size:10px;font-family:'Arial', sans-serif;fill:#000000" fill="currentColor" y="9" dy="0.71em" transform="rotate(0)" text-anchor="middle">250</text></g><g class="tick" opacity="1" transform="translate(591.0615885820664,0)"><line stroke="currentColor" y2="6" /><text style="font-size:10px;font-family:'Arial', sans-serif;fill:#000000" fill="currentColor" y="9" dy="0.71em" transform="rotate(0)" text-anchor="middle">300</text></g></g><g class="yaxisgroup" fill="none" font-size="10" font-family="sans-serif" text-anchor="end" color="#000000" transform="translate(60, 0)"><g class="yaxislabel"><text style="text-anchor:middle;font-size:10px;font-family:'Arial', sans-serif;fill:#000000" x="-45" y="200" transform="rotate(-90, -45, 200)" /></g><path class="domain" stroke="currentColor" d="M-6,370.5H0.5V10.5H-6" /><g class="tick" opacity="1" transform="translate(0,370.5)"><line stroke="currentColor" x2="-6" /><text style="text-anchor:right;font-size:10px;font-family:'Arial', sans-serif;fill:#000000" fill="currentColor" x="-9" dy="0.32em" transform="rotate(0)">0.00%</text></g><g class="tick" opacity="1" transform="translate(0,326.1)"><line stroke="currentColor" x2="-6" /><text style="text-anchor:right;font-size:10px;font-family:'Arial', sans-serif;fill:#000000" fill="currentColor" x="-9" dy="0.32em" transform="rotate(0)">2.00%</text></g><g class="tick" opacity="1" transform="translate(0,281.7)"><line stroke="currentColor" x2="-6" /><text style="text-anchor:right;font-size:10px;font-family:'Arial', sans-serif;fill:#000000" fill="currentColor" x="-9" dy="0.32em" transform="rotate(0)">4.00%</text></g><g class="tick" opacity="1" transform="translate(0,237.29999999999998)"><line stroke="currentColor" x2="-6" /><text style="text-anchor:right;font-size:10px;font-family:'Arial', sans-serif;fill:#000000" fill="currentColor" x="-9" dy="0.32em" transform="rotate(0)">6.00%</text></g><g class="tick" opacity="1" transform="translate(0,192.9)"><line stroke="currentColor" x2="-6" /><text style="text-anchor:right;font-size:10px;font-family:'Arial', sans-serif;fill:#000000" fill="currentColor" x="-9" dy="0.32em" transform="rotate(0)">8.00%</text></g><g class="tick" opacity="1" transform="translate(0,148.50000000000003)"><line stroke="currentColor" x2="-6" /><text style="text-anchor:right;font-size:10px;font-family:'Arial', sans-serif;fill:#000000" fill="currentColor" x="-9" dy="0.32em" transform="rotate(0)">10.00%</text></g><g class="tick" opacity="1" transform="translate(0,104.10000000000001)"><line stroke="currentColor" x2="-6" /><text style="text-anchor:right;font-size:10px;font-family:'Arial', sans-serif;fill:#000000" fill="currentColor" x="-9" dy="0.32em" transform="rotate(0)">12.00%</text></g><g class="tick" opacity="1" transform="translate(0,59.70000000000002)"><line stroke="currentColor" x2="-6" /><text style="text-anchor:right;font-size:10px;font-family:'Arial', sans-serif;fill:#000000" fill="currentColor" x="-9" dy="0.32em" transform="rotate(0)">14.00%</text></g><g class="tick" opacity="1" transform="translate(0,15.300000000000031)"><line stroke="currentColor" x2="-6" /><text style="text-anchor:right;font-size:10px;font-family:'Arial', sans-serif;fill:#000000" fill="currentColor" x="-9" dy="0.32em" transform="rotate(0)">16.00%</text></g></g><g class="linesgroup"><path style="stroke-opacity:1" d="M61.769,120.42L66.95,120.42L72.132,120.42L77.314,120.42L82.496,120.42L87.678,120.42L92.859,120.42L98.041,120.42L103.223,120.42L108.405,120.42L113.587,120.42L118.769,120.42L123.95,120.42L129.132,120.42L134.314,120.42L139.496,120.42L144.678,120.42L149.859,120.42L155.041,120.42L160.223,120.42L165.405,120.42L170.587,120.42L175.769,120.42L180.95,120.42L186.132,120.42L191.314,120.42L196.496,120.42L201.678,120.42L206.859,120.42L212.041,120.42L217.223,120.42L222.405,120.42L227.587,120.42L232.769,120.42L237.95,120.42L243.132,120.42L248.314,120.42L253.496,120.42L258.678,120.42L263.859,120.42L269.041,120.42L274.223,120.42L279.405,120.42L284.587,120.42L289.769,120.42L294.95,120.42L300.132,120.42L305.314,120.42L305.827,120.42L310.496,120.42L315.678,120.42L320.859,120.42L321.744,120.42L326.041,120.42L331.223,120.42L336.405,120.42L341.587,120.42L346.769,120.42L351.95,120.42L353.577,120.42L357.132,120.42L362.314,120.42L367.496,120.42L372.678,120.42L376.568,120.42L377.859,120.42L383.041,120.42L388.223,120.42L393.405,120.42L397.791,120.42L398.587,120.42L403.769,120.42L408.95,120.42L414.132,120.42L419.314,120.42L424.496,120.42L429.678,120.42L434.859,120.42L440.041,120.42L440.236,120.42L445.223,120.42L450.405,120.42L455.587,120.42L460.769,120.42L465.95,120.42L471.132,120.42L476.314,120.42L481.496,120.42L486.678,120.42L487.986,120.42L491.859,120.42L497.041,120.42L502.223,120.42L507.405,120.42L512.587,120.42L517.769,120.42L519.82,120.42L522.95,120.42L528.132,120.42L533.314,120.42L538.496,120.42L543.678,120.42L548.859,120.42L554.041,120.42L559.223,120.42L562.265,120.42L564.405,120.42L569.587,120.42L574.769,120.42L578.182,120.42L579.95,120.42L585.132,120.42L590.314,120.42L595.496,120.42L600.678,120.42L605.859,120.42L611.041,120.42L616.223,120.42L621.405,120.42" fill="none" stroke="#000000" stroke-width="1.5" stroke-dasharray="10 0" /><path style="stroke-opacity:1" d="M98.041,369.829L103.223,368.085L108.405,365.187L113.587,361.69L118.769,357.904L123.95,354.01L129.132,350.114L134.314,346.277L139.496,342.535L144.678,338.908L149.859,335.407L155.041,332.035L160.223,328.792L165.405,325.674L170.587,322.679L175.769,319.801L180.95,317.035L186.132,314.376L191.314,311.817L196.496,309.355L201.678,306.983L206.859,304.698L212.041,302.494L217.223,300.366L222.405,298.312L227.587,296.327L232.769,294.408L237.95,292.551L243.132,290.753L248.314,289.01L253.496,287.322L258.678,285.684L263.859,284.094L269.041,282.55L274.223,281.051L279.405,279.593L284.587,278.175L289.769,276.795L294.95,275.452L300.132,274.144L305.314,272.869L305.827,272.745L310.496,271.627L315.678,270.415L320.859,269.233L321.744,269.034L326.041,268.079L331.223,266.952L336.405,265.852L341.587,264.777L346.769,263.726L351.95,262.698L353.577,262.38L357.132,261.693L362.314,260.709L367.496,259.747L372.678,258.804L376.568,258.11L377.859,257.882L383.041,256.977L388.223,256.092L393.405,255.223L397.791,254.501L398.587,254.372L403.769,253.537L408.95,252.718L414.132,251.914L419.314,251.126L424.496,250.352L429.678,249.592L434.859,248.845L440.041,248.112L440.236,248.085L445.223,247.392L450.405,246.684L455.587,245.988L460.769,245.304L465.95,244.631L471.132,243.969L476.314,243.318L481.496,242.678L486.678,242.048L487.986,241.891L491.859,241.428L497.041,240.818L502.223,240.217L507.405,239.625L512.587,239.042L517.769,238.468L519.82,238.243L522.95,237.902L528.132,237.345L533.314,236.796L538.496,236.255L543.678,235.721L548.859,235.195L554.041,234.677L559.223,234.165L562.265,233.868L564.405,233.661L569.587,233.163L574.769,232.672L578.182,232.353L579.95,232.188L585.132,231.71L590.314,231.238L595.496,230.773L600.678,230.313L605.859,229.86L611.041,229.412L616.223,228.97L621.405,228.533" fill="none" stroke="#6495ED" stroke-width="2" stroke-dasharray="10 10" /><path style="stroke-opacity:1" fill="none" stroke="#6495ED" stroke-width="2" stroke-dasharray="10 10" /><path style="stroke-opacity:1" d="M77.314,368.17L82.496,360.006L87.678,350.359L92.859,340.987L98.041,332.338L103.223,324.479L108.405,317.36L113.587,310.905L118.769,305.03L123.95,299.664L129.132,294.741L134.314,290.207L139.496,286.014L144.678,282.124L149.859,278.501L155.041,275.117L160.223,271.948L165.405,268.97L170.587,266.167L175.769,263.521L180.95,261.019L186.132,258.647L191.314,256.395L196.496,254.253L201.678,252.213L206.859,250.265L212.041,248.405L217.223,246.624L222.405,244.918L227.587,243.282L232.769,241.711L237.95,240.2L243.132,238.746L248.314,237.345L253.496,235.994L258.678,234.691L263.859,233.432L269.041,232.215L274.223,231.038L279.405,229.898L284.587,228.794L289.769,227.723L294.95,226.685L300.132,225.677L305.314,224.698L305.827,224.602L310.496,223.746L315.678,222.821L320.859,221.921L321.744,221.77L326.041,221.045L331.223,220.192L336.405,219.361L341.587,218.551L346.769,217.761L351.95,216.99L353.577,216.752L357.132,216.238L362.314,215.503L367.496,214.786L372.678,214.085L376.568,213.569L377.859,213.4L383.041,212.73L388.223,212.075L393.405,211.434L397.791,210.902L398.587,210.806L403.769,210.192L408.95,209.59L414.132,209.001L419.314,208.423L424.496,207.857L429.678,207.302L434.859,206.758L440.041,206.224L440.236,206.204L445.223,205.7L450.405,205.185L455.587,204.68L460.769,204.185L465.95,203.698L471.132,203.22L476.314,202.75L481.496,202.288L486.678,201.834L487.986,201.72L491.859,201.388L497.041,200.949L502.223,200.517L507.405,200.092L512.587,199.675L517.769,199.264L519.82,199.103L522.95,198.859L528.132,198.461L533.314,198.068L538.496,197.682L543.678,197.302L548.859,196.927L554.041,196.558L559.223,196.194L562.265,195.983L564.405,195.836L569.587,195.483L574.769,195.134L578.182,194.908L579.95,194.791L585.132,194.452L590.314,194.119L595.496,193.789L600.678,193.464L605.859,193.144L611.041,192.828L616.223,192.516L621.405,192.208" fill="none" stroke="#6495ED" stroke-width="2" stroke-dasharray="2 5" /><path style="stroke-opacity:1" d="M383.041,10.047L388.223,10.987L393.405,11.904L397.791,12.663L398.587,12.799L403.769,13.673L408.95,14.526L414.132,15.36L419.314,16.175L424.496,16.971L429.678,17.751L434.859,18.513L440.041,19.259L440.236,19.287L445.223,19.989L450.405,20.704L455.587,21.405L460.769,22.091L465.95,22.764L471.132,23.423L476.314,24.069L481.496,24.703L486.678,25.325L487.986,25.48L491.859,25.935L497.041,26.534L502.223,27.122L507.405,27.7L512.587,28.267L517.769,28.824L519.82,29.041L522.95,29.371L528.132,29.908L533.314,30.437L538.496,30.957L543.678,31.468L548.859,31.97L554.041,32.464L559.223,32.951L562.265,33.232L564.405,33.429L569.587,33.9L574.769,34.363L578.182,34.665L579.95,34.82L585.132,35.269L590.314,35.711L595.496,36.147L600.678,36.576L605.859,36.999L611.041,37.416L616.223,37.826L621.405,38.231" fill="none" stroke="#6495ED" stroke-width="2" stroke-dasharray="2 5" /><text x="621.4049022649715" y="120.42040623523857" fill="#000000" font-size="10px" font-family="'Arial', sans-serif" text-anchor="start" dx="10px" dy="0px" /><text x="621.4049022649715" y="228.53290350972793" fill="#000000" font-size="10px" font-family="'Arial', sans-serif" text-anchor="start" dx="10px" dy="0px" /><text x="621.4049022649715" y="-13.511262193533273" fill="#000000" font-size="10px" font-family="'Arial', sans-serif" text-anchor="start" dx="10px" dy="0px" /><text x="621.4049022649715" y="192.20786418275014" fill="#000000" font-size="10px" font-family="'Arial', sans-serif" text-anchor="start" dx="10px" dy="0px" /><text x="621.4049022649715" y="38.2311787800244" fill="#000000" font-size="10px" font-family="'Arial', sans-serif" text-anchor="start" dx="10px" dy="0px" /></g><g class="dotsgroup"><g style="fill-opacity:1;stroke-opacity:1" class="dotsgroup-child"><path style="fill:#A6A6A6;stroke:#A6A6A6;stroke-width:1" d="M2.5,0A2.5,2.5,0,1,1,-2.5,0A2.5,2.5,0,1,1,2.5,0" transform="translate(321.7437170338194, 10)" /></g><g style="fill-opacity:1;stroke-opacity:1" class="dotsgroup-child"><path style="fill:#A6A6A6;stroke:#A6A6A6;stroke-width:1" d="M2.5,0A2.5,2.5,0,1,1,-2.5,0A2.5,2.5,0,1,1,2.5,0" transform="translate(440.2358051504809, 49.90697674418605)" /></g><g style="fill-opacity:1;stroke-opacity:1" class="dotsgroup-child"><path style="fill:#A6A6A6;stroke:#A6A6A6;stroke-width:1" d="M2.5,0A2.5,2.5,0,1,1,-2.5,0A2.5,2.5,0,1,1,2.5,0" transform="translate(487.9863481228669, 159.00826446280993)" /></g><g style="fill-opacity:1;stroke-opacity:1" class="dotsgroup-child"><path style="fill:#A6A6A6;stroke:#A6A6A6;stroke-width:1" d="M2.5,0A2.5,2.5,0,1,1,-2.5,0A2.5,2.5,0,1,1,2.5,0" transform="translate(376.568414520633, 208.77094972067036)" /></g><g style="fill-opacity:1;stroke-opacity:1" class="dotsgroup-child"><path style="fill:#A6A6A6;stroke:#A6A6A6;stroke-width:1" d="M2.5,0A2.5,2.5,0,1,1,-2.5,0A2.5,2.5,0,1,1,2.5,0" transform="translate(519.8200434377909, 113.84615384615388)" /></g><g style="fill-opacity:1;stroke-opacity:1" class="dotsgroup-child"><path style="fill:#A6A6A6;stroke:#A6A6A6;stroke-width:1" d="M2.5,0A2.5,2.5,0,1,1,-2.5,0A2.5,2.5,0,1,1,2.5,0" transform="translate(397.79087806391556, 149.1623036649215)" /></g><g style="fill-opacity:1;stroke-opacity:1" class="dotsgroup-child"><path style="fill:#A6A6A6;stroke:#A6A6A6;stroke-width:1" d="M2.5,0A2.5,2.5,0,1,1,-2.5,0A2.5,2.5,0,1,1,2.5,0" transform="translate(305.8268693763574, 66.54676258992806)" /></g><g style="fill-opacity:1;stroke-opacity:1" class="dotsgroup-child"><path style="fill:#A6A6A6;stroke:#A6A6A6;stroke-width:1" d="M2.5,0A2.5,2.5,0,1,1,-2.5,0A2.5,2.5,0,1,1,2.5,0" transform="translate(578.1818181818182, 165.4266211604096)" /></g><g style="fill-opacity:1;stroke-opacity:1" class="dotsgroup-child"><path style="fill:#A6A6A6;stroke:#A6A6A6;stroke-width:1" d="M2.5,0A2.5,2.5,0,1,1,-2.5,0A2.5,2.5,0,1,1,2.5,0" transform="translate(353.57741234874345, 129.27710843373495)" /></g><g style="fill-opacity:1;stroke-opacity:1" class="dotsgroup-child"><path style="fill:#A6A6A6;stroke:#A6A6A6;stroke-width:1" d="M2.5,0A2.5,2.5,0,1,1,-2.5,0A2.5,2.5,0,1,1,2.5,0" transform="translate(562.2649705243562, 104.22535211267608)" /></g></g></svg>