<svg viewBox="0 0 640 400" width="640px" height="400px" xmlns="http://www.w3.org/2000/svg"><rect x="0" y="0" width="100%" height="100%" fill="white"/><line style="stroke-opacity:0" class="ttip-line-x" x1="0" x2="0" y1="10" y2="370" stroke-width="1px" stroke="black" /><line style="stroke-opacity:0" class="ttip-line-y" x1="60" x2="630" y1="0" y2="0" stroke-width="1px" stroke="black" /><g class="xaxisgroup" fill="none" font-size="10" font-family="sans-serif" text-anchor="middle" color="#000000" transform="translate(0, 370)"><g class="xaxislabel"><text style="text-anchor:middle;font-size:10px;font-family:'Arial', sans-serif;fill:#000000" x="0" y="0" transform="translate(320, 25)" /></g><path class="domain" stroke="currentColor" d="M60.5,6V0.5H630.5V6" /><g class="tick" opacity="1" transform="translate(60.5,0)"><line stroke="currentColor" y2="6" /><text style="font-size:10px;font-family:'Arial', sans-serif;fill:#000000" fill="currentColor" y="9" dy="0.71em" transform="rotate(0)" text-anchor="middle">0</text></g><g class="tick" opacity="1" transform="translate(117.91626794258372,0)"><line stroke="currentColor" y2="6" /><text style="font-size:10px;font-family:'Arial', sans-serif;fill:#000000" fill="currentColor" y="9" dy="0.71em" transform="rotate(0)" text-anchor="middle">200</text></g><g class="tick" opacity="1" transform="translate(175.33253588516743,0)"><line stroke="currentColor" y2="6" /><text style="font-size:10px;font-family:'Arial', sans-serif;fill:#000000" fill="currentColor" y="9" dy="0.71em" transform="rotate(0)" text-anchor="middle">400</text></g><g class="tick" opacity="1" transform="translate(232.74880382775115,0)"><line stroke="currentColor" y2="6" /><text style="font-size:10px;font-family:'Arial', sans-serif;fill:#000000" fill="currentColor" y="9" dy="0.71em" transform="rotate(0)" text-anchor="middle">600</text></g><g class="tick" opacity="1" transform="translate(290.1650717703349,0)"><line stroke="currentColor" y2="6" /><text style="font-size:10px;font-family:'Arial', sans-serif;fill:#000000" fill="currentColor" y="9" dy="0.71em" transform="rotate(0)" text-anchor="middle">800</text></g><g class="tick" opacity="1" transform="translate(347.5813397129187,0)"><line stroke="currentColor" y2="6" /><text style="font-size:10px;font-family:'Arial', sans-serif;fill:#000000" fill="currentColor" y="9" dy="0.71em" transform="rotate(0)" text-anchor="middle">1,000</text></g><g class="tick" opacity="1" transform="translate(404.99760765550235,0)"><line stroke="currentColor" y2="6" /><text style="font-size:10px;font-family:'Arial', sans-serif;fill:#000000" fill="currentColor" y="9" dy="0.71em" transform="rotate(0)" text-anchor="middle">1,200</text></g><g class="tick" opacity="1" transform="translate(462.41387559808607,0)"><line stroke="currentColor" y2="6" /><text style="font-size:10px;font-family:'Arial', sans-serif;fill:#000000" fill="currentColor" y="9" dy="0.71em" transform="rotate(0)" text-anchor="middle">1,400</text></g><g class="tick" opacity="1" transform="translate(519.8301435406698,0)"><line stroke="currentColor" y2="6" /><text style="font-size:10px;font-family:'Arial', sans-serif;fill:#000000" fill="currentColor" y="9" dy="0.71em" transform="rotate(0)" text-anchor="middle">1,600</text></g><g class="tick" opacity="1" transform="translate(577.2464114832535,0)"><line stroke="currentColor" y2="6" /><text style="font-size:10px;font-family:'Arial', sans-serif;fill:#000000" fill="currentColor" y="9" dy="0.71em" transform="rotate(0)" text-anchor="middle">1,800</text></g></g><g class="yaxisgroup" fill="none" font-size="10" font-family="sans-serif" text-anchor="end" color="#000000" transform="translate(60, 0)"><g class="yaxislabel"><text style="text-anchor:middle;font-size:10px;font-family:'Arial', sans-serif;fill:#000000" x="-45" y="200" transform="rotate(-90, -45, 200)" /></g><path class="domain" stroke="currentColor" d="M-6,370.5H0.5V10.5H-6" /><g class="tick" opacity="1" transform="translate(0,370.5)"><line stroke="currentColor" x2="-6" /><text style="text-anchor:right;font-size:10px;font-family:'Arial', sans-serif;fill:#000000" fill="currentColor" x="-9" dy="0.32em" transform="rotate(0)">0.00</text></g><g class="tick" opacity="1" transform="translate(0,340.60434782608695)"><line stroke="currentColor" x2="-6" /><text style="text-anchor:right;font-size:10px;font-family:'Arial', sans-serif;fill:#000000" fill="currentColor" x="-9" dy="0.32em" transform="rotate(0)">2.00</text></g><g class="tick" opacity="1" transform="translate(0,310.70869565217396)"><line stroke="currentColor" x2="-6" /><text style="text-anchor:right;font-size:10px;font-family:'Arial', sans-serif;fill:#000000" fill="currentColor" x="-9" dy="0.32em" transform="rotate(0)">4.00</text></g><g class="tick" opacity="1" transform="translate(0,280.8130434782609)"><line stroke="currentColor" x2="-6" /><text style="text-anchor:right;font-size:10px;font-family:'Arial', sans-serif;fill:#000000" fill="currentColor" x="-9" dy="0.32em" transform="rotate(0)">6.00</text></g><g class="tick" opacity="1" transform="translate(0,250.91739130434786)"><line stroke="currentColor" x2="-6" /><text style="text-anchor:right;font-size:10px;font-family:'Arial', sans-serif;fill:#000000" fill="currentColor" x="-9" dy="0.32em" transform="rotate(0)">8.00</text></g><g class="tick" opacity="1" transform="translate(0,221.0217391304348)"><line stroke="currentColor" x2="-6" /><text style="text-anchor:right;font-size:10px;font-family:'Arial', sans-serif;fill:#000000" fill="currentColor" x="-9" dy="0.32em" transform="rotate(0)">10.00</text></g><g class="tick" opacity="1" transform="translate(0,191.12608695652173)"><line stroke="currentColor" x2="-6" /><text style="text-anchor:right;font-size:10px;font-family:'Arial', sans-serif;fill:#000000" fill="currentColor" x="-9" dy="0.32em" transform="rotate(0)">12.00</text></g><g class="tick" opacity="1" transform="translate(0,161.2304347826087)"><line stroke="currentColor" x2="-6" /><text style="text-anchor:right;font-size:10px;font-family:'Arial', sans-serif;fill:#000000" fill="currentColor" x="-9" dy="0.32em" transform="rotate(0)">14.00</text></g><g class="tick" opacity="1" transform="translate(0,131.33478260869566)"><line stroke="currentColor" x2="-6" /><text style="text-anchor:right;font-size:10px;font-family:'Arial', sans-serif;fill:#000000" fill="currentColor" x="-9" dy="0.32em" transform="rotate(0)">16.00</text></g><g class="tick" opacity="1" transform="translate(0,101.43913043478261)"><line stroke="currentColor" x2="-6" /><text style="text-anchor:right;font-size:10px;font-family:'Arial', sans-serif;fill:#000000" fill="currentColor" x="-9" dy="0.32em" transform="rotate(0)">18.00</text></g><g class="tick" opacity="1" transform="translate(0,71.54347826086958)"><line stroke="currentColor" x2="-6" /><text style="text-anchor:right;font-size:10px;font-family:'Arial', sans-serif;fill:#000000" fill="currentColor" x="-9" dy="0.32em" transform="rotate(0)">20.00</text></g><g class="tick" opacity="1" transform="translate(0,41.64782608695649)"><line stroke="currentColor" x2="-6" /><text style="text-anchor:right;font-size:10px;font-family:'Arial', sans-serif;fill:#000000" fill="currentColor" x="-9" dy="0.32em" transform="rotate(0)">22.00</text></g><g class="tick" opacity="1" transform="translate(0,11.752173913043455)"><line stroke="currentColor" x2="-6" /><text style="text-anchor:right;font-size:10px;font-family:'Arial', sans-serif;fill:#000000" fill="currentColor" x="-9" dy="0.32em" transform="rotate(0)">24.00</text></g></g><g class="linesgroup"><path style="stroke-opacity:1" d="M60.287,214.399L65.469,214.399L70.651,214.399L75.833,214.399L81.014,214.399L86.196,214.399L91.378,214.399L96.56,214.399L101.742,214.399L106.923,214.399L112.105,214.399L117.287,214.399L122.469,214.399L127.651,214.399L132.833,214.399L138.014,214.399L143.196,214.399L148.378,214.399L153.56,214.399L158.742,214.399L163.923,214.399L169.105,214.399L174.287,214.399L179.469,214.399L184.651,214.399L189.833,214.399L195.014,214.399L200.196,214.399L205.378,214.399L210.56,214.399L215.742,214.399L220.923,214.399L226.105,214.399L231.287,214.399L236.469,214.399L241.651,214.399L246.833,214.399L252.014,214.399L257.196,214.399L262.378,214.399L267.56,214.399L272.742,214.399L277.923,214.399L283.105,214.399L288.287,214.399L288.804,214.399L289.665,214.399L293.469,214.399L296.268,214.399L298.651,214.399L303.833,214.399L309.014,214.399L314.196,214.399L319.378,214.399L324.402,214.399L324.56,214.399L329.742,214.399L334.163,214.399L334.923,214.399L340.105,214.399L345.287,214.399L350.469,214.399L355.651,214.399L360.833,214.399L366.014,214.399L371.196,214.399L376.378,214.399L381.56,214.399L382.392,214.399L386.742,214.399L391.923,214.399L397.105,214.399L402.287,214.399L407.469,214.399L412.651,214.399L417.833,214.399L423.014,214.399L428.196,214.399L433.378,214.399L438.56,214.399L443.742,214.399L448.923,214.399L454.105,214.399L459.287,214.399L463.349,214.399L464.469,214.399L469.651,214.399L474.833,214.399L480.014,214.399L485.196,214.399L490.378,214.399L495.56,214.399L499.234,214.399L500.742,214.399L505.923,214.399L511.105,214.399L516.287,214.399L521.469,214.399L526.651,214.399L531.833,214.399L535.694,214.399L537.014,214.399L542.196,214.399L547.378,214.399L552.56,214.399L557.742,214.399L562.923,214.399L568.105,214.399L573.287,214.399L578.182,214.399L578.469,214.399L583.651,214.399L588.833,214.399L594.014,214.399L599.196,214.399L604.378,214.399L609.56,214.399L614.742,214.399L619.923,214.399" fill="none" stroke="#000000" stroke-width="1.5" stroke-dasharray="10 0" /><path style="stroke-opacity:1" d="M60.287,361.553L65.469,311.348L70.651,293.343L75.833,283.157L81.014,276.313L86.196,271.28L91.378,267.365L96.56,264.2L101.742,261.57L106.923,259.335L112.105,257.405L117.287,255.715L122.469,254.218L127.651,252.879L132.833,251.672L138.014,250.577L143.196,249.576L148.378,248.657L153.56,247.809L158.742,247.024L163.923,246.293L169.105,245.611L174.287,244.972L179.469,244.372L184.651,243.808L189.833,243.275L195.014,242.771L200.196,242.293L205.378,241.84L210.56,241.408L215.742,240.997L220.923,240.604L226.105,240.229L231.287,239.87L236.469,239.526L241.651,239.196L246.833,238.879L252.014,238.575L257.196,238.281L262.378,237.998L267.56,237.726L272.742,237.463L277.923,237.208L283.105,236.963L288.287,236.725L288.804,236.702L289.665,236.663L293.469,236.495L296.268,236.373L298.651,236.271L303.833,236.055L309.014,235.845L314.196,235.641L319.378,235.444L324.402,235.257L324.56,235.251L329.742,235.064L334.163,234.909L334.923,234.882L340.105,234.705L345.287,234.532L350.469,234.364L355.651,234.2L360.833,234.041L366.014,233.885L371.196,233.732L376.378,233.584L381.56,233.439L382.392,233.416L386.742,233.297L391.923,233.158L397.105,233.023L402.287,232.89L407.469,232.76L412.651,232.633L417.833,232.509L423.014,232.387L428.196,232.268L433.378,232.151L438.56,232.036L443.742,231.924L448.923,231.813L454.105,231.705L459.287,231.599L463.349,231.517L464.469,231.495L469.651,231.393L474.833,231.292L480.014,231.194L485.196,231.097L490.378,231.002L495.56,230.908L499.234,230.843L500.742,230.816L505.923,230.726L511.105,230.637L516.287,230.549L521.469,230.463L526.651,230.379L531.833,230.295L535.694,230.234L537.014,230.214L542.196,230.133L547.378,230.053L552.56,229.975L557.742,229.898L562.923,229.822L568.105,229.747L573.287,229.674L578.182,229.605L578.469,229.601L583.651,229.53L588.833,229.459L594.014,229.389L599.196,229.321L604.378,229.253L609.56,229.186L614.742,229.121L619.923,229.056" fill="none" stroke="#6495ED" stroke-width="2" stroke-dasharray="10 10" /><path style="stroke-opacity:1" d="M70.651,54.155L75.833,91.201L81.014,111.569L86.196,124.744L91.378,134.099L96.56,141.155L101.742,146.707L106.923,151.216L112.105,154.966L117.287,158.147L122.469,160.886L127.651,163.276L132.833,165.385L138.014,167.262L143.196,168.946L148.378,170.469L153.56,171.853L158.742,173.119L163.923,174.282L169.105,175.355L174.287,176.35L179.469,177.274L184.651,178.136L189.833,178.943L195.014,179.7L200.196,180.412L205.378,181.083L210.56,181.717L215.742,182.317L220.923,182.886L226.105,183.427L231.287,183.942L236.469,184.432L241.651,184.9L246.833,185.348L252.014,185.776L257.196,186.186L262.378,186.58L267.56,186.958L272.742,187.322L277.923,187.671L283.105,188.008L288.287,188.333L288.804,188.365L289.665,188.417L293.469,188.646L296.268,188.811L298.651,188.949L303.833,189.241L309.014,189.524L314.196,189.798L319.378,190.063L324.402,190.312L324.56,190.32L329.742,190.569L334.163,190.775L334.923,190.81L340.105,191.045L345.287,191.273L350.469,191.495L355.651,191.71L360.833,191.92L366.014,192.124L371.196,192.322L376.378,192.516L381.56,192.705L382.392,192.734L386.742,192.888L391.923,193.068L397.105,193.243L402.287,193.414L407.469,193.581L412.651,193.744L417.833,193.904L423.014,194.06L428.196,194.212L433.378,194.361L438.56,194.507L443.742,194.65L448.923,194.79L454.105,194.927L459.287,195.061L463.349,195.164L464.469,195.193L469.651,195.322L474.833,195.448L480.014,195.572L485.196,195.694L490.378,195.813L495.56,195.93L499.234,196.012L500.742,196.045L505.923,196.158L511.105,196.269L516.287,196.378L521.469,196.485L526.651,196.59L531.833,196.693L535.694,196.769L537.014,196.795L542.196,196.895L547.378,196.993L552.56,197.09L557.742,197.185L562.923,197.279L568.105,197.371L573.287,197.461L578.182,197.546L578.469,197.551L583.651,197.638L588.833,197.725L594.014,197.81L599.196,197.894L604.378,197.977L609.56,198.058L614.742,198.139L619.923,198.218" fill="none" stroke="#6495ED" stroke-width="2" stroke-dasharray="10 10" /><path style="stroke-opacity:1" d="M60.287,345.482L65.469,286.196L70.651,270.687L75.833,262.509L81.014,257.211L86.196,253.404L91.378,250.493L96.56,248.169L101.742,246.256L106.923,244.645L112.105,243.262L117.287,242.059L122.469,240.999L127.651,240.055L132.833,239.207L138.014,238.44L143.196,237.742L148.378,237.103L153.56,236.515L158.742,235.971L163.923,235.466L169.105,234.996L174.287,234.557L179.469,234.146L184.651,233.759L189.833,233.394L195.014,233.05L200.196,232.724L205.378,232.415L210.56,232.121L215.742,231.842L220.923,231.575L226.105,231.321L231.287,231.078L236.469,230.845L241.651,230.622L246.833,230.408L252.014,230.202L257.196,230.004L262.378,229.814L267.56,229.63L272.742,229.453L277.923,229.282L283.105,229.117L288.287,228.957L288.804,228.941L289.665,228.916L293.469,228.803L296.268,228.721L298.651,228.653L303.833,228.508L309.014,228.367L314.196,228.231L319.378,228.099L324.402,227.974L324.56,227.97L329.742,227.845L334.163,227.741L334.923,227.723L340.105,227.605L345.287,227.49L350.469,227.378L355.651,227.269L360.833,227.162L366.014,227.058L371.196,226.957L376.378,226.858L381.56,226.761L382.392,226.746L386.742,226.667L391.923,226.575L397.105,226.485L402.287,226.396L407.469,226.31L412.651,226.226L417.833,226.143L423.014,226.063L428.196,225.983L433.378,225.906L438.56,225.83L443.742,225.755L448.923,225.682L454.105,225.611L459.287,225.54L463.349,225.486L464.469,225.472L469.651,225.404L474.833,225.337L480.014,225.272L485.196,225.208L490.378,225.145L495.56,225.083L499.234,225.04L500.742,225.023L505.923,224.963L511.105,224.904L516.287,224.847L521.469,224.79L526.651,224.734L531.833,224.679L535.694,224.639L537.014,224.625L542.196,224.572L547.378,224.519L552.56,224.468L557.742,224.417L562.923,224.367L568.105,224.318L573.287,224.269L578.182,224.224L578.469,224.221L583.651,224.174L588.833,224.128L594.014,224.082L599.196,224.037L604.378,223.992L609.56,223.948L614.742,223.905L619.923,223.862" fill="none" stroke="#6495ED" stroke-width="2" stroke-dasharray="2 5" /><path style="stroke-opacity:1" d="M65.469,81.09L70.651,126.209L75.833,144.756L81.014,155.337L86.196,162.344L91.378,167.404L96.56,171.268L101.742,174.34L106.923,176.855L112.105,178.962L117.287,180.759L122.469,182.314L127.651,183.678L132.833,184.885L138.014,185.964L143.196,186.936L148.378,187.816L153.56,188.619L158.742,189.355L163.923,190.032L169.105,190.659L174.287,191.24L179.469,191.782L184.651,192.288L189.833,192.763L195.014,193.208L200.196,193.628L205.378,194.024L210.56,194.399L215.742,194.754L220.923,195.091L226.105,195.412L231.287,195.718L236.469,196.009L241.651,196.288L246.833,196.554L252.014,196.81L257.196,197.054L262.378,197.289L267.56,197.515L272.742,197.733L277.923,197.942L283.105,198.143L288.287,198.338L288.804,198.357L289.665,198.389L293.469,198.526L296.268,198.625L298.651,198.707L303.833,198.883L309.014,199.053L314.196,199.217L319.378,199.377L324.402,199.526L324.56,199.531L329.742,199.681L334.163,199.805L334.923,199.827L340.105,199.968L345.287,200.105L350.469,200.239L355.651,200.369L360.833,200.495L366.014,200.619L371.196,200.739L376.378,200.856L381.56,200.97L382.392,200.988L386.742,201.081L391.923,201.189L397.105,201.295L402.287,201.399L407.469,201.5L412.651,201.599L417.833,201.696L423.014,201.79L428.196,201.883L433.378,201.973L438.56,202.062L443.742,202.148L448.923,202.233L454.105,202.316L459.287,202.398L463.349,202.461L464.469,202.478L469.651,202.556L474.833,202.633L480.014,202.709L485.196,202.783L490.378,202.855L495.56,202.927L499.234,202.976L500.742,202.997L505.923,203.065L511.105,203.133L516.287,203.199L521.469,203.265L526.651,203.329L531.833,203.392L535.694,203.438L537.014,203.454L542.196,203.515L547.378,203.575L552.56,203.634L557.742,203.692L562.923,203.749L568.105,203.805L573.287,203.86L578.182,203.912L578.469,203.915L583.651,203.968L588.833,204.021L594.014,204.073L599.196,204.125L604.378,204.175L609.56,204.225L614.742,204.274L619.923,204.323" fill="none" stroke="#6495ED" stroke-width="2" stroke-dasharray="2 5" /><text x="619.9234449760755" y="214.39889906096377" fill="#000000" font-size="10px" font-family="'Arial', sans-serif" text-anchor="start" dx="10px" dy="0px" /><text x="619.9234449760755" y="229.0557307108551" fill="#000000" font-size="10px" font-family="'Arial', sans-serif" text-anchor="start" dx="10px" dy="0px" /><text x="619.9234449760755" y="198.217899631164" fill="#000000" font-size="10px" font-family="'Arial', sans-serif" text-anchor="start" dx="10px" dy="0px" /><text x="619.9234449760755" y="223.86232940151655" fill="#000000" font-size="10px" font-family="'Arial', sans-serif" text-anchor="start" dx="10px" dy="0px" /><text x="619.9234449760755" y="204.322645801832" fill="#000000" font-size="10px" font-family="'Arial', sans-serif" text-anchor="start" dx="10px" dy="0px" /></g><g class="dotsgroup"><g style="fill-opacity:1;stroke-opacity:1" class="dotsgroup-child"><path style="fill:#A6A6A6;stroke:#A6A6A6;stroke-width:1" d="M2.5,0A2.5,2.5,0,1,1,-2.5,0A2.5,2.5,0,1,1,2.5,0" transform="translate(382.3923444976076, 170.34070231135547)" /></g><g style="fill-opacity:1;stroke-opacity:1" class="dotsgroup-child"><path style="fill:#A6A6A6;stroke:#A6A6A6;stroke-width:1" d="M2.5,0A2.5,2.5,0,1,1,-2.5,0A2.5,2.5,0,1,1,2.5,0" transform="translate(535.6937799043062, 225.66371913620736)" /></g><g style="fill-opacity:1;stroke-opacity:1" class="dotsgroup-child"><path style="fill:#A6A6A6;stroke:#A6A6A6;stroke-width:1" d="M2.5,0A2.5,2.5,0,1,1,-2.5,0A2.5,2.5,0,1,1,2.5,0" transform="translate(288.80382775119614, 182.4488571272707)" /></g><g style="fill-opacity:1;stroke-opacity:1" class="dotsgroup-child"><path style="fill:#A6A6A6;stroke:#A6A6A6;stroke-width:1" d="M2.5,0A2.5,2.5,0,1,1,-2.5,0A2.5,2.5,0,1,1,2.5,0" transform="translate(463.3492822966507, 252.9707566145753)" /></g><g style="fill-opacity:1;stroke-opacity:1" class="dotsgroup-child"><path style="fill:#A6A6A6;stroke:#A6A6A6;stroke-width:1" d="M2.5,0A2.5,2.5,0,1,1,-2.5,0A2.5,2.5,0,1,1,2.5,0" transform="translate(324.40191387559804, 305.08001699475994)" /></g><g style="fill-opacity:1;stroke-opacity:1" class="dotsgroup-child"><path style="fill:#A6A6A6;stroke:#A6A6A6;stroke-width:1" d="M2.5,0A2.5,2.5,0,1,1,-2.5,0A2.5,2.5,0,1,1,2.5,0" transform="translate(499.23444976076553, 223.4526854219949)" /></g><g style="fill-opacity:1;stroke-opacity:1" class="dotsgroup-child"><path style="fill:#A6A6A6;stroke:#A6A6A6;stroke-width:1" d="M2.5,0A2.5,2.5,0,1,1,-2.5,0A2.5,2.5,0,1,1,2.5,0" transform="translate(334.16267942583727, 10)" /></g><g style="fill-opacity:1;stroke-opacity:1" class="dotsgroup-child"><path style="fill:#A6A6A6;stroke:#A6A6A6;stroke-width:1" d="M2.5,0A2.5,2.5,0,1,1,-2.5,0A2.5,2.5,0,1,1,2.5,0" transform="translate(289.6650717703349, 52.3586956521739)" /></g><g style="fill-opacity:1;stroke-opacity:1" class="dotsgroup-child"><path style="fill:#A6A6A6;stroke:#A6A6A6;stroke-width:1" d="M2.5,0A2.5,2.5,0,1,1,-2.5,0A2.5,2.5,0,1,1,2.5,0" transform="translate(296.267942583732, 279.1869618046384)" /></g><g style="fill-opacity:1;stroke-opacity:1" class="dotsgroup-child"><path style="fill:#A6A6A6;stroke:#A6A6A6;stroke-width:1" d="M2.5,0A2.5,2.5,0,1,1,-2.5,0A2.5,2.5,0,1,1,2.5,0" transform="translate(578.1818181818181, 312.0305913525232)" /></g></g></svg>