<svg viewBox="0 0 640 400" width="640px" height="400px" xmlns="http://www.w3.org/2000/svg"><rect x="0" y="0" width="100%" height="100%" fill="white"/><line style="stroke-opacity:0" class="ttip-line-x" x1="0" x2="0" y1="10" y2="370" stroke-width="1px" stroke="black" /><line style="stroke-opacity:0" class="ttip-line-y" x1="60" x2="630" y1="0" y2="0" stroke-width="1px" stroke="black" /><g class="xaxisgroup" fill="none" font-size="10" font-family="sans-serif" text-anchor="middle" color="#000000" transform="translate(0, 370)"><g class="xaxislabel"><text style="text-anchor:middle;font-size:10px;font-family:'Arial', sans-serif;fill:#000000" x="0" y="0" transform="translate(320, 25)" /></g><path class="domain" stroke="currentColor" d="M60.5,6V0.5H630.5V6" /><g class="tick" opacity="1" transform="translate(60.5,0)"><line stroke="currentColor" y2="6" /><text style="font-size:10px;font-family:'Arial', sans-serif;fill:#000000" fill="currentColor" y="9" dy="0.71em" transform="rotate(0)" text-anchor="middle">0</text></g><g class="tick" opacity="1" transform="translate(117.91626794258372,0)"><line stroke="currentColor" y2="6" /><text style="font-size:10px;font-family:'Arial', sans-serif;fill:#000000" fill="currentColor" y="9" dy="0.71em" transform="rotate(0)" text-anchor="middle">200</text></g><g class="tick" opacity="1" transform="translate(175.33253588516743,0)"><line stroke="currentColor" y2="6" /><text style="font-size:10px;font-family:'Arial', sans-serif;fill:#000000" fill="currentColor" y="9" dy="0.71em" transform="rotate(0)" text-anchor="middle">400</text></g><g class="tick" opacity="1" transform="translate(232.74880382775115,0)"><line stroke="currentColor" y2="6" /><text style="font-size:10px;font-family:'Arial', sans-serif;fill:#000000" fill="currentColor" y="9" dy="0.71em" transform="rotate(0)" text-anchor="middle">600</text></g><g class="tick" opacity="1" transform="translate(290.1650717703349,0)"><line stroke="currentColor" y2="6" /><text style="font-size:10px;font-family:'Arial', sans-serif;fill:#000000" fill="currentColor" y="9" dy="0.71em" transform="rotate(0)" text-anchor="middle">800</text></g><g class="tick" opacity="1" transform="translate(347.5813397129187,0)"><line stroke="currentColor" y2="6" /><text style="font-size:10px;font-family:'Arial', sans-serif;fill:#000000" fill="currentColor" y="9" dy="0.71em" transform="rotate(0)" text-anchor="middle">1,000</text></g><g class="tick" opacity="1" transform="translate(404.99760765550235,0)"><line stroke="currentColor" y2="6" /><text style="font-size:10px;font-family:'Arial', sans-serif;fill:#000000" fill="currentColor" y="9" dy="0.71em" transform="rotate(0)" text-anchor="middle">1,200</text></g><g class="tick" opacity="1" transform="translate(462.41387559808607,0)"><line stroke="currentColor" y2="6" /><text style="font-size:10px;font-family:'Arial', sans-serif;fill:#000000" fill="currentColor" y="9" dy="0.71em" transform="rotate(0)" text-anchor="middle">1,400</text></g><g class="tick" opacity="1" transform="translate(519.8301435406698,0)"><line stroke="currentColor" y2="6" /><text style="font-size:10px;font-family:'Arial', sans-serif;fill:#000000" fill="currentColor" y="9" dy="0.71em" transform="rotate(0)" text-anchor="middle">1,600</text></g><g class="tick" opacity="1" transform="translate(577.2464114832535,0)"><line stroke="currentColor" y2="6" /><text style="font-size:10px;font-family:'Arial', sans-serif;fill:#000000" fill="currentColor" y="9" dy="0.71em" transform="rotate(0)" text-anchor="middle">1,800</text></g></g><g class="yaxisgroup" fill="none" font-size="10" font-family="sans-serif" text-anchor="end" color="#000000" transform="translate(60, 0)"><g class="yaxislabel"><text style="text-anchor:middle;font-size:10px;font-family:'Arial', sans-serif;fill:#000000" x="-45" y="200" transform="rotate(-90, -45, 200)" /></g><path class="domain" stroke="currentColor" d="M-6,370.5H0.5V10.5H-6" /><g class="tick" opacity="1" transform="translate(0,370.5)"><line stroke="currentColor" x2="-6" /><text style="text-anchor:right;font-size:10px;font-family:'Arial', sans-serif;fill:#000000" fill="currentColor" x="-9" dy="0.32em" transform="rotate(0)">0.00</text></g><g class="tick" opacity="1" transform="translate(0,340.60434782608695)"><line stroke="currentColor" x2="-6" /><text style="text-anchor:right;font-size:10px;font-family:'Arial', sans-serif;fill:#000000" fill="currentColor" x="-9" dy="0.32em" transform="rotate(0)">2.00</text></g><g class="tick" opacity="1" transform="translate(0,310.70869565217396)"><line stroke="currentColor" x2="-6" /><text style="text-anchor:right;font-size:10px;font-family:'Arial', sans-serif;fill:#000000" fill="currentColor" x="-9" dy="0.32em" transform="rotate(0)">4.00</text></g><g class="tick" opacity="1" transform="translate(0,280.8130434782609)"><line stroke="currentColor" x2="-6" /><text style="text-anchor:right;font-size:10px;font-family:'Arial', sans-serif;fill:#000000" fill="currentColor" x="-9" dy="0.32em" transform="rotate(0)">6.00</text></g><g class="tick" opacity="1" transform="translate(0,250.91739130434786)"><line stroke="currentColor" x2="-6" /><text style="text-anchor:right;font-size:10px;font-family:'Arial', sans-serif;fill:#000000" fill="currentColor" x="-9" dy="0.32em" transform="rotate(0)">8.00</text></g><g class="tick" opacity="1" transform="translate(0,221.0217391304348)"><line stroke="currentColor" x2="-6" /><text style="text-anchor:right;font-size:10px;font-family:'Arial', sans-serif;fill:#000000" fill="currentColor" x="-9" dy="0.32em" transform="rotate(0)">10.00</text></g><g class="tick" opacity="1" transform="translate(0,191.12608695652173)"><line stroke="currentColor" x2="-6" /><text style="text-anchor:right;font-size:10px;font-family:'Arial', sans-serif;fill:#000000" fill="currentColor" x="-9" dy="0.32em" transform="rotate(0)">12.00</text></g><g class="tick" opacity="1" transform="translate(0,161.2304347826087)"><line stroke="currentColor" x2="-6" /><text style="text-anchor:right;font-size:10px;font-family:'Arial', sans-serif;fill:#000000" fill="currentColor" x="-9" dy="0.32em" transform="rotate(0)">14.00</text></g><g class="tick" opacity="1" transform="translate(0,131.33478260869566)"><line stroke="currentColor" x2="-6" /><text style="text-anchor:right;font-size:10px;font-family:'Arial', sans-serif;fill:#000000" fill="currentColor" x="-9" dy="0.32em" transform="rotate(0)">16.00</text></g><g class="tick" opacity="1" transform="translate(0,101.43913043478261)"><line stroke="currentColor" x2="-6" /><text style="text-anchor:right;font-size:10px;font-family:'Arial', sans-serif;fill:#000000" fill="currentColor" x="-9" dy="0.32em" transform="rotate(0)">18.00</text></g><g class="tick" opacity="1" transform="translate(0,71.54347826086958)"><line stroke="currentColor" x2="-6" /><text style="text-anchor:right;font-size:10px;font-family:'Arial', sans-serif;fill:#000000" fill="currentColor" x="-9" dy="0.32em" transform="rotate(0)">20.00</text></g><g class="tick" opacity="1" transform="translate(0,41.64782608695649)"><line stroke="currentColor" x2="-6" /><text style="text-anchor:right;font-size:10px;font-family:'Arial', sans-serif;fill:#000000" fill="currentColor" x="-9" dy="0.32em" transform="rotate(0)">22.00</text></g><g class="tick" opacity="1" transform="translate(0,11.752173913043455)"><line stroke="currentColor" x2="-6" /><text style="text-anchor:right;font-size:10px;font-family:'Arial', sans-serif;fill:#000000" fill="currentColor" x="-9" dy="0.32em" transform="rotate(0)">24.00</text></g></g><g class="linesgroup"><path style="stroke-opacity:1" d="M60.287,214.399L65.469,214.399L70.651,214.399L75.833,214.399L81.014,214.399L86.196,214.399L91.378,214.399L96.56,214.399L101.742,214.399L106.923,214.399L112.105,214.399L117.287,214.399L122.469,214.399L127.651,214.399L132.833,214.399L138.014,214.399L143.196,214.399L148.378,214.399L153.56,214.399L158.742,214.399L163.923,214.399L169.105,214.399L174.287,214.399L179.469,214.399L184.651,214.399L189.833,214.399L195.014,214.399L200.196,214.399L205.378,214.399L210.56,214.399L215.742,214.399L220.923,214.399L226.105,214.399L231.287,214.399L236.469,214.399L241.651,214.399L246.833,214.399L252.014,214.399L257.196,214.399L262.378,214.399L267.56,214.399L272.742,214.399L277.923,214.399L283.105,214.399L288.287,214.399L288.804,214.399L289.665,214.399L293.469,214.399L296.268,214.399L298.651,214.399L303.833,214.399L309.014,214.399L314.196,214.399L319.378,214.399L324.402,214.399L324.56,214.399L329.742,214.399L334.163,214.399L334.923,214.399L340.105,214.399L345.287,214.399L350.469,214.399L355.651,214.399L360.833,214.399L366.014,214.399L371.196,214.399L376.378,214.399L381.56,214.399L382.392,214.399L386.742,214.399L391.923,214.399L397.105,214.399L402.287,214.399L407.469,214.399L412.651,214.399L417.833,214.399L423.014,214.399L428.196,214.399L433.378,214.399L438.56,214.399L443.742,214.399L448.923,214.399L454.105,214.399L459.287,214.399L463.349,214.399L464.469,214.399L469.651,214.399L474.833,214.399L480.014,214.399L485.196,214.399L490.378,214.399L495.56,214.399L499.234,214.399L500.742,214.399L505.923,214.399L511.105,214.399L516.287,214.399L521.469,214.399L526.651,214.399L531.833,214.399L535.694,214.399L537.014,214.399L542.196,214.399L547.378,214.399L552.56,214.399L557.742,214.399L562.923,214.399L568.105,214.399L573.287,214.399L578.182,214.399L578.469,214.399L583.651,214.399L588.833,214.399L594.014,214.399L599.196,214.399L604.378,214.399L609.56,214.399L614.742,214.399L619.923,214.399" fill="none" stroke="#000000" stroke-width="1.5" stroke-dasharray="10 0" /><path style="stroke-opacity:1" d="M60.287,363.629L65.469,339.684L70.651,334.983L75.833,333.003L81.014,331.911L86.196,331.219L91.378,330.741L96.56,330.391L101.742,330.124L106.923,329.913L112.105,329.743L117.287,329.602L122.469,329.484L127.651,329.384L132.833,329.297L138.014,329.221L143.196,329.155L148.378,329.097L153.56,329.044L158.742,328.997L163.923,328.955L169.105,328.916L174.287,328.882L179.469,328.849L184.651,328.82L189.833,328.793L195.014,328.768L200.196,328.745L205.378,328.723L210.56,328.703L215.742,328.684L220.923,328.667L226.105,328.65L231.287,328.635L236.469,328.62L241.651,328.606L246.833,328.593L252.014,328.581L257.196,328.569L262.378,328.558L267.56,328.547L272.742,328.537L277.923,328.528L283.105,328.519L288.287,328.51L288.804,328.509L289.665,328.508L293.469,328.502L296.268,328.497L298.651,328.494L303.833,328.486L309.014,328.479L314.196,328.472L319.378,328.465L324.402,328.458L324.56,328.458L329.742,328.452L334.163,328.447L334.923,328.446L340.105,328.44L345.287,328.435L350.469,328.429L355.651,328.424L360.833,328.419L366.014,328.414L371.196,328.409L376.378,328.405L381.56,328.401L382.392,328.4L386.742,328.396L391.923,328.392L397.105,328.388L402.287,328.384L407.469,328.38L412.651,328.377L417.833,328.373L423.014,328.37L428.196,328.366L433.378,328.363L438.56,328.36L443.742,328.357L448.923,328.354L454.105,328.351L459.287,328.348L463.349,328.346L464.469,328.345L469.651,328.343L474.833,328.34L480.014,328.338L485.196,328.335L490.378,328.333L495.56,328.33L499.234,328.328L500.742,328.328L505.923,328.326L511.105,328.323L516.287,328.321L521.469,328.319L526.651,328.317L531.833,328.315L535.694,328.313L537.014,328.313L542.196,328.311L547.378,328.309L552.56,328.307L557.742,328.305L562.923,328.304L568.105,328.302L573.287,328.3L578.182,328.298L578.469,328.298L583.651,328.297L588.833,328.295L594.014,328.293L599.196,328.292L604.378,328.29L609.56,328.289L614.742,328.287L619.923,328.286" fill="none" stroke="#6495ED" stroke-width="2" stroke-dasharray="10 10" /><path style="stroke-opacity:1" fill="none" stroke="#6495ED" stroke-width="2" stroke-dasharray="10 10" /><path style="stroke-opacity:1" d="M60.287,349.498L65.469,314.858L70.651,309.579L75.833,307.433L81.014,306.268L86.196,305.536L91.378,305.033L96.56,304.667L101.742,304.388L106.923,304.168L112.105,303.991L117.287,303.845L122.469,303.722L127.651,303.618L132.833,303.528L138.014,303.45L143.196,303.381L148.378,303.321L153.56,303.267L158.742,303.218L163.923,303.174L169.105,303.135L174.287,303.099L179.469,303.066L184.651,303.035L189.833,303.007L195.014,302.982L200.196,302.958L205.378,302.935L210.56,302.915L215.742,302.895L220.923,302.877L226.105,302.86L231.287,302.844L236.469,302.829L241.651,302.815L246.833,302.801L252.014,302.789L257.196,302.777L262.378,302.765L267.56,302.754L272.742,302.744L277.923,302.734L283.105,302.725L288.287,302.716L288.804,302.715L289.665,302.713L293.469,302.707L296.268,302.703L298.651,302.699L303.833,302.691L309.014,302.684L314.196,302.676L319.378,302.669L324.402,302.663L324.56,302.663L329.742,302.656L334.163,302.651L334.923,302.65L340.105,302.644L345.287,302.638L350.469,302.633L355.651,302.628L360.833,302.622L366.014,302.617L371.196,302.613L376.378,302.608L381.56,302.603L382.392,302.603L386.742,302.599L391.923,302.595L397.105,302.591L402.287,302.587L407.469,302.583L412.651,302.579L417.833,302.575L423.014,302.572L428.196,302.568L433.378,302.565L438.56,302.562L443.742,302.559L448.923,302.556L454.105,302.553L459.287,302.55L463.349,302.547L464.469,302.547L469.651,302.544L474.833,302.541L480.014,302.539L485.196,302.536L490.378,302.534L495.56,302.531L499.234,302.529L500.742,302.529L505.923,302.526L511.105,302.524L516.287,302.522L521.469,302.52L526.651,302.518L531.833,302.515L535.694,302.514L537.014,302.513L542.196,302.511L547.378,302.509L552.56,302.507L557.742,302.506L562.923,302.504L568.105,302.502L573.287,302.5L578.182,302.499L578.469,302.498L583.651,302.497L588.833,302.495L594.014,302.493L599.196,302.492L604.378,302.49L609.56,302.489L614.742,302.487L619.923,302.486" fill="none" stroke="#6495ED" stroke-width="2" stroke-dasharray="2 5" /><path style="stroke-opacity:1" d="M272.742,10.007L277.923,10.059L283.105,10.11L288.287,10.158L288.804,10.162L289.665,10.17L293.469,10.204L296.268,10.228L298.651,10.247L303.833,10.29L309.014,10.33L314.196,10.368L319.378,10.406L324.402,10.44L324.56,10.441L329.742,10.476L334.163,10.504L334.923,10.509L340.105,10.54L345.287,10.571L350.469,10.601L355.651,10.629L360.833,10.657L366.014,10.683L371.196,10.709L376.378,10.734L381.56,10.758L382.392,10.762L386.742,10.781L391.923,10.804L397.105,10.826L402.287,10.847L407.469,10.867L412.651,10.887L417.833,10.907L423.014,10.926L428.196,10.944L433.378,10.962L438.56,10.979L443.742,10.996L448.923,11.013L454.105,11.029L459.287,11.044L463.349,11.056L464.469,11.059L469.651,11.074L474.833,11.088L480.014,11.103L485.196,11.116L490.378,11.13L495.56,11.143L499.234,11.152L500.742,11.155L505.923,11.168L511.105,11.18L516.287,11.192L521.469,11.204L526.651,11.215L531.833,11.226L535.694,11.234L537.014,11.237L542.196,11.248L547.378,11.258L552.56,11.268L557.742,11.278L562.923,11.288L568.105,11.298L573.287,11.307L578.182,11.316L578.469,11.316L583.651,11.325L588.833,11.334L594.014,11.343L599.196,11.351L604.378,11.36L609.56,11.368L614.742,11.376L619.923,11.384" fill="none" stroke="#6495ED" stroke-width="2" stroke-dasharray="2 5" /><text x="619.9234449760755" y="214.39889906096377" fill="#000000" font-size="10px" font-family="'Arial', sans-serif" text-anchor="start" dx="10px" dy="0px" /><text x="619.9234449760755" y="328.2859531873304" fill="#000000" font-size="10px" font-family="'Arial', sans-serif" text-anchor="start" dx="10px" dy="0px" /><text x="619.9234449760755" y="-210.42085252889953" fill="#000000" font-size="10px" font-family="'Arial', sans-serif" text-anchor="start" dx="10px" dy="0px" /><text x="619.9234449760755" y="302.48572163699174" fill="#000000" font-size="10px" font-family="'Arial', sans-serif" text-anchor="start" dx="10px" dy="0px" /><text x="619.9234449760755" y="11.38396794734946" fill="#000000" font-size="10px" font-family="'Arial', sans-serif" text-anchor="start" dx="10px" dy="0px" /></g><g class="dotsgroup"><g style="fill-opacity:1;stroke-opacity:1" class="dotsgroup-child"><path style="fill:#A6A6A6;stroke:#A6A6A6;stroke-width:1" d="M2.5,0A2.5,2.5,0,1,1,-2.5,0A2.5,2.5,0,1,1,2.5,0" transform="translate(382.3923444976076, 170.34070231135547)" /></g><g style="fill-opacity:1;stroke-opacity:1" class="dotsgroup-child"><path style="fill:#A6A6A6;stroke:#A6A6A6;stroke-width:1" d="M2.5,0A2.5,2.5,0,1,1,-2.5,0A2.5,2.5,0,1,1,2.5,0" transform="translate(535.6937799043062, 225.66371913620736)" /></g><g style="fill-opacity:1;stroke-opacity:1" class="dotsgroup-child"><path style="fill:#A6A6A6;stroke:#A6A6A6;stroke-width:1" d="M2.5,0A2.5,2.5,0,1,1,-2.5,0A2.5,2.5,0,1,1,2.5,0" transform="translate(288.80382775119614, 182.4488571272707)" /></g><g style="fill-opacity:1;stroke-opacity:1" class="dotsgroup-child"><path style="fill:#A6A6A6;stroke:#A6A6A6;stroke-width:1" d="M2.5,0A2.5,2.5,0,1,1,-2.5,0A2.5,2.5,0,1,1,2.5,0" transform="translate(463.3492822966507, 252.9707566145753)" /></g><g style="fill-opacity:1;stroke-opacity:1" class="dotsgroup-child"><path style="fill:#A6A6A6;stroke:#A6A6A6;stroke-width:1" d="M2.5,0A2.5,2.5,0,1,1,-2.5,0A2.5,2.5,0,1,1,2.5,0" transform="translate(324.40191387559804, 305.08001699475994)" /></g><g style="fill-opacity:1;stroke-opacity:1" class="dotsgroup-child"><path style="fill:#A6A6A6;stroke:#A6A6A6;stroke-width:1" d="M2.5,0A2.5,2.5,0,1,1,-2.5,0A2.5,2.5,0,1,1,2.5,0" transform="translate(499.23444976076553, 223.4526854219949)" /></g><g style="fill-opacity:1;stroke-opacity:1" class="dotsgroup-child"><path style="fill:#A6A6A6;stroke:#A6A6A6;stroke-width:1" d="M2.5,0A2.5,2.5,0,1,1,-2.5,0A2.5,2.5,0,1,1,2.5,0" transform="translate(334.16267942583727, 10)" /></g><g style="fill-opacity:1;stroke-opacity:1" class="dotsgroup-child"><path style="fill:#A6A6A6;stroke:#A6A6A6;stroke-width:1" d="M2.5,0A2.5,2.5,0,1,1,-2.5,0A2.5,2.5,0,1,1,2.5,0" transform="translate(289.6650717703349, 52.3586956521739)" /></g><g style="fill-opacity:1;stroke-opacity:1" class="dotsgroup-child"><path style="fill:#A6A6A6;stroke:#A6A6A6;stroke-width:1" d="M2.5,0A2.5,2.5,0,1,1,-2.5,0A2.5,2.5,0,1,1,2.5,0" transform="translate(296.267942583732, 279.1869618046384)" /></g><g style="fill-opacity:1;stroke-opacity:1" class="dotsgroup-child"><path style="fill:#A6A6A6;stroke:#A6A6A6;stroke-width:1" d="M2.5,0A2.5,2.5,0,1,1,-2.5,0A2.5,2.5,0,1,1,2.5,0" transform="translate(578.1818181818181, 312.0305913525232)" /></g></g></svg>