<svg viewBox="0 0 640 400" width="640px" height="400px" xmlns="http://www.w3.org/2000/svg"><rect x="0" y="0" width="100%" height="100%" fill="white"/><line style="stroke-opacity:0" class="ttip-line-x" x1="0" x2="0" y1="10" y2="340" stroke-width="1px" stroke="black" /><line style="stroke-opacity:0" class="ttip-line-y" x1="60" x2="630" y1="0" y2="0" stroke-width="1px" stroke="black" /><g class="xaxisgroup" fill="none" font-size="10" font-family="sans-serif" text-anchor="middle" color="#000000" transform="translate(0, 340)"><path class="domain" stroke="currentColor" d="M60.5,6V0.5H630.5V6" /><g class="tick" opacity="1" transform="translate(60.5,0)"><line stroke="currentColor" y2="6" /><text style="text-anchor:end;font-size:10px;font-family:'Arial', sans-serif;fill:#000000" fill="currentColor" y="9" dy="-.15em" dx="-.8em" transform="rotate(-35)"> 01/01/2024</text></g><g class="tick" opacity="1" transform="translate(110.06521739130434,0)"><line stroke="currentColor" y2="6" /><text style="text-anchor:end;font-size:10px;font-family:'Arial', sans-serif;fill:#000000" fill="currentColor" y="9" dy="-.15em" dx="-.8em" transform="rotate(-35)"> 01/03/2024</text></g><g class="tick" opacity="1" transform="translate(159.6304347826087,0)"><line stroke="currentColor" y2="6" /><text style="text-anchor:end;font-size:10px;font-family:'Arial', sans-serif;fill:#000000" fill="currentColor" y="9" dy="-.15em" dx="-.8em" transform="rotate(-35)"> 01/05/2024</text></g><g class="tick" opacity="1" transform="translate(209.19565217391306,0)"><line stroke="currentColor" y2="6" /><text style="text-anchor:end;font-size:10px;font-family:'Arial', sans-serif;fill:#000000" fill="currentColor" y="9" dy="-.15em" dx="-.8em" transform="rotate(-35)"> 01/07/2024</text></g><g class="tick" opacity="1" transform="translate(258.7608695652174,0)"><line stroke="currentColor" y2="6" /><text style="text-anchor:end;font-size:10px;font-family:'Arial', sans-serif;fill:#000000" fill="currentColor" y="9" dy="-.15em" dx="-.8em" transform="rotate(-35)"> 01/09/2024</text></g><g class="tick" opacity="1" transform="translate(308.32608695652175,0)"><line stroke="currentColor" y2="6" /><text style="text-anchor:end;font-size:10px;font-family:'Arial', sans-serif;fill:#000000" fill="currentColor" y="9" dy="-.15em" dx="-.8em" transform="rotate(-35)"> 01/11/2024</text></g><g class="tick" opacity="1" transform="translate(357.8913043478261,0)"><line stroke="currentColor" y2="6" /><text style="text-anchor:end;font-size:10px;font-family:'Arial', sans-serif;fill:#000000" fill="currentColor" y="9" dy="-.15em" dx="-.8em" transform="rotate(-35)"> 01/01/2025</text></g><g class="tick" opacity="1" transform="translate(407.45652173913044,0)"><line stroke="currentColor" y2="6" /><text style="text-anchor:end;font-size:10px;font-family:'Arial', sans-serif;fill:#000000" fill="currentColor" y="9" dy="-.15em" dx="-.8em" transform="rotate(-35)"> 01/03/2025</text></g><g class="tick" opacity="1" transform="translate(457.02173913043475,0)"><line stroke="currentColor" y2="6" /><text style="text-anchor:end;font-size:10px;font-family:'Arial', sans-serif;fill:#000000" fill="currentColor" y="9" dy="-.15em" dx="-.8em" transform="rotate(-35)"> 01/05/2025</text></g><g class="tick" opacity="1" transform="translate(506.5869565217391,0)"><line stroke="currentColor" y2="6" /><text style="text-anchor:end;font-size:10px;font-family:'Arial', sans-serif;fill:#000000" fill="currentColor" y="9" dy="-.15em" dx="-.8em" transform="rotate(-35)"> 01/07/2025</text></g><g class="tick" opacity="1" transform="translate(556.1521739130435,0)"><line stroke="currentColor" y2="6" /><text style="text-anchor:end;font-size:10px;font-family:'Arial', sans-serif;fill:#000000" fill="currentColor" y="9" dy="-.15em" dx="-.8em" transform="rotate(-35)"> 01/09/2025</text></g><g class="tick" opacity="1" transform="translate(605.7173913043478,0)"><line stroke="currentColor" y2="6" /><text style="text-anchor:end;font-size:10px;font-family:'Arial', sans-serif;fill:#000000" fill="currentColor" y="9" dy="-.15em" dx="-.8em" transform="rotate(-35)"> 01/11/2025</text></g></g><text style="text-anchor:middle;font-size:10px;font-family:'Arial', sans-serif;fill:#000000" class="xaxislabel" x="320" y="380" /><g class="yaxisgroup" fill="none" font-size="10" font-family="sans-serif" text-anchor="end" color="#000000" transform="translate(60, 0)"><path class="domain" stroke="currentColor" d="M-6,340.5H0.5V10.5H-6" /><g class="tick" opacity="1" transform="translate(0,309.65737035196474)"><line stroke="currentColor" x2="-6" /><text style="text-anchor:right;font-size:10px;font-family:'Arial', sans-serif;fill:#000000" fill="currentColor" x="-9" dy="0.32em" transform="rotate(0)">-1.00</text></g><g class="tick" opacity="1" transform="translate(0,276.510298705502)"><line stroke="currentColor" x2="-6" /><text style="text-anchor:right;font-size:10px;font-family:'Arial', sans-serif;fill:#000000" fill="currentColor" x="-9" dy="0.32em" transform="rotate(0)">0.00</text></g><g class="tick" opacity="1" transform="translate(0,243.36322705903927)"><line stroke="currentColor" x2="-6" /><text style="text-anchor:right;font-size:10px;font-family:'Arial', sans-serif;fill:#000000" fill="currentColor" x="-9" dy="0.32em" transform="rotate(0)">1.00</text></g><g class="tick" opacity="1" transform="translate(0,210.21615541257654)"><line stroke="currentColor" x2="-6" /><text style="text-anchor:right;font-size:10px;font-family:'Arial', sans-serif;fill:#000000" fill="currentColor" x="-9" dy="0.32em" transform="rotate(0)">2.00</text></g><g class="tick" opacity="1" transform="translate(0,177.0690837661138)"><line stroke="currentColor" x2="-6" /><text style="text-anchor:right;font-size:10px;font-family:'Arial', sans-serif;fill:#000000" fill="currentColor" x="-9" dy="0.32em" transform="rotate(0)">3.00</text></g><g class="tick" opacity="1" transform="translate(0,143.9220121196511)"><line stroke="currentColor" x2="-6" /><text style="text-anchor:right;font-size:10px;font-family:'Arial', sans-serif;fill:#000000" fill="currentColor" x="-9" dy="0.32em" transform="rotate(0)">4.00</text></g><g class="tick" opacity="1" transform="translate(0,110.77494047318837)"><line stroke="currentColor" x2="-6" /><text style="text-anchor:right;font-size:10px;font-family:'Arial', sans-serif;fill:#000000" fill="currentColor" x="-9" dy="0.32em" transform="rotate(0)">5.00</text></g><g class="tick" opacity="1" transform="translate(0,77.62786882672566)"><line stroke="currentColor" x2="-6" /><text style="text-anchor:right;font-size:10px;font-family:'Arial', sans-serif;fill:#000000" fill="currentColor" x="-9" dy="0.32em" transform="rotate(0)">6.00</text></g><g class="tick" opacity="1" transform="translate(0,44.480797180262925)"><line stroke="currentColor" x2="-6" /><text style="text-anchor:right;font-size:10px;font-family:'Arial', sans-serif;fill:#000000" fill="currentColor" x="-9" dy="0.32em" transform="rotate(0)">7.00</text></g><g class="tick" opacity="1" transform="translate(0,11.333725533800171)"><line stroke="currentColor" x2="-6" /><text style="text-anchor:right;font-size:10px;font-family:'Arial', sans-serif;fill:#000000" fill="currentColor" x="-9" dy="0.32em" transform="rotate(0)">8.00</text></g></g><text style="text-anchor:middle;font-size:10px;font-family:'Arial', sans-serif;fill:#000000" class="yaxislabel" x="30" y="200" transform="rotate(-90, 30, 200)" /><g class="linesgroup"><g style="stroke-opacity:1" class="linegroup"><line x1="60" y1="261.54582661746787" x2="84.78260869565217" y2="217.8089770591688" fill="none" stroke="#A6A6A6" stroke-width="1" stroke-dasharray="10 0" stroke-dashoffset="0" /><line x1="84.78260869565217" y1="217.8089770591688" x2="109.56521739130434" y2="238.0058752547862" fill="none" stroke="#A6A6A6" stroke-width="1" stroke-dasharray="10 0" stroke-dashoffset="24.782608695652172" /><line x1="109.56521739130434" y1="238.0058752547862" x2="134.34782608695653" y2="70.5337057206735" fill="none" stroke="#A6A6A6" stroke-width="1" stroke-dasharray="10 0" stroke-dashoffset="49.565217391304344" /><line x1="134.34782608695653" y1="70.5337057206735" x2="159.1304347826087" y2="196.79668218580167" fill="none" stroke="#A6A6A6" stroke-width="1" stroke-dasharray="10 0" stroke-dashoffset="74.34782608695653" /><line x1="159.1304347826087" y1="196.79668218580167" x2="183.91304347826087" y2="219.18517782257783" fill="none" stroke="#A6A6A6" stroke-width="1" stroke-dasharray="10 0" stroke-dashoffset="99.13043478260869" /><line x1="183.91304347826087" y1="219.18517782257783" x2="208.69565217391306" y2="159.6511364122313" fill="none" stroke="#A6A6A6" stroke-width="1" stroke-dasharray="10 0" stroke-dashoffset="123.91304347826087" /><line x1="208.69565217391306" y1="159.6511364122313" x2="233.47826086956525" y2="128.69664120500937" fill="none" stroke="#A6A6A6" stroke-width="1" stroke-dasharray="10 0" stroke-dashoffset="148.69565217391306" /><line x1="233.47826086956525" y1="128.69664120500937" x2="258.2608695652174" y2="264.8891187202928" fill="none" stroke="#A6A6A6" stroke-width="1" stroke-dasharray="10 0" stroke-dashoffset="173.47826086956525" /><line x1="258.2608695652174" y1="264.8891187202928" x2="283.04347826086956" y2="148.7361898687548" fill="none" stroke="#A6A6A6" stroke-width="1" stroke-dasharray="10 0" stroke-dashoffset="198.26086956521738" /><line x1="283.04347826086956" y1="148.7361898687548" x2="307.82608695652175" y2="243.84238221676566" fill="none" stroke="#A6A6A6" stroke-width="1" stroke-dasharray="10 0" stroke-dashoffset="223.04347826086956" /><line x1="307.82608695652175" y1="243.84238221676566" x2="332.6086956521739" y2="203.50574128967608" fill="none" stroke="#A6A6A6" stroke-width="1" stroke-dasharray="10 0" stroke-dashoffset="247.82608695652175" /><line x1="332.6086956521739" y1="203.50574128967608" x2="357.3913043478261" y2="242.48643491249226" fill="none" stroke="#A6A6A6" stroke-width="1" stroke-dasharray="10 0" stroke-dashoffset="272.6086956521739" /><line x1="357.3913043478261" y1="242.48643491249226" x2="382.17391304347825" y2="145.05650241160794" fill="none" stroke="#A6A6A6" stroke-width="1" stroke-dasharray="10 0" stroke-dashoffset="297.3913043478261" /><line x1="382.17391304347825" y1="145.05650241160794" x2="406.95652173913044" y2="178.62778058840593" fill="none" stroke="#A6A6A6" stroke-width="1" stroke-dasharray="10 0" stroke-dashoffset="322.17391304347825" /><line x1="406.95652173913044" y1="178.62778058840593" x2="431.7391304347826" y2="258.0982010083441" fill="none" stroke="#A6A6A6" stroke-width="1" stroke-dasharray="10 0" stroke-dashoffset="346.95652173913044" /><line x1="431.7391304347826" y1="258.0982010083441" x2="456.52173913043475" y2="195.6422033768143" fill="none" stroke="#A6A6A6" stroke-width="1" stroke-dasharray="10 0" stroke-dashoffset="371.7391304347826" /><line x1="456.52173913043475" y1="195.6422033768143" x2="481.30434782608694" y2="236.9750188266919" fill="none" stroke="#A6A6A6" stroke-width="1" stroke-dasharray="10 0" stroke-dashoffset="396.52173913043475" /><line x1="481.30434782608694" y1="236.9750188266919" x2="506.0869565217391" y2="211.3607853947075" fill="none" stroke="#A6A6A6" stroke-width="1" stroke-dasharray="10 0" stroke-dashoffset="421.30434782608694" /><line x1="506.0869565217391" y1="211.3607853947075" x2="530.8695652173913" y2="199.8156577813503" fill="none" stroke="#A6A6A6" stroke-width="1" stroke-dasharray="10 0" stroke-dashoffset="446.0869565217391" /><line x1="530.8695652173913" y1="199.8156577813503" x2="555.6521739130435" y2="84.54374339949388" fill="none" stroke="#A6A6A6" stroke-width="1" stroke-dasharray="10 0" stroke-dashoffset="470.86956521739125" /><line x1="555.6521739130435" y1="84.54374339949388" x2="580.4347826086956" y2="230.6797948546709" fill="none" stroke="#A6A6A6" stroke-width="1" stroke-dasharray="10 0" stroke-dashoffset="495.6521739130435" /><line x1="580.4347826086956" y1="230.6797948546709" x2="605.2173913043478" y2="72.8868890665577" fill="none" stroke="#A6A6A6" stroke-width="1" stroke-dasharray="10 0" stroke-dashoffset="520.4347826086956" /><line x1="605.2173913043478" y1="72.8868890665577" x2="630" y2="210.93113431555508" fill="none" stroke="#A6A6A6" stroke-width="1" stroke-dasharray="10 0" stroke-dashoffset="545.2173913043478" /></g><g style="stroke-opacity:1" class="linegroup"><line x1="60" y1="175" x2="84.78260869565217" y2="175" fill="none" stroke="#000000" stroke-width="1.5" stroke-dasharray="10 0" stroke-dashoffset="0" /><line x1="84.78260869565217" y1="175" x2="109.56521739130434" y2="175" fill="none" stroke="#000000" stroke-width="1.5" stroke-dasharray="10 0" stroke-dashoffset="24.782608695652172" /><line x1="109.56521739130434" y1="175" x2="134.34782608695653" y2="175" fill="none" stroke="#000000" stroke-width="1.5" stroke-dasharray="10 0" stroke-dashoffset="49.565217391304344" /><line x1="134.34782608695653" y1="175" x2="159.1304347826087" y2="175" fill="none" stroke="#000000" stroke-width="1.5" stroke-dasharray="10 0" stroke-dashoffset="74.34782608695653" /><line x1="159.1304347826087" y1="175" x2="183.91304347826087" y2="175" fill="none" stroke="#000000" stroke-width="1.5" stroke-dasharray="10 0" stroke-dashoffset="99.13043478260869" /><line x1="183.91304347826087" y1="175" x2="208.69565217391306" y2="175" fill="none" stroke="#000000" stroke-width="1.5" stroke-dasharray="10 0" stroke-dashoffset="123.91304347826087" /><line x1="208.69565217391306" y1="175" x2="233.47826086956525" y2="175" fill="none" stroke="#000000" stroke-width="1.5" stroke-dasharray="10 0" stroke-dashoffset="148.69565217391306" /><line x1="233.47826086956525" y1="175" x2="258.2608695652174" y2="175" fill="none" stroke="#000000" stroke-width="1.5" stroke-dasharray="10 0" stroke-dashoffset="173.47826086956525" /><line x1="258.2608695652174" y1="175" x2="283.04347826086956" y2="175" fill="none" stroke="#000000" stroke-width="1.5" stroke-dasharray="10 0" stroke-dashoffset="198.26086956521738" /><line x1="283.04347826086956" y1="175" x2="307.82608695652175" y2="175" fill="none" stroke="#000000" stroke-width="1.5" stroke-dasharray="10 0" stroke-dashoffset="223.04347826086956" /><line x1="307.82608695652175" y1="175" x2="332.6086956521739" y2="175" fill="none" stroke="#000000" stroke-width="1.5" stroke-dasharray="10 0" stroke-dashoffset="247.82608695652175" /><line x1="332.6086956521739" y1="175" x2="357.3913043478261" y2="175" fill="none" stroke="#000000" stroke-width="1.5" stroke-dasharray="10 0" stroke-dashoffset="272.6086956521739" /><line x1="357.3913043478261" y1="175" x2="382.17391304347825" y2="175" fill="none" stroke="#000000" stroke-width="1.5" stroke-dasharray="10 0" stroke-dashoffset="297.3913043478261" /><line x1="382.17391304347825" y1="175" x2="406.95652173913044" y2="175" fill="none" stroke="#000000" stroke-width="1.5" stroke-dasharray="10 0" stroke-dashoffset="322.17391304347825" /><line x1="406.95652173913044" y1="175" x2="431.7391304347826" y2="175" fill="none" stroke="#000000" stroke-width="1.5" stroke-dasharray="10 0" stroke-dashoffset="346.95652173913044" /><line x1="431.7391304347826" y1="175" x2="456.52173913043475" y2="175" fill="none" stroke="#000000" stroke-width="1.5" stroke-dasharray="10 0" stroke-dashoffset="371.7391304347826" /><line x1="456.52173913043475" y1="175" x2="481.30434782608694" y2="175" fill="none" stroke="#000000" stroke-width="1.5" stroke-dasharray="10 0" stroke-dashoffset="396.52173913043475" /><line x1="481.30434782608694" y1="175" x2="506.0869565217391" y2="175" fill="none" stroke="#000000" stroke-width="1.5" stroke-dasharray="10 0" stroke-dashoffset="421.30434782608694" /><line x1="506.0869565217391" y1="175" x2="530.8695652173913" y2="175" fill="none" stroke="#000000" stroke-width="1.5" stroke-dasharray="10 0" stroke-dashoffset="446.0869565217391" /><line x1="530.8695652173913" y1="175" x2="555.6521739130435" y2="175" fill="none" stroke="#000000" stroke-width="1.5" stroke-dasharray="10 0" stroke-dashoffset="470.86956521739125" /><line x1="555.6521739130435" y1="175" x2="580.4347826086956" y2="175" fill="none" stroke="#000000" stroke-width="1.5" stroke-dasharray="10 0" stroke-dashoffset="495.6521739130435" /><line x1="580.4347826086956" y1="175" x2="605.2173913043478" y2="175" fill="none" stroke="#000000" stroke-width="1.5" stroke-dasharray="10 0" stroke-dashoffset="520.4347826086956" /><line x1="605.2173913043478" y1="175" x2="630" y2="175" fill="none" stroke="#000000" stroke-width="1.5" stroke-dasharray="10 0" stroke-dashoffset="545.2173913043478" /></g><g style="stroke-opacity:1" class="linegroup"><line x1="60" y1="285.00000000000006" x2="84.78260869565217" y2="285.00000000000006" fill="none" stroke="#6495ED" stroke-width="2" stroke-dasharray="10 10" stroke-dashoffset="0" /><line x1="84.78260869565217" y1="285.00000000000006" x2="109.56521739130434" y2="285.00000000000006" fill="none" stroke="#6495ED" stroke-width="2" stroke-dasharray="10 10" stroke-dashoffset="24.782608695652172" /><line x1="109.56521739130434" y1="285.00000000000006" x2="134.34782608695653" y2="285.00000000000006" fill="none" stroke="#6495ED" stroke-width="2" stroke-dasharray="10 10" stroke-dashoffset="49.565217391304344" /><line x1="134.34782608695653" y1="285.00000000000006" x2="159.1304347826087" y2="285.00000000000006" fill="none" stroke="#6495ED" stroke-width="2" stroke-dasharray="10 10" stroke-dashoffset="74.34782608695653" /><line x1="159.1304347826087" y1="285.00000000000006" x2="183.91304347826087" y2="285.00000000000006" fill="none" stroke="#6495ED" stroke-width="2" stroke-dasharray="10 10" stroke-dashoffset="99.13043478260869" /><line x1="183.91304347826087" y1="285.00000000000006" x2="208.69565217391306" y2="285.00000000000006" fill="none" stroke="#6495ED" stroke-width="2" stroke-dasharray="10 10" stroke-dashoffset="123.91304347826087" /><line x1="208.69565217391306" y1="285.00000000000006" x2="233.47826086956525" y2="285.00000000000006" fill="none" stroke="#6495ED" stroke-width="2" stroke-dasharray="10 10" stroke-dashoffset="148.69565217391306" /><line x1="233.47826086956525" y1="285.00000000000006" x2="258.2608695652174" y2="285.00000000000006" fill="none" stroke="#6495ED" stroke-width="2" stroke-dasharray="10 10" stroke-dashoffset="173.47826086956525" /><line x1="258.2608695652174" y1="285.00000000000006" x2="283.04347826086956" y2="285.00000000000006" fill="none" stroke="#6495ED" stroke-width="2" stroke-dasharray="10 10" stroke-dashoffset="198.26086956521738" /><line x1="283.04347826086956" y1="285.00000000000006" x2="307.82608695652175" y2="285.00000000000006" fill="none" stroke="#6495ED" stroke-width="2" stroke-dasharray="10 10" stroke-dashoffset="223.04347826086956" /><line x1="307.82608695652175" y1="285.00000000000006" x2="332.6086956521739" y2="285.00000000000006" fill="none" stroke="#6495ED" stroke-width="2" stroke-dasharray="10 10" stroke-dashoffset="247.82608695652175" /><line x1="332.6086956521739" y1="285.00000000000006" x2="357.3913043478261" y2="285.00000000000006" fill="none" stroke="#6495ED" stroke-width="2" stroke-dasharray="10 10" stroke-dashoffset="272.6086956521739" /><line x1="357.3913043478261" y1="285.00000000000006" x2="382.17391304347825" y2="285.00000000000006" fill="none" stroke="#6495ED" stroke-width="2" stroke-dasharray="10 10" stroke-dashoffset="297.3913043478261" /><line x1="382.17391304347825" y1="285.00000000000006" x2="406.95652173913044" y2="285.00000000000006" fill="none" stroke="#6495ED" stroke-width="2" stroke-dasharray="10 10" stroke-dashoffset="322.17391304347825" /><line x1="406.95652173913044" y1="285.00000000000006" x2="431.7391304347826" y2="285.00000000000006" fill="none" stroke="#6495ED" stroke-width="2" stroke-dasharray="10 10" stroke-dashoffset="346.95652173913044" /><line x1="431.7391304347826" y1="285.00000000000006" x2="456.52173913043475" y2="285.00000000000006" fill="none" stroke="#6495ED" stroke-width="2" stroke-dasharray="10 10" stroke-dashoffset="371.7391304347826" /><line x1="456.52173913043475" y1="285.00000000000006" x2="481.30434782608694" y2="285.00000000000006" fill="none" stroke="#6495ED" stroke-width="2" stroke-dasharray="10 10" stroke-dashoffset="396.52173913043475" /><line x1="481.30434782608694" y1="285.00000000000006" x2="506.0869565217391" y2="285.00000000000006" fill="none" stroke="#6495ED" stroke-width="2" stroke-dasharray="10 10" stroke-dashoffset="421.30434782608694" /><line x1="506.0869565217391" y1="285.00000000000006" x2="530.8695652173913" y2="285.00000000000006" fill="none" stroke="#6495ED" stroke-width="2" stroke-dasharray="10 10" stroke-dashoffset="446.0869565217391" /><line x1="530.8695652173913" y1="285.00000000000006" x2="555.6521739130435" y2="285.00000000000006" fill="none" stroke="#6495ED" stroke-width="2" stroke-dasharray="10 10" stroke-dashoffset="470.86956521739125" /><line x1="555.6521739130435" y1="285.00000000000006" x2="580.4347826086956" y2="285.00000000000006" fill="none" stroke="#6495ED" stroke-width="2" stroke-dasharray="10 10" stroke-dashoffset="495.6521739130435" /><line x1="580.4347826086956" y1="285.00000000000006" x2="605.2173913043478" y2="285.00000000000006" fill="none" stroke="#6495ED" stroke-width="2" stroke-dasharray="10 10" stroke-dashoffset="520.4347826086956" /><line x1="605.2173913043478" y1="285.00000000000006" x2="630" y2="285.00000000000006" fill="none" stroke="#6495ED" stroke-width="2" stroke-dasharray="10 10" stroke-dashoffset="545.2173913043478" /></g><g style="stroke-opacity:1" class="linegroup"><line x1="60" y1="65.00000000000003" x2="84.78260869565217" y2="65.00000000000003" fill="none" stroke="#6495ED" stroke-width="2" stroke-dasharray="10 10" stroke-dashoffset="0" /><line x1="84.78260869565217" y1="65.00000000000003" x2="109.56521739130434" y2="65.00000000000003" fill="none" stroke="#6495ED" stroke-width="2" stroke-dasharray="10 10" stroke-dashoffset="24.782608695652172" /><line x1="109.56521739130434" y1="65.00000000000003" x2="134.34782608695653" y2="65.00000000000003" fill="none" stroke="#6495ED" stroke-width="2" stroke-dasharray="10 10" stroke-dashoffset="49.565217391304344" /><line x1="134.34782608695653" y1="65.00000000000003" x2="159.1304347826087" y2="65.00000000000003" fill="none" stroke="#6495ED" stroke-width="2" stroke-dasharray="10 10" stroke-dashoffset="74.34782608695653" /><line x1="159.1304347826087" y1="65.00000000000003" x2="183.91304347826087" y2="65.00000000000003" fill="none" stroke="#6495ED" stroke-width="2" stroke-dasharray="10 10" stroke-dashoffset="99.13043478260869" /><line x1="183.91304347826087" y1="65.00000000000003" x2="208.69565217391306" y2="65.00000000000003" fill="none" stroke="#6495ED" stroke-width="2" stroke-dasharray="10 10" stroke-dashoffset="123.91304347826087" /><line x1="208.69565217391306" y1="65.00000000000003" x2="233.47826086956525" y2="65.00000000000003" fill="none" stroke="#6495ED" stroke-width="2" stroke-dasharray="10 10" stroke-dashoffset="148.69565217391306" /><line x1="233.47826086956525" y1="65.00000000000003" x2="258.2608695652174" y2="65.00000000000003" fill="none" stroke="#6495ED" stroke-width="2" stroke-dasharray="10 10" stroke-dashoffset="173.47826086956525" /><line x1="258.2608695652174" y1="65.00000000000003" x2="283.04347826086956" y2="65.00000000000003" fill="none" stroke="#6495ED" stroke-width="2" stroke-dasharray="10 10" stroke-dashoffset="198.26086956521738" /><line x1="283.04347826086956" y1="65.00000000000003" x2="307.82608695652175" y2="65.00000000000003" fill="none" stroke="#6495ED" stroke-width="2" stroke-dasharray="10 10" stroke-dashoffset="223.04347826086956" /><line x1="307.82608695652175" y1="65.00000000000003" x2="332.6086956521739" y2="65.00000000000003" fill="none" stroke="#6495ED" stroke-width="2" stroke-dasharray="10 10" stroke-dashoffset="247.82608695652175" /><line x1="332.6086956521739" y1="65.00000000000003" x2="357.3913043478261" y2="65.00000000000003" fill="none" stroke="#6495ED" stroke-width="2" stroke-dasharray="10 10" stroke-dashoffset="272.6086956521739" /><line x1="357.3913043478261" y1="65.00000000000003" x2="382.17391304347825" y2="65.00000000000003" fill="none" stroke="#6495ED" stroke-width="2" stroke-dasharray="10 10" stroke-dashoffset="297.3913043478261" /><line x1="382.17391304347825" y1="65.00000000000003" x2="406.95652173913044" y2="65.00000000000003" fill="none" stroke="#6495ED" stroke-width="2" stroke-dasharray="10 10" stroke-dashoffset="322.17391304347825" /><line x1="406.95652173913044" y1="65.00000000000003" x2="431.7391304347826" y2="65.00000000000003" fill="none" stroke="#6495ED" stroke-width="2" stroke-dasharray="10 10" stroke-dashoffset="346.95652173913044" /><line x1="431.7391304347826" y1="65.00000000000003" x2="456.52173913043475" y2="65.00000000000003" fill="none" stroke="#6495ED" stroke-width="2" stroke-dasharray="10 10" stroke-dashoffset="371.7391304347826" /><line x1="456.52173913043475" y1="65.00000000000003" x2="481.30434782608694" y2="65.00000000000003" fill="none" stroke="#6495ED" stroke-width="2" stroke-dasharray="10 10" stroke-dashoffset="396.52173913043475" /><line x1="481.30434782608694" y1="65.00000000000003" x2="506.0869565217391" y2="65.00000000000003" fill="none" stroke="#6495ED" stroke-width="2" stroke-dasharray="10 10" stroke-dashoffset="421.30434782608694" /><line x1="506.0869565217391" y1="65.00000000000003" x2="530.8695652173913" y2="65.00000000000003" fill="none" stroke="#6495ED" stroke-width="2" stroke-dasharray="10 10" stroke-dashoffset="446.0869565217391" /><line x1="530.8695652173913" y1="65.00000000000003" x2="555.6521739130435" y2="65.00000000000003" fill="none" stroke="#6495ED" stroke-width="2" stroke-dasharray="10 10" stroke-dashoffset="470.86956521739125" /><line x1="555.6521739130435" y1="65.00000000000003" x2="580.4347826086956" y2="65.00000000000003" fill="none" stroke="#6495ED" stroke-width="2" stroke-dasharray="10 10" stroke-dashoffset="495.6521739130435" /><line x1="580.4347826086956" y1="65.00000000000003" x2="605.2173913043478" y2="65.00000000000003" fill="none" stroke="#6495ED" stroke-width="2" stroke-dasharray="10 10" stroke-dashoffset="520.4347826086956" /><line x1="605.2173913043478" y1="65.00000000000003" x2="630" y2="65.00000000000003" fill="none" stroke="#6495ED" stroke-width="2" stroke-dasharray="10 10" stroke-dashoffset="545.2173913043478" /></g><g style="stroke-opacity:1" class="linegroup"><line x1="60" y1="248.33333333333337" x2="84.78260869565217" y2="248.33333333333337" fill="none" stroke="#6495ED" stroke-width="2" stroke-dasharray="2 5" stroke-dashoffset="0" /><line x1="84.78260869565217" y1="248.33333333333337" x2="109.56521739130434" y2="248.33333333333337" fill="none" stroke="#6495ED" stroke-width="2" stroke-dasharray="2 5" stroke-dashoffset="24.782608695652172" /><line x1="109.56521739130434" y1="248.33333333333337" x2="134.34782608695653" y2="248.33333333333337" fill="none" stroke="#6495ED" stroke-width="2" stroke-dasharray="2 5" stroke-dashoffset="49.565217391304344" /><line x1="134.34782608695653" y1="248.33333333333337" x2="159.1304347826087" y2="248.33333333333337" fill="none" stroke="#6495ED" stroke-width="2" stroke-dasharray="2 5" stroke-dashoffset="74.34782608695653" /><line x1="159.1304347826087" y1="248.33333333333337" x2="183.91304347826087" y2="248.33333333333337" fill="none" stroke="#6495ED" stroke-width="2" stroke-dasharray="2 5" stroke-dashoffset="99.13043478260869" /><line x1="183.91304347826087" y1="248.33333333333337" x2="208.69565217391306" y2="248.33333333333337" fill="none" stroke="#6495ED" stroke-width="2" stroke-dasharray="2 5" stroke-dashoffset="123.91304347826087" /><line x1="208.69565217391306" y1="248.33333333333337" x2="233.47826086956525" y2="248.33333333333337" fill="none" stroke="#6495ED" stroke-width="2" stroke-dasharray="2 5" stroke-dashoffset="148.69565217391306" /><line x1="233.47826086956525" y1="248.33333333333337" x2="258.2608695652174" y2="248.33333333333337" fill="none" stroke="#6495ED" stroke-width="2" stroke-dasharray="2 5" stroke-dashoffset="173.47826086956525" /><line x1="258.2608695652174" y1="248.33333333333337" x2="283.04347826086956" y2="248.33333333333337" fill="none" stroke="#6495ED" stroke-width="2" stroke-dasharray="2 5" stroke-dashoffset="198.26086956521738" /><line x1="283.04347826086956" y1="248.33333333333337" x2="307.82608695652175" y2="248.33333333333337" fill="none" stroke="#6495ED" stroke-width="2" stroke-dasharray="2 5" stroke-dashoffset="223.04347826086956" /><line x1="307.82608695652175" y1="248.33333333333337" x2="332.6086956521739" y2="248.33333333333337" fill="none" stroke="#6495ED" stroke-width="2" stroke-dasharray="2 5" stroke-dashoffset="247.82608695652175" /><line x1="332.6086956521739" y1="248.33333333333337" x2="357.3913043478261" y2="248.33333333333337" fill="none" stroke="#6495ED" stroke-width="2" stroke-dasharray="2 5" stroke-dashoffset="272.6086956521739" /><line x1="357.3913043478261" y1="248.33333333333337" x2="382.17391304347825" y2="248.33333333333337" fill="none" stroke="#6495ED" stroke-width="2" stroke-dasharray="2 5" stroke-dashoffset="297.3913043478261" /><line x1="382.17391304347825" y1="248.33333333333337" x2="406.95652173913044" y2="248.33333333333337" fill="none" stroke="#6495ED" stroke-width="2" stroke-dasharray="2 5" stroke-dashoffset="322.17391304347825" /><line x1="406.95652173913044" y1="248.33333333333337" x2="431.7391304347826" y2="248.33333333333337" fill="none" stroke="#6495ED" stroke-width="2" stroke-dasharray="2 5" stroke-dashoffset="346.95652173913044" /><line x1="431.7391304347826" y1="248.33333333333337" x2="456.52173913043475" y2="248.33333333333337" fill="none" stroke="#6495ED" stroke-width="2" stroke-dasharray="2 5" stroke-dashoffset="371.7391304347826" /><line x1="456.52173913043475" y1="248.33333333333337" x2="481.30434782608694" y2="248.33333333333337" fill="none" stroke="#6495ED" stroke-width="2" stroke-dasharray="2 5" stroke-dashoffset="396.52173913043475" /><line x1="481.30434782608694" y1="248.33333333333337" x2="506.0869565217391" y2="248.33333333333337" fill="none" stroke="#6495ED" stroke-width="2" stroke-dasharray="2 5" stroke-dashoffset="421.30434782608694" /><line x1="506.0869565217391" y1="248.33333333333337" x2="530.8695652173913" y2="248.33333333333337" fill="none" stroke="#6495ED" stroke-width="2" stroke-dasharray="2 5" stroke-dashoffset="446.0869565217391" /><line x1="530.8695652173913" y1="248.33333333333337" x2="555.6521739130435" y2="248.33333333333337" fill="none" stroke="#6495ED" stroke-width="2" stroke-dasharray="2 5" stroke-dashoffset="470.86956521739125" /><line x1="555.6521739130435" y1="248.33333333333337" x2="580.4347826086956" y2="248.33333333333337" fill="none" stroke="#6495ED" stroke-width="2" stroke-dasharray="2 5" stroke-dashoffset="495.6521739130435" /><line x1="580.4347826086956" y1="248.33333333333337" x2="605.2173913043478" y2="248.33333333333337" fill="none" stroke="#6495ED" stroke-width="2" stroke-dasharray="2 5" stroke-dashoffset="520.4347826086956" /><line x1="605.2173913043478" y1="248.33333333333337" x2="630" y2="248.33333333333337" fill="none" stroke="#6495ED" stroke-width="2" stroke-dasharray="2 5" stroke-dashoffset="545.2173913043478" /></g><g style="stroke-opacity:1" class="linegroup"><line x1="60" y1="101.66666666666667" x2="84.78260869565217" y2="101.66666666666667" fill="none" stroke="#6495ED" stroke-width="2" stroke-dasharray="2 5" stroke-dashoffset="0" /><line x1="84.78260869565217" y1="101.66666666666667" x2="109.56521739130434" y2="101.66666666666667" fill="none" stroke="#6495ED" stroke-width="2" stroke-dasharray="2 5" stroke-dashoffset="24.782608695652172" /><line x1="109.56521739130434" y1="101.66666666666667" x2="134.34782608695653" y2="101.66666666666667" fill="none" stroke="#6495ED" stroke-width="2" stroke-dasharray="2 5" stroke-dashoffset="49.565217391304344" /><line x1="134.34782608695653" y1="101.66666666666667" x2="159.1304347826087" y2="101.66666666666667" fill="none" stroke="#6495ED" stroke-width="2" stroke-dasharray="2 5" stroke-dashoffset="74.34782608695653" /><line x1="159.1304347826087" y1="101.66666666666667" x2="183.91304347826087" y2="101.66666666666667" fill="none" stroke="#6495ED" stroke-width="2" stroke-dasharray="2 5" stroke-dashoffset="99.13043478260869" /><line x1="183.91304347826087" y1="101.66666666666667" x2="208.69565217391306" y2="101.66666666666667" fill="none" stroke="#6495ED" stroke-width="2" stroke-dasharray="2 5" stroke-dashoffset="123.91304347826087" /><line x1="208.69565217391306" y1="101.66666666666667" x2="233.47826086956525" y2="101.66666666666667" fill="none" stroke="#6495ED" stroke-width="2" stroke-dasharray="2 5" stroke-dashoffset="148.69565217391306" /><line x1="233.47826086956525" y1="101.66666666666667" x2="258.2608695652174" y2="101.66666666666667" fill="none" stroke="#6495ED" stroke-width="2" stroke-dasharray="2 5" stroke-dashoffset="173.47826086956525" /><line x1="258.2608695652174" y1="101.66666666666667" x2="283.04347826086956" y2="101.66666666666667" fill="none" stroke="#6495ED" stroke-width="2" stroke-dasharray="2 5" stroke-dashoffset="198.26086956521738" /><line x1="283.04347826086956" y1="101.66666666666667" x2="307.82608695652175" y2="101.66666666666667" fill="none" stroke="#6495ED" stroke-width="2" stroke-dasharray="2 5" stroke-dashoffset="223.04347826086956" /><line x1="307.82608695652175" y1="101.66666666666667" x2="332.6086956521739" y2="101.66666666666667" fill="none" stroke="#6495ED" stroke-width="2" stroke-dasharray="2 5" stroke-dashoffset="247.82608695652175" /><line x1="332.6086956521739" y1="101.66666666666667" x2="357.3913043478261" y2="101.66666666666667" fill="none" stroke="#6495ED" stroke-width="2" stroke-dasharray="2 5" stroke-dashoffset="272.6086956521739" /><line x1="357.3913043478261" y1="101.66666666666667" x2="382.17391304347825" y2="101.66666666666667" fill="none" stroke="#6495ED" stroke-width="2" stroke-dasharray="2 5" stroke-dashoffset="297.3913043478261" /><line x1="382.17391304347825" y1="101.66666666666667" x2="406.95652173913044" y2="101.66666666666667" fill="none" stroke="#6495ED" stroke-width="2" stroke-dasharray="2 5" stroke-dashoffset="322.17391304347825" /><line x1="406.95652173913044" y1="101.66666666666667" x2="431.7391304347826" y2="101.66666666666667" fill="none" stroke="#6495ED" stroke-width="2" stroke-dasharray="2 5" stroke-dashoffset="346.95652173913044" /><line x1="431.7391304347826" y1="101.66666666666667" x2="456.52173913043475" y2="101.66666666666667" fill="none" stroke="#6495ED" stroke-width="2" stroke-dasharray="2 5" stroke-dashoffset="371.7391304347826" /><line x1="456.52173913043475" y1="101.66666666666667" x2="481.30434782608694" y2="101.66666666666667" fill="none" stroke="#6495ED" stroke-width="2" stroke-dasharray="2 5" stroke-dashoffset="396.52173913043475" /><line x1="481.30434782608694" y1="101.66666666666667" x2="506.0869565217391" y2="101.66666666666667" fill="none" stroke="#6495ED" stroke-width="2" stroke-dasharray="2 5" stroke-dashoffset="421.30434782608694" /><line x1="506.0869565217391" y1="101.66666666666667" x2="530.8695652173913" y2="101.66666666666667" fill="none" stroke="#6495ED" stroke-width="2" stroke-dasharray="2 5" stroke-dashoffset="446.0869565217391" /><line x1="530.8695652173913" y1="101.66666666666667" x2="555.6521739130435" y2="101.66666666666667" fill="none" stroke="#6495ED" stroke-width="2" stroke-dasharray="2 5" stroke-dashoffset="470.86956521739125" /><line x1="555.6521739130435" y1="101.66666666666667" x2="580.4347826086956" y2="101.66666666666667" fill="none" stroke="#6495ED" stroke-width="2" stroke-dasharray="2 5" stroke-dashoffset="495.6521739130435" /><line x1="580.4347826086956" y1="101.66666666666667" x2="605.2173913043478" y2="101.66666666666667" fill="none" stroke="#6495ED" stroke-width="2" stroke-dasharray="2 5" stroke-dashoffset="520.4347826086956" /><line x1="605.2173913043478" y1="101.66666666666667" x2="630" y2="101.66666666666667" fill="none" stroke="#6495ED" stroke-width="2" stroke-dasharray="2 5" stroke-dashoffset="545.2173913043478" /></g><text x="630" y="210.93113431555508" fill="#000000" font-size="10px" font-family="'Arial', sans-serif" text-anchor="start" dx="10px" dy="0px" /><text x="630" y="175" fill="#000000" font-size="10px" font-family="'Arial', sans-serif" text-anchor="start" dx="10px" dy="0px" /><text x="630" y="285.00000000000006" fill="#000000" font-size="10px" font-family="'Arial', sans-serif" text-anchor="start" dx="10px" dy="0px" /><text x="630" y="65.00000000000003" fill="#000000" font-size="10px" font-family="'Arial', sans-serif" text-anchor="start" dx="10px" dy="0px" /><text x="630" y="248.33333333333337" fill="#000000" font-size="10px" font-family="'Arial', sans-serif" text-anchor="start" dx="10px" dy="0px" /><text x="630" y="101.66666666666667" fill="#000000" font-size="10px" font-family="'Arial', sans-serif" text-anchor="start" dx="10px" dy="0px" /></g><g class="dotsgroup"><path style="fill:#A6A6A6;stroke:#A6A6A6;stroke-width:1;fill-opacity:1;stroke-opacity:1" d="M2.5,0A2.5,2.5,0,1,1,-2.5,0A2.5,2.5,0,1,1,2.5,0" transform="translate(60, 261.54582661746787)" /><path style="fill:#A6A6A6;stroke:#A6A6A6;stroke-width:1;fill-opacity:1;stroke-opacity:1" d="M2.5,0A2.5,2.5,0,1,1,-2.5,0A2.5,2.5,0,1,1,2.5,0" transform="translate(84.78260869565217, 217.8089770591688)" /><path style="fill:#A6A6A6;stroke:#A6A6A6;stroke-width:1;fill-opacity:1;stroke-opacity:1" d="M2.5,0A2.5,2.5,0,1,1,-2.5,0A2.5,2.5,0,1,1,2.5,0" transform="translate(109.56521739130434, 238.0058752547862)" /><path style="fill:#A6A6A6;stroke:#A6A6A6;stroke-width:1;fill-opacity:1;stroke-opacity:1" d="M2.5,0A2.5,2.5,0,1,1,-2.5,0A2.5,2.5,0,1,1,2.5,0" transform="translate(134.34782608695653, 70.5337057206735)" /><path style="fill:#A6A6A6;stroke:#A6A6A6;stroke-width:1;fill-opacity:1;stroke-opacity:1" d="M2.5,0A2.5,2.5,0,1,1,-2.5,0A2.5,2.5,0,1,1,2.5,0" transform="translate(159.1304347826087, 196.79668218580167)" /><path style="fill:#A6A6A6;stroke:#A6A6A6;stroke-width:1;fill-opacity:1;stroke-opacity:1" d="M2.5,0A2.5,2.5,0,1,1,-2.5,0A2.5,2.5,0,1,1,2.5,0" transform="translate(183.91304347826087, 219.18517782257783)" /><path style="fill:#A6A6A6;stroke:#A6A6A6;stroke-width:1;fill-opacity:1;stroke-opacity:1" d="M2.5,0A2.5,2.5,0,1,1,-2.5,0A2.5,2.5,0,1,1,2.5,0" transform="translate(208.69565217391306, 159.6511364122313)" /><path style="fill:#A6A6A6;stroke:#A6A6A6;stroke-width:1;fill-opacity:1;stroke-opacity:1" d="M2.5,0A2.5,2.5,0,1,1,-2.5,0A2.5,2.5,0,1,1,2.5,0" transform="translate(233.47826086956525, 128.69664120500937)" /><path style="fill:#A6A6A6;stroke:#A6A6A6;stroke-width:1;fill-opacity:1;stroke-opacity:1" d="M2.5,0A2.5,2.5,0,1,1,-2.5,0A2.5,2.5,0,1,1,2.5,0" transform="translate(258.2608695652174, 264.8891187202928)" /><path style="fill:#A6A6A6;stroke:#A6A6A6;stroke-width:1;fill-opacity:1;stroke-opacity:1" d="M2.5,0A2.5,2.5,0,1,1,-2.5,0A2.5,2.5,0,1,1,2.5,0" transform="translate(283.04347826086956, 148.7361898687548)" /><path style="fill:#A6A6A6;stroke:#A6A6A6;stroke-width:1;fill-opacity:1;stroke-opacity:1" d="M2.5,0A2.5,2.5,0,1,1,-2.5,0A2.5,2.5,0,1,1,2.5,0" transform="translate(307.82608695652175, 243.84238221676566)" /><path style="fill:#A6A6A6;stroke:#A6A6A6;stroke-width:1;fill-opacity:1;stroke-opacity:1" d="M2.5,0A2.5,2.5,0,1,1,-2.5,0A2.5,2.5,0,1,1,2.5,0" transform="translate(332.6086956521739, 203.50574128967608)" /><path style="fill:#A6A6A6;stroke:#A6A6A6;stroke-width:1;fill-opacity:1;stroke-opacity:1" d="M2.5,0A2.5,2.5,0,1,1,-2.5,0A2.5,2.5,0,1,1,2.5,0" transform="translate(357.3913043478261, 242.48643491249226)" /><path style="fill:#A6A6A6;stroke:#A6A6A6;stroke-width:1;fill-opacity:1;stroke-opacity:1" d="M2.5,0A2.5,2.5,0,1,1,-2.5,0A2.5,2.5,0,1,1,2.5,0" transform="translate(382.17391304347825, 145.05650241160794)" /><path style="fill:#A6A6A6;stroke:#A6A6A6;stroke-width:1;fill-opacity:1;stroke-opacity:1" d="M2.5,0A2.5,2.5,0,1,1,-2.5,0A2.5,2.5,0,1,1,2.5,0" transform="translate(406.95652173913044, 178.62778058840593)" /><path style="fill:#A6A6A6;stroke:#A6A6A6;stroke-width:1;fill-opacity:1;stroke-opacity:1" d="M2.5,0A2.5,2.5,0,1,1,-2.5,0A2.5,2.5,0,1,1,2.5,0" transform="translate(431.7391304347826, 258.0982010083441)" /><path style="fill:#A6A6A6;stroke:#A6A6A6;stroke-width:1;fill-opacity:1;stroke-opacity:1" d="M2.5,0A2.5,2.5,0,1,1,-2.5,0A2.5,2.5,0,1,1,2.5,0" transform="translate(456.52173913043475, 195.6422033768143)" /><path style="fill:#A6A6A6;stroke:#A6A6A6;stroke-width:1;fill-opacity:1;stroke-opacity:1" d="M2.5,0A2.5,2.5,0,1,1,-2.5,0A2.5,2.5,0,1,1,2.5,0" transform="translate(481.30434782608694, 236.9750188266919)" /><path style="fill:#A6A6A6;stroke:#A6A6A6;stroke-width:1;fill-opacity:1;stroke-opacity:1" d="M2.5,0A2.5,2.5,0,1,1,-2.5,0A2.5,2.5,0,1,1,2.5,0" transform="translate(506.0869565217391, 211.3607853947075)" /><path style="fill:#A6A6A6;stroke:#A6A6A6;stroke-width:1;fill-opacity:1;stroke-opacity:1" d="M2.5,0A2.5,2.5,0,1,1,-2.5,0A2.5,2.5,0,1,1,2.5,0" transform="translate(530.8695652173913, 199.8156577813503)" /><path style="fill:#A6A6A6;stroke:#A6A6A6;stroke-width:1;fill-opacity:1;stroke-opacity:1" d="M2.5,0A2.5,2.5,0,1,1,-2.5,0A2.5,2.5,0,1,1,2.5,0" transform="translate(555.6521739130435, 84.54374339949388)" /><path style="fill:#A6A6A6;stroke:#A6A6A6;stroke-width:1;fill-opacity:1;stroke-opacity:1" d="M2.5,0A2.5,2.5,0,1,1,-2.5,0A2.5,2.5,0,1,1,2.5,0" transform="translate(580.4347826086956, 230.6797948546709)" /><path style="fill:#A6A6A6;stroke:#A6A6A6;stroke-width:1;fill-opacity:1;stroke-opacity:1" d="M2.5,0A2.5,2.5,0,1,1,-2.5,0A2.5,2.5,0,1,1,2.5,0" transform="translate(605.2173913043478, 72.8868890665577)" /><path style="fill:#A6A6A6;stroke:#A6A6A6;stroke-width:1;fill-opacity:1;stroke-opacity:1" d="M2.5,0A2.5,2.5,0,1,1,-2.5,0A2.5,2.5,0,1,1,2.5,0" transform="translate(630, 210.93113431555508)" /></g></svg>