<svg viewBox="0 0 640 400" width="640px" height="400px" xmlns="http://www.w3.org/2000/svg"><rect x="0" y="0" width="100%" height="100%" fill="white"/><line style="stroke-opacity:0" class="ttip-line-x" x1="0" x2="0" y1="10" y2="370" stroke-width="1px" stroke="black" /><line style="stroke-opacity:0" class="ttip-line-y" x1="60" x2="630" y1="0" y2="0" stroke-width="1px" stroke="black" /><g class="xaxisgroup" fill="none" font-size="10" font-family="sans-serif" text-anchor="middle" color="#000000" transform="translate(0, 370)"><g class="xaxislabel"><text style="text-anchor:middle;font-size:10px;font-family:'Arial', sans-serif;fill:#000000" x="0" y="0" transform="translate(320, 25)" /></g><path class="domain" stroke="currentColor" d="M60.5,6V0.5H630.5V6" /><g class="tick" opacity="1" transform="translate(60.5,0)"><line stroke="currentColor" y2="6" /><text style="font-size:10px;font-family:'Arial', sans-serif;fill:#000000" fill="currentColor" y="9" dy="0.71em" transform="rotate(0)" text-anchor="middle">0</text></g><g class="tick" opacity="1" transform="translate(133.4833546734955,0)"><line stroke="currentColor" y2="6" /><text style="font-size:10px;font-family:'Arial', sans-serif;fill:#000000" fill="currentColor" y="9" dy="0.71em" transform="rotate(0)" text-anchor="middle">10</text></g><g class="tick" opacity="1" transform="translate(206.46670934699105,0)"><line stroke="currentColor" y2="6" /><text style="font-size:10px;font-family:'Arial', sans-serif;fill:#000000" fill="currentColor" y="9" dy="0.71em" transform="rotate(0)" text-anchor="middle">20</text></g><g class="tick" opacity="1" transform="translate(279.45006402048654,0)"><line stroke="currentColor" y2="6" /><text style="font-size:10px;font-family:'Arial', sans-serif;fill:#000000" fill="currentColor" y="9" dy="0.71em" transform="rotate(0)" text-anchor="middle">30</text></g><g class="tick" opacity="1" transform="translate(352.4334186939821,0)"><line stroke="currentColor" y2="6" /><text style="font-size:10px;font-family:'Arial', sans-serif;fill:#000000" fill="currentColor" y="9" dy="0.71em" transform="rotate(0)" text-anchor="middle">40</text></g><g class="tick" opacity="1" transform="translate(425.41677336747756,0)"><line stroke="currentColor" y2="6" /><text style="font-size:10px;font-family:'Arial', sans-serif;fill:#000000" fill="currentColor" y="9" dy="0.71em" transform="rotate(0)" text-anchor="middle">50</text></g><g class="tick" opacity="1" transform="translate(498.4001280409731,0)"><line stroke="currentColor" y2="6" /><text style="font-size:10px;font-family:'Arial', sans-serif;fill:#000000" fill="currentColor" y="9" dy="0.71em" transform="rotate(0)" text-anchor="middle">60</text></g><g class="tick" opacity="1" transform="translate(571.3834827144686,0)"><line stroke="currentColor" y2="6" /><text style="font-size:10px;font-family:'Arial', sans-serif;fill:#000000" fill="currentColor" y="9" dy="0.71em" transform="rotate(0)" text-anchor="middle">70</text></g></g><g class="yaxisgroup" fill="none" font-size="10" font-family="sans-serif" text-anchor="end" color="#000000" transform="translate(60, 0)"><g class="yaxislabel"><text style="text-anchor:middle;font-size:10px;font-family:'Arial', sans-serif;fill:#000000" x="-45" y="200" transform="rotate(-90, -45, 200)" /></g><path class="domain" stroke="currentColor" d="M-6,370.5H0.5V10.5H-6" /><g class="tick" opacity="1" transform="translate(0,370.5)"><line stroke="currentColor" x2="-6" /><text style="text-anchor:right;font-size:10px;font-family:'Arial', sans-serif;fill:#000000" fill="currentColor" x="-9" dy="0.32em" transform="rotate(0)">0.00</text></g><g class="tick" opacity="1" transform="translate(0,330.2647058823529)"><line stroke="currentColor" x2="-6" /><text style="text-anchor:right;font-size:10px;font-family:'Arial', sans-serif;fill:#000000" fill="currentColor" x="-9" dy="0.32em" transform="rotate(0)">0.20</text></g><g class="tick" opacity="1" transform="translate(0,290.0294117647059)"><line stroke="currentColor" x2="-6" /><text style="text-anchor:right;font-size:10px;font-family:'Arial', sans-serif;fill:#000000" fill="currentColor" x="-9" dy="0.32em" transform="rotate(0)">0.40</text></g><g class="tick" opacity="1" transform="translate(0,249.79411764705884)"><line stroke="currentColor" x2="-6" /><text style="text-anchor:right;font-size:10px;font-family:'Arial', sans-serif;fill:#000000" fill="currentColor" x="-9" dy="0.32em" transform="rotate(0)">0.60</text></g><g class="tick" opacity="1" transform="translate(0,209.55882352941177)"><line stroke="currentColor" x2="-6" /><text style="text-anchor:right;font-size:10px;font-family:'Arial', sans-serif;fill:#000000" fill="currentColor" x="-9" dy="0.32em" transform="rotate(0)">0.80</text></g><g class="tick" opacity="1" transform="translate(0,169.3235294117647)"><line stroke="currentColor" x2="-6" /><text style="text-anchor:right;font-size:10px;font-family:'Arial', sans-serif;fill:#000000" fill="currentColor" x="-9" dy="0.32em" transform="rotate(0)">1.00</text></g><g class="tick" opacity="1" transform="translate(0,129.08823529411768)"><line stroke="currentColor" x2="-6" /><text style="text-anchor:right;font-size:10px;font-family:'Arial', sans-serif;fill:#000000" fill="currentColor" x="-9" dy="0.32em" transform="rotate(0)">1.20</text></g><g class="tick" opacity="1" transform="translate(0,88.8529411764706)"><line stroke="currentColor" x2="-6" /><text style="text-anchor:right;font-size:10px;font-family:'Arial', sans-serif;fill:#000000" fill="currentColor" x="-9" dy="0.32em" transform="rotate(0)">1.40</text></g><g class="tick" opacity="1" transform="translate(0,48.61764705882351)"><line stroke="currentColor" x2="-6" /><text style="text-anchor:right;font-size:10px;font-family:'Arial', sans-serif;fill:#000000" fill="currentColor" x="-9" dy="0.32em" transform="rotate(0)">1.60</text></g></g><g class="linesgroup"><path style="stroke-opacity:1" d="M67.298,168.824L72.48,168.824L77.662,168.824L82.844,168.824L88.026,168.824L93.207,168.824L98.389,168.824L103.571,168.824L108.753,168.824L113.935,168.824L119.117,168.824L124.298,168.824L129.48,168.824L134.662,168.824L139.844,168.824L145.026,168.824L150.207,168.824L155.389,168.824L160.571,168.824L165.753,168.824L170.935,168.824L176.117,168.824L181.298,168.824L186.48,168.824L191.662,168.824L196.844,168.824L202.026,168.824L207.207,168.824L212.389,168.824L217.571,168.824L222.753,168.824L227.935,168.824L233.117,168.824L238.298,168.824L243.48,168.824L248.662,168.824L253.844,168.824L259.026,168.824L264.207,168.824L269.389,168.824L274.571,168.824L279.753,168.824L284.935,168.824L290.117,168.824L295.298,168.824L300.48,168.824L305.662,168.824L310.844,168.824L315.442,168.824L316.026,168.824L321.207,168.824L326.389,168.824L331.571,168.824L336.753,168.824L337.337,168.824L341.935,168.824L347.117,168.824L352.298,168.824L357.48,168.824L362.662,168.824L366.53,168.824L367.844,168.824L373.026,168.824L378.207,168.824L383.389,168.824L388.571,168.824L393.753,168.824L398.935,168.824L404.117,168.824L409.298,168.824L414.48,168.824L419.662,168.824L424.844,168.824L430.026,168.824L435.207,168.824L440.389,168.824L445.571,168.824L450.753,168.824L454.11,168.824L455.935,168.824L461.117,168.824L466.298,168.824L468.707,168.824L471.48,168.824L476.005,168.824L476.662,168.824L481.844,168.824L487.026,168.824L490.602,168.824L492.207,168.824L497.389,168.824L502.571,168.824L507.753,168.824L512.497,168.824L512.935,168.824L518.117,168.824L519.795,168.824L523.298,168.824L528.48,168.824L533.662,168.824L538.844,168.824L544.026,168.824L549.207,168.824L554.389,168.824L559.571,168.824L564.753,168.824L569.935,168.824L575.117,168.824L578.182,168.824L580.298,168.824L585.48,168.824L590.662,168.824L595.844,168.824L601.026,168.824L606.207,168.824L611.389,168.824L616.571,168.824L621.753,168.824" fill="none" stroke="#000000" stroke-width="1.5" stroke-dasharray="10 0" /><path style="stroke-opacity:1" d="M67.298,369.799L72.48,367.294L77.662,362.204L82.844,356.074L88.026,349.825L93.207,343.841L98.389,338.254L103.571,333.089L108.753,328.328L113.935,323.94L119.117,319.888L124.298,316.138L129.48,312.657L134.662,309.416L139.844,306.392L145.026,303.56L150.207,300.903L155.389,298.403L160.571,296.046L165.753,293.819L170.935,291.71L176.117,289.709L181.298,287.807L186.48,285.997L191.662,284.27L196.844,282.621L202.026,281.045L207.207,279.535L212.389,278.088L217.571,276.699L222.753,275.363L227.935,274.079L233.117,272.842L238.298,271.65L243.48,270.5L248.662,269.39L253.844,268.317L259.026,267.279L264.207,266.274L269.389,265.301L274.571,264.358L279.753,263.443L284.935,262.556L290.117,261.694L295.298,260.856L300.48,260.042L305.662,259.249L310.844,258.478L315.442,257.811L316.026,257.728L321.207,256.997L326.389,256.284L331.571,255.589L336.753,254.911L337.337,254.835L341.935,254.249L347.117,253.603L352.298,252.972L357.48,252.356L362.662,251.753L366.53,251.312L367.844,251.164L373.026,250.588L378.207,250.024L383.389,249.472L388.571,248.932L393.753,248.403L398.935,247.885L404.117,247.377L409.298,246.879L414.48,246.391L419.662,245.912L424.844,245.442L430.026,244.981L435.207,244.529L440.389,244.085L445.571,243.649L450.753,243.221L454.11,242.947L455.935,242.8L461.117,242.387L466.298,241.981L468.707,241.794L471.48,241.581L476.005,241.238L476.662,241.189L481.844,240.803L487.026,240.423L490.602,240.164L492.207,240.049L497.389,239.682L502.571,239.32L507.753,238.964L512.497,238.643L512.935,238.613L518.117,238.268L519.795,238.158L523.298,237.928L528.48,237.594L533.662,237.264L538.844,236.939L544.026,236.619L549.207,236.303L554.389,235.992L559.571,235.686L564.753,235.383L569.935,235.085L575.117,234.791L578.182,234.619L580.298,234.501L585.48,234.215L590.662,233.933L595.844,233.655L601.026,233.38L606.207,233.109L611.389,232.841L616.571,232.577L621.753,232.316" fill="none" stroke="#6495ED" stroke-width="2" stroke-dasharray="10 10" /><path style="stroke-opacity:1" d="M243.48,11.352L248.662,14.02L253.844,16.567L259.026,19.001L264.207,21.33L269.389,23.561L274.571,25.701L279.753,27.756L284.935,29.73L290.117,31.629L295.298,33.458L300.48,35.22L305.662,36.92L310.844,38.561L315.442,39.97L316.026,40.146L321.207,41.678L326.389,43.16L331.571,44.594L336.753,45.984L337.337,46.138L341.935,47.331L347.117,48.637L352.298,49.905L357.48,51.135L362.662,52.331L366.53,53.201L367.844,53.493L373.026,54.623L378.207,55.722L383.389,56.792L388.571,57.834L393.753,58.849L398.935,59.839L404.117,60.803L409.298,61.744L414.48,62.662L419.662,63.558L424.844,64.433L430.026,65.288L435.207,66.124L440.389,66.94L445.571,67.738L450.753,68.519L454.11,69.016L455.935,69.283L461.117,70.031L466.298,70.763L468.707,71.098L471.48,71.48L476.005,72.094L476.662,72.182L481.844,72.87L487.026,73.545L490.602,74.002L492.207,74.206L497.389,74.854L502.571,75.489L507.753,76.113L512.497,76.674L512.935,76.725L518.117,77.325L519.795,77.517L523.298,77.915L528.48,78.494L533.662,79.062L538.844,79.62L544.026,80.169L549.207,80.708L554.389,81.238L559.571,81.759L564.753,82.271L569.935,82.774L575.117,83.27L578.182,83.559L580.298,83.757L585.48,84.236L590.662,84.708L595.844,85.173L601.026,85.63L606.207,86.08L611.389,86.523L616.571,86.959L621.753,87.389" fill="none" stroke="#6495ED" stroke-width="2" stroke-dasharray="10 10" /><path style="stroke-opacity:1" d="M67.298,364.907L72.48,351.319L77.662,337.939L82.844,326.584L88.026,317.103L93.207,309.118L98.389,302.301L103.571,296.404L108.753,291.242L113.935,286.675L119.117,282.598L124.298,278.93L129.48,275.606L134.662,272.576L139.844,269.798L145.026,267.239L150.207,264.871L155.389,262.672L160.571,260.622L165.753,258.706L170.935,256.908L176.117,255.217L181.298,253.624L186.48,252.118L191.662,250.692L196.844,249.339L202.026,248.053L207.207,246.828L212.389,245.661L217.571,244.545L222.753,243.479L227.935,242.457L233.117,241.478L238.298,240.537L243.48,239.634L248.662,238.764L253.844,237.927L259.026,237.12L264.207,236.341L269.389,235.589L274.571,234.863L279.753,234.16L284.935,233.479L290.117,232.82L295.298,232.182L300.48,231.562L305.662,230.961L310.844,230.377L315.442,229.873L316.026,229.81L321.207,229.259L326.389,228.722L331.571,228.2L336.753,227.692L337.337,227.636L341.935,227.197L347.117,226.714L352.298,226.244L357.48,225.785L362.662,225.337L366.53,225.01L367.844,224.9L373.026,224.473L378.207,224.056L383.389,223.648L388.571,223.249L393.753,222.86L398.935,222.478L404.117,222.105L409.298,221.74L414.48,221.382L419.662,221.031L424.844,220.688L430.026,220.351L435.207,220.021L440.389,219.698L445.571,219.38L450.753,219.069L454.11,218.87L455.935,218.763L461.117,218.463L466.298,218.169L468.707,218.033L471.48,217.879L476.005,217.631L476.662,217.595L481.844,217.316L487.026,217.042L490.602,216.855L492.207,216.772L497.389,216.507L502.571,216.246L507.753,215.99L512.497,215.759L512.935,215.738L518.117,215.49L519.795,215.41L523.298,215.246L528.48,215.006L533.662,214.769L538.844,214.536L544.026,214.307L549.207,214.082L554.389,213.859L559.571,213.64L564.753,213.424L569.935,213.212L575.117,213.002L578.182,212.88L580.298,212.795L585.48,212.592L590.662,212.391L595.844,212.193L601.026,211.998L606.207,211.805L611.389,211.615L616.571,211.427L621.753,211.242" fill="none" stroke="#6495ED" stroke-width="2" stroke-dasharray="2 5" /><path style="stroke-opacity:1" d="M145.026,15.739L150.207,21.367L155.389,26.463L160.571,31.104L165.753,35.352L170.935,39.258L176.117,42.864L181.298,46.206L186.48,49.314L191.662,52.213L196.844,54.924L202.026,57.467L207.207,59.859L212.389,62.112L217.571,64.24L222.753,66.254L227.935,68.163L233.117,69.975L238.298,71.699L243.48,73.341L248.662,74.908L253.844,76.404L259.026,77.836L264.207,79.206L269.389,80.52L274.571,81.781L279.753,82.993L284.935,84.158L290.117,85.279L295.298,86.36L300.48,87.401L305.662,88.407L310.844,89.378L315.442,90.212L316.026,90.316L321.207,91.224L326.389,92.103L331.571,92.954L336.753,93.778L337.337,93.87L341.935,94.578L347.117,95.354L352.298,96.107L357.48,96.839L362.662,97.55L366.53,98.068L367.844,98.241L373.026,98.914L378.207,99.569L383.389,100.206L388.571,100.827L393.753,101.433L398.935,102.023L404.117,102.598L409.298,103.16L414.48,103.708L419.662,104.244L424.844,104.767L430.026,105.278L435.207,105.777L440.389,106.266L445.571,106.743L450.753,107.211L454.11,107.508L455.935,107.668L461.117,108.116L466.298,108.555L468.707,108.756L471.48,108.984L476.005,109.353L476.662,109.405L481.844,109.818L487.026,110.222L490.602,110.497L492.207,110.619L497.389,111.008L502.571,111.39L507.753,111.764L512.497,112.101L512.935,112.132L518.117,112.492L519.795,112.608L523.298,112.847L528.48,113.195L533.662,113.536L538.844,113.872L544.026,114.202L549.207,114.527L554.389,114.845L559.571,115.159L564.753,115.467L569.935,115.771L575.117,116.069L578.182,116.243L580.298,116.363L585.48,116.652L590.662,116.936L595.844,117.216L601.026,117.492L606.207,117.763L611.389,118.03L616.571,118.294L621.753,118.553" fill="none" stroke="#6495ED" stroke-width="2" stroke-dasharray="2 5" /><text x="621.7528809218944" y="168.8235294117647" fill="#000000" font-size="10px" font-family="'Arial', sans-serif" text-anchor="start" dx="10px" dy="0px" /><text x="621.7528809218944" y="232.31564958231834" fill="#000000" font-size="10px" font-family="'Arial', sans-serif" text-anchor="start" dx="10px" dy="0px" /><text x="621.7528809218944" y="87.38914347778861" fill="#000000" font-size="10px" font-family="'Arial', sans-serif" text-anchor="start" dx="10px" dy="0px" /><text x="621.7528809218944" y="211.24243908200432" fill="#000000" font-size="10px" font-family="'Arial', sans-serif" text-anchor="start" dx="10px" dy="0px" /><text x="621.7528809218944" y="118.55305191578772" fill="#000000" font-size="10px" font-family="'Arial', sans-serif" text-anchor="start" dx="10px" dy="0px" /></g><g class="dotsgroup"><g style="fill-opacity:1;stroke-opacity:1" class="dotsgroup-child"><path style="fill:#A6A6A6;stroke:#A6A6A6;stroke-width:1" d="M2.5,0A2.5,2.5,0,1,1,-2.5,0A2.5,2.5,0,1,1,2.5,0" transform="translate(468.70678617157483, 244.26470588235296)" /></g><g style="fill-opacity:1;stroke-opacity:1" class="dotsgroup-child"><path style="fill:#A6A6A6;stroke:#A6A6A6;stroke-width:1" d="M2.5,0A2.5,2.5,0,1,1,-2.5,0A2.5,2.5,0,1,1,2.5,0" transform="translate(454.11011523687574, 135.29411764705884)" /></g><g style="fill-opacity:1;stroke-opacity:1" class="dotsgroup-child"><path style="fill:#A6A6A6;stroke:#A6A6A6;stroke-width:1" d="M2.5,0A2.5,2.5,0,1,1,-2.5,0A2.5,2.5,0,1,1,2.5,0" transform="translate(519.7951344430217, 146.47058823529412)" /></g><g style="fill-opacity:1;stroke-opacity:1" class="dotsgroup-child"><path style="fill:#A6A6A6;stroke:#A6A6A6;stroke-width:1" d="M2.5,0A2.5,2.5,0,1,1,-2.5,0A2.5,2.5,0,1,1,2.5,0" transform="translate(476.00512163892444, 140.58823529411765)" /></g><g style="fill-opacity:1;stroke-opacity:1" class="dotsgroup-child"><path style="fill:#A6A6A6;stroke:#A6A6A6;stroke-width:1" d="M2.5,0A2.5,2.5,0,1,1,-2.5,0A2.5,2.5,0,1,1,2.5,0" transform="translate(578.1818181818181, 231.15990057995032)" /></g><g style="fill-opacity:1;stroke-opacity:1" class="dotsgroup-child"><path style="fill:#A6A6A6;stroke:#A6A6A6;stroke-width:1" d="M2.5,0A2.5,2.5,0,1,1,-2.5,0A2.5,2.5,0,1,1,2.5,0" transform="translate(366.53008962868114, 106.55462184873952)" /></g><g style="fill-opacity:1;stroke-opacity:1" class="dotsgroup-child"><path style="fill:#A6A6A6;stroke:#A6A6A6;stroke-width:1" d="M2.5,0A2.5,2.5,0,1,1,-2.5,0A2.5,2.5,0,1,1,2.5,0" transform="translate(490.6017925736235, 165.41375872382852)" /></g><g style="fill-opacity:1;stroke-opacity:1" class="dotsgroup-child"><path style="fill:#A6A6A6;stroke:#A6A6A6;stroke-width:1" d="M2.5,0A2.5,2.5,0,1,1,-2.5,0A2.5,2.5,0,1,1,2.5,0" transform="translate(512.4967989756722, 103.92789373814044)" /></g><g style="fill-opacity:1;stroke-opacity:1" class="dotsgroup-child"><path style="fill:#A6A6A6;stroke:#A6A6A6;stroke-width:1" d="M2.5,0A2.5,2.5,0,1,1,-2.5,0A2.5,2.5,0,1,1,2.5,0" transform="translate(315.4417413572343, 122.84033613445378)" /></g><g style="fill-opacity:1;stroke-opacity:1" class="dotsgroup-child"><path style="fill:#A6A6A6;stroke:#A6A6A6;stroke-width:1" d="M2.5,0A2.5,2.5,0,1,1,-2.5,0A2.5,2.5,0,1,1,2.5,0" transform="translate(337.33674775928296, 10)" /></g></g></svg>