<svg viewBox="0 0 640 400" width="640px" height="400px" xmlns="http://www.w3.org/2000/svg"><rect x="0" y="0" width="100%" height="100%" fill="white"/><line style="stroke-opacity:0" class="ttip-line-x" x1="0" x2="0" y1="10" y2="370" stroke-width="1px" stroke="black" /><line style="stroke-opacity:0" class="ttip-line-y" x1="60" x2="630" y1="0" y2="0" stroke-width="1px" stroke="black" /><g class="xaxisgroup" fill="none" font-size="10" font-family="sans-serif" text-anchor="middle" color="#000000" transform="translate(0, 370)"><g class="xaxislabel"><text style="text-anchor:middle;font-size:10px;font-family:'Arial', sans-serif;fill:#000000" x="0" y="0" transform="translate(320, 25)" /></g><path class="domain" stroke="currentColor" d="M60.5,6V0.5H630.5V6" /><g class="tick" opacity="1" transform="translate(60.5,0)"><line stroke="currentColor" y2="6" /><text style="font-size:10px;font-family:'Arial', sans-serif;fill:#000000" fill="currentColor" y="9" dy="0.71em" transform="rotate(0)" text-anchor="middle">0</text></g><g class="tick" opacity="1" transform="translate(133.4833546734955,0)"><line stroke="currentColor" y2="6" /><text style="font-size:10px;font-family:'Arial', sans-serif;fill:#000000" fill="currentColor" y="9" dy="0.71em" transform="rotate(0)" text-anchor="middle">10</text></g><g class="tick" opacity="1" transform="translate(206.46670934699105,0)"><line stroke="currentColor" y2="6" /><text style="font-size:10px;font-family:'Arial', sans-serif;fill:#000000" fill="currentColor" y="9" dy="0.71em" transform="rotate(0)" text-anchor="middle">20</text></g><g class="tick" opacity="1" transform="translate(279.45006402048654,0)"><line stroke="currentColor" y2="6" /><text style="font-size:10px;font-family:'Arial', sans-serif;fill:#000000" fill="currentColor" y="9" dy="0.71em" transform="rotate(0)" text-anchor="middle">30</text></g><g class="tick" opacity="1" transform="translate(352.4334186939821,0)"><line stroke="currentColor" y2="6" /><text style="font-size:10px;font-family:'Arial', sans-serif;fill:#000000" fill="currentColor" y="9" dy="0.71em" transform="rotate(0)" text-anchor="middle">40</text></g><g class="tick" opacity="1" transform="translate(425.41677336747756,0)"><line stroke="currentColor" y2="6" /><text style="font-size:10px;font-family:'Arial', sans-serif;fill:#000000" fill="currentColor" y="9" dy="0.71em" transform="rotate(0)" text-anchor="middle">50</text></g><g class="tick" opacity="1" transform="translate(498.4001280409731,0)"><line stroke="currentColor" y2="6" /><text style="font-size:10px;font-family:'Arial', sans-serif;fill:#000000" fill="currentColor" y="9" dy="0.71em" transform="rotate(0)" text-anchor="middle">60</text></g><g class="tick" opacity="1" transform="translate(571.3834827144686,0)"><line stroke="currentColor" y2="6" /><text style="font-size:10px;font-family:'Arial', sans-serif;fill:#000000" fill="currentColor" y="9" dy="0.71em" transform="rotate(0)" text-anchor="middle">70</text></g></g><g class="yaxisgroup" fill="none" font-size="10" font-family="sans-serif" text-anchor="end" color="#000000" transform="translate(60, 0)"><g class="yaxislabel"><text style="text-anchor:middle;font-size:10px;font-family:'Arial', sans-serif;fill:#000000" x="-45" y="200" transform="rotate(-90, -45, 200)" /></g><path class="domain" stroke="currentColor" d="M-6,370.5H0.5V10.5H-6" /><g class="tick" opacity="1" transform="translate(0,370.5)"><line stroke="currentColor" x2="-6" /><text style="text-anchor:right;font-size:10px;font-family:'Arial', sans-serif;fill:#000000" fill="currentColor" x="-9" dy="0.32em" transform="rotate(0)">0.00</text></g><g class="tick" opacity="1" transform="translate(0,330.2647058823529)"><line stroke="currentColor" x2="-6" /><text style="text-anchor:right;font-size:10px;font-family:'Arial', sans-serif;fill:#000000" fill="currentColor" x="-9" dy="0.32em" transform="rotate(0)">0.20</text></g><g class="tick" opacity="1" transform="translate(0,290.0294117647059)"><line stroke="currentColor" x2="-6" /><text style="text-anchor:right;font-size:10px;font-family:'Arial', sans-serif;fill:#000000" fill="currentColor" x="-9" dy="0.32em" transform="rotate(0)">0.40</text></g><g class="tick" opacity="1" transform="translate(0,249.79411764705884)"><line stroke="currentColor" x2="-6" /><text style="text-anchor:right;font-size:10px;font-family:'Arial', sans-serif;fill:#000000" fill="currentColor" x="-9" dy="0.32em" transform="rotate(0)">0.60</text></g><g class="tick" opacity="1" transform="translate(0,209.55882352941177)"><line stroke="currentColor" x2="-6" /><text style="text-anchor:right;font-size:10px;font-family:'Arial', sans-serif;fill:#000000" fill="currentColor" x="-9" dy="0.32em" transform="rotate(0)">0.80</text></g><g class="tick" opacity="1" transform="translate(0,169.3235294117647)"><line stroke="currentColor" x2="-6" /><text style="text-anchor:right;font-size:10px;font-family:'Arial', sans-serif;fill:#000000" fill="currentColor" x="-9" dy="0.32em" transform="rotate(0)">1.00</text></g><g class="tick" opacity="1" transform="translate(0,129.08823529411768)"><line stroke="currentColor" x2="-6" /><text style="text-anchor:right;font-size:10px;font-family:'Arial', sans-serif;fill:#000000" fill="currentColor" x="-9" dy="0.32em" transform="rotate(0)">1.20</text></g><g class="tick" opacity="1" transform="translate(0,88.8529411764706)"><line stroke="currentColor" x2="-6" /><text style="text-anchor:right;font-size:10px;font-family:'Arial', sans-serif;fill:#000000" fill="currentColor" x="-9" dy="0.32em" transform="rotate(0)">1.40</text></g><g class="tick" opacity="1" transform="translate(0,48.61764705882351)"><line stroke="currentColor" x2="-6" /><text style="text-anchor:right;font-size:10px;font-family:'Arial', sans-serif;fill:#000000" fill="currentColor" x="-9" dy="0.32em" transform="rotate(0)">1.60</text></g></g><g class="linesgroup"><path style="stroke-opacity:1" d="M67.298,168.824L72.48,168.824L77.662,168.824L82.844,168.824L88.026,168.824L93.207,168.824L98.389,168.824L103.571,168.824L108.753,168.824L113.935,168.824L119.117,168.824L124.298,168.824L129.48,168.824L134.662,168.824L139.844,168.824L145.026,168.824L150.207,168.824L155.389,168.824L160.571,168.824L165.753,168.824L170.935,168.824L176.117,168.824L181.298,168.824L186.48,168.824L191.662,168.824L196.844,168.824L202.026,168.824L207.207,168.824L212.389,168.824L217.571,168.824L222.753,168.824L227.935,168.824L233.117,168.824L238.298,168.824L243.48,168.824L248.662,168.824L253.844,168.824L259.026,168.824L264.207,168.824L269.389,168.824L274.571,168.824L279.753,168.824L284.935,168.824L290.117,168.824L295.298,168.824L300.48,168.824L305.662,168.824L310.844,168.824L315.442,168.824L316.026,168.824L321.207,168.824L326.389,168.824L331.571,168.824L336.753,168.824L337.337,168.824L341.935,168.824L347.117,168.824L352.298,168.824L357.48,168.824L362.662,168.824L366.53,168.824L367.844,168.824L373.026,168.824L378.207,168.824L383.389,168.824L388.571,168.824L393.753,168.824L398.935,168.824L404.117,168.824L409.298,168.824L414.48,168.824L419.662,168.824L424.844,168.824L430.026,168.824L435.207,168.824L440.389,168.824L445.571,168.824L450.753,168.824L454.11,168.824L455.935,168.824L461.117,168.824L466.298,168.824L468.707,168.824L471.48,168.824L476.005,168.824L476.662,168.824L481.844,168.824L487.026,168.824L490.602,168.824L492.207,168.824L497.389,168.824L502.571,168.824L507.753,168.824L512.497,168.824L512.935,168.824L518.117,168.824L519.795,168.824L523.298,168.824L528.48,168.824L533.662,168.824L538.844,168.824L544.026,168.824L549.207,168.824L554.389,168.824L559.571,168.824L564.753,168.824L569.935,168.824L575.117,168.824L578.182,168.824L580.298,168.824L585.48,168.824L590.662,168.824L595.844,168.824L601.026,168.824L606.207,168.824L611.389,168.824L616.571,168.824L621.753,168.824" fill="none" stroke="#000000" stroke-width="1.5" stroke-dasharray="10 0" /><path style="stroke-opacity:1" d="M82.844,369.479L88.026,366.686L93.207,363.048L98.389,359.3L103.571,355.708L108.753,352.361L113.935,349.279L119.117,346.454L124.298,343.866L129.48,341.494L134.662,339.316L139.844,337.312L145.026,335.462L150.207,333.752L155.389,332.165L160.571,330.691L165.753,329.316L170.935,328.033L176.117,326.832L181.298,325.706L186.48,324.647L191.662,323.651L196.844,322.711L202.026,321.824L207.207,320.984L212.389,320.188L217.571,319.434L222.753,318.716L227.935,318.034L233.117,317.384L238.298,316.765L243.48,316.173L248.662,315.608L253.844,315.067L259.026,314.549L264.207,314.053L269.389,313.577L274.571,313.12L279.753,312.68L284.935,312.258L290.117,311.852L295.298,311.46L300.48,311.083L305.662,310.719L310.844,310.368L315.442,310.066L316.026,310.029L321.207,309.701L326.389,309.384L331.571,309.078L336.753,308.782L337.337,308.749L341.935,308.494L347.117,308.216L352.298,307.946L357.48,307.685L362.662,307.431L366.53,307.247L367.844,307.185L373.026,306.946L378.207,306.713L383.389,306.487L388.571,306.268L393.753,306.054L398.935,305.846L404.117,305.644L409.298,305.446L414.48,305.254L419.662,305.067L424.844,304.885L430.026,304.707L435.207,304.534L440.389,304.364L445.571,304.199L450.753,304.038L454.11,303.935L455.935,303.88L461.117,303.727L466.298,303.576L468.707,303.507L471.48,303.429L476.005,303.304L476.662,303.286L481.844,303.145L487.026,303.008L490.602,302.915L492.207,302.873L497.389,302.742L502.571,302.613L507.753,302.487L512.497,302.374L512.935,302.363L518.117,302.242L519.795,302.204L523.298,302.124L528.48,302.008L533.662,301.894L538.844,301.783L544.026,301.673L549.207,301.566L554.389,301.461L559.571,301.358L564.753,301.256L569.935,301.157L575.117,301.059L578.182,301.002L580.298,300.964L585.48,300.87L590.662,300.777L595.844,300.686L601.026,300.597L606.207,300.51L611.389,300.424L616.571,300.339L621.753,300.256" fill="none" stroke="#6495ED" stroke-width="2" stroke-dasharray="10 10" /><path style="stroke-opacity:1" fill="none" stroke="#6495ED" stroke-width="2" stroke-dasharray="10 10" /><path style="stroke-opacity:1" d="M67.298,369.987L72.48,360.752L77.662,348.435L82.844,338.128L88.026,329.775L93.207,322.94L98.389,317.258L103.571,312.46L108.753,308.354L113.935,304.797L119.117,301.683L124.298,298.934L129.48,296.486L134.662,294.292L139.844,292.314L145.026,290.521L150.207,288.886L155.389,287.39L160.571,286.016L165.753,284.748L170.935,283.575L176.117,282.486L181.298,281.473L186.48,280.527L191.662,279.642L196.844,278.812L202.026,278.032L207.207,277.298L212.389,276.606L217.571,275.951L222.753,275.332L227.935,274.745L233.117,274.188L238.298,273.659L243.48,273.155L248.662,272.674L253.844,272.216L259.026,271.779L264.207,271.36L269.389,270.96L274.571,270.576L279.753,270.208L284.935,269.855L290.117,269.516L295.298,269.19L300.48,268.876L305.662,268.574L310.844,268.283L315.442,268.033L316.026,268.002L321.207,267.731L326.389,267.47L331.571,267.217L336.753,266.973L337.337,266.946L341.935,266.737L347.117,266.508L352.298,266.287L357.48,266.073L362.662,265.865L366.53,265.714L367.844,265.664L373.026,265.468L378.207,265.278L383.389,265.094L388.571,264.915L393.753,264.741L398.935,264.572L404.117,264.408L409.298,264.248L414.48,264.092L419.662,263.94L424.844,263.792L430.026,263.648L435.207,263.508L440.389,263.371L445.571,263.237L450.753,263.107L454.11,263.024L455.935,262.98L461.117,262.856L466.298,262.735L468.707,262.679L471.48,262.616L476.005,262.515L476.662,262.501L481.844,262.388L487.026,262.277L490.602,262.202L492.207,262.169L497.389,262.063L502.571,261.96L507.753,261.858L512.497,261.768L512.935,261.759L518.117,261.662L519.795,261.631L523.298,261.567L528.48,261.474L533.662,261.383L538.844,261.294L544.026,261.206L549.207,261.12L554.389,261.036L559.571,260.954L564.753,260.873L569.935,260.793L575.117,260.716L578.182,260.67L580.298,260.639L585.48,260.564L590.662,260.49L595.844,260.418L601.026,260.347L606.207,260.277L611.389,260.209L616.571,260.141L621.753,260.075" fill="none" stroke="#6495ED" stroke-width="2" stroke-dasharray="2 5" /><path style="stroke-opacity:1" d="M181.298,10.578L186.48,12.476L191.662,14.239L196.844,15.88L202.026,17.411L207.207,18.844L212.389,20.188L217.571,21.451L222.753,22.64L227.935,23.761L233.117,24.821L238.298,25.824L243.48,26.775L248.662,27.677L253.844,28.535L259.026,29.352L264.207,30.13L269.389,30.872L274.571,31.581L279.753,32.259L284.935,32.907L290.117,33.529L295.298,34.125L300.48,34.697L305.662,35.246L310.844,35.775L315.442,36.227L316.026,36.283L321.207,36.772L326.389,37.244L331.571,37.698L336.753,38.137L337.337,38.185L341.935,38.56L347.117,38.969L352.298,39.365L357.48,39.747L362.662,40.117L366.53,40.386L367.844,40.475L373.026,40.822L378.207,41.159L383.389,41.485L388.571,41.802L393.753,42.109L398.935,42.407L404.117,42.697L409.298,42.979L414.48,43.252L419.662,43.519L424.844,43.778L430.026,44.03L435.207,44.276L440.389,44.515L445.571,44.748L450.753,44.975L454.11,45.12L455.935,45.197L461.117,45.413L466.298,45.624L468.707,45.72L471.48,45.83L476.005,46.006L476.662,46.031L481.844,46.227L487.026,46.419L490.602,46.548L492.207,46.606L497.389,46.789L502.571,46.968L507.753,47.143L512.497,47.3L512.935,47.314L518.117,47.481L519.795,47.535L523.298,47.645L528.48,47.806L533.662,47.963L538.844,48.116L544.026,48.267L549.207,48.415L554.389,48.559L559.571,48.701L564.753,48.84L569.935,48.976L575.117,49.109L578.182,49.187L580.298,49.24L585.48,49.369L590.662,49.495L595.844,49.619L601.026,49.74L606.207,49.859L611.389,49.976L616.571,50.091L621.753,50.204" fill="none" stroke="#6495ED" stroke-width="2" stroke-dasharray="2 5" /><text x="621.7528809218944" y="168.8235294117647" fill="#000000" font-size="10px" font-family="'Arial', sans-serif" text-anchor="start" dx="10px" dy="0px" /><text x="621.7528809218944" y="300.2560499817714" fill="#000000" font-size="10px" font-family="'Arial', sans-serif" text-anchor="start" dx="10px" dy="0px" /><text x="621.7528809218944" y="-30.64241648071294" fill="#000000" font-size="10px" font-family="'Arial', sans-serif" text-anchor="start" dx="10px" dy="0px" /><text x="621.7528809218944" y="260.07507090628854" fill="#000000" font-size="10px" font-family="'Arial', sans-serif" text-anchor="start" dx="10px" dy="0px" /><text x="621.7528809218944" y="50.20441635660919" fill="#000000" font-size="10px" font-family="'Arial', sans-serif" text-anchor="start" dx="10px" dy="0px" /></g><g class="dotsgroup"><g style="fill-opacity:1;stroke-opacity:1" class="dotsgroup-child"><path style="fill:#A6A6A6;stroke:#A6A6A6;stroke-width:1" d="M2.5,0A2.5,2.5,0,1,1,-2.5,0A2.5,2.5,0,1,1,2.5,0" transform="translate(468.70678617157483, 244.26470588235296)" /></g><g style="fill-opacity:1;stroke-opacity:1" class="dotsgroup-child"><path style="fill:#A6A6A6;stroke:#A6A6A6;stroke-width:1" d="M2.5,0A2.5,2.5,0,1,1,-2.5,0A2.5,2.5,0,1,1,2.5,0" transform="translate(454.11011523687574, 135.29411764705884)" /></g><g style="fill-opacity:1;stroke-opacity:1" class="dotsgroup-child"><path style="fill:#A6A6A6;stroke:#A6A6A6;stroke-width:1" d="M2.5,0A2.5,2.5,0,1,1,-2.5,0A2.5,2.5,0,1,1,2.5,0" transform="translate(519.7951344430217, 146.47058823529412)" /></g><g style="fill-opacity:1;stroke-opacity:1" class="dotsgroup-child"><path style="fill:#A6A6A6;stroke:#A6A6A6;stroke-width:1" d="M2.5,0A2.5,2.5,0,1,1,-2.5,0A2.5,2.5,0,1,1,2.5,0" transform="translate(476.00512163892444, 140.58823529411765)" /></g><g style="fill-opacity:1;stroke-opacity:1" class="dotsgroup-child"><path style="fill:#A6A6A6;stroke:#A6A6A6;stroke-width:1" d="M2.5,0A2.5,2.5,0,1,1,-2.5,0A2.5,2.5,0,1,1,2.5,0" transform="translate(578.1818181818181, 231.15990057995032)" /></g><g style="fill-opacity:1;stroke-opacity:1" class="dotsgroup-child"><path style="fill:#A6A6A6;stroke:#A6A6A6;stroke-width:1" d="M2.5,0A2.5,2.5,0,1,1,-2.5,0A2.5,2.5,0,1,1,2.5,0" transform="translate(366.53008962868114, 106.55462184873952)" /></g><g style="fill-opacity:1;stroke-opacity:1" class="dotsgroup-child"><path style="fill:#A6A6A6;stroke:#A6A6A6;stroke-width:1" d="M2.5,0A2.5,2.5,0,1,1,-2.5,0A2.5,2.5,0,1,1,2.5,0" transform="translate(490.6017925736235, 165.41375872382852)" /></g><g style="fill-opacity:1;stroke-opacity:1" class="dotsgroup-child"><path style="fill:#A6A6A6;stroke:#A6A6A6;stroke-width:1" d="M2.5,0A2.5,2.5,0,1,1,-2.5,0A2.5,2.5,0,1,1,2.5,0" transform="translate(512.4967989756722, 103.92789373814044)" /></g><g style="fill-opacity:1;stroke-opacity:1" class="dotsgroup-child"><path style="fill:#A6A6A6;stroke:#A6A6A6;stroke-width:1" d="M2.5,0A2.5,2.5,0,1,1,-2.5,0A2.5,2.5,0,1,1,2.5,0" transform="translate(315.4417413572343, 122.84033613445378)" /></g><g style="fill-opacity:1;stroke-opacity:1" class="dotsgroup-child"><path style="fill:#A6A6A6;stroke:#A6A6A6;stroke-width:1" d="M2.5,0A2.5,2.5,0,1,1,-2.5,0A2.5,2.5,0,1,1,2.5,0" transform="translate(337.33674775928296, 10)" /></g></g></svg>