<svg viewBox="0 0 640 400" width="640px" height="400px" xmlns="http://www.w3.org/2000/svg"><rect x="0" y="0" width="100%" height="100%" fill="white"/><line style="stroke-opacity:0" class="ttip-line-x" x1="0" x2="0" y1="10" y2="340" stroke-width="1px" stroke="black" /><line style="stroke-opacity:0" class="ttip-line-y" x1="60" x2="630" y1="0" y2="0" stroke-width="1px" stroke="black" /><g class="xaxisgroup" fill="none" font-size="10" font-family="sans-serif" text-anchor="middle" color="#000000" transform="translate(0, 340)"><path class="domain" stroke="currentColor" d="M60.5,6V0.5H630.5V6" /><g class="tick" opacity="1" transform="translate(60.5,0)"><line stroke="currentColor" y2="6" /><text style="text-anchor:end;font-size:10px;font-family:'Arial', sans-serif;fill:#000000" fill="currentColor" y="9" dy="-.15em" dx="-.8em" transform="rotate(-35)">0</text></g><g class="tick" opacity="1" transform="translate(120.5,0)"><line stroke="currentColor" y2="6" /><text style="text-anchor:end;font-size:10px;font-family:'Arial', sans-serif;fill:#000000" fill="currentColor" y="9" dy="-.15em" dx="-.8em" transform="rotate(-35)">2</text></g><g class="tick" opacity="1" transform="translate(180.5,0)"><line stroke="currentColor" y2="6" /><text style="text-anchor:end;font-size:10px;font-family:'Arial', sans-serif;fill:#000000" fill="currentColor" y="9" dy="-.15em" dx="-.8em" transform="rotate(-35)">4</text></g><g class="tick" opacity="1" transform="translate(240.5,0)"><line stroke="currentColor" y2="6" /><text style="text-anchor:end;font-size:10px;font-family:'Arial', sans-serif;fill:#000000" fill="currentColor" y="9" dy="-.15em" dx="-.8em" transform="rotate(-35)">6</text></g><g class="tick" opacity="1" transform="translate(300.5,0)"><line stroke="currentColor" y2="6" /><text style="text-anchor:end;font-size:10px;font-family:'Arial', sans-serif;fill:#000000" fill="currentColor" y="9" dy="-.15em" dx="-.8em" transform="rotate(-35)">8</text></g><g class="tick" opacity="1" transform="translate(360.5,0)"><line stroke="currentColor" y2="6" /><text style="text-anchor:end;font-size:10px;font-family:'Arial', sans-serif;fill:#000000" fill="currentColor" y="9" dy="-.15em" dx="-.8em" transform="rotate(-35)">10</text></g><g class="tick" opacity="1" transform="translate(420.5,0)"><line stroke="currentColor" y2="6" /><text style="text-anchor:end;font-size:10px;font-family:'Arial', sans-serif;fill:#000000" fill="currentColor" y="9" dy="-.15em" dx="-.8em" transform="rotate(-35)">12</text></g><g class="tick" opacity="1" transform="translate(480.49999999999994,0)"><line stroke="currentColor" y2="6" /><text style="text-anchor:end;font-size:10px;font-family:'Arial', sans-serif;fill:#000000" fill="currentColor" y="9" dy="-.15em" dx="-.8em" transform="rotate(-35)">14</text></g><g class="tick" opacity="1" transform="translate(540.5,0)"><line stroke="currentColor" y2="6" /><text style="text-anchor:end;font-size:10px;font-family:'Arial', sans-serif;fill:#000000" fill="currentColor" y="9" dy="-.15em" dx="-.8em" transform="rotate(-35)">16</text></g><g class="tick" opacity="1" transform="translate(600.4999999999999,0)"><line stroke="currentColor" y2="6" /><text style="text-anchor:end;font-size:10px;font-family:'Arial', sans-serif;fill:#000000" fill="currentColor" y="9" dy="-.15em" dx="-.8em" transform="rotate(-35)">18</text></g></g><text style="text-anchor:middle;font-size:10px;font-family:'Arial', sans-serif;fill:#000000" class="xaxislabel" x="320" y="380" /><g class="yaxisgroup" fill="none" font-size="10" font-family="sans-serif" text-anchor="end" color="#000000" transform="translate(60, 0)"><path class="domain" stroke="currentColor" d="M-6,340.5H0.5V10.5H-6" /><g class="tick" opacity="1" transform="translate(0,320.42949933661595)"><line stroke="currentColor" x2="-6" /><text style="text-anchor:right;font-size:10px;font-family:'Arial', sans-serif;fill:#000000" fill="currentColor" x="-9" dy="0.32em" transform="rotate(0)">0.00</text></g><g class="tick" opacity="1" transform="translate(0,293.0157852656858)"><line stroke="currentColor" x2="-6" /><text style="text-anchor:right;font-size:10px;font-family:'Arial', sans-serif;fill:#000000" fill="currentColor" x="-9" dy="0.32em" transform="rotate(0)">10.00</text></g><g class="tick" opacity="1" transform="translate(0,265.60207119475564)"><line stroke="currentColor" x2="-6" /><text style="text-anchor:right;font-size:10px;font-family:'Arial', sans-serif;fill:#000000" fill="currentColor" x="-9" dy="0.32em" transform="rotate(0)">20.00</text></g><g class="tick" opacity="1" transform="translate(0,238.1883571238255)"><line stroke="currentColor" x2="-6" /><text style="text-anchor:right;font-size:10px;font-family:'Arial', sans-serif;fill:#000000" fill="currentColor" x="-9" dy="0.32em" transform="rotate(0)">30.00</text></g><g class="tick" opacity="1" transform="translate(0,210.77464305289536)"><line stroke="currentColor" x2="-6" /><text style="text-anchor:right;font-size:10px;font-family:'Arial', sans-serif;fill:#000000" fill="currentColor" x="-9" dy="0.32em" transform="rotate(0)">40.00</text></g><g class="tick" opacity="1" transform="translate(0,183.36092898196517)"><line stroke="currentColor" x2="-6" /><text style="text-anchor:right;font-size:10px;font-family:'Arial', sans-serif;fill:#000000" fill="currentColor" x="-9" dy="0.32em" transform="rotate(0)">50.00</text></g><g class="tick" opacity="1" transform="translate(0,155.94721491103502)"><line stroke="currentColor" x2="-6" /><text style="text-anchor:right;font-size:10px;font-family:'Arial', sans-serif;fill:#000000" fill="currentColor" x="-9" dy="0.32em" transform="rotate(0)">60.00</text></g><g class="tick" opacity="1" transform="translate(0,128.5335008401049)"><line stroke="currentColor" x2="-6" /><text style="text-anchor:right;font-size:10px;font-family:'Arial', sans-serif;fill:#000000" fill="currentColor" x="-9" dy="0.32em" transform="rotate(0)">70.00</text></g><g class="tick" opacity="1" transform="translate(0,101.11978676917475)"><line stroke="currentColor" x2="-6" /><text style="text-anchor:right;font-size:10px;font-family:'Arial', sans-serif;fill:#000000" fill="currentColor" x="-9" dy="0.32em" transform="rotate(0)">80.00</text></g><g class="tick" opacity="1" transform="translate(0,73.70607269824458)"><line stroke="currentColor" x2="-6" /><text style="text-anchor:right;font-size:10px;font-family:'Arial', sans-serif;fill:#000000" fill="currentColor" x="-9" dy="0.32em" transform="rotate(0)">90.00</text></g><g class="tick" opacity="1" transform="translate(0,46.29235862731442)"><line stroke="currentColor" x2="-6" /><text style="text-anchor:right;font-size:10px;font-family:'Arial', sans-serif;fill:#000000" fill="currentColor" x="-9" dy="0.32em" transform="rotate(0)">100.00</text></g><g class="tick" opacity="1" transform="translate(0,18.87864455638426)"><line stroke="currentColor" x2="-6" /><text style="text-anchor:right;font-size:10px;font-family:'Arial', sans-serif;fill:#000000" fill="currentColor" x="-9" dy="0.32em" transform="rotate(0)">110.00</text></g></g><text style="text-anchor:middle;font-size:10px;font-family:'Arial', sans-serif;fill:#000000" class="yaxislabel" x="30" y="200" transform="rotate(-90, 30, 200)" /><g class="linesgroup"><g style="stroke-opacity:1" class="linegroup"><line x1="60" y1="280.4600120598936" x2="90" y2="132.593588320405" fill="none" stroke="#A6A6A6" stroke-width="1" stroke-dasharray="10 0" stroke-dashoffset="0" /><line x1="90" y1="132.593588320405" x2="120" y2="284.93616746011463" fill="none" stroke="#A6A6A6" stroke-width="1" stroke-dasharray="10 0" stroke-dashoffset="30" /><line x1="120" y1="284.93616746011463" x2="150" y2="291.2698900072492" fill="none" stroke="#A6A6A6" stroke-width="1" stroke-dasharray="10 0" stroke-dashoffset="60" /><line x1="150" y1="291.2698900072492" x2="180" y2="232.0708147326862" fill="none" stroke="#A6A6A6" stroke-width="1" stroke-dasharray="10 0" stroke-dashoffset="90" /><line x1="180" y1="232.0708147326862" x2="210" y2="277.88441811691655" fill="none" stroke="#A6A6A6" stroke-width="1" stroke-dasharray="10 0" stroke-dashoffset="120" /><line x1="210" y1="277.88441811691655" x2="240" y2="301.8889738111631" fill="none" stroke="#A6A6A6" stroke-width="1" stroke-dasharray="10 0" stroke-dashoffset="150" /><line x1="240" y1="301.8889738111631" x2="270" y2="304.28398990750713" fill="none" stroke="#A6A6A6" stroke-width="1" stroke-dasharray="10 0" stroke-dashoffset="180" /><line x1="270" y1="304.28398990750713" x2="300" y2="265.5644555693533" fill="none" stroke="#A6A6A6" stroke-width="1" stroke-dasharray="10 0" stroke-dashoffset="210" /><line x1="300" y1="265.5644555693533" x2="329.99999999999994" y2="269.115890615759" fill="none" stroke="#A6A6A6" stroke-width="1" stroke-dasharray="10 0" stroke-dashoffset="240" /><line x1="329.99999999999994" y1="269.115890615759" x2="360" y2="262.44257114033206" fill="none" stroke="#A6A6A6" stroke-width="1" stroke-dasharray="10 0" stroke-dashoffset="269.99999999999994" /><line x1="360" y1="262.44257114033206" x2="390" y2="266.3619881009386" fill="none" stroke="#A6A6A6" stroke-width="1" stroke-dasharray="10 0" stroke-dashoffset="300" /><line x1="390" y1="266.3619881009386" x2="420" y2="224.26767070664053" fill="none" stroke="#A6A6A6" stroke-width="1" stroke-dasharray="10 0" stroke-dashoffset="330" /><line x1="420" y1="224.26767070664053" x2="450" y2="242.00680395205504" fill="none" stroke="#A6A6A6" stroke-width="1" stroke-dasharray="10 0" stroke-dashoffset="360" /><line x1="450" y1="242.00680395205504" x2="479.99999999999994" y2="263.8982806924673" fill="none" stroke="#A6A6A6" stroke-width="1" stroke-dasharray="10 0" stroke-dashoffset="390" /><line x1="479.99999999999994" y1="263.8982806924673" x2="510" y2="247.29867920710333" fill="none" stroke="#A6A6A6" stroke-width="1" stroke-dasharray="10 0" stroke-dashoffset="419.99999999999994" /><line x1="510" y1="247.29867920710333" x2="540" y2="238.9520709287917" fill="none" stroke="#A6A6A6" stroke-width="1" stroke-dasharray="10 0" stroke-dashoffset="450" /><line x1="540" y1="238.9520709287917" x2="570" y2="304.8996489723421" fill="none" stroke="#A6A6A6" stroke-width="1" stroke-dasharray="10 0" stroke-dashoffset="480" /><line x1="570" y1="304.8996489723421" x2="599.9999999999999" y2="281.9929356221768" fill="none" stroke="#A6A6A6" stroke-width="1" stroke-dasharray="10 0" stroke-dashoffset="510" /><line x1="599.9999999999999" y1="281.9929356221768" x2="630" y2="318.1493259055763" fill="none" stroke="#A6A6A6" stroke-width="1" stroke-dasharray="10 0" stroke-dashoffset="539.9999999999999" /></g><g style="stroke-opacity:1" class="linegroup"><line x1="60" y1="274.44797771672893" x2="90" y2="274.44797771672893" fill="none" stroke="#000000" stroke-width="1.5" stroke-dasharray="10 0" stroke-dashoffset="0" /><line x1="90" y1="274.44797771672893" x2="120" y2="274.44797771672893" fill="none" stroke="#000000" stroke-width="1.5" stroke-dasharray="10 0" stroke-dashoffset="30" /><line x1="120" y1="274.44797771672893" x2="150" y2="274.44797771672893" fill="none" stroke="#000000" stroke-width="1.5" stroke-dasharray="10 0" stroke-dashoffset="60" /><line x1="150" y1="274.44797771672893" x2="180" y2="274.44797771672893" fill="none" stroke="#000000" stroke-width="1.5" stroke-dasharray="10 0" stroke-dashoffset="90" /><line x1="180" y1="274.44797771672893" x2="210" y2="274.44797771672893" fill="none" stroke="#000000" stroke-width="1.5" stroke-dasharray="10 0" stroke-dashoffset="120" /><line x1="210" y1="274.44797771672893" x2="240" y2="274.44797771672893" fill="none" stroke="#000000" stroke-width="1.5" stroke-dasharray="10 0" stroke-dashoffset="150" /><line x1="240" y1="274.44797771672893" x2="270" y2="274.44797771672893" fill="none" stroke="#000000" stroke-width="1.5" stroke-dasharray="10 0" stroke-dashoffset="180" /><line x1="270" y1="274.44797771672893" x2="300" y2="274.44797771672893" fill="none" stroke="#000000" stroke-width="1.5" stroke-dasharray="10 0" stroke-dashoffset="210" /><line x1="300" y1="274.44797771672893" x2="329.99999999999994" y2="274.44797771672893" fill="none" stroke="#000000" stroke-width="1.5" stroke-dasharray="10 0" stroke-dashoffset="240" /><line x1="329.99999999999994" y1="274.44797771672893" x2="360" y2="274.44797771672893" fill="none" stroke="#000000" stroke-width="1.5" stroke-dasharray="10 0" stroke-dashoffset="269.99999999999994" /><line x1="360" y1="274.44797771672893" x2="390" y2="274.44797771672893" fill="none" stroke="#000000" stroke-width="1.5" stroke-dasharray="10 0" stroke-dashoffset="300" /><line x1="390" y1="274.44797771672893" x2="420" y2="274.44797771672893" fill="none" stroke="#000000" stroke-width="1.5" stroke-dasharray="10 0" stroke-dashoffset="330" /><line x1="420" y1="274.44797771672893" x2="450" y2="274.44797771672893" fill="none" stroke="#000000" stroke-width="1.5" stroke-dasharray="10 0" stroke-dashoffset="360" /><line x1="450" y1="274.44797771672893" x2="479.99999999999994" y2="274.44797771672893" fill="none" stroke="#000000" stroke-width="1.5" stroke-dasharray="10 0" stroke-dashoffset="390" /><line x1="479.99999999999994" y1="274.44797771672893" x2="510" y2="274.44797771672893" fill="none" stroke="#000000" stroke-width="1.5" stroke-dasharray="10 0" stroke-dashoffset="419.99999999999994" /><line x1="510" y1="274.44797771672893" x2="540" y2="274.44797771672893" fill="none" stroke="#000000" stroke-width="1.5" stroke-dasharray="10 0" stroke-dashoffset="450" /><line x1="540" y1="274.44797771672893" x2="570" y2="274.44797771672893" fill="none" stroke="#000000" stroke-width="1.5" stroke-dasharray="10 0" stroke-dashoffset="480" /><line x1="570" y1="274.44797771672893" x2="599.9999999999999" y2="274.44797771672893" fill="none" stroke="#000000" stroke-width="1.5" stroke-dasharray="10 0" stroke-dashoffset="510" /><line x1="599.9999999999999" y1="274.44797771672893" x2="630" y2="274.44797771672893" fill="none" stroke="#000000" stroke-width="1.5" stroke-dasharray="10 0" stroke-dashoffset="539.9999999999999" /></g><g style="stroke-opacity:1" class="linegroup"><line x1="60" y1="317.42112741186776" x2="90" y2="317.42112741186776" fill="none" stroke="#6495ED" stroke-width="2" stroke-dasharray="10 10" stroke-dashoffset="0" /><line x1="90" y1="317.42112741186776" x2="120" y2="317.42112741186776" fill="none" stroke="#6495ED" stroke-width="2" stroke-dasharray="10 10" stroke-dashoffset="30" /><line x1="120" y1="317.42112741186776" x2="150" y2="317.42112741186776" fill="none" stroke="#6495ED" stroke-width="2" stroke-dasharray="10 10" stroke-dashoffset="60" /><line x1="150" y1="317.42112741186776" x2="180" y2="317.42112741186776" fill="none" stroke="#6495ED" stroke-width="2" stroke-dasharray="10 10" stroke-dashoffset="90" /><line x1="180" y1="317.42112741186776" x2="210" y2="317.42112741186776" fill="none" stroke="#6495ED" stroke-width="2" stroke-dasharray="10 10" stroke-dashoffset="120" /><line x1="210" y1="317.42112741186776" x2="240" y2="317.42112741186776" fill="none" stroke="#6495ED" stroke-width="2" stroke-dasharray="10 10" stroke-dashoffset="150" /><line x1="240" y1="317.42112741186776" x2="270" y2="317.42112741186776" fill="none" stroke="#6495ED" stroke-width="2" stroke-dasharray="10 10" stroke-dashoffset="180" /><line x1="270" y1="317.42112741186776" x2="300" y2="317.42112741186776" fill="none" stroke="#6495ED" stroke-width="2" stroke-dasharray="10 10" stroke-dashoffset="210" /><line x1="300" y1="317.42112741186776" x2="329.99999999999994" y2="317.42112741186776" fill="none" stroke="#6495ED" stroke-width="2" stroke-dasharray="10 10" stroke-dashoffset="240" /><line x1="329.99999999999994" y1="317.42112741186776" x2="360" y2="317.42112741186776" fill="none" stroke="#6495ED" stroke-width="2" stroke-dasharray="10 10" stroke-dashoffset="269.99999999999994" /><line x1="360" y1="317.42112741186776" x2="390" y2="317.42112741186776" fill="none" stroke="#6495ED" stroke-width="2" stroke-dasharray="10 10" stroke-dashoffset="300" /><line x1="390" y1="317.42112741186776" x2="420" y2="317.42112741186776" fill="none" stroke="#6495ED" stroke-width="2" stroke-dasharray="10 10" stroke-dashoffset="330" /><line x1="420" y1="317.42112741186776" x2="450" y2="317.42112741186776" fill="none" stroke="#6495ED" stroke-width="2" stroke-dasharray="10 10" stroke-dashoffset="360" /><line x1="450" y1="317.42112741186776" x2="479.99999999999994" y2="317.42112741186776" fill="none" stroke="#6495ED" stroke-width="2" stroke-dasharray="10 10" stroke-dashoffset="390" /><line x1="479.99999999999994" y1="317.42112741186776" x2="510" y2="317.42112741186776" fill="none" stroke="#6495ED" stroke-width="2" stroke-dasharray="10 10" stroke-dashoffset="419.99999999999994" /><line x1="510" y1="317.42112741186776" x2="540" y2="317.42112741186776" fill="none" stroke="#6495ED" stroke-width="2" stroke-dasharray="10 10" stroke-dashoffset="450" /><line x1="540" y1="317.42112741186776" x2="570" y2="317.42112741186776" fill="none" stroke="#6495ED" stroke-width="2" stroke-dasharray="10 10" stroke-dashoffset="480" /><line x1="570" y1="317.42112741186776" x2="599.9999999999999" y2="317.42112741186776" fill="none" stroke="#6495ED" stroke-width="2" stroke-dasharray="10 10" stroke-dashoffset="510" /><line x1="599.9999999999999" y1="317.42112741186776" x2="630" y2="317.42112741186776" fill="none" stroke="#6495ED" stroke-width="2" stroke-dasharray="10 10" stroke-dashoffset="539.9999999999999" /></g><g style="stroke-opacity:1" class="linegroup"><line x1="60" y1="98.14932590557629" x2="90" y2="98.14932590557629" fill="none" stroke="#6495ED" stroke-width="2" stroke-dasharray="10 10" stroke-dashoffset="0" /><line x1="90" y1="98.14932590557629" x2="120" y2="98.14932590557629" fill="none" stroke="#6495ED" stroke-width="2" stroke-dasharray="10 10" stroke-dashoffset="30" /><line x1="120" y1="98.14932590557629" x2="150" y2="98.14932590557629" fill="none" stroke="#6495ED" stroke-width="2" stroke-dasharray="10 10" stroke-dashoffset="60" /><line x1="150" y1="98.14932590557629" x2="180" y2="98.14932590557629" fill="none" stroke="#6495ED" stroke-width="2" stroke-dasharray="10 10" stroke-dashoffset="90" /><line x1="180" y1="98.14932590557629" x2="210" y2="98.14932590557629" fill="none" stroke="#6495ED" stroke-width="2" stroke-dasharray="10 10" stroke-dashoffset="120" /><line x1="210" y1="98.14932590557629" x2="240" y2="98.14932590557629" fill="none" stroke="#6495ED" stroke-width="2" stroke-dasharray="10 10" stroke-dashoffset="150" /><line x1="240" y1="98.14932590557629" x2="270" y2="98.14932590557629" fill="none" stroke="#6495ED" stroke-width="2" stroke-dasharray="10 10" stroke-dashoffset="180" /><line x1="270" y1="98.14932590557629" x2="300" y2="98.14932590557629" fill="none" stroke="#6495ED" stroke-width="2" stroke-dasharray="10 10" stroke-dashoffset="210" /><line x1="300" y1="98.14932590557629" x2="329.99999999999994" y2="98.14932590557629" fill="none" stroke="#6495ED" stroke-width="2" stroke-dasharray="10 10" stroke-dashoffset="240" /><line x1="329.99999999999994" y1="98.14932590557629" x2="360" y2="98.14932590557629" fill="none" stroke="#6495ED" stroke-width="2" stroke-dasharray="10 10" stroke-dashoffset="269.99999999999994" /><line x1="360" y1="98.14932590557629" x2="390" y2="98.14932590557629" fill="none" stroke="#6495ED" stroke-width="2" stroke-dasharray="10 10" stroke-dashoffset="300" /><line x1="390" y1="98.14932590557629" x2="420" y2="98.14932590557629" fill="none" stroke="#6495ED" stroke-width="2" stroke-dasharray="10 10" stroke-dashoffset="330" /><line x1="420" y1="98.14932590557629" x2="450" y2="98.14932590557629" fill="none" stroke="#6495ED" stroke-width="2" stroke-dasharray="10 10" stroke-dashoffset="360" /><line x1="450" y1="98.14932590557629" x2="479.99999999999994" y2="98.14932590557629" fill="none" stroke="#6495ED" stroke-width="2" stroke-dasharray="10 10" stroke-dashoffset="390" /><line x1="479.99999999999994" y1="98.14932590557629" x2="510" y2="98.14932590557629" fill="none" stroke="#6495ED" stroke-width="2" stroke-dasharray="10 10" stroke-dashoffset="419.99999999999994" /><line x1="510" y1="98.14932590557629" x2="540" y2="98.14932590557629" fill="none" stroke="#6495ED" stroke-width="2" stroke-dasharray="10 10" stroke-dashoffset="450" /><line x1="540" y1="98.14932590557629" x2="570" y2="98.14932590557629" fill="none" stroke="#6495ED" stroke-width="2" stroke-dasharray="10 10" stroke-dashoffset="480" /><line x1="570" y1="98.14932590557629" x2="599.9999999999999" y2="98.14932590557629" fill="none" stroke="#6495ED" stroke-width="2" stroke-dasharray="10 10" stroke-dashoffset="510" /><line x1="599.9999999999999" y1="98.14932590557629" x2="630" y2="98.14932590557629" fill="none" stroke="#6495ED" stroke-width="2" stroke-dasharray="10 10" stroke-dashoffset="539.9999999999999" /></g><g style="stroke-opacity:1" class="linegroup"><line x1="60" y1="311.2403204882944" x2="90" y2="311.2403204882944" fill="none" stroke="#6495ED" stroke-width="2" stroke-dasharray="2 5" stroke-dashoffset="0" /><line x1="90" y1="311.2403204882944" x2="120" y2="311.2403204882944" fill="none" stroke="#6495ED" stroke-width="2" stroke-dasharray="2 5" stroke-dashoffset="30" /><line x1="120" y1="311.2403204882944" x2="150" y2="311.2403204882944" fill="none" stroke="#6495ED" stroke-width="2" stroke-dasharray="2 5" stroke-dashoffset="60" /><line x1="150" y1="311.2403204882944" x2="180" y2="311.2403204882944" fill="none" stroke="#6495ED" stroke-width="2" stroke-dasharray="2 5" stroke-dashoffset="90" /><line x1="180" y1="311.2403204882944" x2="210" y2="311.2403204882944" fill="none" stroke="#6495ED" stroke-width="2" stroke-dasharray="2 5" stroke-dashoffset="120" /><line x1="210" y1="311.2403204882944" x2="240" y2="311.2403204882944" fill="none" stroke="#6495ED" stroke-width="2" stroke-dasharray="2 5" stroke-dashoffset="150" /><line x1="240" y1="311.2403204882944" x2="270" y2="311.2403204882944" fill="none" stroke="#6495ED" stroke-width="2" stroke-dasharray="2 5" stroke-dashoffset="180" /><line x1="270" y1="311.2403204882944" x2="300" y2="311.2403204882944" fill="none" stroke="#6495ED" stroke-width="2" stroke-dasharray="2 5" stroke-dashoffset="210" /><line x1="300" y1="311.2403204882944" x2="329.99999999999994" y2="311.2403204882944" fill="none" stroke="#6495ED" stroke-width="2" stroke-dasharray="2 5" stroke-dashoffset="240" /><line x1="329.99999999999994" y1="311.2403204882944" x2="360" y2="311.2403204882944" fill="none" stroke="#6495ED" stroke-width="2" stroke-dasharray="2 5" stroke-dashoffset="269.99999999999994" /><line x1="360" y1="311.2403204882944" x2="390" y2="311.2403204882944" fill="none" stroke="#6495ED" stroke-width="2" stroke-dasharray="2 5" stroke-dashoffset="300" /><line x1="390" y1="311.2403204882944" x2="420" y2="311.2403204882944" fill="none" stroke="#6495ED" stroke-width="2" stroke-dasharray="2 5" stroke-dashoffset="330" /><line x1="420" y1="311.2403204882944" x2="450" y2="311.2403204882944" fill="none" stroke="#6495ED" stroke-width="2" stroke-dasharray="2 5" stroke-dashoffset="360" /><line x1="450" y1="311.2403204882944" x2="479.99999999999994" y2="311.2403204882944" fill="none" stroke="#6495ED" stroke-width="2" stroke-dasharray="2 5" stroke-dashoffset="390" /><line x1="479.99999999999994" y1="311.2403204882944" x2="510" y2="311.2403204882944" fill="none" stroke="#6495ED" stroke-width="2" stroke-dasharray="2 5" stroke-dashoffset="419.99999999999994" /><line x1="510" y1="311.2403204882944" x2="540" y2="311.2403204882944" fill="none" stroke="#6495ED" stroke-width="2" stroke-dasharray="2 5" stroke-dashoffset="450" /><line x1="540" y1="311.2403204882944" x2="570" y2="311.2403204882944" fill="none" stroke="#6495ED" stroke-width="2" stroke-dasharray="2 5" stroke-dashoffset="480" /><line x1="570" y1="311.2403204882944" x2="599.9999999999999" y2="311.2403204882944" fill="none" stroke="#6495ED" stroke-width="2" stroke-dasharray="2 5" stroke-dashoffset="510" /><line x1="599.9999999999999" y1="311.2403204882944" x2="630" y2="311.2403204882944" fill="none" stroke="#6495ED" stroke-width="2" stroke-dasharray="2 5" stroke-dashoffset="539.9999999999999" /></g><g style="stroke-opacity:1" class="linegroup"><line x1="60" y1="179.19236448031035" x2="90" y2="179.19236448031035" fill="none" stroke="#6495ED" stroke-width="2" stroke-dasharray="2 5" stroke-dashoffset="0" /><line x1="90" y1="179.19236448031035" x2="120" y2="179.19236448031035" fill="none" stroke="#6495ED" stroke-width="2" stroke-dasharray="2 5" stroke-dashoffset="30" /><line x1="120" y1="179.19236448031035" x2="150" y2="179.19236448031035" fill="none" stroke="#6495ED" stroke-width="2" stroke-dasharray="2 5" stroke-dashoffset="60" /><line x1="150" y1="179.19236448031035" x2="180" y2="179.19236448031035" fill="none" stroke="#6495ED" stroke-width="2" stroke-dasharray="2 5" stroke-dashoffset="90" /><line x1="180" y1="179.19236448031035" x2="210" y2="179.19236448031035" fill="none" stroke="#6495ED" stroke-width="2" stroke-dasharray="2 5" stroke-dashoffset="120" /><line x1="210" y1="179.19236448031035" x2="240" y2="179.19236448031035" fill="none" stroke="#6495ED" stroke-width="2" stroke-dasharray="2 5" stroke-dashoffset="150" /><line x1="240" y1="179.19236448031035" x2="270" y2="179.19236448031035" fill="none" stroke="#6495ED" stroke-width="2" stroke-dasharray="2 5" stroke-dashoffset="180" /><line x1="270" y1="179.19236448031035" x2="300" y2="179.19236448031035" fill="none" stroke="#6495ED" stroke-width="2" stroke-dasharray="2 5" stroke-dashoffset="210" /><line x1="300" y1="179.19236448031035" x2="329.99999999999994" y2="179.19236448031035" fill="none" stroke="#6495ED" stroke-width="2" stroke-dasharray="2 5" stroke-dashoffset="240" /><line x1="329.99999999999994" y1="179.19236448031035" x2="360" y2="179.19236448031035" fill="none" stroke="#6495ED" stroke-width="2" stroke-dasharray="2 5" stroke-dashoffset="269.99999999999994" /><line x1="360" y1="179.19236448031035" x2="390" y2="179.19236448031035" fill="none" stroke="#6495ED" stroke-width="2" stroke-dasharray="2 5" stroke-dashoffset="300" /><line x1="390" y1="179.19236448031035" x2="420" y2="179.19236448031035" fill="none" stroke="#6495ED" stroke-width="2" stroke-dasharray="2 5" stroke-dashoffset="330" /><line x1="420" y1="179.19236448031035" x2="450" y2="179.19236448031035" fill="none" stroke="#6495ED" stroke-width="2" stroke-dasharray="2 5" stroke-dashoffset="360" /><line x1="450" y1="179.19236448031035" x2="479.99999999999994" y2="179.19236448031035" fill="none" stroke="#6495ED" stroke-width="2" stroke-dasharray="2 5" stroke-dashoffset="390" /><line x1="479.99999999999994" y1="179.19236448031035" x2="510" y2="179.19236448031035" fill="none" stroke="#6495ED" stroke-width="2" stroke-dasharray="2 5" stroke-dashoffset="419.99999999999994" /><line x1="510" y1="179.19236448031035" x2="540" y2="179.19236448031035" fill="none" stroke="#6495ED" stroke-width="2" stroke-dasharray="2 5" stroke-dashoffset="450" /><line x1="540" y1="179.19236448031035" x2="570" y2="179.19236448031035" fill="none" stroke="#6495ED" stroke-width="2" stroke-dasharray="2 5" stroke-dashoffset="480" /><line x1="570" y1="179.19236448031035" x2="599.9999999999999" y2="179.19236448031035" fill="none" stroke="#6495ED" stroke-width="2" stroke-dasharray="2 5" stroke-dashoffset="510" /><line x1="599.9999999999999" y1="179.19236448031035" x2="630" y2="179.19236448031035" fill="none" stroke="#6495ED" stroke-width="2" stroke-dasharray="2 5" stroke-dashoffset="539.9999999999999" /></g><text x="630" y="318.1493259055763" fill="#000000" font-size="10px" font-family="'Arial', sans-serif" text-anchor="start" dx="10px" dy="0px" /><text x="630" y="274.44797771672893" fill="#000000" font-size="10px" font-family="'Arial', sans-serif" text-anchor="start" dx="10px" dy="0px" /><text x="630" y="317.42112741186776" fill="#000000" font-size="10px" font-family="'Arial', sans-serif" text-anchor="start" dx="10px" dy="0px" /><text x="630" y="98.14932590557629" fill="#000000" font-size="10px" font-family="'Arial', sans-serif" text-anchor="start" dx="10px" dy="0px" /><text x="630" y="311.2403204882944" fill="#000000" font-size="10px" font-family="'Arial', sans-serif" text-anchor="start" dx="10px" dy="0px" /><text x="630" y="179.19236448031035" fill="#000000" font-size="10px" font-family="'Arial', sans-serif" text-anchor="start" dx="10px" dy="0px" /></g><g class="dotsgroup"><path style="fill:#A6A6A6;stroke:#A6A6A6;stroke-width:1;fill-opacity:1;stroke-opacity:1" d="M2.5,0A2.5,2.5,0,1,1,-2.5,0A2.5,2.5,0,1,1,2.5,0" transform="translate(60, 280.4600120598936)" /><path style="fill:#A6A6A6;stroke:#A6A6A6;stroke-width:1;fill-opacity:1;stroke-opacity:1" d="M2.5,0A2.5,2.5,0,1,1,-2.5,0A2.5,2.5,0,1,1,2.5,0" transform="translate(90, 132.593588320405)" /><path style="fill:#A6A6A6;stroke:#A6A6A6;stroke-width:1;fill-opacity:1;stroke-opacity:1" d="M2.5,0A2.5,2.5,0,1,1,-2.5,0A2.5,2.5,0,1,1,2.5,0" transform="translate(120, 284.93616746011463)" /><path style="fill:#A6A6A6;stroke:#A6A6A6;stroke-width:1;fill-opacity:1;stroke-opacity:1" d="M2.5,0A2.5,2.5,0,1,1,-2.5,0A2.5,2.5,0,1,1,2.5,0" transform="translate(150, 291.2698900072492)" /><path style="fill:#A6A6A6;stroke:#A6A6A6;stroke-width:1;fill-opacity:1;stroke-opacity:1" d="M2.5,0A2.5,2.5,0,1,1,-2.5,0A2.5,2.5,0,1,1,2.5,0" transform="translate(180, 232.0708147326862)" /><path style="fill:#A6A6A6;stroke:#A6A6A6;stroke-width:1;fill-opacity:1;stroke-opacity:1" d="M2.5,0A2.5,2.5,0,1,1,-2.5,0A2.5,2.5,0,1,1,2.5,0" transform="translate(210, 277.88441811691655)" /><path style="fill:#A6A6A6;stroke:#A6A6A6;stroke-width:1;fill-opacity:1;stroke-opacity:1" d="M2.5,0A2.5,2.5,0,1,1,-2.5,0A2.5,2.5,0,1,1,2.5,0" transform="translate(240, 301.8889738111631)" /><path style="fill:#A6A6A6;stroke:#A6A6A6;stroke-width:1;fill-opacity:1;stroke-opacity:1" d="M2.5,0A2.5,2.5,0,1,1,-2.5,0A2.5,2.5,0,1,1,2.5,0" transform="translate(270, 304.28398990750713)" /><path style="fill:#A6A6A6;stroke:#A6A6A6;stroke-width:1;fill-opacity:1;stroke-opacity:1" d="M2.5,0A2.5,2.5,0,1,1,-2.5,0A2.5,2.5,0,1,1,2.5,0" transform="translate(300, 265.5644555693533)" /><path style="fill:#A6A6A6;stroke:#A6A6A6;stroke-width:1;fill-opacity:1;stroke-opacity:1" d="M2.5,0A2.5,2.5,0,1,1,-2.5,0A2.5,2.5,0,1,1,2.5,0" transform="translate(329.99999999999994, 269.115890615759)" /><path style="fill:#A6A6A6;stroke:#A6A6A6;stroke-width:1;fill-opacity:1;stroke-opacity:1" d="M2.5,0A2.5,2.5,0,1,1,-2.5,0A2.5,2.5,0,1,1,2.5,0" transform="translate(360, 262.44257114033206)" /><path style="fill:#A6A6A6;stroke:#A6A6A6;stroke-width:1;fill-opacity:1;stroke-opacity:1" d="M2.5,0A2.5,2.5,0,1,1,-2.5,0A2.5,2.5,0,1,1,2.5,0" transform="translate(390, 266.3619881009386)" /><path style="fill:#A6A6A6;stroke:#A6A6A6;stroke-width:1;fill-opacity:1;stroke-opacity:1" d="M2.5,0A2.5,2.5,0,1,1,-2.5,0A2.5,2.5,0,1,1,2.5,0" transform="translate(420, 224.26767070664053)" /><path style="fill:#A6A6A6;stroke:#A6A6A6;stroke-width:1;fill-opacity:1;stroke-opacity:1" d="M2.5,0A2.5,2.5,0,1,1,-2.5,0A2.5,2.5,0,1,1,2.5,0" transform="translate(450, 242.00680395205504)" /><path style="fill:#A6A6A6;stroke:#A6A6A6;stroke-width:1;fill-opacity:1;stroke-opacity:1" d="M2.5,0A2.5,2.5,0,1,1,-2.5,0A2.5,2.5,0,1,1,2.5,0" transform="translate(479.99999999999994, 263.8982806924673)" /><path style="fill:#A6A6A6;stroke:#A6A6A6;stroke-width:1;fill-opacity:1;stroke-opacity:1" d="M2.5,0A2.5,2.5,0,1,1,-2.5,0A2.5,2.5,0,1,1,2.5,0" transform="translate(510, 247.29867920710333)" /><path style="fill:#A6A6A6;stroke:#A6A6A6;stroke-width:1;fill-opacity:1;stroke-opacity:1" d="M2.5,0A2.5,2.5,0,1,1,-2.5,0A2.5,2.5,0,1,1,2.5,0" transform="translate(540, 238.9520709287917)" /><path style="fill:#A6A6A6;stroke:#A6A6A6;stroke-width:1;fill-opacity:1;stroke-opacity:1" d="M2.5,0A2.5,2.5,0,1,1,-2.5,0A2.5,2.5,0,1,1,2.5,0" transform="translate(570, 304.8996489723421)" /><path style="fill:#A6A6A6;stroke:#A6A6A6;stroke-width:1;fill-opacity:1;stroke-opacity:1" d="M2.5,0A2.5,2.5,0,1,1,-2.5,0A2.5,2.5,0,1,1,2.5,0" transform="translate(599.9999999999999, 281.9929356221768)" /><path style="fill:#A6A6A6;stroke:#A6A6A6;stroke-width:1;fill-opacity:1;stroke-opacity:1" d="M2.5,0A2.5,2.5,0,1,1,-2.5,0A2.5,2.5,0,1,1,2.5,0" transform="translate(630, 318.1493259055763)" /></g></svg>