<svg viewBox="0 0 640 400" width="640px" height="400px" xmlns="http://www.w3.org/2000/svg"><rect x="0" y="0" width="100%" height="100%" fill="white"/><line style="stroke-opacity:0" class="ttip-line-x" x1="0" x2="0" y1="10" y2="340" stroke-width="1px" stroke="black" /><line style="stroke-opacity:0" class="ttip-line-y" x1="60" x2="630" y1="0" y2="0" stroke-width="1px" stroke="black" /><g class="xaxisgroup" fill="none" font-size="10" font-family="sans-serif" text-anchor="middle" color="#000000" transform="translate(0, 340)"><path class="domain" stroke="currentColor" d="M60.5,6V0.5H630.5V6" /><g class="tick" opacity="1" transform="translate(60.5,0)"><line stroke="currentColor" y2="6" /><text style="text-anchor:end;font-size:10px;font-family:'Arial', sans-serif;fill:#000000" fill="currentColor" y="9" dy="-.15em" dx="-.8em" transform="rotate(-35)"> 01/01/2024</text></g><g class="tick" opacity="1" transform="translate(110.06521739130434,0)"><line stroke="currentColor" y2="6" /><text style="text-anchor:end;font-size:10px;font-family:'Arial', sans-serif;fill:#000000" fill="currentColor" y="9" dy="-.15em" dx="-.8em" transform="rotate(-35)"> 01/03/2024</text></g><g class="tick" opacity="1" transform="translate(159.6304347826087,0)"><line stroke="currentColor" y2="6" /><text style="text-anchor:end;font-size:10px;font-family:'Arial', sans-serif;fill:#000000" fill="currentColor" y="9" dy="-.15em" dx="-.8em" transform="rotate(-35)"> 01/05/2024</text></g><g class="tick" opacity="1" transform="translate(209.19565217391306,0)"><line stroke="currentColor" y2="6" /><text style="text-anchor:end;font-size:10px;font-family:'Arial', sans-serif;fill:#000000" fill="currentColor" y="9" dy="-.15em" dx="-.8em" transform="rotate(-35)"> 01/07/2024</text></g><g class="tick" opacity="1" transform="translate(258.7608695652174,0)"><line stroke="currentColor" y2="6" /><text style="text-anchor:end;font-size:10px;font-family:'Arial', sans-serif;fill:#000000" fill="currentColor" y="9" dy="-.15em" dx="-.8em" transform="rotate(-35)"> 01/09/2024</text></g><g class="tick" opacity="1" transform="translate(308.32608695652175,0)"><line stroke="currentColor" y2="6" /><text style="text-anchor:end;font-size:10px;font-family:'Arial', sans-serif;fill:#000000" fill="currentColor" y="9" dy="-.15em" dx="-.8em" transform="rotate(-35)"> 01/11/2024</text></g><g class="tick" opacity="1" transform="translate(357.8913043478261,0)"><line stroke="currentColor" y2="6" /><text style="text-anchor:end;font-size:10px;font-family:'Arial', sans-serif;fill:#000000" fill="currentColor" y="9" dy="-.15em" dx="-.8em" transform="rotate(-35)"> 01/01/2025</text></g><g class="tick" opacity="1" transform="translate(407.45652173913044,0)"><line stroke="currentColor" y2="6" /><text style="text-anchor:end;font-size:10px;font-family:'Arial', sans-serif;fill:#000000" fill="currentColor" y="9" dy="-.15em" dx="-.8em" transform="rotate(-35)"> 01/03/2025</text></g><g class="tick" opacity="1" transform="translate(457.02173913043475,0)"><line stroke="currentColor" y2="6" /><text style="text-anchor:end;font-size:10px;font-family:'Arial', sans-serif;fill:#000000" fill="currentColor" y="9" dy="-.15em" dx="-.8em" transform="rotate(-35)"> 01/05/2025</text></g><g class="tick" opacity="1" transform="translate(506.5869565217391,0)"><line stroke="currentColor" y2="6" /><text style="text-anchor:end;font-size:10px;font-family:'Arial', sans-serif;fill:#000000" fill="currentColor" y="9" dy="-.15em" dx="-.8em" transform="rotate(-35)"> 01/07/2025</text></g><g class="tick" opacity="1" transform="translate(556.1521739130435,0)"><line stroke="currentColor" y2="6" /><text style="text-anchor:end;font-size:10px;font-family:'Arial', sans-serif;fill:#000000" fill="currentColor" y="9" dy="-.15em" dx="-.8em" transform="rotate(-35)"> 01/09/2025</text></g><g class="tick" opacity="1" transform="translate(605.7173913043478,0)"><line stroke="currentColor" y2="6" /><text style="text-anchor:end;font-size:10px;font-family:'Arial', sans-serif;fill:#000000" fill="currentColor" y="9" dy="-.15em" dx="-.8em" transform="rotate(-35)"> 01/11/2025</text></g></g><text style="text-anchor:middle;font-size:10px;font-family:'Arial', sans-serif;fill:#000000" class="xaxislabel" x="320" y="380" /><g class="yaxisgroup" fill="none" font-size="10" font-family="sans-serif" text-anchor="end" color="#000000" transform="translate(60, 0)"><path class="domain" stroke="currentColor" d="M-6,340.5H0.5V10.5H-6" /><g class="tick" opacity="1" transform="translate(0,317.4953140832534)"><line stroke="currentColor" x2="-6" /><text style="text-anchor:right;font-size:10px;font-family:'Arial', sans-serif;fill:#000000" fill="currentColor" x="-9" dy="0.32em" transform="rotate(0)">82.00</text></g><g class="tick" opacity="1" transform="translate(0,282.5570661600714)"><line stroke="currentColor" x2="-6" /><text style="text-anchor:right;font-size:10px;font-family:'Arial', sans-serif;fill:#000000" fill="currentColor" x="-9" dy="0.32em" transform="rotate(0)">84.00</text></g><g class="tick" opacity="1" transform="translate(0,247.6188182368894)"><line stroke="currentColor" x2="-6" /><text style="text-anchor:right;font-size:10px;font-family:'Arial', sans-serif;fill:#000000" fill="currentColor" x="-9" dy="0.32em" transform="rotate(0)">86.00</text></g><g class="tick" opacity="1" transform="translate(0,212.68057031370742)"><line stroke="currentColor" x2="-6" /><text style="text-anchor:right;font-size:10px;font-family:'Arial', sans-serif;fill:#000000" fill="currentColor" x="-9" dy="0.32em" transform="rotate(0)">88.00</text></g><g class="tick" opacity="1" transform="translate(0,177.7423223905254)"><line stroke="currentColor" x2="-6" /><text style="text-anchor:right;font-size:10px;font-family:'Arial', sans-serif;fill:#000000" fill="currentColor" x="-9" dy="0.32em" transform="rotate(0)">90.00</text></g><g class="tick" opacity="1" transform="translate(0,142.80407446734338)"><line stroke="currentColor" x2="-6" /><text style="text-anchor:right;font-size:10px;font-family:'Arial', sans-serif;fill:#000000" fill="currentColor" x="-9" dy="0.32em" transform="rotate(0)">92.00</text></g><g class="tick" opacity="1" transform="translate(0,107.86582654416138)"><line stroke="currentColor" x2="-6" /><text style="text-anchor:right;font-size:10px;font-family:'Arial', sans-serif;fill:#000000" fill="currentColor" x="-9" dy="0.32em" transform="rotate(0)">94.00</text></g><g class="tick" opacity="1" transform="translate(0,72.92757862097938)"><line stroke="currentColor" x2="-6" /><text style="text-anchor:right;font-size:10px;font-family:'Arial', sans-serif;fill:#000000" fill="currentColor" x="-9" dy="0.32em" transform="rotate(0)">96.00</text></g><g class="tick" opacity="1" transform="translate(0,37.98933069779738)"><line stroke="currentColor" x2="-6" /><text style="text-anchor:right;font-size:10px;font-family:'Arial', sans-serif;fill:#000000" fill="currentColor" x="-9" dy="0.32em" transform="rotate(0)">98.00</text></g></g><text style="text-anchor:middle;font-size:10px;font-family:'Arial', sans-serif;fill:#000000" class="yaxislabel" x="30" y="200" transform="rotate(-90, 30, 200)" /><g class="linesgroup"><g style="stroke-opacity:1" class="linegroup"><line x1="60" y1="160.57417145154724" x2="84.78260869565217" y2="137.56922888685392" fill="none" stroke="#A6A6A6" stroke-width="1" stroke-dasharray="10 0" stroke-dashoffset="0" /><line x1="84.78260869565217" y1="137.56922888685392" x2="109.56521739130434" y2="254.60198496843654" fill="none" stroke="#A6A6A6" stroke-width="1" stroke-dasharray="10 0" stroke-dashoffset="24.782608695652172" /><line x1="109.56521739130434" y1="254.60198496843654" x2="134.34782608695653" y2="216.59825359930616" fill="none" stroke="#A6A6A6" stroke-width="1" stroke-dasharray="10 0" stroke-dashoffset="49.565217391304344" /><line x1="134.34782608695653" y1="216.59825359930616" x2="159.1304347826087" y2="152.57072215438924" fill="none" stroke="#A6A6A6" stroke-width="1" stroke-dasharray="10 0" stroke-dashoffset="74.34782608695653" /><line x1="159.1304347826087" y1="152.57072215438924" x2="183.91304347826087" y2="163.40805931009305" fill="none" stroke="#A6A6A6" stroke-width="1" stroke-dasharray="10 0" stroke-dashoffset="99.13043478260869" /><line x1="183.91304347826087" y1="163.40805931009305" x2="208.69565217391306" y2="196.76315628092607" fill="none" stroke="#A6A6A6" stroke-width="1" stroke-dasharray="10 0" stroke-dashoffset="123.91304347826087" /><line x1="208.69565217391306" y1="196.76315628092607" x2="233.47826086956525" y2="243.56444759823674" fill="none" stroke="#A6A6A6" stroke-width="1" stroke-dasharray="10 0" stroke-dashoffset="148.69565217391306" /><line x1="233.47826086956525" y1="243.56444759823674" x2="258.2608695652174" y2="126.43668394804165" fill="none" stroke="#A6A6A6" stroke-width="1" stroke-dasharray="10 0" stroke-dashoffset="173.47826086956525" /><line x1="258.2608695652174" y1="126.43668394804165" x2="283.04347826086956" y2="128.21943057079596" fill="none" stroke="#A6A6A6" stroke-width="1" stroke-dasharray="10 0" stroke-dashoffset="198.26086956521738" /><line x1="283.04347826086956" y1="128.21943057079596" x2="307.82608695652175" y2="221.1075031494763" fill="none" stroke="#A6A6A6" stroke-width="1" stroke-dasharray="10 0" stroke-dashoffset="223.04347826086956" /><line x1="307.82608695652175" y1="221.1075031494763" x2="332.6086956521739" y2="186.0661931965628" fill="none" stroke="#A6A6A6" stroke-width="1" stroke-dasharray="10 0" stroke-dashoffset="247.82608695652175" /><line x1="332.6086956521739" y1="186.0661931965628" x2="357.3913043478261" y2="173.285870586612" fill="none" stroke="#A6A6A6" stroke-width="1" stroke-dasharray="10 0" stroke-dashoffset="272.6086956521739" /><line x1="357.3913043478261" y1="173.285870586612" x2="382.17391304347825" y2="152.64365454586294" fill="none" stroke="#A6A6A6" stroke-width="1" stroke-dasharray="10 0" stroke-dashoffset="297.3913043478261" /><line x1="382.17391304347825" y1="152.64365454586294" x2="406.95652173913044" y2="129.6268933150252" fill="none" stroke="#A6A6A6" stroke-width="1" stroke-dasharray="10 0" stroke-dashoffset="322.17391304347825" /><line x1="406.95652173913044" y1="129.6268933150252" x2="431.7391304347826" y2="88.47962755281273" fill="none" stroke="#A6A6A6" stroke-width="1" stroke-dasharray="10 0" stroke-dashoffset="346.95652173913044" /><line x1="431.7391304347826" y1="88.47962755281273" x2="456.52173913043475" y2="170.23088403945513" fill="none" stroke="#A6A6A6" stroke-width="1" stroke-dasharray="10 0" stroke-dashoffset="371.7391304347826" /><line x1="456.52173913043475" y1="170.23088403945513" x2="481.30434782608694" y2="188.0018404661213" fill="none" stroke="#A6A6A6" stroke-width="1" stroke-dasharray="10 0" stroke-dashoffset="396.52173913043475" /><line x1="481.30434782608694" y1="188.0018404661213" x2="506.0869565217391" y2="195.17268655035582" fill="none" stroke="#A6A6A6" stroke-width="1" stroke-dasharray="10 0" stroke-dashoffset="421.30434782608694" /><line x1="506.0869565217391" y1="195.17268655035582" x2="530.8695652173913" y2="223.9164271437292" fill="none" stroke="#A6A6A6" stroke-width="1" stroke-dasharray="10 0" stroke-dashoffset="446.0869565217391" /><line x1="530.8695652173913" y1="223.9164271437292" x2="555.6521739130435" y2="146.3805930399914" fill="none" stroke="#A6A6A6" stroke-width="1" stroke-dasharray="10 0" stroke-dashoffset="470.86956521739125" /><line x1="555.6521739130435" y1="146.3805930399914" x2="580.4347826086956" y2="146.10346305407876" fill="none" stroke="#A6A6A6" stroke-width="1" stroke-dasharray="10 0" stroke-dashoffset="495.6521739130435" /><line x1="580.4347826086956" y1="146.10346305407876" x2="605.2173913043478" y2="192.03367057024977" fill="none" stroke="#A6A6A6" stroke-width="1" stroke-dasharray="10 0" stroke-dashoffset="520.4347826086956" /><line x1="605.2173913043478" y1="192.03367057024977" x2="630" y2="206.64455402104645" fill="none" stroke="#A6A6A6" stroke-width="1" stroke-dasharray="10 0" stroke-dashoffset="545.2173913043478" /></g><g style="stroke-opacity:1" class="linegroup"><line x1="60" y1="175" x2="84.78260869565217" y2="175" fill="none" stroke="#000000" stroke-width="1.5" stroke-dasharray="10 0" stroke-dashoffset="0" /><line x1="84.78260869565217" y1="175" x2="109.56521739130434" y2="175" fill="none" stroke="#000000" stroke-width="1.5" stroke-dasharray="10 0" stroke-dashoffset="24.782608695652172" /><line x1="109.56521739130434" y1="175" x2="134.34782608695653" y2="175" fill="none" stroke="#000000" stroke-width="1.5" stroke-dasharray="10 0" stroke-dashoffset="49.565217391304344" /><line x1="134.34782608695653" y1="175" x2="159.1304347826087" y2="175" fill="none" stroke="#000000" stroke-width="1.5" stroke-dasharray="10 0" stroke-dashoffset="74.34782608695653" /><line x1="159.1304347826087" y1="175" x2="183.91304347826087" y2="175" fill="none" stroke="#000000" stroke-width="1.5" stroke-dasharray="10 0" stroke-dashoffset="99.13043478260869" /><line x1="183.91304347826087" y1="175" x2="208.69565217391306" y2="175" fill="none" stroke="#000000" stroke-width="1.5" stroke-dasharray="10 0" stroke-dashoffset="123.91304347826087" /><line x1="208.69565217391306" y1="175" x2="233.47826086956525" y2="175" fill="none" stroke="#000000" stroke-width="1.5" stroke-dasharray="10 0" stroke-dashoffset="148.69565217391306" /><line x1="233.47826086956525" y1="175" x2="258.2608695652174" y2="175" fill="none" stroke="#000000" stroke-width="1.5" stroke-dasharray="10 0" stroke-dashoffset="173.47826086956525" /><line x1="258.2608695652174" y1="175" x2="283.04347826086956" y2="175" fill="none" stroke="#000000" stroke-width="1.5" stroke-dasharray="10 0" stroke-dashoffset="198.26086956521738" /><line x1="283.04347826086956" y1="175" x2="307.82608695652175" y2="175" fill="none" stroke="#000000" stroke-width="1.5" stroke-dasharray="10 0" stroke-dashoffset="223.04347826086956" /><line x1="307.82608695652175" y1="175" x2="332.6086956521739" y2="175" fill="none" stroke="#000000" stroke-width="1.5" stroke-dasharray="10 0" stroke-dashoffset="247.82608695652175" /><line x1="332.6086956521739" y1="175" x2="357.3913043478261" y2="175" fill="none" stroke="#000000" stroke-width="1.5" stroke-dasharray="10 0" stroke-dashoffset="272.6086956521739" /><line x1="357.3913043478261" y1="175" x2="382.17391304347825" y2="175" fill="none" stroke="#000000" stroke-width="1.5" stroke-dasharray="10 0" stroke-dashoffset="297.3913043478261" /><line x1="382.17391304347825" y1="175" x2="406.95652173913044" y2="175" fill="none" stroke="#000000" stroke-width="1.5" stroke-dasharray="10 0" stroke-dashoffset="322.17391304347825" /><line x1="406.95652173913044" y1="175" x2="431.7391304347826" y2="175" fill="none" stroke="#000000" stroke-width="1.5" stroke-dasharray="10 0" stroke-dashoffset="346.95652173913044" /><line x1="431.7391304347826" y1="175" x2="456.52173913043475" y2="175" fill="none" stroke="#000000" stroke-width="1.5" stroke-dasharray="10 0" stroke-dashoffset="371.7391304347826" /><line x1="456.52173913043475" y1="175" x2="481.30434782608694" y2="175" fill="none" stroke="#000000" stroke-width="1.5" stroke-dasharray="10 0" stroke-dashoffset="396.52173913043475" /><line x1="481.30434782608694" y1="175" x2="506.0869565217391" y2="175" fill="none" stroke="#000000" stroke-width="1.5" stroke-dasharray="10 0" stroke-dashoffset="421.30434782608694" /><line x1="506.0869565217391" y1="175" x2="530.8695652173913" y2="175" fill="none" stroke="#000000" stroke-width="1.5" stroke-dasharray="10 0" stroke-dashoffset="446.0869565217391" /><line x1="530.8695652173913" y1="175" x2="555.6521739130435" y2="175" fill="none" stroke="#000000" stroke-width="1.5" stroke-dasharray="10 0" stroke-dashoffset="470.86956521739125" /><line x1="555.6521739130435" y1="175" x2="580.4347826086956" y2="175" fill="none" stroke="#000000" stroke-width="1.5" stroke-dasharray="10 0" stroke-dashoffset="495.6521739130435" /><line x1="580.4347826086956" y1="175" x2="605.2173913043478" y2="175" fill="none" stroke="#000000" stroke-width="1.5" stroke-dasharray="10 0" stroke-dashoffset="520.4347826086956" /><line x1="605.2173913043478" y1="175" x2="630" y2="175" fill="none" stroke="#000000" stroke-width="1.5" stroke-dasharray="10 0" stroke-dashoffset="545.2173913043478" /></g><g style="stroke-opacity:1" class="linegroup"><line x1="60" y1="177.2423223905254" x2="84.78260869565217" y2="177.2423223905254" fill="none" stroke="#E69F00" stroke-width="1.5" stroke-dasharray="10 0" stroke-dashoffset="0" /><line x1="84.78260869565217" y1="177.2423223905254" x2="109.56521739130434" y2="177.2423223905254" fill="none" stroke="#E69F00" stroke-width="1.5" stroke-dasharray="10 0" stroke-dashoffset="24.782608695652172" /><line x1="109.56521739130434" y1="177.2423223905254" x2="134.34782608695653" y2="177.2423223905254" fill="none" stroke="#E69F00" stroke-width="1.5" stroke-dasharray="10 0" stroke-dashoffset="49.565217391304344" /><line x1="134.34782608695653" y1="177.2423223905254" x2="159.1304347826087" y2="177.2423223905254" fill="none" stroke="#E69F00" stroke-width="1.5" stroke-dasharray="10 0" stroke-dashoffset="74.34782608695653" /><line x1="159.1304347826087" y1="177.2423223905254" x2="183.91304347826087" y2="177.2423223905254" fill="none" stroke="#E69F00" stroke-width="1.5" stroke-dasharray="10 0" stroke-dashoffset="99.13043478260869" /><line x1="183.91304347826087" y1="177.2423223905254" x2="208.69565217391306" y2="177.2423223905254" fill="none" stroke="#E69F00" stroke-width="1.5" stroke-dasharray="10 0" stroke-dashoffset="123.91304347826087" /><line x1="208.69565217391306" y1="177.2423223905254" x2="233.47826086956525" y2="177.2423223905254" fill="none" stroke="#E69F00" stroke-width="1.5" stroke-dasharray="10 0" stroke-dashoffset="148.69565217391306" /><line x1="233.47826086956525" y1="177.2423223905254" x2="258.2608695652174" y2="177.2423223905254" fill="none" stroke="#E69F00" stroke-width="1.5" stroke-dasharray="10 0" stroke-dashoffset="173.47826086956525" /><line x1="258.2608695652174" y1="177.2423223905254" x2="283.04347826086956" y2="177.2423223905254" fill="none" stroke="#E69F00" stroke-width="1.5" stroke-dasharray="10 0" stroke-dashoffset="198.26086956521738" /><line x1="283.04347826086956" y1="177.2423223905254" x2="307.82608695652175" y2="177.2423223905254" fill="none" stroke="#E69F00" stroke-width="1.5" stroke-dasharray="10 0" stroke-dashoffset="223.04347826086956" /><line x1="307.82608695652175" y1="177.2423223905254" x2="332.6086956521739" y2="177.2423223905254" fill="none" stroke="#E69F00" stroke-width="1.5" stroke-dasharray="10 0" stroke-dashoffset="247.82608695652175" /><line x1="332.6086956521739" y1="177.2423223905254" x2="357.3913043478261" y2="177.2423223905254" fill="none" stroke="#E69F00" stroke-width="1.5" stroke-dasharray="10 0" stroke-dashoffset="272.6086956521739" /><line x1="357.3913043478261" y1="177.2423223905254" x2="382.17391304347825" y2="177.2423223905254" fill="none" stroke="#E69F00" stroke-width="1.5" stroke-dasharray="10 0" stroke-dashoffset="297.3913043478261" /><line x1="382.17391304347825" y1="177.2423223905254" x2="406.95652173913044" y2="177.2423223905254" fill="none" stroke="#E69F00" stroke-width="1.5" stroke-dasharray="10 0" stroke-dashoffset="322.17391304347825" /><line x1="406.95652173913044" y1="177.2423223905254" x2="431.7391304347826" y2="177.2423223905254" fill="none" stroke="#E69F00" stroke-width="1.5" stroke-dasharray="10 0" stroke-dashoffset="346.95652173913044" /><line x1="431.7391304347826" y1="177.2423223905254" x2="456.52173913043475" y2="177.2423223905254" fill="none" stroke="#E69F00" stroke-width="1.5" stroke-dasharray="10 0" stroke-dashoffset="371.7391304347826" /><line x1="456.52173913043475" y1="177.2423223905254" x2="481.30434782608694" y2="177.2423223905254" fill="none" stroke="#E69F00" stroke-width="1.5" stroke-dasharray="10 0" stroke-dashoffset="396.52173913043475" /><line x1="481.30434782608694" y1="177.2423223905254" x2="506.0869565217391" y2="177.2423223905254" fill="none" stroke="#E69F00" stroke-width="1.5" stroke-dasharray="10 0" stroke-dashoffset="421.30434782608694" /><line x1="506.0869565217391" y1="177.2423223905254" x2="530.8695652173913" y2="177.2423223905254" fill="none" stroke="#E69F00" stroke-width="1.5" stroke-dasharray="10 0" stroke-dashoffset="446.0869565217391" /><line x1="530.8695652173913" y1="177.2423223905254" x2="555.6521739130435" y2="177.2423223905254" fill="none" stroke="#E69F00" stroke-width="1.5" stroke-dasharray="10 0" stroke-dashoffset="470.86956521739125" /><line x1="555.6521739130435" y1="177.2423223905254" x2="580.4347826086956" y2="177.2423223905254" fill="none" stroke="#E69F00" stroke-width="1.5" stroke-dasharray="10 0" stroke-dashoffset="495.6521739130435" /><line x1="580.4347826086956" y1="177.2423223905254" x2="605.2173913043478" y2="177.2423223905254" fill="none" stroke="#E69F00" stroke-width="1.5" stroke-dasharray="10 0" stroke-dashoffset="520.4347826086956" /><line x1="605.2173913043478" y1="177.2423223905254" x2="630" y2="177.2423223905254" fill="none" stroke="#E69F00" stroke-width="1.5" stroke-dasharray="10 0" stroke-dashoffset="545.2173913043478" /></g><g style="stroke-opacity:1" class="linegroup"><line x1="60" y1="284.99999999999994" x2="84.78260869565217" y2="284.99999999999994" fill="none" stroke="#6495ED" stroke-width="2" stroke-dasharray="10 10" stroke-dashoffset="0" /><line x1="84.78260869565217" y1="284.99999999999994" x2="109.56521739130434" y2="284.99999999999994" fill="none" stroke="#6495ED" stroke-width="2" stroke-dasharray="10 10" stroke-dashoffset="24.782608695652172" /><line x1="109.56521739130434" y1="284.99999999999994" x2="134.34782608695653" y2="284.99999999999994" fill="none" stroke="#6495ED" stroke-width="2" stroke-dasharray="10 10" stroke-dashoffset="49.565217391304344" /><line x1="134.34782608695653" y1="284.99999999999994" x2="159.1304347826087" y2="284.99999999999994" fill="none" stroke="#6495ED" stroke-width="2" stroke-dasharray="10 10" stroke-dashoffset="74.34782608695653" /><line x1="159.1304347826087" y1="284.99999999999994" x2="183.91304347826087" y2="284.99999999999994" fill="none" stroke="#6495ED" stroke-width="2" stroke-dasharray="10 10" stroke-dashoffset="99.13043478260869" /><line x1="183.91304347826087" y1="284.99999999999994" x2="208.69565217391306" y2="284.99999999999994" fill="none" stroke="#6495ED" stroke-width="2" stroke-dasharray="10 10" stroke-dashoffset="123.91304347826087" /><line x1="208.69565217391306" y1="284.99999999999994" x2="233.47826086956525" y2="284.99999999999994" fill="none" stroke="#6495ED" stroke-width="2" stroke-dasharray="10 10" stroke-dashoffset="148.69565217391306" /><line x1="233.47826086956525" y1="284.99999999999994" x2="258.2608695652174" y2="284.99999999999994" fill="none" stroke="#6495ED" stroke-width="2" stroke-dasharray="10 10" stroke-dashoffset="173.47826086956525" /><line x1="258.2608695652174" y1="284.99999999999994" x2="283.04347826086956" y2="284.99999999999994" fill="none" stroke="#6495ED" stroke-width="2" stroke-dasharray="10 10" stroke-dashoffset="198.26086956521738" /><line x1="283.04347826086956" y1="284.99999999999994" x2="307.82608695652175" y2="284.99999999999994" fill="none" stroke="#6495ED" stroke-width="2" stroke-dasharray="10 10" stroke-dashoffset="223.04347826086956" /><line x1="307.82608695652175" y1="284.99999999999994" x2="332.6086956521739" y2="284.99999999999994" fill="none" stroke="#6495ED" stroke-width="2" stroke-dasharray="10 10" stroke-dashoffset="247.82608695652175" /><line x1="332.6086956521739" y1="284.99999999999994" x2="357.3913043478261" y2="284.99999999999994" fill="none" stroke="#6495ED" stroke-width="2" stroke-dasharray="10 10" stroke-dashoffset="272.6086956521739" /><line x1="357.3913043478261" y1="284.99999999999994" x2="382.17391304347825" y2="284.99999999999994" fill="none" stroke="#6495ED" stroke-width="2" stroke-dasharray="10 10" stroke-dashoffset="297.3913043478261" /><line x1="382.17391304347825" y1="284.99999999999994" x2="406.95652173913044" y2="284.99999999999994" fill="none" stroke="#6495ED" stroke-width="2" stroke-dasharray="10 10" stroke-dashoffset="322.17391304347825" /><line x1="406.95652173913044" y1="284.99999999999994" x2="431.7391304347826" y2="284.99999999999994" fill="none" stroke="#6495ED" stroke-width="2" stroke-dasharray="10 10" stroke-dashoffset="346.95652173913044" /><line x1="431.7391304347826" y1="284.99999999999994" x2="456.52173913043475" y2="284.99999999999994" fill="none" stroke="#6495ED" stroke-width="2" stroke-dasharray="10 10" stroke-dashoffset="371.7391304347826" /><line x1="456.52173913043475" y1="284.99999999999994" x2="481.30434782608694" y2="284.99999999999994" fill="none" stroke="#6495ED" stroke-width="2" stroke-dasharray="10 10" stroke-dashoffset="396.52173913043475" /><line x1="481.30434782608694" y1="284.99999999999994" x2="506.0869565217391" y2="284.99999999999994" fill="none" stroke="#6495ED" stroke-width="2" stroke-dasharray="10 10" stroke-dashoffset="421.30434782608694" /><line x1="506.0869565217391" y1="284.99999999999994" x2="530.8695652173913" y2="284.99999999999994" fill="none" stroke="#6495ED" stroke-width="2" stroke-dasharray="10 10" stroke-dashoffset="446.0869565217391" /><line x1="530.8695652173913" y1="284.99999999999994" x2="555.6521739130435" y2="284.99999999999994" fill="none" stroke="#6495ED" stroke-width="2" stroke-dasharray="10 10" stroke-dashoffset="470.86956521739125" /><line x1="555.6521739130435" y1="284.99999999999994" x2="580.4347826086956" y2="284.99999999999994" fill="none" stroke="#6495ED" stroke-width="2" stroke-dasharray="10 10" stroke-dashoffset="495.6521739130435" /><line x1="580.4347826086956" y1="284.99999999999994" x2="605.2173913043478" y2="284.99999999999994" fill="none" stroke="#6495ED" stroke-width="2" stroke-dasharray="10 10" stroke-dashoffset="520.4347826086956" /><line x1="605.2173913043478" y1="284.99999999999994" x2="630" y2="284.99999999999994" fill="none" stroke="#6495ED" stroke-width="2" stroke-dasharray="10 10" stroke-dashoffset="545.2173913043478" /></g><g style="stroke-opacity:1" class="linegroup"><line x1="60" y1="65.0000000000001" x2="84.78260869565217" y2="65.0000000000001" fill="none" stroke="#6495ED" stroke-width="2" stroke-dasharray="10 10" stroke-dashoffset="0" /><line x1="84.78260869565217" y1="65.0000000000001" x2="109.56521739130434" y2="65.0000000000001" fill="none" stroke="#6495ED" stroke-width="2" stroke-dasharray="10 10" stroke-dashoffset="24.782608695652172" /><line x1="109.56521739130434" y1="65.0000000000001" x2="134.34782608695653" y2="65.0000000000001" fill="none" stroke="#6495ED" stroke-width="2" stroke-dasharray="10 10" stroke-dashoffset="49.565217391304344" /><line x1="134.34782608695653" y1="65.0000000000001" x2="159.1304347826087" y2="65.0000000000001" fill="none" stroke="#6495ED" stroke-width="2" stroke-dasharray="10 10" stroke-dashoffset="74.34782608695653" /><line x1="159.1304347826087" y1="65.0000000000001" x2="183.91304347826087" y2="65.0000000000001" fill="none" stroke="#6495ED" stroke-width="2" stroke-dasharray="10 10" stroke-dashoffset="99.13043478260869" /><line x1="183.91304347826087" y1="65.0000000000001" x2="208.69565217391306" y2="65.0000000000001" fill="none" stroke="#6495ED" stroke-width="2" stroke-dasharray="10 10" stroke-dashoffset="123.91304347826087" /><line x1="208.69565217391306" y1="65.0000000000001" x2="233.47826086956525" y2="65.0000000000001" fill="none" stroke="#6495ED" stroke-width="2" stroke-dasharray="10 10" stroke-dashoffset="148.69565217391306" /><line x1="233.47826086956525" y1="65.0000000000001" x2="258.2608695652174" y2="65.0000000000001" fill="none" stroke="#6495ED" stroke-width="2" stroke-dasharray="10 10" stroke-dashoffset="173.47826086956525" /><line x1="258.2608695652174" y1="65.0000000000001" x2="283.04347826086956" y2="65.0000000000001" fill="none" stroke="#6495ED" stroke-width="2" stroke-dasharray="10 10" stroke-dashoffset="198.26086956521738" /><line x1="283.04347826086956" y1="65.0000000000001" x2="307.82608695652175" y2="65.0000000000001" fill="none" stroke="#6495ED" stroke-width="2" stroke-dasharray="10 10" stroke-dashoffset="223.04347826086956" /><line x1="307.82608695652175" y1="65.0000000000001" x2="332.6086956521739" y2="65.0000000000001" fill="none" stroke="#6495ED" stroke-width="2" stroke-dasharray="10 10" stroke-dashoffset="247.82608695652175" /><line x1="332.6086956521739" y1="65.0000000000001" x2="357.3913043478261" y2="65.0000000000001" fill="none" stroke="#6495ED" stroke-width="2" stroke-dasharray="10 10" stroke-dashoffset="272.6086956521739" /><line x1="357.3913043478261" y1="65.0000000000001" x2="382.17391304347825" y2="65.0000000000001" fill="none" stroke="#6495ED" stroke-width="2" stroke-dasharray="10 10" stroke-dashoffset="297.3913043478261" /><line x1="382.17391304347825" y1="65.0000000000001" x2="406.95652173913044" y2="65.0000000000001" fill="none" stroke="#6495ED" stroke-width="2" stroke-dasharray="10 10" stroke-dashoffset="322.17391304347825" /><line x1="406.95652173913044" y1="65.0000000000001" x2="431.7391304347826" y2="65.0000000000001" fill="none" stroke="#6495ED" stroke-width="2" stroke-dasharray="10 10" stroke-dashoffset="346.95652173913044" /><line x1="431.7391304347826" y1="65.0000000000001" x2="456.52173913043475" y2="65.0000000000001" fill="none" stroke="#6495ED" stroke-width="2" stroke-dasharray="10 10" stroke-dashoffset="371.7391304347826" /><line x1="456.52173913043475" y1="65.0000000000001" x2="481.30434782608694" y2="65.0000000000001" fill="none" stroke="#6495ED" stroke-width="2" stroke-dasharray="10 10" stroke-dashoffset="396.52173913043475" /><line x1="481.30434782608694" y1="65.0000000000001" x2="506.0869565217391" y2="65.0000000000001" fill="none" stroke="#6495ED" stroke-width="2" stroke-dasharray="10 10" stroke-dashoffset="421.30434782608694" /><line x1="506.0869565217391" y1="65.0000000000001" x2="530.8695652173913" y2="65.0000000000001" fill="none" stroke="#6495ED" stroke-width="2" stroke-dasharray="10 10" stroke-dashoffset="446.0869565217391" /><line x1="530.8695652173913" y1="65.0000000000001" x2="555.6521739130435" y2="65.0000000000001" fill="none" stroke="#6495ED" stroke-width="2" stroke-dasharray="10 10" stroke-dashoffset="470.86956521739125" /><line x1="555.6521739130435" y1="65.0000000000001" x2="580.4347826086956" y2="65.0000000000001" fill="none" stroke="#6495ED" stroke-width="2" stroke-dasharray="10 10" stroke-dashoffset="495.6521739130435" /><line x1="580.4347826086956" y1="65.0000000000001" x2="605.2173913043478" y2="65.0000000000001" fill="none" stroke="#6495ED" stroke-width="2" stroke-dasharray="10 10" stroke-dashoffset="520.4347826086956" /><line x1="605.2173913043478" y1="65.0000000000001" x2="630" y2="65.0000000000001" fill="none" stroke="#6495ED" stroke-width="2" stroke-dasharray="10 10" stroke-dashoffset="545.2173913043478" /></g><g style="stroke-opacity:1" class="linegroup"><line x1="60" y1="248.33333333333337" x2="84.78260869565217" y2="248.33333333333337" fill="none" stroke="#6495ED" stroke-width="2" stroke-dasharray="2 5" stroke-dashoffset="0" /><line x1="84.78260869565217" y1="248.33333333333337" x2="109.56521739130434" y2="248.33333333333337" fill="none" stroke="#6495ED" stroke-width="2" stroke-dasharray="2 5" stroke-dashoffset="24.782608695652172" /><line x1="109.56521739130434" y1="248.33333333333337" x2="134.34782608695653" y2="248.33333333333337" fill="none" stroke="#6495ED" stroke-width="2" stroke-dasharray="2 5" stroke-dashoffset="49.565217391304344" /><line x1="134.34782608695653" y1="248.33333333333337" x2="159.1304347826087" y2="248.33333333333337" fill="none" stroke="#6495ED" stroke-width="2" stroke-dasharray="2 5" stroke-dashoffset="74.34782608695653" /><line x1="159.1304347826087" y1="248.33333333333337" x2="183.91304347826087" y2="248.33333333333337" fill="none" stroke="#6495ED" stroke-width="2" stroke-dasharray="2 5" stroke-dashoffset="99.13043478260869" /><line x1="183.91304347826087" y1="248.33333333333337" x2="208.69565217391306" y2="248.33333333333337" fill="none" stroke="#6495ED" stroke-width="2" stroke-dasharray="2 5" stroke-dashoffset="123.91304347826087" /><line x1="208.69565217391306" y1="248.33333333333337" x2="233.47826086956525" y2="248.33333333333337" fill="none" stroke="#6495ED" stroke-width="2" stroke-dasharray="2 5" stroke-dashoffset="148.69565217391306" /><line x1="233.47826086956525" y1="248.33333333333337" x2="258.2608695652174" y2="248.33333333333337" fill="none" stroke="#6495ED" stroke-width="2" stroke-dasharray="2 5" stroke-dashoffset="173.47826086956525" /><line x1="258.2608695652174" y1="248.33333333333337" x2="283.04347826086956" y2="248.33333333333337" fill="none" stroke="#6495ED" stroke-width="2" stroke-dasharray="2 5" stroke-dashoffset="198.26086956521738" /><line x1="283.04347826086956" y1="248.33333333333337" x2="307.82608695652175" y2="248.33333333333337" fill="none" stroke="#6495ED" stroke-width="2" stroke-dasharray="2 5" stroke-dashoffset="223.04347826086956" /><line x1="307.82608695652175" y1="248.33333333333337" x2="332.6086956521739" y2="248.33333333333337" fill="none" stroke="#6495ED" stroke-width="2" stroke-dasharray="2 5" stroke-dashoffset="247.82608695652175" /><line x1="332.6086956521739" y1="248.33333333333337" x2="357.3913043478261" y2="248.33333333333337" fill="none" stroke="#6495ED" stroke-width="2" stroke-dasharray="2 5" stroke-dashoffset="272.6086956521739" /><line x1="357.3913043478261" y1="248.33333333333337" x2="382.17391304347825" y2="248.33333333333337" fill="none" stroke="#6495ED" stroke-width="2" stroke-dasharray="2 5" stroke-dashoffset="297.3913043478261" /><line x1="382.17391304347825" y1="248.33333333333337" x2="406.95652173913044" y2="248.33333333333337" fill="none" stroke="#6495ED" stroke-width="2" stroke-dasharray="2 5" stroke-dashoffset="322.17391304347825" /><line x1="406.95652173913044" y1="248.33333333333337" x2="431.7391304347826" y2="248.33333333333337" fill="none" stroke="#6495ED" stroke-width="2" stroke-dasharray="2 5" stroke-dashoffset="346.95652173913044" /><line x1="431.7391304347826" y1="248.33333333333337" x2="456.52173913043475" y2="248.33333333333337" fill="none" stroke="#6495ED" stroke-width="2" stroke-dasharray="2 5" stroke-dashoffset="371.7391304347826" /><line x1="456.52173913043475" y1="248.33333333333337" x2="481.30434782608694" y2="248.33333333333337" fill="none" stroke="#6495ED" stroke-width="2" stroke-dasharray="2 5" stroke-dashoffset="396.52173913043475" /><line x1="481.30434782608694" y1="248.33333333333337" x2="506.0869565217391" y2="248.33333333333337" fill="none" stroke="#6495ED" stroke-width="2" stroke-dasharray="2 5" stroke-dashoffset="421.30434782608694" /><line x1="506.0869565217391" y1="248.33333333333337" x2="530.8695652173913" y2="248.33333333333337" fill="none" stroke="#6495ED" stroke-width="2" stroke-dasharray="2 5" stroke-dashoffset="446.0869565217391" /><line x1="530.8695652173913" y1="248.33333333333337" x2="555.6521739130435" y2="248.33333333333337" fill="none" stroke="#6495ED" stroke-width="2" stroke-dasharray="2 5" stroke-dashoffset="470.86956521739125" /><line x1="555.6521739130435" y1="248.33333333333337" x2="580.4347826086956" y2="248.33333333333337" fill="none" stroke="#6495ED" stroke-width="2" stroke-dasharray="2 5" stroke-dashoffset="495.6521739130435" /><line x1="580.4347826086956" y1="248.33333333333337" x2="605.2173913043478" y2="248.33333333333337" fill="none" stroke="#6495ED" stroke-width="2" stroke-dasharray="2 5" stroke-dashoffset="520.4347826086956" /><line x1="605.2173913043478" y1="248.33333333333337" x2="630" y2="248.33333333333337" fill="none" stroke="#6495ED" stroke-width="2" stroke-dasharray="2 5" stroke-dashoffset="545.2173913043478" /></g><g style="stroke-opacity:1" class="linegroup"><line x1="60" y1="101.66666666666664" x2="84.78260869565217" y2="101.66666666666664" fill="none" stroke="#6495ED" stroke-width="2" stroke-dasharray="2 5" stroke-dashoffset="0" /><line x1="84.78260869565217" y1="101.66666666666664" x2="109.56521739130434" y2="101.66666666666664" fill="none" stroke="#6495ED" stroke-width="2" stroke-dasharray="2 5" stroke-dashoffset="24.782608695652172" /><line x1="109.56521739130434" y1="101.66666666666664" x2="134.34782608695653" y2="101.66666666666664" fill="none" stroke="#6495ED" stroke-width="2" stroke-dasharray="2 5" stroke-dashoffset="49.565217391304344" /><line x1="134.34782608695653" y1="101.66666666666664" x2="159.1304347826087" y2="101.66666666666664" fill="none" stroke="#6495ED" stroke-width="2" stroke-dasharray="2 5" stroke-dashoffset="74.34782608695653" /><line x1="159.1304347826087" y1="101.66666666666664" x2="183.91304347826087" y2="101.66666666666664" fill="none" stroke="#6495ED" stroke-width="2" stroke-dasharray="2 5" stroke-dashoffset="99.13043478260869" /><line x1="183.91304347826087" y1="101.66666666666664" x2="208.69565217391306" y2="101.66666666666664" fill="none" stroke="#6495ED" stroke-width="2" stroke-dasharray="2 5" stroke-dashoffset="123.91304347826087" /><line x1="208.69565217391306" y1="101.66666666666664" x2="233.47826086956525" y2="101.66666666666664" fill="none" stroke="#6495ED" stroke-width="2" stroke-dasharray="2 5" stroke-dashoffset="148.69565217391306" /><line x1="233.47826086956525" y1="101.66666666666664" x2="258.2608695652174" y2="101.66666666666664" fill="none" stroke="#6495ED" stroke-width="2" stroke-dasharray="2 5" stroke-dashoffset="173.47826086956525" /><line x1="258.2608695652174" y1="101.66666666666664" x2="283.04347826086956" y2="101.66666666666664" fill="none" stroke="#6495ED" stroke-width="2" stroke-dasharray="2 5" stroke-dashoffset="198.26086956521738" /><line x1="283.04347826086956" y1="101.66666666666664" x2="307.82608695652175" y2="101.66666666666664" fill="none" stroke="#6495ED" stroke-width="2" stroke-dasharray="2 5" stroke-dashoffset="223.04347826086956" /><line x1="307.82608695652175" y1="101.66666666666664" x2="332.6086956521739" y2="101.66666666666664" fill="none" stroke="#6495ED" stroke-width="2" stroke-dasharray="2 5" stroke-dashoffset="247.82608695652175" /><line x1="332.6086956521739" y1="101.66666666666664" x2="357.3913043478261" y2="101.66666666666664" fill="none" stroke="#6495ED" stroke-width="2" stroke-dasharray="2 5" stroke-dashoffset="272.6086956521739" /><line x1="357.3913043478261" y1="101.66666666666664" x2="382.17391304347825" y2="101.66666666666664" fill="none" stroke="#6495ED" stroke-width="2" stroke-dasharray="2 5" stroke-dashoffset="297.3913043478261" /><line x1="382.17391304347825" y1="101.66666666666664" x2="406.95652173913044" y2="101.66666666666664" fill="none" stroke="#6495ED" stroke-width="2" stroke-dasharray="2 5" stroke-dashoffset="322.17391304347825" /><line x1="406.95652173913044" y1="101.66666666666664" x2="431.7391304347826" y2="101.66666666666664" fill="none" stroke="#6495ED" stroke-width="2" stroke-dasharray="2 5" stroke-dashoffset="346.95652173913044" /><line x1="431.7391304347826" y1="101.66666666666664" x2="456.52173913043475" y2="101.66666666666664" fill="none" stroke="#6495ED" stroke-width="2" stroke-dasharray="2 5" stroke-dashoffset="371.7391304347826" /><line x1="456.52173913043475" y1="101.66666666666664" x2="481.30434782608694" y2="101.66666666666664" fill="none" stroke="#6495ED" stroke-width="2" stroke-dasharray="2 5" stroke-dashoffset="396.52173913043475" /><line x1="481.30434782608694" y1="101.66666666666664" x2="506.0869565217391" y2="101.66666666666664" fill="none" stroke="#6495ED" stroke-width="2" stroke-dasharray="2 5" stroke-dashoffset="421.30434782608694" /><line x1="506.0869565217391" y1="101.66666666666664" x2="530.8695652173913" y2="101.66666666666664" fill="none" stroke="#6495ED" stroke-width="2" stroke-dasharray="2 5" stroke-dashoffset="446.0869565217391" /><line x1="530.8695652173913" y1="101.66666666666664" x2="555.6521739130435" y2="101.66666666666664" fill="none" stroke="#6495ED" stroke-width="2" stroke-dasharray="2 5" stroke-dashoffset="470.86956521739125" /><line x1="555.6521739130435" y1="101.66666666666664" x2="580.4347826086956" y2="101.66666666666664" fill="none" stroke="#6495ED" stroke-width="2" stroke-dasharray="2 5" stroke-dashoffset="495.6521739130435" /><line x1="580.4347826086956" y1="101.66666666666664" x2="605.2173913043478" y2="101.66666666666664" fill="none" stroke="#6495ED" stroke-width="2" stroke-dasharray="2 5" stroke-dashoffset="520.4347826086956" /><line x1="605.2173913043478" y1="101.66666666666664" x2="630" y2="101.66666666666664" fill="none" stroke="#6495ED" stroke-width="2" stroke-dasharray="2 5" stroke-dashoffset="545.2173913043478" /></g><text x="630" y="206.64455402104645" fill="#000000" font-size="10px" font-family="'Arial', sans-serif" text-anchor="start" dx="10px" dy="0px" /><text x="630" y="175" fill="#000000" font-size="10px" font-family="'Arial', sans-serif" text-anchor="start" dx="10px" dy="0px" /><text x="630" y="177.2423223905254" fill="#000000" font-size="10px" font-family="'Arial', sans-serif" text-anchor="start" dx="10px" dy="0px" /><text x="630" y="284.99999999999994" fill="#000000" font-size="10px" font-family="'Arial', sans-serif" text-anchor="start" dx="10px" dy="0px" /><text x="630" y="65.0000000000001" fill="#000000" font-size="10px" font-family="'Arial', sans-serif" text-anchor="start" dx="10px" dy="0px" /><text x="630" y="248.33333333333337" fill="#000000" font-size="10px" font-family="'Arial', sans-serif" text-anchor="start" dx="10px" dy="0px" /><text x="630" y="101.66666666666664" fill="#000000" font-size="10px" font-family="'Arial', sans-serif" text-anchor="start" dx="10px" dy="0px" /></g><g class="dotsgroup"><path style="fill:#A6A6A6;stroke:#A6A6A6;stroke-width:1;fill-opacity:1;stroke-opacity:1" d="M2.5,0A2.5,2.5,0,1,1,-2.5,0A2.5,2.5,0,1,1,2.5,0" transform="translate(60, 160.57417145154724)" /><path style="fill:#A6A6A6;stroke:#A6A6A6;stroke-width:1;fill-opacity:1;stroke-opacity:1" d="M2.5,0A2.5,2.5,0,1,1,-2.5,0A2.5,2.5,0,1,1,2.5,0" transform="translate(84.78260869565217, 137.56922888685392)" /><path style="fill:#A6A6A6;stroke:#A6A6A6;stroke-width:1;fill-opacity:1;stroke-opacity:1" d="M2.5,0A2.5,2.5,0,1,1,-2.5,0A2.5,2.5,0,1,1,2.5,0" transform="translate(109.56521739130434, 254.60198496843654)" /><path style="fill:#A6A6A6;stroke:#A6A6A6;stroke-width:1;fill-opacity:1;stroke-opacity:1" d="M2.5,0A2.5,2.5,0,1,1,-2.5,0A2.5,2.5,0,1,1,2.5,0" transform="translate(134.34782608695653, 216.59825359930616)" /><path style="fill:#A6A6A6;stroke:#A6A6A6;stroke-width:1;fill-opacity:1;stroke-opacity:1" d="M2.5,0A2.5,2.5,0,1,1,-2.5,0A2.5,2.5,0,1,1,2.5,0" transform="translate(159.1304347826087, 152.57072215438924)" /><path style="fill:#A6A6A6;stroke:#A6A6A6;stroke-width:1;fill-opacity:1;stroke-opacity:1" d="M2.5,0A2.5,2.5,0,1,1,-2.5,0A2.5,2.5,0,1,1,2.5,0" transform="translate(183.91304347826087, 163.40805931009305)" /><path style="fill:#A6A6A6;stroke:#A6A6A6;stroke-width:1;fill-opacity:1;stroke-opacity:1" d="M2.5,0A2.5,2.5,0,1,1,-2.5,0A2.5,2.5,0,1,1,2.5,0" transform="translate(208.69565217391306, 196.76315628092607)" /><path style="fill:#A6A6A6;stroke:#A6A6A6;stroke-width:1;fill-opacity:1;stroke-opacity:1" d="M2.5,0A2.5,2.5,0,1,1,-2.5,0A2.5,2.5,0,1,1,2.5,0" transform="translate(233.47826086956525, 243.56444759823674)" /><path style="fill:#A6A6A6;stroke:#A6A6A6;stroke-width:1;fill-opacity:1;stroke-opacity:1" d="M2.5,0A2.5,2.5,0,1,1,-2.5,0A2.5,2.5,0,1,1,2.5,0" transform="translate(258.2608695652174, 126.43668394804165)" /><path style="fill:#A6A6A6;stroke:#A6A6A6;stroke-width:1;fill-opacity:1;stroke-opacity:1" d="M2.5,0A2.5,2.5,0,1,1,-2.5,0A2.5,2.5,0,1,1,2.5,0" transform="translate(283.04347826086956, 128.21943057079596)" /><path style="fill:#A6A6A6;stroke:#A6A6A6;stroke-width:1;fill-opacity:1;stroke-opacity:1" d="M2.5,0A2.5,2.5,0,1,1,-2.5,0A2.5,2.5,0,1,1,2.5,0" transform="translate(307.82608695652175, 221.1075031494763)" /><path style="fill:#A6A6A6;stroke:#A6A6A6;stroke-width:1;fill-opacity:1;stroke-opacity:1" d="M2.5,0A2.5,2.5,0,1,1,-2.5,0A2.5,2.5,0,1,1,2.5,0" transform="translate(332.6086956521739, 186.0661931965628)" /><path style="fill:#A6A6A6;stroke:#A6A6A6;stroke-width:1;fill-opacity:1;stroke-opacity:1" d="M2.5,0A2.5,2.5,0,1,1,-2.5,0A2.5,2.5,0,1,1,2.5,0" transform="translate(357.3913043478261, 173.285870586612)" /><path style="fill:#A6A6A6;stroke:#A6A6A6;stroke-width:1;fill-opacity:1;stroke-opacity:1" d="M2.5,0A2.5,2.5,0,1,1,-2.5,0A2.5,2.5,0,1,1,2.5,0" transform="translate(382.17391304347825, 152.64365454586294)" /><path style="fill:#A6A6A6;stroke:#A6A6A6;stroke-width:1;fill-opacity:1;stroke-opacity:1" d="M2.5,0A2.5,2.5,0,1,1,-2.5,0A2.5,2.5,0,1,1,2.5,0" transform="translate(406.95652173913044, 129.6268933150252)" /><path style="fill:#A6A6A6;stroke:#A6A6A6;stroke-width:1;fill-opacity:1;stroke-opacity:1" d="M2.5,0A2.5,2.5,0,1,1,-2.5,0A2.5,2.5,0,1,1,2.5,0" transform="translate(431.7391304347826, 88.47962755281273)" /><path style="fill:#A6A6A6;stroke:#A6A6A6;stroke-width:1;fill-opacity:1;stroke-opacity:1" d="M2.5,0A2.5,2.5,0,1,1,-2.5,0A2.5,2.5,0,1,1,2.5,0" transform="translate(456.52173913043475, 170.23088403945513)" /><path style="fill:#A6A6A6;stroke:#A6A6A6;stroke-width:1;fill-opacity:1;stroke-opacity:1" d="M2.5,0A2.5,2.5,0,1,1,-2.5,0A2.5,2.5,0,1,1,2.5,0" transform="translate(481.30434782608694, 188.0018404661213)" /><path style="fill:#A6A6A6;stroke:#A6A6A6;stroke-width:1;fill-opacity:1;stroke-opacity:1" d="M2.5,0A2.5,2.5,0,1,1,-2.5,0A2.5,2.5,0,1,1,2.5,0" transform="translate(506.0869565217391, 195.17268655035582)" /><path style="fill:#A6A6A6;stroke:#A6A6A6;stroke-width:1;fill-opacity:1;stroke-opacity:1" d="M2.5,0A2.5,2.5,0,1,1,-2.5,0A2.5,2.5,0,1,1,2.5,0" transform="translate(530.8695652173913, 223.9164271437292)" /><path style="fill:#A6A6A6;stroke:#A6A6A6;stroke-width:1;fill-opacity:1;stroke-opacity:1" d="M2.5,0A2.5,2.5,0,1,1,-2.5,0A2.5,2.5,0,1,1,2.5,0" transform="translate(555.6521739130435, 146.3805930399914)" /><path style="fill:#A6A6A6;stroke:#A6A6A6;stroke-width:1;fill-opacity:1;stroke-opacity:1" d="M2.5,0A2.5,2.5,0,1,1,-2.5,0A2.5,2.5,0,1,1,2.5,0" transform="translate(580.4347826086956, 146.10346305407876)" /><path style="fill:#A6A6A6;stroke:#A6A6A6;stroke-width:1;fill-opacity:1;stroke-opacity:1" d="M2.5,0A2.5,2.5,0,1,1,-2.5,0A2.5,2.5,0,1,1,2.5,0" transform="translate(605.2173913043478, 192.03367057024977)" /><path style="fill:#A6A6A6;stroke:#A6A6A6;stroke-width:1;fill-opacity:1;stroke-opacity:1" d="M2.5,0A2.5,2.5,0,1,1,-2.5,0A2.5,2.5,0,1,1,2.5,0" transform="translate(630, 206.64455402104645)" /></g><g class="icongroup" transform="scale(0.08465608465608465) translate(7182, 0)"><defs><filter id="fx0" x="-10%" y="-10%" width="120%" height="120%" filterUnits="userSpaceOnUse" userSpaceOnUse="userSpaceOnUse"><feComponentTransfer color-interpolation-filters="sRGB"><feFuncR type="discrete" tableValues="0 0" /><feFuncG type="discrete" tableValues="0 0" /><feFuncB type="discrete" tableValues="0 0" /><feFuncA type="linear" slope="0.4" intercept="0" /></feComponentTransfer><feGaussianBlur stdDeviation="1.77778 1.77778" /></filter><clipPath id="clip1"><rect x="0" y="0" width="378" height="378" /></clipPath><clipPath id="clip2"><path d="M189 38C105.605 38 38 105.605 38 189 38 272.395 105.605 340 189 340 272.395 340 340 272.395 340 189 340 105.605 272.395 38 189 38ZM5.63264e-06 5.63264e-06 378 5.63264e-06 378 378 5.63264e-06 378Z" fill-rule="evenodd" clip-rule="evenodd" /></clipPath><clipPath id="clip3"><rect x="-2" y="-2" width="346" height="346" /></clipPath></defs><g class="inconsistent" clip-path="url(#clip1)"><rect x="0" y="0" width="378" height="378" fill="#FFFFFF" /><g clip-path="url(#clip2)"><g clip-path="url(#clip3)" filter="url(#fx0)" transform="translate(16 25)"><g clip-path="url(#clip4)"><path d="M17.47 173.345C17.47 87.1637 87.1031 17.3 173 17.3 258.897 17.3 328.53 87.1637 328.53 173.345 328.53 259.526 258.897 329.39 173 329.39 87.1031 329.39 17.47 259.526 17.47 173.345Z" stroke="#BFBFBF" stroke-width="21" stroke-miterlimit="8" fill="#FFFFFF" fill-rule="evenodd" /></g></g></g><path d="M38 189.5C38 105.829 105.605 38 189 38 272.395 38 340 105.829 340 189.5 340 273.171 272.395 341 189 341 105.605 341 38 273.171 38 189.5Z" stroke="#BFBFBF" stroke-width="20" stroke-miterlimit="8" fill="#FFFFFF" fill-rule="evenodd" /><text fill="#7F7F7F" font-family="Arial,Arial_MSFontService,sans-serif" font-weight="700" font-size="11.7" transform="translate(155.851 158) scale(10, 10)">?</text><path d="M38.5001 222.5 340.862 222.5" stroke="#BFBFBF" stroke-width="8.66667" stroke-miterlimit="8" stroke-dasharray="26 8.66667" fill="none" fill-rule="evenodd" /><path d="M72.5001 239.762C89.0456 219.168 107.725 201.801 129.638 201.507 152.134 202.459 176.57 239.689 192.563 242.313 206.31 245.118 205.897 218.733 212.814 217.659 217.563 216.414 220.151 239.182 233.066 241.463 248.557 244.786 291.62 235.385 302.5 237.212" stroke="#7F7F7F" stroke-width="10.66667" stroke-miterlimit="8" fill="none" fill-rule="evenodd" /></g></g></svg>