<svg viewBox="0 0 640 400" width="640px" height="400px" xmlns="http://www.w3.org/2000/svg"><rect x="0" y="0" width="100%" height="100%" fill="white"/><line style="stroke-opacity:0" class="ttip-line-x" x1="0" x2="0" y1="10" y2="340" stroke-width="1px" stroke="black" /><line style="stroke-opacity:0" class="ttip-line-y" x1="60" x2="630" y1="0" y2="0" stroke-width="1px" stroke="black" /><g class="xaxisgroup" fill="none" font-size="10" font-family="sans-serif" text-anchor="middle" color="#000000" transform="translate(0, 340)"><path class="domain" stroke="currentColor" d="M60.5,6V0.5H630.5V6" /><g class="tick" opacity="1" transform="translate(60.5,0)"><line stroke="currentColor" y2="6" /><text style="text-anchor:end;font-size:10px;font-family:'Arial', sans-serif;fill:#000000" fill="currentColor" y="9" dy="-.15em" dx="-.8em" transform="rotate(-35)"> 01/01/2024</text></g><g class="tick" opacity="1" transform="translate(110.06521739130434,0)"><line stroke="currentColor" y2="6" /><text style="text-anchor:end;font-size:10px;font-family:'Arial', sans-serif;fill:#000000" fill="currentColor" y="9" dy="-.15em" dx="-.8em" transform="rotate(-35)"> 01/03/2024</text></g><g class="tick" opacity="1" transform="translate(159.6304347826087,0)"><line stroke="currentColor" y2="6" /><text style="text-anchor:end;font-size:10px;font-family:'Arial', sans-serif;fill:#000000" fill="currentColor" y="9" dy="-.15em" dx="-.8em" transform="rotate(-35)"> 01/05/2024</text></g><g class="tick" opacity="1" transform="translate(209.19565217391306,0)"><line stroke="currentColor" y2="6" /><text style="text-anchor:end;font-size:10px;font-family:'Arial', sans-serif;fill:#000000" fill="currentColor" y="9" dy="-.15em" dx="-.8em" transform="rotate(-35)"> 01/07/2024</text></g><g class="tick" opacity="1" transform="translate(258.7608695652174,0)"><line stroke="currentColor" y2="6" /><text style="text-anchor:end;font-size:10px;font-family:'Arial', sans-serif;fill:#000000" fill="currentColor" y="9" dy="-.15em" dx="-.8em" transform="rotate(-35)"> 01/09/2024</text></g><g class="tick" opacity="1" transform="translate(308.32608695652175,0)"><line stroke="currentColor" y2="6" /><text style="text-anchor:end;font-size:10px;font-family:'Arial', sans-serif;fill:#000000" fill="currentColor" y="9" dy="-.15em" dx="-.8em" transform="rotate(-35)"> 01/11/2024</text></g><g class="tick" opacity="1" transform="translate(357.8913043478261,0)"><line stroke="currentColor" y2="6" /><text style="text-anchor:end;font-size:10px;font-family:'Arial', sans-serif;fill:#000000" fill="currentColor" y="9" dy="-.15em" dx="-.8em" transform="rotate(-35)"> 01/01/2025</text></g><g class="tick" opacity="1" transform="translate(407.45652173913044,0)"><line stroke="currentColor" y2="6" /><text style="text-anchor:end;font-size:10px;font-family:'Arial', sans-serif;fill:#000000" fill="currentColor" y="9" dy="-.15em" dx="-.8em" transform="rotate(-35)"> 01/03/2025</text></g><g class="tick" opacity="1" transform="translate(457.02173913043475,0)"><line stroke="currentColor" y2="6" /><text style="text-anchor:end;font-size:10px;font-family:'Arial', sans-serif;fill:#000000" fill="currentColor" y="9" dy="-.15em" dx="-.8em" transform="rotate(-35)"> 01/05/2025</text></g><g class="tick" opacity="1" transform="translate(506.5869565217391,0)"><line stroke="currentColor" y2="6" /><text style="text-anchor:end;font-size:10px;font-family:'Arial', sans-serif;fill:#000000" fill="currentColor" y="9" dy="-.15em" dx="-.8em" transform="rotate(-35)"> 01/07/2025</text></g><g class="tick" opacity="1" transform="translate(556.1521739130435,0)"><line stroke="currentColor" y2="6" /><text style="text-anchor:end;font-size:10px;font-family:'Arial', sans-serif;fill:#000000" fill="currentColor" y="9" dy="-.15em" dx="-.8em" transform="rotate(-35)"> 01/09/2025</text></g><g class="tick" opacity="1" transform="translate(605.7173913043478,0)"><line stroke="currentColor" y2="6" /><text style="text-anchor:end;font-size:10px;font-family:'Arial', sans-serif;fill:#000000" fill="currentColor" y="9" dy="-.15em" dx="-.8em" transform="rotate(-35)"> 01/11/2025</text></g></g><text style="text-anchor:middle;font-size:10px;font-family:'Arial', sans-serif;fill:#000000" class="xaxislabel" x="320" y="380" /><g class="yaxisgroup" fill="none" font-size="10" font-family="sans-serif" text-anchor="end" color="#000000" transform="translate(60, 0)"><path class="domain" stroke="currentColor" d="M-6,340.5H0.5V10.5H-6" /><g class="tick" opacity="1" transform="translate(0,329.95641784240524)"><line stroke="currentColor" x2="-6" /><text style="text-anchor:right;font-size:10px;font-family:'Arial', sans-serif;fill:#000000" fill="currentColor" x="-9" dy="0.32em" transform="rotate(0)">0.00</text></g><g class="tick" opacity="1" transform="translate(0,284.11146406185725)"><line stroke="currentColor" x2="-6" /><text style="text-anchor:right;font-size:10px;font-family:'Arial', sans-serif;fill:#000000" fill="currentColor" x="-9" dy="0.32em" transform="rotate(0)">5.00</text></g><g class="tick" opacity="1" transform="translate(0,238.26651028130917)"><line stroke="currentColor" x2="-6" /><text style="text-anchor:right;font-size:10px;font-family:'Arial', sans-serif;fill:#000000" fill="currentColor" x="-9" dy="0.32em" transform="rotate(0)">10.00</text></g><g class="tick" opacity="1" transform="translate(0,192.4215565007611)"><line stroke="currentColor" x2="-6" /><text style="text-anchor:right;font-size:10px;font-family:'Arial', sans-serif;fill:#000000" fill="currentColor" x="-9" dy="0.32em" transform="rotate(0)">15.00</text></g><g class="tick" opacity="1" transform="translate(0,146.57660272021303)"><line stroke="currentColor" x2="-6" /><text style="text-anchor:right;font-size:10px;font-family:'Arial', sans-serif;fill:#000000" fill="currentColor" x="-9" dy="0.32em" transform="rotate(0)">20.00</text></g><g class="tick" opacity="1" transform="translate(0,100.731648939665)"><line stroke="currentColor" x2="-6" /><text style="text-anchor:right;font-size:10px;font-family:'Arial', sans-serif;fill:#000000" fill="currentColor" x="-9" dy="0.32em" transform="rotate(0)">25.00</text></g><g class="tick" opacity="1" transform="translate(0,54.88669515911694)"><line stroke="currentColor" x2="-6" /><text style="text-anchor:right;font-size:10px;font-family:'Arial', sans-serif;fill:#000000" fill="currentColor" x="-9" dy="0.32em" transform="rotate(0)">30.00</text></g></g><text style="text-anchor:middle;font-size:10px;font-family:'Arial', sans-serif;fill:#000000" class="yaxislabel" x="30" y="200" transform="rotate(-90, 30, 200)" /><g class="linesgroup"><g style="stroke-opacity:1" class="linegroup"><line x1="60" y1="190.07044265343413" x2="84.78260869565217" y2="170.05790724522413" fill="none" stroke="#A6A6A6" stroke-width="1" stroke-dasharray="10 0" stroke-dashoffset="0" /><line x1="84.78260869565217" y1="170.05790724522413" x2="109.56521739130434" y2="150.17343916288928" fill="none" stroke="#A6A6A6" stroke-width="1" stroke-dasharray="10 0" stroke-dashoffset="24.782608695652172" /><line x1="109.56521739130434" y1="150.17343916288928" x2="134.34782608695653" y2="251.47139933380384" fill="none" stroke="#A6A6A6" stroke-width="1" stroke-dasharray="10 0" stroke-dashoffset="49.565217391304344" /><line x1="134.34782608695653" y1="251.47139933380384" x2="159.1304347826087" y2="197.81874323103213" fill="none" stroke="#A6A6A6" stroke-width="1" stroke-dasharray="10 0" stroke-dashoffset="74.34782608695653" /><line x1="159.1304347826087" y1="197.81874323103213" x2="183.91304347826087" y2="188.38442499061372" fill="none" stroke="#A6A6A6" stroke-width="1" stroke-dasharray="10 0" stroke-dashoffset="99.13043478260869" /><line x1="183.91304347826087" y1="188.38442499061372" x2="208.69565217391306" y2="185.72427241455622" fill="none" stroke="#A6A6A6" stroke-width="1" stroke-dasharray="10 0" stroke-dashoffset="123.91304347826087" /><line x1="208.69565217391306" y1="185.72427241455622" x2="233.47826086956525" y2="250.7265407520374" fill="none" stroke="#A6A6A6" stroke-width="1" stroke-dasharray="10 0" stroke-dashoffset="148.69565217391306" /><line x1="233.47826086956525" y1="250.7265407520374" x2="258.2608695652174" y2="248.47609577491923" fill="none" stroke="#A6A6A6" stroke-width="1" stroke-dasharray="10 0" stroke-dashoffset="173.47826086956525" /><line x1="258.2608695652174" y1="248.47609577491923" x2="283.04347826086956" y2="248.49200787617517" fill="none" stroke="#A6A6A6" stroke-width="1" stroke-dasharray="10 0" stroke-dashoffset="198.26086956521738" /><line x1="283.04347826086956" y1="248.49200787617517" x2="307.82608695652175" y2="72.72467667133614" fill="none" stroke="#A6A6A6" stroke-width="1" stroke-dasharray="10 0" stroke-dashoffset="223.04347826086956" /><line x1="307.82608695652175" y1="72.72467667133614" x2="332.6086956521739" y2="193.35997376755438" fill="none" stroke="#A6A6A6" stroke-width="1" stroke-dasharray="10 0" stroke-dashoffset="247.82608695652175" /><line x1="332.6086956521739" y1="193.35997376755438" x2="357.3913043478261" y2="212.76179137988893" fill="none" stroke="#A6A6A6" stroke-width="1" stroke-dasharray="10 0" stroke-dashoffset="272.6086956521739" /><line x1="357.3913043478261" y1="212.76179137988893" x2="382.17391304347825" y2="192.17600394130852" fill="none" stroke="#A6A6A6" stroke-width="1" stroke-dasharray="10 0" stroke-dashoffset="297.3913043478261" /><line x1="382.17391304347825" y1="192.17600394130852" x2="406.95652173913044" y2="171.15922259301067" fill="none" stroke="#A6A6A6" stroke-width="1" stroke-dasharray="10 0" stroke-dashoffset="322.17391304347825" /><line x1="406.95652173913044" y1="171.15922259301067" x2="431.7391304347826" y2="170.5308693654943" fill="none" stroke="#A6A6A6" stroke-width="1" stroke-dasharray="10 0" stroke-dashoffset="346.95652173913044" /><line x1="431.7391304347826" y1="170.5308693654943" x2="456.52173913043475" y2="274.4424733057476" fill="none" stroke="#A6A6A6" stroke-width="1" stroke-dasharray="10 0" stroke-dashoffset="371.7391304347826" /><line x1="456.52173913043475" y1="274.4424733057476" x2="481.30434782608694" y2="177.33775814723262" fill="none" stroke="#A6A6A6" stroke-width="1" stroke-dasharray="10 0" stroke-dashoffset="396.52173913043475" /><line x1="481.30434782608694" y1="177.33775814723262" x2="506.0869565217391" y2="199.34437717415804" fill="none" stroke="#A6A6A6" stroke-width="1" stroke-dasharray="10 0" stroke-dashoffset="421.30434782608694" /><line x1="506.0869565217391" y1="199.34437717415804" x2="530.8695652173913" y2="206.81043332235367" fill="none" stroke="#A6A6A6" stroke-width="1" stroke-dasharray="10 0" stroke-dashoffset="446.0869565217391" /><line x1="530.8695652173913" y1="206.81043332235367" x2="555.6521739130435" y2="172.7622841757283" fill="none" stroke="#A6A6A6" stroke-width="1" stroke-dasharray="10 0" stroke-dashoffset="470.86956521739125" /><line x1="555.6521739130435" y1="172.7622841757283" x2="580.4347826086956" y2="181.32581757001566" fill="none" stroke="#A6A6A6" stroke-width="1" stroke-dasharray="10 0" stroke-dashoffset="495.6521739130435" /><line x1="580.4347826086956" y1="181.32581757001566" x2="605.2173913043478" y2="216.17642830257176" fill="none" stroke="#A6A6A6" stroke-width="1" stroke-dasharray="10 0" stroke-dashoffset="520.4347826086956" /><line x1="605.2173913043478" y1="216.17642830257176" x2="630" y2="233.86933718511818" fill="none" stroke="#A6A6A6" stroke-width="1" stroke-dasharray="10 0" stroke-dashoffset="545.2173913043478" /></g><g style="stroke-opacity:1" class="linegroup"><line x1="60" y1="198.17403001400848" x2="84.78260869565217" y2="198.17403001400848" fill="none" stroke="#000000" stroke-width="1.5" stroke-dasharray="10 0" stroke-dashoffset="0" /><line x1="84.78260869565217" y1="198.17403001400848" x2="109.56521739130434" y2="198.17403001400848" fill="none" stroke="#000000" stroke-width="1.5" stroke-dasharray="10 0" stroke-dashoffset="24.782608695652172" /><line x1="109.56521739130434" y1="198.17403001400848" x2="134.34782608695653" y2="198.17403001400848" fill="none" stroke="#000000" stroke-width="1.5" stroke-dasharray="10 0" stroke-dashoffset="49.565217391304344" /><line x1="134.34782608695653" y1="198.17403001400848" x2="159.1304347826087" y2="198.17403001400848" fill="none" stroke="#000000" stroke-width="1.5" stroke-dasharray="10 0" stroke-dashoffset="74.34782608695653" /><line x1="159.1304347826087" y1="198.17403001400848" x2="183.91304347826087" y2="198.17403001400848" fill="none" stroke="#000000" stroke-width="1.5" stroke-dasharray="10 0" stroke-dashoffset="99.13043478260869" /><line x1="183.91304347826087" y1="198.17403001400848" x2="208.69565217391306" y2="198.17403001400848" fill="none" stroke="#000000" stroke-width="1.5" stroke-dasharray="10 0" stroke-dashoffset="123.91304347826087" /><line x1="208.69565217391306" y1="198.17403001400848" x2="233.47826086956525" y2="198.17403001400848" fill="none" stroke="#000000" stroke-width="1.5" stroke-dasharray="10 0" stroke-dashoffset="148.69565217391306" /><line x1="233.47826086956525" y1="198.17403001400848" x2="258.2608695652174" y2="198.17403001400848" fill="none" stroke="#000000" stroke-width="1.5" stroke-dasharray="10 0" stroke-dashoffset="173.47826086956525" /><line x1="258.2608695652174" y1="198.17403001400848" x2="283.04347826086956" y2="198.17403001400848" fill="none" stroke="#000000" stroke-width="1.5" stroke-dasharray="10 0" stroke-dashoffset="198.26086956521738" /><line x1="283.04347826086956" y1="198.17403001400848" x2="307.82608695652175" y2="198.17403001400848" fill="none" stroke="#000000" stroke-width="1.5" stroke-dasharray="10 0" stroke-dashoffset="223.04347826086956" /><line x1="307.82608695652175" y1="198.17403001400848" x2="332.6086956521739" y2="198.17403001400848" fill="none" stroke="#000000" stroke-width="1.5" stroke-dasharray="10 0" stroke-dashoffset="247.82608695652175" /><line x1="332.6086956521739" y1="198.17403001400848" x2="357.3913043478261" y2="198.17403001400848" fill="none" stroke="#000000" stroke-width="1.5" stroke-dasharray="10 0" stroke-dashoffset="272.6086956521739" /><line x1="357.3913043478261" y1="198.17403001400848" x2="382.17391304347825" y2="198.17403001400848" fill="none" stroke="#000000" stroke-width="1.5" stroke-dasharray="10 0" stroke-dashoffset="297.3913043478261" /><line x1="382.17391304347825" y1="198.17403001400848" x2="406.95652173913044" y2="198.17403001400848" fill="none" stroke="#000000" stroke-width="1.5" stroke-dasharray="10 0" stroke-dashoffset="322.17391304347825" /><line x1="406.95652173913044" y1="198.17403001400848" x2="431.7391304347826" y2="198.17403001400848" fill="none" stroke="#000000" stroke-width="1.5" stroke-dasharray="10 0" stroke-dashoffset="346.95652173913044" /><line x1="431.7391304347826" y1="198.17403001400848" x2="456.52173913043475" y2="198.17403001400848" fill="none" stroke="#000000" stroke-width="1.5" stroke-dasharray="10 0" stroke-dashoffset="371.7391304347826" /><line x1="456.52173913043475" y1="198.17403001400848" x2="481.30434782608694" y2="198.17403001400848" fill="none" stroke="#000000" stroke-width="1.5" stroke-dasharray="10 0" stroke-dashoffset="396.52173913043475" /><line x1="481.30434782608694" y1="198.17403001400848" x2="506.0869565217391" y2="198.17403001400848" fill="none" stroke="#000000" stroke-width="1.5" stroke-dasharray="10 0" stroke-dashoffset="421.30434782608694" /><line x1="506.0869565217391" y1="198.17403001400848" x2="530.8695652173913" y2="198.17403001400848" fill="none" stroke="#000000" stroke-width="1.5" stroke-dasharray="10 0" stroke-dashoffset="446.0869565217391" /><line x1="530.8695652173913" y1="198.17403001400848" x2="555.6521739130435" y2="198.17403001400848" fill="none" stroke="#000000" stroke-width="1.5" stroke-dasharray="10 0" stroke-dashoffset="470.86956521739125" /><line x1="555.6521739130435" y1="198.17403001400848" x2="580.4347826086956" y2="198.17403001400848" fill="none" stroke="#000000" stroke-width="1.5" stroke-dasharray="10 0" stroke-dashoffset="495.6521739130435" /><line x1="580.4347826086956" y1="198.17403001400848" x2="605.2173913043478" y2="198.17403001400848" fill="none" stroke="#000000" stroke-width="1.5" stroke-dasharray="10 0" stroke-dashoffset="520.4347826086956" /><line x1="605.2173913043478" y1="198.17403001400848" x2="630" y2="198.17403001400848" fill="none" stroke="#000000" stroke-width="1.5" stroke-dasharray="10 0" stroke-dashoffset="545.2173913043478" /></g><g style="stroke-opacity:1" class="linegroup"><line x1="60" y1="292.72467667133617" x2="84.78260869565217" y2="292.72467667133617" fill="none" stroke="#6495ED" stroke-width="2" stroke-dasharray="10 10" stroke-dashoffset="0" /><line x1="84.78260869565217" y1="292.72467667133617" x2="109.56521739130434" y2="292.72467667133617" fill="none" stroke="#6495ED" stroke-width="2" stroke-dasharray="10 10" stroke-dashoffset="24.782608695652172" /><line x1="109.56521739130434" y1="292.72467667133617" x2="134.34782608695653" y2="292.72467667133617" fill="none" stroke="#6495ED" stroke-width="2" stroke-dasharray="10 10" stroke-dashoffset="49.565217391304344" /><line x1="134.34782608695653" y1="292.72467667133617" x2="159.1304347826087" y2="292.72467667133617" fill="none" stroke="#6495ED" stroke-width="2" stroke-dasharray="10 10" stroke-dashoffset="74.34782608695653" /><line x1="159.1304347826087" y1="292.72467667133617" x2="183.91304347826087" y2="292.72467667133617" fill="none" stroke="#6495ED" stroke-width="2" stroke-dasharray="10 10" stroke-dashoffset="99.13043478260869" /><line x1="183.91304347826087" y1="292.72467667133617" x2="208.69565217391306" y2="292.72467667133617" fill="none" stroke="#6495ED" stroke-width="2" stroke-dasharray="10 10" stroke-dashoffset="123.91304347826087" /><line x1="208.69565217391306" y1="292.72467667133617" x2="233.47826086956525" y2="292.72467667133617" fill="none" stroke="#6495ED" stroke-width="2" stroke-dasharray="10 10" stroke-dashoffset="148.69565217391306" /><line x1="233.47826086956525" y1="292.72467667133617" x2="258.2608695652174" y2="292.72467667133617" fill="none" stroke="#6495ED" stroke-width="2" stroke-dasharray="10 10" stroke-dashoffset="173.47826086956525" /><line x1="258.2608695652174" y1="292.72467667133617" x2="283.04347826086956" y2="292.72467667133617" fill="none" stroke="#6495ED" stroke-width="2" stroke-dasharray="10 10" stroke-dashoffset="198.26086956521738" /><line x1="283.04347826086956" y1="292.72467667133617" x2="307.82608695652175" y2="292.72467667133617" fill="none" stroke="#6495ED" stroke-width="2" stroke-dasharray="10 10" stroke-dashoffset="223.04347826086956" /><line x1="307.82608695652175" y1="292.72467667133617" x2="332.6086956521739" y2="292.72467667133617" fill="none" stroke="#6495ED" stroke-width="2" stroke-dasharray="10 10" stroke-dashoffset="247.82608695652175" /><line x1="332.6086956521739" y1="292.72467667133617" x2="357.3913043478261" y2="292.72467667133617" fill="none" stroke="#6495ED" stroke-width="2" stroke-dasharray="10 10" stroke-dashoffset="272.6086956521739" /><line x1="357.3913043478261" y1="292.72467667133617" x2="382.17391304347825" y2="292.72467667133617" fill="none" stroke="#6495ED" stroke-width="2" stroke-dasharray="10 10" stroke-dashoffset="297.3913043478261" /><line x1="382.17391304347825" y1="292.72467667133617" x2="406.95652173913044" y2="292.72467667133617" fill="none" stroke="#6495ED" stroke-width="2" stroke-dasharray="10 10" stroke-dashoffset="322.17391304347825" /><line x1="406.95652173913044" y1="292.72467667133617" x2="431.7391304347826" y2="292.72467667133617" fill="none" stroke="#6495ED" stroke-width="2" stroke-dasharray="10 10" stroke-dashoffset="346.95652173913044" /><line x1="431.7391304347826" y1="292.72467667133617" x2="456.52173913043475" y2="292.72467667133617" fill="none" stroke="#6495ED" stroke-width="2" stroke-dasharray="10 10" stroke-dashoffset="371.7391304347826" /><line x1="456.52173913043475" y1="292.72467667133617" x2="481.30434782608694" y2="292.72467667133617" fill="none" stroke="#6495ED" stroke-width="2" stroke-dasharray="10 10" stroke-dashoffset="396.52173913043475" /><line x1="481.30434782608694" y1="292.72467667133617" x2="506.0869565217391" y2="292.72467667133617" fill="none" stroke="#6495ED" stroke-width="2" stroke-dasharray="10 10" stroke-dashoffset="421.30434782608694" /><line x1="506.0869565217391" y1="292.72467667133617" x2="530.8695652173913" y2="292.72467667133617" fill="none" stroke="#6495ED" stroke-width="2" stroke-dasharray="10 10" stroke-dashoffset="446.0869565217391" /><line x1="530.8695652173913" y1="292.72467667133617" x2="555.6521739130435" y2="292.72467667133617" fill="none" stroke="#6495ED" stroke-width="2" stroke-dasharray="10 10" stroke-dashoffset="470.86956521739125" /><line x1="555.6521739130435" y1="292.72467667133617" x2="580.4347826086956" y2="292.72467667133617" fill="none" stroke="#6495ED" stroke-width="2" stroke-dasharray="10 10" stroke-dashoffset="495.6521739130435" /><line x1="580.4347826086956" y1="292.72467667133617" x2="605.2173913043478" y2="292.72467667133617" fill="none" stroke="#6495ED" stroke-width="2" stroke-dasharray="10 10" stroke-dashoffset="520.4347826086956" /><line x1="605.2173913043478" y1="292.72467667133617" x2="630" y2="292.72467667133617" fill="none" stroke="#6495ED" stroke-width="2" stroke-dasharray="10 10" stroke-dashoffset="545.2173913043478" /></g><g style="stroke-opacity:1" class="linegroup"><line x1="60" y1="103.62338335668079" x2="84.78260869565217" y2="103.62338335668079" fill="none" stroke="#6495ED" stroke-width="2" stroke-dasharray="10 10" stroke-dashoffset="0" /><line x1="84.78260869565217" y1="103.62338335668079" x2="109.56521739130434" y2="103.62338335668079" fill="none" stroke="#6495ED" stroke-width="2" stroke-dasharray="10 10" stroke-dashoffset="24.782608695652172" /><line x1="109.56521739130434" y1="103.62338335668079" x2="134.34782608695653" y2="103.62338335668079" fill="none" stroke="#6495ED" stroke-width="2" stroke-dasharray="10 10" stroke-dashoffset="49.565217391304344" /><line x1="134.34782608695653" y1="103.62338335668079" x2="159.1304347826087" y2="103.62338335668079" fill="none" stroke="#6495ED" stroke-width="2" stroke-dasharray="10 10" stroke-dashoffset="74.34782608695653" /><line x1="159.1304347826087" y1="103.62338335668079" x2="183.91304347826087" y2="103.62338335668079" fill="none" stroke="#6495ED" stroke-width="2" stroke-dasharray="10 10" stroke-dashoffset="99.13043478260869" /><line x1="183.91304347826087" y1="103.62338335668079" x2="208.69565217391306" y2="103.62338335668079" fill="none" stroke="#6495ED" stroke-width="2" stroke-dasharray="10 10" stroke-dashoffset="123.91304347826087" /><line x1="208.69565217391306" y1="103.62338335668079" x2="233.47826086956525" y2="103.62338335668079" fill="none" stroke="#6495ED" stroke-width="2" stroke-dasharray="10 10" stroke-dashoffset="148.69565217391306" /><line x1="233.47826086956525" y1="103.62338335668079" x2="258.2608695652174" y2="103.62338335668079" fill="none" stroke="#6495ED" stroke-width="2" stroke-dasharray="10 10" stroke-dashoffset="173.47826086956525" /><line x1="258.2608695652174" y1="103.62338335668079" x2="283.04347826086956" y2="103.62338335668079" fill="none" stroke="#6495ED" stroke-width="2" stroke-dasharray="10 10" stroke-dashoffset="198.26086956521738" /><line x1="283.04347826086956" y1="103.62338335668079" x2="307.82608695652175" y2="103.62338335668079" fill="none" stroke="#6495ED" stroke-width="2" stroke-dasharray="10 10" stroke-dashoffset="223.04347826086956" /><line x1="307.82608695652175" y1="103.62338335668079" x2="332.6086956521739" y2="103.62338335668079" fill="none" stroke="#6495ED" stroke-width="2" stroke-dasharray="10 10" stroke-dashoffset="247.82608695652175" /><line x1="332.6086956521739" y1="103.62338335668079" x2="357.3913043478261" y2="103.62338335668079" fill="none" stroke="#6495ED" stroke-width="2" stroke-dasharray="10 10" stroke-dashoffset="272.6086956521739" /><line x1="357.3913043478261" y1="103.62338335668079" x2="382.17391304347825" y2="103.62338335668079" fill="none" stroke="#6495ED" stroke-width="2" stroke-dasharray="10 10" stroke-dashoffset="297.3913043478261" /><line x1="382.17391304347825" y1="103.62338335668079" x2="406.95652173913044" y2="103.62338335668079" fill="none" stroke="#6495ED" stroke-width="2" stroke-dasharray="10 10" stroke-dashoffset="322.17391304347825" /><line x1="406.95652173913044" y1="103.62338335668079" x2="431.7391304347826" y2="103.62338335668079" fill="none" stroke="#6495ED" stroke-width="2" stroke-dasharray="10 10" stroke-dashoffset="346.95652173913044" /><line x1="431.7391304347826" y1="103.62338335668079" x2="456.52173913043475" y2="103.62338335668079" fill="none" stroke="#6495ED" stroke-width="2" stroke-dasharray="10 10" stroke-dashoffset="371.7391304347826" /><line x1="456.52173913043475" y1="103.62338335668079" x2="481.30434782608694" y2="103.62338335668079" fill="none" stroke="#6495ED" stroke-width="2" stroke-dasharray="10 10" stroke-dashoffset="396.52173913043475" /><line x1="481.30434782608694" y1="103.62338335668079" x2="506.0869565217391" y2="103.62338335668079" fill="none" stroke="#6495ED" stroke-width="2" stroke-dasharray="10 10" stroke-dashoffset="421.30434782608694" /><line x1="506.0869565217391" y1="103.62338335668079" x2="530.8695652173913" y2="103.62338335668079" fill="none" stroke="#6495ED" stroke-width="2" stroke-dasharray="10 10" stroke-dashoffset="446.0869565217391" /><line x1="530.8695652173913" y1="103.62338335668079" x2="555.6521739130435" y2="103.62338335668079" fill="none" stroke="#6495ED" stroke-width="2" stroke-dasharray="10 10" stroke-dashoffset="470.86956521739125" /><line x1="555.6521739130435" y1="103.62338335668079" x2="580.4347826086956" y2="103.62338335668079" fill="none" stroke="#6495ED" stroke-width="2" stroke-dasharray="10 10" stroke-dashoffset="495.6521739130435" /><line x1="580.4347826086956" y1="103.62338335668079" x2="605.2173913043478" y2="103.62338335668079" fill="none" stroke="#6495ED" stroke-width="2" stroke-dasharray="10 10" stroke-dashoffset="520.4347826086956" /><line x1="605.2173913043478" y1="103.62338335668079" x2="630" y2="103.62338335668079" fill="none" stroke="#6495ED" stroke-width="2" stroke-dasharray="10 10" stroke-dashoffset="545.2173913043478" /></g><g style="stroke-opacity:1" class="linegroup"><line x1="60" y1="261.20779445222695" x2="84.78260869565217" y2="261.20779445222695" fill="none" stroke="#6495ED" stroke-width="2" stroke-dasharray="2 5" stroke-dashoffset="0" /><line x1="84.78260869565217" y1="261.20779445222695" x2="109.56521739130434" y2="261.20779445222695" fill="none" stroke="#6495ED" stroke-width="2" stroke-dasharray="2 5" stroke-dashoffset="24.782608695652172" /><line x1="109.56521739130434" y1="261.20779445222695" x2="134.34782608695653" y2="261.20779445222695" fill="none" stroke="#6495ED" stroke-width="2" stroke-dasharray="2 5" stroke-dashoffset="49.565217391304344" /><line x1="134.34782608695653" y1="261.20779445222695" x2="159.1304347826087" y2="261.20779445222695" fill="none" stroke="#6495ED" stroke-width="2" stroke-dasharray="2 5" stroke-dashoffset="74.34782608695653" /><line x1="159.1304347826087" y1="261.20779445222695" x2="183.91304347826087" y2="261.20779445222695" fill="none" stroke="#6495ED" stroke-width="2" stroke-dasharray="2 5" stroke-dashoffset="99.13043478260869" /><line x1="183.91304347826087" y1="261.20779445222695" x2="208.69565217391306" y2="261.20779445222695" fill="none" stroke="#6495ED" stroke-width="2" stroke-dasharray="2 5" stroke-dashoffset="123.91304347826087" /><line x1="208.69565217391306" y1="261.20779445222695" x2="233.47826086956525" y2="261.20779445222695" fill="none" stroke="#6495ED" stroke-width="2" stroke-dasharray="2 5" stroke-dashoffset="148.69565217391306" /><line x1="233.47826086956525" y1="261.20779445222695" x2="258.2608695652174" y2="261.20779445222695" fill="none" stroke="#6495ED" stroke-width="2" stroke-dasharray="2 5" stroke-dashoffset="173.47826086956525" /><line x1="258.2608695652174" y1="261.20779445222695" x2="283.04347826086956" y2="261.20779445222695" fill="none" stroke="#6495ED" stroke-width="2" stroke-dasharray="2 5" stroke-dashoffset="198.26086956521738" /><line x1="283.04347826086956" y1="261.20779445222695" x2="307.82608695652175" y2="261.20779445222695" fill="none" stroke="#6495ED" stroke-width="2" stroke-dasharray="2 5" stroke-dashoffset="223.04347826086956" /><line x1="307.82608695652175" y1="261.20779445222695" x2="332.6086956521739" y2="261.20779445222695" fill="none" stroke="#6495ED" stroke-width="2" stroke-dasharray="2 5" stroke-dashoffset="247.82608695652175" /><line x1="332.6086956521739" y1="261.20779445222695" x2="357.3913043478261" y2="261.20779445222695" fill="none" stroke="#6495ED" stroke-width="2" stroke-dasharray="2 5" stroke-dashoffset="272.6086956521739" /><line x1="357.3913043478261" y1="261.20779445222695" x2="382.17391304347825" y2="261.20779445222695" fill="none" stroke="#6495ED" stroke-width="2" stroke-dasharray="2 5" stroke-dashoffset="297.3913043478261" /><line x1="382.17391304347825" y1="261.20779445222695" x2="406.95652173913044" y2="261.20779445222695" fill="none" stroke="#6495ED" stroke-width="2" stroke-dasharray="2 5" stroke-dashoffset="322.17391304347825" /><line x1="406.95652173913044" y1="261.20779445222695" x2="431.7391304347826" y2="261.20779445222695" fill="none" stroke="#6495ED" stroke-width="2" stroke-dasharray="2 5" stroke-dashoffset="346.95652173913044" /><line x1="431.7391304347826" y1="261.20779445222695" x2="456.52173913043475" y2="261.20779445222695" fill="none" stroke="#6495ED" stroke-width="2" stroke-dasharray="2 5" stroke-dashoffset="371.7391304347826" /><line x1="456.52173913043475" y1="261.20779445222695" x2="481.30434782608694" y2="261.20779445222695" fill="none" stroke="#6495ED" stroke-width="2" stroke-dasharray="2 5" stroke-dashoffset="396.52173913043475" /><line x1="481.30434782608694" y1="261.20779445222695" x2="506.0869565217391" y2="261.20779445222695" fill="none" stroke="#6495ED" stroke-width="2" stroke-dasharray="2 5" stroke-dashoffset="421.30434782608694" /><line x1="506.0869565217391" y1="261.20779445222695" x2="530.8695652173913" y2="261.20779445222695" fill="none" stroke="#6495ED" stroke-width="2" stroke-dasharray="2 5" stroke-dashoffset="446.0869565217391" /><line x1="530.8695652173913" y1="261.20779445222695" x2="555.6521739130435" y2="261.20779445222695" fill="none" stroke="#6495ED" stroke-width="2" stroke-dasharray="2 5" stroke-dashoffset="470.86956521739125" /><line x1="555.6521739130435" y1="261.20779445222695" x2="580.4347826086956" y2="261.20779445222695" fill="none" stroke="#6495ED" stroke-width="2" stroke-dasharray="2 5" stroke-dashoffset="495.6521739130435" /><line x1="580.4347826086956" y1="261.20779445222695" x2="605.2173913043478" y2="261.20779445222695" fill="none" stroke="#6495ED" stroke-width="2" stroke-dasharray="2 5" stroke-dashoffset="520.4347826086956" /><line x1="605.2173913043478" y1="261.20779445222695" x2="630" y2="261.20779445222695" fill="none" stroke="#6495ED" stroke-width="2" stroke-dasharray="2 5" stroke-dashoffset="545.2173913043478" /></g><g style="stroke-opacity:1" class="linegroup"><line x1="60" y1="135.14026557579007" x2="84.78260869565217" y2="135.14026557579007" fill="none" stroke="#6495ED" stroke-width="2" stroke-dasharray="2 5" stroke-dashoffset="0" /><line x1="84.78260869565217" y1="135.14026557579007" x2="109.56521739130434" y2="135.14026557579007" fill="none" stroke="#6495ED" stroke-width="2" stroke-dasharray="2 5" stroke-dashoffset="24.782608695652172" /><line x1="109.56521739130434" y1="135.14026557579007" x2="134.34782608695653" y2="135.14026557579007" fill="none" stroke="#6495ED" stroke-width="2" stroke-dasharray="2 5" stroke-dashoffset="49.565217391304344" /><line x1="134.34782608695653" y1="135.14026557579007" x2="159.1304347826087" y2="135.14026557579007" fill="none" stroke="#6495ED" stroke-width="2" stroke-dasharray="2 5" stroke-dashoffset="74.34782608695653" /><line x1="159.1304347826087" y1="135.14026557579007" x2="183.91304347826087" y2="135.14026557579007" fill="none" stroke="#6495ED" stroke-width="2" stroke-dasharray="2 5" stroke-dashoffset="99.13043478260869" /><line x1="183.91304347826087" y1="135.14026557579007" x2="208.69565217391306" y2="135.14026557579007" fill="none" stroke="#6495ED" stroke-width="2" stroke-dasharray="2 5" stroke-dashoffset="123.91304347826087" /><line x1="208.69565217391306" y1="135.14026557579007" x2="233.47826086956525" y2="135.14026557579007" fill="none" stroke="#6495ED" stroke-width="2" stroke-dasharray="2 5" stroke-dashoffset="148.69565217391306" /><line x1="233.47826086956525" y1="135.14026557579007" x2="258.2608695652174" y2="135.14026557579007" fill="none" stroke="#6495ED" stroke-width="2" stroke-dasharray="2 5" stroke-dashoffset="173.47826086956525" /><line x1="258.2608695652174" y1="135.14026557579007" x2="283.04347826086956" y2="135.14026557579007" fill="none" stroke="#6495ED" stroke-width="2" stroke-dasharray="2 5" stroke-dashoffset="198.26086956521738" /><line x1="283.04347826086956" y1="135.14026557579007" x2="307.82608695652175" y2="135.14026557579007" fill="none" stroke="#6495ED" stroke-width="2" stroke-dasharray="2 5" stroke-dashoffset="223.04347826086956" /><line x1="307.82608695652175" y1="135.14026557579007" x2="332.6086956521739" y2="135.14026557579007" fill="none" stroke="#6495ED" stroke-width="2" stroke-dasharray="2 5" stroke-dashoffset="247.82608695652175" /><line x1="332.6086956521739" y1="135.14026557579007" x2="357.3913043478261" y2="135.14026557579007" fill="none" stroke="#6495ED" stroke-width="2" stroke-dasharray="2 5" stroke-dashoffset="272.6086956521739" /><line x1="357.3913043478261" y1="135.14026557579007" x2="382.17391304347825" y2="135.14026557579007" fill="none" stroke="#6495ED" stroke-width="2" stroke-dasharray="2 5" stroke-dashoffset="297.3913043478261" /><line x1="382.17391304347825" y1="135.14026557579007" x2="406.95652173913044" y2="135.14026557579007" fill="none" stroke="#6495ED" stroke-width="2" stroke-dasharray="2 5" stroke-dashoffset="322.17391304347825" /><line x1="406.95652173913044" y1="135.14026557579007" x2="431.7391304347826" y2="135.14026557579007" fill="none" stroke="#6495ED" stroke-width="2" stroke-dasharray="2 5" stroke-dashoffset="346.95652173913044" /><line x1="431.7391304347826" y1="135.14026557579007" x2="456.52173913043475" y2="135.14026557579007" fill="none" stroke="#6495ED" stroke-width="2" stroke-dasharray="2 5" stroke-dashoffset="371.7391304347826" /><line x1="456.52173913043475" y1="135.14026557579007" x2="481.30434782608694" y2="135.14026557579007" fill="none" stroke="#6495ED" stroke-width="2" stroke-dasharray="2 5" stroke-dashoffset="396.52173913043475" /><line x1="481.30434782608694" y1="135.14026557579007" x2="506.0869565217391" y2="135.14026557579007" fill="none" stroke="#6495ED" stroke-width="2" stroke-dasharray="2 5" stroke-dashoffset="421.30434782608694" /><line x1="506.0869565217391" y1="135.14026557579007" x2="530.8695652173913" y2="135.14026557579007" fill="none" stroke="#6495ED" stroke-width="2" stroke-dasharray="2 5" stroke-dashoffset="446.0869565217391" /><line x1="530.8695652173913" y1="135.14026557579007" x2="555.6521739130435" y2="135.14026557579007" fill="none" stroke="#6495ED" stroke-width="2" stroke-dasharray="2 5" stroke-dashoffset="470.86956521739125" /><line x1="555.6521739130435" y1="135.14026557579007" x2="580.4347826086956" y2="135.14026557579007" fill="none" stroke="#6495ED" stroke-width="2" stroke-dasharray="2 5" stroke-dashoffset="495.6521739130435" /><line x1="580.4347826086956" y1="135.14026557579007" x2="605.2173913043478" y2="135.14026557579007" fill="none" stroke="#6495ED" stroke-width="2" stroke-dasharray="2 5" stroke-dashoffset="520.4347826086956" /><line x1="605.2173913043478" y1="135.14026557579007" x2="630" y2="135.14026557579007" fill="none" stroke="#6495ED" stroke-width="2" stroke-dasharray="2 5" stroke-dashoffset="545.2173913043478" /></g><text x="630" y="233.86933718511818" fill="#000000" font-size="10px" font-family="'Arial', sans-serif" text-anchor="start" dx="10px" dy="0px" /><text x="630" y="198.17403001400848" fill="#000000" font-size="10px" font-family="'Arial', sans-serif" text-anchor="start" dx="10px" dy="0px" /><text x="630" y="292.72467667133617" fill="#000000" font-size="10px" font-family="'Arial', sans-serif" text-anchor="start" dx="10px" dy="0px" /><text x="630" y="103.62338335668079" fill="#000000" font-size="10px" font-family="'Arial', sans-serif" text-anchor="start" dx="10px" dy="0px" /><text x="630" y="261.20779445222695" fill="#000000" font-size="10px" font-family="'Arial', sans-serif" text-anchor="start" dx="10px" dy="0px" /><text x="630" y="135.14026557579007" fill="#000000" font-size="10px" font-family="'Arial', sans-serif" text-anchor="start" dx="10px" dy="0px" /></g><g class="dotsgroup"><path style="fill:#A6A6A6;stroke:#A6A6A6;stroke-width:1;fill-opacity:1;stroke-opacity:1" d="M2.5,0A2.5,2.5,0,1,1,-2.5,0A2.5,2.5,0,1,1,2.5,0" transform="translate(60, 190.07044265343413)" /><path style="fill:#A6A6A6;stroke:#A6A6A6;stroke-width:1;fill-opacity:1;stroke-opacity:1" d="M2.5,0A2.5,2.5,0,1,1,-2.5,0A2.5,2.5,0,1,1,2.5,0" transform="translate(84.78260869565217, 170.05790724522413)" /><path style="fill:#A6A6A6;stroke:#A6A6A6;stroke-width:1;fill-opacity:1;stroke-opacity:1" d="M2.5,0A2.5,2.5,0,1,1,-2.5,0A2.5,2.5,0,1,1,2.5,0" transform="translate(109.56521739130434, 150.17343916288928)" /><path style="fill:#A6A6A6;stroke:#A6A6A6;stroke-width:1;fill-opacity:1;stroke-opacity:1" d="M2.5,0A2.5,2.5,0,1,1,-2.5,0A2.5,2.5,0,1,1,2.5,0" transform="translate(134.34782608695653, 251.47139933380384)" /><path style="fill:#A6A6A6;stroke:#A6A6A6;stroke-width:1;fill-opacity:1;stroke-opacity:1" d="M2.5,0A2.5,2.5,0,1,1,-2.5,0A2.5,2.5,0,1,1,2.5,0" transform="translate(159.1304347826087, 197.81874323103213)" /><path style="fill:#A6A6A6;stroke:#A6A6A6;stroke-width:1;fill-opacity:1;stroke-opacity:1" d="M2.5,0A2.5,2.5,0,1,1,-2.5,0A2.5,2.5,0,1,1,2.5,0" transform="translate(183.91304347826087, 188.38442499061372)" /><path style="fill:#A6A6A6;stroke:#A6A6A6;stroke-width:1;fill-opacity:1;stroke-opacity:1" d="M2.5,0A2.5,2.5,0,1,1,-2.5,0A2.5,2.5,0,1,1,2.5,0" transform="translate(208.69565217391306, 185.72427241455622)" /><path style="fill:#A6A6A6;stroke:#A6A6A6;stroke-width:1;fill-opacity:1;stroke-opacity:1" d="M2.5,0A2.5,2.5,0,1,1,-2.5,0A2.5,2.5,0,1,1,2.5,0" transform="translate(233.47826086956525, 250.7265407520374)" /><path style="fill:#A6A6A6;stroke:#A6A6A6;stroke-width:1;fill-opacity:1;stroke-opacity:1" d="M2.5,0A2.5,2.5,0,1,1,-2.5,0A2.5,2.5,0,1,1,2.5,0" transform="translate(258.2608695652174, 248.47609577491923)" /><path style="fill:#A6A6A6;stroke:#A6A6A6;stroke-width:1;fill-opacity:1;stroke-opacity:1" d="M2.5,0A2.5,2.5,0,1,1,-2.5,0A2.5,2.5,0,1,1,2.5,0" transform="translate(283.04347826086956, 248.49200787617517)" /><path style="fill:#00B0F0;stroke:#00B0F0;stroke-width:1;fill-opacity:1;stroke-opacity:1" d="M2.5,0A2.5,2.5,0,1,1,-2.5,0A2.5,2.5,0,1,1,2.5,0" transform="translate(307.82608695652175, 72.72467667133614)" /><path style="fill:#A6A6A6;stroke:#A6A6A6;stroke-width:1;fill-opacity:1;stroke-opacity:1" d="M2.5,0A2.5,2.5,0,1,1,-2.5,0A2.5,2.5,0,1,1,2.5,0" transform="translate(332.6086956521739, 193.35997376755438)" /><path style="fill:#A6A6A6;stroke:#A6A6A6;stroke-width:1;fill-opacity:1;stroke-opacity:1" d="M2.5,0A2.5,2.5,0,1,1,-2.5,0A2.5,2.5,0,1,1,2.5,0" transform="translate(357.3913043478261, 212.76179137988893)" /><path style="fill:#A6A6A6;stroke:#A6A6A6;stroke-width:1;fill-opacity:1;stroke-opacity:1" d="M2.5,0A2.5,2.5,0,1,1,-2.5,0A2.5,2.5,0,1,1,2.5,0" transform="translate(382.17391304347825, 192.17600394130852)" /><path style="fill:#A6A6A6;stroke:#A6A6A6;stroke-width:1;fill-opacity:1;stroke-opacity:1" d="M2.5,0A2.5,2.5,0,1,1,-2.5,0A2.5,2.5,0,1,1,2.5,0" transform="translate(406.95652173913044, 171.15922259301067)" /><path style="fill:#A6A6A6;stroke:#A6A6A6;stroke-width:1;fill-opacity:1;stroke-opacity:1" d="M2.5,0A2.5,2.5,0,1,1,-2.5,0A2.5,2.5,0,1,1,2.5,0" transform="translate(431.7391304347826, 170.5308693654943)" /><path style="fill:#A6A6A6;stroke:#A6A6A6;stroke-width:1;fill-opacity:1;stroke-opacity:1" d="M2.5,0A2.5,2.5,0,1,1,-2.5,0A2.5,2.5,0,1,1,2.5,0" transform="translate(456.52173913043475, 274.4424733057476)" /><path style="fill:#A6A6A6;stroke:#A6A6A6;stroke-width:1;fill-opacity:1;stroke-opacity:1" d="M2.5,0A2.5,2.5,0,1,1,-2.5,0A2.5,2.5,0,1,1,2.5,0" transform="translate(481.30434782608694, 177.33775814723262)" /><path style="fill:#A6A6A6;stroke:#A6A6A6;stroke-width:1;fill-opacity:1;stroke-opacity:1" d="M2.5,0A2.5,2.5,0,1,1,-2.5,0A2.5,2.5,0,1,1,2.5,0" transform="translate(506.0869565217391, 199.34437717415804)" /><path style="fill:#A6A6A6;stroke:#A6A6A6;stroke-width:1;fill-opacity:1;stroke-opacity:1" d="M2.5,0A2.5,2.5,0,1,1,-2.5,0A2.5,2.5,0,1,1,2.5,0" transform="translate(530.8695652173913, 206.81043332235367)" /><path style="fill:#A6A6A6;stroke:#A6A6A6;stroke-width:1;fill-opacity:1;stroke-opacity:1" d="M2.5,0A2.5,2.5,0,1,1,-2.5,0A2.5,2.5,0,1,1,2.5,0" transform="translate(555.6521739130435, 172.7622841757283)" /><path style="fill:#A6A6A6;stroke:#A6A6A6;stroke-width:1;fill-opacity:1;stroke-opacity:1" d="M2.5,0A2.5,2.5,0,1,1,-2.5,0A2.5,2.5,0,1,1,2.5,0" transform="translate(580.4347826086956, 181.32581757001566)" /><path style="fill:#A6A6A6;stroke:#A6A6A6;stroke-width:1;fill-opacity:1;stroke-opacity:1" d="M2.5,0A2.5,2.5,0,1,1,-2.5,0A2.5,2.5,0,1,1,2.5,0" transform="translate(605.2173913043478, 216.17642830257176)" /><path style="fill:#A6A6A6;stroke:#A6A6A6;stroke-width:1;fill-opacity:1;stroke-opacity:1" d="M2.5,0A2.5,2.5,0,1,1,-2.5,0A2.5,2.5,0,1,1,2.5,0" transform="translate(630, 233.86933718511818)" /></g></svg>