<svg viewBox="0 0 640 400" width="640px" height="400px" xmlns="http://www.w3.org/2000/svg"><rect x="0" y="0" width="100%" height="100%" fill="white"/><line style="stroke-opacity:0" class="ttip-line-x" x1="0" x2="0" y1="10" y2="355" stroke-width="1px" stroke="black" /><line style="stroke-opacity:0" class="ttip-line-y" x1="60" x2="630" y1="0" y2="0" stroke-width="1px" stroke="black" /><g class="gridgroup" /><g class="xaxisgroup" fill="none" font-size="10" font-family="sans-serif" text-anchor="middle" color="#000000" transform="translate(0, 355)"><path class="domain" stroke="currentColor" d="M60.5,6V0.5H630.5V6" /><g class="tick" opacity="1" transform="translate(60.5,0)"><line style="stroke:currentColor" stroke="currentColor" y2="6" /><text style="text-anchor:end;font-size:10px;font-family:'Arial', sans-serif;fill:#000000" fill="currentColor" y="9" dy="-.15em" dx="-.8em" transform="rotate(-35)"> 01/01/2024</text></g><g class="tick" opacity="1" transform="translate(110.06521739130434,0)"><line style="stroke:currentColor" stroke="currentColor" y2="6" /><text style="text-anchor:end;font-size:10px;font-family:'Arial', sans-serif;fill:#000000" fill="currentColor" y="9" dy="-.15em" dx="-.8em" transform="rotate(-35)"> 01/03/2024</text></g><g class="tick" opacity="1" transform="translate(159.6304347826087,0)"><line style="stroke:currentColor" stroke="currentColor" y2="6" /><text style="text-anchor:end;font-size:10px;font-family:'Arial', sans-serif;fill:#000000" fill="currentColor" y="9" dy="-.15em" dx="-.8em" transform="rotate(-35)"> 01/05/2024</text></g><g class="tick" opacity="1" transform="translate(209.19565217391303,0)"><line style="stroke:currentColor" stroke="currentColor" y2="6" /><text style="text-anchor:end;font-size:10px;font-family:'Arial', sans-serif;fill:#000000" fill="currentColor" y="9" dy="-.15em" dx="-.8em" transform="rotate(-35)"> 01/07/2024</text></g><g class="tick" opacity="1" transform="translate(258.7608695652174,0)"><line style="stroke:currentColor" stroke="currentColor" y2="6" /><text style="text-anchor:end;font-size:10px;font-family:'Arial', sans-serif;fill:#000000" fill="currentColor" y="9" dy="-.15em" dx="-.8em" transform="rotate(-35)"> 01/09/2024</text></g><g class="tick" opacity="1" transform="translate(308.32608695652175,0)"><line style="stroke:currentColor" stroke="currentColor" y2="6" /><text style="text-anchor:end;font-size:10px;font-family:'Arial', sans-serif;fill:#000000" fill="currentColor" y="9" dy="-.15em" dx="-.8em" transform="rotate(-35)"> 01/11/2024</text></g><g class="tick" opacity="1" transform="translate(357.89130434782606,0)"><line style="stroke:currentColor" stroke="currentColor" y2="6" /><text style="text-anchor:end;font-size:10px;font-family:'Arial', sans-serif;fill:#000000" fill="currentColor" y="9" dy="-.15em" dx="-.8em" transform="rotate(-35)"> 01/01/2025</text></g><g class="tick" opacity="1" transform="translate(407.45652173913044,0)"><line style="stroke:currentColor" stroke="currentColor" y2="6" /><text style="text-anchor:end;font-size:10px;font-family:'Arial', sans-serif;fill:#000000" fill="currentColor" y="9" dy="-.15em" dx="-.8em" transform="rotate(-35)"> 01/03/2025</text></g><g class="tick" opacity="1" transform="translate(457.02173913043475,0)"><line style="stroke:currentColor" stroke="currentColor" y2="6" /><text style="text-anchor:end;font-size:10px;font-family:'Arial', sans-serif;fill:#000000" fill="currentColor" y="9" dy="-.15em" dx="-.8em" transform="rotate(-35)"> 01/05/2025</text></g><g class="tick" opacity="1" transform="translate(506.5869565217391,0)"><line style="stroke:currentColor" stroke="currentColor" y2="6" /><text style="text-anchor:end;font-size:10px;font-family:'Arial', sans-serif;fill:#000000" fill="currentColor" y="9" dy="-.15em" dx="-.8em" transform="rotate(-35)"> 01/07/2025</text></g><g class="tick" opacity="1" transform="translate(556.1521739130435,0)"><line style="stroke:currentColor" stroke="currentColor" y2="6" /><text style="text-anchor:end;font-size:10px;font-family:'Arial', sans-serif;fill:#000000" fill="currentColor" y="9" dy="-.15em" dx="-.8em" transform="rotate(-35)"> 01/09/2025</text></g><g class="tick" opacity="1" transform="translate(605.7173913043479,0)"><line style="stroke:currentColor" stroke="currentColor" y2="6" /><text style="text-anchor:end;font-size:10px;font-family:'Arial', sans-serif;fill:#000000" fill="currentColor" y="9" dy="-.15em" dx="-.8em" transform="rotate(-35)"> 01/11/2025</text></g></g><text style="text-anchor:middle;font-size:10px;font-style:normal;font-family:'Arial', sans-serif;fill:#000000" class="xaxislabel" x="320" y="385" /><g class="yaxisgroup" fill="none" font-size="10" font-family="sans-serif" text-anchor="end" color="#000000" transform="translate(60, 0)"><path class="domain" stroke="currentColor" d="M-6,355.5H0.5V10.5H-6" /><g class="tick" opacity="1" transform="translate(0,344.7626888968306)"><line style="stroke:currentColor" stroke="currentColor" x2="-6" /><text style="text-anchor:right;font-size:10px;font-family:'Arial', sans-serif;fill:#000000" fill="currentColor" x="-9" dy="0.32em" transform="rotate(0)">88.00</text></g><g class="tick" opacity="1" transform="translate(0,311.42993403939084)"><line style="stroke:currentColor" stroke="currentColor" x2="-6" /><text style="text-anchor:right;font-size:10px;font-family:'Arial', sans-serif;fill:#000000" fill="currentColor" x="-9" dy="0.32em" transform="rotate(0)">89.00</text></g><g class="tick" opacity="1" transform="translate(0,278.09717918195116)"><line style="stroke:currentColor" stroke="currentColor" x2="-6" /><text style="text-anchor:right;font-size:10px;font-family:'Arial', sans-serif;fill:#000000" fill="currentColor" x="-9" dy="0.32em" transform="rotate(0)">90.00</text></g><g class="tick" opacity="1" transform="translate(0,244.76442432451142)"><line style="stroke:currentColor" stroke="currentColor" x2="-6" /><text style="text-anchor:right;font-size:10px;font-family:'Arial', sans-serif;fill:#000000" fill="currentColor" x="-9" dy="0.32em" transform="rotate(0)">91.00</text></g><g class="tick" opacity="1" transform="translate(0,211.4316694670717)"><line style="stroke:currentColor" stroke="currentColor" x2="-6" /><text style="text-anchor:right;font-size:10px;font-family:'Arial', sans-serif;fill:#000000" fill="currentColor" x="-9" dy="0.32em" transform="rotate(0)">92.00</text></g><g class="tick" opacity="1" transform="translate(0,178.09891460963198)"><line style="stroke:currentColor" stroke="currentColor" x2="-6" /><text style="text-anchor:right;font-size:10px;font-family:'Arial', sans-serif;fill:#000000" fill="currentColor" x="-9" dy="0.32em" transform="rotate(0)">93.00</text></g><g class="tick" opacity="1" transform="translate(0,144.7661597521923)"><line style="stroke:currentColor" stroke="currentColor" x2="-6" /><text style="text-anchor:right;font-size:10px;font-family:'Arial', sans-serif;fill:#000000" fill="currentColor" x="-9" dy="0.32em" transform="rotate(0)">94.00</text></g><g class="tick" opacity="1" transform="translate(0,111.43340489475256)"><line style="stroke:currentColor" stroke="currentColor" x2="-6" /><text style="text-anchor:right;font-size:10px;font-family:'Arial', sans-serif;fill:#000000" fill="currentColor" x="-9" dy="0.32em" transform="rotate(0)">95.00</text></g><g class="tick" opacity="1" transform="translate(0,78.10065003731285)"><line style="stroke:currentColor" stroke="currentColor" x2="-6" /><text style="text-anchor:right;font-size:10px;font-family:'Arial', sans-serif;fill:#000000" fill="currentColor" x="-9" dy="0.32em" transform="rotate(0)">96.00</text></g><g class="tick" opacity="1" transform="translate(0,44.76789517987311)"><line style="stroke:currentColor" stroke="currentColor" x2="-6" /><text style="text-anchor:right;font-size:10px;font-family:'Arial', sans-serif;fill:#000000" fill="currentColor" x="-9" dy="0.32em" transform="rotate(0)">97.00</text></g><g class="tick" opacity="1" transform="translate(0,11.435140322433426)"><line style="stroke:currentColor" stroke="currentColor" x2="-6" /><text style="text-anchor:right;font-size:10px;font-family:'Arial', sans-serif;fill:#000000" fill="currentColor" x="-9" dy="0.32em" transform="rotate(0)">98.00</text></g></g><text style="text-anchor:middle;font-size:10px;font-style:normal;font-family:'Arial', sans-serif;fill:#000000" class="yaxislabel" x="30" y="200" transform="rotate(-90, 30, 200)" /><g class="linesgroup"><g style="stroke-opacity:1" class="values-linegroup"><path d="M60,71.637L84.783,47.597L109.565,111.887L134.348,146.141L159.13,190.26L183.913,125.52L208.696,127.601L233.478,134.951L258.261,139.316L283.043,79.702L307.826,105.014L332.609,120.25L357.391,128.249L382.174,116.153L406.957,196.207L431.739,142.853L456.522,142.423L481.304,121.613L506.087,152.24L530.87,126.1L555.652,110.512L580.435,110.978L605.217,117.242L630,82.55" fill="none" stroke="#A6A6A6" stroke-dasharray="10 0" stroke-width="1" /></g><g style="stroke-opacity:1" class="targets-linegroup"><path d="M60,122.792L84.783,122.792L109.565,122.792L134.348,122.792L159.13,122.792L183.913,122.792L208.696,122.792L233.478,122.792L258.261,122.792L283.043,122.792L307.826,122.792L332.609,122.792L357.391,122.792L382.174,122.792L406.957,122.792L431.739,122.792L456.522,122.792L481.304,122.792L506.087,122.792L530.87,122.792L555.652,122.792L580.435,122.792L605.217,122.792L630,122.792" fill="none" stroke="#000000" stroke-dasharray="10 0" stroke-width="1.5" /></g><g style="stroke-opacity:1" class="alt_targets-linegroup"><path d="M60,277.597L84.783,277.597L109.565,277.597L134.348,277.597L159.13,277.597L183.913,277.597L208.696,277.597L233.478,277.597L258.261,277.597L283.043,277.597L307.826,277.597L332.609,277.597L357.391,277.597L382.174,277.597L406.957,277.597L431.739,277.597L456.522,277.597L481.304,277.597L506.087,277.597L530.87,277.597L555.652,277.597L580.435,277.597L605.217,277.597L630,277.597" fill="none" stroke="#E69F00" stroke-dasharray="10 0" stroke-width="1.5" /></g><g style="stroke-opacity:1" class="ll99-linegroup"><path d="M60,196.095L84.783,196.095L109.565,196.095L134.348,196.095L159.13,196.095L183.913,196.095L208.696,196.095L233.478,196.095L258.261,196.095L283.043,196.095L307.826,196.095L332.609,196.095L357.391,196.095L382.174,196.095L406.957,196.095L431.739,196.095L456.522,196.095L481.304,196.095L506.087,196.095L530.87,196.095L555.652,196.095L580.435,196.095L605.217,196.095L630,196.095" fill="none" stroke="#6495ED" stroke-dasharray="10 10" stroke-width="2" /></g><g style="stroke-opacity:1" class="ul99-linegroup"><path d="M60,49.488L84.783,49.488L109.565,49.488L134.348,49.488L159.13,49.488L183.913,49.488L208.696,49.488L233.478,49.488L258.261,49.488L283.043,49.488L307.826,49.488L332.609,49.488L357.391,49.488L382.174,49.488L406.957,49.488L431.739,49.488L456.522,49.488L481.304,49.488L506.087,49.488L530.87,49.488L555.652,49.488L580.435,49.488L605.217,49.488L630,49.488" fill="none" stroke="#6495ED" stroke-dasharray="10 10" stroke-width="2" /></g><g style="stroke-opacity:1" class="ll95-linegroup"><path d="M60,171.66L84.783,171.66L109.565,171.66L134.348,171.66L159.13,171.66L183.913,171.66L208.696,171.66L233.478,171.66L258.261,171.66L283.043,171.66L307.826,171.66L332.609,171.66L357.391,171.66L382.174,171.66L406.957,171.66L431.739,171.66L456.522,171.66L481.304,171.66L506.087,171.66L530.87,171.66L555.652,171.66L580.435,171.66L605.217,171.66L630,171.66" fill="none" stroke="#6495ED" stroke-dasharray="2 5" stroke-width="2" /></g><g style="stroke-opacity:1" class="ul95-linegroup"><path d="M60,73.923L84.783,73.923L109.565,73.923L134.348,73.923L159.13,73.923L183.913,73.923L208.696,73.923L233.478,73.923L258.261,73.923L283.043,73.923L307.826,73.923L332.609,73.923L357.391,73.923L382.174,73.923L406.957,73.923L431.739,73.923L456.522,73.923L481.304,73.923L506.087,73.923L530.87,73.923L555.652,73.923L580.435,73.923L605.217,73.923L630,73.923" fill="none" stroke="#6495ED" stroke-dasharray="2 5" stroke-width="2" /></g><text x="630" y="82.54979430334407" fill="#000000" font-size="10px" font-family="'Arial', sans-serif" text-anchor="start" dx="10px" dy="0px" /><text x="630" y="122.79153754585391" fill="#000000" font-size="10px" font-family="'Arial', sans-serif" text-anchor="start" dx="10px" dy="0px" /><text x="630" y="277.59717918195116" fill="#000000" font-size="10px" font-family="'Arial', sans-serif" text-anchor="start" dx="10px" dy="0px" /><text x="630" y="196.0945926340001" fill="#000000" font-size="10px" font-family="'Arial', sans-serif" text-anchor="start" dx="10px" dy="0px" /><text x="630" y="49.488482457707676" fill="#000000" font-size="10px" font-family="'Arial', sans-serif" text-anchor="start" dx="10px" dy="0px" /><text x="630" y="171.66024093795153" fill="#000000" font-size="10px" font-family="'Arial', sans-serif" text-anchor="start" dx="10px" dy="0px" /><text x="630" y="73.9228341537563" fill="#000000" font-size="10px" font-family="'Arial', sans-serif" text-anchor="start" dx="10px" dy="0px" /></g><g class="dotsgroup"><path style="fill:#A6A6A6;stroke:#A6A6A6;stroke-width:1;fill-opacity:1;stroke-opacity:1" d="M2.5,0A2.5,2.5,0,1,1,-2.5,0A2.5,2.5,0,1,1,2.5,0" transform="translate(60, 71.63696647928538)" /><path style="fill:#00B0F0;stroke:#00B0F0;stroke-width:1;fill-opacity:1;stroke-opacity:1" d="M2.5,0A2.5,2.5,0,1,1,-2.5,0A2.5,2.5,0,1,1,2.5,0" transform="translate(84.78260869565217, 47.597179181951276)" /><path style="fill:#A6A6A6;stroke:#A6A6A6;stroke-width:1;fill-opacity:1;stroke-opacity:1" d="M2.5,0A2.5,2.5,0,1,1,-2.5,0A2.5,2.5,0,1,1,2.5,0" transform="translate(109.56521739130434, 111.88708177841579)" /><path style="fill:#A6A6A6;stroke:#A6A6A6;stroke-width:1;fill-opacity:1;stroke-opacity:1" d="M2.5,0A2.5,2.5,0,1,1,-2.5,0A2.5,2.5,0,1,1,2.5,0" transform="translate(134.3478260869565, 146.14140929522833)" /><path style="fill:#A6A6A6;stroke:#A6A6A6;stroke-width:1;fill-opacity:1;stroke-opacity:1" d="M2.5,0A2.5,2.5,0,1,1,-2.5,0A2.5,2.5,0,1,1,2.5,0" transform="translate(159.1304347826087, 190.26048276325324)" /><path style="fill:#A6A6A6;stroke:#A6A6A6;stroke-width:1;fill-opacity:1;stroke-opacity:1" d="M2.5,0A2.5,2.5,0,1,1,-2.5,0A2.5,2.5,0,1,1,2.5,0" transform="translate(183.91304347826087, 125.5199929962871)" /><path style="fill:#A6A6A6;stroke:#A6A6A6;stroke-width:1;fill-opacity:1;stroke-opacity:1" d="M2.5,0A2.5,2.5,0,1,1,-2.5,0A2.5,2.5,0,1,1,2.5,0" transform="translate(208.69565217391303, 127.60076464009535)" /><path style="fill:#A6A6A6;stroke:#A6A6A6;stroke-width:1;fill-opacity:1;stroke-opacity:1" d="M2.5,0A2.5,2.5,0,1,1,-2.5,0A2.5,2.5,0,1,1,2.5,0" transform="translate(233.47826086956522, 134.95057411621804)" /><path style="fill:#A6A6A6;stroke:#A6A6A6;stroke-width:1;fill-opacity:1;stroke-opacity:1" d="M2.5,0A2.5,2.5,0,1,1,-2.5,0A2.5,2.5,0,1,1,2.5,0" transform="translate(258.2608695652174, 139.31626077825783)" /><path style="fill:#A6A6A6;stroke:#A6A6A6;stroke-width:1;fill-opacity:1;stroke-opacity:1" d="M2.5,0A2.5,2.5,0,1,1,-2.5,0A2.5,2.5,0,1,1,2.5,0" transform="translate(283.04347826086956, 79.70183796381195)" /><path style="fill:#A6A6A6;stroke:#A6A6A6;stroke-width:1;fill-opacity:1;stroke-opacity:1" d="M2.5,0A2.5,2.5,0,1,1,-2.5,0A2.5,2.5,0,1,1,2.5,0" transform="translate(307.82608695652175, 105.01380071131686)" /><path style="fill:#A6A6A6;stroke:#A6A6A6;stroke-width:1;fill-opacity:1;stroke-opacity:1" d="M2.5,0A2.5,2.5,0,1,1,-2.5,0A2.5,2.5,0,1,1,2.5,0" transform="translate(332.60869565217394, 120.24975355832336)" /><path style="fill:#A6A6A6;stroke:#A6A6A6;stroke-width:1;fill-opacity:1;stroke-opacity:1" d="M2.5,0A2.5,2.5,0,1,1,-2.5,0A2.5,2.5,0,1,1,2.5,0" transform="translate(357.39130434782606, 128.24914951043107)" /><path style="fill:#A6A6A6;stroke:#A6A6A6;stroke-width:1;fill-opacity:1;stroke-opacity:1" d="M2.5,0A2.5,2.5,0,1,1,-2.5,0A2.5,2.5,0,1,1,2.5,0" transform="translate(382.17391304347825, 116.15278788799424)" /><path style="fill:#E46C0A;stroke:#E46C0A;stroke-width:1;fill-opacity:1;stroke-opacity:1" d="M2.5,0A2.5,2.5,0,1,1,-2.5,0A2.5,2.5,0,1,1,2.5,0" transform="translate(406.95652173913044, 196.2074289227057)" /><path style="fill:#A6A6A6;stroke:#A6A6A6;stroke-width:1;fill-opacity:1;stroke-opacity:1" d="M2.5,0A2.5,2.5,0,1,1,-2.5,0A2.5,2.5,0,1,1,2.5,0" transform="translate(431.7391304347826, 142.85309514118754)" /><path style="fill:#A6A6A6;stroke:#A6A6A6;stroke-width:1;fill-opacity:1;stroke-opacity:1" d="M2.5,0A2.5,2.5,0,1,1,-2.5,0A2.5,2.5,0,1,1,2.5,0" transform="translate(456.52173913043475, 142.42297505569297)" /><path style="fill:#A6A6A6;stroke:#A6A6A6;stroke-width:1;fill-opacity:1;stroke-opacity:1" d="M2.5,0A2.5,2.5,0,1,1,-2.5,0A2.5,2.5,0,1,1,2.5,0" transform="translate(481.30434782608694, 121.61294767167462)" /><path style="fill:#A6A6A6;stroke:#A6A6A6;stroke-width:1;fill-opacity:1;stroke-opacity:1" d="M2.5,0A2.5,2.5,0,1,1,-2.5,0A2.5,2.5,0,1,1,2.5,0" transform="translate(506.0869565217391, 152.2400737519324)" /><path style="fill:#A6A6A6;stroke:#A6A6A6;stroke-width:1;fill-opacity:1;stroke-opacity:1" d="M2.5,0A2.5,2.5,0,1,1,-2.5,0A2.5,2.5,0,1,1,2.5,0" transform="translate(530.8695652173913, 126.09987120084901)" /><path style="fill:#A6A6A6;stroke:#A6A6A6;stroke-width:1;fill-opacity:1;stroke-opacity:1" d="M2.5,0A2.5,2.5,0,1,1,-2.5,0A2.5,2.5,0,1,1,2.5,0" transform="translate(555.6521739130435, 110.5122796835829)" /><path style="fill:#A6A6A6;stroke:#A6A6A6;stroke-width:1;fill-opacity:1;stroke-opacity:1" d="M2.5,0A2.5,2.5,0,1,1,-2.5,0A2.5,2.5,0,1,1,2.5,0" transform="translate(580.4347826086956, 110.97793993676603)" /><path style="fill:#A6A6A6;stroke:#A6A6A6;stroke-width:1;fill-opacity:1;stroke-opacity:1" d="M2.5,0A2.5,2.5,0,1,1,-2.5,0A2.5,2.5,0,1,1,2.5,0" transform="translate(605.2173913043479, 117.2424537718951)" /><path style="fill:#A6A6A6;stroke:#A6A6A6;stroke-width:1;fill-opacity:1;stroke-opacity:1" d="M2.5,0A2.5,2.5,0,1,1,-2.5,0A2.5,2.5,0,1,1,2.5,0" transform="translate(630, 82.54979430334407)" /></g><g class="icongroup" transform="scale(0.08465608465608465) translate(7182, 0)"><defs><filter id="fx0" x="-10%" y="-10%" width="120%" height="120%" filterUnits="userSpaceOnUse" userSpaceOnUse="userSpaceOnUse"><feComponentTransfer color-interpolation-filters="sRGB"><feFuncR type="discrete" tableValues="0 0" /><feFuncG type="discrete" tableValues="0 0" /><feFuncB type="discrete" tableValues="0 0" /><feFuncA type="linear" slope="0.4" intercept="0" /></feComponentTransfer><feGaussianBlur stdDeviation="1.77778 1.77778" /></filter><clipPath id="clip1"><rect x="0" y="0" width="378" height="378" /></clipPath><clipPath id="clip2"><path d="M189 38C105.605 38 38 105.605 38 189 38 272.395 105.605 340 189 340 272.395 340 340 272.395 340 189 340 105.605 272.395 38 189 38ZM5.63264e-06 5.63264e-06 378 5.63264e-06 378 378 5.63264e-06 378Z" fill-rule="evenodd" clip-rule="evenodd" /></clipPath><clipPath id="clip3"><rect x="-2" y="-2" width="346" height="346" /></clipPath></defs><g class="commonCause" clip-path="url(#clip1)"><rect x="0" y="0" width="378" height="378" fill="#FFFFFF" /><g clip-path="url(#clip2)"><g clip-path="url(#clip3)" filter="url(#fx0)" transform="translate(16 25)"><g clip-path="url(#clip4)"><path d="M17.47 172.83C17.47 86.9332 87.1031 17.3 173 17.3 258.897 17.3 328.53 86.9332 328.53 172.83 328.53 258.727 258.897 328.36 173 328.36 87.1031 328.36 17.47 258.727 17.47 172.83Z" stroke="#A6A6A6" stroke-width="21" stroke-miterlimit="8" fill="#FFFFFF" fill-rule="evenodd" /></g></g></g><path d="M38 189C38 105.605 105.605 38 189 38 272.395 38 340 105.605 340 189 340 272.395 272.395 340 189 340 105.605 340 38 272.395 38 189Z" stroke="#A6A6A6" stroke-width="20" stroke-miterlimit="8" fill="#FFFFFF" fill-rule="evenodd" /><path d="M106.903 196.084 144.607 228.433 138.766 235.241 101.062 202.892Z" stroke="#A6A6A6" stroke-width="2.66667" stroke-miterlimit="8" fill="#A6A6A6" fill-rule="evenodd" /><path d="M146.159 218.909 179.921 159.846 187.708 164.298 153.946 223.361Z" stroke="#A6A6A6" stroke-width="2.66667" stroke-miterlimit="8" fill="#A6A6A6" fill-rule="evenodd" /><path d="M198.708 154.94 239.365 214.134 231.971 219.212 191.314 160.019Z" stroke="#A6A6A6" stroke-width="2.66667" stroke-miterlimit="8" fill="#A6A6A6" fill-rule="evenodd" /><path d="M238.825 216.117 285.383 198.784 288.512 207.19 241.954 224.523Z" stroke="#A6A6A6" stroke-width="2.66667" stroke-miterlimit="8" fill="#A6A6A6" fill-rule="evenodd" /><path d="M76.5001 195C76.5001 183.678 85.6782 174.5 97.0001 174.5 108.322 174.5 117.5 183.678 117.5 195 117.5 206.322 108.322 215.5 97.0001 215.5 85.6782 215.5 76.5001 206.322 76.5001 195Z" stroke="#A6A6A6" stroke-width="2.66667" stroke-miterlimit="8" fill="#A6A6A6" fill-rule="evenodd" /><path d="M123.5 233C123.5 221.678 132.678 212.5 144 212.5 155.322 212.5 164.5 221.678 164.5 233 164.5 244.322 155.322 253.5 144 253.5 132.678 253.5 123.5 244.322 123.5 233Z" stroke="#A6A6A6" stroke-width="2.66667" stroke-miterlimit="8" fill="#A6A6A6" fill-rule="evenodd" /><path d="M170.5 153.5C170.5 141.902 179.902 132.5 191.5 132.5 203.098 132.5 212.5 141.902 212.5 153.5 212.5 165.098 203.098 174.5 191.5 174.5 179.902 174.5 170.5 165.098 170.5 153.5Z" stroke="#A6A6A6" stroke-width="2.66667" stroke-miterlimit="8" fill="#A6A6A6" fill-rule="evenodd" /><path d="M217.5 221.5C217.5 209.902 226.902 200.5 238.5 200.5 250.098 200.5 259.5 209.902 259.5 221.5 259.5 233.098 250.098 242.5 238.5 242.5 226.902 242.5 217.5 233.098 217.5 221.5Z" stroke="#A6A6A6" stroke-width="2.66667" stroke-miterlimit="8" fill="#A6A6A6" fill-rule="evenodd" /><path d="M265.5 206.5C265.5 194.902 274.678 185.5 286 185.5 297.322 185.5 306.5 194.902 306.5 206.5 306.5 218.098 297.322 227.5 286 227.5 274.678 227.5 265.5 218.098 265.5 206.5Z" stroke="#A6A6A6" stroke-width="2.66667" stroke-miterlimit="8" fill="#A6A6A6" fill-rule="evenodd" /></g></g><g class="icongroup" transform="scale(0.08465608465608465) translate(6804, 0)"><defs><filter id="fx0" x="-10%" y="-10%" width="120%" height="120%" filterUnits="userSpaceOnUse" userSpaceOnUse="userSpaceOnUse"><feComponentTransfer color-interpolation-filters="sRGB"><feFuncR type="discrete" tableValues="0 0" /><feFuncG type="discrete" tableValues="0 0" /><feFuncB type="discrete" tableValues="0 0" /><feFuncA type="linear" slope="0.4" intercept="0" /></feComponentTransfer><feGaussianBlur stdDeviation="1.77778 1.77778" /></filter><clipPath id="clip1"><rect x="0" y="0" width="378" height="378" /></clipPath><clipPath id="clip2"><path d="M189 38C105.605 38 38 105.605 38 189 38 272.395 105.605 340 189 340 272.395 340 340 272.395 340 189 340 105.605 272.395 38 189 38ZM5.63264e-06 5.63264e-06 378 5.63264e-06 378 378 5.63264e-06 378Z" fill-rule="evenodd" clip-rule="evenodd" /></clipPath><clipPath id="clip3"><rect x="-2" y="-2" width="346" height="346" /></clipPath></defs><g class="consistentPass" clip-path="url(#clip1)"><rect x="0" y="0" width="378" height="378" fill="#FFFFFF" /><g clip-path="url(#clip2)"><g clip-path="url(#clip3)" filter="url(#fx0)" transform="translate(16 25)"><g clip-path="url(#clip4)"><path d="M17.47 172.83C17.47 86.9332 87.1031 17.3 173 17.3 258.897 17.3 328.53 86.9332 328.53 172.83 328.53 258.727 258.897 328.36 173 328.36 87.1031 328.36 17.47 258.727 17.47 172.83Z" stroke="#0072C6" stroke-width="21" stroke-miterlimit="8" fill="#FFFFFF" fill-rule="evenodd" /></g></g></g><path d="M38 189C38 105.605 105.605 38 189 38 272.395 38 340 105.605 340 189 340 272.395 272.395 340 189 340 105.605 340 38 272.395 38 189Z" stroke="#0072C6" stroke-width="20" stroke-miterlimit="8" fill="#FFFFFF" fill-rule="evenodd" /><text fill="#0072C6" font-family="Arial,Arial_MSFontService,sans-serif" font-weight="700" font-size="11.7" transform="translate(155.851 158) scale(10, 10)">P</text><path d="M55.5001 257.5 323.847 257.5" stroke="#0072C6" stroke-width="8.66667" stroke-miterlimit="8" stroke-dasharray="26 8.66667" fill="none" fill-rule="evenodd" /><path d="M72.5001 238.762C89.0456 218.168 107.725 200.801 129.638 200.507 152.134 201.459 176.57 238.689 192.563 241.313 206.31 244.118 205.897 217.733 212.814 216.659 217.563 215.414 220.151 238.182 233.066 240.463 248.557 243.786 291.62 234.385 302.5 236.212" stroke="#7F7F7F" stroke-width="10.66667" stroke-miterlimit="8" fill="none" fill-rule="evenodd" /></g></g></svg>