<svg viewBox="0 0 640 400" width="640px" height="400px" xmlns="http://www.w3.org/2000/svg"><rect x="0" y="0" width="100%" height="100%" fill="white"/><line style="stroke-opacity:0" class="ttip-line-x" x1="0" x2="0" y1="10" y2="340" stroke-width="1px" stroke="black" /><line style="stroke-opacity:0" class="ttip-line-y" x1="60" x2="630" y1="0" y2="0" stroke-width="1px" stroke="black" /><g class="xaxisgroup" fill="none" font-size="10" font-family="sans-serif" text-anchor="middle" color="#000000" transform="translate(0, 340)"><path class="domain" stroke="currentColor" d="M60.5,6V0.5H630.5V6" /><g class="tick" opacity="1" transform="translate(60.5,0)"><line stroke="currentColor" y2="6" /><text style="text-anchor:end;font-size:10px;font-family:'Arial', sans-serif;fill:#000000" fill="currentColor" y="9" dy="-.15em" dx="-.8em" transform="rotate(-35)"> 01/01/2024</text></g><g class="tick" opacity="1" transform="translate(110.06521739130434,0)"><line stroke="currentColor" y2="6" /><text style="text-anchor:end;font-size:10px;font-family:'Arial', sans-serif;fill:#000000" fill="currentColor" y="9" dy="-.15em" dx="-.8em" transform="rotate(-35)"> 01/03/2024</text></g><g class="tick" opacity="1" transform="translate(159.6304347826087,0)"><line stroke="currentColor" y2="6" /><text style="text-anchor:end;font-size:10px;font-family:'Arial', sans-serif;fill:#000000" fill="currentColor" y="9" dy="-.15em" dx="-.8em" transform="rotate(-35)"> 01/05/2024</text></g><g class="tick" opacity="1" transform="translate(209.19565217391303,0)"><line stroke="currentColor" y2="6" /><text style="text-anchor:end;font-size:10px;font-family:'Arial', sans-serif;fill:#000000" fill="currentColor" y="9" dy="-.15em" dx="-.8em" transform="rotate(-35)"> 01/07/2024</text></g><g class="tick" opacity="1" transform="translate(258.7608695652174,0)"><line stroke="currentColor" y2="6" /><text style="text-anchor:end;font-size:10px;font-family:'Arial', sans-serif;fill:#000000" fill="currentColor" y="9" dy="-.15em" dx="-.8em" transform="rotate(-35)"> 01/09/2024</text></g><g class="tick" opacity="1" transform="translate(308.32608695652175,0)"><line stroke="currentColor" y2="6" /><text style="text-anchor:end;font-size:10px;font-family:'Arial', sans-serif;fill:#000000" fill="currentColor" y="9" dy="-.15em" dx="-.8em" transform="rotate(-35)"> 01/11/2024</text></g><g class="tick" opacity="1" transform="translate(357.89130434782606,0)"><line stroke="currentColor" y2="6" /><text style="text-anchor:end;font-size:10px;font-family:'Arial', sans-serif;fill:#000000" fill="currentColor" y="9" dy="-.15em" dx="-.8em" transform="rotate(-35)"> 01/01/2025</text></g><g class="tick" opacity="1" transform="translate(407.45652173913044,0)"><line stroke="currentColor" y2="6" /><text style="text-anchor:end;font-size:10px;font-family:'Arial', sans-serif;fill:#000000" fill="currentColor" y="9" dy="-.15em" dx="-.8em" transform="rotate(-35)"> 01/03/2025</text></g><g class="tick" opacity="1" transform="translate(457.02173913043475,0)"><line stroke="currentColor" y2="6" /><text style="text-anchor:end;font-size:10px;font-family:'Arial', sans-serif;fill:#000000" fill="currentColor" y="9" dy="-.15em" dx="-.8em" transform="rotate(-35)"> 01/05/2025</text></g><g class="tick" opacity="1" transform="translate(506.5869565217391,0)"><line stroke="currentColor" y2="6" /><text style="text-anchor:end;font-size:10px;font-family:'Arial', sans-serif;fill:#000000" fill="currentColor" y="9" dy="-.15em" dx="-.8em" transform="rotate(-35)"> 01/07/2025</text></g><g class="tick" opacity="1" transform="translate(556.1521739130435,0)"><line stroke="currentColor" y2="6" /><text style="text-anchor:end;font-size:10px;font-family:'Arial', sans-serif;fill:#000000" fill="currentColor" y="9" dy="-.15em" dx="-.8em" transform="rotate(-35)"> 01/09/2025</text></g><g class="tick" opacity="1" transform="translate(605.7173913043479,0)"><line stroke="currentColor" y2="6" /><text style="text-anchor:end;font-size:10px;font-family:'Arial', sans-serif;fill:#000000" fill="currentColor" y="9" dy="-.15em" dx="-.8em" transform="rotate(-35)"> 01/11/2025</text></g></g><text style="text-anchor:middle;font-size:10px;font-family:'Arial', sans-serif;fill:#000000" class="xaxislabel" x="320" y="380" /><g class="yaxisgroup" fill="none" font-size="10" font-family="sans-serif" text-anchor="end" color="#000000" transform="translate(60, 0)"><path class="domain" stroke="currentColor" d="M-6,340.5H0.5V10.5H-6" /><g class="tick" opacity="1" transform="translate(0,302.0179872142571)"><line stroke="currentColor" x2="-6" /><text style="text-anchor:right;font-size:10px;font-family:'Arial', sans-serif;fill:#000000" fill="currentColor" x="-9" dy="0.32em" transform="rotate(0)">2.00</text></g><g class="tick" opacity="1" transform="translate(0,257.7054046110913)"><line stroke="currentColor" x2="-6" /><text style="text-anchor:right;font-size:10px;font-family:'Arial', sans-serif;fill:#000000" fill="currentColor" x="-9" dy="0.32em" transform="rotate(0)">4.00</text></g><g class="tick" opacity="1" transform="translate(0,213.39282200792553)"><line stroke="currentColor" x2="-6" /><text style="text-anchor:right;font-size:10px;font-family:'Arial', sans-serif;fill:#000000" fill="currentColor" x="-9" dy="0.32em" transform="rotate(0)">6.00</text></g><g class="tick" opacity="1" transform="translate(0,169.08023940475977)"><line stroke="currentColor" x2="-6" /><text style="text-anchor:right;font-size:10px;font-family:'Arial', sans-serif;fill:#000000" fill="currentColor" x="-9" dy="0.32em" transform="rotate(0)">8.00</text></g><g class="tick" opacity="1" transform="translate(0,124.76765680159397)"><line stroke="currentColor" x2="-6" /><text style="text-anchor:right;font-size:10px;font-family:'Arial', sans-serif;fill:#000000" fill="currentColor" x="-9" dy="0.32em" transform="rotate(0)">10.00</text></g><g class="tick" opacity="1" transform="translate(0,80.45507419842818)"><line stroke="currentColor" x2="-6" /><text style="text-anchor:right;font-size:10px;font-family:'Arial', sans-serif;fill:#000000" fill="currentColor" x="-9" dy="0.32em" transform="rotate(0)">12.00</text></g><g class="tick" opacity="1" transform="translate(0,36.14249159526241)"><line stroke="currentColor" x2="-6" /><text style="text-anchor:right;font-size:10px;font-family:'Arial', sans-serif;fill:#000000" fill="currentColor" x="-9" dy="0.32em" transform="rotate(0)">14.00</text></g></g><text style="text-anchor:middle;font-size:10px;font-family:'Arial', sans-serif;fill:#000000" class="yaxislabel" x="30" y="200" transform="rotate(-90, 30, 200)" /><g class="linesgroup"><g style="stroke-opacity:1" class="values-linegroup"><path d="M60,122.117L84.783,159.025L109.565,180.95L134.348,151.026L159.13,214.887L183.913,249.909L208.696,208.772L233.478,242.204L258.261,216.094L283.043,220.425L307.826,275.88L332.609,222.228L357.391,245.724L382.174,156.068L406.957,162.078L431.739,176.761L456.522,122.014L481.304,71.95L506.087,75.041L530.87,178.367L555.652,104.09L580.435,148.521L605.217,119.55L630,176.322" fill="none" stroke="#A6A6A6" stroke-dasharray="10 0" stroke-width="1" /></g><g style="stroke-opacity:1" class="targets-linegroup"><path d="M60,175L84.783,175L109.565,175L134.348,175L159.13,175L183.913,175L208.696,175L233.478,175L258.261,175L283.043,175L307.826,175L332.609,175L357.391,175L382.174,175L406.957,175L431.739,175L456.522,175L481.304,175L506.087,175L530.87,175L555.652,175L580.435,175L605.217,175L630,175" fill="none" stroke="#000000" stroke-dasharray="10 0" stroke-width="1.5" /></g><g style="stroke-opacity:1" class="ll99-linegroup"><path d="M60,285L84.783,285L109.565,285L134.348,285L159.13,285L183.913,285L208.696,285L233.478,285L258.261,285L283.043,285L307.826,285L332.609,285L357.391,285L382.174,285L406.957,285L431.739,285L456.522,285L481.304,285L506.087,285L530.87,285L555.652,285L580.435,285L605.217,285L630,285" fill="none" stroke="#6495ED" stroke-dasharray="10 10" stroke-width="2" /></g><g style="stroke-opacity:1" class="ul99-linegroup"><path d="M60,65L84.783,65L109.565,65L134.348,65L159.13,65L183.913,65L208.696,65L233.478,65L258.261,65L283.043,65L307.826,65L332.609,65L357.391,65L382.174,65L406.957,65L431.739,65L456.522,65L481.304,65L506.087,65L530.87,65L555.652,65L580.435,65L605.217,65L630,65" fill="none" stroke="#6495ED" stroke-dasharray="10 10" stroke-width="2" /></g><g style="stroke-opacity:1" class="ll95-linegroup"><path d="M60,248.333L84.783,248.333L109.565,248.333L134.348,248.333L159.13,248.333L183.913,248.333L208.696,248.333L233.478,248.333L258.261,248.333L283.043,248.333L307.826,248.333L332.609,248.333L357.391,248.333L382.174,248.333L406.957,248.333L431.739,248.333L456.522,248.333L481.304,248.333L506.087,248.333L530.87,248.333L555.652,248.333L580.435,248.333L605.217,248.333L630,248.333" fill="none" stroke="#6495ED" stroke-dasharray="2 5" stroke-width="2" /></g><g style="stroke-opacity:1" class="ul95-linegroup"><path d="M60,101.667L84.783,101.667L109.565,101.667L134.348,101.667L159.13,101.667L183.913,101.667L208.696,101.667L233.478,101.667L258.261,101.667L283.043,101.667L307.826,101.667L332.609,101.667L357.391,101.667L382.174,101.667L406.957,101.667L431.739,101.667L456.522,101.667L481.304,101.667L506.087,101.667L530.87,101.667L555.652,101.667L580.435,101.667L605.217,101.667L630,101.667" fill="none" stroke="#6495ED" stroke-dasharray="2 5" stroke-width="2" /></g><text x="630" y="176.32205874193824" fill="#000000" font-size="10px" font-family="'Arial', sans-serif" text-anchor="start" dx="10px" dy="0px" /><text x="630" y="175" fill="#000000" font-size="10px" font-family="'Arial', sans-serif" text-anchor="start" dx="10px" dy="0px" /><text x="630" y="285" fill="#000000" font-size="10px" font-family="'Arial', sans-serif" text-anchor="start" dx="10px" dy="0px" /><text x="630" y="65" fill="#000000" font-size="10px" font-family="'Arial', sans-serif" text-anchor="start" dx="10px" dy="0px" /><text x="630" y="248.33333333333334" fill="#000000" font-size="10px" font-family="'Arial', sans-serif" text-anchor="start" dx="10px" dy="0px" /><text x="630" y="101.66666666666663" fill="#000000" font-size="10px" font-family="'Arial', sans-serif" text-anchor="start" dx="10px" dy="0px" /></g><g class="dotsgroup"><path style="fill:#A6A6A6;stroke:#A6A6A6;stroke-width:1;fill-opacity:1;stroke-opacity:1" d="M2.5,0A2.5,2.5,0,1,1,-2.5,0A2.5,2.5,0,1,1,2.5,0" transform="translate(60, 122.11683566149014)" /><path style="fill:#A6A6A6;stroke:#A6A6A6;stroke-width:1;fill-opacity:1;stroke-opacity:1" d="M2.5,0A2.5,2.5,0,1,1,-2.5,0A2.5,2.5,0,1,1,2.5,0" transform="translate(84.78260869565217, 159.02479981610742)" /><path style="fill:#A6A6A6;stroke:#A6A6A6;stroke-width:1;fill-opacity:1;stroke-opacity:1" d="M2.5,0A2.5,2.5,0,1,1,-2.5,0A2.5,2.5,0,1,1,2.5,0" transform="translate(109.56521739130434, 180.9497458445957)" /><path style="fill:#A6A6A6;stroke:#A6A6A6;stroke-width:1;fill-opacity:1;stroke-opacity:1" d="M2.5,0A2.5,2.5,0,1,1,-2.5,0A2.5,2.5,0,1,1,2.5,0" transform="translate(134.3478260869565, 151.025789428047)" /><path style="fill:#A6A6A6;stroke:#A6A6A6;stroke-width:1;fill-opacity:1;stroke-opacity:1" d="M2.5,0A2.5,2.5,0,1,1,-2.5,0A2.5,2.5,0,1,1,2.5,0" transform="translate(159.1304347826087, 214.88739100151517)" /><path style="fill:#A6A6A6;stroke:#A6A6A6;stroke-width:1;fill-opacity:1;stroke-opacity:1" d="M2.5,0A2.5,2.5,0,1,1,-2.5,0A2.5,2.5,0,1,1,2.5,0" transform="translate(183.91304347826087, 249.908571769239)" /><path style="fill:#A6A6A6;stroke:#A6A6A6;stroke-width:1;fill-opacity:1;stroke-opacity:1" d="M2.5,0A2.5,2.5,0,1,1,-2.5,0A2.5,2.5,0,1,1,2.5,0" transform="translate(208.69565217391303, 208.77191377585726)" /><path style="fill:#A6A6A6;stroke:#A6A6A6;stroke-width:1;fill-opacity:1;stroke-opacity:1" d="M2.5,0A2.5,2.5,0,1,1,-2.5,0A2.5,2.5,0,1,1,2.5,0" transform="translate(233.47826086956522, 242.20366866806472)" /><path style="fill:#A6A6A6;stroke:#A6A6A6;stroke-width:1;fill-opacity:1;stroke-opacity:1" d="M2.5,0A2.5,2.5,0,1,1,-2.5,0A2.5,2.5,0,1,1,2.5,0" transform="translate(258.2608695652174, 216.09362894096628)" /><path style="fill:#A6A6A6;stroke:#A6A6A6;stroke-width:1;fill-opacity:1;stroke-opacity:1" d="M2.5,0A2.5,2.5,0,1,1,-2.5,0A2.5,2.5,0,1,1,2.5,0" transform="translate(283.04347826086956, 220.42463699646208)" /><path style="fill:#A6A6A6;stroke:#A6A6A6;stroke-width:1;fill-opacity:1;stroke-opacity:1" d="M2.5,0A2.5,2.5,0,1,1,-2.5,0A2.5,2.5,0,1,1,2.5,0" transform="translate(307.82608695652175, 275.88021954741555)" /><path style="fill:#A6A6A6;stroke:#A6A6A6;stroke-width:1;fill-opacity:1;stroke-opacity:1" d="M2.5,0A2.5,2.5,0,1,1,-2.5,0A2.5,2.5,0,1,1,2.5,0" transform="translate(332.60869565217394, 222.22753323018037)" /><path style="fill:#A6A6A6;stroke:#A6A6A6;stroke-width:1;fill-opacity:1;stroke-opacity:1" d="M2.5,0A2.5,2.5,0,1,1,-2.5,0A2.5,2.5,0,1,1,2.5,0" transform="translate(357.39130434782606, 245.72394071300795)" /><path style="fill:#A6A6A6;stroke:#A6A6A6;stroke-width:1;fill-opacity:1;stroke-opacity:1" d="M2.5,0A2.5,2.5,0,1,1,-2.5,0A2.5,2.5,0,1,1,2.5,0" transform="translate(382.17391304347825, 156.0676053921646)" /><path style="fill:#A6A6A6;stroke:#A6A6A6;stroke-width:1;fill-opacity:1;stroke-opacity:1" d="M2.5,0A2.5,2.5,0,1,1,-2.5,0A2.5,2.5,0,1,1,2.5,0" transform="translate(406.95652173913044, 162.07770318124966)" /><path style="fill:#A6A6A6;stroke:#A6A6A6;stroke-width:1;fill-opacity:1;stroke-opacity:1" d="M2.5,0A2.5,2.5,0,1,1,-2.5,0A2.5,2.5,0,1,1,2.5,0" transform="translate(431.7391304347826, 176.76063347284992)" /><path style="fill:#A6A6A6;stroke:#A6A6A6;stroke-width:1;fill-opacity:1;stroke-opacity:1" d="M2.5,0A2.5,2.5,0,1,1,-2.5,0A2.5,2.5,0,1,1,2.5,0" transform="translate(456.52173913043475, 122.0142952942339)" /><path style="fill:#A6A6A6;stroke:#A6A6A6;stroke-width:1;fill-opacity:1;stroke-opacity:1" d="M2.5,0A2.5,2.5,0,1,1,-2.5,0A2.5,2.5,0,1,1,2.5,0" transform="translate(481.30434782608694, 71.95009337155443)" /><path style="fill:#A6A6A6;stroke:#A6A6A6;stroke-width:1;fill-opacity:1;stroke-opacity:1" d="M2.5,0A2.5,2.5,0,1,1,-2.5,0A2.5,2.5,0,1,1,2.5,0" transform="translate(506.0869565217391, 75.04099041581844)" /><path style="fill:#A6A6A6;stroke:#A6A6A6;stroke-width:1;fill-opacity:1;stroke-opacity:1" d="M2.5,0A2.5,2.5,0,1,1,-2.5,0A2.5,2.5,0,1,1,2.5,0" transform="translate(530.8695652173913, 178.36676115751456)" /><path style="fill:#A6A6A6;stroke:#A6A6A6;stroke-width:1;fill-opacity:1;stroke-opacity:1" d="M2.5,0A2.5,2.5,0,1,1,-2.5,0A2.5,2.5,0,1,1,2.5,0" transform="translate(555.6521739130435, 104.09028313386574)" /><path style="fill:#A6A6A6;stroke:#A6A6A6;stroke-width:1;fill-opacity:1;stroke-opacity:1" d="M2.5,0A2.5,2.5,0,1,1,-2.5,0A2.5,2.5,0,1,1,2.5,0" transform="translate(580.4347826086956, 148.52079750279273)" /><path style="fill:#A6A6A6;stroke:#A6A6A6;stroke-width:1;fill-opacity:1;stroke-opacity:1" d="M2.5,0A2.5,2.5,0,1,1,-2.5,0A2.5,2.5,0,1,1,2.5,0" transform="translate(605.2173913043479, 119.55010294306848)" /><path style="fill:#A6A6A6;stroke:#A6A6A6;stroke-width:1;fill-opacity:1;stroke-opacity:1" d="M2.5,0A2.5,2.5,0,1,1,-2.5,0A2.5,2.5,0,1,1,2.5,0" transform="translate(630, 176.32205874193824)" /></g></svg>