<svg viewBox="0 0 640 400" width="640px" height="400px" xmlns="http://www.w3.org/2000/svg"><rect x="0" y="0" width="100%" height="100%" fill="white"/><line style="stroke-opacity:0" class="ttip-line-x" x1="0" x2="0" y1="10" y2="340" stroke-width="1px" stroke="black" /><line style="stroke-opacity:0" class="ttip-line-y" x1="60" x2="630" y1="0" y2="0" stroke-width="1px" stroke="black" /><g class="xaxisgroup" fill="none" font-size="10" font-family="sans-serif" text-anchor="middle" color="#000000" transform="translate(0, 340)"><path class="domain" stroke="currentColor" d="M60.5,6V0.5H630.5V6" /><g class="tick" opacity="1" transform="translate(60.5,0)"><line stroke="currentColor" y2="6" /><text style="text-anchor:end;font-size:10px;font-family:'Arial', sans-serif;fill:#000000" fill="currentColor" y="9" dy="-.15em" dx="-.8em" transform="rotate(-35)"> 01/01/2024</text></g><g class="tick" opacity="1" transform="translate(110.06521739130434,0)"><line stroke="currentColor" y2="6" /><text style="text-anchor:end;font-size:10px;font-family:'Arial', sans-serif;fill:#000000" fill="currentColor" y="9" dy="-.15em" dx="-.8em" transform="rotate(-35)"> 01/03/2024</text></g><g class="tick" opacity="1" transform="translate(159.6304347826087,0)"><line stroke="currentColor" y2="6" /><text style="text-anchor:end;font-size:10px;font-family:'Arial', sans-serif;fill:#000000" fill="currentColor" y="9" dy="-.15em" dx="-.8em" transform="rotate(-35)"> 01/05/2024</text></g><g class="tick" opacity="1" transform="translate(209.19565217391306,0)"><line stroke="currentColor" y2="6" /><text style="text-anchor:end;font-size:10px;font-family:'Arial', sans-serif;fill:#000000" fill="currentColor" y="9" dy="-.15em" dx="-.8em" transform="rotate(-35)"> 01/07/2024</text></g><g class="tick" opacity="1" transform="translate(258.7608695652174,0)"><line stroke="currentColor" y2="6" /><text style="text-anchor:end;font-size:10px;font-family:'Arial', sans-serif;fill:#000000" fill="currentColor" y="9" dy="-.15em" dx="-.8em" transform="rotate(-35)"> 01/09/2024</text></g><g class="tick" opacity="1" transform="translate(308.32608695652175,0)"><line stroke="currentColor" y2="6" /><text style="text-anchor:end;font-size:10px;font-family:'Arial', sans-serif;fill:#000000" fill="currentColor" y="9" dy="-.15em" dx="-.8em" transform="rotate(-35)"> 01/11/2024</text></g><g class="tick" opacity="1" transform="translate(357.8913043478261,0)"><line stroke="currentColor" y2="6" /><text style="text-anchor:end;font-size:10px;font-family:'Arial', sans-serif;fill:#000000" fill="currentColor" y="9" dy="-.15em" dx="-.8em" transform="rotate(-35)"> 01/01/2025</text></g><g class="tick" opacity="1" transform="translate(407.45652173913044,0)"><line stroke="currentColor" y2="6" /><text style="text-anchor:end;font-size:10px;font-family:'Arial', sans-serif;fill:#000000" fill="currentColor" y="9" dy="-.15em" dx="-.8em" transform="rotate(-35)"> 01/03/2025</text></g><g class="tick" opacity="1" transform="translate(457.02173913043475,0)"><line stroke="currentColor" y2="6" /><text style="text-anchor:end;font-size:10px;font-family:'Arial', sans-serif;fill:#000000" fill="currentColor" y="9" dy="-.15em" dx="-.8em" transform="rotate(-35)"> 01/05/2025</text></g><g class="tick" opacity="1" transform="translate(506.5869565217391,0)"><line stroke="currentColor" y2="6" /><text style="text-anchor:end;font-size:10px;font-family:'Arial', sans-serif;fill:#000000" fill="currentColor" y="9" dy="-.15em" dx="-.8em" transform="rotate(-35)"> 01/07/2025</text></g><g class="tick" opacity="1" transform="translate(556.1521739130435,0)"><line stroke="currentColor" y2="6" /><text style="text-anchor:end;font-size:10px;font-family:'Arial', sans-serif;fill:#000000" fill="currentColor" y="9" dy="-.15em" dx="-.8em" transform="rotate(-35)"> 01/09/2025</text></g><g class="tick" opacity="1" transform="translate(605.7173913043478,0)"><line stroke="currentColor" y2="6" /><text style="text-anchor:end;font-size:10px;font-family:'Arial', sans-serif;fill:#000000" fill="currentColor" y="9" dy="-.15em" dx="-.8em" transform="rotate(-35)"> 01/11/2025</text></g></g><text style="text-anchor:middle;font-size:10px;font-family:'Arial', sans-serif;fill:#000000" class="xaxislabel" x="320" y="380" /><g class="yaxisgroup" fill="none" font-size="10" font-family="sans-serif" text-anchor="end" color="#000000" transform="translate(60, 0)"><path class="domain" stroke="currentColor" d="M-6,340.5H0.5V10.5H-6" /><g class="tick" opacity="1" transform="translate(0,318.11187846656173)"><line stroke="currentColor" x2="-6" /><text style="text-anchor:right;font-size:10px;font-family:'Arial', sans-serif;fill:#000000" fill="currentColor" x="-9" dy="0.32em" transform="rotate(0)">1.00</text></g><g class="tick" opacity="1" transform="translate(0,294.51657659859524)"><line stroke="currentColor" x2="-6" /><text style="text-anchor:right;font-size:10px;font-family:'Arial', sans-serif;fill:#000000" fill="currentColor" x="-9" dy="0.32em" transform="rotate(0)">2.00</text></g><g class="tick" opacity="1" transform="translate(0,270.9212747306288)"><line stroke="currentColor" x2="-6" /><text style="text-anchor:right;font-size:10px;font-family:'Arial', sans-serif;fill:#000000" fill="currentColor" x="-9" dy="0.32em" transform="rotate(0)">3.00</text></g><g class="tick" opacity="1" transform="translate(0,247.3259728626624)"><line stroke="currentColor" x2="-6" /><text style="text-anchor:right;font-size:10px;font-family:'Arial', sans-serif;fill:#000000" fill="currentColor" x="-9" dy="0.32em" transform="rotate(0)">4.00</text></g><g class="tick" opacity="1" transform="translate(0,223.730670994696)"><line stroke="currentColor" x2="-6" /><text style="text-anchor:right;font-size:10px;font-family:'Arial', sans-serif;fill:#000000" fill="currentColor" x="-9" dy="0.32em" transform="rotate(0)">5.00</text></g><g class="tick" opacity="1" transform="translate(0,200.13536912672956)"><line stroke="currentColor" x2="-6" /><text style="text-anchor:right;font-size:10px;font-family:'Arial', sans-serif;fill:#000000" fill="currentColor" x="-9" dy="0.32em" transform="rotate(0)">6.00</text></g><g class="tick" opacity="1" transform="translate(0,176.54006725876314)"><line stroke="currentColor" x2="-6" /><text style="text-anchor:right;font-size:10px;font-family:'Arial', sans-serif;fill:#000000" fill="currentColor" x="-9" dy="0.32em" transform="rotate(0)">7.00</text></g><g class="tick" opacity="1" transform="translate(0,152.9447653907967)"><line stroke="currentColor" x2="-6" /><text style="text-anchor:right;font-size:10px;font-family:'Arial', sans-serif;fill:#000000" fill="currentColor" x="-9" dy="0.32em" transform="rotate(0)">8.00</text></g><g class="tick" opacity="1" transform="translate(0,129.34946352283026)"><line stroke="currentColor" x2="-6" /><text style="text-anchor:right;font-size:10px;font-family:'Arial', sans-serif;fill:#000000" fill="currentColor" x="-9" dy="0.32em" transform="rotate(0)">9.00</text></g><g class="tick" opacity="1" transform="translate(0,105.75416165486384)"><line stroke="currentColor" x2="-6" /><text style="text-anchor:right;font-size:10px;font-family:'Arial', sans-serif;fill:#000000" fill="currentColor" x="-9" dy="0.32em" transform="rotate(0)">10.00</text></g><g class="tick" opacity="1" transform="translate(0,82.15885978689741)"><line stroke="currentColor" x2="-6" /><text style="text-anchor:right;font-size:10px;font-family:'Arial', sans-serif;fill:#000000" fill="currentColor" x="-9" dy="0.32em" transform="rotate(0)">11.00</text></g><g class="tick" opacity="1" transform="translate(0,58.56355791893098)"><line stroke="currentColor" x2="-6" /><text style="text-anchor:right;font-size:10px;font-family:'Arial', sans-serif;fill:#000000" fill="currentColor" x="-9" dy="0.32em" transform="rotate(0)">12.00</text></g><g class="tick" opacity="1" transform="translate(0,34.96825605096456)"><line stroke="currentColor" x2="-6" /><text style="text-anchor:right;font-size:10px;font-family:'Arial', sans-serif;fill:#000000" fill="currentColor" x="-9" dy="0.32em" transform="rotate(0)">13.00</text></g><g class="tick" opacity="1" transform="translate(0,11.372954182998141)"><line stroke="currentColor" x2="-6" /><text style="text-anchor:right;font-size:10px;font-family:'Arial', sans-serif;fill:#000000" fill="currentColor" x="-9" dy="0.32em" transform="rotate(0)">14.00</text></g></g><text style="text-anchor:middle;font-size:10px;font-family:'Arial', sans-serif;fill:#000000" class="yaxislabel" x="30" y="200" transform="rotate(-90, 30, 200)" /><g class="linesgroup"><g style="stroke-opacity:1" class="linegroup"><line x1="60" y1="107.4351194955205" x2="84.78260869565217" y2="104.18107064699765" fill="none" stroke="#A6A6A6" stroke-width="1" stroke-dasharray="10 0" stroke-dashoffset="0" /><line x1="84.78260869565217" y1="104.18107064699765" x2="109.56521739130434" y2="76.70456687244884" fill="none" stroke="#A6A6A6" stroke-width="1" stroke-dasharray="10 0" stroke-dashoffset="24.782608695652172" /><line x1="109.56521739130434" y1="76.70456687244884" x2="134.34782608695653" y2="129.27480333342848" fill="none" stroke="#A6A6A6" stroke-width="1" stroke-dasharray="10 0" stroke-dashoffset="49.565217391304344" /><line x1="134.34782608695653" y1="129.27480333342848" x2="159.1304347826087" y2="104.66911393009168" fill="none" stroke="#A6A6A6" stroke-width="1" stroke-dasharray="10 0" stroke-dashoffset="74.34782608695653" /><line x1="159.1304347826087" y1="104.66911393009168" x2="183.91304347826087" y2="104.04125454761372" fill="none" stroke="#A6A6A6" stroke-width="1" stroke-dasharray="10 0" stroke-dashoffset="99.13043478260869" /><line x1="183.91304347826087" y1="104.04125454761372" x2="208.69565217391306" y2="83.13762631143923" fill="none" stroke="#A6A6A6" stroke-width="1" stroke-dasharray="10 0" stroke-dashoffset="123.91304347826087" /><line x1="208.69565217391306" y1="83.13762631143923" x2="233.47826086956525" y2="106.69262415177373" fill="none" stroke="#A6A6A6" stroke-width="1" stroke-dasharray="10 0" stroke-dashoffset="148.69565217391306" /><line x1="233.47826086956525" y1="106.69262415177373" x2="258.2608695652174" y2="120.84906934798234" fill="none" stroke="#A6A6A6" stroke-width="1" stroke-dasharray="10 0" stroke-dashoffset="173.47826086956525" /><line x1="258.2608695652174" y1="120.84906934798234" x2="283.04347826086956" y2="70.46353888037738" fill="none" stroke="#A6A6A6" stroke-width="1" stroke-dasharray="10 0" stroke-dashoffset="198.26086956521738" /><line x1="283.04347826086956" y1="70.46353888037738" x2="307.82608695652175" y2="111.77407190623384" fill="none" stroke="#A6A6A6" stroke-width="1" stroke-dasharray="10 0" stroke-dashoffset="223.04347826086956" /><line x1="307.82608695652175" y1="111.77407190623384" x2="332.6086956521739" y2="88.80593999484547" fill="none" stroke="#A6A6A6" stroke-width="1" stroke-dasharray="10 0" stroke-dashoffset="247.82608695652175" /><line x1="332.6086956521739" y1="88.80593999484547" x2="357.3913043478261" y2="78.38833238649084" fill="none" stroke="#A6A6A6" stroke-width="1" stroke-dasharray="10 0" stroke-dashoffset="272.6086956521739" /><line x1="357.3913043478261" y1="78.38833238649084" x2="382.17391304347825" y2="133.87230004287872" fill="none" stroke="#A6A6A6" stroke-width="1" stroke-dasharray="10 0" stroke-dashoffset="297.3913043478261" /><line x1="382.17391304347825" y1="133.87230004287872" x2="406.95652173913044" y2="103.28509427201948" fill="none" stroke="#A6A6A6" stroke-width="1" stroke-dasharray="10 0" stroke-dashoffset="322.17391304347825" /><line x1="406.95652173913044" y1="103.28509427201948" x2="431.7391304347826" y2="52.75847494402237" fill="none" stroke="#A6A6A6" stroke-width="1" stroke-dasharray="10 0" stroke-dashoffset="346.95652173913044" /><line x1="431.7391304347826" y1="52.75847494402237" x2="456.52173913043475" y2="232.17415407392255" fill="none" stroke="#A6A6A6" stroke-width="1" stroke-dasharray="10 0" stroke-dashoffset="371.7391304347826" /><line x1="456.52173913043475" y1="232.17415407392255" x2="481.30434782608694" y2="185.44102846048233" fill="none" stroke="#A6A6A6" stroke-width="1" stroke-dasharray="10 0" stroke-dashoffset="396.52173913043475" /><line x1="481.30434782608694" y1="185.44102846048233" x2="506.0869565217391" y2="216.29044634752006" fill="none" stroke="#A6A6A6" stroke-width="1" stroke-dasharray="10 0" stroke-dashoffset="421.30434782608694" /><line x1="506.0869565217391" y1="216.29044634752006" x2="530.8695652173913" y2="187.89072511204014" fill="none" stroke="#A6A6A6" stroke-width="1" stroke-dasharray="10 0" stroke-dashoffset="446.0869565217391" /><line x1="530.8695652173913" y1="187.89072511204014" x2="555.6521739130435" y2="272.75847494402234" fill="none" stroke="#A6A6A6" stroke-width="1" stroke-dasharray="10 0" stroke-dashoffset="470.86956521739125" /><line x1="555.6521739130435" y1="272.75847494402234" x2="580.4347826086956" y2="211.64912856206368" fill="none" stroke="#A6A6A6" stroke-width="1" stroke-dasharray="10 0" stroke-dashoffset="495.6521739130435" /><line x1="580.4347826086956" y1="211.64912856206368" x2="605.2173913043478" y2="211.18391394226495" fill="none" stroke="#A6A6A6" stroke-width="1" stroke-dasharray="10 0" stroke-dashoffset="520.4347826086956" /><line x1="605.2173913043478" y1="211.18391394226495" x2="630" y2="224.88932346312805" fill="none" stroke="#A6A6A6" stroke-width="1" stroke-dasharray="10 0" stroke-dashoffset="545.2173913043478" /></g><g style="stroke-opacity:1" class="linegroup"><line x1="60" y1="138.27542483206705" x2="84.78260869565217" y2="138.27542483206705" fill="none" stroke="#000000" stroke-width="1.5" stroke-dasharray="10 0" stroke-dashoffset="0" /><line x1="84.78260869565217" y1="138.27542483206705" x2="109.56521739130434" y2="138.27542483206705" fill="none" stroke="#000000" stroke-width="1.5" stroke-dasharray="10 0" stroke-dashoffset="24.782608695652172" /><line x1="109.56521739130434" y1="138.27542483206705" x2="134.34782608695653" y2="138.27542483206705" fill="none" stroke="#000000" stroke-width="1.5" stroke-dasharray="10 0" stroke-dashoffset="49.565217391304344" /><line x1="134.34782608695653" y1="138.27542483206705" x2="159.1304347826087" y2="138.27542483206705" fill="none" stroke="#000000" stroke-width="1.5" stroke-dasharray="10 0" stroke-dashoffset="74.34782608695653" /><line x1="159.1304347826087" y1="138.27542483206705" x2="183.91304347826087" y2="138.27542483206705" fill="none" stroke="#000000" stroke-width="1.5" stroke-dasharray="10 0" stroke-dashoffset="99.13043478260869" /><line x1="183.91304347826087" y1="138.27542483206705" x2="208.69565217391306" y2="138.27542483206705" fill="none" stroke="#000000" stroke-width="1.5" stroke-dasharray="10 0" stroke-dashoffset="123.91304347826087" /><line x1="208.69565217391306" y1="138.27542483206705" x2="233.47826086956525" y2="138.27542483206705" fill="none" stroke="#000000" stroke-width="1.5" stroke-dasharray="10 0" stroke-dashoffset="148.69565217391306" /><line x1="233.47826086956525" y1="138.27542483206705" x2="258.2608695652174" y2="138.27542483206705" fill="none" stroke="#000000" stroke-width="1.5" stroke-dasharray="10 0" stroke-dashoffset="173.47826086956525" /><line x1="258.2608695652174" y1="138.27542483206705" x2="283.04347826086956" y2="138.27542483206705" fill="none" stroke="#000000" stroke-width="1.5" stroke-dasharray="10 0" stroke-dashoffset="198.26086956521738" /><line x1="283.04347826086956" y1="138.27542483206705" x2="307.82608695652175" y2="138.27542483206705" fill="none" stroke="#000000" stroke-width="1.5" stroke-dasharray="10 0" stroke-dashoffset="223.04347826086956" /><line x1="307.82608695652175" y1="138.27542483206705" x2="332.6086956521739" y2="138.27542483206705" fill="none" stroke="#000000" stroke-width="1.5" stroke-dasharray="10 0" stroke-dashoffset="247.82608695652175" /><line x1="332.6086956521739" y1="138.27542483206705" x2="357.3913043478261" y2="138.27542483206705" fill="none" stroke="#000000" stroke-width="1.5" stroke-dasharray="10 0" stroke-dashoffset="272.6086956521739" /><line x1="357.3913043478261" y1="138.27542483206705" x2="382.17391304347825" y2="138.27542483206705" fill="none" stroke="#000000" stroke-width="1.5" stroke-dasharray="10 0" stroke-dashoffset="297.3913043478261" /><line x1="382.17391304347825" y1="138.27542483206705" x2="406.95652173913044" y2="138.27542483206705" fill="none" stroke="#000000" stroke-width="1.5" stroke-dasharray="10 0" stroke-dashoffset="322.17391304347825" /><line x1="406.95652173913044" y1="138.27542483206705" x2="431.7391304347826" y2="138.27542483206705" fill="none" stroke="#000000" stroke-width="1.5" stroke-dasharray="10 0" stroke-dashoffset="346.95652173913044" /><line x1="431.7391304347826" y1="138.27542483206705" x2="456.52173913043475" y2="138.27542483206705" fill="none" stroke="#000000" stroke-width="1.5" stroke-dasharray="10 0" stroke-dashoffset="371.7391304347826" /><line x1="456.52173913043475" y1="138.27542483206705" x2="481.30434782608694" y2="138.27542483206705" fill="none" stroke="#000000" stroke-width="1.5" stroke-dasharray="10 0" stroke-dashoffset="396.52173913043475" /><line x1="481.30434782608694" y1="138.27542483206705" x2="506.0869565217391" y2="138.27542483206705" fill="none" stroke="#000000" stroke-width="1.5" stroke-dasharray="10 0" stroke-dashoffset="421.30434782608694" /><line x1="506.0869565217391" y1="138.27542483206705" x2="530.8695652173913" y2="138.27542483206705" fill="none" stroke="#000000" stroke-width="1.5" stroke-dasharray="10 0" stroke-dashoffset="446.0869565217391" /><line x1="530.8695652173913" y1="138.27542483206705" x2="555.6521739130435" y2="138.27542483206705" fill="none" stroke="#000000" stroke-width="1.5" stroke-dasharray="10 0" stroke-dashoffset="470.86956521739125" /><line x1="555.6521739130435" y1="138.27542483206705" x2="580.4347826086956" y2="138.27542483206705" fill="none" stroke="#000000" stroke-width="1.5" stroke-dasharray="10 0" stroke-dashoffset="495.6521739130435" /><line x1="580.4347826086956" y1="138.27542483206705" x2="605.2173913043478" y2="138.27542483206705" fill="none" stroke="#000000" stroke-width="1.5" stroke-dasharray="10 0" stroke-dashoffset="520.4347826086956" /><line x1="605.2173913043478" y1="138.27542483206705" x2="630" y2="138.27542483206705" fill="none" stroke="#000000" stroke-width="1.5" stroke-dasharray="10 0" stroke-dashoffset="545.2173913043478" /></g><g style="stroke-opacity:1" class="linegroup"><line x1="60" y1="222.28884238545106" x2="84.78260869565217" y2="222.28884238545106" fill="none" stroke="#6495ED" stroke-width="2" stroke-dasharray="10 10" stroke-dashoffset="0" /><line x1="84.78260869565217" y1="222.28884238545106" x2="109.56521739130434" y2="222.28884238545106" fill="none" stroke="#6495ED" stroke-width="2" stroke-dasharray="10 10" stroke-dashoffset="24.782608695652172" /><line x1="109.56521739130434" y1="222.28884238545106" x2="134.34782608695653" y2="222.28884238545106" fill="none" stroke="#6495ED" stroke-width="2" stroke-dasharray="10 10" stroke-dashoffset="49.565217391304344" /><line x1="134.34782608695653" y1="222.28884238545106" x2="159.1304347826087" y2="222.28884238545106" fill="none" stroke="#6495ED" stroke-width="2" stroke-dasharray="10 10" stroke-dashoffset="74.34782608695653" /><line x1="159.1304347826087" y1="222.28884238545106" x2="183.91304347826087" y2="222.28884238545106" fill="none" stroke="#6495ED" stroke-width="2" stroke-dasharray="10 10" stroke-dashoffset="99.13043478260869" /><line x1="183.91304347826087" y1="222.28884238545106" x2="208.69565217391306" y2="222.28884238545106" fill="none" stroke="#6495ED" stroke-width="2" stroke-dasharray="10 10" stroke-dashoffset="123.91304347826087" /><line x1="208.69565217391306" y1="222.28884238545106" x2="233.47826086956525" y2="222.28884238545106" fill="none" stroke="#6495ED" stroke-width="2" stroke-dasharray="10 10" stroke-dashoffset="148.69565217391306" /><line x1="233.47826086956525" y1="222.28884238545106" x2="258.2608695652174" y2="222.28884238545106" fill="none" stroke="#6495ED" stroke-width="2" stroke-dasharray="10 10" stroke-dashoffset="173.47826086956525" /><line x1="258.2608695652174" y1="222.28884238545106" x2="283.04347826086956" y2="222.28884238545106" fill="none" stroke="#6495ED" stroke-width="2" stroke-dasharray="10 10" stroke-dashoffset="198.26086956521738" /><line x1="283.04347826086956" y1="222.28884238545106" x2="307.82608695652175" y2="222.28884238545106" fill="none" stroke="#6495ED" stroke-width="2" stroke-dasharray="10 10" stroke-dashoffset="223.04347826086956" /><line x1="307.82608695652175" y1="222.28884238545106" x2="332.6086956521739" y2="222.28884238545106" fill="none" stroke="#6495ED" stroke-width="2" stroke-dasharray="10 10" stroke-dashoffset="247.82608695652175" /><line x1="332.6086956521739" y1="222.28884238545106" x2="357.3913043478261" y2="222.28884238545106" fill="none" stroke="#6495ED" stroke-width="2" stroke-dasharray="10 10" stroke-dashoffset="272.6086956521739" /><line x1="357.3913043478261" y1="222.28884238545106" x2="382.17391304347825" y2="222.28884238545106" fill="none" stroke="#6495ED" stroke-width="2" stroke-dasharray="10 10" stroke-dashoffset="297.3913043478261" /><line x1="382.17391304347825" y1="222.28884238545106" x2="406.95652173913044" y2="222.28884238545106" fill="none" stroke="#6495ED" stroke-width="2" stroke-dasharray="10 10" stroke-dashoffset="322.17391304347825" /><line x1="406.95652173913044" y1="222.28884238545106" x2="431.7391304347826" y2="222.28884238545106" fill="none" stroke="#6495ED" stroke-width="2" stroke-dasharray="10 10" stroke-dashoffset="346.95652173913044" /><line x1="431.7391304347826" y1="222.28884238545106" x2="456.52173913043475" y2="222.28884238545106" fill="none" stroke="#6495ED" stroke-width="2" stroke-dasharray="10 10" stroke-dashoffset="371.7391304347826" /><line x1="456.52173913043475" y1="222.28884238545106" x2="481.30434782608694" y2="222.28884238545106" fill="none" stroke="#6495ED" stroke-width="2" stroke-dasharray="10 10" stroke-dashoffset="396.52173913043475" /><line x1="481.30434782608694" y1="222.28884238545106" x2="506.0869565217391" y2="222.28884238545106" fill="none" stroke="#6495ED" stroke-width="2" stroke-dasharray="10 10" stroke-dashoffset="421.30434782608694" /><line x1="506.0869565217391" y1="222.28884238545106" x2="530.8695652173913" y2="222.28884238545106" fill="none" stroke="#6495ED" stroke-width="2" stroke-dasharray="10 10" stroke-dashoffset="446.0869565217391" /><line x1="530.8695652173913" y1="222.28884238545106" x2="555.6521739130435" y2="222.28884238545106" fill="none" stroke="#6495ED" stroke-width="2" stroke-dasharray="10 10" stroke-dashoffset="470.86956521739125" /><line x1="555.6521739130435" y1="222.28884238545106" x2="580.4347826086956" y2="222.28884238545106" fill="none" stroke="#6495ED" stroke-width="2" stroke-dasharray="10 10" stroke-dashoffset="495.6521739130435" /><line x1="580.4347826086956" y1="222.28884238545106" x2="605.2173913043478" y2="222.28884238545106" fill="none" stroke="#6495ED" stroke-width="2" stroke-dasharray="10 10" stroke-dashoffset="520.4347826086956" /><line x1="605.2173913043478" y1="222.28884238545106" x2="630" y2="222.28884238545106" fill="none" stroke="#6495ED" stroke-width="2" stroke-dasharray="10 10" stroke-dashoffset="545.2173913043478" /></g><g style="stroke-opacity:1" class="linegroup"><line x1="60" y1="54.26200727868296" x2="84.78260869565217" y2="54.26200727868296" fill="none" stroke="#6495ED" stroke-width="2" stroke-dasharray="10 10" stroke-dashoffset="0" /><line x1="84.78260869565217" y1="54.26200727868296" x2="109.56521739130434" y2="54.26200727868296" fill="none" stroke="#6495ED" stroke-width="2" stroke-dasharray="10 10" stroke-dashoffset="24.782608695652172" /><line x1="109.56521739130434" y1="54.26200727868296" x2="134.34782608695653" y2="54.26200727868296" fill="none" stroke="#6495ED" stroke-width="2" stroke-dasharray="10 10" stroke-dashoffset="49.565217391304344" /><line x1="134.34782608695653" y1="54.26200727868296" x2="159.1304347826087" y2="54.26200727868296" fill="none" stroke="#6495ED" stroke-width="2" stroke-dasharray="10 10" stroke-dashoffset="74.34782608695653" /><line x1="159.1304347826087" y1="54.26200727868296" x2="183.91304347826087" y2="54.26200727868296" fill="none" stroke="#6495ED" stroke-width="2" stroke-dasharray="10 10" stroke-dashoffset="99.13043478260869" /><line x1="183.91304347826087" y1="54.26200727868296" x2="208.69565217391306" y2="54.26200727868296" fill="none" stroke="#6495ED" stroke-width="2" stroke-dasharray="10 10" stroke-dashoffset="123.91304347826087" /><line x1="208.69565217391306" y1="54.26200727868296" x2="233.47826086956525" y2="54.26200727868296" fill="none" stroke="#6495ED" stroke-width="2" stroke-dasharray="10 10" stroke-dashoffset="148.69565217391306" /><line x1="233.47826086956525" y1="54.26200727868296" x2="258.2608695652174" y2="54.26200727868296" fill="none" stroke="#6495ED" stroke-width="2" stroke-dasharray="10 10" stroke-dashoffset="173.47826086956525" /><line x1="258.2608695652174" y1="54.26200727868296" x2="283.04347826086956" y2="54.26200727868296" fill="none" stroke="#6495ED" stroke-width="2" stroke-dasharray="10 10" stroke-dashoffset="198.26086956521738" /><line x1="283.04347826086956" y1="54.26200727868296" x2="307.82608695652175" y2="54.26200727868296" fill="none" stroke="#6495ED" stroke-width="2" stroke-dasharray="10 10" stroke-dashoffset="223.04347826086956" /><line x1="307.82608695652175" y1="54.26200727868296" x2="332.6086956521739" y2="54.26200727868296" fill="none" stroke="#6495ED" stroke-width="2" stroke-dasharray="10 10" stroke-dashoffset="247.82608695652175" /><line x1="332.6086956521739" y1="54.26200727868296" x2="357.3913043478261" y2="54.26200727868296" fill="none" stroke="#6495ED" stroke-width="2" stroke-dasharray="10 10" stroke-dashoffset="272.6086956521739" /><line x1="357.3913043478261" y1="54.26200727868296" x2="382.17391304347825" y2="54.26200727868296" fill="none" stroke="#6495ED" stroke-width="2" stroke-dasharray="10 10" stroke-dashoffset="297.3913043478261" /><line x1="382.17391304347825" y1="54.26200727868296" x2="406.95652173913044" y2="54.26200727868296" fill="none" stroke="#6495ED" stroke-width="2" stroke-dasharray="10 10" stroke-dashoffset="322.17391304347825" /><line x1="406.95652173913044" y1="54.26200727868296" x2="431.7391304347826" y2="54.26200727868296" fill="none" stroke="#6495ED" stroke-width="2" stroke-dasharray="10 10" stroke-dashoffset="346.95652173913044" /><line x1="431.7391304347826" y1="54.26200727868296" x2="456.52173913043475" y2="54.26200727868296" fill="none" stroke="#6495ED" stroke-width="2" stroke-dasharray="10 10" stroke-dashoffset="371.7391304347826" /><line x1="456.52173913043475" y1="54.26200727868296" x2="481.30434782608694" y2="54.26200727868296" fill="none" stroke="#6495ED" stroke-width="2" stroke-dasharray="10 10" stroke-dashoffset="396.52173913043475" /><line x1="481.30434782608694" y1="54.26200727868296" x2="506.0869565217391" y2="54.26200727868296" fill="none" stroke="#6495ED" stroke-width="2" stroke-dasharray="10 10" stroke-dashoffset="421.30434782608694" /><line x1="506.0869565217391" y1="54.26200727868296" x2="530.8695652173913" y2="54.26200727868296" fill="none" stroke="#6495ED" stroke-width="2" stroke-dasharray="10 10" stroke-dashoffset="446.0869565217391" /><line x1="530.8695652173913" y1="54.26200727868296" x2="555.6521739130435" y2="54.26200727868296" fill="none" stroke="#6495ED" stroke-width="2" stroke-dasharray="10 10" stroke-dashoffset="470.86956521739125" /><line x1="555.6521739130435" y1="54.26200727868296" x2="580.4347826086956" y2="54.26200727868296" fill="none" stroke="#6495ED" stroke-width="2" stroke-dasharray="10 10" stroke-dashoffset="495.6521739130435" /><line x1="580.4347826086956" y1="54.26200727868296" x2="605.2173913043478" y2="54.26200727868296" fill="none" stroke="#6495ED" stroke-width="2" stroke-dasharray="10 10" stroke-dashoffset="520.4347826086956" /><line x1="605.2173913043478" y1="54.26200727868296" x2="630" y2="54.26200727868296" fill="none" stroke="#6495ED" stroke-width="2" stroke-dasharray="10 10" stroke-dashoffset="545.2173913043478" /></g><g style="stroke-opacity:1" class="linegroup"><line x1="60" y1="194.28436986765638" x2="84.78260869565217" y2="194.28436986765638" fill="none" stroke="#6495ED" stroke-width="2" stroke-dasharray="2 5" stroke-dashoffset="0" /><line x1="84.78260869565217" y1="194.28436986765638" x2="109.56521739130434" y2="194.28436986765638" fill="none" stroke="#6495ED" stroke-width="2" stroke-dasharray="2 5" stroke-dashoffset="24.782608695652172" /><line x1="109.56521739130434" y1="194.28436986765638" x2="134.34782608695653" y2="194.28436986765638" fill="none" stroke="#6495ED" stroke-width="2" stroke-dasharray="2 5" stroke-dashoffset="49.565217391304344" /><line x1="134.34782608695653" y1="194.28436986765638" x2="159.1304347826087" y2="194.28436986765638" fill="none" stroke="#6495ED" stroke-width="2" stroke-dasharray="2 5" stroke-dashoffset="74.34782608695653" /><line x1="159.1304347826087" y1="194.28436986765638" x2="183.91304347826087" y2="194.28436986765638" fill="none" stroke="#6495ED" stroke-width="2" stroke-dasharray="2 5" stroke-dashoffset="99.13043478260869" /><line x1="183.91304347826087" y1="194.28436986765638" x2="208.69565217391306" y2="194.28436986765638" fill="none" stroke="#6495ED" stroke-width="2" stroke-dasharray="2 5" stroke-dashoffset="123.91304347826087" /><line x1="208.69565217391306" y1="194.28436986765638" x2="233.47826086956525" y2="194.28436986765638" fill="none" stroke="#6495ED" stroke-width="2" stroke-dasharray="2 5" stroke-dashoffset="148.69565217391306" /><line x1="233.47826086956525" y1="194.28436986765638" x2="258.2608695652174" y2="194.28436986765638" fill="none" stroke="#6495ED" stroke-width="2" stroke-dasharray="2 5" stroke-dashoffset="173.47826086956525" /><line x1="258.2608695652174" y1="194.28436986765638" x2="283.04347826086956" y2="194.28436986765638" fill="none" stroke="#6495ED" stroke-width="2" stroke-dasharray="2 5" stroke-dashoffset="198.26086956521738" /><line x1="283.04347826086956" y1="194.28436986765638" x2="307.82608695652175" y2="194.28436986765638" fill="none" stroke="#6495ED" stroke-width="2" stroke-dasharray="2 5" stroke-dashoffset="223.04347826086956" /><line x1="307.82608695652175" y1="194.28436986765638" x2="332.6086956521739" y2="194.28436986765638" fill="none" stroke="#6495ED" stroke-width="2" stroke-dasharray="2 5" stroke-dashoffset="247.82608695652175" /><line x1="332.6086956521739" y1="194.28436986765638" x2="357.3913043478261" y2="194.28436986765638" fill="none" stroke="#6495ED" stroke-width="2" stroke-dasharray="2 5" stroke-dashoffset="272.6086956521739" /><line x1="357.3913043478261" y1="194.28436986765638" x2="382.17391304347825" y2="194.28436986765638" fill="none" stroke="#6495ED" stroke-width="2" stroke-dasharray="2 5" stroke-dashoffset="297.3913043478261" /><line x1="382.17391304347825" y1="194.28436986765638" x2="406.95652173913044" y2="194.28436986765638" fill="none" stroke="#6495ED" stroke-width="2" stroke-dasharray="2 5" stroke-dashoffset="322.17391304347825" /><line x1="406.95652173913044" y1="194.28436986765638" x2="431.7391304347826" y2="194.28436986765638" fill="none" stroke="#6495ED" stroke-width="2" stroke-dasharray="2 5" stroke-dashoffset="346.95652173913044" /><line x1="431.7391304347826" y1="194.28436986765638" x2="456.52173913043475" y2="194.28436986765638" fill="none" stroke="#6495ED" stroke-width="2" stroke-dasharray="2 5" stroke-dashoffset="371.7391304347826" /><line x1="456.52173913043475" y1="194.28436986765638" x2="481.30434782608694" y2="194.28436986765638" fill="none" stroke="#6495ED" stroke-width="2" stroke-dasharray="2 5" stroke-dashoffset="396.52173913043475" /><line x1="481.30434782608694" y1="194.28436986765638" x2="506.0869565217391" y2="194.28436986765638" fill="none" stroke="#6495ED" stroke-width="2" stroke-dasharray="2 5" stroke-dashoffset="421.30434782608694" /><line x1="506.0869565217391" y1="194.28436986765638" x2="530.8695652173913" y2="194.28436986765638" fill="none" stroke="#6495ED" stroke-width="2" stroke-dasharray="2 5" stroke-dashoffset="446.0869565217391" /><line x1="530.8695652173913" y1="194.28436986765638" x2="555.6521739130435" y2="194.28436986765638" fill="none" stroke="#6495ED" stroke-width="2" stroke-dasharray="2 5" stroke-dashoffset="470.86956521739125" /><line x1="555.6521739130435" y1="194.28436986765638" x2="580.4347826086956" y2="194.28436986765638" fill="none" stroke="#6495ED" stroke-width="2" stroke-dasharray="2 5" stroke-dashoffset="495.6521739130435" /><line x1="580.4347826086956" y1="194.28436986765638" x2="605.2173913043478" y2="194.28436986765638" fill="none" stroke="#6495ED" stroke-width="2" stroke-dasharray="2 5" stroke-dashoffset="520.4347826086956" /><line x1="605.2173913043478" y1="194.28436986765638" x2="630" y2="194.28436986765638" fill="none" stroke="#6495ED" stroke-width="2" stroke-dasharray="2 5" stroke-dashoffset="545.2173913043478" /></g><g style="stroke-opacity:1" class="linegroup"><line x1="60" y1="82.26647979647764" x2="84.78260869565217" y2="82.26647979647764" fill="none" stroke="#6495ED" stroke-width="2" stroke-dasharray="2 5" stroke-dashoffset="0" /><line x1="84.78260869565217" y1="82.26647979647764" x2="109.56521739130434" y2="82.26647979647764" fill="none" stroke="#6495ED" stroke-width="2" stroke-dasharray="2 5" stroke-dashoffset="24.782608695652172" /><line x1="109.56521739130434" y1="82.26647979647764" x2="134.34782608695653" y2="82.26647979647764" fill="none" stroke="#6495ED" stroke-width="2" stroke-dasharray="2 5" stroke-dashoffset="49.565217391304344" /><line x1="134.34782608695653" y1="82.26647979647764" x2="159.1304347826087" y2="82.26647979647764" fill="none" stroke="#6495ED" stroke-width="2" stroke-dasharray="2 5" stroke-dashoffset="74.34782608695653" /><line x1="159.1304347826087" y1="82.26647979647764" x2="183.91304347826087" y2="82.26647979647764" fill="none" stroke="#6495ED" stroke-width="2" stroke-dasharray="2 5" stroke-dashoffset="99.13043478260869" /><line x1="183.91304347826087" y1="82.26647979647764" x2="208.69565217391306" y2="82.26647979647764" fill="none" stroke="#6495ED" stroke-width="2" stroke-dasharray="2 5" stroke-dashoffset="123.91304347826087" /><line x1="208.69565217391306" y1="82.26647979647764" x2="233.47826086956525" y2="82.26647979647764" fill="none" stroke="#6495ED" stroke-width="2" stroke-dasharray="2 5" stroke-dashoffset="148.69565217391306" /><line x1="233.47826086956525" y1="82.26647979647764" x2="258.2608695652174" y2="82.26647979647764" fill="none" stroke="#6495ED" stroke-width="2" stroke-dasharray="2 5" stroke-dashoffset="173.47826086956525" /><line x1="258.2608695652174" y1="82.26647979647764" x2="283.04347826086956" y2="82.26647979647764" fill="none" stroke="#6495ED" stroke-width="2" stroke-dasharray="2 5" stroke-dashoffset="198.26086956521738" /><line x1="283.04347826086956" y1="82.26647979647764" x2="307.82608695652175" y2="82.26647979647764" fill="none" stroke="#6495ED" stroke-width="2" stroke-dasharray="2 5" stroke-dashoffset="223.04347826086956" /><line x1="307.82608695652175" y1="82.26647979647764" x2="332.6086956521739" y2="82.26647979647764" fill="none" stroke="#6495ED" stroke-width="2" stroke-dasharray="2 5" stroke-dashoffset="247.82608695652175" /><line x1="332.6086956521739" y1="82.26647979647764" x2="357.3913043478261" y2="82.26647979647764" fill="none" stroke="#6495ED" stroke-width="2" stroke-dasharray="2 5" stroke-dashoffset="272.6086956521739" /><line x1="357.3913043478261" y1="82.26647979647764" x2="382.17391304347825" y2="82.26647979647764" fill="none" stroke="#6495ED" stroke-width="2" stroke-dasharray="2 5" stroke-dashoffset="297.3913043478261" /><line x1="382.17391304347825" y1="82.26647979647764" x2="406.95652173913044" y2="82.26647979647764" fill="none" stroke="#6495ED" stroke-width="2" stroke-dasharray="2 5" stroke-dashoffset="322.17391304347825" /><line x1="406.95652173913044" y1="82.26647979647764" x2="431.7391304347826" y2="82.26647979647764" fill="none" stroke="#6495ED" stroke-width="2" stroke-dasharray="2 5" stroke-dashoffset="346.95652173913044" /><line x1="431.7391304347826" y1="82.26647979647764" x2="456.52173913043475" y2="82.26647979647764" fill="none" stroke="#6495ED" stroke-width="2" stroke-dasharray="2 5" stroke-dashoffset="371.7391304347826" /><line x1="456.52173913043475" y1="82.26647979647764" x2="481.30434782608694" y2="82.26647979647764" fill="none" stroke="#6495ED" stroke-width="2" stroke-dasharray="2 5" stroke-dashoffset="396.52173913043475" /><line x1="481.30434782608694" y1="82.26647979647764" x2="506.0869565217391" y2="82.26647979647764" fill="none" stroke="#6495ED" stroke-width="2" stroke-dasharray="2 5" stroke-dashoffset="421.30434782608694" /><line x1="506.0869565217391" y1="82.26647979647764" x2="530.8695652173913" y2="82.26647979647764" fill="none" stroke="#6495ED" stroke-width="2" stroke-dasharray="2 5" stroke-dashoffset="446.0869565217391" /><line x1="530.8695652173913" y1="82.26647979647764" x2="555.6521739130435" y2="82.26647979647764" fill="none" stroke="#6495ED" stroke-width="2" stroke-dasharray="2 5" stroke-dashoffset="470.86956521739125" /><line x1="555.6521739130435" y1="82.26647979647764" x2="580.4347826086956" y2="82.26647979647764" fill="none" stroke="#6495ED" stroke-width="2" stroke-dasharray="2 5" stroke-dashoffset="495.6521739130435" /><line x1="580.4347826086956" y1="82.26647979647764" x2="605.2173913043478" y2="82.26647979647764" fill="none" stroke="#6495ED" stroke-width="2" stroke-dasharray="2 5" stroke-dashoffset="520.4347826086956" /><line x1="605.2173913043478" y1="82.26647979647764" x2="630" y2="82.26647979647764" fill="none" stroke="#6495ED" stroke-width="2" stroke-dasharray="2 5" stroke-dashoffset="545.2173913043478" /></g><text x="630" y="224.88932346312805" fill="#000000" font-size="10px" font-family="'Arial', sans-serif" text-anchor="start" dx="10px" dy="0px" /><text x="630" y="138.27542483206705" fill="#000000" font-size="10px" font-family="'Arial', sans-serif" text-anchor="start" dx="10px" dy="0px" /><text x="630" y="222.28884238545106" fill="#000000" font-size="10px" font-family="'Arial', sans-serif" text-anchor="start" dx="10px" dy="0px" /><text x="630" y="54.26200727868296" fill="#000000" font-size="10px" font-family="'Arial', sans-serif" text-anchor="start" dx="10px" dy="0px" /><text x="630" y="194.28436986765638" fill="#000000" font-size="10px" font-family="'Arial', sans-serif" text-anchor="start" dx="10px" dy="0px" /><text x="630" y="82.26647979647764" fill="#000000" font-size="10px" font-family="'Arial', sans-serif" text-anchor="start" dx="10px" dy="0px" /></g><g class="dotsgroup"><path style="fill:#E46C0A;stroke:#E46C0A;stroke-width:1;fill-opacity:1;stroke-opacity:1" d="M2.5,0A2.5,2.5,0,1,1,-2.5,0A2.5,2.5,0,1,1,2.5,0" transform="translate(60, 107.4351194955205)" /><path style="fill:#E46C0A;stroke:#E46C0A;stroke-width:1;fill-opacity:1;stroke-opacity:1" d="M2.5,0A2.5,2.5,0,1,1,-2.5,0A2.5,2.5,0,1,1,2.5,0" transform="translate(84.78260869565217, 104.18107064699765)" /><path style="fill:#E46C0A;stroke:#E46C0A;stroke-width:1;fill-opacity:1;stroke-opacity:1" d="M2.5,0A2.5,2.5,0,1,1,-2.5,0A2.5,2.5,0,1,1,2.5,0" transform="translate(109.56521739130434, 76.70456687244884)" /><path style="fill:#E46C0A;stroke:#E46C0A;stroke-width:1;fill-opacity:1;stroke-opacity:1" d="M2.5,0A2.5,2.5,0,1,1,-2.5,0A2.5,2.5,0,1,1,2.5,0" transform="translate(134.34782608695653, 129.27480333342848)" /><path style="fill:#E46C0A;stroke:#E46C0A;stroke-width:1;fill-opacity:1;stroke-opacity:1" d="M2.5,0A2.5,2.5,0,1,1,-2.5,0A2.5,2.5,0,1,1,2.5,0" transform="translate(159.1304347826087, 104.66911393009168)" /><path style="fill:#E46C0A;stroke:#E46C0A;stroke-width:1;fill-opacity:1;stroke-opacity:1" d="M2.5,0A2.5,2.5,0,1,1,-2.5,0A2.5,2.5,0,1,1,2.5,0" transform="translate(183.91304347826087, 104.04125454761372)" /><path style="fill:#E46C0A;stroke:#E46C0A;stroke-width:1;fill-opacity:1;stroke-opacity:1" d="M2.5,0A2.5,2.5,0,1,1,-2.5,0A2.5,2.5,0,1,1,2.5,0" transform="translate(208.69565217391306, 83.13762631143923)" /><path style="fill:#E46C0A;stroke:#E46C0A;stroke-width:1;fill-opacity:1;stroke-opacity:1" d="M2.5,0A2.5,2.5,0,1,1,-2.5,0A2.5,2.5,0,1,1,2.5,0" transform="translate(233.47826086956525, 106.69262415177373)" /><path style="fill:#E46C0A;stroke:#E46C0A;stroke-width:1;fill-opacity:1;stroke-opacity:1" d="M2.5,0A2.5,2.5,0,1,1,-2.5,0A2.5,2.5,0,1,1,2.5,0" transform="translate(258.2608695652174, 120.84906934798234)" /><path style="fill:#E46C0A;stroke:#E46C0A;stroke-width:1;fill-opacity:1;stroke-opacity:1" d="M2.5,0A2.5,2.5,0,1,1,-2.5,0A2.5,2.5,0,1,1,2.5,0" transform="translate(283.04347826086956, 70.46353888037738)" /><path style="fill:#E46C0A;stroke:#E46C0A;stroke-width:1;fill-opacity:1;stroke-opacity:1" d="M2.5,0A2.5,2.5,0,1,1,-2.5,0A2.5,2.5,0,1,1,2.5,0" transform="translate(307.82608695652175, 111.77407190623384)" /><path style="fill:#E46C0A;stroke:#E46C0A;stroke-width:1;fill-opacity:1;stroke-opacity:1" d="M2.5,0A2.5,2.5,0,1,1,-2.5,0A2.5,2.5,0,1,1,2.5,0" transform="translate(332.6086956521739, 88.80593999484547)" /><path style="fill:#E46C0A;stroke:#E46C0A;stroke-width:1;fill-opacity:1;stroke-opacity:1" d="M2.5,0A2.5,2.5,0,1,1,-2.5,0A2.5,2.5,0,1,1,2.5,0" transform="translate(357.3913043478261, 78.38833238649084)" /><path style="fill:#E46C0A;stroke:#E46C0A;stroke-width:1;fill-opacity:1;stroke-opacity:1" d="M2.5,0A2.5,2.5,0,1,1,-2.5,0A2.5,2.5,0,1,1,2.5,0" transform="translate(382.17391304347825, 133.87230004287872)" /><path style="fill:#E46C0A;stroke:#E46C0A;stroke-width:1;fill-opacity:1;stroke-opacity:1" d="M2.5,0A2.5,2.5,0,1,1,-2.5,0A2.5,2.5,0,1,1,2.5,0" transform="translate(406.95652173913044, 103.28509427201948)" /><path style="fill:#E46C0A;stroke:#E46C0A;stroke-width:1;fill-opacity:1;stroke-opacity:1" d="M2.5,0A2.5,2.5,0,1,1,-2.5,0A2.5,2.5,0,1,1,2.5,0" transform="translate(431.7391304347826, 52.75847494402237)" /><path style="fill:#00B0F0;stroke:#00B0F0;stroke-width:1;fill-opacity:1;stroke-opacity:1" d="M2.5,0A2.5,2.5,0,1,1,-2.5,0A2.5,2.5,0,1,1,2.5,0" transform="translate(456.52173913043475, 232.17415407392255)" /><path style="fill:#00B0F0;stroke:#00B0F0;stroke-width:1;fill-opacity:1;stroke-opacity:1" d="M2.5,0A2.5,2.5,0,1,1,-2.5,0A2.5,2.5,0,1,1,2.5,0" transform="translate(481.30434782608694, 185.44102846048233)" /><path style="fill:#00B0F0;stroke:#00B0F0;stroke-width:1;fill-opacity:1;stroke-opacity:1" d="M2.5,0A2.5,2.5,0,1,1,-2.5,0A2.5,2.5,0,1,1,2.5,0" transform="translate(506.0869565217391, 216.29044634752006)" /><path style="fill:#00B0F0;stroke:#00B0F0;stroke-width:1;fill-opacity:1;stroke-opacity:1" d="M2.5,0A2.5,2.5,0,1,1,-2.5,0A2.5,2.5,0,1,1,2.5,0" transform="translate(530.8695652173913, 187.89072511204014)" /><path style="fill:#00B0F0;stroke:#00B0F0;stroke-width:1;fill-opacity:1;stroke-opacity:1" d="M2.5,0A2.5,2.5,0,1,1,-2.5,0A2.5,2.5,0,1,1,2.5,0" transform="translate(555.6521739130435, 272.75847494402234)" /><path style="fill:#00B0F0;stroke:#00B0F0;stroke-width:1;fill-opacity:1;stroke-opacity:1" d="M2.5,0A2.5,2.5,0,1,1,-2.5,0A2.5,2.5,0,1,1,2.5,0" transform="translate(580.4347826086956, 211.64912856206368)" /><path style="fill:#00B0F0;stroke:#00B0F0;stroke-width:1;fill-opacity:1;stroke-opacity:1" d="M2.5,0A2.5,2.5,0,1,1,-2.5,0A2.5,2.5,0,1,1,2.5,0" transform="translate(605.2173913043478, 211.18391394226495)" /><path style="fill:#00B0F0;stroke:#00B0F0;stroke-width:1;fill-opacity:1;stroke-opacity:1" d="M2.5,0A2.5,2.5,0,1,1,-2.5,0A2.5,2.5,0,1,1,2.5,0" transform="translate(630, 224.88932346312805)" /></g></svg>