<svg viewBox="0 0 640 400" width="640px" height="400px" xmlns="http://www.w3.org/2000/svg"><rect x="0" y="0" width="100%" height="100%" fill="white"/><line style="stroke-opacity:0" class="ttip-line-x" x1="0" x2="0" y1="10" y2="340" stroke-width="1px" stroke="black" /><line style="stroke-opacity:0" class="ttip-line-y" x1="60" x2="630" y1="0" y2="0" stroke-width="1px" stroke="black" /><g class="xaxisgroup" fill="none" font-size="10" font-family="sans-serif" text-anchor="middle" color="#000000" transform="translate(0, 340)"><path class="domain" stroke="currentColor" d="M60.5,6V0.5H630.5V6" /><g class="tick" opacity="1" transform="translate(60.5,0)"><line stroke="currentColor" y2="6" /><text style="text-anchor:end;font-size:10px;font-family:'Arial', sans-serif;fill:#000000" fill="currentColor" y="9" dy="-.15em" dx="-.8em" transform="rotate(-35)"> 01/01/2024</text></g><g class="tick" opacity="1" transform="translate(110.06521739130434,0)"><line stroke="currentColor" y2="6" /><text style="text-anchor:end;font-size:10px;font-family:'Arial', sans-serif;fill:#000000" fill="currentColor" y="9" dy="-.15em" dx="-.8em" transform="rotate(-35)"> 01/03/2024</text></g><g class="tick" opacity="1" transform="translate(159.6304347826087,0)"><line stroke="currentColor" y2="6" /><text style="text-anchor:end;font-size:10px;font-family:'Arial', sans-serif;fill:#000000" fill="currentColor" y="9" dy="-.15em" dx="-.8em" transform="rotate(-35)"> 01/05/2024</text></g><g class="tick" opacity="1" transform="translate(209.19565217391303,0)"><line stroke="currentColor" y2="6" /><text style="text-anchor:end;font-size:10px;font-family:'Arial', sans-serif;fill:#000000" fill="currentColor" y="9" dy="-.15em" dx="-.8em" transform="rotate(-35)"> 01/07/2024</text></g><g class="tick" opacity="1" transform="translate(258.7608695652174,0)"><line stroke="currentColor" y2="6" /><text style="text-anchor:end;font-size:10px;font-family:'Arial', sans-serif;fill:#000000" fill="currentColor" y="9" dy="-.15em" dx="-.8em" transform="rotate(-35)"> 01/09/2024</text></g><g class="tick" opacity="1" transform="translate(308.32608695652175,0)"><line stroke="currentColor" y2="6" /><text style="text-anchor:end;font-size:10px;font-family:'Arial', sans-serif;fill:#000000" fill="currentColor" y="9" dy="-.15em" dx="-.8em" transform="rotate(-35)"> 01/11/2024</text></g><g class="tick" opacity="1" transform="translate(357.89130434782606,0)"><line stroke="currentColor" y2="6" /><text style="text-anchor:end;font-size:10px;font-family:'Arial', sans-serif;fill:#000000" fill="currentColor" y="9" dy="-.15em" dx="-.8em" transform="rotate(-35)"> 01/01/2025</text></g><g class="tick" opacity="1" transform="translate(407.45652173913044,0)"><line stroke="currentColor" y2="6" /><text style="text-anchor:end;font-size:10px;font-family:'Arial', sans-serif;fill:#000000" fill="currentColor" y="9" dy="-.15em" dx="-.8em" transform="rotate(-35)"> 01/03/2025</text></g><g class="tick" opacity="1" transform="translate(457.02173913043475,0)"><line stroke="currentColor" y2="6" /><text style="text-anchor:end;font-size:10px;font-family:'Arial', sans-serif;fill:#000000" fill="currentColor" y="9" dy="-.15em" dx="-.8em" transform="rotate(-35)"> 01/05/2025</text></g><g class="tick" opacity="1" transform="translate(506.5869565217391,0)"><line stroke="currentColor" y2="6" /><text style="text-anchor:end;font-size:10px;font-family:'Arial', sans-serif;fill:#000000" fill="currentColor" y="9" dy="-.15em" dx="-.8em" transform="rotate(-35)"> 01/07/2025</text></g><g class="tick" opacity="1" transform="translate(556.1521739130435,0)"><line stroke="currentColor" y2="6" /><text style="text-anchor:end;font-size:10px;font-family:'Arial', sans-serif;fill:#000000" fill="currentColor" y="9" dy="-.15em" dx="-.8em" transform="rotate(-35)"> 01/09/2025</text></g><g class="tick" opacity="1" transform="translate(605.7173913043479,0)"><line stroke="currentColor" y2="6" /><text style="text-anchor:end;font-size:10px;font-family:'Arial', sans-serif;fill:#000000" fill="currentColor" y="9" dy="-.15em" dx="-.8em" transform="rotate(-35)"> 01/11/2025</text></g></g><text style="text-anchor:middle;font-size:10px;font-family:'Arial', sans-serif;fill:#000000" class="xaxislabel" x="320" y="380" /><g class="yaxisgroup" fill="none" font-size="10" font-family="sans-serif" text-anchor="end" color="#000000" transform="translate(60, 0)"><path class="domain" stroke="currentColor" d="M-6,340.5H0.5V10.5H-6" /><g class="tick" opacity="1" transform="translate(0,330.756763119045)"><line stroke="currentColor" x2="-6" /><text style="text-anchor:right;font-size:10px;font-family:'Arial', sans-serif;fill:#000000" fill="currentColor" x="-9" dy="0.32em" transform="rotate(0)">60.00</text></g><g class="tick" opacity="1" transform="translate(0,285.37876884194077)"><line stroke="currentColor" x2="-6" /><text style="text-anchor:right;font-size:10px;font-family:'Arial', sans-serif;fill:#000000" fill="currentColor" x="-9" dy="0.32em" transform="rotate(0)">65.00</text></g><g class="tick" opacity="1" transform="translate(0,240.0007745648365)"><line stroke="currentColor" x2="-6" /><text style="text-anchor:right;font-size:10px;font-family:'Arial', sans-serif;fill:#000000" fill="currentColor" x="-9" dy="0.32em" transform="rotate(0)">70.00</text></g><g class="tick" opacity="1" transform="translate(0,194.62278028773224)"><line stroke="currentColor" x2="-6" /><text style="text-anchor:right;font-size:10px;font-family:'Arial', sans-serif;fill:#000000" fill="currentColor" x="-9" dy="0.32em" transform="rotate(0)">75.00</text></g><g class="tick" opacity="1" transform="translate(0,149.24478601062802)"><line stroke="currentColor" x2="-6" /><text style="text-anchor:right;font-size:10px;font-family:'Arial', sans-serif;fill:#000000" fill="currentColor" x="-9" dy="0.32em" transform="rotate(0)">80.00</text></g><g class="tick" opacity="1" transform="translate(0,103.86679173352374)"><line stroke="currentColor" x2="-6" /><text style="text-anchor:right;font-size:10px;font-family:'Arial', sans-serif;fill:#000000" fill="currentColor" x="-9" dy="0.32em" transform="rotate(0)">85.00</text></g><g class="tick" opacity="1" transform="translate(0,58.48879745641949)"><line stroke="currentColor" x2="-6" /><text style="text-anchor:right;font-size:10px;font-family:'Arial', sans-serif;fill:#000000" fill="currentColor" x="-9" dy="0.32em" transform="rotate(0)">90.00</text></g><g class="tick" opacity="1" transform="translate(0,13.110803179315212)"><line stroke="currentColor" x2="-6" /><text style="text-anchor:right;font-size:10px;font-family:'Arial', sans-serif;fill:#000000" fill="currentColor" x="-9" dy="0.32em" transform="rotate(0)">95.00</text></g></g><text style="text-anchor:middle;font-size:10px;font-family:'Arial', sans-serif;fill:#000000" class="yaxislabel" x="30" y="200" transform="rotate(-90, 30, 200)" /><g class="linesgroup"><g style="stroke-opacity:1" class="values-linegroup"><path d="M60,169.269L84.783,60.532L109.565,202.038L134.348,155.289L159.13,181.138L183.913,193.03L208.696,196.781L233.478,160.323L258.261,154.306L283.043,280.532L307.826,191.423L332.609,211.491L357.391,150.778L382.174,141.46L406.957,163.502L431.739,180.031L456.522,179.571L481.304,195.82L506.087,127.56L530.87,114.21L555.652,102.825L580.435,133.62L605.217,90.55L630,142.209" fill="none" stroke="#A6A6A6" stroke-dasharray="10 0" stroke-width="1" /></g><g style="stroke-opacity:1" class="targets-linegroup"><path d="M60,161.595L84.783,161.595L109.565,161.595L134.348,161.595L159.13,161.595L183.913,161.595L208.696,161.595L233.478,161.595L258.261,161.595L283.043,161.595L307.826,161.595L332.609,161.595L357.391,161.595L382.174,161.595L406.957,161.595L431.739,161.595L456.522,161.595L481.304,161.595L506.087,161.595L530.87,161.595L555.652,161.595L580.435,161.595L605.217,161.595L630,161.595" fill="none" stroke="#000000" stroke-dasharray="10 0" stroke-width="1.5" /></g><g style="stroke-opacity:1" class="ll99-linegroup"><path d="M60,260.566L84.783,260.566L109.565,260.566L134.348,260.566L159.13,260.566L183.913,260.566L208.696,260.566L233.478,260.566L258.261,260.566L283.043,260.566L307.826,260.566L332.609,260.566L357.391,260.566L382.174,260.566L406.957,260.566L431.739,260.566L456.522,260.566L481.304,260.566L506.087,260.566L530.87,260.566L555.652,260.566L580.435,260.566L605.217,260.566L630,260.566" fill="none" stroke="#6495ED" stroke-dasharray="10 10" stroke-width="2" /></g><g style="stroke-opacity:1" class="ul99-linegroup"><path d="M60,62.625L84.783,62.625L109.565,62.625L134.348,62.625L159.13,62.625L183.913,62.625L208.696,62.625L233.478,62.625L258.261,62.625L283.043,62.625L307.826,62.625L332.609,62.625L357.391,62.625L382.174,62.625L406.957,62.625L431.739,62.625L456.522,62.625L481.304,62.625L506.087,62.625L530.87,62.625L555.652,62.625L580.435,62.625L605.217,62.625L630,62.625" fill="none" stroke="#6495ED" stroke-dasharray="10 10" stroke-width="2" /></g><g style="stroke-opacity:1" class="ll95-linegroup"><path d="M60,227.576L84.783,227.576L109.565,227.576L134.348,227.576L159.13,227.576L183.913,227.576L208.696,227.576L233.478,227.576L258.261,227.576L283.043,227.576L307.826,227.576L332.609,227.576L357.391,227.576L382.174,227.576L406.957,227.576L431.739,227.576L456.522,227.576L481.304,227.576L506.087,227.576L530.87,227.576L555.652,227.576L580.435,227.576L605.217,227.576L630,227.576" fill="none" stroke="#6495ED" stroke-dasharray="2 5" stroke-width="2" /></g><g style="stroke-opacity:1" class="ul95-linegroup"><path d="M60,95.615L84.783,95.615L109.565,95.615L134.348,95.615L159.13,95.615L183.913,95.615L208.696,95.615L233.478,95.615L258.261,95.615L283.043,95.615L307.826,95.615L332.609,95.615L357.391,95.615L382.174,95.615L406.957,95.615L431.739,95.615L456.522,95.615L481.304,95.615L506.087,95.615L530.87,95.615L555.652,95.615L580.435,95.615L605.217,95.615L630,95.615" fill="none" stroke="#6495ED" stroke-dasharray="2 5" stroke-width="2" /></g><text x="630" y="142.20912414296126" fill="#000000" font-size="10px" font-family="'Arial', sans-serif" text-anchor="start" dx="10px" dy="0px" /><text x="630" y="161.59535292618762" fill="#000000" font-size="10px" font-family="'Arial', sans-serif" text-anchor="start" dx="10px" dy="0px" /><text x="630" y="260.5659838607004" fill="#000000" font-size="10px" font-family="'Arial', sans-serif" text-anchor="start" dx="10px" dy="0px" /><text x="630" y="62.62472199167479" fill="#000000" font-size="10px" font-family="'Arial', sans-serif" text-anchor="start" dx="10px" dy="0px" /><text x="630" y="227.57577354919613" fill="#000000" font-size="10px" font-family="'Arial', sans-serif" text-anchor="start" dx="10px" dy="0px" /><text x="630" y="95.61493230317905" fill="#000000" font-size="10px" font-family="'Arial', sans-serif" text-anchor="start" dx="10px" dy="0px" /></g><g class="dotsgroup"><path style="fill:#A6A6A6;stroke:#A6A6A6;stroke-width:1;fill-opacity:1;stroke-opacity:1" d="M2.5,0A2.5,2.5,0,1,1,-2.5,0A2.5,2.5,0,1,1,2.5,0" transform="translate(60, 169.26921698079403)" /><path style="fill:#A6A6A6;stroke:#A6A6A6;stroke-width:1;fill-opacity:1;stroke-opacity:1" d="M2.5,0A2.5,2.5,0,1,1,-2.5,0A2.5,2.5,0,1,1,2.5,0" transform="translate(84.78260869565217, 60.53178430872913)" /><path style="fill:#A6A6A6;stroke:#A6A6A6;stroke-width:1;fill-opacity:1;stroke-opacity:1" d="M2.5,0A2.5,2.5,0,1,1,-2.5,0A2.5,2.5,0,1,1,2.5,0" transform="translate(109.56521739130434, 202.0375649235292)" /><path style="fill:#A6A6A6;stroke:#A6A6A6;stroke-width:1;fill-opacity:1;stroke-opacity:1" d="M2.5,0A2.5,2.5,0,1,1,-2.5,0A2.5,2.5,0,1,1,2.5,0" transform="translate(134.3478260869565, 155.28945026921903)" /><path style="fill:#A6A6A6;stroke:#A6A6A6;stroke-width:1;fill-opacity:1;stroke-opacity:1" d="M2.5,0A2.5,2.5,0,1,1,-2.5,0A2.5,2.5,0,1,1,2.5,0" transform="translate(159.1304347826087, 181.13843163450133)" /><path style="fill:#A6A6A6;stroke:#A6A6A6;stroke-width:1;fill-opacity:1;stroke-opacity:1" d="M2.5,0A2.5,2.5,0,1,1,-2.5,0A2.5,2.5,0,1,1,2.5,0" transform="translate(183.91304347826087, 193.03030855192773)" /><path style="fill:#A6A6A6;stroke:#A6A6A6;stroke-width:1;fill-opacity:1;stroke-opacity:1" d="M2.5,0A2.5,2.5,0,1,1,-2.5,0A2.5,2.5,0,1,1,2.5,0" transform="translate(208.69565217391303, 196.78124041526496)" /><path style="fill:#A6A6A6;stroke:#A6A6A6;stroke-width:1;fill-opacity:1;stroke-opacity:1" d="M2.5,0A2.5,2.5,0,1,1,-2.5,0A2.5,2.5,0,1,1,2.5,0" transform="translate(233.47826086956522, 160.32316772749655)" /><path style="fill:#A6A6A6;stroke:#A6A6A6;stroke-width:1;fill-opacity:1;stroke-opacity:1" d="M2.5,0A2.5,2.5,0,1,1,-2.5,0A2.5,2.5,0,1,1,2.5,0" transform="translate(258.2608695652174, 154.305875555243)" /><path style="fill:#A6A6A6;stroke:#A6A6A6;stroke-width:1;fill-opacity:1;stroke-opacity:1" d="M2.5,0A2.5,2.5,0,1,1,-2.5,0A2.5,2.5,0,1,1,2.5,0" transform="translate(283.04347826086956, 280.5317843087292)" /><path style="fill:#A6A6A6;stroke:#A6A6A6;stroke-width:1;fill-opacity:1;stroke-opacity:1" d="M2.5,0A2.5,2.5,0,1,1,-2.5,0A2.5,2.5,0,1,1,2.5,0" transform="translate(307.82608695652175, 191.4230490753335)" /><path style="fill:#A6A6A6;stroke:#A6A6A6;stroke-width:1;fill-opacity:1;stroke-opacity:1" d="M2.5,0A2.5,2.5,0,1,1,-2.5,0A2.5,2.5,0,1,1,2.5,0" transform="translate(332.60869565217394, 211.49062261896154)" /><path style="fill:#A6A6A6;stroke:#A6A6A6;stroke-width:1;fill-opacity:1;stroke-opacity:1" d="M2.5,0A2.5,2.5,0,1,1,-2.5,0A2.5,2.5,0,1,1,2.5,0" transform="translate(357.39130434782606, 150.7777238484405)" /><path style="fill:#A6A6A6;stroke:#A6A6A6;stroke-width:1;fill-opacity:1;stroke-opacity:1" d="M2.5,0A2.5,2.5,0,1,1,-2.5,0A2.5,2.5,0,1,1,2.5,0" transform="translate(382.17391304347825, 141.46015061364838)" /><path style="fill:#A6A6A6;stroke:#A6A6A6;stroke-width:1;fill-opacity:1;stroke-opacity:1" d="M2.5,0A2.5,2.5,0,1,1,-2.5,0A2.5,2.5,0,1,1,2.5,0" transform="translate(406.95652173913044, 163.5023362055519)" /><path style="fill:#A6A6A6;stroke:#A6A6A6;stroke-width:1;fill-opacity:1;stroke-opacity:1" d="M2.5,0A2.5,2.5,0,1,1,-2.5,0A2.5,2.5,0,1,1,2.5,0" transform="translate(431.7391304347826, 180.03089022119107)" /><path style="fill:#A6A6A6;stroke:#A6A6A6;stroke-width:1;fill-opacity:1;stroke-opacity:1" d="M2.5,0A2.5,2.5,0,1,1,-2.5,0A2.5,2.5,0,1,1,2.5,0" transform="translate(456.52173913043475, 179.57136573159377)" /><path style="fill:#A6A6A6;stroke:#A6A6A6;stroke-width:1;fill-opacity:1;stroke-opacity:1" d="M2.5,0A2.5,2.5,0,1,1,-2.5,0A2.5,2.5,0,1,1,2.5,0" transform="translate(481.30434782608694, 195.82039655958067)" /><path style="fill:#00B0F0;stroke:#00B0F0;stroke-width:1;fill-opacity:1;stroke-opacity:1" d="M2.5,0A2.5,2.5,0,1,1,-2.5,0A2.5,2.5,0,1,1,2.5,0" transform="translate(506.0869565217391, 127.55954092512229)" /><path style="fill:#00B0F0;stroke:#00B0F0;stroke-width:1;fill-opacity:1;stroke-opacity:1" d="M2.5,0A2.5,2.5,0,1,1,-2.5,0A2.5,2.5,0,1,1,2.5,0" transform="translate(530.8695652173913, 114.20974325389042)" /><path style="fill:#00B0F0;stroke:#00B0F0;stroke-width:1;fill-opacity:1;stroke-opacity:1" d="M2.5,0A2.5,2.5,0,1,1,-2.5,0A2.5,2.5,0,1,1,2.5,0" transform="translate(555.6521739130435, 102.82456236014937)" /><path style="fill:#00B0F0;stroke:#00B0F0;stroke-width:1;fill-opacity:1;stroke-opacity:1" d="M2.5,0A2.5,2.5,0,1,1,-2.5,0A2.5,2.5,0,1,1,2.5,0" transform="translate(580.4347826086956, 133.62006407698547)" /><path style="fill:#00B0F0;stroke:#00B0F0;stroke-width:1;fill-opacity:1;stroke-opacity:1" d="M2.5,0A2.5,2.5,0,1,1,-2.5,0A2.5,2.5,0,1,1,2.5,0" transform="translate(605.2173913043479, 90.55007591965861)" /><path style="fill:#00B0F0;stroke:#00B0F0;stroke-width:1;fill-opacity:1;stroke-opacity:1" d="M2.5,0A2.5,2.5,0,1,1,-2.5,0A2.5,2.5,0,1,1,2.5,0" transform="translate(630, 142.20912414296126)" /></g></svg>