<svg viewBox="0 0 640 400" width="640px" height="400px" xmlns="http://www.w3.org/2000/svg"><rect x="0" y="0" width="100%" height="100%" fill="white"/><line style="stroke-opacity:0" class="ttip-line-x" x1="0" x2="0" y1="10" y2="340" stroke-width="1px" stroke="black" /><line style="stroke-opacity:0" class="ttip-line-y" x1="60" x2="630" y1="0" y2="0" stroke-width="1px" stroke="black" /><g class="xaxisgroup" fill="none" font-size="10" font-family="sans-serif" text-anchor="middle" color="#000000" transform="translate(0, 340)"><path class="domain" stroke="currentColor" d="M60.5,6V0.5H630.5V6" /><g class="tick" opacity="1" transform="translate(60.5,0)"><line stroke="currentColor" y2="6" /><text style="text-anchor:end;font-size:10px;font-family:'Arial', sans-serif;fill:#000000" fill="currentColor" y="9" dy="-.15em" dx="-.8em" transform="rotate(-35)"> 01/01/2024</text></g><g class="tick" opacity="1" transform="translate(110.06521739130434,0)"><line stroke="currentColor" y2="6" /><text style="text-anchor:end;font-size:10px;font-family:'Arial', sans-serif;fill:#000000" fill="currentColor" y="9" dy="-.15em" dx="-.8em" transform="rotate(-35)"> 01/03/2024</text></g><g class="tick" opacity="1" transform="translate(159.6304347826087,0)"><line stroke="currentColor" y2="6" /><text style="text-anchor:end;font-size:10px;font-family:'Arial', sans-serif;fill:#000000" fill="currentColor" y="9" dy="-.15em" dx="-.8em" transform="rotate(-35)"> 01/05/2024</text></g><g class="tick" opacity="1" transform="translate(209.19565217391303,0)"><line stroke="currentColor" y2="6" /><text style="text-anchor:end;font-size:10px;font-family:'Arial', sans-serif;fill:#000000" fill="currentColor" y="9" dy="-.15em" dx="-.8em" transform="rotate(-35)"> 01/07/2024</text></g><g class="tick" opacity="1" transform="translate(258.7608695652174,0)"><line stroke="currentColor" y2="6" /><text style="text-anchor:end;font-size:10px;font-family:'Arial', sans-serif;fill:#000000" fill="currentColor" y="9" dy="-.15em" dx="-.8em" transform="rotate(-35)"> 01/09/2024</text></g><g class="tick" opacity="1" transform="translate(308.32608695652175,0)"><line stroke="currentColor" y2="6" /><text style="text-anchor:end;font-size:10px;font-family:'Arial', sans-serif;fill:#000000" fill="currentColor" y="9" dy="-.15em" dx="-.8em" transform="rotate(-35)"> 01/11/2024</text></g><g class="tick" opacity="1" transform="translate(357.89130434782606,0)"><line stroke="currentColor" y2="6" /><text style="text-anchor:end;font-size:10px;font-family:'Arial', sans-serif;fill:#000000" fill="currentColor" y="9" dy="-.15em" dx="-.8em" transform="rotate(-35)"> 01/01/2025</text></g><g class="tick" opacity="1" transform="translate(407.45652173913044,0)"><line stroke="currentColor" y2="6" /><text style="text-anchor:end;font-size:10px;font-family:'Arial', sans-serif;fill:#000000" fill="currentColor" y="9" dy="-.15em" dx="-.8em" transform="rotate(-35)"> 01/03/2025</text></g><g class="tick" opacity="1" transform="translate(457.02173913043475,0)"><line stroke="currentColor" y2="6" /><text style="text-anchor:end;font-size:10px;font-family:'Arial', sans-serif;fill:#000000" fill="currentColor" y="9" dy="-.15em" dx="-.8em" transform="rotate(-35)"> 01/05/2025</text></g><g class="tick" opacity="1" transform="translate(506.5869565217391,0)"><line stroke="currentColor" y2="6" /><text style="text-anchor:end;font-size:10px;font-family:'Arial', sans-serif;fill:#000000" fill="currentColor" y="9" dy="-.15em" dx="-.8em" transform="rotate(-35)"> 01/07/2025</text></g><g class="tick" opacity="1" transform="translate(556.1521739130435,0)"><line stroke="currentColor" y2="6" /><text style="text-anchor:end;font-size:10px;font-family:'Arial', sans-serif;fill:#000000" fill="currentColor" y="9" dy="-.15em" dx="-.8em" transform="rotate(-35)"> 01/09/2025</text></g><g class="tick" opacity="1" transform="translate(605.7173913043479,0)"><line stroke="currentColor" y2="6" /><text style="text-anchor:end;font-size:10px;font-family:'Arial', sans-serif;fill:#000000" fill="currentColor" y="9" dy="-.15em" dx="-.8em" transform="rotate(-35)"> 01/11/2025</text></g></g><text style="text-anchor:middle;font-size:10px;font-family:'Arial', sans-serif;fill:#000000" class="xaxislabel" x="320" y="380" /><g class="yaxisgroup" fill="none" font-size="10" font-family="sans-serif" text-anchor="end" color="#000000" transform="translate(60, 0)"><path class="domain" stroke="currentColor" d="M-6,340.5H0.5V10.5H-6" /><g class="tick" opacity="1" transform="translate(0,330.9118262895462)"><line stroke="currentColor" x2="-6" /><text style="text-anchor:right;font-size:10px;font-family:'Arial', sans-serif;fill:#000000" fill="currentColor" x="-9" dy="0.32em" transform="rotate(0)">6.00</text></g><g class="tick" opacity="1" transform="translate(0,287.59702577730195)"><line stroke="currentColor" x2="-6" /><text style="text-anchor:right;font-size:10px;font-family:'Arial', sans-serif;fill:#000000" fill="currentColor" x="-9" dy="0.32em" transform="rotate(0)">8.00</text></g><g class="tick" opacity="1" transform="translate(0,244.28222526505766)"><line stroke="currentColor" x2="-6" /><text style="text-anchor:right;font-size:10px;font-family:'Arial', sans-serif;fill:#000000" fill="currentColor" x="-9" dy="0.32em" transform="rotate(0)">10.00</text></g><g class="tick" opacity="1" transform="translate(0,200.9674247528134)"><line stroke="currentColor" x2="-6" /><text style="text-anchor:right;font-size:10px;font-family:'Arial', sans-serif;fill:#000000" fill="currentColor" x="-9" dy="0.32em" transform="rotate(0)">12.00</text></g><g class="tick" opacity="1" transform="translate(0,157.65262424056917)"><line stroke="currentColor" x2="-6" /><text style="text-anchor:right;font-size:10px;font-family:'Arial', sans-serif;fill:#000000" fill="currentColor" x="-9" dy="0.32em" transform="rotate(0)">14.00</text></g><g class="tick" opacity="1" transform="translate(0,114.33782372832488)"><line stroke="currentColor" x2="-6" /><text style="text-anchor:right;font-size:10px;font-family:'Arial', sans-serif;fill:#000000" fill="currentColor" x="-9" dy="0.32em" transform="rotate(0)">16.00</text></g><g class="tick" opacity="1" transform="translate(0,71.02302321608062)"><line stroke="currentColor" x2="-6" /><text style="text-anchor:right;font-size:10px;font-family:'Arial', sans-serif;fill:#000000" fill="currentColor" x="-9" dy="0.32em" transform="rotate(0)">18.00</text></g><g class="tick" opacity="1" transform="translate(0,27.708222703836384)"><line stroke="currentColor" x2="-6" /><text style="text-anchor:right;font-size:10px;font-family:'Arial', sans-serif;fill:#000000" fill="currentColor" x="-9" dy="0.32em" transform="rotate(0)">20.00</text></g></g><text style="text-anchor:middle;font-size:10px;font-family:'Arial', sans-serif;fill:#000000" class="yaxislabel" x="30" y="200" transform="rotate(-90, 30, 200)" /><g class="linesgroup"><g style="stroke-opacity:1" class="values-linegroup"><path d="M60,153.436L84.783,157.094L109.565,159.314L134.348,178.539L159.13,210.433L183.913,158.367L208.696,194.465L233.478,211.338L258.261,176.757L283.043,83.103L307.826,60.191L332.609,63.053L357.391,137.957L382.174,97.44L406.957,71.212L431.739,90.637L456.522,159.505L481.304,194.221L506.087,177.608L530.87,200.398L555.652,142.514L580.435,280.191L605.217,219.862L630,276.118" fill="none" stroke="#A6A6A6" stroke-dasharray="10 0" stroke-width="1" /></g><g style="stroke-opacity:1" class="targets-linegroup"><path d="M60,160.573L84.783,160.573L109.565,160.573L134.348,160.573L159.13,160.573L183.913,160.573L208.696,160.573L233.478,160.573L258.261,160.573L283.043,160.573L307.826,160.573L332.609,160.573L357.391,160.573L382.174,160.573L406.957,160.573L431.739,160.573L456.522,160.573L481.304,160.573L506.087,160.573L530.87,160.573L555.652,160.573L580.435,160.573L605.217,160.573L630,160.573" fill="none" stroke="#000000" stroke-dasharray="10 0" stroke-width="1.5" /></g><g style="stroke-opacity:1" class="ll99-linegroup"><path d="M60,256.629L84.783,256.629L109.565,256.629L134.348,256.629L159.13,256.629L183.913,256.629L208.696,256.629L233.478,256.629L258.261,256.629L283.043,256.629L307.826,256.629L332.609,256.629L357.391,256.629L382.174,256.629L406.957,256.629L431.739,256.629L456.522,256.629L481.304,256.629L506.087,256.629L530.87,256.629L555.652,256.629L580.435,256.629L605.217,256.629L630,256.629" fill="none" stroke="#6495ED" stroke-dasharray="10 10" stroke-width="2" /></g><g style="stroke-opacity:1" class="ul99-linegroup"><path d="M60,64.517L84.783,64.517L109.565,64.517L134.348,64.517L159.13,64.517L183.913,64.517L208.696,64.517L233.478,64.517L258.261,64.517L283.043,64.517L307.826,64.517L332.609,64.517L357.391,64.517L382.174,64.517L406.957,64.517L431.739,64.517L456.522,64.517L481.304,64.517L506.087,64.517L530.87,64.517L555.652,64.517L580.435,64.517L605.217,64.517L630,64.517" fill="none" stroke="#6495ED" stroke-dasharray="10 10" stroke-width="2" /></g><g style="stroke-opacity:1" class="ll95-linegroup"><path d="M60,224.61L84.783,224.61L109.565,224.61L134.348,224.61L159.13,224.61L183.913,224.61L208.696,224.61L233.478,224.61L258.261,224.61L283.043,224.61L307.826,224.61L332.609,224.61L357.391,224.61L382.174,224.61L406.957,224.61L431.739,224.61L456.522,224.61L481.304,224.61L506.087,224.61L530.87,224.61L555.652,224.61L580.435,224.61L605.217,224.61L630,224.61" fill="none" stroke="#6495ED" stroke-dasharray="2 5" stroke-width="2" /></g><g style="stroke-opacity:1" class="ul95-linegroup"><path d="M60,96.536L84.783,96.536L109.565,96.536L134.348,96.536L159.13,96.536L183.913,96.536L208.696,96.536L233.478,96.536L258.261,96.536L283.043,96.536L307.826,96.536L332.609,96.536L357.391,96.536L382.174,96.536L406.957,96.536L431.739,96.536L456.522,96.536L481.304,96.536L506.087,96.536L530.87,96.536L555.652,96.536L580.435,96.536L605.217,96.536L630,96.536" fill="none" stroke="#6495ED" stroke-dasharray="2 5" stroke-width="2" /></g><text x="630" y="276.1183832941316" fill="#000000" font-size="10px" font-family="'Arial', sans-serif" text-anchor="start" dx="10px" dy="0px" /><text x="630" y="160.5730206128034" fill="#000000" font-size="10px" font-family="'Arial', sans-serif" text-anchor="start" dx="10px" dy="0px" /><text x="630" y="256.62873054332107" fill="#000000" font-size="10px" font-family="'Arial', sans-serif" text-anchor="start" dx="10px" dy="0px" /><text x="630" y="64.51731068228565" fill="#000000" font-size="10px" font-family="'Arial', sans-serif" text-anchor="start" dx="10px" dy="0px" /><text x="630" y="224.61016056648182" fill="#000000" font-size="10px" font-family="'Arial', sans-serif" text-anchor="start" dx="10px" dy="0px" /><text x="630" y="96.53588065912487" fill="#000000" font-size="10px" font-family="'Arial', sans-serif" text-anchor="start" dx="10px" dy="0px" /></g><g class="dotsgroup"><path style="fill:#A6A6A6;stroke:#A6A6A6;stroke-width:1;fill-opacity:1;stroke-opacity:1" d="M2.5,0A2.5,2.5,0,1,1,-2.5,0A2.5,2.5,0,1,1,2.5,0" transform="translate(60, 153.4355113773541)" /><path style="fill:#A6A6A6;stroke:#A6A6A6;stroke-width:1;fill-opacity:1;stroke-opacity:1" d="M2.5,0A2.5,2.5,0,1,1,-2.5,0A2.5,2.5,0,1,1,2.5,0" transform="translate(84.78260869565217, 157.0943830407961)" /><path style="fill:#A6A6A6;stroke:#A6A6A6;stroke-width:1;fill-opacity:1;stroke-opacity:1" d="M2.5,0A2.5,2.5,0,1,1,-2.5,0A2.5,2.5,0,1,1,2.5,0" transform="translate(109.56521739130434, 159.31363524514614)" /><path style="fill:#A6A6A6;stroke:#A6A6A6;stroke-width:1;fill-opacity:1;stroke-opacity:1" d="M2.5,0A2.5,2.5,0,1,1,-2.5,0A2.5,2.5,0,1,1,2.5,0" transform="translate(134.3478260869565, 178.53862742193567)" /><path style="fill:#A6A6A6;stroke:#A6A6A6;stroke-width:1;fill-opacity:1;stroke-opacity:1" d="M2.5,0A2.5,2.5,0,1,1,-2.5,0A2.5,2.5,0,1,1,2.5,0" transform="translate(159.1304347826087, 210.4326261903182)" /><path style="fill:#A6A6A6;stroke:#A6A6A6;stroke-width:1;fill-opacity:1;stroke-opacity:1" d="M2.5,0A2.5,2.5,0,1,1,-2.5,0A2.5,2.5,0,1,1,2.5,0" transform="translate(183.91304347826087, 158.3671548207411)" /><path style="fill:#A6A6A6;stroke:#A6A6A6;stroke-width:1;fill-opacity:1;stroke-opacity:1" d="M2.5,0A2.5,2.5,0,1,1,-2.5,0A2.5,2.5,0,1,1,2.5,0" transform="translate(208.69565217391303, 194.465211446231)" /><path style="fill:#A6A6A6;stroke:#A6A6A6;stroke-width:1;fill-opacity:1;stroke-opacity:1" d="M2.5,0A2.5,2.5,0,1,1,-2.5,0A2.5,2.5,0,1,1,2.5,0" transform="translate(233.47826086956522, 211.33769925202785)" /><path style="fill:#A6A6A6;stroke:#A6A6A6;stroke-width:1;fill-opacity:1;stroke-opacity:1" d="M2.5,0A2.5,2.5,0,1,1,-2.5,0A2.5,2.5,0,1,1,2.5,0" transform="translate(258.2608695652174, 176.7570989060293)" /><path style="fill:#E46C0A;stroke:#E46C0A;stroke-width:1;fill-opacity:1;stroke-opacity:1" d="M2.5,0A2.5,2.5,0,1,1,-2.5,0A2.5,2.5,0,1,1,2.5,0" transform="translate(283.04347826086956, 83.10327801055246)" /><path style="fill:#E46C0A;stroke:#E46C0A;stroke-width:1;fill-opacity:1;stroke-opacity:1" d="M2.5,0A2.5,2.5,0,1,1,-2.5,0A2.5,2.5,0,1,1,2.5,0" transform="translate(307.82608695652175, 60.19100687093447)" /><path style="fill:#E46C0A;stroke:#E46C0A;stroke-width:1;fill-opacity:1;stroke-opacity:1" d="M2.5,0A2.5,2.5,0,1,1,-2.5,0A2.5,2.5,0,1,1,2.5,0" transform="translate(332.60869565217394, 63.05281228412207)" /><path style="fill:#E46C0A;stroke:#E46C0A;stroke-width:1;fill-opacity:1;stroke-opacity:1" d="M2.5,0A2.5,2.5,0,1,1,-2.5,0A2.5,2.5,0,1,1,2.5,0" transform="translate(357.39130434782606, 137.95720445110655)" /><path style="fill:#E46C0A;stroke:#E46C0A;stroke-width:1;fill-opacity:1;stroke-opacity:1" d="M2.5,0A2.5,2.5,0,1,1,-2.5,0A2.5,2.5,0,1,1,2.5,0" transform="translate(382.17391304347825, 97.44021994737818)" /><path style="fill:#E46C0A;stroke:#E46C0A;stroke-width:1;fill-opacity:1;stroke-opacity:1" d="M2.5,0A2.5,2.5,0,1,1,-2.5,0A2.5,2.5,0,1,1,2.5,0" transform="translate(406.95652173913044, 71.21164110940913)" /><path style="fill:#E46C0A;stroke:#E46C0A;stroke-width:1;fill-opacity:1;stroke-opacity:1" d="M2.5,0A2.5,2.5,0,1,1,-2.5,0A2.5,2.5,0,1,1,2.5,0" transform="translate(431.7391304347826, 90.63708288221656)" /><path style="fill:#E46C0A;stroke:#E46C0A;stroke-width:1;fill-opacity:1;stroke-opacity:1" d="M2.5,0A2.5,2.5,0,1,1,-2.5,0A2.5,2.5,0,1,1,2.5,0" transform="translate(456.52173913043475, 159.5047675096606)" /><path style="fill:#A6A6A6;stroke:#A6A6A6;stroke-width:1;fill-opacity:1;stroke-opacity:1" d="M2.5,0A2.5,2.5,0,1,1,-2.5,0A2.5,2.5,0,1,1,2.5,0" transform="translate(481.30434782608694, 194.22133698582175)" /><path style="fill:#A6A6A6;stroke:#A6A6A6;stroke-width:1;fill-opacity:1;stroke-opacity:1" d="M2.5,0A2.5,2.5,0,1,1,-2.5,0A2.5,2.5,0,1,1,2.5,0" transform="translate(506.0869565217391, 177.60792624579182)" /><path style="fill:#A6A6A6;stroke:#A6A6A6;stroke-width:1;fill-opacity:1;stroke-opacity:1" d="M2.5,0A2.5,2.5,0,1,1,-2.5,0A2.5,2.5,0,1,1,2.5,0" transform="translate(530.8695652173913, 200.39755670595017)" /><path style="fill:#A6A6A6;stroke:#A6A6A6;stroke-width:1;fill-opacity:1;stroke-opacity:1" d="M2.5,0A2.5,2.5,0,1,1,-2.5,0A2.5,2.5,0,1,1,2.5,0" transform="translate(555.6521739130435, 142.51421235821826)" /><path style="fill:#00B0F0;stroke:#00B0F0;stroke-width:1;fill-opacity:1;stroke-opacity:1" d="M2.5,0A2.5,2.5,0,1,1,-2.5,0A2.5,2.5,0,1,1,2.5,0" transform="translate(580.4347826086956, 280.1910068709344)" /><path style="fill:#A6A6A6;stroke:#A6A6A6;stroke-width:1;fill-opacity:1;stroke-opacity:1" d="M2.5,0A2.5,2.5,0,1,1,-2.5,0A2.5,2.5,0,1,1,2.5,0" transform="translate(605.2173913043479, 219.8621114804737)" /><path style="fill:#00B0F0;stroke:#00B0F0;stroke-width:1;fill-opacity:1;stroke-opacity:1" d="M2.5,0A2.5,2.5,0,1,1,-2.5,0A2.5,2.5,0,1,1,2.5,0" transform="translate(630, 276.1183832941316)" /></g><g class="icongroup" transform="scale(0.08465608465608465) translate(7182, 0)"><defs><filter id="fx0" x="-10%" y="-10%" width="120%" height="120%" filterUnits="userSpaceOnUse" userSpaceOnUse="userSpaceOnUse"><feComponentTransfer color-interpolation-filters="sRGB"><feFuncR type="discrete" tableValues="0 0" /><feFuncG type="discrete" tableValues="0 0" /><feFuncB type="discrete" tableValues="0 0" /><feFuncA type="linear" slope="0.4" intercept="0" /></feComponentTransfer><feGaussianBlur stdDeviation="1.77778 1.77778" /></filter><clipPath id="clip1"><rect x="0" y="0" width="378" height="378" /></clipPath><clipPath id="clip2"><path d="M189 38C105.605 38 38 105.605 38 189 38 272.395 105.605 340 189 340 272.395 340 340 272.395 340 189 340 105.605 272.395 38 189 38ZM5.63264e-06 5.63264e-06 378 5.63264e-06 378 378 5.63264e-06 378Z" fill-rule="evenodd" clip-rule="evenodd" /></clipPath><clipPath id="clip3"><rect x="-2" y="-2" width="346" height="346" /></clipPath></defs><g class="improvementLow" clip-path="url(#clip1)"><rect x="0" y="0" width="378" height="378" fill="#FFFFFF" /><g clip-path="url(#clip2)"><g clip-path="url(#clip3)" filter="url(#fx0)" transform="translate(16 25)"><g clip-path="url(#clip4)"><path d="M17.47 172.83C17.47 86.9332 87.1031 17.3 173 17.3 258.897 17.3 328.53 86.9332 328.53 172.83 328.53 258.727 258.897 328.36 173 328.36 87.1031 328.36 17.47 258.727 17.47 172.83Z" stroke="#00B0F0" stroke-width="21" stroke-miterlimit="8" fill="#FFFFFF" fill-rule="evenodd" /></g></g></g><path d="M38 189C38 105.605 105.605 38 189 38 272.395 38 340 105.605 340 189 340 272.395 272.395 340 189 340 105.605 340 38 272.395 38 189Z" stroke="#00B0F0" stroke-width="20" stroke-miterlimit="8" fill="#FFFFFF" fill-rule="evenodd" /><text fill="#00B0F0" font-family="Arial,Arial_MSFontService,sans-serif" font-weight="700" font-size="11.7" transform="translate(106.228 292) scale(10, 10)">L</text><path d="M95.4025 162.857 141.063 143.281 144.597 151.525 98.9371 171.101Z" stroke="#7F7F7F" stroke-width="2.66667" stroke-miterlimit="8" fill="#7F7F7F" fill-rule="evenodd" /><path d="M149.897 145.496 193.618 169.089 189.358 176.983 145.638 153.39Z" stroke="#7F7F7F" stroke-width="2.66667" stroke-miterlimit="8" fill="#7F7F7F" fill-rule="evenodd" /><path d="M199.882 171.677 235.443 206.367 229.18 212.788 193.618 178.098Z" stroke="#7F7F7F" stroke-width="2.66667" stroke-miterlimit="8" fill="#7F7F7F" fill-rule="evenodd" /><path d="M238.113 209.566 284.671 192.233 287.8 200.639 241.243 217.972Z" stroke="#7F7F7F" stroke-width="2.66667" stroke-miterlimit="8" fill="#7F7F7F" fill-rule="evenodd" /><path d="M76.5001 168.5C76.5001 156.902 85.6782 147.5 97.0001 147.5 108.322 147.5 117.5 156.902 117.5 168.5 117.5 180.098 108.322 189.5 97.0001 189.5 85.6782 189.5 76.5001 180.098 76.5001 168.5Z" stroke="#7F7F7F" stroke-width="2.66667" stroke-miterlimit="8" fill="#7F7F7F" fill-rule="evenodd" /><path d="M123.5 150C123.5 138.678 132.678 129.5 144 129.5 155.322 129.5 164.5 138.678 164.5 150 164.5 161.322 155.322 170.5 144 170.5 132.678 170.5 123.5 161.322 123.5 150Z" stroke="#7F7F7F" stroke-width="2.66667" stroke-miterlimit="8" fill="#7F7F7F" fill-rule="evenodd" /><path d="M170.5 168.5C170.5 156.902 179.902 147.5 191.5 147.5 203.098 147.5 212.5 156.902 212.5 168.5 212.5 180.098 203.098 189.5 191.5 189.5 179.902 189.5 170.5 180.098 170.5 168.5Z" stroke="#7F7F7F" stroke-width="2.66667" stroke-miterlimit="8" fill="#7F7F7F" fill-rule="evenodd" /><path d="M217.5 214C217.5 202.678 226.902 193.5 238.5 193.5 250.098 193.5 259.5 202.678 259.5 214 259.5 225.322 250.098 234.5 238.5 234.5 226.902 234.5 217.5 225.322 217.5 214Z" stroke="#00B0F0" stroke-width="2.66667" stroke-miterlimit="8" fill="#00B0F0" fill-rule="evenodd" /><path d="M265.5 199C265.5 187.678 274.678 178.5 286 178.5 297.322 178.5 306.5 187.678 306.5 199 306.5 210.322 297.322 219.5 286 219.5 274.678 219.5 265.5 210.322 265.5 199Z" stroke="#00B0F0" stroke-width="2.66667" stroke-miterlimit="8" fill="#00B0F0" fill-rule="evenodd" /></g></g></svg>