<svg viewBox="0 0 640 400" width="640px" height="400px" xmlns="http://www.w3.org/2000/svg"><rect x="0" y="0" width="100%" height="100%" fill="white"/><line style="stroke-opacity:0" class="ttip-line-x" x1="0" x2="0" y1="10" y2="355" stroke-width="1px" stroke="black" /><line style="stroke-opacity:0" class="ttip-line-y" x1="60" x2="630" y1="0" y2="0" stroke-width="1px" stroke="black" /><g class="gridgroup" /><g class="xaxisgroup" fill="none" font-size="10" font-family="sans-serif" text-anchor="middle" color="#000000" transform="translate(0, 355)"><path class="domain" stroke="currentColor" d="M60.5,6V0.5H630.5V6" /><g class="tick" opacity="1" transform="translate(60.5,0)"><line style="stroke:currentColor" stroke="currentColor" y2="6" /><text style="text-anchor:end;font-size:10px;font-family:'Arial', sans-serif;fill:#000000" fill="currentColor" y="9" dy="-.15em" dx="-.8em" transform="rotate(-35)"> 01/01/2024</text></g><g class="tick" opacity="1" transform="translate(110.06521739130434,0)"><line style="stroke:currentColor" stroke="currentColor" y2="6" /><text style="text-anchor:end;font-size:10px;font-family:'Arial', sans-serif;fill:#000000" fill="currentColor" y="9" dy="-.15em" dx="-.8em" transform="rotate(-35)"> 01/03/2024</text></g><g class="tick" opacity="1" transform="translate(159.6304347826087,0)"><line style="stroke:currentColor" stroke="currentColor" y2="6" /><text style="text-anchor:end;font-size:10px;font-family:'Arial', sans-serif;fill:#000000" fill="currentColor" y="9" dy="-.15em" dx="-.8em" transform="rotate(-35)"> 01/05/2024</text></g><g class="tick" opacity="1" transform="translate(209.19565217391303,0)"><line style="stroke:currentColor" stroke="currentColor" y2="6" /><text style="text-anchor:end;font-size:10px;font-family:'Arial', sans-serif;fill:#000000" fill="currentColor" y="9" dy="-.15em" dx="-.8em" transform="rotate(-35)"> 01/07/2024</text></g><g class="tick" opacity="1" transform="translate(258.7608695652174,0)"><line style="stroke:currentColor" stroke="currentColor" y2="6" /><text style="text-anchor:end;font-size:10px;font-family:'Arial', sans-serif;fill:#000000" fill="currentColor" y="9" dy="-.15em" dx="-.8em" transform="rotate(-35)"> 01/09/2024</text></g><g class="tick" opacity="1" transform="translate(308.32608695652175,0)"><line style="stroke:currentColor" stroke="currentColor" y2="6" /><text style="text-anchor:end;font-size:10px;font-family:'Arial', sans-serif;fill:#000000" fill="currentColor" y="9" dy="-.15em" dx="-.8em" transform="rotate(-35)"> 01/11/2024</text></g><g class="tick" opacity="1" transform="translate(357.89130434782606,0)"><line style="stroke:currentColor" stroke="currentColor" y2="6" /><text style="text-anchor:end;font-size:10px;font-family:'Arial', sans-serif;fill:#000000" fill="currentColor" y="9" dy="-.15em" dx="-.8em" transform="rotate(-35)"> 01/01/2025</text></g><g class="tick" opacity="1" transform="translate(407.45652173913044,0)"><line style="stroke:currentColor" stroke="currentColor" y2="6" /><text style="text-anchor:end;font-size:10px;font-family:'Arial', sans-serif;fill:#000000" fill="currentColor" y="9" dy="-.15em" dx="-.8em" transform="rotate(-35)"> 01/03/2025</text></g><g class="tick" opacity="1" transform="translate(457.02173913043475,0)"><line style="stroke:currentColor" stroke="currentColor" y2="6" /><text style="text-anchor:end;font-size:10px;font-family:'Arial', sans-serif;fill:#000000" fill="currentColor" y="9" dy="-.15em" dx="-.8em" transform="rotate(-35)"> 01/05/2025</text></g><g class="tick" opacity="1" transform="translate(506.5869565217391,0)"><line style="stroke:currentColor" stroke="currentColor" y2="6" /><text style="text-anchor:end;font-size:10px;font-family:'Arial', sans-serif;fill:#000000" fill="currentColor" y="9" dy="-.15em" dx="-.8em" transform="rotate(-35)"> 01/07/2025</text></g><g class="tick" opacity="1" transform="translate(556.1521739130435,0)"><line style="stroke:currentColor" stroke="currentColor" y2="6" /><text style="text-anchor:end;font-size:10px;font-family:'Arial', sans-serif;fill:#000000" fill="currentColor" y="9" dy="-.15em" dx="-.8em" transform="rotate(-35)"> 01/09/2025</text></g><g class="tick" opacity="1" transform="translate(605.7173913043479,0)"><line style="stroke:currentColor" stroke="currentColor" y2="6" /><text style="text-anchor:end;font-size:10px;font-family:'Arial', sans-serif;fill:#000000" fill="currentColor" y="9" dy="-.15em" dx="-.8em" transform="rotate(-35)"> 01/11/2025</text></g></g><text style="text-anchor:middle;font-size:10px;font-style:normal;font-family:'Arial', sans-serif;fill:#000000" class="xaxislabel" x="320" y="385" /><g class="yaxisgroup" fill="none" font-size="10" font-family="sans-serif" text-anchor="end" color="#000000" transform="translate(60, 0)"><path class="domain" stroke="currentColor" d="M-6,355.5H0.5V10.5H-6" /><g class="tick" opacity="1" transform="translate(0,345.4760002117983)"><line style="stroke:currentColor" stroke="currentColor" x2="-6" /><text style="text-anchor:right;font-size:10px;font-family:'Arial', sans-serif;fill:#000000" fill="currentColor" x="-9" dy="0.32em" transform="rotate(0)">6.00</text></g><g class="tick" opacity="1" transform="translate(0,300.1923451308156)"><line style="stroke:currentColor" stroke="currentColor" x2="-6" /><text style="text-anchor:right;font-size:10px;font-family:'Arial', sans-serif;fill:#000000" fill="currentColor" x="-9" dy="0.32em" transform="rotate(0)">8.00</text></g><g class="tick" opacity="1" transform="translate(0,254.908690049833)"><line style="stroke:currentColor" stroke="currentColor" x2="-6" /><text style="text-anchor:right;font-size:10px;font-family:'Arial', sans-serif;fill:#000000" fill="currentColor" x="-9" dy="0.32em" transform="rotate(0)">10.00</text></g><g class="tick" opacity="1" transform="translate(0,209.62503496885037)"><line style="stroke:currentColor" stroke="currentColor" x2="-6" /><text style="text-anchor:right;font-size:10px;font-family:'Arial', sans-serif;fill:#000000" fill="currentColor" x="-9" dy="0.32em" transform="rotate(0)">12.00</text></g><g class="tick" opacity="1" transform="translate(0,164.34137988786776)"><line style="stroke:currentColor" stroke="currentColor" x2="-6" /><text style="text-anchor:right;font-size:10px;font-family:'Arial', sans-serif;fill:#000000" fill="currentColor" x="-9" dy="0.32em" transform="rotate(0)">14.00</text></g><g class="tick" opacity="1" transform="translate(0,119.05772480688509)"><line style="stroke:currentColor" stroke="currentColor" x2="-6" /><text style="text-anchor:right;font-size:10px;font-family:'Arial', sans-serif;fill:#000000" fill="currentColor" x="-9" dy="0.32em" transform="rotate(0)">16.00</text></g><g class="tick" opacity="1" transform="translate(0,73.7740697259025)"><line style="stroke:currentColor" stroke="currentColor" x2="-6" /><text style="text-anchor:right;font-size:10px;font-family:'Arial', sans-serif;fill:#000000" fill="currentColor" x="-9" dy="0.32em" transform="rotate(0)">18.00</text></g><g class="tick" opacity="1" transform="translate(0,28.490414644919838)"><line style="stroke:currentColor" stroke="currentColor" x2="-6" /><text style="text-anchor:right;font-size:10px;font-family:'Arial', sans-serif;fill:#000000" fill="currentColor" x="-9" dy="0.32em" transform="rotate(0)">20.00</text></g></g><text style="text-anchor:middle;font-size:10px;font-style:normal;font-family:'Arial', sans-serif;fill:#000000" class="yaxislabel" x="30" y="200" transform="rotate(-90, 30, 200)" /><g class="linesgroup"><g style="stroke-opacity:1" class="values-linegroup"><path d="M60,159.955L84.783,163.78L109.565,166.101L134.348,186.199L159.13,219.543L183.913,165.111L208.696,202.85L233.478,220.489L258.261,184.337L283.043,86.426L307.826,62.472L332.609,65.464L357.391,143.773L382.174,101.415L406.957,73.994L431.739,94.302L456.522,166.3L481.304,202.595L506.087,185.226L530.87,209.052L555.652,148.538L580.435,292.472L605.217,229.401L630,288.215" fill="none" stroke="#A6A6A6" stroke-dasharray="10 0" stroke-width="1" /></g><g style="stroke-opacity:1" class="targets-linegroup"><path d="M60,167.417L84.783,167.417L109.565,167.417L134.348,167.417L159.13,167.417L183.913,167.417L208.696,167.417L233.478,167.417L258.261,167.417L283.043,167.417L307.826,167.417L332.609,167.417L357.391,167.417L382.174,167.417L406.957,167.417L431.739,167.417L456.522,167.417L481.304,167.417L506.087,167.417L530.87,167.417L555.652,167.417L580.435,167.417L605.217,167.417L630,167.417" fill="none" stroke="#000000" stroke-dasharray="10 0" stroke-width="1.5" /></g><g style="stroke-opacity:1" class="ll99-linegroup"><path d="M60,267.839L84.783,267.839L109.565,267.839L134.348,267.839L159.13,267.839L183.913,267.839L208.696,267.839L233.478,267.839L258.261,267.839L283.043,267.839L307.826,267.839L332.609,267.839L357.391,267.839L382.174,267.839L406.957,267.839L431.739,267.839L456.522,267.839L481.304,267.839L506.087,267.839L530.87,267.839L555.652,267.839L580.435,267.839L605.217,267.839L630,267.839" fill="none" stroke="#6495ED" stroke-dasharray="10 10" stroke-width="2" /></g><g style="stroke-opacity:1" class="ul99-linegroup"><path d="M60,66.995L84.783,66.995L109.565,66.995L134.348,66.995L159.13,66.995L183.913,66.995L208.696,66.995L233.478,66.995L258.261,66.995L283.043,66.995L307.826,66.995L332.609,66.995L357.391,66.995L382.174,66.995L406.957,66.995L431.739,66.995L456.522,66.995L481.304,66.995L506.087,66.995L530.87,66.995L555.652,66.995L580.435,66.995L605.217,66.995L630,66.995" fill="none" stroke="#6495ED" stroke-dasharray="10 10" stroke-width="2" /></g><g style="stroke-opacity:1" class="ll95-linegroup"><path d="M60,234.365L84.783,234.365L109.565,234.365L134.348,234.365L159.13,234.365L183.913,234.365L208.696,234.365L233.478,234.365L258.261,234.365L283.043,234.365L307.826,234.365L332.609,234.365L357.391,234.365L382.174,234.365L406.957,234.365L431.739,234.365L456.522,234.365L481.304,234.365L506.087,234.365L530.87,234.365L555.652,234.365L580.435,234.365L605.217,234.365L630,234.365" fill="none" stroke="#6495ED" stroke-dasharray="2 5" stroke-width="2" /></g><g style="stroke-opacity:1" class="ul95-linegroup"><path d="M60,100.469L84.783,100.469L109.565,100.469L134.348,100.469L159.13,100.469L183.913,100.469L208.696,100.469L233.478,100.469L258.261,100.469L283.043,100.469L307.826,100.469L332.609,100.469L357.391,100.469L382.174,100.469L406.957,100.469L431.739,100.469L456.522,100.469L481.304,100.469L506.087,100.469L530.87,100.469L555.652,100.469L580.435,100.469L605.217,100.469L630,100.469" fill="none" stroke="#6495ED" stroke-dasharray="2 5" stroke-width="2" /></g><text x="630" y="288.21467344386485" fill="#000000" font-size="10px" font-family="'Arial', sans-serif" text-anchor="start" dx="10px" dy="0px" /><text x="630" y="167.41724882247627" fill="#000000" font-size="10px" font-family="'Arial', sans-serif" text-anchor="start" dx="10px" dy="0px" /><text x="630" y="267.8391273861993" fill="#000000" font-size="10px" font-family="'Arial', sans-serif" text-anchor="start" dx="10px" dy="0px" /><text x="630" y="66.99537025875316" fill="#000000" font-size="10px" font-family="'Arial', sans-serif" text-anchor="start" dx="10px" dy="0px" /><text x="630" y="234.36516786495827" fill="#000000" font-size="10px" font-family="'Arial', sans-serif" text-anchor="start" dx="10px" dy="0px" /><text x="630" y="100.46932977999418" fill="#000000" font-size="10px" font-family="'Arial', sans-serif" text-anchor="start" dx="10px" dy="0px" /></g><g class="dotsgroup"><path style="fill:#A6A6A6;stroke:#A6A6A6;stroke-width:1;fill-opacity:1;stroke-opacity:1" d="M2.5,0A2.5,2.5,0,1,1,-2.5,0A2.5,2.5,0,1,1,2.5,0" transform="translate(60, 159.955307349052)" /><path style="fill:#A6A6A6;stroke:#A6A6A6;stroke-width:1;fill-opacity:1;stroke-opacity:1" d="M2.5,0A2.5,2.5,0,1,1,-2.5,0A2.5,2.5,0,1,1,2.5,0" transform="translate(84.78260869565217, 163.78049136083226)" /><path style="fill:#A6A6A6;stroke:#A6A6A6;stroke-width:1;fill-opacity:1;stroke-opacity:1" d="M2.5,0A2.5,2.5,0,1,1,-2.5,0A2.5,2.5,0,1,1,2.5,0" transform="translate(109.56521739130434, 166.10061866538004)" /><path style="fill:#A6A6A6;stroke:#A6A6A6;stroke-width:1;fill-opacity:1;stroke-opacity:1" d="M2.5,0A2.5,2.5,0,1,1,-2.5,0A2.5,2.5,0,1,1,2.5,0" transform="translate(134.3478260869565, 186.19947412293274)" /><path style="fill:#A6A6A6;stroke:#A6A6A6;stroke-width:1;fill-opacity:1;stroke-opacity:1" d="M2.5,0A2.5,2.5,0,1,1,-2.5,0A2.5,2.5,0,1,1,2.5,0" transform="translate(159.1304347826087, 219.54320010805992)" /><path style="fill:#A6A6A6;stroke:#A6A6A6;stroke-width:1;fill-opacity:1;stroke-opacity:1" d="M2.5,0A2.5,2.5,0,1,1,-2.5,0A2.5,2.5,0,1,1,2.5,0" transform="translate(183.91304347826087, 165.11111640350205)" /><path style="fill:#A6A6A6;stroke:#A6A6A6;stroke-width:1;fill-opacity:1;stroke-opacity:1" d="M2.5,0A2.5,2.5,0,1,1,-2.5,0A2.5,2.5,0,1,1,2.5,0" transform="translate(208.69565217391303, 202.84999378469604)" /><path style="fill:#A6A6A6;stroke:#A6A6A6;stroke-width:1;fill-opacity:1;stroke-opacity:1" d="M2.5,0A2.5,2.5,0,1,1,-2.5,0A2.5,2.5,0,1,1,2.5,0" transform="translate(233.47826086956522, 220.48941285439275)" /><path style="fill:#A6A6A6;stroke:#A6A6A6;stroke-width:1;fill-opacity:1;stroke-opacity:1" d="M2.5,0A2.5,2.5,0,1,1,-2.5,0A2.5,2.5,0,1,1,2.5,0" transform="translate(258.2608695652174, 184.33696703812154)" /><path style="fill:#E46C0A;stroke:#E46C0A;stroke-width:1;fill-opacity:1;stroke-opacity:1" d="M2.5,0A2.5,2.5,0,1,1,-2.5,0A2.5,2.5,0,1,1,2.5,0" transform="translate(283.04347826086956, 86.42615428375939)" /><path style="fill:#E46C0A;stroke:#E46C0A;stroke-width:1;fill-opacity:1;stroke-opacity:1" d="M2.5,0A2.5,2.5,0,1,1,-2.5,0A2.5,2.5,0,1,1,2.5,0" transform="translate(307.82608695652175, 62.472416274158775)" /><path style="fill:#E46C0A;stroke:#E46C0A;stroke-width:1;fill-opacity:1;stroke-opacity:1" d="M2.5,0A2.5,2.5,0,1,1,-2.5,0A2.5,2.5,0,1,1,2.5,0" transform="translate(332.60869565217394, 65.46430375158218)" /><path style="fill:#E46C0A;stroke:#E46C0A;stroke-width:1;fill-opacity:1;stroke-opacity:1" d="M2.5,0A2.5,2.5,0,1,1,-2.5,0A2.5,2.5,0,1,1,2.5,0" transform="translate(357.39130434782606, 143.77344101706595)" /><path style="fill:#E46C0A;stroke:#E46C0A;stroke-width:1;fill-opacity:1;stroke-opacity:1" d="M2.5,0A2.5,2.5,0,1,1,-2.5,0A2.5,2.5,0,1,1,2.5,0" transform="translate(382.17391304347825, 101.41477539953175)" /><path style="fill:#E46C0A;stroke:#E46C0A;stroke-width:1;fill-opacity:1;stroke-opacity:1" d="M2.5,0A2.5,2.5,0,1,1,-2.5,0A2.5,2.5,0,1,1,2.5,0" transform="translate(406.95652173913044, 73.9939884325641)" /><path style="fill:#E46C0A;stroke:#E46C0A;stroke-width:1;fill-opacity:1;stroke-opacity:1" d="M2.5,0A2.5,2.5,0,1,1,-2.5,0A2.5,2.5,0,1,1,2.5,0" transform="translate(431.7391304347826, 94.30240483140824)" /><path style="fill:#E46C0A;stroke:#E46C0A;stroke-width:1;fill-opacity:1;stroke-opacity:1" d="M2.5,0A2.5,2.5,0,1,1,-2.5,0A2.5,2.5,0,1,1,2.5,0" transform="translate(456.52173913043475, 166.30043876009972)" /><path style="fill:#A6A6A6;stroke:#A6A6A6;stroke-width:1;fill-opacity:1;stroke-opacity:1" d="M2.5,0A2.5,2.5,0,1,1,-2.5,0A2.5,2.5,0,1,1,2.5,0" transform="translate(481.30434782608694, 202.59503412154092)" /><path style="fill:#A6A6A6;stroke:#A6A6A6;stroke-width:1;fill-opacity:1;stroke-opacity:1" d="M2.5,0A2.5,2.5,0,1,1,-2.5,0A2.5,2.5,0,1,1,2.5,0" transform="translate(506.0869565217391, 185.22646834787324)" /><path style="fill:#A6A6A6;stroke:#A6A6A6;stroke-width:1;fill-opacity:1;stroke-opacity:1" d="M2.5,0A2.5,2.5,0,1,1,-2.5,0A2.5,2.5,0,1,1,2.5,0" transform="translate(530.8695652173913, 209.05199110167516)" /><path style="fill:#A6A6A6;stroke:#A6A6A6;stroke-width:1;fill-opacity:1;stroke-opacity:1" d="M2.5,0A2.5,2.5,0,1,1,-2.5,0A2.5,2.5,0,1,1,2.5,0" transform="translate(555.6521739130435, 148.53758564722818)" /><path style="fill:#00B0F0;stroke:#00B0F0;stroke-width:1;fill-opacity:1;stroke-opacity:1" d="M2.5,0A2.5,2.5,0,1,1,-2.5,0A2.5,2.5,0,1,1,2.5,0" transform="translate(580.4347826086956, 292.4724162741587)" /><path style="fill:#A6A6A6;stroke:#A6A6A6;stroke-width:1;fill-opacity:1;stroke-opacity:1" d="M2.5,0A2.5,2.5,0,1,1,-2.5,0A2.5,2.5,0,1,1,2.5,0" transform="translate(605.2173913043479, 229.40129836594974)" /><path style="fill:#00B0F0;stroke:#00B0F0;stroke-width:1;fill-opacity:1;stroke-opacity:1" d="M2.5,0A2.5,2.5,0,1,1,-2.5,0A2.5,2.5,0,1,1,2.5,0" transform="translate(630, 288.21467344386485)" /></g><g class="icongroup" transform="scale(0.08465608465608465) translate(7182, 0)"><defs><filter id="fx0" x="-10%" y="-10%" width="120%" height="120%" filterUnits="userSpaceOnUse" userSpaceOnUse="userSpaceOnUse"><feComponentTransfer color-interpolation-filters="sRGB"><feFuncR type="discrete" tableValues="0 0" /><feFuncG type="discrete" tableValues="0 0" /><feFuncB type="discrete" tableValues="0 0" /><feFuncA type="linear" slope="0.4" intercept="0" /></feComponentTransfer><feGaussianBlur stdDeviation="1.77778 1.77778" /></filter><clipPath id="clip1"><rect x="0" y="0" width="378" height="378" /></clipPath><clipPath id="clip2"><path d="M189 38C105.605 38 38 105.605 38 189 38 272.395 105.605 340 189 340 272.395 340 340 272.395 340 189 340 105.605 272.395 38 189 38ZM5.63264e-06 5.63264e-06 378 5.63264e-06 378 378 5.63264e-06 378Z" fill-rule="evenodd" clip-rule="evenodd" /></clipPath><clipPath id="clip3"><rect x="-2" y="-2" width="346" height="346" /></clipPath></defs><g class="improvementLow" clip-path="url(#clip1)"><rect x="0" y="0" width="378" height="378" fill="#FFFFFF" /><g clip-path="url(#clip2)"><g clip-path="url(#clip3)" filter="url(#fx0)" transform="translate(16 25)"><g clip-path="url(#clip4)"><path d="M17.47 172.83C17.47 86.9332 87.1031 17.3 173 17.3 258.897 17.3 328.53 86.9332 328.53 172.83 328.53 258.727 258.897 328.36 173 328.36 87.1031 328.36 17.47 258.727 17.47 172.83Z" stroke="#00B0F0" stroke-width="21" stroke-miterlimit="8" fill="#FFFFFF" fill-rule="evenodd" /></g></g></g><path d="M38 189C38 105.605 105.605 38 189 38 272.395 38 340 105.605 340 189 340 272.395 272.395 340 189 340 105.605 340 38 272.395 38 189Z" stroke="#00B0F0" stroke-width="20" stroke-miterlimit="8" fill="#FFFFFF" fill-rule="evenodd" /><text fill="#00B0F0" font-family="Arial,Arial_MSFontService,sans-serif" font-weight="700" font-size="11.7" transform="translate(106.228 292) scale(10, 10)">L</text><path d="M95.4025 162.857 141.063 143.281 144.597 151.525 98.9371 171.101Z" stroke="#7F7F7F" stroke-width="2.66667" stroke-miterlimit="8" fill="#7F7F7F" fill-rule="evenodd" /><path d="M149.897 145.496 193.618 169.089 189.358 176.983 145.638 153.39Z" stroke="#7F7F7F" stroke-width="2.66667" stroke-miterlimit="8" fill="#7F7F7F" fill-rule="evenodd" /><path d="M199.882 171.677 235.443 206.367 229.18 212.788 193.618 178.098Z" stroke="#7F7F7F" stroke-width="2.66667" stroke-miterlimit="8" fill="#7F7F7F" fill-rule="evenodd" /><path d="M238.113 209.566 284.671 192.233 287.8 200.639 241.243 217.972Z" stroke="#7F7F7F" stroke-width="2.66667" stroke-miterlimit="8" fill="#7F7F7F" fill-rule="evenodd" /><path d="M76.5001 168.5C76.5001 156.902 85.6782 147.5 97.0001 147.5 108.322 147.5 117.5 156.902 117.5 168.5 117.5 180.098 108.322 189.5 97.0001 189.5 85.6782 189.5 76.5001 180.098 76.5001 168.5Z" stroke="#7F7F7F" stroke-width="2.66667" stroke-miterlimit="8" fill="#7F7F7F" fill-rule="evenodd" /><path d="M123.5 150C123.5 138.678 132.678 129.5 144 129.5 155.322 129.5 164.5 138.678 164.5 150 164.5 161.322 155.322 170.5 144 170.5 132.678 170.5 123.5 161.322 123.5 150Z" stroke="#7F7F7F" stroke-width="2.66667" stroke-miterlimit="8" fill="#7F7F7F" fill-rule="evenodd" /><path d="M170.5 168.5C170.5 156.902 179.902 147.5 191.5 147.5 203.098 147.5 212.5 156.902 212.5 168.5 212.5 180.098 203.098 189.5 191.5 189.5 179.902 189.5 170.5 180.098 170.5 168.5Z" stroke="#7F7F7F" stroke-width="2.66667" stroke-miterlimit="8" fill="#7F7F7F" fill-rule="evenodd" /><path d="M217.5 214C217.5 202.678 226.902 193.5 238.5 193.5 250.098 193.5 259.5 202.678 259.5 214 259.5 225.322 250.098 234.5 238.5 234.5 226.902 234.5 217.5 225.322 217.5 214Z" stroke="#00B0F0" stroke-width="2.66667" stroke-miterlimit="8" fill="#00B0F0" fill-rule="evenodd" /><path d="M265.5 199C265.5 187.678 274.678 178.5 286 178.5 297.322 178.5 306.5 187.678 306.5 199 306.5 210.322 297.322 219.5 286 219.5 274.678 219.5 265.5 210.322 265.5 199Z" stroke="#00B0F0" stroke-width="2.66667" stroke-miterlimit="8" fill="#00B0F0" fill-rule="evenodd" /></g></g><g class="icongroup" transform="scale(0.08465608465608465) translate(6804, 0)"><defs><filter id="fx0" x="-10%" y="-10%" width="120%" height="120%" filterUnits="userSpaceOnUse" userSpaceOnUse="userSpaceOnUse"><feComponentTransfer color-interpolation-filters="sRGB"><feFuncR type="discrete" tableValues="0 0" /><feFuncG type="discrete" tableValues="0 0" /><feFuncB type="discrete" tableValues="0 0" /><feFuncA type="linear" slope="0.4" intercept="0" /></feComponentTransfer><feGaussianBlur stdDeviation="1.77778 1.77778" /></filter><clipPath id="clip1"><rect x="0" y="0" width="378" height="378" /></clipPath><clipPath id="clip2"><path d="M189 38C105.605 38 38 105.605 38 189 38 272.395 105.605 340 189 340 272.395 340 340 272.395 340 189 340 105.605 272.395 38 189 38ZM5.63264e-06 5.63264e-06 378 5.63264e-06 378 378 5.63264e-06 378Z" fill-rule="evenodd" clip-rule="evenodd" /></clipPath><clipPath id="clip3"><rect x="-2" y="-2" width="346" height="346" /></clipPath></defs><g class="concernHigh" clip-path="url(#clip1)"><rect x="0" y="0" width="378" height="378" fill="#FFFFFF" /><g clip-path="url(#clip2)"><g clip-path="url(#clip3)" filter="url(#fx0)" transform="translate(16 25)"><g clip-path="url(#clip4)"><path d="M0 155.53C-1.9801e-14 69.6331 69.6331-1.9801e-14 155.53-3.96021e-14 241.427-7.92042e-14 311.06 69.6331 311.06 155.53 311.06 241.427 241.427 311.06 155.53 311.06 69.6331 311.06-9.90052e-14 241.427 0 155.53Z" stroke="#E46C0A" stroke-width="21" stroke-miterlimit="8" fill="#FFFFFF" fill-rule="evenodd" transform="matrix(1 0 0 -1 17.47 328.36)" /></g></g></g><path d="M0 151C-1.92243e-14 67.605 67.605-1.92243e-14 151-3.84486e-14 234.395-7.68973e-14 302 67.605 302 151 302 234.395 234.395 302 151 302 67.605 302-9.61216e-14 234.395 0 151Z" stroke="#E46C0A" stroke-width="20" stroke-miterlimit="8" fill="#FFFFFF" fill-rule="evenodd" transform="matrix(1 0 0 -1 38 340)" /><text fill="#E46C0A" font-family="Arial,Arial_MSFontService,sans-serif" font-weight="700" font-size="11.7" transform="translate(106.228 172) scale(10, 10)">H</text><rect x="0" y="0" width="49.6797" height="8.97008" stroke="#7F7F7F" stroke-width="2.66667" stroke-miterlimit="8" fill="#7F7F7F" transform="matrix(0.919094 0.394039 0.394039 -0.919094 95.4025 215.096)" /><rect x="0" y="0" width="49.6797" height="8.97008" stroke="#7F7F7F" stroke-width="2.66667" stroke-miterlimit="8" fill="#7F7F7F" transform="matrix(0.880045 -0.47489 -0.47489 -0.880045 149.897 232.457)" /><rect x="0" y="0" width="49.6797" height="8.97008" stroke="#7F7F7F" stroke-width="2.66667" stroke-miterlimit="8" fill="#7F7F7F" transform="matrix(0.715824 -0.698281 -0.698281 -0.715824 199.882 206.276)" /><rect x="0" y="0" width="49.6797" height="8.97008" stroke="#7F7F7F" stroke-width="2.66667" stroke-miterlimit="8" fill="#7F7F7F" transform="matrix(0.937161 0.348898 0.348898 -0.937161 238.113 168.387)" /><path d="M0 21C-2.60992e-15 9.40202 9.17816-2.67358e-15 20.5-5.34716e-15 31.8218-1.06943e-14 41 9.40202 41 21 41 32.598 31.8218 42 20.5 42 9.17816 42-1.30496e-14 32.598 0 21Z" stroke="#7F7F7F" stroke-width="2.66667" stroke-miterlimit="8" fill="#7F7F7F" fill-rule="evenodd" transform="matrix(1 0 0 -1 76.5001 231.5)" /><path d="M0 20.5C-2.60992e-15 9.17816 9.17816-2.60992e-15 20.5-5.21985e-15 31.8218-1.04397e-14 41 9.17816 41 20.5 41 31.8218 31.8218 41 20.5 41 9.17816 41-1.30496e-14 31.8218 0 20.5Z" stroke="#7F7F7F" stroke-width="2.66667" stroke-miterlimit="8" fill="#7F7F7F" fill-rule="evenodd" transform="matrix(1 0 0 -1 123.5 249.5)" /><path d="M0 21C-2.67358e-15 9.40202 9.40202-2.67358e-15 21-5.34716e-15 32.598-1.06943e-14 42 9.40202 42 21 42 32.598 32.598 42 21 42 9.40202 42-1.33679e-14 32.598 0 21Z" stroke="#7F7F7F" stroke-width="2.66667" stroke-miterlimit="8" fill="#7F7F7F" fill-rule="evenodd" transform="matrix(1 0 0 -1 170.5 231.5)" /><path d="M0 20.5C-2.67358e-15 9.17816 9.40202-2.60992e-15 21-5.21985e-15 32.598-1.04397e-14 42 9.17816 42 20.5 42 31.8218 32.598 41 21 41 9.40202 41-1.33679e-14 31.8218 0 20.5Z" stroke="#E46C0A" stroke-width="2.66667" stroke-miterlimit="8" fill="#E46C0A" fill-rule="evenodd" transform="matrix(1 0 0 -1 217.5 185.5)" /><path d="M0 20.5C-2.60992e-15 9.17816 9.17816-2.60992e-15 20.5-5.21985e-15 31.8218-1.04397e-14 41 9.17816 41 20.5 41 31.8218 31.8218 41 20.5 41 9.17816 41-1.30496e-14 31.8218 0 20.5Z" stroke="#E46C0A" stroke-width="2.66667" stroke-miterlimit="8" fill="#E46C0A" fill-rule="evenodd" transform="matrix(1 0 0 -1 265.5 200.5)" /></g></g></svg>