<svg viewBox="0 0 640 400" width="640px" height="400px" xmlns="http://www.w3.org/2000/svg"><rect x="0" y="0" width="100%" height="100%" fill="white"/><line style="stroke-opacity:0" stroke="black" stroke-width="1px" y2="340" y1="10" x2="0" x1="0" class="ttip-line-x" /><line style="stroke-opacity:0" stroke="black" stroke-width="1px" y2="0" y1="0" x2="630" x1="60" class="ttip-line-y" /><g transform="translate(0, 340)" color="#000000" text-anchor="middle" font-family="sans-serif" font-size="10" fill="none" class="xaxisgroup"><g class="xaxislabel"><text style="text-anchor:middle;font-size:10px;font-family:'Arial', sans-serif;fill:#000000" transform="translate(320, 55)" y="0" x="0" /></g><path d="M60.5,6V0.5H630.5V6" stroke="currentColor" class="domain" /><g transform="translate(60.5,0)" opacity="1" class="tick"><line y2="6" stroke="currentColor" /><text style="font-size:10px;font-family:'Arial', sans-serif;fill:#000000" text-anchor="middle" transform="rotate(0)" dy="0.71em" y="9" fill="currentColor">0</text></g><g transform="translate(113.10729118597139,0)" opacity="1" class="tick"><line y2="6" stroke="currentColor" /><text style="font-size:10px;font-family:'Arial', sans-serif;fill:#000000" text-anchor="middle" transform="rotate(0)" dy="0.71em" y="9" fill="currentColor">20</text></g><g transform="translate(165.71458237194278,0)" opacity="1" class="tick"><line y2="6" stroke="currentColor" /><text style="font-size:10px;font-family:'Arial', sans-serif;fill:#000000" text-anchor="middle" transform="rotate(0)" dy="0.71em" y="9" fill="currentColor">40</text></g><g transform="translate(218.32187355791416,0)" opacity="1" class="tick"><line y2="6" stroke="currentColor" /><text style="font-size:10px;font-family:'Arial', sans-serif;fill:#000000" text-anchor="middle" transform="rotate(0)" dy="0.71em" y="9" fill="currentColor">60</text></g><g transform="translate(270.92916474388556,0)" opacity="1" class="tick"><line y2="6" stroke="currentColor" /><text style="font-size:10px;font-family:'Arial', sans-serif;fill:#000000" text-anchor="middle" transform="rotate(0)" dy="0.71em" y="9" fill="currentColor">80</text></g><g transform="translate(323.5364559298569,0)" opacity="1" class="tick"><line y2="6" stroke="currentColor" /><text style="font-size:10px;font-family:'Arial', sans-serif;fill:#000000" text-anchor="middle" transform="rotate(0)" dy="0.71em" y="9" fill="currentColor">100</text></g><g transform="translate(376.1437471158283,0)" opacity="1" class="tick"><line y2="6" stroke="currentColor" /><text style="font-size:10px;font-family:'Arial', sans-serif;fill:#000000" text-anchor="middle" transform="rotate(0)" dy="0.71em" y="9" fill="currentColor">120</text></g><g transform="translate(428.7510383017997,0)" opacity="1" class="tick"><line y2="6" stroke="currentColor" /><text style="font-size:10px;font-family:'Arial', sans-serif;fill:#000000" text-anchor="middle" transform="rotate(0)" dy="0.71em" y="9" fill="currentColor">140</text></g><g transform="translate(481.35832948777113,0)" opacity="1" class="tick"><line y2="6" stroke="currentColor" /><text style="font-size:10px;font-family:'Arial', sans-serif;fill:#000000" text-anchor="middle" transform="rotate(0)" dy="0.71em" y="9" fill="currentColor">160</text></g><g transform="translate(533.9656206737425,0)" opacity="1" class="tick"><line y2="6" stroke="currentColor" /><text style="font-size:10px;font-family:'Arial', sans-serif;fill:#000000" text-anchor="middle" transform="rotate(0)" dy="0.71em" y="9" fill="currentColor">180</text></g><g transform="translate(586.5729118597138,0)" opacity="1" class="tick"><line y2="6" stroke="currentColor" /><text style="font-size:10px;font-family:'Arial', sans-serif;fill:#000000" text-anchor="middle" transform="rotate(0)" dy="0.71em" y="9" fill="currentColor">200</text></g></g><g transform="translate(60, 0)" color="#000000" text-anchor="end" font-family="sans-serif" font-size="10" fill="none" class="yaxisgroup"><g class="yaxislabel"><text style="text-anchor:middle;font-size:10px;font-family:'Arial', sans-serif;fill:#000000" transform="rotate(-90, -45, 200)" y="200" x="-45" /></g><path d="M-6,340.5H0.5V10.5H-6" stroke="currentColor" class="domain" /><g transform="translate(0,340.5)" opacity="1" class="tick"><line x2="-6" stroke="currentColor" /><text transform="rotate(0)" style="text-anchor:right;font-size:10px;font-family:'Arial', sans-serif;fill:#000000" dy="0.32em" x="-9" fill="currentColor">0.00%</text></g><g transform="translate(0,313.2391304347826)" opacity="1" class="tick"><line x2="-6" stroke="currentColor" /><text transform="rotate(0)" style="text-anchor:right;font-size:10px;font-family:'Arial', sans-serif;fill:#000000" dy="0.32em" x="-9" fill="currentColor">2.00%</text></g><g transform="translate(0,285.97826086956525)" opacity="1" class="tick"><line x2="-6" stroke="currentColor" /><text transform="rotate(0)" style="text-anchor:right;font-size:10px;font-family:'Arial', sans-serif;fill:#000000" dy="0.32em" x="-9" fill="currentColor">4.00%</text></g><g transform="translate(0,258.7173913043478)" opacity="1" class="tick"><line x2="-6" stroke="currentColor" /><text transform="rotate(0)" style="text-anchor:right;font-size:10px;font-family:'Arial', sans-serif;fill:#000000" dy="0.32em" x="-9" fill="currentColor">6.00%</text></g><g transform="translate(0,231.4565217391304)" opacity="1" class="tick"><line x2="-6" stroke="currentColor" /><text transform="rotate(0)" style="text-anchor:right;font-size:10px;font-family:'Arial', sans-serif;fill:#000000" dy="0.32em" x="-9" fill="currentColor">8.00%</text></g><g transform="translate(0,204.195652173913)" opacity="1" class="tick"><line x2="-6" stroke="currentColor" /><text transform="rotate(0)" style="text-anchor:right;font-size:10px;font-family:'Arial', sans-serif;fill:#000000" dy="0.32em" x="-9" fill="currentColor">10.00%</text></g><g transform="translate(0,176.93478260869566)" opacity="1" class="tick"><line x2="-6" stroke="currentColor" /><text transform="rotate(0)" style="text-anchor:right;font-size:10px;font-family:'Arial', sans-serif;fill:#000000" dy="0.32em" x="-9" fill="currentColor">12.00%</text></g><g transform="translate(0,149.67391304347828)" opacity="1" class="tick"><line x2="-6" stroke="currentColor" /><text transform="rotate(0)" style="text-anchor:right;font-size:10px;font-family:'Arial', sans-serif;fill:#000000" dy="0.32em" x="-9" fill="currentColor">14.00%</text></g><g transform="translate(0,122.41304347826085)" opacity="1" class="tick"><line x2="-6" stroke="currentColor" /><text transform="rotate(0)" style="text-anchor:right;font-size:10px;font-family:'Arial', sans-serif;fill:#000000" dy="0.32em" x="-9" fill="currentColor">16.00%</text></g><g transform="translate(0,95.15217391304347)" opacity="1" class="tick"><line x2="-6" stroke="currentColor" /><text transform="rotate(0)" style="text-anchor:right;font-size:10px;font-family:'Arial', sans-serif;fill:#000000" dy="0.32em" x="-9" fill="currentColor">18.00%</text></g><g transform="translate(0,67.8913043478261)" opacity="1" class="tick"><line x2="-6" stroke="currentColor" /><text transform="rotate(0)" style="text-anchor:right;font-size:10px;font-family:'Arial', sans-serif;fill:#000000" dy="0.32em" x="-9" fill="currentColor">20.00%</text></g><g transform="translate(0,40.63043478260867)" opacity="1" class="tick"><line x2="-6" stroke="currentColor" /><text transform="rotate(0)" style="text-anchor:right;font-size:10px;font-family:'Arial', sans-serif;fill:#000000" dy="0.32em" x="-9" fill="currentColor">22.00%</text></g><g transform="translate(0,13.369565217391289)" opacity="1" class="tick"><line x2="-6" stroke="currentColor" /><text transform="rotate(0)" style="text-anchor:right;font-size:10px;font-family:'Arial', sans-serif;fill:#000000" dy="0.32em" x="-9" fill="currentColor">24.00%</text></g></g><g class="linesgroup"><path style="stroke-opacity:1" stroke-dasharray="10 0" stroke-width="1.5" stroke="#000000" fill="none" d="M62.63,73.488L67.812,73.488L72.994,73.488L78.176,73.488L83.358,73.488L88.539,73.488L93.721,73.488L98.903,73.488L104.085,73.488L109.267,73.488L114.449,73.488L119.63,73.488L124.812,73.488L129.994,73.488L135.176,73.488L140.358,73.488L145.539,73.488L150.721,73.488L155.903,73.488L161.085,73.488L166.267,73.488L171.449,73.488L176.63,73.488L181.812,73.488L186.994,73.488L192.176,73.488L197.358,73.488L202.539,73.488L207.721,73.488L212.903,73.488L218.085,73.488L223.267,73.488L228.449,73.488L233.63,73.488L238.812,73.488L243.994,73.488L249.176,73.488L254.358,73.488L259.539,73.488L264.721,73.488L269.903,73.488L275.085,73.488L280.267,73.488L285.449,73.488L290.63,73.488L295.812,73.488L300.994,73.488L306.176,73.488L311.358,73.488L316.539,73.488L321.721,73.488L326.903,73.488L332.085,73.488L336.188,73.488L337.267,73.488L342.449,73.488L347.63,73.488L352.812,73.488L357.994,73.488L363.176,73.488L368.358,73.488L373.539,73.488L378.274,73.488L378.721,73.488L380.904,73.488L383.903,73.488L389.085,73.488L394.267,73.488L399.449,73.488L404.63,73.488L409.812,73.488L414.994,73.488L420.176,73.488L420.36,73.488L425.358,73.488L430.539,73.488L435.721,73.488L440.903,73.488L446.085,73.488L451.267,73.488L456.449,73.488L461.63,73.488L466.812,73.488L471.994,73.488L477.176,73.488L482.358,73.488L483.489,73.488L487.539,73.488L492.721,73.488L497.903,73.488L503.085,73.488L507.162,73.488L508.267,73.488L513.449,73.488L518.63,73.488L523.812,73.488L528.205,73.488L528.994,73.488L534.176,73.488L539.358,73.488L543.987,73.488L544.539,73.488L549.721,73.488L554.903,73.488L559.769,73.488L560.085,73.488L565.267,73.488L570.449,73.488L575.63,73.488L578.182,73.488L580.812,73.488L585.994,73.488L591.176,73.488L596.358,73.488L601.539,73.488L606.721,73.488L611.903,73.488L617.085,73.488L622.267,73.488" /><path style="stroke-opacity:1" stroke-dasharray="10 10" stroke-width="2" stroke="#6495ED" fill="none" d="M88.539,339.834L93.721,339.043L98.903,335.69L104.085,331.161L109.267,326.139L114.449,320.973L119.63,315.845L124.812,310.852L129.994,306.041L135.176,301.434L140.358,297.037L145.539,292.846L150.721,288.857L155.903,285.058L161.085,281.44L166.267,277.992L171.449,274.703L176.63,271.563L181.812,268.562L186.994,265.692L192.176,262.944L197.358,260.31L202.539,257.782L207.721,255.355L212.903,253.022L218.085,250.777L223.267,248.616L228.449,246.532L233.63,244.522L238.812,242.582L243.994,240.707L249.176,238.895L254.358,237.141L259.539,235.443L264.721,233.798L269.903,232.203L275.085,230.655L280.267,229.154L285.449,227.695L290.63,226.278L295.812,224.899L300.994,223.559L306.176,222.254L311.358,220.984L316.539,219.746L321.721,218.54L326.903,217.364L332.085,216.216L336.188,215.328L337.267,215.097L342.449,214.004L347.63,212.937L352.812,211.894L357.994,210.875L363.176,209.878L368.358,208.904L373.539,207.951L378.274,207.097L378.721,207.018L380.904,206.631L383.903,206.104L389.085,205.21L394.267,204.334L399.449,203.476L404.63,202.635L409.812,201.81L414.994,201.001L420.176,200.208L420.36,200.18L425.358,199.43L430.539,198.666L435.721,197.917L440.903,197.181L446.085,196.458L451.267,195.749L456.449,195.051L461.63,194.366L466.812,193.693L471.994,193.031L477.176,192.38L482.358,191.739L483.489,191.601L487.539,191.11L492.721,190.49L497.903,189.881L503.085,189.281L507.162,188.815L508.267,188.69L513.449,188.109L518.63,187.537L523.812,186.973L528.205,186.502L528.994,186.418L534.176,185.871L539.358,185.332L543.987,184.857L544.539,184.801L549.721,184.278L554.903,183.762L559.769,183.284L560.085,183.253L565.267,182.752L570.449,182.258L575.63,181.77L578.182,181.532L580.812,181.289L585.994,180.815L591.176,180.347L596.358,179.885L601.539,179.429L606.721,178.979L611.903,178.535L617.085,178.097L622.267,177.664" /><path style="stroke-opacity:1" stroke-dasharray="10 10" stroke-width="2" stroke="#6495ED" fill="none" /><path style="stroke-opacity:1" stroke-dasharray="2 5" stroke-width="2" stroke="#6495ED" fill="none" d="M72.994,339.601L78.176,330.123L83.358,317.383L88.539,305.179L93.721,294.208L98.903,284.483L104.085,275.864L109.267,268.189L114.449,261.315L119.63,255.119L124.812,249.502L129.994,244.382L135.176,239.69L140.358,235.371L145.539,231.379L150.721,227.674L155.903,224.224L161.085,221L166.267,217.98L171.449,215.143L176.63,212.47L181.812,209.947L186.994,207.56L192.176,205.297L197.358,203.147L202.539,201.102L207.721,199.154L212.903,197.294L218.085,195.516L223.267,193.815L228.449,192.184L233.63,190.62L238.812,189.117L243.994,187.673L249.176,186.282L254.358,184.942L259.539,183.65L264.721,182.403L269.903,181.198L275.085,180.033L280.267,178.907L285.449,177.816L290.63,176.759L295.812,175.734L300.994,174.74L306.176,173.774L311.358,172.837L316.539,171.926L321.721,171.04L326.903,170.178L332.085,169.339L336.188,168.691L337.267,168.522L342.449,167.726L347.63,166.95L352.812,166.194L357.994,165.456L363.176,164.735L368.358,164.032L373.539,163.345L378.274,162.731L378.721,162.673L380.904,162.395L383.903,162.017L389.085,161.375L394.267,160.748L399.449,160.134L404.63,159.533L409.812,158.944L414.994,158.368L420.176,157.803L420.36,157.783L425.358,157.25L430.539,156.708L435.721,156.176L440.903,155.654L446.085,155.143L451.267,154.641L456.449,154.148L461.63,153.665L466.812,153.19L471.994,152.724L477.176,152.266L482.358,151.816L483.489,151.718L487.539,151.373L492.721,150.939L497.903,150.511L503.085,150.091L507.162,149.765L508.267,149.678L513.449,149.271L518.63,148.871L523.812,148.477L528.205,148.148L528.994,148.09L534.176,147.708L539.358,147.333L543.987,147.002L544.539,146.963L549.721,146.599L554.903,146.24L559.769,145.908L560.085,145.887L565.267,145.538L570.449,145.195L575.63,144.857L578.182,144.692L580.812,144.524L585.994,144.195L591.176,143.871L596.358,143.551L601.539,143.236L606.721,142.925L611.903,142.618L617.085,142.316L622.267,142.017" /><path style="stroke-opacity:1" stroke-dasharray="2 5" stroke-width="2" stroke="#6495ED" fill="none" /><text dy="0px" dx="10px" text-anchor="start" font-family="'Arial', sans-serif" font-size="10px" fill="#000000" y="73.48798444228365" x="622.2667281956619" /><text dy="0px" dx="10px" text-anchor="start" font-family="'Arial', sans-serif" font-size="10px" fill="#000000" y="177.66419346540368" x="622.2667281956619" /><text dy="0px" dx="10px" text-anchor="start" font-family="'Arial', sans-serif" font-size="10px" fill="#000000" y="-49.15949117124436" x="622.2667281956619" /><text dy="0px" dx="10px" text-anchor="start" font-family="'Arial', sans-serif" font-size="10px" fill="#000000" y="142.01691419406802" x="622.2667281956619" /><text dy="0px" dx="10px" text-anchor="start" font-family="'Arial', sans-serif" font-size="10px" fill="#000000" y="-2.487879700331437" x="622.2667281956619" /></g><g class="dotsgroup"><g style="fill-opacity:1;stroke-opacity:1" class="dotsgroup-child"><path style="fill:#A6A6A6;stroke:#A6A6A6;stroke-width:1" transform="translate(507.16197508075675, 123.5166240409207)" d="M2.5,0A2.5,2.5,0,1,1,-2.5,0A2.5,2.5,0,1,1,2.5,0" /></g><g style="fill-opacity:1;stroke-opacity:1" class="dotsgroup-child"><path style="fill:#A6A6A6;stroke:#A6A6A6;stroke-width:1" transform="translate(380.9044762344255, 83.03278688524587)" d="M2.5,0A2.5,2.5,0,1,1,-2.5,0A2.5,2.5,0,1,1,2.5,0" /></g><g style="fill-opacity:1;stroke-opacity:1" class="dotsgroup-child"><path style="fill:#A6A6A6;stroke:#A6A6A6;stroke-width:1" transform="translate(528.2048915551453, 71.98583292623347)" d="M2.5,0A2.5,2.5,0,1,1,-2.5,0A2.5,2.5,0,1,1,2.5,0" /></g><g style="fill-opacity:1;stroke-opacity:1" class="dotsgroup-child"><path style="fill:#A6A6A6;stroke:#A6A6A6;stroke-width:1" transform="translate(543.9870789109368, 147.39603024574672)" d="M2.5,0A2.5,2.5,0,1,1,-2.5,0A2.5,2.5,0,1,1,2.5,0" /></g><g style="fill-opacity:1;stroke-opacity:1" class="dotsgroup-child"><path style="fill:#A6A6A6;stroke:#A6A6A6;stroke-width:1" transform="translate(483.4886940470697, 18.28787469619227)" d="M2.5,0A2.5,2.5,0,1,1,-2.5,0A2.5,2.5,0,1,1,2.5,0" /></g><g style="fill-opacity:1;stroke-opacity:1" class="dotsgroup-child"><path style="fill:#A6A6A6;stroke:#A6A6A6;stroke-width:1" transform="translate(336.1882787263498, 54.409937888198755)" d="M2.5,0A2.5,2.5,0,1,1,-2.5,0A2.5,2.5,0,1,1,2.5,0" /></g><g style="fill-opacity:1;stroke-opacity:1" class="dotsgroup-child"><path style="fill:#A6A6A6;stroke:#A6A6A6;stroke-width:1" transform="translate(559.7692662667282, 10)" d="M2.5,0A2.5,2.5,0,1,1,-2.5,0A2.5,2.5,0,1,1,2.5,0" /></g><g style="fill-opacity:1;stroke-opacity:1" class="dotsgroup-child"><path style="fill:#A6A6A6;stroke:#A6A6A6;stroke-width:1" transform="translate(378.2741116751269, 35.849802371541486)" d="M2.5,0A2.5,2.5,0,1,1,-2.5,0A2.5,2.5,0,1,1,2.5,0" /></g><g style="fill-opacity:1;stroke-opacity:1" class="dotsgroup-child"><path style="fill:#A6A6A6;stroke:#A6A6A6;stroke-width:1" transform="translate(420.35994462390397, 71.37099333544904)" d="M2.5,0A2.5,2.5,0,1,1,-2.5,0A2.5,2.5,0,1,1,2.5,0" /></g><g style="fill-opacity:1;stroke-opacity:1" class="dotsgroup-child"><path style="fill:#A6A6A6;stroke:#A6A6A6;stroke-width:1" transform="translate(578.1818181818182, 97.83491502979474)" d="M2.5,0A2.5,2.5,0,1,1,-2.5,0A2.5,2.5,0,1,1,2.5,0" /></g></g></svg>